<svg width="24" height="24" viewBox="0 0 24 24" fill="none" xmlns="http://www.w3.org/2000/svg">
<path d="M7.79825 10.4594C7.95108 9.89536 8.46138 9.50251 9.04577 9.49902C9.77454 9.49902 10.3653 10.0898 10.3653 10.8186C10.3653 11.4711 9.83635 12.0001 9.18383 12.0001C9.83635 12.0001 10.3653 12.529 10.3653 13.1816C10.3653 13.9103 9.77454 14.5011 9.04577 14.5011C8.46138 14.4976 7.95108 14.1048 7.79825 13.5407" stroke="black" stroke-width="1.5" stroke-linecap="round" stroke-linejoin="round"/>
<path fill-rule="evenodd" clip-rule="evenodd" d="M14.276 14.5011H12.8664V9.49902H14.276C15.3395 9.49902 16.2018 10.3612 16.2018 11.4248V12.5763C16.2006 13.6393 15.3389 14.5006 14.276 14.5011V14.5011Z" stroke="black" stroke-width="1.5" stroke-linecap="round" stroke-linejoin="round"/>
<rect x="2.99625" y="2.99609" width="18.0075" height="18.0075" rx="5" stroke="black" stroke-width="1.5" stroke-linecap="round" stroke-linejoin="round"/>
</svg>
