<svg width="24" height="24" viewBox="0 0 24 24" fill="none" xmlns="http://www.w3.org/2000/svg">
<path d="M10.6664 17.2247L12 15.8912L10.6664 14.5576" stroke="black" stroke-width="1.5" stroke-linecap="round" stroke-linejoin="round"/>
<path d="M13.3336 6.77637L12 8.10992L13.3336 9.44348" stroke="black" stroke-width="1.5" stroke-linecap="round" stroke-linejoin="round"/>
<path d="M8.27645 8.39062C4.59691 8.96586 1.99583 10.3634 1.99583 12.0001C1.99583 14.149 6.4747 15.8907 12 15.8907" stroke="black" stroke-width="1.5" stroke-linecap="round" stroke-linejoin="round"/>
<path d="M12 8.10986C17.5253 8.10986 22.0042 9.85159 22.0042 12.0005C22.0042 13.6372 19.4031 15.0347 15.7235 15.61" stroke="black" stroke-width="1.5" stroke-linecap="round" stroke-linejoin="round"/>
<path d="M18.6968 5.99783C17.0511 4.15807 14.6641 2.99658 12 2.99658C9.33589 2.99658 6.94889 4.15807 5.30321 5.99783" stroke="black" stroke-width="1.5" stroke-linecap="round" stroke-linejoin="round"/>
<path d="M5.30321 18.0029C6.94889 19.8427 9.33589 21.0042 12 21.0042C14.6641 21.0042 17.0511 19.8427 18.6968 18.0029" stroke="black" stroke-width="1.5" stroke-linecap="round" stroke-linejoin="round"/>
</svg>
