<svg width="24" height="24" viewBox="0 0 24 24" fill="none" xmlns="http://www.w3.org/2000/svg">
<path d="M6.75 11.5C4.127 11.5 2 9.373 2 6.75C2 4.127 4.127 2 6.75 2C9.374 2 11.5 4.127 11.5 6.75C11.5 9.373 9.374 11.5 6.75 11.5" stroke="black" stroke-width="1.5" stroke-linecap="round" stroke-linejoin="round"/>
<path d="M17.551 19.5612C17.088 19.8832 16.587 20.1652 16.045 20.3892C15.04 20.8062 13.999 21.0002 12.974 21.0002C8.843 21.0002 5.444 17.8792 5 13.8662" stroke="black" stroke-width="1.5" stroke-linecap="round" stroke-linejoin="round"/>
<path d="M16.541 12.974V14.312C16.541 15.544 17.539 16.541 18.77 16.541C20.002 16.541 20.999 15.543 20.999 14.312V12.974C20.999 8.843 17.878 5.444 13.865 5" stroke="black" stroke-width="1.5" stroke-linecap="round" stroke-linejoin="round"/>
<path d="M9.533 13.8662C9.931 15.4022 11.314 16.5412 12.974 16.5412C14.944 16.5412 16.541 14.9442 16.541 12.9742C16.541 11.3142 15.401 9.9312 13.866 9.5332" stroke="black" stroke-width="1.5" stroke-linecap="round" stroke-linejoin="round"/>
<path d="M6.75 11.5C4.127 11.5 2 9.373 2 6.75C2 4.127 4.127 2 6.75 2C9.373 2 11.5 4.127 11.5 6.75C11.5 9.373 9.373 11.5 6.75 11.5" stroke="black" stroke-width="1.5" stroke-linecap="round" stroke-linejoin="round"/>
<path d="M8.86101 5.69482L6.22201 8.33382L4.63901 6.74982" stroke="black" stroke-width="1.5" stroke-linecap="round" stroke-linejoin="round"/>
</svg>
