<svg width="24" height="24" viewBox="0 0 24 24" fill="none" xmlns="http://www.w3.org/2000/svg">
<path d="M17.5543 19.5646C15.2331 21.1822 12.2313 21.4572 9.65489 20.2882C7.07843 19.1192 5.30847 16.6792 4.99707 13.8672" stroke="black" stroke-width="1.5" stroke-linecap="round" stroke-linejoin="round"/>
<path d="M16.5439 12.9744V14.313C16.5439 15.5445 17.5422 16.5429 18.7738 16.5429C20.0054 16.5429 21.0037 15.5445 21.0037 14.313V12.9744C21.0035 8.88575 17.9302 5.45057 13.8668 4.99707" stroke="black" stroke-width="1.5" stroke-linecap="round" stroke-linejoin="round"/>
<path d="M9.53296 13.867C9.96484 15.5504 11.5487 16.6763 13.2805 16.531C15.0124 16.3857 16.3864 15.0116 16.5317 13.2798C16.677 11.5479 15.5512 9.96411 13.8678 9.53223" stroke="black" stroke-width="1.5" stroke-linecap="round" stroke-linejoin="round"/>
<path d="M6.7478 11.5001C4.12335 11.5001 1.99582 9.37252 1.99582 6.74807C1.99582 4.12363 4.12335 1.99609 6.7478 1.99609C9.37224 1.99609 11.4998 4.12363 11.4998 6.74807C11.4998 8.00838 10.9991 9.21706 10.108 10.1082C9.21679 10.9994 8.0081 11.5001 6.7478 11.5001" stroke="black" stroke-width="1.5" stroke-linecap="round" stroke-linejoin="round"/>
<path d="M5.95647 5.95642L6.7478 5.16309V8.33241" stroke="black" stroke-width="1.5" stroke-linecap="round" stroke-linejoin="round"/>
<path d="M5.95847 8.33419H7.53712" stroke="black" stroke-width="1.5" stroke-linecap="round" stroke-linejoin="round"/>
</svg>
