<svg width="24" height="24" viewBox="0 0 24 24" fill="none" xmlns="http://www.w3.org/2000/svg">
<path d="M5 6.75H4.75" stroke="black" stroke-width="1.5" stroke-linecap="round" stroke-linejoin="round"/>
<path d="M11.5 6.75C11.5 9.37335 9.37335 11.5 6.75 11.5C4.12665 11.5 2 9.37335 2 6.75C2 4.12665 4.12665 2 6.75 2V2C8.00978 2 9.21796 2.50044 10.1088 3.39124C10.9996 4.28204 11.5 5.49022 11.5 6.75" stroke="black" stroke-width="1.5" stroke-linecap="round" stroke-linejoin="round"/>
<path d="M8.75 6.75H8.5" stroke="black" stroke-width="1.5" stroke-linecap="round" stroke-linejoin="round"/>
<path d="M6.75 8.5V8.75" stroke="black" stroke-width="1.5" stroke-linecap="round" stroke-linejoin="round"/>
<path d="M6.75 4.75V5" stroke="black" stroke-width="1.5" stroke-linecap="round" stroke-linejoin="round"/>
<path d="M17.552 19.5612C15.2318 21.1782 12.2313 21.453 9.65588 20.2845C7.08049 19.116 5.31127 16.6771 5 13.8662" stroke="black" stroke-width="1.5" stroke-linecap="round" stroke-linejoin="round"/>
<path d="M16.542 12.974V14.312C16.542 15.543 17.54 16.541 18.771 16.541C20.002 16.541 21 15.543 21 14.312V12.974C20.9997 8.88706 17.9277 5.45331 13.866 5" stroke="black" stroke-width="1.5" stroke-linecap="round" stroke-linejoin="round"/>
<path d="M9.534 13.8662C9.9657 15.5489 11.5489 16.6743 13.28 16.5291C15.0111 16.3838 16.3846 15.0103 16.5299 13.2792C16.6751 11.5481 15.5497 9.96491 13.867 9.5332" stroke="black" stroke-width="1.5" stroke-linecap="round" stroke-linejoin="round"/>
</svg>
