<svg width="24" height="24" viewBox="0 0 24 24" fill="none" xmlns="http://www.w3.org/2000/svg">
<path d="M14.8902 11.778H10.9996C10.3805 11.7777 9.78668 12.0235 9.34892 12.4613C8.91116 12.899 8.66535 13.4928 8.66561 14.1119V14.1119C8.66535 14.731 8.91116 15.3248 9.34892 15.7626C9.78668 16.2004 10.3805 16.4462 10.9996 16.4459H12.6673C13.895 16.4459 14.8902 15.4507 14.8902 14.223V9.77713C14.8902 8.54944 13.895 7.5542 12.6673 7.5542H11.1997C10.6104 7.55436 10.0452 7.78821 9.62801 8.20447L9.33189 8.49859" stroke="black" stroke-width="1.5" stroke-linecap="round" stroke-linejoin="round"/>
<path d="M16.4459 20.0032H9.33189C6.38533 20.0032 3.99667 17.6146 3.99667 14.668V9.3318C3.99667 6.38524 6.38533 3.99658 9.33189 3.99658H14.6681C17.6147 3.99658 20.0033 6.38524 20.0033 9.3318V13.7787C20.0033 14.4862 19.7222 15.1647 19.2218 15.6649C18.7214 16.1652 18.0428 16.446 17.3352 16.4458V16.4458C15.9849 16.4458 14.8902 15.3511 14.8902 14.0007V11.5557" stroke="black" stroke-width="1.5" stroke-linecap="round" stroke-linejoin="round"/>
</svg>
