<svg width="24" height="24" viewBox="0 0 24 24" fill="none" xmlns="http://www.w3.org/2000/svg">
<path d="M17.0021 21.0036H12C7.02737 21.0036 2.99625 16.9725 2.99625 11.9998C2.99625 7.02721 7.02737 2.99609 12 2.99609C16.9726 2.99609 21.0038 7.02721 21.0038 11.9998V13.5005C21.0038 14.8818 19.884 16.0015 18.5027 16.0015C17.1214 16.0015 16.0017 14.8818 16.0017 13.5005V11.9998C16.0017 9.78978 14.2101 7.99818 12 7.99818V7.99818C9.78994 7.99818 7.99834 9.78978 7.99834 11.9998C7.99834 14.2099 9.78994 16.0015 12 16.0015C14.2101 16.0015 16.0017 14.2099 16.0017 11.9998" stroke="black" stroke-width="1.5" stroke-linecap="round" stroke-linejoin="round"/>
</svg>
