<svg width="24" height="24" viewBox="0 0 24 24" fill="none" xmlns="http://www.w3.org/2000/svg">
<path d="M17.5533 19.5641C15.2322 21.1812 12.2307 21.4559 9.65461 20.2869C7.07848 19.118 5.30868 16.6784 4.99709 13.8667" stroke="black" stroke-width="1.5" stroke-linecap="round" stroke-linejoin="round"/>
<path d="M16.5429 12.9744V14.313C16.5429 15.5445 17.5413 16.5429 18.7728 16.5429C20.0044 16.5429 21.0028 15.5445 21.0028 14.313V12.9744C21.0025 8.88575 17.9292 5.45057 13.8658 4.99707" stroke="black" stroke-width="1.5" stroke-linecap="round" stroke-linejoin="round"/>
<path d="M9.53197 13.867C9.96386 15.5504 11.5477 16.6763 13.2795 16.531C15.0114 16.3857 16.3854 15.0116 16.5307 13.2798C16.6761 11.5479 15.5502 9.96411 13.8668 9.53223" stroke="black" stroke-width="1.5" stroke-linecap="round" stroke-linejoin="round"/>
<path d="M6.74881 6.57185V4.82812" stroke="black" stroke-width="1.5" stroke-linecap="round" stroke-linejoin="round"/>
<path d="M6.74782 8.49863C6.71468 8.49507 6.68241 8.51073 6.66473 8.53898C6.64704 8.56723 6.64704 8.6031 6.66473 8.63135C6.68241 8.6596 6.71468 8.67527 6.74782 8.67171C6.79202 8.66695 6.82553 8.62963 6.82553 8.58517C6.82553 8.54071 6.79202 8.50339 6.74782 8.49863" stroke="black" stroke-width="1.5" stroke-linecap="round" stroke-linejoin="round"/>
<path d="M6.74781 11.5001C4.12337 11.5001 1.99583 9.37252 1.99583 6.74807C1.99583 4.12363 4.12337 1.99609 6.74781 1.99609C9.37226 1.99609 11.4998 4.12363 11.4998 6.74807C11.4998 8.00838 10.9991 9.21706 10.108 10.1082C9.2168 10.9994 8.00812 11.5001 6.74781 11.5001" stroke="black" stroke-width="1.5" stroke-linecap="round" stroke-linejoin="round"/>
</svg>
