<svg width="24" height="24" viewBox="0 0 24 24" fill="none" xmlns="http://www.w3.org/2000/svg">
<path d="M17.552 19.5612C15.2318 21.1782 12.2313 21.453 9.65588 20.2845C7.08049 19.116 5.31127 16.6771 5 13.8662" stroke="black" stroke-width="1.5" stroke-linecap="round" stroke-linejoin="round"/>
<path d="M16.542 12.974V14.312C16.542 15.543 17.54 16.541 18.771 16.541C20.002 16.541 21 15.543 21 14.312V12.974C20.9997 8.88706 17.9277 5.45331 13.866 5" stroke="black" stroke-width="1.5" stroke-linecap="round" stroke-linejoin="round"/>
<path d="M9.534 13.8662C9.9657 15.5489 11.5489 16.6743 13.28 16.5291C15.0111 16.3838 16.3846 15.0103 16.5299 13.2792C16.6751 11.5481 15.5497 9.96491 13.867 9.5332" stroke="black" stroke-width="1.5" stroke-linecap="round" stroke-linejoin="round"/>
<path d="M6.75 11.5C4.12665 11.5 2 9.37335 2 6.75C2 4.12665 4.12665 2 6.75 2C9.37335 2 11.5 4.12665 11.5 6.75C11.5 8.00978 10.9996 9.21796 10.1088 10.1088C9.21796 10.9996 8.00978 11.5 6.75 11.5" stroke="black" stroke-width="1.5" stroke-linecap="round" stroke-linejoin="round"/>
<path d="M6.749 7.16895V8.66895" stroke="black" stroke-width="1.5" stroke-linecap="round" stroke-linejoin="round"/>
<path d="M6.75 4.99959C6.78668 5.00353 6.82186 4.98392 6.83779 4.95064C6.85371 4.91736 6.84691 4.87765 6.82083 4.85157C6.79474 4.82548 6.75503 4.81868 6.72176 4.83461C6.68848 4.85053 6.66886 4.88572 6.67281 4.9224C6.67719 4.96308 6.70932 4.99521 6.75 4.99959" stroke="black" stroke-width="1.5" stroke-linecap="round" stroke-linejoin="round"/>
</svg>
