<svg width="24" height="24" viewBox="0 0 24 24" fill="none" xmlns="http://www.w3.org/2000/svg">
<path d="M17.5543 19.5626C15.2331 21.1802 12.2314 21.4552 9.6549 20.2862C7.07844 19.1173 5.30848 16.6773 4.99708 13.8652" stroke="black" stroke-width="1.5" stroke-linecap="round" stroke-linejoin="round"/>
<path d="M16.5439 12.9734V14.312C16.5439 15.5435 17.5423 16.5419 18.7738 16.5419C20.0054 16.5419 21.0037 15.5435 21.0037 14.312V12.9734C21.0035 8.88478 17.9302 5.44959 13.8668 4.99609" stroke="black" stroke-width="1.5" stroke-linecap="round" stroke-linejoin="round"/>
<path d="M9.53297 13.8661C9.96485 15.5495 11.5487 16.6753 13.2805 16.53C15.0124 16.3847 16.3864 15.0106 16.5317 13.2788C16.6771 11.547 15.5512 9.96313 13.8678 9.53125" stroke="black" stroke-width="1.5" stroke-linecap="round" stroke-linejoin="round"/>
<circle cx="6.74781" cy="6.74807" r="4.75198" stroke="black" stroke-width="1.5" stroke-linecap="round" stroke-linejoin="round"/>
<path d="M5.49729 6.74826H7.99833" stroke="black" stroke-width="1.5" stroke-linecap="round" stroke-linejoin="round"/>
</svg>
