<svg width="24" height="24" viewBox="0 0 24 24" fill="none" xmlns="http://www.w3.org/2000/svg">
<path d="M14.9012 21.0041H10.9996C6.57946 21.0041 2.99625 17.4209 2.99625 13.0007V10.9999C2.99625 6.5798 6.57946 2.99658 10.9996 2.99658H13.0004C15.123 2.99658 17.1587 3.83979 18.6596 5.3407C20.1605 6.84162 21.0037 8.8773 21.0037 10.9999V13.501C21.0037 15.1585 19.66 16.5022 18.0025 16.5022H17.9025C16.2449 16.5022 14.9012 15.1585 14.9012 13.501V11.7752" stroke="black" stroke-width="1.5" stroke-linecap="round" stroke-linejoin="round"/>
<path d="M9.27386 8.45445L9.57399 8.15432C9.99582 7.73393 10.5671 7.49793 11.1627 7.49805H12.6503C13.8934 7.49805 14.9012 8.50583 14.9012 9.74898V14.2509C14.9012 15.494 13.8934 16.5018 12.6503 16.5018H10.9616C9.65676 16.5012 8.59914 15.4436 8.59858 14.1388V14.1388C8.59914 12.834 9.65676 11.7764 10.9616 11.7758H14.9012" stroke="black" stroke-width="1.5" stroke-linecap="round" stroke-linejoin="round"/>
</svg>
