<svg width="24" height="24" viewBox="0 0 24 24" fill="none" xmlns="http://www.w3.org/2000/svg">
<path d="M14.0008 17.0022H12C9.23742 17.0022 6.99791 14.7627 6.99791 12.0001C6.99791 9.23756 9.23742 6.99805 12 6.99805C14.7626 6.99805 17.0021 9.23756 17.0021 12.0001V12.8335C17.0021 13.6009 16.3799 14.2231 15.6125 14.2231C14.8451 14.2231 14.2229 13.6009 14.2229 12.8335V12.0001C14.2229 10.7724 13.2277 9.7772 12 9.7772V9.7772C10.7723 9.7772 9.77707 10.7724 9.77707 12.0001C9.77707 13.2278 10.7723 14.2231 12 14.2231C13.2277 14.2231 14.2229 13.2278 14.2229 12.0001" stroke="black" stroke-width="1.5" stroke-linecap="round" stroke-linejoin="round"/>
<circle cx="12" cy="11.9998" r="9.00375" stroke="black" stroke-width="1.5" stroke-linecap="round" stroke-linejoin="round"/>
</svg>
