<svg width="24" height="24" viewBox="0 0 24 24" fill="none" xmlns="http://www.w3.org/2000/svg">
<path d="M15.2514 11.75H10.8745C9.42419 11.75 8.24844 12.9258 8.24844 14.3761V14.3761C8.24844 15.8265 9.42419 17.0022 10.8745 17.0022H12.7503C14.1316 17.0022 15.2514 15.8825 15.2514 14.5012V9.49909C15.2514 8.83577 14.9879 8.19962 14.5188 7.73059C14.0498 7.26155 13.4136 6.99805 12.7503 6.99805H11.0996C10.4363 6.99792 9.80003 7.26134 9.33089 7.73035L8.99876 8.06149" stroke="black" stroke-width="1.5" stroke-linecap="round" stroke-linejoin="round"/>
<path d="M17.0021 21.0041H8.99875C5.68366 21.0041 2.99625 18.3167 2.99625 15.0016V8.99908C2.99625 5.68399 5.68366 2.99658 8.99875 2.99658H15.0013C16.5932 2.99658 18.12 3.62899 19.2457 4.75467C20.3713 5.88036 21.0038 7.40712 21.0038 8.99908V14.0012C21.0038 15.6587 19.66 17.0024 18.0025 17.0024V17.0024C16.4831 17.0024 15.2514 15.7707 15.2514 14.2513V11.5001" stroke="black" stroke-width="1.5" stroke-linecap="round" stroke-linejoin="round"/>
</svg>
