<svg width="24" height="24" viewBox="0 0 24 24" fill="none" xmlns="http://www.w3.org/2000/svg">
<path d="M15.3344 18.0026H9.99916C7.7891 18.0026 5.9975 16.211 5.9975 14.0009V9.99923C5.9975 7.78917 7.7891 5.99756 9.99916 5.99756H14.0008C16.2109 5.99756 18.0025 7.78917 18.0025 9.99923V13.3336C18.0025 14.4386 17.1067 15.3344 16.0017 15.3344V15.3344C15.5152 15.3347 15.0487 15.1416 14.7047 14.7976C14.3607 14.4537 14.1676 13.9871 14.1679 13.5007V11.6669" stroke="black" stroke-width="1.5" stroke-linecap="round" stroke-linejoin="round"/>
<path d="M9.99916 9.37382L10.2193 9.15373C10.5324 8.84076 10.957 8.66513 11.3997 8.66553H12.5002C13.4209 8.66553 14.1673 9.41157 14.1679 10.3322V13.6676C14.1673 14.5883 13.4209 15.3343 12.5002 15.3343H11.2497C10.7853 15.3346 10.3398 15.1502 10.0114 14.8218C9.68306 14.4934 9.49869 14.048 9.49896 13.5836V13.5836C9.49896 12.6167 10.2828 11.8328 11.2497 11.8328H14.1679" stroke="black" stroke-width="1.5" stroke-linecap="round" stroke-linejoin="round"/>
<path d="M18.0025 2.99658H19.0029C20.1079 2.99658 21.0037 3.89239 21.0037 4.99742V5.99783" stroke="black" stroke-width="1.5" stroke-linecap="round" stroke-linejoin="round"/>
<path d="M5.9975 21.0037H4.99708C3.89205 21.0037 2.99625 20.1079 2.99625 19.0029V18.0024" stroke="black" stroke-width="1.5" stroke-linecap="round" stroke-linejoin="round"/>
<path d="M2.99625 5.99783V4.99742C2.99625 3.89239 3.89205 2.99658 4.99708 2.99658H5.9975" stroke="black" stroke-width="1.5" stroke-linecap="round" stroke-linejoin="round"/>
<path d="M21.0037 18.0024V19.0029C21.0037 20.1079 20.1079 21.0037 19.0029 21.0037H18.0025" stroke="black" stroke-width="1.5" stroke-linecap="round" stroke-linejoin="round"/>
</svg>
