<svg width="24" height="24" viewBox="0 0 24 24" fill="none" xmlns="http://www.w3.org/2000/svg">
<path d="M17.5543 19.5646C15.2331 21.1822 12.2314 21.4572 9.6549 20.2882C7.07844 19.1192 5.30848 16.6792 4.99709 13.8672" stroke="black" stroke-width="1.5" stroke-linecap="round" stroke-linejoin="round"/>
<path d="M16.5439 12.9744V14.313C16.5439 15.5445 17.5423 16.5429 18.7738 16.5429C20.0054 16.5429 21.0037 15.5445 21.0037 14.313V12.9744C21.0035 8.88575 17.9302 5.45057 13.8668 4.99707" stroke="black" stroke-width="1.5" stroke-linecap="round" stroke-linejoin="round"/>
<path d="M9.53297 13.867C9.96486 15.5504 11.5487 16.6763 13.2805 16.531C15.0124 16.3857 16.3864 15.0116 16.5317 13.2798C16.6771 11.5479 15.5512 9.96411 13.8678 9.53223" stroke="black" stroke-width="1.5" stroke-linecap="round" stroke-linejoin="round"/>
<path d="M6.74781 11.5001C4.12337 11.5001 1.99583 9.37252 1.99583 6.74807C1.99583 4.12363 4.12337 1.99609 6.74781 1.99609C9.37226 1.99609 11.4998 4.12363 11.4998 6.74807C11.4998 8.00838 10.9991 9.21706 10.108 10.1082C9.2168 10.9994 8.00812 11.5001 6.74781 11.5001" stroke="black" stroke-width="1.5" stroke-linecap="round" stroke-linejoin="round"/>
<path d="M5.19116 5.39083H8.19241" stroke="black" stroke-width="1.5" stroke-linecap="round" stroke-linejoin="round"/>
<path d="M5.19116 8.10568H8.19241" stroke="black" stroke-width="1.5" stroke-linecap="round" stroke-linejoin="round"/>
</svg>
