<svg width="24" height="24" viewBox="0 0 24 24" fill="none" xmlns="http://www.w3.org/2000/svg">
<path d="M17.5543 19.5646C17.0911 19.8867 16.5899 20.1688 16.0477 20.3929C15.0423 20.8101 14.0008 21.0042 12.9754 21.0042C8.84269 21.0042 5.44227 17.8819 4.99809 13.8672" stroke="black" stroke-width="1.5" stroke-linecap="round" stroke-linejoin="round"/>
<path d="M16.5439 12.9749V14.3134C16.5439 15.546 17.5423 16.5434 18.7738 16.5434C20.0063 16.5434 21.0037 15.545 21.0037 14.3134V12.9749C21.0037 8.84216 17.8814 5.44174 13.8668 4.99756" stroke="black" stroke-width="1.5" stroke-linecap="round" stroke-linejoin="round"/>
<path d="M6.74781 11.5001C4.12372 11.5001 1.99583 9.37217 1.99583 6.74807C1.99583 4.12398 4.12372 1.99609 6.74781 1.99609C9.37191 1.99609 11.4998 4.12398 11.4998 6.74807C11.4998 9.37217 9.37191 11.5001 6.74781 11.5001" stroke="black" stroke-width="1.5" stroke-linecap="round" stroke-linejoin="round"/>
<path d="M9.53297 13.867C9.93114 15.4037 11.3147 16.5431 12.9754 16.5431C14.9462 16.5431 16.5439 14.9455 16.5439 12.9747C16.5439 11.314 15.4034 9.93039 13.8678 9.53223" stroke="black" stroke-width="1.5" stroke-linecap="round" stroke-linejoin="round"/>
<path d="M3.49646 9.99929L9.99917 3.49658" stroke="black" stroke-width="1.5" stroke-linecap="round" stroke-linejoin="round"/>
</svg>
