<svg width="24" height="24" viewBox="0 0 24 24" fill="none" xmlns="http://www.w3.org/2000/svg">
<path d="M16.498 9.614C14.014 10.439 9.98601 10.439 7.50101 9.614" stroke="black" stroke-width="1.5" stroke-linecap="round" stroke-linejoin="round"/>
<path d="M10.6 13.9H13.4" stroke="black" stroke-width="1.5" stroke-linecap="round" stroke-linejoin="round"/>
<path d="M13.333 10.186V10.233C13.333 13.617 13.333 14.97 14 17" stroke="black" stroke-width="1.5" stroke-linecap="round" stroke-linejoin="round"/>
<path d="M10.667 10.186V10.233C10.667 13.617 10.667 14.97 10 17" stroke="black" stroke-width="1.5" stroke-linecap="round" stroke-linejoin="round"/>
<path d="M18.364 5.63604C21.8787 9.15076 21.8787 14.8492 18.364 18.3639C14.8493 21.8787 9.1508 21.8787 5.6361 18.3639C2.12138 14.8492 2.12138 9.15074 5.6361 5.63604C9.15082 2.12132 14.8493 2.12132 18.364 5.63604" stroke="black" stroke-width="1.5" stroke-linecap="round" stroke-linejoin="round"/>
<path d="M12.3359 6.91412C12.5214 7.09962 12.5214 7.40038 12.3359 7.58588C12.1504 7.77137 11.8497 7.77137 11.6642 7.58588C11.4787 7.40038 11.4787 7.09962 11.6642 6.91412C11.8497 6.72863 12.1504 6.72863 12.3359 6.91412" stroke="black" stroke-width="1.5" stroke-linecap="round" stroke-linejoin="round"/>
</svg>
