<svg width="24" height="24" viewBox="0 0 24 24" fill="none" xmlns="http://www.w3.org/2000/svg">
<path fill-rule="evenodd" clip-rule="evenodd" d="M7.75323 19.3172L11.2427 15.3445C11.434 15.1265 11.7099 15.0015 12 15.0015C12.2901 15.0015 12.566 15.1265 12.7573 15.3445L16.2468 19.3172C16.5099 19.6158 16.5743 20.0407 16.4114 20.4039C16.2486 20.7672 15.8885 21.0017 15.4905 21.0039H8.50955C8.1115 21.0017 7.75143 20.7672 7.58856 20.4039C7.4257 20.0407 7.49008 19.6158 7.75323 19.3172Z" stroke="black" stroke-width="1.5" stroke-linecap="round" stroke-linejoin="round"/>
<path d="M17.0021 16.0016H19.0029C20.1079 16.0016 21.0038 15.1058 21.0038 14.0007V5.99742C21.0038 4.89239 20.1079 3.99658 19.0029 3.99658H4.99709C3.89206 3.99658 2.99625 4.89239 2.99625 5.99742V14.0007C2.99625 15.1058 3.89206 16.0016 4.99709 16.0016H6.99792" stroke="black" stroke-width="1.5" stroke-linecap="round" stroke-linejoin="round"/>
</svg>
