<svg width="24" height="24" viewBox="0 0 24 24" fill="none" xmlns="http://www.w3.org/2000/svg">
<path fill-rule="evenodd" clip-rule="evenodd" d="M9.03077 17.0789L11.5818 14.1887C11.6796 14.0782 11.8173 14.011 11.9645 14.002C12.1118 13.993 12.2567 14.0429 12.3672 14.1407C12.3842 14.1557 12.4002 14.1717 12.4162 14.1887L14.9672 17.0789C15.1123 17.2427 15.1477 17.4763 15.0576 17.6757C14.9675 17.875 14.7688 18.0029 14.5501 18.0023H9.44794C9.22937 18.0025 9.03101 17.8745 8.9412 17.6752C8.85139 17.476 8.88684 17.2425 9.03177 17.0789H9.03077Z" stroke="black" stroke-width="1.5" stroke-linecap="round" stroke-linejoin="round"/>
<rect x="2.99625" y="2.99609" width="18.0075" height="18.0075" rx="5" stroke="black" stroke-width="1.5" stroke-linecap="round" stroke-linejoin="round"/>
<path d="M9.44294 12.6615C9.02572 11.5292 9.40281 10.2574 10.3698 9.53554C11.3367 8.81367 12.6633 8.81367 13.6302 9.53554C14.5972 10.2574 14.9743 11.5292 14.5571 12.6615" stroke="black" stroke-width="1.5" stroke-linecap="round" stroke-linejoin="round"/>
<path d="M6.98191 15.2865C5.33586 12.7787 5.7939 9.44071 8.05463 7.46901C10.3154 5.49731 13.6846 5.49731 15.9454 7.46901C18.2061 9.44071 18.6641 12.7787 17.0181 15.2865" stroke="black" stroke-width="1.5" stroke-linecap="round" stroke-linejoin="round"/>
</svg>
