<svg width="24" height="24" viewBox="0 0 24 24" fill="none" xmlns="http://www.w3.org/2000/svg">
<path fill-rule="evenodd" clip-rule="evenodd" d="M13.2085 15.4016L16.6479 17.9806C17.2286 18.4131 17.4664 19.1692 17.2377 19.8561C17.009 20.543 16.3655 21.0058 15.6415 21.0039H8.35848C7.63617 21.004 6.99484 20.5418 6.76649 19.8566C6.53814 19.1713 6.77404 18.4168 7.35207 17.9836L10.7925 15.4016C11.5084 14.8648 12.4926 14.8648 13.2085 15.4016Z" stroke="black" stroke-width="1.5" stroke-linecap="round" stroke-linejoin="round"/>
<path d="M6.99792 15.0016H5.9975C4.33996 15.0016 2.99625 13.6579 2.99625 12.0003V5.99783C2.99625 4.34029 4.33996 2.99658 5.9975 2.99658H18.0025C19.66 2.99658 21.0037 4.34029 21.0037 5.99783V12.0003C21.0037 13.6579 19.66 15.0016 18.0025 15.0016H17.0021" stroke="black" stroke-width="1.5" stroke-linecap="round" stroke-linejoin="round"/>
</svg>
