<svg width="24" height="24" viewBox="0 0 24 24" fill="none" xmlns="http://www.w3.org/2000/svg">
<path fill-rule="evenodd" clip-rule="evenodd" d="M7.54314 19.6182L11.3707 15.2834C11.5291 15.1041 11.7568 15.0015 11.996 15.0015C12.2352 15.0015 12.4629 15.1041 12.6213 15.2834L16.4489 19.6182C16.6654 19.8643 16.7178 20.2143 16.5828 20.5131C16.4478 20.8118 16.1504 21.0038 15.8226 21.0038H8.1674C7.83955 21.0038 7.54213 20.8116 7.40746 20.5127C7.27278 20.2138 7.32589 19.8637 7.54314 19.6182Z" stroke="black" stroke-width="1.5" stroke-linecap="round" stroke-linejoin="round"/>
<path d="M18.8819 17.8027C21.959 14.1521 21.6515 8.73434 18.1811 5.45534C14.7107 2.17634 9.28426 2.17634 5.81389 5.45534C2.34352 8.73434 2.03604 14.1521 5.11313 17.8027" stroke="black" stroke-width="1.5" stroke-linecap="round" stroke-linejoin="round"/>
<path d="M16.861 15.5118C18.6623 13.027 18.2991 9.58371 16.019 7.52942C13.739 5.47513 10.2766 5.47156 7.99238 7.52116C5.70814 9.57076 5.33785 13.0133 7.13397 15.5018" stroke="black" stroke-width="1.5" stroke-linecap="round" stroke-linejoin="round"/>
</svg>
