<svg width="24" height="24" viewBox="0 0 24 24" fill="none" xmlns="http://www.w3.org/2000/svg">
<path d="M12 3V5" stroke="black" stroke-width="1.5" stroke-linecap="round" stroke-linejoin="round"/>
<path d="M3.613 8.753C3.223 9.762 3 10.854 3 12C3 16.971 7.029 21 12 21C16.971 21 21 16.971 21 12C21 7.029 16.971 3 12 3" stroke="black" stroke-width="1.5" stroke-linecap="round" stroke-linejoin="round"/>
<path d="M10.59 10.59L5.64 5.64" stroke="black" stroke-width="1.5" stroke-linecap="round" stroke-linejoin="round"/>
<path d="M13.4142 10.5858C14.1952 11.3669 14.1952 12.6332 13.4142 13.4142C12.6332 14.1953 11.3668 14.1953 10.5858 13.4142C9.80472 12.6332 9.80472 11.3669 10.5858 10.5858C11.3668 9.80475 12.6332 9.80475 13.4142 10.5858" stroke="black" stroke-width="1.5" stroke-linecap="round" stroke-linejoin="round"/>
</svg>
