<svg width="24" height="24" viewBox="0 0 24 24" fill="none" xmlns="http://www.w3.org/2000/svg">
<path d="M7.62817 14.8672L11.2857 12.6373V7.98438" stroke="black" stroke-width="1.5" stroke-linecap="round" stroke-linejoin="round"/>
<path d="M10.9996 21.004C6.15651 21.0057 2.1797 17.1762 1.99882 12.3365C1.81795 7.49681 5.49782 3.38108 10.3275 3.02134C15.1572 2.6616 19.4062 6.18673 19.9443 10.9998" stroke="black" stroke-width="1.5" stroke-linecap="round" stroke-linejoin="round"/>
<path d="M19.3361 17.3354L17.6694 19.0031L16.6689 18.0027" stroke="black" stroke-width="1.5" stroke-linecap="round" stroke-linejoin="round"/>
<path fill-rule="evenodd" clip-rule="evenodd" d="M20.0033 22.0043H16.0017C14.8966 22.0043 14.0008 21.1085 14.0008 20.0035V16.0018C14.0008 14.8968 14.8966 14.001 16.0017 14.001H20.0033C21.1084 14.001 22.0042 14.8968 22.0042 16.0018V20.0035C22.0042 21.1085 21.1084 22.0043 20.0033 22.0043Z" stroke="black" stroke-width="1.5" stroke-linecap="round" stroke-linejoin="round"/>
</svg>
