<svg width="24" height="24" viewBox="0 0 24 24" fill="none" xmlns="http://www.w3.org/2000/svg">
<path d="M11.718 7.98599V12.637L15.374 14.866" stroke="black" stroke-width="1.5" stroke-linecap="round" stroke-linejoin="round"/>
<path d="M18.763 17.925C17.48 19.388 15.735 20.435 13.75 20.827" stroke="black" stroke-width="1.5" stroke-linecap="round" stroke-linejoin="round"/>
<path d="M5.237 6.075C6.52 4.612 8.265 3.565 10.25 3.173" stroke="black" stroke-width="1.5" stroke-linecap="round" stroke-linejoin="round"/>
<path d="M3.48499 14.896C3.17499 13.986 2.99999 13.014 2.99999 12C2.99999 10.986 3.17499 10.014 3.48499 9.104" stroke="black" stroke-width="1.5" stroke-linecap="round" stroke-linejoin="round"/>
<path d="M20.515 14.896C20.825 13.986 21 13.014 21 12C21 10.986 20.825 10.014 20.515 9.104" stroke="black" stroke-width="1.5" stroke-linecap="round" stroke-linejoin="round"/>
<path d="M5.237 17.925C6.52 19.388 8.265 20.435 10.25 20.827" stroke="black" stroke-width="1.5" stroke-linecap="round" stroke-linejoin="round"/>
<path d="M13.75 3.173C15.735 3.564 17.479 4.611 18.763 6.075" stroke="black" stroke-width="1.5" stroke-linecap="round" stroke-linejoin="round"/>
</svg>
