<svg width="24" height="24" viewBox="0 0 24 24" fill="none" xmlns="http://www.w3.org/2000/svg">
<path d="M17.6919 18.377L20.0033 20.6884" stroke="black" stroke-width="1.5" stroke-linecap="round" stroke-linejoin="round"/>
<path d="M6.30788 18.377L3.99667 20.6882" stroke="black" stroke-width="1.5" stroke-linecap="round" stroke-linejoin="round"/>
<circle cx="12" cy="12.7504" r="8.00333" stroke="black" stroke-width="1.5"/>
<path d="M11.7334 8.95703V13.3515L15.1877 15.4575" stroke="black" stroke-width="1.5" stroke-linecap="round" stroke-linejoin="round"/>
<path fill-rule="evenodd" clip-rule="evenodd" d="M6.4977 3.24609C7.79776 3.24864 8.9904 3.96807 9.599 5.11687C8.36718 5.49747 7.2474 6.17415 6.33764 7.08769C5.59885 7.83154 5.01112 8.71144 4.60692 9.67877C3.602 9.04339 2.99377 7.93649 2.99624 6.74755C2.99837 4.81463 4.56478 3.24821 6.4977 3.24609Z" stroke="black" stroke-width="1.5"/>
<path fill-rule="evenodd" clip-rule="evenodd" d="M17.5023 3.24609C19.4352 3.24821 21.0016 4.81463 21.0038 6.74755C21.0062 7.93649 20.398 9.04339 19.3931 9.67877C18.9889 8.71144 18.4011 7.83154 17.6624 7.08769C16.7526 6.17415 15.6328 5.49747 14.401 5.11687C15.0096 3.96807 16.2022 3.24864 17.5023 3.24609Z" stroke="black" stroke-width="1.5"/>
</svg>
