<svg width="24" height="24" viewBox="0 0 24 24" fill="none" xmlns="http://www.w3.org/2000/svg">
<path d="M5.636 5.63601C9.151 2.12101 14.849 2.12101 18.364 5.63601C21.879 9.15101 21.879 14.849 18.364 18.364C14.849 21.879 9.151 21.879 5.636 18.364C2.121 14.849 2.121 9.15101 5.636 5.63601" stroke="black" stroke-width="1.5" stroke-linecap="round" stroke-linejoin="round"/>
<path d="M12.008 10C10.896 10 10 10.896 10 12C10 13.104 10.896 14 12 14C13.104 14 14 13.104 14 12C14.008 10.896 13.112 10 12.008 10" stroke="black" stroke-width="1.5" stroke-linecap="round" stroke-linejoin="round"/>
<path d="M17.518 10.982C17.584 11.312 17.625 11.65 17.625 12" stroke="black" stroke-width="1.5" stroke-linecap="round" stroke-linejoin="round"/>
<path d="M12 6.37501C12.35 6.37501 12.688 6.41501 13.018 6.48201" stroke="black" stroke-width="1.5" stroke-linecap="round" stroke-linejoin="round"/>
<path d="M6.375 12C6.375 8.894 8.894 6.375 12 6.375" stroke="black" stroke-width="1.5" stroke-linecap="round" stroke-linejoin="round"/>
<path d="M13.42 10.58L15.98 8.02" stroke="black" stroke-width="1.5" stroke-linecap="round" stroke-linejoin="round"/>
</svg>
