<svg width="24" height="24" viewBox="0 0 24 24" fill="none" xmlns="http://www.w3.org/2000/svg">
<path d="M12.7183 6.98291V11.6358L16.3758 13.8658" stroke="black" stroke-width="1.5" stroke-linecap="round" stroke-linejoin="round"/>
<path d="M4.05569 9.99931C4.59381 5.18625 8.84282 1.66111 13.6725 2.02085C18.5022 2.3806 22.182 6.49632 22.0012 11.336C21.8203 16.1757 17.8435 20.0052 13.0004 20.0035" stroke="black" stroke-width="1.5" stroke-linecap="round" stroke-linejoin="round"/>
<path d="M6.83085 16.1689L5.16415 17.8356" stroke="black" stroke-width="1.5" stroke-linecap="round" stroke-linejoin="round"/>
<path d="M5.16415 16.1689L6.83085 17.8356" stroke="black" stroke-width="1.5" stroke-linecap="round" stroke-linejoin="round"/>
<path fill-rule="evenodd" clip-rule="evenodd" d="M7.99832 21.0038H3.99665C2.89162 21.0038 1.99582 20.108 1.99582 19.003V15.0013C1.99582 13.8963 2.89162 13.0005 3.99665 13.0005H7.99832C9.10335 13.0005 9.99915 13.8963 9.99915 15.0013V19.003C9.99915 20.108 9.10335 21.0038 7.99832 21.0038Z" stroke="black" stroke-width="1.5" stroke-linecap="round" stroke-linejoin="round"/>
</svg>
