<svg width="24" height="24" viewBox="0 0 24 24" fill="none" xmlns="http://www.w3.org/2000/svg">
<path d="M20.0022 20.8319L17.7416 18.5713" stroke="black" stroke-width="1.5" stroke-linecap="round" stroke-linejoin="round"/>
<path d="M6.25845 18.5713L3.99784 20.8319" stroke="black" stroke-width="1.5" stroke-linecap="round" stroke-linejoin="round"/>
<path d="M8.93724 5.60873C11.927 4.36986 15.3687 5.05401 17.6573 7.34216C19.9459 9.6303 20.6308 13.0718 19.3926 16.0618C18.1543 19.0518 15.2368 21.0017 12.0006 21.0017C8.7643 21.0017 5.84661 19.0525 4.60808 16.0626C2.91706 11.9803 4.85522 7.30019 8.93724 5.60873" stroke="black" stroke-width="1.5" stroke-linecap="round" stroke-linejoin="round"/>
<path d="M7.49885 3.13412C6.35262 2.7969 5.11359 3.06523 4.20957 3.84645C3.30556 4.62768 2.86047 5.81473 3.02798 6.99773" stroke="black" stroke-width="1.5" stroke-linecap="round" stroke-linejoin="round"/>
<path d="M16.5009 3.13477C17.6471 2.79802 18.8858 3.06653 19.7897 3.84763C20.6936 4.62874 21.1388 5.81549 20.9717 6.99837" stroke="black" stroke-width="1.5" stroke-linecap="round" stroke-linejoin="round"/>
<path d="M11.9999 12.7454V10.1709" stroke="black" stroke-width="1.5" stroke-linecap="round" stroke-linejoin="round"/>
<path d="M12.1274 15.7024C12.1274 15.7539 12.0964 15.8005 12.0487 15.8202C12.001 15.8399 11.9462 15.829 11.9097 15.7925C11.8732 15.7561 11.8623 15.7012 11.882 15.6535C11.9018 15.6059 11.9483 15.5748 11.9999 15.5748" stroke="black" stroke-width="1.5" stroke-linecap="round" stroke-linejoin="round"/>
<path d="M11.9999 15.5741C12.0703 15.5741 12.1274 15.6312 12.1274 15.7017" stroke="black" stroke-width="1.5" stroke-linecap="round" stroke-linejoin="round"/>
</svg>
