<svg width="24" height="24" viewBox="0 0 24 24" fill="none" xmlns="http://www.w3.org/2000/svg">
<path d="M20.0022 20.8319L17.7415 18.5713" stroke="black" stroke-width="1.5" stroke-linecap="round" stroke-linejoin="round"/>
<path d="M6.25844 18.5713L3.99783 20.8319" stroke="black" stroke-width="1.5" stroke-linecap="round" stroke-linejoin="round"/>
<path d="M8.93724 5.60873C11.927 4.36986 15.3686 5.05401 17.6573 7.34216C19.9459 9.6303 20.6308 13.0718 19.3926 16.0618C18.1543 19.0518 15.2368 21.0017 12.0006 21.0017C8.76429 21.0017 5.84661 19.0525 4.60808 16.0626C2.91706 11.9803 4.85521 7.30019 8.93724 5.60873" stroke="black" stroke-width="1.5" stroke-linecap="round" stroke-linejoin="round"/>
<path d="M7.49884 3.13412C6.35262 2.7969 5.11358 3.06523 4.20957 3.84645C3.30556 4.62768 2.86047 5.81473 3.02798 6.99773" stroke="black" stroke-width="1.5" stroke-linecap="round" stroke-linejoin="round"/>
<path d="M16.5009 3.13477C17.647 2.79802 18.8858 3.06653 19.7897 3.84763C20.6936 4.62874 21.1388 5.81549 20.9717 6.99837" stroke="black" stroke-width="1.5" stroke-linecap="round" stroke-linejoin="round"/>
<path d="M13.6808 12.0098L11.5802 14.1091L10.3174 12.85" stroke="black" stroke-width="1.5" stroke-linecap="round" stroke-linejoin="round"/>
</svg>
