<svg width="24" height="24" viewBox="0 0 24 24" fill="none" xmlns="http://www.w3.org/2000/svg">
<path d="M10 2H14" stroke="black" stroke-width="1.5" stroke-linecap="round" stroke-linejoin="round"/>
<path d="M17.657 7.343C20.781 10.467 20.781 15.533 17.657 18.657C14.533 21.781 9.467 21.781 6.343 18.657C3.219 15.533 3.219 10.467 6.343 7.343C9.467 4.219 14.533 4.219 17.657 7.343" stroke="black" stroke-width="1.5" stroke-linecap="round" stroke-linejoin="round"/>
<path d="M12 5V2" stroke="black" stroke-width="1.5" stroke-linecap="round" stroke-linejoin="round"/>
<path d="M12.006 11.5C11.172 11.5 10.5 12.172 10.5 13C10.5 13.828 11.172 14.5 12 14.5C12.828 14.5 13.5 13.828 13.5 13C13.506 12.172 12.834 11.5 12.006 11.5" stroke="black" stroke-width="1.5" stroke-linecap="round" stroke-linejoin="round"/>
<path d="M13.063 11.937L15 10" stroke="black" stroke-width="1.5" stroke-linecap="round" stroke-linejoin="round"/>
<path d="M19.66 5.34L17.66 7.34" stroke="black" stroke-width="1.5" stroke-linecap="round" stroke-linejoin="round"/>
<path d="M18.66 4.34L20.66 6.34" stroke="black" stroke-width="1.5" stroke-linecap="round" stroke-linejoin="round"/>
<path d="M4.343 5.343L6.343 7.343" stroke="black" stroke-width="1.5" stroke-linecap="round" stroke-linejoin="round"/>
<path d="M3.343 6.343L5.343 4.343" stroke="black" stroke-width="1.5" stroke-linecap="round" stroke-linejoin="round"/>
</svg>
