<svg width="24" height="24" viewBox="0 0 24 24" fill="none" xmlns="http://www.w3.org/2000/svg">
<path d="M9.70405 6.45572C12.7666 5.18769 16.2772 6.64204 17.5458 9.70432C18.8144 12.7666 17.3607 16.2775 14.2987 17.5467C11.2366 18.8159 7.72543 17.3628 6.45569 14.301C5.84564 12.8299 5.84519 11.1767 6.45442 9.70533C7.06366 8.23394 8.23265 7.06495 9.70405 6.45572" stroke="black" stroke-width="1.5" stroke-linecap="round" stroke-linejoin="round"/>
<path d="M11.8119 9.32178V12.4231L14.2499 13.9097" stroke="black" stroke-width="1.5" stroke-linecap="round" stroke-linejoin="round"/>
<path d="M12 2.99658C16.9726 2.99658 21.0037 7.0277 21.0037 12.0003C21.0037 16.973 16.9726 21.0041 12 21.0041" stroke="black" stroke-width="1.5" stroke-linecap="round" stroke-linejoin="round"/>
<path d="M8.92372 20.4527C7.93679 20.0953 7.01994 19.5682 6.21459 18.895" stroke="black" stroke-width="1.5" stroke-linecap="round" stroke-linejoin="round"/>
<path d="M6.21459 5.10501C7.01945 4.43116 7.93643 3.90393 8.92372 3.54736" stroke="black" stroke-width="1.5" stroke-linecap="round" stroke-linejoin="round"/>
<path d="M3.14031 10.4373C3.32108 9.40253 3.6824 8.40764 4.20776 7.49805" stroke="black" stroke-width="1.5" stroke-linecap="round" stroke-linejoin="round"/>
<path d="M3.14031 13.5615C3.32097 14.5966 3.68229 15.5918 4.20776 16.5017" stroke="black" stroke-width="1.5" stroke-linecap="round" stroke-linejoin="round"/>
</svg>
