<svg width="24" height="24" viewBox="0 0 24 24" fill="none" xmlns="http://www.w3.org/2000/svg">
<path d="M16.9811 17.5022L15.5015 16.0186" stroke="black" stroke-width="1.5" stroke-linecap="round" stroke-linejoin="round"/>
<rect x="2.99625" y="2.99609" width="18.0075" height="18.0075" rx="5" stroke="black" stroke-width="1.5" stroke-linecap="round" stroke-linejoin="round"/>
<path d="M8.49854 16.0186L7.01093 17.5022" stroke="black" stroke-width="1.5" stroke-linecap="round" stroke-linejoin="round"/>
<path d="M10.1292 8.1139C12.6186 7.08274 15.4725 8.26476 16.5039 10.7541C17.5352 13.2434 16.3534 16.0974 13.8641 17.1289C11.3749 18.1604 8.52074 16.9787 7.4891 14.4896C6.45787 11.9999 7.63979 9.14567 10.1292 8.1139" stroke="black" stroke-width="1.5" stroke-linecap="round" stroke-linejoin="round"/>
<path d="M11.8439 10.4443V12.9664L13.8258 14.1759" stroke="black" stroke-width="1.5" stroke-linecap="round" stroke-linejoin="round"/>
<path d="M15.8516 6.49805C16.7632 6.49805 17.5023 7.23708 17.5023 8.14873" stroke="black" stroke-width="1.5" stroke-linecap="round" stroke-linejoin="round"/>
<path d="M8.1484 6.49805C7.23675 6.49805 6.49771 7.23708 6.49771 8.14873" stroke="black" stroke-width="1.5" stroke-linecap="round" stroke-linejoin="round"/>
</svg>
