<svg width="24" height="24" viewBox="0 0 24 24" fill="none" xmlns="http://www.w3.org/2000/svg">
<path d="M9.75101 10.006H13.994V14.249" stroke="black" stroke-width="1.5" stroke-linecap="round" stroke-linejoin="round"/>
<path d="M14 10L6.475 17.525C5.947 18.053 5.09 18.053 4.562 17.525V17.525C3.232 16.195 2.483 14.391 2.479 12.51V12.51C2.479 11.28 2.717 10.05 3.19 8.893C3.656 7.754 4.349 6.687 5.274 5.763C6.933 4.104 9.225 3.078 11.756 3.078C14.287 3.078 16.579 4.104 18.238 5.763C19.897 7.422 20.923 9.713 20.923 12.245C20.923 14.776 19.897 17.068 18.238 18.727C16.579 20.386 14.288 21.412 11.756 21.412C10.769 21.412 9.784 21.242 8.839 20.924" stroke="black" stroke-width="1.5" stroke-linecap="round" stroke-linejoin="round"/>
</svg>
