<svg width="24" height="24" viewBox="0 0 24 24" fill="none" xmlns="http://www.w3.org/2000/svg">
<path d="M5.15715 6.15735C5.61914 5.61755 6.14371 5.13462 6.7198 4.71875" stroke="black" stroke-width="1.5" stroke-linecap="round" stroke-linejoin="round"/>
<path d="M17.0021 19.4854C14.7588 20.9857 11.9606 21.3999 9.37891 20.6138" stroke="black" stroke-width="1.5" stroke-linecap="round" stroke-linejoin="round"/>
<path d="M6.34665 19.0026C5.0529 17.9553 4.07436 16.5703 3.51947 15.001" stroke="black" stroke-width="1.5" stroke-linecap="round" stroke-linejoin="round"/>
<path d="M3.51946 8.99902C3.175 9.96223 2.99804 10.9773 2.99624 12.0003" stroke="black" stroke-width="1.5" stroke-linecap="round" stroke-linejoin="round"/>
<path d="M19.4661 17.002C21.3271 14.2458 21.5125 10.6868 19.9481 7.75215C18.3837 4.81746 15.3256 2.98755 12 2.99612" stroke="black" stroke-width="1.5" stroke-linecap="round" stroke-linejoin="round"/>
<path fill-rule="evenodd" clip-rule="evenodd" d="M9.38052 15.1725L11.6205 14.2585C11.8626 14.1597 12.1338 14.1597 12.3759 14.2585L14.6196 15.1736C15.0115 15.3333 15.4615 15.2292 15.7434 14.9136C16.0253 14.5979 16.0782 14.1391 15.8755 13.7676L12.8779 8.26963C12.7027 7.94812 12.3659 7.74805 11.9997 7.74805C11.6336 7.74805 11.2967 7.94812 11.1215 8.26963L8.12449 13.7665C7.92174 14.138 7.97464 14.5969 8.2566 14.9125C8.53856 15.2281 8.9886 15.3322 9.38052 15.1725Z" stroke="black" stroke-width="1.5" stroke-linecap="round" stroke-linejoin="round"/>
</svg>
