<svg width="24" height="24" viewBox="0 0 24 24" fill="none" xmlns="http://www.w3.org/2000/svg">
<path d="M14.0008 18.0026C14.0008 20.2127 15.7924 22.0043 18.0025 22.0043C20.2126 22.0043 22.0042 20.2127 22.0042 18.0026C22.0042 15.7926 20.2126 14.001 18.0025 14.001C15.7924 14.001 14.0008 15.7926 14.0008 18.0026" stroke="black" stroke-width="1.5" stroke-linecap="round" stroke-linejoin="round"/>
<path d="M14.8912 20.524C10.9229 21.8737 6.54785 20.3105 4.33335 16.7517C2.11885 13.1929 2.64913 8.57735 5.613 5.61347C8.57688 2.6496 13.1925 2.11932 16.7513 4.33382C20.3101 6.54832 21.8733 10.9234 20.5236 14.8917" stroke="black" stroke-width="1.5" stroke-linecap="round" stroke-linejoin="round"/>
<path d="M12.5002 13.501L9.99917 16.002L7.49813 13.501" stroke="black" stroke-width="1.5" stroke-linecap="round" stroke-linejoin="round"/>
<path d="M9.99917 16.0014V10.9993C9.99917 9.34175 11.3429 7.99805 13.0004 7.99805V7.99805C14.658 7.99805 16.0017 9.34175 16.0017 10.9993" stroke="black" stroke-width="1.5" stroke-linecap="round" stroke-linejoin="round"/>
<path d="M19.3861 18.0022C19.3861 18.0298 19.3637 18.0522 19.3361 18.0522C19.3084 18.0522 19.286 18.0298 19.286 18.0022C19.286 17.9745 19.3084 17.9521 19.3361 17.9521" stroke="black" stroke-width="1.5" stroke-linecap="round" stroke-linejoin="round"/>
<path d="M19.3361 17.9527C19.3637 17.9527 19.3861 17.9751 19.3861 18.0028" stroke="black" stroke-width="1.5" stroke-linecap="round" stroke-linejoin="round"/>
<path d="M16.719 18.0022C16.719 18.0298 16.6966 18.0522 16.6689 18.0522C16.6413 18.0522 16.6189 18.0298 16.6189 18.0022C16.6189 17.9745 16.6413 17.9521 16.6689 17.9521" stroke="black" stroke-width="1.5" stroke-linecap="round" stroke-linejoin="round"/>
<path d="M16.6689 17.9527C16.6966 17.9527 16.719 17.9751 16.719 18.0028" stroke="black" stroke-width="1.5" stroke-linecap="round" stroke-linejoin="round"/>
</svg>
