<svg width="24" height="24" viewBox="0 0 24 24" fill="none" xmlns="http://www.w3.org/2000/svg">
<path d="M13.4336 3.06348C17.9577 3.82244 21.1879 7.86144 20.9339 12.4417C20.6798 17.022 17.0228 20.679 12.4425 20.9331C7.86223 21.1871 3.82324 17.9569 3.06427 13.4328" stroke="black" stroke-width="1.5" stroke-linecap="round" stroke-linejoin="round"/>
<path d="M3.05927 10.4335C3.15286 9.87599 3.29925 9.32864 3.49645 8.79883" stroke="black" stroke-width="1.5" stroke-linecap="round" stroke-linejoin="round"/>
<path d="M6.19757 4.99707C5.76023 5.35825 5.35825 5.76023 4.99707 6.19757" stroke="black" stroke-width="1.5" stroke-linecap="round" stroke-linejoin="round"/>
<path d="M10.4334 3.06334C9.87579 3.15717 9.32842 3.30389 8.79868 3.50153" stroke="black" stroke-width="1.5" stroke-linecap="round" stroke-linejoin="round"/>
<path fill-rule="evenodd" clip-rule="evenodd" d="M9.38054 15.1725L11.6205 14.2585C11.8626 14.1597 12.1338 14.1597 12.3759 14.2585L14.6196 15.1736C15.0115 15.3333 15.4615 15.2292 15.7434 14.9136C16.0253 14.5979 16.0782 14.1391 15.8755 13.7676L12.878 8.26963C12.7027 7.94812 12.3659 7.74805 11.9997 7.74805C11.6336 7.74805 11.2967 7.94812 11.1215 8.26963L8.1245 13.7665C7.92176 14.138 7.97466 14.5969 8.25662 14.9125C8.53858 15.2281 8.98861 15.3322 9.38054 15.1725Z" stroke="black" stroke-width="1.5" stroke-linecap="round" stroke-linejoin="round"/>
</svg>
