<svg width="24" height="24" viewBox="0 0 24 24" fill="none" xmlns="http://www.w3.org/2000/svg">
<path d="M13.05 12.0001C13.05 12.0277 13.0276 12.05 13 12.05C12.9724 12.05 12.95 12.0276 12.95 12C12.95 11.9724 12.9723 11.95 12.9999 11.95C13.0132 11.95 13.026 11.9553 13.0354 11.9646C13.0447 11.974 13.05 11.9868 13.05 12.0001" stroke="black" stroke-width="1.5" stroke-linecap="round" stroke-linejoin="round"/>
<path fill-rule="evenodd" clip-rule="evenodd" d="M17 5H9.4C8.18487 5.00001 7.03563 5.55236 6.27655 6.50121L3.87655 9.50121C2.70784 10.9621 2.70784 13.0379 3.87655 14.4988L6.27655 17.4988C7.03563 18.4476 8.18487 19 9.4 19H17C19.2091 19 21 17.2091 21 15V9C21 6.79086 19.2091 5 17 5Z" stroke="black" stroke-width="1.5" stroke-linecap="round" stroke-linejoin="round"/>
<path d="M16.55 12.0001C16.55 12.0277 16.5276 12.05 16.5 12.05C16.4724 12.05 16.45 12.0276 16.45 12C16.45 11.9724 16.4723 11.95 16.4999 11.95C16.5132 11.95 16.526 11.9553 16.5354 11.9646C16.5447 11.974 16.55 11.9868 16.55 12.0001" stroke="black" stroke-width="1.5" stroke-linecap="round" stroke-linejoin="round"/>
<path d="M9.55 12.0001C9.54997 12.0277 9.52758 12.05 9.49998 12.05C9.47238 12.05 9.45001 12.0276 9.45 12C9.44999 11.9724 9.47234 11.95 9.49994 11.95C9.51322 11.95 9.52596 11.9553 9.53536 11.9646C9.54475 11.974 9.55002 11.9868 9.55 12.0001" stroke="black" stroke-width="1.5" stroke-linecap="round" stroke-linejoin="round"/>
</svg>
