<svg width="24" height="24" viewBox="0 0 24 24" fill="none" xmlns="http://www.w3.org/2000/svg">
<path d="M12.5002 10.4991L9.99915 7.99805L7.49811 10.4991" stroke="black" stroke-width="1.5" stroke-linecap="round" stroke-linejoin="round"/>
<path d="M9.99918 7.99805V13.0001C9.99918 14.6577 11.3429 16.0014 13.0004 16.0014V16.0014C14.658 16.0014 16.0017 14.6577 16.0017 13.0001" stroke="black" stroke-width="1.5" stroke-linecap="round" stroke-linejoin="round"/>
<path d="M18.0025 9.99943C20.2125 9.99943 22.0042 8.20782 22.0042 5.99776C22.0042 3.7877 20.2125 1.99609 18.0025 1.99609C15.7924 1.99609 14.0008 3.7877 14.0008 5.99776C14.0008 8.20782 15.7924 9.99943 18.0025 9.99943" stroke="black" stroke-width="1.5" stroke-linecap="round" stroke-linejoin="round"/>
<path d="M19.0636 7.05873L16.9414 4.93652" stroke="black" stroke-width="1.5" stroke-linecap="round" stroke-linejoin="round"/>
<path d="M19.0636 4.93652L16.9414 7.05873" stroke="black" stroke-width="1.5" stroke-linecap="round" stroke-linejoin="round"/>
<path d="M20.5235 9.1086C21.8733 13.0769 20.3101 17.452 16.7512 19.6665C13.1924 21.8809 8.57686 21.3507 5.61299 18.3868C2.64911 15.4229 2.11883 10.8073 4.33333 7.24853C6.54783 3.68972 10.9229 2.12653 14.8912 3.47625" stroke="black" stroke-width="1.5" stroke-linecap="round" stroke-linejoin="round"/>
</svg>
