<svg width="24" height="24" viewBox="0 0 24 24" fill="none" xmlns="http://www.w3.org/2000/svg">
<circle cx="12" cy="11.9998" r="9.00375" stroke="black" stroke-width="1.5" stroke-linecap="round" stroke-linejoin="round"/>
<path d="M5.56021 5.71191L7.81052 7.96285" stroke="black" stroke-width="1.5" stroke-linecap="round" stroke-linejoin="round"/>
<path d="M16.0351 16.1895L18.286 18.441" stroke="black" stroke-width="1.5" stroke-linecap="round" stroke-linejoin="round"/>
<path fill-rule="evenodd" clip-rule="evenodd" d="M8.11023 12.1878L10.3389 13.1247C10.5798 13.2259 10.7715 13.4175 10.8728 13.6584L11.8116 15.8902C11.9757 16.2799 12.3673 16.5242 12.7895 16.5004C13.2116 16.4766 13.5732 16.1898 13.6925 15.7841L15.4594 9.78174C15.5628 9.43077 15.4661 9.05139 15.2074 8.7927C14.9486 8.53401 14.5692 8.43737 14.2183 8.54076L8.21618 10.307C7.81044 10.4263 7.52358 10.7878 7.49979 11.2101C7.47601 11.6323 7.72045 12.0238 8.11023 12.1878V12.1878Z" stroke="black" stroke-width="1.5" stroke-linecap="round" stroke-linejoin="round"/>
</svg>
