<svg width="24" height="24" viewBox="0 0 24 24" fill="none" xmlns="http://www.w3.org/2000/svg">
<path fill-rule="evenodd" clip-rule="evenodd" d="M10.1 10.75H8.15C7.97761 10.75 7.81228 10.6815 7.69038 10.5596C7.56848 10.4377 7.5 10.2724 7.5 10.1V8.15C7.5 7.79101 7.79101 7.5 8.15 7.5H10.1C10.459 7.5 10.75 7.79101 10.75 8.15V10.1C10.75 10.459 10.459 10.75 10.1 10.75Z" stroke="black" stroke-width="1.5" stroke-linecap="round" stroke-linejoin="round"/>
<path fill-rule="evenodd" clip-rule="evenodd" d="M15.85 10.75H13.9C13.541 10.75 13.25 10.459 13.25 10.1V8.15C13.25 7.97761 13.3185 7.81228 13.4404 7.69038C13.5623 7.56848 13.7276 7.5 13.9 7.5H15.85C16.209 7.5 16.5 7.79101 16.5 8.15V10.1C16.5 10.459 16.209 10.75 15.85 10.75Z" stroke="black" stroke-width="1.5" stroke-linecap="round" stroke-linejoin="round"/>
<path fill-rule="evenodd" clip-rule="evenodd" d="M10.1 16.5H8.15C7.97761 16.5 7.81228 16.4315 7.69038 16.3096C7.56848 16.1877 7.5 16.0224 7.5 15.85V13.9C7.5 13.541 7.79101 13.25 8.15 13.25H10.1C10.459 13.25 10.75 13.541 10.75 13.9V15.85C10.75 16.209 10.459 16.5 10.1 16.5Z" stroke="black" stroke-width="1.5" stroke-linecap="round" stroke-linejoin="round"/>
<path fill-rule="evenodd" clip-rule="evenodd" d="M15.85 16.5H13.9C13.541 16.5 13.25 16.209 13.25 15.85V13.9C13.25 13.541 13.541 13.25 13.9 13.25H15.85C16.209 13.25 16.5 13.541 16.5 13.9V15.85C16.5 16.209 16.209 16.5 15.85 16.5Z" stroke="black" stroke-width="1.5" stroke-linecap="round" stroke-linejoin="round"/>
<rect x="3" y="3" width="18" height="18" rx="5" stroke="black" stroke-width="1.5" stroke-linecap="round" stroke-linejoin="round"/>
</svg>
