<svg width="24" height="24" viewBox="0 0 24 24" fill="none" xmlns="http://www.w3.org/2000/svg">
<path fill-rule="evenodd" clip-rule="evenodd" d="M9.03076 17.0789L11.5818 14.1887C11.6796 14.0782 11.8173 14.011 11.9645 14.002C12.1118 13.993 12.2567 14.0429 12.3672 14.1407V14.1407C12.3842 14.1557 12.4002 14.1717 12.4162 14.1887L14.9672 17.0789C15.1123 17.2427 15.1477 17.4763 15.0576 17.6757C14.9675 17.875 14.7688 18.0029 14.5501 18.0023H9.44794C9.22937 18.0025 9.03101 17.8745 8.9412 17.6752C8.85139 17.476 8.88684 17.2425 9.03176 17.0789H9.03076Z" stroke="black" stroke-width="1.5" stroke-linecap="round" stroke-linejoin="round"/>
<rect x="2.99625" y="2.99609" width="18.0075" height="18.0075" rx="5" stroke="black" stroke-width="1.5" stroke-linecap="round" stroke-linejoin="round"/>
<path d="M7.81726 13.7366C6.44656 11.6466 6.82886 8.86567 8.71265 7.22312C10.5965 5.58057 13.4036 5.58057 15.2873 7.22312C17.1711 8.86567 17.5534 11.6466 16.1827 13.7366" stroke="black" stroke-width="1.5" stroke-linecap="round" stroke-linejoin="round"/>
</svg>
