<svg width="24" height="24" viewBox="0 0 24 24" fill="none" xmlns="http://www.w3.org/2000/svg">
<path fill-rule="evenodd" clip-rule="evenodd" d="M19.21 17.5022L20.6886 20.4234C20.7531 20.5504 20.7644 20.6977 20.7201 20.833C20.6758 20.9683 20.5796 21.0805 20.4525 21.1447L18.8589 21.9511C18.7319 22.0155 18.5846 22.0269 18.4493 21.9826C18.3139 21.9383 18.2018 21.842 18.1376 21.715L16.6589 18.7927L14.1099 20.3834L14.1159 11.5357C14.1161 11.3326 14.231 11.1471 14.4127 11.0564C14.5945 10.9657 14.8119 10.9855 14.9742 11.1075L22.0042 16.3877L19.21 17.5022Z" stroke="black" stroke-width="1.5" stroke-linecap="round" stroke-linejoin="round"/>
<path d="M9.99917 20.0032H7.99834C5.23576 20.0032 2.99625 17.7637 2.99625 15.0011V7.99818C2.99625 5.2356 5.23576 2.99609 7.99834 2.99609H16.0017C18.7642 2.99609 21.0038 5.2356 21.0038 7.99818V10.9994" stroke="black" stroke-width="1.5" stroke-linecap="round" stroke-linejoin="round"/>
<path d="M6.99792 7.99826H13.0004" stroke="black" stroke-width="1.5" stroke-linecap="round" stroke-linejoin="round"/>
<path d="M6.99792 10.9992H10.4043" stroke="black" stroke-width="1.5" stroke-linecap="round" stroke-linejoin="round"/>
<path d="M6.99792 14.0012H10.4043" stroke="black" stroke-width="1.5" stroke-linecap="round" stroke-linejoin="round"/>
</svg>
