<svg width="24" height="24" viewBox="0 0 24 24" fill="none" xmlns="http://www.w3.org/2000/svg">
<path d="M12 21H7C4.79086 21 3 19.2091 3 17V7C3 4.79086 4.79086 3 7 3H17C19.2091 3 21 4.79086 21 7V8" stroke="black" stroke-width="1.5" stroke-linecap="round" stroke-linejoin="round"/>
<path d="M18.5 21V18.5" stroke="black" stroke-width="1.5" stroke-linecap="round" stroke-linejoin="round"/>
<path fill-rule="evenodd" clip-rule="evenodd" d="M16.389 15.0423L16.0198 13.1961C15.9611 12.9023 16.0371 12.5977 16.2271 12.366C16.417 12.1344 16.7007 12 17.0003 12H19.9997C20.2992 12 20.583 12.1343 20.7729 12.366C20.9629 12.5977 21.0389 12.9023 20.9802 13.196L20.611 15.0423C20.5622 15.2862 20.6061 15.5396 20.7341 15.7529L21.928 17.7427C22.0207 17.8972 22.0232 18.0896 21.9344 18.2464C21.8456 18.4031 21.6794 18.5 21.4992 18.5H15.5008C15.3207 18.5 15.1544 18.4031 15.0657 18.2463C14.9769 18.0896 14.9794 17.8972 15.072 17.7427L16.2659 15.7529C16.3939 15.5396 16.4378 15.2862 16.389 15.0423Z" stroke="black" stroke-width="1.5" stroke-linecap="round" stroke-linejoin="round"/>
</svg>
