<svg width="24" height="24" viewBox="0 0 24 24" fill="none" xmlns="http://www.w3.org/2000/svg">
<path d="M7.33105 16.6689L12 12" stroke="black" stroke-width="1.5" stroke-linecap="round" stroke-linejoin="round"/>
<path d="M16.6689 7.33105L12 12" stroke="black" stroke-width="1.5" stroke-linecap="round" stroke-linejoin="round"/>
<path d="M10.9075 13.0924C9.4504 11.6359 7.0885 11.6359 5.63135 13.0924L4.08871 14.6351C2.63212 16.0922 2.63212 18.4541 4.08871 19.9113V19.9113C5.54585 21.3679 7.90776 21.3679 9.36491 19.9113L10.9075 18.3686C11.7718 17.5039 12.1563 16.2698 11.936 15.0673" stroke="black" stroke-width="1.5" stroke-linecap="round" stroke-linejoin="round"/>
<path d="M15.0653 11.9361C16.2679 12.1564 17.5019 11.7719 18.3667 10.9077L19.9093 9.36503C21.3663 7.90805 21.3663 5.54581 19.9093 4.08883C18.4523 2.63185 16.0901 2.63185 14.6331 4.08883L13.0925 5.63147C11.6359 7.08862 11.6359 9.45052 13.0925 10.9077V10.9077" stroke="black" stroke-width="1.5" stroke-linecap="round" stroke-linejoin="round"/>
</svg>
