<svg width="24" height="24" viewBox="0 0 24 24" fill="none" xmlns="http://www.w3.org/2000/svg">
<path d="M13.2515 15.2194L12.3942 16.0768C11.1591 17.3103 9.15835 17.3103 7.92331 16.0768V16.0768C6.68979 14.8417 6.68979 12.8409 7.92331 11.6059L8.78067 10.7485" stroke="black" stroke-width="1.5" stroke-linecap="round" stroke-linejoin="round"/>
<path fill-rule="evenodd" clip-rule="evenodd" d="M16.0017 21.0041H7.99833C5.23576 21.0041 2.99625 18.7646 2.99625 16.002V7.99867C2.99625 5.23609 5.23576 2.99658 7.99833 2.99658H16.0017C18.7642 2.99658 21.0037 5.23609 21.0037 7.99867V16.002C21.0037 18.7646 18.7642 21.0041 16.0017 21.0041Z" stroke="black" stroke-width="1.5" stroke-linecap="round" stroke-linejoin="round"/>
<path d="M10.1722 13.8279L13.8278 10.1724" stroke="black" stroke-width="1.5" stroke-linecap="round" stroke-linejoin="round"/>
<path d="M10.7485 8.78055L11.6058 7.92319C12.8409 6.68967 14.8417 6.68967 16.0767 7.92319V7.92319C17.3102 9.15823 17.3102 11.159 16.0767 12.3941L15.2193 13.2514" stroke="black" stroke-width="1.5" stroke-linecap="round" stroke-linejoin="round"/>
</svg>
