<svg width="24" height="24" viewBox="0 0 24 24" fill="none" xmlns="http://www.w3.org/2000/svg">
<path d="M16.0017 22.0046L14.0008 20.0038L16.0017 18.0029" stroke="black" stroke-width="1.5" stroke-linecap="round" stroke-linejoin="round"/>
<path d="M20.0033 20.0031H14.0008" stroke="black" stroke-width="1.5" stroke-linecap="round" stroke-linejoin="round"/>
<path d="M15.0012 13.0003L15.6695 12.333C16.6819 11.2135 16.6388 9.49676 15.5715 8.42943C14.5041 7.36211 12.7874 7.31898 11.6679 8.33136L10.9996 8.99864" stroke="black" stroke-width="1.5" stroke-linecap="round" stroke-linejoin="round"/>
<path d="M8.99875 11L8.33047 11.6673C7.31809 12.7869 7.36122 14.5035 8.42854 15.5709C9.49587 16.6382 11.2126 16.6813 12.3321 15.6689L13.0004 15.0017" stroke="black" stroke-width="1.5" stroke-linecap="round" stroke-linejoin="round"/>
<path d="M10.3313 13.6684L13.6687 10.3311" stroke="black" stroke-width="1.5" stroke-linecap="round" stroke-linejoin="round"/>
<path d="M20.0568 16.0021C21.7633 12.5672 21.1055 8.42809 18.4181 5.69147C15.7307 2.95484 11.6042 2.22202 8.1389 3.86597C4.67354 5.50991 2.63077 9.1694 3.05025 12.9819C3.46972 16.7944 6.25928 19.9222 9.99917 20.7734" stroke="black" stroke-width="1.5" stroke-linecap="round" stroke-linejoin="round"/>
</svg>
