<svg width="24" height="24" viewBox="0 0 24 24" fill="none" xmlns="http://www.w3.org/2000/svg">
<path d="M7.99834 17.502L9.99917 19.5028L7.99834 21.5036" stroke="black" stroke-width="1.5" stroke-linecap="round" stroke-linejoin="round"/>
<path d="M9.99917 19.5031H3.99667" stroke="black" stroke-width="1.5" stroke-linecap="round" stroke-linejoin="round"/>
<path d="M13.9983 20.2772C17.7387 19.4256 20.5285 16.2972 20.9478 12.4841C21.3671 8.67096 19.3239 5.01103 15.858 3.36696C12.392 1.72288 8.265 2.45591 5.57723 5.19298C2.88946 7.93005 2.23156 12.0697 3.93836 15.5052" stroke="black" stroke-width="1.5" stroke-linecap="round" stroke-linejoin="round"/>
<path d="M13.0004 8.4918L12.3321 7.82452C11.2126 6.81214 9.49587 6.85527 8.42855 7.9226C7.36122 8.98992 7.3181 10.7066 8.33048 11.8262L8.99875 12.4935" stroke="black" stroke-width="1.5" stroke-linecap="round" stroke-linejoin="round"/>
<path d="M10.9996 14.4948L11.6679 15.1621C12.7874 16.1745 14.5041 16.1314 15.5715 15.064C16.6388 13.9967 16.6819 12.28 15.6695 11.1604L15.0013 10.4932" stroke="black" stroke-width="1.5" stroke-linecap="round" stroke-linejoin="round"/>
<path d="M10.3313 9.8252L13.6687 13.1626" stroke="black" stroke-width="1.5" stroke-linecap="round" stroke-linejoin="round"/>
</svg>
