<svg width="24" height="24" viewBox="0 0 24 24" fill="none" xmlns="http://www.w3.org/2000/svg">
<path d="M11.2797 11.04H12C13.5912 11.04 14.8812 12.33 14.8812 13.9212C14.8812 15.5125 13.5912 16.8025 12 16.8025H9.11879C7.92566 16.8065 6.85434 16.0723 6.42756 14.9581C6.00078 13.8439 6.30747 12.5818 7.19799 11.7878" stroke="black" stroke-width="1.5" stroke-linecap="round" stroke-linejoin="round"/>
<path d="M12.7203 13.9206H12C10.4087 13.9206 9.11877 12.6307 9.11877 11.0394C9.11877 9.44819 10.4087 8.15822 12 8.15822H14.8812C16.0743 8.1542 17.1456 8.8884 17.5724 10.0026C17.9992 11.1168 17.6925 12.3788 16.802 13.1729" stroke="black" stroke-width="1.5" stroke-linecap="round" stroke-linejoin="round"/>
<rect x="3.35638" y="3.80957" width="17.2872" height="17.2872" rx="5" stroke="black" stroke-width="1.5" stroke-linecap="round" stroke-linejoin="round"/>
</svg>
