<svg width="24" height="24" viewBox="0 0 24 24" fill="none" xmlns="http://www.w3.org/2000/svg">
<path d="M19.34 9.07096L20.0814 8.32965C20.6926 7.71874 21.0258 6.88335 21.0027 6.01945C20.9796 5.15555 20.6023 4.33914 19.9593 3.76175C18.6414 2.6593 16.6951 2.76508 15.5044 4.00385L14.8892 4.6201" stroke="black" stroke-width="1.5" stroke-linecap="round" stroke-linejoin="round"/>
<path d="M12.6633 6.84619L11.922 7.5875C11.3107 8.19841 10.9775 9.0338 11.0006 9.8977C11.0237 10.7616 11.401 11.578 12.044 12.1554C13.362 13.2581 15.3087 13.1518 16.4989 11.9123L17.1141 11.297" stroke="black" stroke-width="1.5" stroke-linecap="round" stroke-linejoin="round"/>
<path d="M21.0037 12.0003V17.0024C21.0037 19.2125 19.2121 21.0041 17.0021 21.0041H6.99791C4.78785 21.0041 2.99625 19.2125 2.99625 17.0024V6.99825C2.99625 4.78819 4.78785 2.99658 6.99791 2.99658H12" stroke="black" stroke-width="1.5" stroke-linecap="round" stroke-linejoin="round"/>
<path d="M17.8554 6.10352L14.1479 9.81206" stroke="black" stroke-width="1.5" stroke-linecap="round" stroke-linejoin="round"/>
</svg>
