<svg width="24" height="24" viewBox="0 0 24 24" fill="none" xmlns="http://www.w3.org/2000/svg">
<path d="M15.8706 9.12891C17.0451 7.95442 18.9479 7.95442 20.1224 9.12891V9.12891C21.2969 10.3034 21.2969 12.2062 20.1224 13.3807L15.1233 18.3798C13.9488 19.5543 12.046 19.5543 10.8715 18.3798V18.3798C9.69704 17.2053 9.69704 15.3025 10.8715 14.128L11.6188 13.3807" stroke="black" stroke-width="1.5" stroke-linecap="round" stroke-linejoin="round"/>
<path d="M9.1298 20.1224C7.95531 21.2969 6.05252 21.2969 4.87803 20.1224V20.1224C3.70354 18.948 3.70354 17.0452 4.87803 15.8707L9.87711 10.8716C11.0516 9.6971 12.9544 9.6971 14.1289 10.8716V10.8716C15.3034 12.0461 15.3034 13.9489 14.1289 15.1234L13.3506 15.9007" stroke="black" stroke-width="1.5" stroke-linecap="round" stroke-linejoin="round"/>
<path d="M4.99707 3.99658L7.99732 6.99683" stroke="black" stroke-width="1.5" stroke-linecap="round" stroke-linejoin="round"/>
<path d="M4.99707 6.99683L7.99732 3.99658" stroke="black" stroke-width="1.5" stroke-linecap="round" stroke-linejoin="round"/>
</svg>
