<svg width="24" height="24" viewBox="0 0 24 24" fill="none" xmlns="http://www.w3.org/2000/svg">
<path d="M9.99916 13.0004L10.9526 13.9538C11.703 14.7043 12.7209 15.1259 13.7822 15.1259C14.8436 15.1259 15.8615 14.7043 16.6119 13.9538L19.6442 10.9215C21.4571 9.10839 21.4571 6.16893 19.6442 4.35579V4.35579C17.831 2.54286 14.8916 2.54286 13.0784 4.35579L12.1911 5.24416" stroke="black" stroke-width="1.5" stroke-linecap="round" stroke-linejoin="round"/>
<path d="M14.0008 9.99907L13.0474 9.04567C12.297 8.29517 11.2791 7.87354 10.2178 7.87354C9.15641 7.87354 8.13854 8.29517 7.38808 9.04567L4.35581 12.0779C2.54288 13.8911 2.54288 16.8305 4.35581 18.6437V18.6437C6.16895 20.4566 9.10841 20.4566 10.9215 18.6437L11.8089 17.7553" stroke="black" stroke-width="1.5" stroke-linecap="round" stroke-linejoin="round"/>
</svg>
