<svg width="24" height="24" viewBox="0 0 24 24" fill="none" xmlns="http://www.w3.org/2000/svg">
<path d="M14.1269 17.2642L12.6693 18.7218C11.6613 19.7305 10.2937 20.2973 8.8677 20.2973C7.44166 20.2973 6.0741 19.7305 5.06611 18.7218V18.7218C4.05762 17.7137 3.49103 16.3462 3.49103 14.9202C3.49103 13.4943 4.05762 12.1268 5.06611 11.1186L6.52772 9.66504" stroke="black" stroke-width="1.5" stroke-linecap="round" stroke-linejoin="round"/>
<path d="M8.89371 14.8981L15.1063 8.68555" stroke="black" stroke-width="1.5" stroke-linecap="round" stroke-linejoin="round"/>
<path d="M9.87311 6.31958L11.3307 4.86198C12.3384 3.85275 13.7061 3.28564 15.1323 3.28564C16.5585 3.28564 17.9262 3.85275 18.9339 4.86198V4.86198C19.9426 5.86996 20.5094 7.23753 20.5094 8.66356C20.5094 10.0896 19.9426 11.4572 18.9339 12.4651L17.4723 13.9187" stroke="black" stroke-width="1.5" stroke-linecap="round" stroke-linejoin="round"/>
</svg>
