<svg width="24" height="24" viewBox="0 0 24 24" fill="none" xmlns="http://www.w3.org/2000/svg">
<path d="M11.021 12.981C11.997 13.957 13.579 13.957 14.554 12.981L16.156 11.379C16.927 10.608 16.927 9.359 16.156 8.589L15.414 7.847C14.643 7.076 13.394 7.076 12.624 7.847" stroke="black" stroke-width="1.5" stroke-linecap="round" stroke-linejoin="round"/>
<path fill-rule="evenodd" clip-rule="evenodd" d="M3 19V6C3 4.343 4.343 3 6 3H18C19.657 3 21 4.343 21 6V18C21 19.657 19.657 21 18 21H5C3.895 21 3 20.105 3 19Z" stroke="black" stroke-width="1.5" stroke-linecap="round" stroke-linejoin="round"/>
<path d="M12.979 11.019C12.003 10.043 10.421 10.043 9.446 11.019L7.844 12.621C7.073 13.392 7.073 14.641 7.844 15.411L8.586 16.153C9.357 16.924 10.606 16.924 11.376 16.153" stroke="black" stroke-width="1.5" stroke-linecap="round" stroke-linejoin="round"/>
</svg>
