<svg width="24" height="24" viewBox="0 0 24 24" fill="none" xmlns="http://www.w3.org/2000/svg">
<path d="M16.1747 11.853C16.9081 11.1364 17.1996 10.0808 16.938 9.08941C16.6764 8.09798 15.9021 7.32367 14.9107 7.06209C13.9192 6.8005 12.8637 7.09201 12.1471 7.82534L10.9996 8.97282C10.4653 9.50682 10.1651 10.2313 10.1651 10.9867C10.1651 11.7421 10.4653 12.4665 10.9996 13.0005" stroke="black" stroke-width="1.5" stroke-linecap="round" stroke-linejoin="round"/>
<rect x="2.99625" y="2.99609" width="18.0075" height="18.0075" rx="5" stroke="black" stroke-width="1.5" stroke-linecap="round" stroke-linejoin="round"/>
<path d="M7.82525 12.1475C7.09192 12.8642 6.80041 13.9197 7.062 14.9111C7.32358 15.9025 8.09789 16.6768 9.08932 16.9384C10.0808 17.2 11.1363 16.9085 11.8529 16.1752L13.0834 14.9447C13.6177 14.4107 13.9179 13.6862 13.9179 12.9308C13.9179 12.1754 13.6177 11.451 13.0834 10.917" stroke="black" stroke-width="1.5" stroke-linecap="round" stroke-linejoin="round"/>
</svg>
