<svg width="24" height="24" viewBox="0 0 24 24" fill="none" xmlns="http://www.w3.org/2000/svg">
<path d="M15.5015 13.5006L16.1757 12.8263C16.706 12.2948 17.4258 11.9961 18.1766 11.9961C18.9273 11.9961 19.6472 12.2948 20.1774 12.8263V12.8263C20.7089 13.3565 21.0076 14.0764 21.0076 14.8271C21.0076 15.5779 20.7089 16.2977 20.1774 16.828L19.5031 17.5022" stroke="black" stroke-width="1.5" stroke-linecap="round" stroke-linejoin="round"/>
<path d="M13.5006 15.5015L12.8263 16.1757C11.7213 17.2808 11.7213 19.0724 12.8263 20.1774C13.9314 21.2824 15.723 21.2824 16.828 20.1774L17.5023 19.5031" stroke="black" stroke-width="1.5" stroke-linecap="round" stroke-linejoin="round"/>
<path d="M8.99875 21.0041H6.99792C4.78786 21.0041 2.99625 19.2125 2.99625 17.0024V6.99825C2.99625 4.78819 4.78786 2.99658 6.99792 2.99658H17.0021C19.2121 2.99658 21.0038 4.78819 21.0038 6.99825V8.99908" stroke="black" stroke-width="1.5" stroke-linecap="round" stroke-linejoin="round"/>
<path d="M6.99792 8.99874H10.9996" stroke="black" stroke-width="1.5" stroke-linecap="round" stroke-linejoin="round"/>
<path d="M8.99875 10.9997V6.99805" stroke="black" stroke-width="1.5" stroke-linecap="round" stroke-linejoin="round"/>
<path d="M18.2526 14.7515L14.7511 18.2529" stroke="black" stroke-width="1.5" stroke-linecap="round" stroke-linejoin="round"/>
</svg>
