<svg width="24" height="24" viewBox="0 0 24 24" fill="none" xmlns="http://www.w3.org/2000/svg">
<circle cx="12" cy="11.9998" r="9.00375" stroke="black" stroke-width="1.5" stroke-linecap="round" stroke-linejoin="round"/>
<path d="M10.9576 12.372C10.9486 13.2748 11.4868 14.0933 12.3193 14.4429C13.1518 14.7924 14.113 14.6034 14.7511 13.9647L16.3228 12.393C17.0188 11.6989 17.176 10.6301 16.7094 9.76496C16.2428 8.89986 15.2632 8.44413 14.301 8.64445" stroke="black" stroke-width="1.5" stroke-linecap="round" stroke-linejoin="round"/>
<path d="M13.0424 11.6279C13.0514 10.7251 12.5132 9.90659 11.6807 9.55708C10.8482 9.20758 9.88703 9.39658 9.24885 10.0353L7.6772 11.6069C6.98123 12.301 6.824 13.3699 7.2906 14.235C7.7572 15.1001 8.73676 15.5558 9.69904 15.3555" stroke="black" stroke-width="1.5" stroke-linecap="round" stroke-linejoin="round"/>
</svg>
