<svg width="24" height="24" viewBox="0 0 24 24" fill="none" xmlns="http://www.w3.org/2000/svg">
<path d="M12 21.0036C7.02737 21.0036 2.99625 16.9725 2.99625 11.9998C2.99625 7.02721 7.02737 2.99609 12 2.99609C16.9726 2.99609 21.0038 7.02721 21.0038 11.9998" stroke="black" stroke-width="1.5" stroke-linecap="round" stroke-linejoin="round"/>
<path d="M21.0038 12C21.0036 12.3344 20.9829 12.6685 20.9417 13.0004" stroke="black" stroke-width="1.5" stroke-linecap="round" stroke-linejoin="round"/>
<path d="M13.0004 20.9419C12.6685 20.983 12.3344 21.0037 12 21.0039" stroke="black" stroke-width="1.5" stroke-linecap="round" stroke-linejoin="round"/>
<path d="M19.4901 17.0146L17.0141 19.4907" stroke="black" stroke-width="1.5" stroke-linecap="round" stroke-linejoin="round"/>
<path d="M17.0151 17.0146L19.4911 19.4907" stroke="black" stroke-width="1.5" stroke-linecap="round" stroke-linejoin="round"/>
<path d="M16.1747 11.853C16.9081 11.1364 17.1996 10.0808 16.938 9.08941C16.6764 8.09798 15.9021 7.32367 14.9107 7.06209C13.9192 6.8005 12.8637 7.09201 12.1471 7.82534L10.9996 8.97282C10.4653 9.50682 10.1651 10.2313 10.1651 10.9867C10.1651 11.7421 10.4653 12.4665 10.9996 13.0005" stroke="black" stroke-width="1.5" stroke-linecap="round" stroke-linejoin="round"/>
<path d="M7.82526 12.1475C7.09194 12.8642 6.80042 13.9197 7.06201 14.9111C7.3236 15.9025 8.0979 16.6768 9.08933 16.9384C10.0808 17.2 11.1363 16.9085 11.8529 16.1752L13.0835 14.9447C13.6178 14.4107 13.9179 13.6862 13.9179 12.9308C13.9179 12.1754 13.6178 11.451 13.0835 10.917" stroke="black" stroke-width="1.5" stroke-linecap="round" stroke-linejoin="round"/>
</svg>
