<svg width="24" height="24" viewBox="0 0 24 24" fill="none" xmlns="http://www.w3.org/2000/svg">
<path fill-rule="evenodd" clip-rule="evenodd" d="M19.0029 12H14.0008C12.8958 12 12 12.8958 12 14.0008V19.0029C12 20.1079 12.8958 21.0037 14.0008 21.0037H19.0029C20.1079 21.0037 21.0037 20.1079 21.0037 19.0029V14.0008C21.0037 12.8958 20.1079 12 19.0029 12Z" stroke="black" stroke-width="1.5" stroke-linecap="round" stroke-linejoin="round"/>
<path d="M15.1783 14.8246C15.2758 14.9223 15.2757 15.0805 15.178 15.1781C15.0804 15.2757 14.9221 15.2757 14.8245 15.1781C14.7268 15.0805 14.7267 14.9223 14.8242 14.8246C14.8711 14.7775 14.9348 14.7511 15.0012 14.7511C15.0677 14.7511 15.1314 14.7775 15.1783 14.8246" stroke="black" stroke-width="1.5" stroke-linecap="round" stroke-linejoin="round"/>
<path d="M21.0037 16.052C20.7967 16.0206 20.5878 16.0039 20.3785 16.002C17.9612 16.002 16.0016 17.9615 16.0016 20.3788V20.3788C16.0031 20.5881 16.0198 20.7971 16.0517 21.004" stroke="black" stroke-width="1.5" stroke-linecap="round" stroke-linejoin="round"/>
<path d="M8.99875 13.0004H6.99791C4.78785 13.0004 2.99625 11.2088 2.99625 8.99874V8.99874C2.99625 6.78868 4.78785 4.99707 6.99791 4.99707H8.99875" stroke="black" stroke-width="1.5" stroke-linecap="round" stroke-linejoin="round"/>
<path d="M14.0008 4.99707H16.0017C18.2117 4.99707 20.0033 6.78868 20.0033 8.99874V8.99874" stroke="black" stroke-width="1.5" stroke-linecap="round" stroke-linejoin="round"/>
<path d="M6.99792 8.99923H15.0013" stroke="black" stroke-width="1.5" stroke-linecap="round" stroke-linejoin="round"/>
</svg>
