<svg width="24" height="24" viewBox="0 0 24 24" fill="none" xmlns="http://www.w3.org/2000/svg">
<path d="M8.99875 13.0004H6.99791C4.78785 13.0004 2.99625 11.2088 2.99625 8.99874V8.99874C2.99625 6.78868 4.78785 4.99707 6.99791 4.99707H8.99875" stroke="black" stroke-width="1.5" stroke-linecap="round" stroke-linejoin="round"/>
<path d="M14.0008 4.99707H16.0017C18.2117 4.99707 20.0033 6.78868 20.0033 8.99874" stroke="black" stroke-width="1.5" stroke-linecap="round" stroke-linejoin="round"/>
<path d="M6.99792 8.99923H15.0013" stroke="black" stroke-width="1.5" stroke-linecap="round" stroke-linejoin="round"/>
<path d="M16.5019 12C18.9882 12 21.0037 14.0156 21.0037 16.5019C21.0037 18.9882 18.9882 21.0037 16.5019 21.0037C14.0156 21.0037 12 18.9882 12 16.5019C12 14.0156 14.0156 12 16.5019 12" stroke="black" stroke-width="1.5" stroke-linecap="round" stroke-linejoin="round"/>
<path d="M15.3294 16.5022C15.3294 16.5298 15.307 16.5522 15.2794 16.5522C15.2517 16.5522 15.2293 16.5298 15.2293 16.5022C15.2293 16.4745 15.2517 16.4521 15.2794 16.4521" stroke="black" stroke-width="1.5" stroke-linecap="round" stroke-linejoin="round"/>
<path d="M15.2794 16.4518C15.307 16.4518 15.3294 16.4742 15.3294 16.5018" stroke="black" stroke-width="1.5" stroke-linecap="round" stroke-linejoin="round"/>
<path d="M17.7744 16.5022C17.7744 16.5298 17.752 16.5522 17.7244 16.5522C17.6968 16.5522 17.6744 16.5298 17.6744 16.5022C17.6744 16.4745 17.6968 16.4521 17.7244 16.4521" stroke="black" stroke-width="1.5" stroke-linecap="round" stroke-linejoin="round"/>
<path d="M17.7244 16.4518C17.752 16.4518 17.7744 16.4742 17.7744 16.5018" stroke="black" stroke-width="1.5" stroke-linecap="round" stroke-linejoin="round"/>
</svg>
