<svg width="24" height="24" viewBox="0 0 24 24" fill="none" xmlns="http://www.w3.org/2000/svg">
<path d="M10.9996 14.0014V14.0014C13.2096 14.0014 15.0012 12.2098 15.0012 9.99971V9.99971C15.0012 7.78965 13.2096 5.99805 10.9996 5.99805H6.99791C4.78785 5.99805 2.99625 7.78965 2.99625 9.99971V9.99971C2.99625 12.2098 4.78785 14.0014 6.99791 14.0014V14.0014" stroke="black" stroke-width="1.5" stroke-linecap="round" stroke-linejoin="round"/>
<path d="M13.0004 9.99902V9.99902C10.7904 9.99902 8.99875 11.7906 8.99875 14.0007V14.0007C8.99875 16.2107 10.7904 18.0024 13.0004 18.0024H17.0021C19.2121 18.0024 21.0037 16.2107 21.0037 14.0007V14.0007C21.0037 11.7906 19.2121 9.99902 17.0021 9.99902V9.99902" stroke="black" stroke-width="1.5" stroke-linecap="round" stroke-linejoin="round"/>
</svg>
