<svg width="24" height="24" viewBox="0 0 24 24" fill="none" xmlns="http://www.w3.org/2000/svg">
<path d="M9.74905 12.0003H12.7503C13.5791 12.0003 14.2509 12.6721 14.2509 13.5009V13.5009C14.2509 14.3297 13.5791 15.0015 12.7503 15.0015H10.3493C10.0178 15.0015 9.74905 14.7328 9.74905 14.4013V9.59927C9.74905 9.26776 10.0178 8.99902 10.3493 8.99902H12.2501C13.0789 8.99902 13.7507 9.67088 13.7507 10.4996V10.4996C13.7507 11.3284 13.0789 12.0003 12.2501 12.0003" stroke="black" stroke-width="1.5" stroke-linecap="round" stroke-linejoin="round"/>
<path d="M12 21.0036C7.02736 21.0036 2.99625 16.9725 2.99625 11.9998C2.99625 7.02721 7.02736 2.99609 12 2.99609C16.9726 2.99609 21.0037 7.02721 21.0037 11.9998C21.0037 16.9725 16.9726 21.0036 12 21.0036" stroke="black" stroke-width="1.5" stroke-linecap="round" stroke-linejoin="round"/>
</svg>
