<svg width="24" height="24" viewBox="0 0 24 24" fill="none" xmlns="http://www.w3.org/2000/svg">
<path d="M12 4.99728H4.99709" stroke="black" stroke-width="1.5" stroke-linecap="round" stroke-linejoin="round"/>
<path d="M12 4.99707C16.4201 4.99707 20.0033 8.58028 20.0033 13.0004C20.0033 17.4205 16.4201 21.0037 12 21.0037C7.57988 21.0037 3.99667 17.4205 3.99667 13.0004" stroke="black" stroke-width="1.5" stroke-linecap="round" stroke-linejoin="round"/>
<path d="M7.99834 7.99859L4.99709 4.99734L7.99834 1.99609" stroke="black" stroke-width="1.5" stroke-linecap="round" stroke-linejoin="round"/>
<path d="M12 12.9272C11.9597 12.9272 11.927 12.9599 11.927 13.0002C11.927 13.0405 11.9597 13.0732 12 13.0732C12.0403 13.0732 12.073 13.0405 12.073 13.0002C12.073 12.9599 12.0403 12.9272 12 12.9272" stroke="black" stroke-width="1.5" stroke-linecap="round" stroke-linejoin="round"/>
<path d="M15.5575 12.9272C15.5171 12.9272 15.4845 12.9599 15.4845 13.0002C15.4845 13.0405 15.5171 13.0732 15.5575 13.0732C15.5978 13.0732 15.6305 13.0405 15.6305 13.0002C15.6305 12.9599 15.5978 12.9272 15.5575 12.9272" stroke="black" stroke-width="1.5" stroke-linecap="round" stroke-linejoin="round"/>
<path d="M8.44352 12.9272C8.40319 12.9272 8.37049 12.9599 8.37049 13.0002C8.37049 13.0405 8.40319 13.0732 8.44352 13.0732C8.48386 13.0732 8.51655 13.0405 8.51655 13.0002C8.51655 12.9599 8.48386 12.9272 8.44352 12.9272" stroke="black" stroke-width="1.5" stroke-linecap="round" stroke-linejoin="round"/>
<path d="M11.928 9.44429C11.9323 9.48107 11.9635 9.50879 12.0005 9.50879C12.0375 9.50879 12.0687 9.48107 12.073 9.44429C12.0763 9.41634 12.0633 9.38899 12.0395 9.37398C12.0157 9.35897 11.9854 9.35897 11.9616 9.37398C11.9377 9.38899 11.9247 9.41634 11.928 9.44429" stroke="black" stroke-width="1.5" stroke-linecap="round" stroke-linejoin="round"/>
<path d="M11.928 16.5578C11.928 16.5875 11.9459 16.6142 11.9733 16.6254C12.0007 16.6366 12.0322 16.6302 12.053 16.6091C12.0738 16.588 12.0798 16.5564 12.0682 16.5292C12.0566 16.5019 12.0296 16.4844 12 16.4848C11.9805 16.4845 11.9618 16.4921 11.9481 16.5059C11.9343 16.5196 11.9267 16.5384 11.927 16.5578" stroke="black" stroke-width="1.5" stroke-linecap="round" stroke-linejoin="round"/>
</svg>
