<svg width="24" height="24" viewBox="0 0 24 24" fill="none" xmlns="http://www.w3.org/2000/svg">
<path d="M3.99667 13.0004C3.99667 17.4205 7.57988 21.0037 12 21.0037C16.4201 21.0037 20.0033 17.4205 20.0033 13.0004C20.0033 8.58028 16.4201 4.99707 12 4.99707H4.99708" stroke="black" stroke-width="1.5" stroke-linecap="round" stroke-linejoin="round"/>
<path d="M7.99833 7.99859L4.99708 4.99734L7.99833 1.99609" stroke="black" stroke-width="1.5" stroke-linecap="round" stroke-linejoin="round"/>
<path d="M12 12.9272C11.9597 12.9272 11.927 12.9599 11.927 13.0002C11.927 13.0405 11.9597 13.0732 12 13.0732C12.0403 13.0732 12.073 13.0405 12.073 13.0002C12.073 12.9599 12.0403 12.9272 12 12.9272" stroke="black" stroke-width="1.5" stroke-linecap="round" stroke-linejoin="round"/>
<path d="M15.5575 12.9272C15.5171 12.9272 15.4845 12.9599 15.4845 13.0002C15.4845 13.0405 15.5171 13.0732 15.5575 13.0732C15.5978 13.0732 15.6305 13.0405 15.6305 13.0002C15.6305 12.9599 15.5978 12.9272 15.5575 12.9272" stroke="black" stroke-width="1.5" stroke-linecap="round" stroke-linejoin="round"/>
<path d="M8.44352 12.9272C8.40318 12.9272 8.37049 12.9599 8.37049 13.0002C8.37049 13.0405 8.40318 13.0732 8.44352 13.0732C8.48385 13.0732 8.51655 13.0405 8.51655 13.0002C8.51655 12.9599 8.48385 12.9272 8.44352 12.9272" stroke="black" stroke-width="1.5" stroke-linecap="round" stroke-linejoin="round"/>
</svg>
