<svg width="24" height="24" viewBox="0 0 24 24" fill="none" xmlns="http://www.w3.org/2000/svg">
<rect x="8.99875" y="11.9399" width="6.0025" height="4.20175" rx="1.2" stroke="black" stroke-width="1.5" stroke-linecap="round" stroke-linejoin="round"/>
<path d="M10.1992 11.9402V10.7998C10.1992 10.3222 10.389 9.86416 10.7267 9.52645C11.0644 9.18874 11.5224 8.99902 12 8.99902V8.99902C12.4776 8.99902 12.9356 9.18874 13.2733 9.52645C13.611 9.86416 13.8007 10.3222 13.8007 10.7998V11.9402" stroke="black" stroke-width="1.5" stroke-linecap="round" stroke-linejoin="round"/>
<path d="M3.99667 13.0004C3.99667 17.4205 7.57989 21.0037 12 21.0037C16.4201 21.0037 20.0033 17.4205 20.0033 13.0004C20.0033 8.58028 16.4201 4.99707 12 4.99707H4.99709" stroke="black" stroke-width="1.5" stroke-linecap="round" stroke-linejoin="round"/>
<path d="M7.49811 7.49818L4.99707 4.99714L7.49811 2.49609" stroke="black" stroke-width="1.5" stroke-linecap="round" stroke-linejoin="round"/>
</svg>
