<svg width="24" height="24" viewBox="0 0 24 24" fill="none" xmlns="http://www.w3.org/2000/svg">
<path d="M12 4.99728H4.99708" stroke="black" stroke-width="1.5" stroke-linecap="round" stroke-linejoin="round"/>
<path d="M12 4.99707C16.4201 4.99707 20.0033 8.58028 20.0033 13.0004C20.0033 17.4205 16.4201 21.0037 12 21.0037C7.57988 21.0037 3.99667 17.4205 3.99667 13.0004" stroke="black" stroke-width="1.5" stroke-linecap="round" stroke-linejoin="round"/>
<path d="M7.99833 1.99609L4.99708 4.99734" stroke="black" stroke-width="1.5" stroke-linecap="round" stroke-linejoin="round"/>
<path d="M7.99833 7.99832L4.99708 4.99707" stroke="black" stroke-width="1.5" stroke-linecap="round" stroke-linejoin="round"/>
<path d="M12 12.8201C11.9007 12.8207 11.8206 12.9016 11.8209 13.0009C11.8213 13.1002 11.902 13.1805 12.0013 13.1803C12.1007 13.1801 12.1811 13.0995 12.1811 13.0002C12.1813 12.9522 12.1623 12.9061 12.1283 12.8722C12.0942 12.8384 12.048 12.8196 12 12.8201" stroke="black" stroke-width="1.5" stroke-linecap="round" stroke-linejoin="round"/>
<path d="M12 15.9432C11.9007 15.9437 11.8206 16.0246 11.8209 16.1239C11.8213 16.2232 11.902 16.3035 12.0013 16.3033C12.1007 16.3032 12.1811 16.2226 12.1811 16.1233C12.1813 16.0752 12.1623 16.0291 12.1283 15.9953C12.0942 15.9614 12.048 15.9426 12 15.9432" stroke="black" stroke-width="1.5" stroke-linecap="round" stroke-linejoin="round"/>
<path d="M14.6011 14.4412C14.5016 14.4412 14.421 14.5218 14.421 14.6213C14.421 14.7208 14.5016 14.8014 14.6011 14.8014C14.7005 14.8014 14.7812 14.7208 14.7812 14.6213C14.7812 14.5218 14.7005 14.4412 14.6011 14.4412" stroke="black" stroke-width="1.5" stroke-linecap="round" stroke-linejoin="round"/>
<path d="M9.39891 14.4412C9.29959 14.4418 9.21947 14.5227 9.21984 14.622C9.22021 14.7213 9.30092 14.8016 9.40025 14.8014C9.49957 14.8012 9.57999 14.7206 9.57999 14.6213C9.58026 14.5733 9.56124 14.5272 9.52719 14.4933C9.49315 14.4595 9.44693 14.4407 9.39891 14.4412" stroke="black" stroke-width="1.5" stroke-linecap="round" stroke-linejoin="round"/>
<path d="M9.39892 11.4393C9.2996 11.4398 9.21948 11.5207 9.21984 11.62C9.22021 11.7193 9.30093 11.7996 9.40025 11.7994C9.49957 11.7992 9.57999 11.7187 9.57999 11.6193C9.57999 11.5714 9.56088 11.5255 9.5269 11.4917C9.49291 11.4579 9.44685 11.439 9.39892 11.4393" stroke="black" stroke-width="1.5" stroke-linecap="round" stroke-linejoin="round"/>
<path d="M14.6011 11.4412C14.5016 11.4412 14.421 11.5218 14.421 11.6213C14.421 11.7208 14.5016 11.8014 14.6011 11.8014C14.7005 11.8014 14.7812 11.7208 14.7812 11.6213C14.7812 11.5218 14.7005 11.4412 14.6011 11.4412" stroke="black" stroke-width="1.5" stroke-linecap="round" stroke-linejoin="round"/>
<path d="M12 9.94026C11.9007 9.94081 11.8206 10.0217 11.8209 10.121C11.8213 10.2203 11.902 10.3006 12.0013 10.3004C12.1007 10.3002 12.1811 10.2197 12.1811 10.1203C12.1813 10.0723 12.1623 10.0262 12.1283 9.99235C12.0942 9.95849 12.048 9.93972 12 9.94026" stroke="black" stroke-width="1.5" stroke-linecap="round" stroke-linejoin="round"/>
<path d="M12 9.94025C11.9005 9.94025 11.8199 10.0209 11.8199 10.1203C11.8199 10.2198 11.9005 10.3004 12 10.3004C12.0995 10.3004 12.1801 10.2198 12.1801 10.1203C12.1801 10.0209 12.0995 9.94025 12 9.94025" stroke="black" stroke-width="1.5" stroke-linecap="round" stroke-linejoin="round"/>
</svg>
