<svg width="24" height="24" viewBox="0 0 24 24" fill="none" xmlns="http://www.w3.org/2000/svg">
<path fill-rule="evenodd" clip-rule="evenodd" d="M17.0021 21.0041H6.99791C4.78799 21.0041 2.99625 19.2123 2.99625 17.0024V6.99825C2.99625 4.78833 4.78799 2.99658 6.99791 2.99658H17.0021C19.212 2.99658 21.0037 4.78833 21.0037 6.99825V17.0024C21.0037 19.2123 19.212 21.0041 17.0021 21.0041Z" stroke="black" stroke-width="1.5" stroke-linecap="round" stroke-linejoin="round"/>
<path d="M14.0008 9.99958V8.33188C14.0008 7.87169 13.5527 7.49854 13.0004 7.49854H10.9996C10.4474 7.49854 9.99918 7.87169 9.99918 8.33188V9.99958" stroke="black" stroke-width="1.5" stroke-linecap="round" stroke-linejoin="round"/>
<path fill-rule="evenodd" clip-rule="evenodd" d="M15.5014 16.5022H8.49852C7.94629 16.5022 7.49811 16.054 7.49811 15.5018V10.9999C7.49811 10.4477 7.94629 9.99951 8.49852 9.99951H15.5014C16.0537 9.99951 16.5019 10.4477 16.5019 10.9999V15.5018C16.5019 16.054 16.0537 16.5022 15.5014 16.5022Z" stroke="black" stroke-width="1.5" stroke-linecap="round" stroke-linejoin="round"/>
</svg>
