<svg width="24" height="24" viewBox="0 0 24 24" fill="none" xmlns="http://www.w3.org/2000/svg">
<path d="M14.1884 9.49909V7.74836C14.1884 7.33397 13.8525 6.99805 13.4381 6.99805H10.5619C10.1475 6.99805 9.81158 7.33397 9.81158 7.74836V9.49909" stroke="black" stroke-width="1.5" stroke-linecap="round" stroke-linejoin="round"/>
<path d="M16.5019 9.49923H7.49813" stroke="black" stroke-width="1.5" stroke-linecap="round" stroke-linejoin="round"/>
<path d="M8.24844 9.49902L8.73675 15.8475C8.78684 16.499 9.33014 17.0021 9.98361 17.0021H14.0164C14.6699 17.0021 15.2132 16.499 15.2633 15.8475L15.7516 9.49902" stroke="black" stroke-width="1.5" stroke-linecap="round" stroke-linejoin="round"/>
<path d="M14.0008 21.0036H8.99875C5.68366 21.0036 2.99625 18.3162 2.99625 15.0011V8.99859C2.99625 5.6835 5.68366 2.99609 8.99875 2.99609H15.0013C16.5932 2.99609 18.12 3.6285 19.2457 4.75419C20.3713 5.87987 21.0038 7.40663 21.0038 8.99859V14.0007" stroke="black" stroke-width="1.5" stroke-linecap="round" stroke-linejoin="round"/>
<path d="M18.0025 18.0029L21.0038 21.0042" stroke="black" stroke-width="1.5" stroke-linecap="round" stroke-linejoin="round"/>
<path d="M18.0025 21.0042L21.0038 18.0029" stroke="black" stroke-width="1.5" stroke-linecap="round" stroke-linejoin="round"/>
</svg>
