<svg width="24" height="24" viewBox="0 0 24 24" fill="none" xmlns="http://www.w3.org/2000/svg">
<path d="M21.0037 3.49611L20.0246 4.14884" stroke="black" stroke-width="1.5" stroke-linecap="round" stroke-linejoin="round"/>
<path d="M22.0042 8.99923H21.0251" stroke="black" stroke-width="1.5" stroke-linecap="round" stroke-linejoin="round"/>
<path d="M2.99625 3.49611L3.97536 4.14884" stroke="black" stroke-width="1.5" stroke-linecap="round" stroke-linejoin="round"/>
<path d="M1.99583 8.99923H2.97494" stroke="black" stroke-width="1.5" stroke-linecap="round" stroke-linejoin="round"/>
<path d="M14.0008 20.0039C13.5285 20.6337 12.7872 21.0043 12 21.0043C11.2128 21.0043 10.4715 20.6337 9.99916 20.0039" stroke="black" stroke-width="1.5" stroke-linecap="round" stroke-linejoin="round"/>
<path d="M6.37266 13.0533V9.62441C6.37266 6.51652 8.8921 3.99707 12 3.99707V3.99707C15.1079 3.99707 17.6273 6.51652 17.6273 9.62441V13.0533H17.6231L18.9136 14.3448C19.4856 14.9172 19.6565 15.7778 19.3466 16.5253C19.0367 17.2728 18.3071 17.7601 17.4979 17.7599H6.50208C5.6929 17.7601 4.96329 17.2728 4.65342 16.5253C4.34354 15.7778 4.51442 14.9172 5.08637 14.3448L6.37691 13.0533" stroke="black" stroke-width="1.5" stroke-linecap="round" stroke-linejoin="round"/>
</svg>
