<svg width="24" height="24" viewBox="0 0 24 24" fill="none" xmlns="http://www.w3.org/2000/svg">
<path d="M13.7233 20.0039C13.3701 20.6225 12.7124 21.0043 12 21.0043C11.2876 21.0043 10.6299 20.6225 10.2767 20.0039" stroke="black" stroke-width="1.5" stroke-linecap="round" stroke-linejoin="round"/>
<path fill-rule="evenodd" clip-rule="evenodd" d="M6.49863 8.99859V8.49749C6.49863 5.45916 8.96167 2.99609 12 2.99609V2.99609C15.0383 2.99609 17.5014 5.45915 17.5014 8.49749V8.99857V8.99857C17.5014 11.5961 18.3439 14.1236 19.9024 16.2016V16.2016C20.0161 16.3531 20.0343 16.5559 19.9496 16.7254C19.8649 16.8949 19.6917 17.0019 19.5022 17.0019H4.49778C4.30832 17.0019 4.13512 16.8949 4.05039 16.7254C3.96565 16.5559 3.98394 16.3531 4.09762 16.2016V16.2016C5.65613 14.1236 6.49862 11.5961 6.49862 8.99857L6.49863 8.99859Z" stroke="black" stroke-width="1.5" stroke-linecap="round" stroke-linejoin="round"/>
</svg>
