<svg width="24" height="24" viewBox="0 0 24 24" fill="none" xmlns="http://www.w3.org/2000/svg">
<path d="M14.0008 20.0039C13.5285 20.6337 12.7872 21.0043 12 21.0043C11.2128 21.0043 10.4715 20.6337 9.99918 20.0039" stroke="black" stroke-width="1.5" stroke-linecap="round" stroke-linejoin="round"/>
<path d="M5.9975 12.4818V8.99859C5.9975 5.6835 8.68492 2.99609 12 2.99609V2.99609C13.592 2.99609 15.1187 3.6285 16.2444 4.75419C17.3701 5.87987 18.0025 7.40663 18.0025 8.99859V12.4818H17.998L19.3745 13.8594C19.9846 14.47 20.1669 15.3879 19.8364 16.1852C19.5058 16.9825 18.7276 17.5023 17.8644 17.5021H6.13556C5.27243 17.5023 4.49417 16.9825 4.16364 16.1852C3.8331 15.3879 4.01537 14.4699 4.62546 13.8594L6.00204 12.4818" stroke="black" stroke-width="1.5" stroke-linecap="round" stroke-linejoin="round"/>
</svg>
