<svg width="24" height="24" viewBox="0 0 24 24" fill="none" xmlns="http://www.w3.org/2000/svg">
<path d="M9.66464 18.1904V18.6706C9.66464 19.2895 9.91048 19.883 10.3481 20.3206C10.7857 20.7583 11.3792 21.0041 11.9981 21.0041H12C12.6191 21.0044 13.213 20.7586 13.6509 20.321C14.0889 19.8834 14.3351 19.2898 14.3353 18.6706V18.6706V18.1904" stroke="black" stroke-width="1.5" stroke-linecap="round" stroke-linejoin="round"/>
<path fill-rule="evenodd" clip-rule="evenodd" d="M17.6273 9.62441V13.3585L18.9066 14.6368C19.2882 15.0192 19.5027 15.5372 19.5031 16.0774V16.0774C19.5031 17.1408 18.641 18.0029 17.5776 18.0029H6.42235C5.35893 18.0029 4.49686 17.1408 4.49686 16.0774V16.0774C4.49728 15.5372 4.71178 15.0192 5.09336 14.6368L6.37264 13.3585V9.62441C6.37264 6.51652 8.89209 3.99707 12 3.99707V3.99707C15.1079 3.99707 17.6273 6.51652 17.6273 9.62441Z" stroke="black" stroke-width="1.5" stroke-linecap="round" stroke-linejoin="round"/>
<path d="M22.0255 2.99609L20.0246 4.32996" stroke="black" stroke-width="1.5" stroke-linecap="round" stroke-linejoin="round"/>
<path d="M23.0046 8.99923H21.0251" stroke="black" stroke-width="1.5" stroke-linecap="round" stroke-linejoin="round"/>
<path d="M1.97452 2.99609L3.97535 4.32996" stroke="black" stroke-width="1.5" stroke-linecap="round" stroke-linejoin="round"/>
<path d="M0.995422 8.99923H2.97495" stroke="black" stroke-width="1.5" stroke-linecap="round" stroke-linejoin="round"/>
<path d="M13.6965 10.792L11.577 12.9127L10.3035 11.6403" stroke="black" stroke-width="1.5" stroke-linecap="round" stroke-linejoin="round"/>
</svg>
