<svg width="24" height="24" viewBox="0 0 24 24" fill="none" xmlns="http://www.w3.org/2000/svg">
<path d="M9.569 19.01L9.688 19.355C10.1 20.552 11.404 21.188 12.601 20.776V20.776C13.798 20.364 14.434 19.06 14.022 17.863L13.903 17.518" stroke="black" stroke-width="1.5" stroke-linecap="round" stroke-linejoin="round"/>
<path d="M10.985 5.204L10.686 4.336C10.356 3.379 9.313 2.87 8.355 3.2V3.2C7.398 3.53 6.889 4.573 7.218 5.53L7.517 6.398" stroke="black" stroke-width="1.5" stroke-linecap="round" stroke-linejoin="round"/>
<path fill-rule="evenodd" clip-rule="evenodd" d="M5.554 11.766V11.766C4.739 9.40001 5.997 6.82101 8.363 6.00601L10.077 5.41601C12.443 4.60101 15.022 5.85901 15.837 8.22501V8.22501L16.747 10.869C16.92 11.371 17.285 11.783 17.761 12.015L18.576 12.412C19.053 12.645 19.418 13.057 19.59 13.558V13.558C19.93 14.545 19.405 15.621 18.418 15.961L8.283 19.451C7.296 19.791 6.22 19.266 5.88 18.279V18.279C5.707 17.777 5.741 17.228 5.973 16.751L6.37 15.936C6.603 15.459 6.636 14.91 6.463 14.408L5.554 11.766Z" stroke="black" stroke-width="1.5" stroke-linecap="round" stroke-linejoin="round"/>
</svg>
