<svg width="24" height="24" viewBox="0 0 24 24" fill="none" xmlns="http://www.w3.org/2000/svg">
<path d="M15.7206 15.7109V15.7109C16.0607 15.7107 16.3868 15.5753 16.6272 15.3346C16.8675 15.0939 17.0024 14.7676 17.0021 14.4274V14.4274C17.0015 14.0668 16.8576 13.7213 16.6019 13.467L15.7496 12.6146V10.0836C15.7496 8.01244 14.0712 6.33314 12 6.33203V6.33203C9.92886 6.33314 8.25045 8.01244 8.25045 10.0836V12.6146L7.39809 13.467C7.14245 13.7213 6.99848 14.0668 6.99792 14.4274V14.4274V14.4274C6.99819 14.7676 7.13357 15.0937 7.37428 15.334C7.61499 15.5743 7.94131 15.7092 8.28146 15.7089H15.7186" stroke="black" stroke-width="1.5" stroke-linecap="round" stroke-linejoin="round"/>
<path d="M10.9996 17.8361H13.0004" stroke="black" stroke-width="1.5" stroke-linecap="round" stroke-linejoin="round"/>
<path d="M12 21.0036C7.02736 21.0036 2.99625 16.9725 2.99625 11.9998C2.99625 7.02721 7.02736 2.99609 12 2.99609C16.9726 2.99609 21.0037 7.02721 21.0037 11.9998C21.0037 16.9725 16.9726 21.0036 12 21.0036" stroke="black" stroke-width="1.5" stroke-linecap="round" stroke-linejoin="round"/>
</svg>
