<svg width="24" height="24" viewBox="0 0 24 24" fill="none" xmlns="http://www.w3.org/2000/svg">
<path d="M21.0037 9.99901V16.0015C21.0037 18.7641 18.7642 21.0036 16.0017 21.0036H7.99833C5.23576 21.0036 2.99625 18.7641 2.99625 16.0015V7.99818C2.99625 5.2356 5.23576 2.99609 7.99833 2.99609H14.0008" stroke="black" stroke-width="1.5" stroke-linecap="round" stroke-linejoin="round"/>
<circle cx="19.5031" cy="4.49714" r="2.50104" stroke="black" stroke-width="1.5" stroke-linecap="round" stroke-linejoin="round"/>
<path d="M10.4433 15.7109V16.2812C10.4433 17.1403 11.1398 17.8368 11.999 17.8368H12C12.4128 17.8368 12.8088 17.6728 13.1007 17.3809C13.3926 17.089 13.5566 16.693 13.5566 16.2802V15.7109" stroke="black" stroke-width="1.5" stroke-linecap="round" stroke-linejoin="round"/>
<path fill-rule="evenodd" clip-rule="evenodd" d="M15.7185 15.7109C16.0587 15.7112 16.385 15.5763 16.6257 15.336C16.8664 15.0957 17.0018 14.7696 17.0021 14.4294V14.4274V14.4274C17.0015 14.0668 16.8575 13.7213 16.6019 13.467L15.7496 12.6146V10.0836C15.7496 8.01244 14.0711 6.33314 12 6.33203V6.33203C9.92806 6.33203 8.24843 8.01166 8.24843 10.0836V12.6146L7.39608 13.467C7.14044 13.7213 6.99646 14.0668 6.99591 14.4274H6.99791C6.99765 14.7676 7.13252 15.0939 7.37285 15.3346C7.61318 15.5753 7.9393 15.7107 8.27945 15.7109H15.7185V15.7109Z" stroke="black" stroke-width="1.5" stroke-linecap="round" stroke-linejoin="round"/>
</svg>
