<svg width="24" height="24" viewBox="0 0 24 24" fill="none" xmlns="http://www.w3.org/2000/svg">
<path d="M16 11C13.791 11 12 9.209 12 7C12 4.836 13.84 2.998 16.003 3C18.211 3.002 20 4.792 20 7C20 9.209 18.21 11 16 11" stroke="black" stroke-width="1.5"/>
<path d="M13.6 21H10.4" stroke="black" stroke-width="1.5" stroke-linecap="round" stroke-linejoin="round"/>
<path d="M12.133 6H12V6C9.239 6 7 8.239 7 11V11V11.032V13.504C7 13.828 6.817 14.123 6.528 14.268L6.025 14.519C5.397 14.834 5 15.476 5 16.178V16.178C5 17.202 5.83 18.032 6.854 18.032H17.146C18.17 18.032 19 17.202 19 16.178V16.178C19 15.476 18.603 14.834 17.975 14.52L17.472 14.269C17.183 14.123 17 13.828 17 13.504V10.871" stroke="black" stroke-width="1.5" stroke-linecap="round" stroke-linejoin="round"/>
<path d="M15.59 5.64001V6.97001" stroke="black" stroke-width="1.5" stroke-linecap="round" stroke-linejoin="round"/>
<path d="M15.59 6.97H16.92" stroke="black" stroke-width="1.5" stroke-linecap="round" stroke-linejoin="round"/>
</svg>
