<svg width="24" height="24" viewBox="0 0 24 24" fill="none" xmlns="http://www.w3.org/2000/svg">
<circle cx="12" cy="11.9998" r="9.00375" stroke="black" stroke-width="1.5" stroke-linecap="round" stroke-linejoin="round"/>
<path fill-rule="evenodd" clip-rule="evenodd" d="M15.6679 9.66588C15.6679 8.69311 15.2814 7.76018 14.5936 7.07232C13.9057 6.38447 12.9728 5.99805 12 5.99805V5.99805C9.97431 5.99805 8.33217 7.6402 8.33217 9.66588C8.33216 11.3977 7.77046 13.0828 6.73139 14.4682V14.4682C6.6556 14.5693 6.64341 14.7045 6.6999 14.8174C6.75639 14.9304 6.87187 15.0018 6.99819 15.0018H17.0018C17.1281 15.0018 17.2436 14.9304 17.3001 14.8174C17.3566 14.7045 17.3444 14.5693 17.2686 14.4682V14.4682C16.2295 13.0828 15.6678 11.3977 15.6679 9.66588V9.66588Z" stroke="black" stroke-width="1.5" stroke-linecap="round" stroke-linejoin="round"/>
<path d="M13.2505 17.2521C12.4502 17.5856 11.5498 17.5856 10.7495 17.2521" stroke="black" stroke-width="1.5" stroke-linecap="round" stroke-linejoin="round"/>
</svg>
