<svg width="24" height="24" viewBox="0 0 24 24" fill="none" xmlns="http://www.w3.org/2000/svg">
<path d="M15.7226 15.7109V15.7109C16.4301 15.7093 17.0026 15.1349 17.0021 14.4274V14.4274C17.0015 14.0668 16.8576 13.7213 16.6019 13.467L15.7496 12.6146V10.0836C15.7496 8.01244 14.0711 6.33314 12 6.33203V6.33203C11.005 6.33256 10.051 6.72832 9.34783 7.43225C8.64465 8.13618 8.24991 9.09062 8.25044 10.0856V12.6166L7.39808 13.469C7.14245 13.7233 6.99847 14.0688 6.99792 14.4294V14.4294C6.99818 14.7696 7.13356 15.0957 7.37427 15.336C7.61498 15.5763 7.9413 15.7112 8.28145 15.7109H15.7185" stroke="black" stroke-width="1.5" stroke-linecap="round" stroke-linejoin="round"/>
<path d="M10.9996 17.8361H13.0004" stroke="black" stroke-width="1.5" stroke-linecap="round" stroke-linejoin="round"/>
<path fill-rule="evenodd" clip-rule="evenodd" d="M7.11897 20.1242L3.87462 16.8799C3.3121 16.317 2.99625 15.5538 2.99625 14.758V9.24169C2.99625 8.44578 3.31273 7.68252 3.87562 7.11981L7.11997 3.87546C7.68268 3.31258 8.44594 2.99609 9.24185 2.99609H14.7581C15.5541 2.99609 16.3173 3.31258 16.88 3.87546L20.1254 7.12081C20.6879 7.68369 21.0037 8.44692 21.0037 9.2427V14.758C21.0037 15.5538 20.6879 16.317 20.1254 16.8799L16.881 20.1252C16.3179 20.688 15.5543 21.004 14.7581 21.0036H9.24185C8.44559 21.0036 7.68192 20.6874 7.11897 20.1242V20.1242Z" stroke="black" stroke-width="1.5" stroke-linecap="round" stroke-linejoin="round"/>
</svg>
