<svg width="24" height="24" viewBox="0 0 24 24" fill="none" xmlns="http://www.w3.org/2000/svg">
<path d="M10.4434 15.7109V16.2812C10.4434 16.6939 10.6074 17.0898 10.8993 17.3815C11.1913 17.6733 11.5872 17.8371 12 17.8368V17.8368C12.4128 17.8368 12.8088 17.6728 13.1007 17.3809C13.3926 17.089 13.5566 16.693 13.5566 16.2802V15.7109" stroke="black" stroke-width="1.5" stroke-linecap="round" stroke-linejoin="round"/>
<path fill-rule="evenodd" clip-rule="evenodd" d="M15.7186 15.7109C16.059 15.7112 16.3857 15.5761 16.6264 15.3353C16.8672 15.0945 17.0024 14.7679 17.0021 14.4274V14.4274C17.0015 14.0668 16.8576 13.7213 16.6019 13.467L15.7496 12.6146V10.0836C15.7496 8.01244 14.0712 6.33314 12 6.33203V6.33203C9.92807 6.33203 8.24844 8.01166 8.24844 10.0836V12.6146L7.39608 13.467C7.14045 13.7213 6.99647 14.0668 6.99592 14.4274H6.99792C6.99765 14.7679 7.1328 15.0945 7.37356 15.3353C7.61433 15.5761 7.94096 15.7112 8.28145 15.7109H15.7186Z" stroke="black" stroke-width="1.5" stroke-linecap="round" stroke-linejoin="round"/>
<rect x="2.99625" y="2.99609" width="18.0075" height="18.0075" rx="5" stroke="black" stroke-width="1.5" stroke-linecap="round" stroke-linejoin="round"/>
</svg>
