<svg width="24" height="24" viewBox="0 0 24 24" fill="none" xmlns="http://www.w3.org/2000/svg">
<path fill-rule="evenodd" clip-rule="evenodd" d="M7.66 15.3C7.384 15.3 7.16 15.076 7.16 14.8V13.357C7.16 13.195 7.238 13.044 7.37 12.95L8.7 12V9.408V9.408C8.7 7.802 10.002 6.5 11.608 6.5H12.393C13.999 6.5 15.301 7.802 15.301 9.408V9.408V12L16.632 12.95C16.763 13.044 16.841 13.195 16.841 13.356V14.8C16.841 15.076 16.617 15.3 16.341 15.3H7.66Z" stroke="black" stroke-width="1.5" stroke-linecap="round" stroke-linejoin="round"/>
<path fill-rule="evenodd" clip-rule="evenodd" d="M10.9 17.5H13.1H10.9H10.9Z" stroke="black" stroke-width="1.5" stroke-linecap="round" stroke-linejoin="round"/>
<path fill-rule="evenodd" clip-rule="evenodd" d="M18 21H6C4.343 21 3 19.657 3 18V6C3 4.343 4.343 3 6 3H18C19.657 3 21 4.343 21 6V18C21 19.657 19.657 21 18 21Z" stroke="black" stroke-width="1.5" stroke-linecap="round" stroke-linejoin="round"/>
</svg>
