<svg width="24" height="24" viewBox="0 0 24 24" fill="none" xmlns="http://www.w3.org/2000/svg">
<path d="M9.70704 18.3467V18.7119C9.70737 19.9779 10.7339 21.004 12 21.0038V21.0038C12.6081 21.0039 13.1914 20.7623 13.6214 20.3323C14.0514 19.9023 14.293 19.319 14.293 18.7109V18.3457" stroke="black" stroke-width="1.5" stroke-linecap="round" stroke-linejoin="round"/>
<path d="M13.8338 5.74824V4.82986C13.8338 4.3435 13.6406 3.87704 13.2967 3.53313C12.9528 3.18922 12.4864 2.99604 12 2.99609V2.99609C11.5136 2.99604 11.0472 3.18922 10.7033 3.53313C10.3594 3.87704 10.1662 4.3435 10.1662 4.82986V5.74824" stroke="black" stroke-width="1.5" stroke-linecap="round" stroke-linejoin="round"/>
<path fill-rule="evenodd" clip-rule="evenodd" d="M6.56073 10.1872V10.1872C6.5607 8.98498 7.03826 7.832 7.88835 6.98191C8.73844 6.13182 9.89142 5.6543 11.0936 5.6543H12.9074C14.1096 5.6543 15.2626 6.13182 16.1127 6.98191C16.9627 7.832 17.4403 8.98498 17.4403 10.1872V10.1872V12.9854C17.4404 13.5159 17.6513 14.0248 18.0265 14.3999L18.6678 15.0412C19.043 15.4164 19.2538 15.9252 19.254 16.4558V16.4558C19.254 16.9573 19.0549 17.4382 18.7003 17.7929C18.3457 18.1475 17.8647 18.3466 17.3632 18.3466H6.63777C6.13628 18.3466 5.65532 18.1475 5.30071 17.7929C4.94611 17.4382 4.74698 16.9573 4.74698 16.4558V16.4558C4.74716 15.9252 4.95803 15.4164 5.33322 15.0412L5.97449 14.3999C6.34969 14.0248 6.56055 13.5159 6.56073 12.9854V10.1872Z" stroke="black" stroke-width="1.5" stroke-linecap="round" stroke-linejoin="round"/>
<path d="M11.9999 11.7454V9.1709" stroke="black" stroke-width="1.5" stroke-linecap="round" stroke-linejoin="round"/>
<path d="M12.1249 14.7043C12.1249 14.7734 12.0689 14.8294 11.9999 14.8294C11.9308 14.8294 11.8748 14.7734 11.8748 14.7043C11.8748 14.6352 11.9308 14.5793 11.9999 14.5793" stroke="black" stroke-width="1.5" stroke-linecap="round" stroke-linejoin="round"/>
<path d="M11.9999 14.5793C12.0689 14.5793 12.1249 14.6353 12.1249 14.7043" stroke="black" stroke-width="1.5" stroke-linecap="round" stroke-linejoin="round"/>
</svg>
