<svg width="24" height="24" viewBox="0 0 24 24" fill="none" xmlns="http://www.w3.org/2000/svg">
<path d="M10.9996 17.8361H13.0004" stroke="black" stroke-width="1.5" stroke-linecap="round" stroke-linejoin="round"/>
<path d="M12.6053 6.39757C11.5173 6.19609 10.3963 6.49423 9.55221 7.20959C8.70809 7.92496 8.23014 8.98181 8.25044 10.0881V10.9995" stroke="black" stroke-width="1.5" stroke-linecap="round" stroke-linejoin="round"/>
<path d="M15.0442 7.92188C15.5017 8.5501 15.7492 9.30666 15.7515 10.0838V12.6148L16.6039 13.4672C16.8595 13.7215 17.0035 14.067 17.0041 14.4276V14.4276C17.0043 14.7677 16.8695 15.0941 16.6291 15.3348C16.3888 15.5755 16.0627 15.7109 15.7225 15.7111H7.255" stroke="black" stroke-width="1.5" stroke-linecap="round" stroke-linejoin="round"/>
<path d="M4.02368 18.9418L18.9489 4.0166" stroke="black" stroke-width="1.5" stroke-linecap="round" stroke-linejoin="round"/>
<rect x="2.99625" y="2.99609" width="18.0075" height="18.0075" rx="5" stroke="black" stroke-width="1.5" stroke-linecap="round" stroke-linejoin="round"/>
</svg>
