<svg width="24" height="24" viewBox="0 0 24 24" fill="none" xmlns="http://www.w3.org/2000/svg">
<path d="M10.9996 18.0022H13.0004" stroke="black" stroke-width="1.5" stroke-linecap="round" stroke-linejoin="round"/>
<path d="M15.7206 15.877V15.877C16.0607 15.8767 16.3868 15.7413 16.6271 15.5006C16.8675 15.2599 17.0023 14.9336 17.0021 14.5934V14.5934C17.0015 14.2328 16.8576 13.8873 16.6019 13.633L15.7496 12.7807V10.2496C15.7496 8.17846 14.0711 6.49915 12 6.49805V6.49805C9.92885 6.49915 8.25044 8.17846 8.25044 10.2496V12.7807L7.39808 13.633C7.14245 13.8873 6.99847 14.2328 6.99792 14.5934V14.5934C6.99818 14.9336 7.13356 15.2597 7.37427 15.5C7.61498 15.7403 7.9413 15.8752 8.28145 15.875H15.7185" stroke="black" stroke-width="1.5" stroke-linecap="round" stroke-linejoin="round"/>
<path d="M21.0038 9.99901V16.0015C21.0038 18.7641 18.7642 21.0036 16.0017 21.0036H7.99834C5.23576 21.0036 2.99625 18.7641 2.99625 16.0015V7.99818C2.99625 5.2356 5.23576 2.99609 7.99834 2.99609H14.0008" stroke="black" stroke-width="1.5" stroke-linecap="round" stroke-linejoin="round"/>
<circle cx="19.5031" cy="4.49714" r="2.50104" stroke="black" stroke-width="1.5" stroke-linecap="round" stroke-linejoin="round"/>
</svg>
