<svg width="24" height="24" viewBox="0 0 24 24" fill="none" xmlns="http://www.w3.org/2000/svg">
<path fill-rule="evenodd" clip-rule="evenodd" d="M21 12V12C21 16.971 16.971 21 12 21V21C7.029 21 3 16.971 3 12V12C3 7.029 7.029 3 12 3V3C16.971 3 21 7.029 21 12Z" stroke="black" stroke-width="1.5" stroke-linecap="round" stroke-linejoin="round"/>
<path fill-rule="evenodd" clip-rule="evenodd" d="M11.608 6.5H12.393C13.999 6.5 15.301 7.802 15.301 9.408V9.408V12L16.632 12.95C16.763 13.044 16.841 13.195 16.841 13.357V14.8C16.841 15.076 16.617 15.3 16.341 15.3H7.66C7.384 15.3 7.16 15.076 7.16 14.8V13.357C7.16 13.196 7.238 13.044 7.369 12.95L8.7 12V9.408V9.408C8.7 7.802 10.002 6.5 11.608 6.5Z" stroke="black" stroke-width="1.5" stroke-linecap="round" stroke-linejoin="round"/>
<path d="M10.9 17.5H13.1" stroke="black" stroke-width="1.5" stroke-linecap="round" stroke-linejoin="round"/>
</svg>
