<svg width="24" height="24" viewBox="0 0 24 24" fill="none" xmlns="http://www.w3.org/2000/svg">
<path d="M9.50897 18.0029V18.5151C9.50897 19.8898 10.6234 21.0042 11.998 21.0042H12C12.6604 21.0044 13.2939 20.7424 13.761 20.2756C14.2282 19.8088 14.4908 19.1755 14.491 18.5151V18.0029" stroke="black" stroke-width="1.5" stroke-linecap="round" stroke-linejoin="round"/>
<path fill-rule="evenodd" clip-rule="evenodd" d="M17.9495 18.0023C19.0838 18.0023 20.0033 17.0828 20.0033 15.9485V15.9485C20.0029 15.3723 19.7741 14.8197 19.3671 14.4118L18.0025 13.0483V8.99859C18.0025 5.6835 15.3151 2.99609 12 2.99609V2.99609C8.68492 2.99609 5.99751 5.6835 5.99751 8.99859V13.0483L4.63294 14.4118C4.22592 14.8197 3.99713 15.3723 3.99667 15.9485V15.9485C3.99667 16.4932 4.21306 17.0156 4.59823 17.4008C4.98341 17.786 5.50581 18.0023 6.05053 18.0023H17.9495Z" stroke="black" stroke-width="1.5" stroke-linecap="round" stroke-linejoin="round"/>
<path d="M13.8341 10.208L11.5427 12.5006L10.1659 11.1251" stroke="black" stroke-width="1.5" stroke-linecap="round" stroke-linejoin="round"/>
</svg>
