<svg width="24" height="24" viewBox="0 0 24 24" fill="none" xmlns="http://www.w3.org/2000/svg">
<path fill-rule="evenodd" clip-rule="evenodd" d="M17.5023 17.3609C18.5497 17.3609 19.3998 16.5135 19.4031 15.4661V15.4661V15.4661C19.4024 14.9331 19.1897 14.4224 18.8118 14.0465L17.5523 12.786V9.04141C17.552 7.56957 16.9668 6.15819 15.9254 5.1181C14.884 4.07801 13.4718 3.49451 12 3.4961V3.4961C8.93842 3.49776 6.45724 5.97983 6.45669 9.04141V12.783L5.19717 14.0435C4.81904 14.4192 4.60596 14.93 4.60492 15.4631V15.4631V15.4631C4.60823 16.5105 5.45827 17.3579 6.50571 17.3579L17.5023 17.3609Z" stroke="black" stroke-width="1.5" stroke-linecap="round" stroke-linejoin="round"/>
<path d="M10.5204 20.5041H13.4786" stroke="black" stroke-width="1.5" stroke-linecap="round" stroke-linejoin="round"/>
</svg>
