<svg width="24" height="24" viewBox="0 0 24 24" fill="none" xmlns="http://www.w3.org/2000/svg">
<path fill-rule="evenodd" clip-rule="evenodd" d="M15.6678 9.91588C15.6678 8.94311 15.2814 8.01018 14.5936 7.32232C13.9057 6.63447 12.9728 6.24805 12 6.24805V6.24805C9.9743 6.24805 8.33216 7.8902 8.33216 9.91588C8.33215 11.6477 7.77045 13.3328 6.73137 14.7182V14.7182C6.65558 14.8193 6.64339 14.9545 6.69988 15.0674C6.75638 15.1804 6.87185 15.2518 6.99817 15.2518H17.0018C17.1281 15.2518 17.2436 15.1804 17.3001 15.0674C17.3566 14.9545 17.3444 14.8193 17.2686 14.7182V14.7182C16.2295 13.3328 15.6678 11.6477 15.6678 9.91588V9.91588Z" stroke="black" stroke-width="1.5" stroke-linecap="round" stroke-linejoin="round"/>
<path d="M13.2505 17.5021C12.4502 17.8356 11.5498 17.8356 10.7495 17.5021" stroke="black" stroke-width="1.5" stroke-linecap="round" stroke-linejoin="round"/>
<rect x="2.99625" y="2.99609" width="18.0075" height="18.0075" rx="5" stroke="black" stroke-width="1.5" stroke-linecap="round" stroke-linejoin="round"/>
</svg>
