<svg width="24" height="24" viewBox="0 0 24 24" fill="none" xmlns="http://www.w3.org/2000/svg">
<path fill-rule="evenodd" clip-rule="evenodd" d="M20.5285 7.99825H3.47144C3.21266 7.99852 2.96441 7.89584 2.78143 7.71285C2.59845 7.52987 2.49577 7.28162 2.49603 7.02284V4.97199C2.49577 4.71321 2.59845 4.46496 2.78143 4.28198C2.96441 4.099 3.21266 3.99632 3.47144 3.99658H20.5295C20.7881 3.99658 21.0361 4.09938 21.2189 4.28233C21.4017 4.46529 21.5042 4.71339 21.504 4.97199V7.02384C21.504 7.28245 21.4012 7.53044 21.2182 7.71321C21.0352 7.89597 20.7871 7.99852 20.5285 7.99825Z" stroke="black" stroke-width="1.5" stroke-linecap="round" stroke-linejoin="round"/>
<path fill-rule="evenodd" clip-rule="evenodd" d="M17.1622 20.0035H6.83786C5.79725 20.0035 4.9304 19.2058 4.84403 18.1688L3.99667 7.99854H20.0033L19.156 18.1688C19.0696 19.2058 18.2028 20.0035 17.1622 20.0035Z" stroke="black" stroke-width="1.5" stroke-linecap="round" stroke-linejoin="round"/>
<path d="M13.5567 12.5562L11.6118 14.501L10.4434 13.3335" stroke="black" stroke-width="1.5" stroke-linecap="round" stroke-linejoin="round"/>
</svg>
