<svg width="24" height="24" viewBox="0 0 24 24" fill="none" xmlns="http://www.w3.org/2000/svg">
<path fill-rule="evenodd" clip-rule="evenodd" d="M20.5286 7.99874H3.47145C3.21302 7.999 2.96507 7.8966 2.78215 7.71405C2.59922 7.5315 2.49631 7.28376 2.49604 7.02533V4.97248C2.49578 4.71405 2.59818 4.4661 2.78073 4.28317C2.96328 4.10025 3.21102 3.99734 3.46945 3.99707H20.5296C21.0677 3.99707 21.504 4.43333 21.504 4.97148V7.02433C21.504 7.28276 21.4013 7.5306 21.2186 7.71334C21.0358 7.89608 20.788 7.99874 20.5296 7.99874H20.5286Z" stroke="black" stroke-width="1.5" stroke-linecap="round" stroke-linejoin="round"/>
<path fill-rule="evenodd" clip-rule="evenodd" d="M17.1621 20.003H6.83785C5.79724 20.003 4.93039 19.2053 4.84402 18.1683L3.99667 7.99805H20.0033L19.156 18.1683C19.0696 19.2053 18.2028 20.003 17.1621 20.003Z" stroke="black" stroke-width="1.5" stroke-linecap="round" stroke-linejoin="round"/>
<path d="M12 12V16.3509" stroke="black" stroke-width="1.5" stroke-linecap="round" stroke-linejoin="round"/>
<path d="M14.0008 14.0008L12 12L9.99917 14.0008" stroke="black" stroke-width="1.5" stroke-linecap="round" stroke-linejoin="round"/>
</svg>
