<svg width="24" height="24" viewBox="0 0 24 24" fill="none" xmlns="http://www.w3.org/2000/svg">
<path fill-rule="evenodd" clip-rule="evenodd" d="M20.5285 7.99874H3.47144C3.21301 7.999 2.96506 7.8966 2.78214 7.71405C2.59921 7.5315 2.4963 7.28376 2.49603 7.02533V4.97248C2.49577 4.71405 2.59817 4.4661 2.78072 4.28317C2.96327 4.10025 3.21101 3.99734 3.46944 3.99707H20.5295C21.0677 3.99707 21.504 4.43333 21.504 4.97148V7.02433C21.504 7.28276 21.4013 7.5306 21.2186 7.71334C21.0358 7.89608 20.788 7.99874 20.5295 7.99874H20.5285Z" stroke="black" stroke-width="1.5" stroke-linecap="round" stroke-linejoin="round"/>
<path fill-rule="evenodd" clip-rule="evenodd" d="M17.1622 20.003H6.83786C5.79725 20.003 4.9304 19.2053 4.84403 18.1683L3.99667 7.99805H20.0033L19.156 18.1683C19.0696 19.2053 18.2028 20.003 17.1622 20.003Z" stroke="black" stroke-width="1.5" stroke-linecap="round" stroke-linejoin="round"/>
<path d="M12 16.3509V12" stroke="black" stroke-width="1.5" stroke-linecap="round" stroke-linejoin="round"/>
<path d="M9.99918 14.3496L12 16.3504L14.0008 14.3496" stroke="black" stroke-width="1.5" stroke-linecap="round" stroke-linejoin="round"/>
</svg>
