<svg width="24" height="24" viewBox="0 0 24 24" fill="none" xmlns="http://www.w3.org/2000/svg">
<path d="M9.92114 12.0783C10.5803 12.736 10.7781 13.7261 10.4223 14.5865C10.0664 15.447 9.22709 16.0082 8.29596 16.0082C7.36483 16.0082 6.52549 15.447 6.16965 14.5865C5.81381 13.7261 6.01163 12.736 6.67078 12.0783C7.56894 11.1822 9.02298 11.1822 9.92114 12.0783" stroke="black" stroke-width="1.5"/>
<path d="M14.0789 12.0782C14.7365 11.419 15.7266 11.2212 16.5871 11.5771C17.4475 11.9329 18.0087 12.7722 18.0087 13.7034C18.0087 14.6345 17.4475 15.4738 16.5871 15.8297C15.7266 16.1855 14.7365 15.9877 14.0789 15.3285C13.1827 14.4304 13.1827 12.9763 14.0789 12.0782" stroke="black" stroke-width="1.5"/>
<path d="M10.5934 9.19943H13.4066" stroke="black" stroke-width="1.5" stroke-linecap="round" stroke-linejoin="round"/>
<path d="M10.5944 13.4006H13.4056" stroke="black" stroke-width="1.5" stroke-linecap="round" stroke-linejoin="round"/>
<path d="M10.5934 13.667V9.11115C10.5934 8.16525 9.82661 7.39844 8.88071 7.39844V7.39844C8.10012 7.39826 7.41828 7.9262 7.22302 8.68197L6.06754 13.1398" stroke="black" stroke-width="1.5"/>
<path d="M17.9325 13.1398L16.777 8.68197C16.5817 7.9262 15.8999 7.39826 15.1193 7.39844V7.39844C14.1734 7.39844 13.4066 8.16525 13.4066 9.11115V13.667" stroke="black" stroke-width="1.5"/>
<circle cx="12" cy="11.9998" r="9.00375" stroke="black" stroke-width="1.5" stroke-linecap="round" stroke-linejoin="round"/>
</svg>
