<svg width="24" height="24" viewBox="0 0 24 24" fill="none" xmlns="http://www.w3.org/2000/svg">
<path d="M10.5934 14.6672V8.50668C10.5937 8.10665 10.435 7.72293 10.1522 7.43997C9.86943 7.15702 9.48581 6.99805 9.08578 6.99805V6.99805C8.39859 6.99822 7.79823 7.46247 7.62518 8.12752L6.06753 14.14" stroke="black" stroke-width="1.5" stroke-linecap="round" stroke-linejoin="round"/>
<path d="M9.92113 13.0783C10.5803 13.736 10.7781 14.7261 10.4223 15.5865C10.0664 16.447 9.22708 17.0082 8.29596 17.0082C7.36483 17.0082 6.52549 16.447 6.16965 15.5865C5.81381 14.7261 6.01163 13.736 6.67078 13.0783C7.56894 12.1822 9.02298 12.1822 9.92113 13.0783" stroke="black" stroke-width="1.5"/>
<path d="M17.9325 14.14L16.3748 8.12752C16.2018 7.46247 15.6014 6.99822 14.9142 6.99805V6.99805C14.5142 6.99805 14.1306 7.15702 13.8478 7.43997C13.565 7.72293 13.4063 8.10665 13.4066 8.50668V14.6672" stroke="black" stroke-width="1.5" stroke-linecap="round" stroke-linejoin="round"/>
<path d="M14.0789 13.0782C14.7365 12.419 15.7266 12.2212 16.5871 12.5771C17.4475 12.9329 18.0087 13.7722 18.0087 14.7034C18.0087 15.6345 17.4475 16.4738 16.5871 16.8297C15.7266 17.1855 14.7365 16.9877 14.0789 16.3285C13.1827 15.4304 13.1827 13.9763 14.0789 13.0782" stroke="black" stroke-width="1.5"/>
<path d="M10.5944 9.49923H13.4056" stroke="black" stroke-width="1.5" stroke-linecap="round" stroke-linejoin="round"/>
<path d="M10.5944 13.5012H13.4056" stroke="black" stroke-width="1.5" stroke-linecap="round" stroke-linejoin="round"/>
<rect x="2.99625" y="2.99609" width="18.0075" height="18.0075" rx="4" stroke="black" stroke-width="1.5" stroke-linecap="round" stroke-linejoin="round"/>
</svg>
