<svg width="24" height="24" viewBox="0 0 24 24" fill="none" xmlns="http://www.w3.org/2000/svg">
<path d="M17.0021 7.99874H6.99792" stroke="black" stroke-width="1.5" stroke-linecap="round" stroke-linejoin="round"/>
<path d="M16.2368 7.99854V13.825C16.2368 14.4102 15.7626 14.8844 15.1773 14.8844H8.82268C8.23743 14.8844 7.76324 14.4102 7.76324 13.825V7.99854" stroke="black" stroke-width="1.5" stroke-linecap="round" stroke-linejoin="round"/>
<path fill-rule="evenodd" clip-rule="evenodd" d="M21.0037 12.0003V12.0003C21.0037 16.9734 16.9731 21.0041 12 21.0041V21.0041C7.02693 21.0041 2.99625 16.9734 2.99625 12.0003V12.0003C2.99625 7.02726 7.02693 2.99658 12 2.99658V2.99658C16.9731 2.99658 21.0037 7.02726 21.0037 12.0003Z" stroke="black" stroke-width="1.5" stroke-linecap="round" stroke-linejoin="round"/>
<path d="M13.4346 14.8833L14.456 17.0022" stroke="black" stroke-width="1.5" stroke-linecap="round" stroke-linejoin="round"/>
<path d="M10.5654 14.8833L9.54398 17.0022" stroke="black" stroke-width="1.5" stroke-linecap="round" stroke-linejoin="round"/>
</svg>
