<svg width="24" height="24" viewBox="0 0 24 24" fill="none" xmlns="http://www.w3.org/2000/svg">
<path fill-rule="evenodd" clip-rule="evenodd" d="M16.0017 21.0036H7.99833C5.23576 21.0036 2.99625 18.7641 2.99625 16.0015V7.99818C2.99625 5.2356 5.23576 2.99609 7.99833 2.99609H16.0017C18.7642 2.99609 21.0037 5.2356 21.0037 7.99818V16.0015C21.0037 18.7641 18.7642 21.0036 16.0017 21.0036Z" stroke="black" stroke-width="1.5" stroke-linecap="round" stroke-linejoin="round"/>
<path d="M17.5933 11.9502C17.5657 11.9502 17.5433 11.9726 17.5433 12.0002C17.5433 12.0278 17.5657 12.0502 17.5933 12.0502C17.621 12.0502 17.6433 12.0278 17.6433 12.0002C17.6428 11.9728 17.6207 11.9507 17.5933 11.9502" stroke="black" stroke-width="1.5" stroke-linecap="round" stroke-linejoin="round"/>
<path d="M6.40667 12.0502C6.43429 12.0502 6.45669 12.0278 6.45669 12.0002C6.45669 11.9726 6.43429 11.9502 6.40667 11.9502C6.37904 11.9502 6.35665 11.9726 6.35665 12.0002C6.35718 12.0276 6.37927 12.0497 6.40667 12.0502" stroke="black" stroke-width="1.5" stroke-linecap="round" stroke-linejoin="round"/>
<path d="M8.99875 9.31701L15.0012 14.5012L11.6669 17.0022V6.99805L15.0012 9.49909L8.99875 14.6832" stroke="black" stroke-width="1.5" stroke-linecap="round" stroke-linejoin="round"/>
</svg>
