<svg width="24" height="24" viewBox="0 0 24 24" fill="none" xmlns="http://www.w3.org/2000/svg">
<path d="M17.5023 12C17.4747 12 17.4523 12.0224 17.4523 12.05C17.4523 12.0776 17.4747 12.1 17.5023 12.1C17.5299 12.1 17.5523 12.0776 17.5523 12.05C17.5518 12.0226 17.5297 12.0005 17.5023 12" stroke="black" stroke-width="1.5" stroke-linecap="round" stroke-linejoin="round"/>
<path d="M15.0012 12C14.9736 12 14.9512 12.0224 14.9512 12.05C14.9512 12.0776 14.9736 12.1 15.0012 12.1C15.0289 12.1 15.0513 12.0776 15.0513 12.05C15.0507 12.0226 15.0286 12.0005 15.0012 12" stroke="black" stroke-width="1.5" stroke-linecap="round" stroke-linejoin="round"/>
<path fill-rule="evenodd" clip-rule="evenodd" d="M16.0017 21.0036H7.99833C5.23576 21.0036 2.99625 18.7641 2.99625 16.0015V7.99818C2.99625 5.2356 5.23576 2.99609 7.99833 2.99609H16.0017C18.7642 2.99609 21.0037 5.2356 21.0037 7.99818V16.0015C21.0037 18.7641 18.7642 21.0036 16.0017 21.0036Z" stroke="black" stroke-width="1.5" stroke-linecap="round" stroke-linejoin="round"/>
<path d="M6.99791 9.31701L13.0004 14.5012L9.66602 17.0022V6.99805L13.0004 9.49909L6.99791 14.6832" stroke="black" stroke-width="1.5" stroke-linecap="round" stroke-linejoin="round"/>
</svg>
