<svg width="24" height="24" viewBox="0 0 24 24" fill="none" xmlns="http://www.w3.org/2000/svg">
<path d="M8.49854 9.08202L14.9182 14.6263L11.4168 17.2524V6.74805L14.9182 9.37414L8.49854 14.9184" stroke="black" stroke-width="1.5" stroke-linecap="round" stroke-linejoin="round"/>
<path fill-rule="evenodd" clip-rule="evenodd" d="M16.0017 21.0041H7.99833C5.23576 21.0041 2.99625 18.7646 2.99625 16.002V7.99867C2.99625 5.23609 5.23576 2.99658 7.99833 2.99658H16.0017C18.7642 2.99658 21.0037 5.23609 21.0037 7.99867V16.002C21.0037 18.7646 18.7642 21.0041 16.0017 21.0041Z" stroke="black" stroke-width="1.5" stroke-linecap="round" stroke-linejoin="round"/>
<path d="M17.5933 6.99218C17.5657 6.99218 17.5433 7.01457 17.5433 7.0422C17.5433 7.06983 17.5657 7.09222 17.5933 7.09222C17.621 7.09222 17.6433 7.06983 17.6433 7.0422C17.6428 7.0148 17.6207 6.99271 17.5933 6.99218" stroke="black" stroke-width="1.5" stroke-linecap="round" stroke-linejoin="round"/>
</svg>
