<svg width="24" height="24" viewBox="0 0 24 24" fill="none" xmlns="http://www.w3.org/2000/svg">
<path d="M17.899 11.75C17.761 11.75 17.649 11.862 17.65 12C17.65 12.138 17.762 12.25 17.9 12.25C18.038 12.25 18.15 12.138 18.15 12C18.15 11.862 18.038 11.75 17.899 11.75" stroke="black" stroke-width="1.5" stroke-linecap="round" stroke-linejoin="round"/>
<path d="M2 17L13 7.5L7 3V21L13 16.5L2 7" stroke="black" stroke-width="1.5" stroke-linecap="round" stroke-linejoin="round"/>
<path d="M21.749 11.75C21.611 11.75 21.499 11.862 21.5 12C21.5 12.138 21.612 12.25 21.75 12.25C21.888 12.25 22 12.138 22 12C22 11.862 21.888 11.75 21.749 11.75" stroke="black" stroke-width="1.5" stroke-linecap="round" stroke-linejoin="round"/>
<path d="M14.049 11.75C13.911 11.75 13.799 11.862 13.8 12C13.8 12.138 13.912 12.25 14.05 12.25C14.188 12.25 14.3 12.138 14.3 12C14.3 11.862 14.188 11.75 14.049 11.75" stroke="black" stroke-width="1.5" stroke-linecap="round" stroke-linejoin="round"/>
</svg>
