<svg width="24" height="24" viewBox="0 0 24 24" fill="none" xmlns="http://www.w3.org/2000/svg">
<path fill-rule="evenodd" clip-rule="evenodd" d="M17.0021 21.0041H6.99792C4.788 21.0041 2.99625 19.2123 2.99625 17.0024V6.99825C2.99625 4.78833 4.788 2.99658 6.99792 2.99658H17.0021C19.212 2.99658 21.0037 4.78833 21.0037 6.99825V17.0024C21.0037 19.2123 19.212 21.0041 17.0021 21.0041Z" stroke="black" stroke-width="1.5" stroke-linecap="round" stroke-linejoin="round"/>
<path d="M9.74906 12.0003H12.7503C13.5787 12.0003 14.2509 12.6726 14.2509 13.5009V13.5009C14.2509 14.3292 13.5787 15.0015 12.7503 15.0015H10.3493C10.0182 15.0015 9.74906 14.7324 9.74906 14.4013V9.59927C9.74906 9.26814 10.0182 8.99902 10.3493 8.99902H12.2501C13.0784 8.99902 13.7507 9.6713 13.7507 10.4996V10.4996C13.7507 11.328 13.0784 12.0003 12.2501 12.0003" stroke="black" stroke-width="1.5" stroke-linecap="round" stroke-linejoin="round"/>
</svg>
