<svg width="24" height="24" viewBox="0 0 24 24" fill="none" xmlns="http://www.w3.org/2000/svg">
<path d="M12 8.05099C10.742 6.79299 8.783 6.66399 7.381 7.66299C7.089 7.87199 6.923 8.21699 6.923 8.57599V15.884C6.923 16.321 7.388 16.574 7.774 16.369C9.132 15.645 10.856 15.855 12 17V8.05099C13.258 6.79299 15.217 6.66399 16.619 7.66299C16.911 7.87099 17.077 8.21599 17.077 8.57499V15.883C17.077 16.32 16.612 16.573 16.226 16.368C14.868 15.645 13.144 15.855 12 17" stroke="black" stroke-width="1.5" stroke-linecap="round" stroke-linejoin="round"/>
<path fill-rule="evenodd" clip-rule="evenodd" d="M17 21H7C4.791 21 3 19.209 3 17V7C3 4.791 4.791 3 7 3H17C19.209 3 21 4.791 21 7V17C21 19.209 19.209 21 17 21Z" stroke="black" stroke-width="1.5" stroke-linecap="round" stroke-linejoin="round"/>
</svg>
