<svg width="24" height="24" viewBox="0 0 24 24" fill="none" xmlns="http://www.w3.org/2000/svg">
<path d="M11.998 16.9465C11.6573 16.2652 10.9611 15.8349 10.1994 15.8349H7.82957C7.60846 15.8349 7.39641 15.7471 7.24006 15.5907C7.08372 15.4344 6.99588 15.2223 6.99588 15.0012V8.99872C6.99588 8.77761 7.08372 8.56556 7.24006 8.40921C7.39641 8.25287 7.60846 8.16504 7.82957 8.16504H9.77482C11.0334 8.24393 12.0101 9.29394 11.998 10.5549M11.998 16.9465V10.5549M11.998 16.9465C12.3386 16.2652 13.0349 15.8349 13.7965 15.8349H16.1664C16.3875 15.8349 16.5995 15.7471 16.7559 15.5907C16.9122 15.4344 17 15.2223 17 15.0012V8.99872C17 8.77761 16.9122 8.56556 16.7559 8.40921C16.5995 8.25287 16.3875 8.16504 16.1664 8.16504H14.2211C12.9625 8.24393 11.9858 9.29394 11.998 10.5549" stroke="black" stroke-width="1.5" stroke-linecap="round" stroke-linejoin="round"/>
<rect x="2.9942" y="2.99609" width="18.0075" height="18.0075" rx="4" stroke="black" stroke-width="1.5" stroke-linecap="round" stroke-linejoin="round"/>
</svg>
