<svg width="24" height="24" viewBox="0 0 24 24" fill="none" xmlns="http://www.w3.org/2000/svg">
<path fill-rule="evenodd" clip-rule="evenodd" d="M12 16.8663C9.97115 14.8364 6.91288 14.4633 4.50488 15.7468C3.82159 16.1109 2.99625 15.6618 2.99625 14.8874V5.79165C2.99625 5.15539 3.29037 4.54313 3.80859 4.17398C6.29462 2.40124 9.76907 2.63034 12 4.86126C14.2309 2.63034 17.7054 2.40124 20.1914 4.17398C20.7096 4.54313 21.0037 5.15539 21.0037 5.79165V14.8874C21.0037 15.6618 20.1784 16.1119 19.4951 15.7468C17.0871 14.4633 14.0288 14.8364 12 16.8663Z" stroke="black" stroke-width="1.5" stroke-linecap="round" stroke-linejoin="round"/>
<path d="M4.50488 19.8845C6.91288 18.601 9.97116 18.9741 12 21.004C14.0288 18.9741 17.0871 18.601 19.4951 19.8845" stroke="black" stroke-width="1.5" stroke-linecap="round" stroke-linejoin="round"/>
<path d="M12 16.8663V4.86133" stroke="black" stroke-width="1.5" stroke-linecap="round" stroke-linejoin="round"/>
</svg>
