<svg width="24" height="24" viewBox="0 0 24 24" fill="none" xmlns="http://www.w3.org/2000/svg">
<path fill-rule="evenodd" clip-rule="evenodd" d="M12 21.0038V21.0038C11.3865 19.776 10.1311 19.0012 8.75865 19.0031H4.49627C4.09844 19.0031 3.7169 18.8451 3.43559 18.5638C3.15428 18.2825 2.99625 17.9009 2.99625 17.5031V17.5031V5.4971C2.99625 5.09926 3.15428 4.71772 3.43559 4.43641C3.7169 4.1551 4.09844 3.99707 4.49627 3.99707H7.99873C9.05994 3.99707 10.0777 4.41863 10.8281 5.16901C11.5784 5.9194 12 6.93713 12 7.99834V7.99834V21.0038Z" stroke="black" stroke-width="1.5" stroke-linecap="round" stroke-linejoin="round"/>
<path fill-rule="evenodd" clip-rule="evenodd" d="M12 21.0038C12.6135 19.776 13.8689 19.0012 15.2413 19.0031H19.5073C20.3344 19.0011 21.0037 18.3301 21.0037 17.5031V5.4971C21.0037 5.09926 20.8457 4.71772 20.5644 4.43641C20.2831 4.1551 19.9016 3.99707 19.5037 3.99707H16.0013C13.7914 3.99707 12 5.7885 12 7.99834V21.0038Z" stroke="black" stroke-width="1.5" stroke-linecap="round" stroke-linejoin="round"/>
</svg>
