<svg width="24" height="24" viewBox="0 0 24 24" fill="none" xmlns="http://www.w3.org/2000/svg">
<path d="M15.8086 7.19121C15.9536 7.33627 15.9536 7.57137 15.8086 7.71643C15.6635 7.86149 15.4284 7.86149 15.2833 7.71643C15.1383 7.57137 15.1383 7.33627 15.2833 7.19121C15.4294 7.04615 15.6635 7.04615 15.8086 7.19121" stroke="black" stroke-width="1.5" stroke-linecap="round" stroke-linejoin="round"/>
<path d="M18.0765 12.2845L19.3861 10.9749C19.7812 10.5787 20.0033 10.0445 20.0033 9.48628V5.09946C20.0033 3.93797 19.0619 2.99658 17.8984 2.99658H13.5116C12.9544 2.99658 12.4192 3.21867 12.026 3.61284L3.6125 12.0263C2.79115 12.8477 2.79115 14.1792 3.6125 15.0006L7.99932 19.3874C8.82067 20.2088 10.1522 20.2088 10.9736 19.3874L12.2841 18.0769" stroke="black" stroke-width="1.5" stroke-linecap="round" stroke-linejoin="round"/>
<path d="M18.2526 15.627L16.0637 17.8159L14.7511 16.5023" stroke="black" stroke-width="1.5" stroke-linecap="round" stroke-linejoin="round"/>
<path d="M16.5019 21.0042C14.0158 21.0042 12 18.9884 12 16.5024C12 14.0674 14.0709 11.9985 16.5049 12.0005C18.9899 12.0025 21.0037 14.0173 21.0037 16.5024C21.0037 18.9884 18.9889 21.0042 16.5019 21.0042" stroke="black" stroke-width="1.5" stroke-linecap="round" stroke-linejoin="round"/>
</svg>
