<svg width="24" height="24" viewBox="0 0 24 24" fill="none" xmlns="http://www.w3.org/2000/svg">
<path d="M17.7314 6.26906C17.8064 6.34409 17.8064 6.46514 17.7314 6.54017C17.6564 6.61521 17.5353 6.61521 17.4603 6.54017C17.3852 6.46514 17.3852 6.34409 17.4603 6.26906C17.5353 6.19503 17.6564 6.19503 17.7314 6.26906" stroke="black" stroke-width="1.5" stroke-linecap="round" stroke-linejoin="round"/>
<path fill-rule="evenodd" clip-rule="evenodd" d="M16.1427 2.99658H18.9779C20.0964 2.99658 21.0038 3.90396 21.0038 5.02243V7.85761C21.0038 8.39483 20.7907 8.91004 20.4105 9.2902L14.292 15.4088C13.5006 16.2001 12.2181 16.2001 11.4268 15.4088L8.59158 12.5736C7.80025 11.7822 7.80025 10.4997 8.59158 9.70838L14.7101 3.58983C15.0903 3.20967 15.6055 2.99658 16.1427 2.99658Z" stroke="black" stroke-width="1.5" stroke-linecap="round" stroke-linejoin="round"/>
<path d="M20.0033 14.0012V18.17C20.0033 19.7356 18.7348 21.0042 17.1692 21.0042H5.83043C4.26478 21.0042 2.99625 19.7356 2.99625 18.17V6.83125C2.99625 5.2656 4.26478 3.99707 5.83043 3.99707H9.99917" stroke="black" stroke-width="1.5" stroke-linecap="round" stroke-linejoin="round"/>
</svg>
