<svg width="24" height="24" viewBox="0 0 24 24" fill="none" xmlns="http://www.w3.org/2000/svg">
<rect x="21.0038" y="21.0039" width="18.0075" height="18.0075" rx="5" transform="rotate(180 21.0038 21.0039)" stroke="black" stroke-width="1.5" stroke-linecap="round" stroke-linejoin="round"/>
<path d="M19.5311 4.46875L4.46185 19.539" stroke="black" stroke-width="1.5" stroke-linecap="round" stroke-linejoin="round"/>
<path d="M9.613 9.53989C9.62247 9.54928 9.62779 9.56207 9.62779 9.5754C9.62779 9.58874 9.62247 9.60153 9.613 9.61092C9.59355 9.62998 9.56242 9.62998 9.54297 9.61092C9.5335 9.60153 9.52817 9.58874 9.52817 9.5754C9.52817 9.56207 9.5335 9.54928 9.54297 9.53989C9.56242 9.52082 9.59355 9.52082 9.613 9.53989" stroke="black" stroke-width="1.5" stroke-linecap="round" stroke-linejoin="round"/>
<path d="M16.0737 11.2275L17.1441 12.298C17.3737 12.5273 17.5026 12.8384 17.5026 13.1628C17.5026 13.4873 17.3737 13.7984 17.1441 14.0277L14.0308 17.144C13.8014 17.3736 13.4901 17.5026 13.1655 17.5026C12.8409 17.5026 12.5296 17.3736 12.3001 17.144L11.2287 16.0726" stroke="black" stroke-width="1.5" stroke-linecap="round" stroke-linejoin="round"/>
<path d="M12.7733 7.92571L11.6999 6.85326C11.4703 6.62365 11.1582 6.49572 10.8335 6.49808L9.09178 6.51412C8.77405 6.51622 8.46996 6.64346 8.24542 6.86827L6.85284 8.26285C6.62561 8.48992 6.49786 8.79796 6.4977 9.1192V10.8379C6.49753 11.1592 6.62533 11.4674 6.85284 11.6943L7.92829 12.7707" stroke="black" stroke-width="1.5" stroke-linecap="round" stroke-linejoin="round"/>
</svg>
