<svg width="24" height="24" viewBox="0 0 24 24" fill="none" xmlns="http://www.w3.org/2000/svg">
<path d="M17.0021 10.959V13.5301L13.5296 17.0025" stroke="black" stroke-width="1.5" stroke-linecap="round" stroke-linejoin="round"/>
<path fill-rule="evenodd" clip-rule="evenodd" d="M16.0017 2.99609H7.99833C5.23576 2.99609 2.99625 5.2356 2.99625 7.99818V16.0015C2.99625 18.7641 5.23576 21.0036 7.99833 21.0036H16.0017C18.7642 21.0036 21.0037 18.7641 21.0037 16.0015V7.99818C21.0037 5.2356 18.7642 2.99609 16.0017 2.99609Z" stroke="black" stroke-width="1.5" stroke-linecap="round" stroke-linejoin="round"/>
<path fill-rule="evenodd" clip-rule="evenodd" d="M10.8469 14.8612L14.1521 11.5508V7.99805H10.6019L7.2911 11.3073C7.10338 11.4949 6.99791 11.7494 6.99791 12.0149C6.99791 12.2803 7.10338 12.5348 7.2911 12.7224L9.43176 14.8619C9.61948 15.0495 9.87408 15.1549 10.1395 15.1547C10.4049 15.1546 10.6594 15.049 10.8469 14.8612Z" stroke="black" stroke-width="1.5" stroke-linecap="round" stroke-linejoin="round"/>
</svg>
