<svg width="24" height="24" viewBox="0 0 24 24" fill="none" xmlns="http://www.w3.org/2000/svg">
<path d="M16.0017 21.004H18.0025C19.66 21.004 21.0037 19.6603 21.0037 18.0028V16.002" stroke="black" stroke-width="1.5" stroke-linecap="round" stroke-linejoin="round"/>
<path d="M16.0017 2.99609H18.0025C19.66 2.99609 21.0037 4.3398 21.0037 5.99734V7.99818" stroke="black" stroke-width="1.5" stroke-linecap="round" stroke-linejoin="round"/>
<path d="M2.99625 16.002V18.0028C2.99625 19.6603 4.33995 21.004 5.9975 21.004H7.99833" stroke="black" stroke-width="1.5" stroke-linecap="round" stroke-linejoin="round"/>
<path d="M2.99625 7.99818V5.99734C2.99625 4.3398 4.33995 2.99609 5.9975 2.99609H7.99833" stroke="black" stroke-width="1.5" stroke-linecap="round" stroke-linejoin="round"/>
<path fill-rule="evenodd" clip-rule="evenodd" d="M8.49854 9.49867V15.7508C8.49854 15.8446 8.55096 15.9305 8.63435 15.9733C8.71774 16.0161 8.81809 16.0088 8.8943 15.9542L11.8548 13.8331C11.9418 13.7708 12.0588 13.7708 12.1459 13.833L15.106 15.9477C15.1822 16.0022 15.2825 16.0095 15.3658 15.9666C15.4491 15.9238 15.5015 15.838 15.5015 15.7443V9.49867C15.5015 8.6699 14.8296 7.99805 14.0008 7.99805H9.99916C9.17039 7.99805 8.49854 8.6699 8.49854 9.49867Z" stroke="black" stroke-width="1.5" stroke-linecap="round" stroke-linejoin="round"/>
</svg>
