<svg width="24" height="24" viewBox="0 0 24 24" fill="none" xmlns="http://www.w3.org/2000/svg">
<path fill-rule="evenodd" clip-rule="evenodd" d="M4.32 9.59419V20.1504C4.32 20.879 5.09472 21.3446 5.73504 20.9961C7.29888 20.1427 9.6 18.888 9.6 18.888C9.6 18.888 11.9011 20.1436 13.465 20.9961C14.1053 21.3446 14.88 20.879 14.88 20.1504V9.59419C14.88 8.53339 14.0208 7.67419 12.96 7.67419H6.24C5.18016 7.67419 4.32 8.53339 4.32 9.59419Z" stroke="black" stroke-width="1.5" stroke-linecap="round" stroke-linejoin="round"/>
<path d="M14.88 15.3542L18.2602 17.1984C18.8995 17.5478 19.68 17.0851 19.68 16.3555V5.75423C19.68 4.69343 18.8208 3.83423 17.76 3.83423H11.52C10.4592 3.83423 9.6 4.69343 9.6 5.75423V7.67423" stroke="black" stroke-width="1.5" stroke-linecap="round" stroke-linejoin="round"/>
<path d="M8.2464 12.0768L10.9536 14.7936" stroke="black" stroke-width="1.5" stroke-linecap="round" stroke-linejoin="round"/>
<path d="M8.2464 14.7936L10.9536 12.0768" stroke="black" stroke-width="1.5" stroke-linecap="round" stroke-linejoin="round"/>
</svg>
