<svg width="24" height="24" viewBox="0 0 24 24" fill="none" xmlns="http://www.w3.org/2000/svg">
<path d="M12 7.99805V20.6116" stroke="black" stroke-width="1.5" stroke-linecap="round" stroke-linejoin="round"/>
<path d="M5.9975 8.49826H8.99875" stroke="black" stroke-width="1.5" stroke-linecap="round" stroke-linejoin="round"/>
<path d="M5.9975 12.0002H8.99875" stroke="black" stroke-width="1.5" stroke-linecap="round" stroke-linejoin="round"/>
<path d="M5.9975 15.5012H8.99875" stroke="black" stroke-width="1.5" stroke-linecap="round" stroke-linejoin="round"/>
<path d="M15.0013 8.49826H18.0025" stroke="black" stroke-width="1.5" stroke-linecap="round" stroke-linejoin="round"/>
<path d="M15.0013 12.0002H18.0025" stroke="black" stroke-width="1.5" stroke-linecap="round" stroke-linejoin="round"/>
<path d="M15.0013 15.5012H18.0025" stroke="black" stroke-width="1.5" stroke-linecap="round" stroke-linejoin="round"/>
<path fill-rule="evenodd" clip-rule="evenodd" d="M12 21.0042C11.3865 19.7764 10.1311 19.0016 8.75865 19.0035H4.49627C4.09844 19.0035 3.7169 18.8455 3.43559 18.5642C3.15428 18.2829 2.99625 17.9013 2.99625 17.5035V5.4971C2.99625 5.09926 3.15428 4.71772 3.43559 4.43641C3.7169 4.1551 4.09844 3.99707 4.49627 3.99707H7.99873C9.05993 3.99707 10.0777 4.41863 10.8281 5.16901C11.5784 5.9194 12 6.93713 12 7.99834C12 5.7885 13.7914 3.99707 16.0013 3.99707H19.5037C19.9016 3.99707 20.2831 4.1551 20.5644 4.43641C20.8457 4.71772 21.0037 5.09926 21.0037 5.4971V17.5035C21.0037 18.3305 20.3344 19.0015 19.5073 19.0035H15.2413C13.8689 19.0016 12.6135 19.7764 12 21.0042Z" stroke="black" stroke-width="1.5" stroke-linecap="round" stroke-linejoin="round"/>
</svg>
