<svg width="24" height="24" viewBox="0 0 24 24" fill="none" xmlns="http://www.w3.org/2000/svg">
<path d="M15.0072 4.7622C11.2545 3.05513 6.81799 4.27756 4.46922 7.6658C2.12045 11.054 2.53233 15.6375 5.44754 18.5527C8.36275 21.4679 12.9462 21.8797 16.3344 19.531C19.7226 17.1822 20.9451 12.7457 19.238 8.99296" stroke="black" stroke-width="1.5" stroke-linecap="round" stroke-linejoin="round"/>
<path fill-rule="evenodd" clip-rule="evenodd" d="M8.77664 15.4182V10.5552C8.77664 9.91079 9.29873 9.38825 9.94313 9.3877H13.0564C13.7008 9.38825 14.2229 9.91079 14.2229 10.5552V15.4182C14.223 15.491 14.1824 15.5578 14.1176 15.5911C14.0529 15.6244 13.975 15.6187 13.9158 15.5763L11.6148 13.9306C11.5465 13.8835 11.4561 13.8835 11.3877 13.9306L9.08677 15.5763C9.02666 15.616 8.94985 15.6203 8.88567 15.5876C8.82149 15.5549 8.77985 15.4902 8.77664 15.4182Z" stroke="black" stroke-width="1.5" stroke-linecap="round" stroke-linejoin="round"/>
<path d="M19.0029 8.99845C16.7929 8.99845 15.0013 7.20684 15.0013 4.99678C15.0013 2.78672 16.7929 0.995117 19.0029 0.995117C21.213 0.995117 23.0046 2.78672 23.0046 4.99678C23.0046 6.05809 22.583 7.07593 21.8325 7.82639C21.0821 8.57685 20.0642 8.99845 19.0029 8.99845" stroke="black" stroke-width="1.5" stroke-linecap="round" stroke-linejoin="round"/>
<path d="M20.0033 3.99707L18.0025 5.9979" stroke="black" stroke-width="1.5" stroke-linecap="round" stroke-linejoin="round"/>
<path d="M18.0025 3.99707L20.0033 5.9979" stroke="black" stroke-width="1.5" stroke-linecap="round" stroke-linejoin="round"/>
</svg>
