<svg width="24" height="24" viewBox="0 0 24 24" fill="none" xmlns="http://www.w3.org/2000/svg">
<path d="M8.31306 7.75893C8.46497 7.91085 8.46497 8.15715 8.31306 8.30906C8.16114 8.46098 7.91484 8.46098 7.76293 8.30906C7.61102 8.15715 7.61102 7.91085 7.76293 7.75893C7.91484 7.60702 8.16114 7.60702 8.31306 7.75893" stroke="black" stroke-width="1.5" stroke-linecap="round" stroke-linejoin="round"/>
<path fill-rule="evenodd" clip-rule="evenodd" d="M7.244 3.02503L10.093 3.00003C10.624 2.99503 11.135 3.20503 11.511 3.58003L20.415 12.488C21.196 13.269 21.196 14.536 20.415 15.317L15.321 20.414C14.54 21.196 13.272 21.196 12.491 20.414L3.58 11.5C3.209 11.129 3 10.625 3 10.099V7.28703C3 6.76103 3.209 6.25703 3.58 5.88603L5.86 3.60503C6.228 3.23703 6.725 3.02903 7.244 3.02503Z" stroke="black" stroke-width="1.5" stroke-linecap="round" stroke-linejoin="round"/>
</svg>
