<svg width="24" height="24" viewBox="0 0 24 24" fill="none" xmlns="http://www.w3.org/2000/svg">
<path d="M12 16.5024C11.6594 15.8211 10.9631 15.3908 10.2014 15.3908H7.83159C7.37117 15.3908 6.99792 15.0175 6.99792 14.5571V9.3327C6.99792 8.87228 7.37117 8.49902 7.83159 8.49902H9.77685C11.0047 8.49902 12 9.49436 12 10.7222M12 16.5024V10.7222M12 16.5024C12.3406 15.8211 13.0369 15.3908 13.7986 15.3908H16.1684C16.6288 15.3908 17.0021 15.0175 17.0021 14.5571V9.3327C17.0021 8.87228 16.6288 8.49902 16.1684 8.49902H14.2231C12.9953 8.49902 12 9.49436 12 10.7222" stroke="black" stroke-width="1.5" stroke-linecap="round" stroke-linejoin="round"/>
<circle cx="12" cy="11.9998" r="9.00375" stroke="black" stroke-width="1.5" stroke-linecap="round" stroke-linejoin="round"/>
</svg>
