<svg width="24" height="24" viewBox="0 0 24 24" fill="none" xmlns="http://www.w3.org/2000/svg">
<path d="M8.31146 7.75719C8.42279 7.86848 8.45612 8.03588 8.3959 8.18132C8.33567 8.32676 8.19376 8.4216 8.03634 8.4216C7.87892 8.4216 7.73701 8.32676 7.67678 8.18132C7.61656 8.03588 7.64989 7.86848 7.76123 7.75719C7.91319 7.6053 8.15949 7.6053 8.31146 7.75719" stroke="black" stroke-width="1.5" stroke-linecap="round" stroke-linejoin="round"/>
<path d="M17.4663 9.53516L20.4185 12.4884C20.7939 12.8636 21.0048 13.3727 21.0048 13.9035C21.0048 14.4343 20.7939 14.9433 20.4185 15.3186L15.3224 20.4207C14.9471 20.7964 14.4378 21.0075 13.9068 21.0075C13.3757 21.0075 12.8665 20.7964 12.4912 20.4207L9.53796 17.4635" stroke="black" stroke-width="1.5" stroke-linecap="round" stroke-linejoin="round"/>
<path d="M19.5031 4.49707L4.49687 19.5033" stroke="black" stroke-width="1.5" stroke-linecap="round" stroke-linejoin="round"/>
<path d="M14.466 6.5327L11.5108 3.57647C11.1348 3.20083 10.6237 2.9918 10.0922 2.99616L7.24201 3.02124C6.72221 3.02539 6.22489 3.2338 5.85744 3.60148L3.57649 5.88343C3.20494 6.25525 2.99625 6.75938 2.99625 7.28502V10.0992C2.9965 10.6245 3.20519 11.1282 3.57649 11.4998L6.53772 14.461" stroke="black" stroke-width="1.5" stroke-linecap="round" stroke-linejoin="round"/>
</svg>
