<svg width="24" height="24" viewBox="0 0 24 24" fill="none" xmlns="http://www.w3.org/2000/svg">
<path d="M18.0765 12.2841L19.3861 10.9746C19.781 10.5797 20.003 10.0443 20.0033 9.4859V5.09897C20.0032 3.93741 19.0614 2.99609 17.8998 2.99609H13.5115C12.9542 2.99609 12.4197 3.2179 12.0259 3.61235L3.61227 12.026C3.21784 12.4204 2.99624 12.9553 2.99624 13.5131C2.99624 14.0709 3.21779 14.6058 3.6122 15.0002L3.61227 15.0003L7.99915 19.3872C8.39355 19.7816 8.92848 20.0032 9.48626 20.0032C10.044 20.0032 10.579 19.7817 10.9734 19.3873L10.9735 19.3872L12.284 18.0766" stroke="black" stroke-width="1.5" stroke-linecap="round" stroke-linejoin="round"/>
<path d="M16.5019 12C18.9882 12 21.0037 14.0156 21.0037 16.5019C21.0037 18.9882 18.9882 21.0037 16.5019 21.0037C14.0156 21.0037 12 18.9882 12 16.5019C12 14.0156 14.0156 12 16.5019 12" stroke="black" stroke-width="1.5" stroke-linecap="round" stroke-linejoin="round"/>
<path d="M15.7961 7.45333C15.7961 7.59146 15.6841 7.70344 15.546 7.70344C15.4078 7.70344 15.2959 7.59146 15.2959 7.45333C15.2959 7.3152 15.4078 7.20323 15.546 7.20323" stroke="black" stroke-width="1.5" stroke-linecap="round" stroke-linejoin="round"/>
<path d="M15.546 7.20328C15.6841 7.20328 15.7961 7.31526 15.7961 7.45339" stroke="black" stroke-width="1.5" stroke-linecap="round" stroke-linejoin="round"/>
<path d="M18.0961 16.8029H16.2006" stroke="black" stroke-width="1.5" stroke-linecap="round" stroke-linejoin="round"/>
<path d="M16.2006 16.8037V14.9082" stroke="black" stroke-width="1.5" stroke-linecap="round" stroke-linejoin="round"/>
</svg>
