<svg width="24" height="24" viewBox="0 0 24 24" fill="none" xmlns="http://www.w3.org/2000/svg">
<path d="M15.0265 4.75354C11.2828 3.05055 6.85685 4.27004 4.51371 7.65015C2.17057 11.0303 2.58146 15.6027 5.48967 18.5109C8.39788 21.4191 12.9703 21.83 16.3504 19.4868C19.7305 17.1437 20.95 12.7178 19.247 8.9741" stroke="black" stroke-width="1.5" stroke-linecap="round" stroke-linejoin="round"/>
<path fill-rule="evenodd" clip-rule="evenodd" d="M8.81081 15.3842V10.5328C8.81081 9.89 9.33166 9.36872 9.97451 9.36816H13.0803C13.7232 9.36872 14.244 9.89 14.244 10.5328V15.3842C14.2441 15.4568 14.2036 15.5234 14.139 15.5567C14.0744 15.5899 13.9967 15.5842 13.9376 15.5419L11.6422 13.9002C11.574 13.8532 11.4838 13.8532 11.4156 13.9002L9.1202 15.5419C9.06023 15.5815 8.98361 15.5858 8.91958 15.5531C8.85555 15.5205 8.81401 15.456 8.81081 15.3842V15.3842Z" stroke="black" stroke-width="1.5" stroke-linecap="round" stroke-linejoin="round"/>
<path d="M19.0125 0.995117C20.6272 0.995117 22.0828 1.96775 22.7007 3.45948C23.3186 4.95121 22.9771 6.66827 21.8353 7.80999C20.6936 8.95171 18.9766 9.29326 17.4848 8.67537C15.9931 8.05747 15.0205 6.60182 15.0205 4.98718C15.0205 2.78243 16.8078 0.995117 19.0125 0.995117" stroke="black" stroke-width="1.5" stroke-linecap="round" stroke-linejoin="round"/>
<path d="M20.1464 4.98751C20.1464 5.01514 20.124 5.03753 20.0964 5.03753C20.0687 5.03753 20.0464 5.01514 20.0464 4.98751C20.0464 4.95989 20.0687 4.93749 20.0964 4.93749" stroke="black" stroke-width="1.5" stroke-linecap="round" stroke-linejoin="round"/>
<path d="M20.0964 4.93711C20.124 4.93711 20.1464 4.95951 20.1464 4.98713" stroke="black" stroke-width="1.5" stroke-linecap="round" stroke-linejoin="round"/>
<path d="M17.9785 4.98751C17.9785 5.01514 17.9561 5.03753 17.9285 5.03753C17.9008 5.03753 17.8784 5.01514 17.8784 4.98751C17.8784 4.95989 17.9008 4.93749 17.9285 4.93749" stroke="black" stroke-width="1.5" stroke-linecap="round" stroke-linejoin="round"/>
<path d="M17.9285 4.93711C17.9561 4.93711 17.9785 4.95951 17.9785 4.98713" stroke="black" stroke-width="1.5" stroke-linecap="round" stroke-linejoin="round"/>
</svg>
