<svg width="24" height="24" viewBox="0 0 24 24" fill="none" xmlns="http://www.w3.org/2000/svg">
<path d="M16.5 10.959V13.1148C16.5 13.38 16.3946 13.6343 16.2071 13.8219L13.029 17" stroke="black" stroke-width="1.5" stroke-linecap="round" stroke-linejoin="round"/>
<circle cx="12" cy="12" r="9" stroke="black" stroke-width="1.5" stroke-linecap="round" stroke-linejoin="round"/>
<path fill-rule="evenodd" clip-rule="evenodd" d="M13.2077 11.8418L10.3475 14.7065C10.16 14.8943 9.90564 14.9999 9.64033 15C9.37502 15.0001 9.12053 14.8949 8.93288 14.7073L6.79309 12.5687C6.60544 12.3811 6.50001 12.1267 6.50001 11.8614C6.50001 11.5961 6.60544 11.3416 6.79309 11.1541L9.65581 8.29272C9.84333 8.10529 10.0976 8 10.3627 8H12.5C13.0523 8 13.5 8.44772 13.5 9V11.1353C13.5 11.4002 13.3949 11.6543 13.2077 11.8418Z" stroke="black" stroke-width="1.5" stroke-linecap="round" stroke-linejoin="round"/>
</svg>
