<svg width="24" height="24" viewBox="0 0 24 24" fill="none" xmlns="http://www.w3.org/2000/svg">
<path d="M14.807 7.19301C14.952 7.33801 14.952 7.57301 14.807 7.71801C14.662 7.86301 14.427 7.86301 14.282 7.71801C14.137 7.57301 14.137 7.33801 14.282 7.19301C14.428 7.04801 14.662 7.04801 14.807 7.19301" stroke="black" stroke-width="1.5" stroke-linecap="round" stroke-linejoin="round"/>
<path d="M15.5 21C13.015 21 11 18.985 11 16.5C11 14.066 13.07 11.998 15.503 12C17.987 12.002 20 14.016 20 16.5C20 18.985 17.986 21 15.5 21" stroke="black" stroke-width="1.5" stroke-linecap="round" stroke-linejoin="round"/>
<path d="M15.5 14.813V18.188" stroke="black" stroke-width="1.5" stroke-linecap="round" stroke-linejoin="round"/>
<path d="M17.188 16.5H13.813" stroke="black" stroke-width="1.5" stroke-linecap="round" stroke-linejoin="round"/>
<path d="M17.074 12.284L18.383 10.975C18.778 10.579 19 10.045 19 9.487V5.102C19 3.941 18.059 3 16.896 3H12.511C11.954 3 11.419 3.222 11.026 3.616L2.616 12.026C1.795 12.847 1.795 14.178 2.616 14.999L7.001 19.384C7.822 20.205 9.153 20.205 9.974 19.384L11.284 18.074" stroke="black" stroke-width="1.5" stroke-linecap="round" stroke-linejoin="round"/>
</svg>
