<svg width="24" height="24" viewBox="0 0 24 24" fill="none" xmlns="http://www.w3.org/2000/svg">
<path d="M7.99832 14.0012H10.9996" stroke="black" stroke-width="1.5" stroke-linecap="round" stroke-linejoin="round"/>
<path d="M7.99832 10.9992H10.9996" stroke="black" stroke-width="1.5" stroke-linecap="round" stroke-linejoin="round"/>
<path fill-rule="evenodd" clip-rule="evenodd" d="M3.99665 8.99888V19.9995C3.99518 20.3522 4.17997 20.6795 4.48274 20.8605C4.78551 21.0414 5.16131 21.0492 5.47127 20.8808C7.10095 19.9915 9.49894 18.6839 9.49894 18.6839C9.49894 18.6839 11.897 19.9925 13.5266 20.8808C13.8366 21.0492 14.2124 21.0414 14.5152 20.8605C14.8179 20.6795 15.0027 20.3522 15.0013 19.9995V8.99888C15.0014 8.46818 14.7906 7.95918 14.4154 7.58392C14.0401 7.20866 13.5311 6.9979 13.0004 6.99805H5.99749C4.89248 6.99805 3.99665 7.89387 3.99665 8.99888Z" stroke="black" stroke-width="1.5" stroke-linecap="round" stroke-linejoin="round"/>
<path d="M15.0012 15.0011L18.5237 16.9229C18.8337 17.092 19.2099 17.0852 19.5136 16.9049C19.8172 16.7246 20.0033 16.3977 20.0033 16.0445V4.99693C20.0035 4.46623 19.7927 3.95722 19.4175 3.58196C19.0422 3.2067 18.5332 2.99595 18.0025 2.99609H11.4998C10.9691 2.99595 10.4601 3.2067 10.0848 3.58196C9.70956 3.95722 9.4988 4.46623 9.49895 4.99693V6.99776" stroke="black" stroke-width="1.5" stroke-linecap="round" stroke-linejoin="round"/>
</svg>
