<svg width="24" height="24" viewBox="0 0 24 24" fill="none" xmlns="http://www.w3.org/2000/svg">
<path d="M18.0765 12.284L19.3861 10.9744C19.781 10.5796 20.003 10.0442 20.0033 9.4858V5.09897C20.0033 4.54093 19.7814 4.0058 19.3866 3.61139C18.9918 3.21699 18.4565 2.99564 17.8984 2.99609H13.5116C12.9542 2.99609 12.4198 3.21789 12.026 3.61235L3.6125 12.0259C3.21808 12.4203 2.99649 12.9552 2.99649 13.513C2.99649 14.0708 3.21808 14.6057 3.6125 15.0001L7.99932 19.3869C8.39373 19.7813 8.92866 20.0029 9.48644 20.0029C10.0442 20.0029 10.5792 19.7813 10.9736 19.3869L12.2841 18.0764" stroke="black" stroke-width="1.5" stroke-linecap="round" stroke-linejoin="round"/>
<path d="M16.5019 12C18.9882 12 21.0037 14.0156 21.0037 16.5019C21.0037 18.9882 18.9882 21.0037 16.5019 21.0037C14.0156 21.0037 12 18.9882 12 16.5019C12 14.0156 14.0156 12 16.5019 12" stroke="black" stroke-width="1.5" stroke-linecap="round" stroke-linejoin="round"/>
<path d="M17.7744 16.5022C17.7744 16.5298 17.752 16.5522 17.7244 16.5522C17.6968 16.5522 17.6744 16.5298 17.6744 16.5022C17.6744 16.4745 17.6968 16.4521 17.7244 16.4521" stroke="black" stroke-width="1.5" stroke-linecap="round" stroke-linejoin="round"/>
<path d="M17.7244 16.4518C17.752 16.4518 17.7744 16.4742 17.7744 16.5018" stroke="black" stroke-width="1.5" stroke-linecap="round" stroke-linejoin="round"/>
<path d="M15.3294 16.5022C15.3294 16.5298 15.307 16.5522 15.2794 16.5522C15.2517 16.5522 15.2293 16.5298 15.2293 16.5022C15.2293 16.4745 15.2517 16.4521 15.2794 16.4521" stroke="black" stroke-width="1.5" stroke-linecap="round" stroke-linejoin="round"/>
<path d="M15.2794 16.4518C15.307 16.4518 15.3294 16.4742 15.3294 16.5018" stroke="black" stroke-width="1.5" stroke-linecap="round" stroke-linejoin="round"/>
<path d="M15.7961 7.45333C15.7961 7.59146 15.6841 7.70344 15.546 7.70344C15.4079 7.70344 15.2959 7.59146 15.2959 7.45333C15.2959 7.3152 15.4079 7.20323 15.546 7.20323" stroke="black" stroke-width="1.5" stroke-linecap="round" stroke-linejoin="round"/>
<path d="M15.546 7.20328C15.6841 7.20328 15.7961 7.31526 15.7961 7.45339" stroke="black" stroke-width="1.5" stroke-linecap="round" stroke-linejoin="round"/>
</svg>
