<svg width="24" height="24" viewBox="0 0 24 24" fill="none" xmlns="http://www.w3.org/2000/svg">
<path fill-rule="evenodd" clip-rule="evenodd" d="M11.9553 7.91797H14.7438C15.0985 7.91782 15.4388 8.0586 15.6896 8.30933C15.9405 8.56006 16.0816 8.9002 16.0816 9.2549V12.0437C16.0814 12.3985 15.9403 12.7386 15.6894 12.9894L12.1489 16.5302C11.6266 17.0522 10.7801 17.0522 10.2578 16.5302L7.46928 13.7414C6.94735 13.219 6.94735 12.3725 7.46928 11.8501L11.0098 8.31019C11.2605 8.05925 11.6006 7.91817 11.9553 7.91797Z" stroke="black" stroke-width="1.5" stroke-linecap="round" stroke-linejoin="round"/>
<path d="M13.536 10.4639C13.5503 10.4782 13.5546 10.4997 13.5468 10.5184C13.5391 10.5371 13.5209 10.5493 13.5006 10.5493C13.4804 10.5493 13.4621 10.5371 13.4544 10.5184C13.4467 10.4997 13.451 10.4782 13.4653 10.4639C13.4746 10.4545 13.4874 10.4492 13.5006 10.4492C13.5139 10.4492 13.5266 10.4545 13.536 10.4639" stroke="black" stroke-width="1.5" stroke-linecap="round" stroke-linejoin="round"/>
<path d="M20.5856 9.35174C20.8587 10.2081 20.9997 11.101 21.0038 11.9998C21.0038 16.9725 16.9726 21.0036 12 21.0036C7.02737 21.0036 2.99625 16.9725 2.99625 11.9998C2.99625 7.02721 7.02737 2.99609 12 2.99609C12.8988 3.00016 13.7918 3.14117 14.6481 3.41427" stroke="black" stroke-width="1.5" stroke-linecap="round" stroke-linejoin="round"/>
<path d="M19.0149 6.25991L17.7394 4.98438" stroke="black" stroke-width="1.5" stroke-linecap="round" stroke-linejoin="round"/>
<path d="M21.0038 4.27051L19.0149 6.25937" stroke="black" stroke-width="1.5" stroke-linecap="round" stroke-linejoin="round"/>
</svg>
