<svg width="24" height="24" viewBox="0 0 24 24" fill="none" xmlns="http://www.w3.org/2000/svg">
<path fill-rule="evenodd" clip-rule="evenodd" d="M18 20H6C4.895 20 4 19.105 4 18V6C4 4.895 4.895 4 6 4H18C19.105 4 20 4.895 20 6V18C20 19.105 19.105 20 18 20Z" stroke="black" stroke-width="1.5" stroke-linecap="round" stroke-linejoin="round"/>
<path d="M12 7.95C11.972 7.95 11.95 7.972 11.95 8C11.95 8.028 11.972 8.05 12 8.05C12.028 8.05 12.05 8.028 12.05 8C12.05 7.972 12.028 7.95 12 7.95" stroke="black" stroke-width="1.5" stroke-linecap="round" stroke-linejoin="round"/>
<path d="M12 15.95C11.972 15.95 11.95 15.972 11.95 16C11.95 16.028 11.972 16.05 12 16.05C12.028 16.05 12.05 16.028 12.05 16C12.05 15.972 12.028 15.95 12 15.95" stroke="black" stroke-width="1.5" stroke-linecap="round" stroke-linejoin="round"/>
<path d="M12 11.95C11.972 11.95 11.95 11.972 11.95 12C11.95 12.028 11.972 12.05 12 12.05C12.028 12.05 12.05 12.028 12.05 12C12.05 11.972 12.028 11.95 12 11.95" stroke="black" stroke-width="1.5" stroke-linecap="round" stroke-linejoin="round"/>
<path d="M16.05 12C16.05 11.972 16.028 11.95 16 11.95C15.972 11.95 15.95 11.972 15.95 12C15.95 12.028 15.972 12.05 16 12.05C16.028 12.05 16.05 12.028 16.05 12" stroke="black" stroke-width="1.5" stroke-linecap="round" stroke-linejoin="round"/>
<path d="M8.05 12C8.05 11.972 8.028 11.95 8 11.95C7.972 11.95 7.95 11.972 7.95 12C7.95 12.028 7.972 12.05 8 12.05C8.028 12.05 8.05 12.028 8.05 12" stroke="black" stroke-width="1.5" stroke-linecap="round" stroke-linejoin="round"/>
</svg>
