<svg width="24" height="24" viewBox="0 0 24 24" fill="none" xmlns="http://www.w3.org/2000/svg">
<path d="M12 16.05C12.028 16.05 12.05 16.028 12.05 16C12.05 15.972 12.028 15.95 12 15.95C11.972 15.95 11.95 15.972 11.95 16C11.95 16.028 11.972 16.05 12 16.05" stroke="black" stroke-width="1.5" stroke-linecap="round" stroke-linejoin="round"/>
<path d="M12 8.05C12.028 8.05 12.05 8.028 12.05 8C12.05 7.972 12.028 7.95 12 7.95C11.972 7.95 11.95 7.972 11.95 8C11.95 8.028 11.972 8.05 12 8.05" stroke="black" stroke-width="1.5" stroke-linecap="round" stroke-linejoin="round"/>
<path d="M12 12.05C12.028 12.05 12.05 12.028 12.05 12C12.05 11.972 12.028 11.95 12 11.95C11.972 11.95 11.95 11.972 11.95 12C11.95 12.028 11.972 12.05 12 12.05" stroke="black" stroke-width="1.5" stroke-linecap="round" stroke-linejoin="round"/>
<path d="M7.95 12C7.95 12.028 7.972 12.05 8 12.05C8.028 12.05 8.05 12.028 8.05 12C8.05 11.972 8.028 11.95 8 11.95C7.972 11.95 7.95 11.972 7.95 12" stroke="black" stroke-width="1.5" stroke-linecap="round" stroke-linejoin="round"/>
<path d="M4 12.05C4.028 12.05 4.05 12.028 4.05 12C4.05 11.972 4.028 11.95 4 11.95C3.972 11.95 3.95 11.972 3.95 12C3.95 12.028 3.972 12.05 4 12.05" stroke="black" stroke-width="1.5" stroke-linecap="round" stroke-linejoin="round"/>
<path d="M15.95 12C15.95 12.028 15.972 12.05 16 12.05C16.028 12.05 16.05 12.028 16.05 12C16.05 11.972 16.028 11.95 16 11.95C15.972 11.95 15.95 11.972 15.95 12" stroke="black" stroke-width="1.5" stroke-linecap="round" stroke-linejoin="round"/>
<path d="M4 16.05C4.028 16.05 4.05 16.028 4.05 16C4.05 15.972 4.028 15.95 4 15.95C3.972 15.95 3.95 15.972 3.95 16C3.95 16.028 3.972 16.05 4 16.05" stroke="black" stroke-width="1.5" stroke-linecap="round" stroke-linejoin="round"/>
<path d="M4 8.05C4.028 8.05 4.05 8.028 4.05 8C4.05 7.972 4.028 7.95 4 7.95C3.972 7.95 3.95 7.972 3.95 8C3.95 8.028 3.972 8.05 4 8.05" stroke="black" stroke-width="1.5" stroke-linecap="round" stroke-linejoin="round"/>
<path d="M12 20.05C12.028 20.05 12.05 20.028 12.05 20C12.05 19.972 12.028 19.95 12 19.95C11.972 19.95 11.95 19.972 11.95 20C11.95 20.028 11.972 20.05 12 20.05" stroke="black" stroke-width="1.5" stroke-linecap="round" stroke-linejoin="round"/>
<path d="M7.95 20C7.95 20.028 7.972 20.05 8 20.05C8.028 20.05 8.05 20.028 8.05 20C8.05 19.972 8.028 19.95 8 19.95C7.972 19.95 7.95 19.972 7.95 20" stroke="black" stroke-width="1.5" stroke-linecap="round" stroke-linejoin="round"/>
<path d="M15.95 20C15.95 20.028 15.972 20.05 16 20.05C16.028 20.05 16.05 20.028 16.05 20C16.05 19.972 16.028 19.95 16 19.95C15.972 19.95 15.95 19.972 15.95 20" stroke="black" stroke-width="1.5" stroke-linecap="round" stroke-linejoin="round"/>
<path d="M4 20.05C4.028 20.05 4.05 20.028 4.05 20C4.05 19.972 4.028 19.95 4 19.95C3.972 19.95 3.95 19.972 3.95 20C3.95 20.028 3.972 20.05 4 20.05" stroke="black" stroke-width="1.5" stroke-linecap="round" stroke-linejoin="round"/>
<path d="M12 4.05C12.028 4.05 12.05 4.028 12.05 4C12.05 3.972 12.028 3.95 12 3.95C11.972 3.95 11.95 3.972 11.95 4C11.95 4.028 11.972 4.05 12 4.05" stroke="black" stroke-width="1.5" stroke-linecap="round" stroke-linejoin="round"/>
<path d="M7.95 4C7.95 4.028 7.972 4.05 8 4.05C8.028 4.05 8.05 4.028 8.05 4C8.05 3.972 8.028 3.95 8 3.95C7.972 3.95 7.95 3.972 7.95 4" stroke="black" stroke-width="1.5" stroke-linecap="round" stroke-linejoin="round"/>
<path d="M15.95 4C15.95 4.028 15.972 4.05 16 4.05C16.028 4.05 16.05 4.028 16.05 4C16.05 3.972 16.028 3.95 16 3.95C15.972 3.95 15.95 3.972 15.95 4" stroke="black" stroke-width="1.5" stroke-linecap="round" stroke-linejoin="round"/>
<path d="M4 4.05C4.028 4.05 4.05 4.028 4.05 4C4.05 3.972 4.028 3.95 4 3.95C3.972 3.95 3.95 3.972 3.95 4C3.95 4.028 3.972 4.05 4 4.05" stroke="black" stroke-width="1.5" stroke-linecap="round" stroke-linejoin="round"/>
<path d="M20 4V20" stroke="black" stroke-width="1.5" stroke-linecap="round" stroke-linejoin="round"/>
</svg>
