<svg width="24" height="24" viewBox="0 0 24 24" fill="none" xmlns="http://www.w3.org/2000/svg">
<path d="M16.05 12C16.05 11.972 16.028 11.95 16 11.95C15.972 11.95 15.95 11.972 15.95 12C15.95 12.028 15.972 12.05 16 12.05C16.028 12.05 16.05 12.028 16.05 12" stroke="black" stroke-width="1.5" stroke-linecap="round" stroke-linejoin="round"/>
<path d="M8.05 12C8.05 11.972 8.028 11.95 8 11.95C7.972 11.95 7.95 11.972 7.95 12C7.95 12.028 7.972 12.05 8 12.05C8.028 12.05 8.05 12.028 8.05 12" stroke="black" stroke-width="1.5" stroke-linecap="round" stroke-linejoin="round"/>
<path d="M20 7.95C19.972 7.95 19.95 7.972 19.95 8C19.95 8.028 19.972 8.05 20 8.05C20.028 8.05 20.05 8.028 20.05 8C20.05 7.972 20.028 7.95 20 7.95" stroke="black" stroke-width="1.5" stroke-linecap="round" stroke-linejoin="round"/>
<path d="M20 11.95C19.972 11.95 19.95 11.972 19.95 12C19.95 12.028 19.972 12.05 20 12.05C20.028 12.05 20.05 12.028 20.05 12C20.05 11.972 20.028 11.95 20 11.95" stroke="black" stroke-width="1.5" stroke-linecap="round" stroke-linejoin="round"/>
<path d="M20 15.95C19.972 15.95 19.95 15.972 19.95 16C19.95 16.028 19.972 16.05 20 16.05C20.028 16.05 20.05 16.028 20.05 16C20.05 15.972 20.028 15.95 20 15.95" stroke="black" stroke-width="1.5" stroke-linecap="round" stroke-linejoin="round"/>
<path d="M4 7.95C3.972 7.95 3.95 7.972 3.95 8C3.95 8.028 3.972 8.05 4 8.05C4.028 8.05 4.05 8.028 4.05 8C4.05 7.972 4.028 7.95 4 7.95" stroke="black" stroke-width="1.5" stroke-linecap="round" stroke-linejoin="round"/>
<path d="M4 11.95C3.972 11.95 3.95 11.972 3.95 12C3.95 12.028 3.972 12.05 4 12.05C4.028 12.05 4.05 12.028 4.05 12C4.05 11.972 4.028 11.95 4 11.95" stroke="black" stroke-width="1.5" stroke-linecap="round" stroke-linejoin="round"/>
<path d="M4 15.95C3.972 15.95 3.95 15.972 3.95 16C3.95 16.028 3.972 16.05 4 16.05C4.028 16.05 4.05 16.028 4.05 16C4.05 15.972 4.028 15.95 4 15.95" stroke="black" stroke-width="1.5" stroke-linecap="round" stroke-linejoin="round"/>
<path d="M16.05 4C16.05 3.972 16.028 3.95 16 3.95C15.972 3.95 15.95 3.972 15.95 4C15.95 4.028 15.972 4.05 16 4.05C16.028 4.05 16.05 4.028 16.05 4" stroke="black" stroke-width="1.5" stroke-linecap="round" stroke-linejoin="round"/>
<path d="M8.05 4C8.05 3.972 8.028 3.95 8 3.95C7.972 3.95 7.95 3.972 7.95 4C7.95 4.028 7.972 4.05 8 4.05C8.028 4.05 8.05 4.028 8.05 4" stroke="black" stroke-width="1.5" stroke-linecap="round" stroke-linejoin="round"/>
<path d="M20 3.95C19.972 3.95 19.95 3.972 19.95 4C19.95 4.028 19.972 4.05 20 4.05C20.028 4.05 20.05 4.028 20.05 4C20.05 3.972 20.028 3.95 20 3.95" stroke="black" stroke-width="1.5" stroke-linecap="round" stroke-linejoin="round"/>
<path d="M4 3.95C3.972 3.95 3.95 3.972 3.95 4C3.95 4.028 3.972 4.05 4 4.05C4.028 4.05 4.05 4.028 4.05 4C4.05 3.972 4.028 3.95 4 3.95" stroke="black" stroke-width="1.5" stroke-linecap="round" stroke-linejoin="round"/>
<path d="M16.05 20C16.05 19.972 16.028 19.95 16 19.95C15.972 19.95 15.95 19.972 15.95 20C15.95 20.028 15.972 20.05 16 20.05C16.028 20.05 16.05 20.028 16.05 20" stroke="black" stroke-width="1.5" stroke-linecap="round" stroke-linejoin="round"/>
<path d="M8.05 20C8.05 19.972 8.028 19.95 8 19.95C7.972 19.95 7.95 19.972 7.95 20C7.95 20.028 7.972 20.05 8 20.05C8.028 20.05 8.05 20.028 8.05 20" stroke="black" stroke-width="1.5" stroke-linecap="round" stroke-linejoin="round"/>
<path d="M20 19.95C19.972 19.95 19.95 19.972 19.95 20C19.95 20.028 19.972 20.05 20 20.05C20.028 20.05 20.05 20.028 20.05 20C20.05 19.972 20.028 19.95 20 19.95" stroke="black" stroke-width="1.5" stroke-linecap="round" stroke-linejoin="round"/>
<path d="M4 19.95C3.972 19.95 3.95 19.972 3.95 20C3.95 20.028 3.972 20.05 4 20.05C4.028 20.05 4.05 20.028 4.05 20C4.05 19.972 4.028 19.95 4 19.95" stroke="black" stroke-width="1.5" stroke-linecap="round" stroke-linejoin="round"/>
<path d="M12 4V20" stroke="black" stroke-width="1.5" stroke-linecap="round" stroke-linejoin="round"/>
</svg>
