<svg width="24" height="24" viewBox="0 0 24 24" fill="none" xmlns="http://www.w3.org/2000/svg">
<path d="M8.952 3.95601C9.902 3.59601 10.928 3.39001 12.003 3.39001C16.03 3.39001 19.401 6.15701 20.346 9.89001" stroke="black" stroke-width="1.5" stroke-linecap="round" stroke-linejoin="round"/>
<path d="M6.558 18.67C5.772 18.028 5.08 17.243 4.542 16.311C2.529 12.824 3.24 8.521 6 5.836" stroke="black" stroke-width="1.5" stroke-linecap="round" stroke-linejoin="round"/>
<path d="M20.498 13.386C20.335 14.388 20.001 15.379 19.463 16.311C17.449 19.798 13.367 21.335 9.662 20.285" stroke="black" stroke-width="1.5" stroke-linecap="round" stroke-linejoin="round"/>
<path fill-rule="evenodd" clip-rule="evenodd" d="M10.586 13.414C11.367 14.195 12.633 14.195 13.414 13.414C14.195 12.633 14.195 11.367 13.414 10.585C12.633 9.80402 11.367 9.80402 10.586 10.585C9.805 11.367 9.805 12.633 10.586 13.414Z" stroke="black" stroke-width="1.5" stroke-linecap="round" stroke-linejoin="round"/>
<path d="M12 7.71004V7.00004" stroke="black" stroke-width="1.5" stroke-linecap="round" stroke-linejoin="round"/>
<path d="M12 16.29V17" stroke="black" stroke-width="1.5" stroke-linecap="round" stroke-linejoin="round"/>
<path d="M15.54 8.46003L15.03 8.97003" stroke="black" stroke-width="1.5" stroke-linecap="round" stroke-linejoin="round"/>
<path d="M8.97 15.03L8.46 15.54" stroke="black" stroke-width="1.5" stroke-linecap="round" stroke-linejoin="round"/>
<path d="M8.46 8.46003L8.97 8.97003" stroke="black" stroke-width="1.5" stroke-linecap="round" stroke-linejoin="round"/>
<path d="M15.03 15.03L15.54 15.54" stroke="black" stroke-width="1.5" stroke-linecap="round" stroke-linejoin="round"/>
<path d="M7.71 12H7" stroke="black" stroke-width="1.5" stroke-linecap="round" stroke-linejoin="round"/>
<path d="M17 12H16.29" stroke="black" stroke-width="1.5" stroke-linecap="round" stroke-linejoin="round"/>
</svg>
