<svg width="24" height="24" viewBox="0 0 24 24" fill="none" xmlns="http://www.w3.org/2000/svg">
<path d="M8.89001 15.11L15.11 8.89001" stroke="black" stroke-width="1.5" stroke-linecap="round" stroke-linejoin="round"/>
<path d="M11 7.99998L13 5.99998C14.381 4.61898 16.619 4.61898 18 5.99998V5.99998C19.381 7.38098 19.381 9.61898 18 11L16 13" stroke="black" stroke-width="1.5" stroke-linecap="round" stroke-linejoin="round"/>
<path d="M13 16L11 18C9.61901 19.381 7.38101 19.381 6.00001 18V18C4.61901 16.619 4.61901 14.381 6.00001 13L8.00001 11" stroke="black" stroke-width="1.5" stroke-linecap="round" stroke-linejoin="round"/>
<path d="M19 15H21" stroke="black" stroke-width="1.4441" stroke-linecap="round" stroke-linejoin="round"/>
<path d="M15 21V19" stroke="black" stroke-width="1.4441" stroke-linecap="round" stroke-linejoin="round"/>
<path d="M18 18L19.41 19.41" stroke="black" stroke-width="1.4441" stroke-linecap="round" stroke-linejoin="round"/>
<path d="M5 9H3" stroke="black" stroke-width="1.4441" stroke-linecap="round" stroke-linejoin="round"/>
<path d="M9 3V5" stroke="black" stroke-width="1.4441" stroke-linecap="round" stroke-linejoin="round"/>
<path d="M6 6.00003L4.59 4.59003" stroke="black" stroke-width="1.4441" stroke-linecap="round" stroke-linejoin="round"/>
</svg>
