<svg width="24" height="24" viewBox="0 0 24 24" fill="none" xmlns="http://www.w3.org/2000/svg">
<path d="M7 9H9V7" stroke="black" stroke-width="1.5" stroke-linecap="round" stroke-linejoin="round"/>
<path d="M17 15H15V17" stroke="black" stroke-width="1.5" stroke-linecap="round" stroke-linejoin="round"/>
<path fill-rule="evenodd" clip-rule="evenodd" d="M19 21H5C3.895 21 3 20.105 3 19V5C3 3.895 3.895 3 5 3H19C20.105 3 21 3.895 21 5V19C21 20.105 20.105 21 19 21Z" stroke="black" stroke-width="1.5" stroke-linecap="round" stroke-linejoin="round"/>
<path d="M15 11.621L16 10.621C16.828 9.793 16.828 8.449 16 7.621V7.621C15.172 6.793 13.828 6.793 13 7.621L12 8.621" stroke="black" stroke-width="1.5" stroke-linecap="round" stroke-linejoin="round"/>
<path d="M8.621 12.379L7.621 13.379C6.793 14.207 6.793 15.551 7.621 16.379V16.379C8.449 17.207 9.793 17.207 10.621 16.379L11.621 15.379" stroke="black" stroke-width="1.5" stroke-linecap="round" stroke-linejoin="round"/>
</svg>
