<svg width="24" height="24" viewBox="0 0 24 24" fill="none" xmlns="http://www.w3.org/2000/svg">
<path d="M8.68162 8.68196L8.01734 8.01768" stroke="black" stroke-width="1.5" stroke-linecap="round" stroke-linejoin="round"/>
<path d="M10.8055 7.47919V6.49779" stroke="black" stroke-width="1.5" stroke-linecap="round" stroke-linejoin="round"/>
<path d="M6.49769 10.8059H7.4791" stroke="black" stroke-width="1.5" stroke-linecap="round" stroke-linejoin="round"/>
<path d="M15.3184 15.3185L15.9826 15.9827" stroke="black" stroke-width="1.5" stroke-linecap="round" stroke-linejoin="round"/>
<path d="M13.1945 16.5212V17.5026" stroke="black" stroke-width="1.5" stroke-linecap="round" stroke-linejoin="round"/>
<path d="M16.5209 13.1945H17.5023" stroke="black" stroke-width="1.5" stroke-linecap="round" stroke-linejoin="round"/>
<path d="M14.9012 11.7151L16.0387 10.5777C16.7286 9.88675 16.7286 8.76755 16.0387 8.07663V8.07663C15.3475 7.38722 14.2288 7.38722 13.5376 8.07663L12.4001 9.2121" stroke="black" stroke-width="1.5" stroke-linecap="round" stroke-linejoin="round"/>
<path d="M9.21185 12.4004L8.07437 13.5369C7.38496 14.228 7.38496 15.3468 8.07437 16.0379V16.0379C8.7653 16.7279 9.88449 16.7279 10.5754 16.0379L11.7149 14.9014" stroke="black" stroke-width="1.5" stroke-linecap="round" stroke-linejoin="round"/>
<circle cx="12" cy="11.9998" r="9.00375" stroke="black" stroke-width="1.5" stroke-linecap="round" stroke-linejoin="round"/>
</svg>
