<svg width="24" height="24" viewBox="0 0 24 24" fill="none" xmlns="http://www.w3.org/2000/svg">
<path d="M4.85502 4.85547L6.27061 6.27106" stroke="black" stroke-width="1.5" stroke-linecap="round" stroke-linejoin="round"/>
<path d="M10.0902 2.99609V4.99693" stroke="black" stroke-width="1.5" stroke-linecap="round" stroke-linejoin="round"/>
<path d="M4.99708 10.0901H2.99625" stroke="black" stroke-width="1.5" stroke-linecap="round" stroke-linejoin="round"/>
<path d="M19.145 19.1451L17.7294 17.7295" stroke="black" stroke-width="1.5" stroke-linecap="round" stroke-linejoin="round"/>
<path d="M13.9098 21.0038V19.0029" stroke="black" stroke-width="1.5" stroke-linecap="round" stroke-linejoin="round"/>
<path d="M19.0029 13.9104H21.0038" stroke="black" stroke-width="1.5" stroke-linecap="round" stroke-linejoin="round"/>
<path d="M12 17.0021L10.4994 18.5027C9.83613 19.1662 8.93645 19.5389 7.99833 19.5389C7.06022 19.5389 6.16054 19.1662 5.49729 18.5027V18.5027C4.83384 17.8395 4.4611 16.9398 4.4611 16.0017C4.4611 15.0636 4.83384 14.1639 5.49729 13.5006L6.99792 12" stroke="black" stroke-width="1.5" stroke-linecap="round" stroke-linejoin="round"/>
<path d="M12 6.99775L13.5006 5.49712C14.1639 4.83368 15.0636 4.46094 16.0017 4.46094C16.9398 4.46094 17.8395 4.83368 18.5027 5.49712V5.49712C19.1662 6.16037 19.5389 7.06005 19.5389 7.99817C19.5389 8.93628 19.1662 9.83596 18.5027 10.4992L17.0021 11.9998" stroke="black" stroke-width="1.5" stroke-linecap="round" stroke-linejoin="round"/>
</svg>
