<svg width="24" height="24" viewBox="0 0 24 24" fill="none" xmlns="http://www.w3.org/2000/svg">
<path d="M9.5 7.5V9.5" stroke="black" stroke-width="1.5" stroke-linecap="round" stroke-linejoin="round"/>
<path d="M7.5 9.5H9.5" stroke="black" stroke-width="1.5" stroke-linecap="round" stroke-linejoin="round"/>
<path fill-rule="evenodd" clip-rule="evenodd" d="M12 21V21C7.029 21 3 16.971 3 12V12C3 7.029 7.029 3 12 3V3C16.971 3 21 7.029 21 12V12C21 16.971 16.971 21 12 21Z" stroke="black" stroke-width="1.5" stroke-linecap="round" stroke-linejoin="round"/>
<path d="M16.5 14.5H14.5V16.5" stroke="black" stroke-width="1.5" stroke-linecap="round" stroke-linejoin="round"/>
<path d="M15 11.621L16 10.621C16.828 9.793 16.828 8.449 16 7.621V7.621C15.172 6.793 13.828 6.793 13 7.621L12 8.621" stroke="black" stroke-width="1.5" stroke-linecap="round" stroke-linejoin="round"/>
<path d="M8.621 12.379L7.621 13.379C6.793 14.207 6.793 15.551 7.621 16.379V16.379C8.449 17.207 9.793 17.207 10.621 16.379L11.621 15.379" stroke="black" stroke-width="1.5" stroke-linecap="round" stroke-linejoin="round"/>
</svg>
