<svg width="24" height="24" viewBox="0 0 24 24" fill="none" xmlns="http://www.w3.org/2000/svg">
<path d="M16.95 12.707L19.778 9.87898C21.34 8.31698 21.34 5.78398 19.778 4.22198V4.22198C18.216 2.65998 15.683 2.65998 14.121 4.22198L11.293 7.04998" stroke="black" stroke-width="1.5" stroke-linecap="round" stroke-linejoin="round"/>
<path d="M7.05001 11.293L4.22201 14.121C2.66001 15.683 2.66001 18.216 4.22201 19.778V19.778C5.78401 21.34 8.31701 21.34 9.87901 19.778L12.707 16.95" stroke="black" stroke-width="1.5" stroke-linecap="round" stroke-linejoin="round"/>
<path d="M5.64 8.45999L3.52 7.75999" stroke="black" stroke-width="1.5" stroke-linecap="round" stroke-linejoin="round"/>
<path d="M8.46 5.64002L7.76 3.52002" stroke="black" stroke-width="1.5" stroke-linecap="round" stroke-linejoin="round"/>
<path d="M18.36 15.54L20.49 16.24" stroke="black" stroke-width="1.5" stroke-linecap="round" stroke-linejoin="round"/>
<path d="M15.54 18.36L16.24 20.49" stroke="black" stroke-width="1.5" stroke-linecap="round" stroke-linejoin="round"/>
<path d="M9.17 14.83L14.83 9.16998" stroke="black" stroke-width="1.5" stroke-linecap="round" stroke-linejoin="round"/>
</svg>
