<svg width="24" height="24" viewBox="0 0 24 24" fill="none" xmlns="http://www.w3.org/2000/svg">
<path d="M18.43 14.57H21" stroke="black" stroke-width="1.5" stroke-linecap="round" stroke-linejoin="round"/>
<path d="M14.57 21V18.43" stroke="black" stroke-width="1.5" stroke-linecap="round" stroke-linejoin="round"/>
<path d="M19.39 19.39L17.46 17.46" stroke="black" stroke-width="1.5" stroke-linecap="round" stroke-linejoin="round"/>
<path d="M5.57 9.42999H3" stroke="black" stroke-width="1.5" stroke-linecap="round" stroke-linejoin="round"/>
<path d="M9.43 3V5.57" stroke="black" stroke-width="1.5" stroke-linecap="round" stroke-linejoin="round"/>
<path d="M4.61 4.60999L6.54 6.53999" stroke="black" stroke-width="1.5" stroke-linecap="round" stroke-linejoin="round"/>
<path d="M12.643 16.013L10.51 18.146C9.246 19.41 7.196 19.41 5.932 18.146V18.146C4.668 16.882 4.668 14.832 5.932 13.568L8.065 11.435" stroke="black" stroke-width="1.5" stroke-linecap="round" stroke-linejoin="round"/>
<path d="M11.412 8.01002L13.545 5.87702C14.809 4.61302 16.859 4.61302 18.123 5.87702V5.87702C19.387 7.14102 19.387 9.19102 18.123 10.455L15.99 12.588" stroke="black" stroke-width="1.5" stroke-linecap="round" stroke-linejoin="round"/>
</svg>
