<svg width="24" height="24" viewBox="0 0 24 24" fill="none" xmlns="http://www.w3.org/2000/svg">
<path d="M8.37949 8.37994L7.65519 7.65564" stroke="black" stroke-width="1.5" stroke-linecap="round" stroke-linejoin="round"/>
<path d="M10.6965 7.06849V5.99805" stroke="black" stroke-width="1.5" stroke-linecap="round" stroke-linejoin="round"/>
<path d="M5.9975 10.6965H7.06795" stroke="black" stroke-width="1.5" stroke-linecap="round" stroke-linejoin="round"/>
<path d="M15.6205 15.6205L16.3448 16.3448" stroke="black" stroke-width="1.5" stroke-linecap="round" stroke-linejoin="round"/>
<path d="M13.3035 16.9326V18.0031" stroke="black" stroke-width="1.5" stroke-linecap="round" stroke-linejoin="round"/>
<path d="M16.9321 13.3039H18.0025" stroke="black" stroke-width="1.5" stroke-linecap="round" stroke-linejoin="round"/>
<path d="M15.1643 11.6889L16.4018 10.4474C17.155 9.69317 17.155 8.47144 16.4018 7.71723V7.71723C15.6476 6.96405 14.4259 6.96405 13.6717 7.71723L12.4342 8.95875" stroke="black" stroke-width="1.5" stroke-linecap="round" stroke-linejoin="round"/>
<path d="M8.95873 12.4346L7.71722 13.6761C6.96403 14.4303 6.96403 15.652 7.71722 16.4062V16.4062C8.47142 17.1594 9.69315 17.1594 10.4474 16.4062L11.6889 15.1647" stroke="black" stroke-width="1.5" stroke-linecap="round" stroke-linejoin="round"/>
<rect x="2.99625" y="2.99609" width="18.0075" height="18.0075" rx="4" stroke="black" stroke-width="1.5" stroke-linecap="round" stroke-linejoin="round"/>
</svg>
