<svg width="24" height="24" viewBox="0 0 24 24" fill="none" xmlns="http://www.w3.org/2000/svg">
<path d="M17.3575 12.0121L18.8959 10.4736C20.4011 9.01337 20.4375 6.60943 18.9772 5.10428C17.517 3.59913 15.113 3.56274 13.6079 5.023C13.5804 5.04967 13.5533 5.07677 13.5266 5.10428L10.2363 8.39457C9.52432 9.10608 9.12411 10.0713 9.12375 11.0779C9.12339 12.0845 9.52292 13.05 10.2344 13.762L10.2363 13.7639L10.2266 13.7737C10.533 14.0743 10.8889 14.3201 11.2786 14.5002" stroke="black" stroke-width="1.5" stroke-linecap="round" stroke-linejoin="round"/>
<path d="M12.7218 9.49902C13.1115 9.67948 13.4674 9.92553 13.7738 10.2264C15.2565 11.7081 15.2574 14.1112 13.7757 15.5939L13.7738 15.5958L10.4836 18.886C8.99453 20.3309 6.62144 20.313 5.15433 18.8459C3.68722 17.3788 3.66936 15.0057 5.11421 13.5167L6.65263 11.9782" stroke="black" stroke-width="1.5" stroke-linecap="round" stroke-linejoin="round"/>
<path d="M16.0017 21.0038V19.0029" stroke="black" stroke-width="1.5" stroke-linecap="round" stroke-linejoin="round"/>
<path d="M19.0029 16.0022H21.0037" stroke="black" stroke-width="1.5" stroke-linecap="round" stroke-linejoin="round"/>
<path d="M2.99625 7.99826H4.99708" stroke="black" stroke-width="1.5" stroke-linecap="round" stroke-linejoin="round"/>
<path d="M7.99832 2.99609V4.99693" stroke="black" stroke-width="1.5" stroke-linecap="round" stroke-linejoin="round"/>
</svg>
