<svg width="24" height="24" viewBox="0 0 24 24" fill="none" xmlns="http://www.w3.org/2000/svg">
<path d="M19.09 9.17001L20.5 7.76001" stroke="black" stroke-width="1.4441" stroke-linecap="round" stroke-linejoin="round"/>
<path d="M20.5 16.24L19.09 14.83" stroke="black" stroke-width="1.4441" stroke-linecap="round" stroke-linejoin="round"/>
<path d="M20.5 12H22.5" stroke="black" stroke-width="1.4441" stroke-linecap="round" stroke-linejoin="round"/>
<path d="M4.91 14.83L3.5 16.24" stroke="black" stroke-width="1.4441" stroke-linecap="round" stroke-linejoin="round"/>
<path d="M3.5 7.76001L4.91 9.17001" stroke="black" stroke-width="1.4441" stroke-linecap="round" stroke-linejoin="round"/>
<path d="M3.5 12H1.5" stroke="black" stroke-width="1.4441" stroke-linecap="round" stroke-linejoin="round"/>
<path d="M12.444 10.222C14.408 10.222 16 11.814 16 13.778V16C16 18.209 14.209 20 12 20V20C9.791 20 8 18.209 8 16V15.556" stroke="black" stroke-width="1.5" stroke-linecap="round" stroke-linejoin="round"/>
<path d="M12 14C9.791 14 8 12.209 8 10V8C8 5.791 9.791 4 12 4V4C14.209 4 16 5.791 16 8V8.444" stroke="black" stroke-width="1.5" stroke-linecap="round" stroke-linejoin="round"/>
</svg>
