<svg width="24" height="24" viewBox="0 0 24 24" fill="none" xmlns="http://www.w3.org/2000/svg">
<path d="M15.7458 11.9999C16.7615 10.9624 16.7528 9.30056 15.7261 8.27386C14.6994 7.24716 13.0375 7.23838 12 8.25417V8.25417L11.064 9.19016C10.1273 10.2631 10.1273 11.863 11.064 12.9359" stroke="black" stroke-width="1.5" stroke-linecap="round" stroke-linejoin="round"/>
<path d="M8.25425 12.0004C7.23846 13.0379 7.24724 14.6998 8.27394 15.7265C9.30063 16.7532 10.9625 16.762 12 15.7462V15.7462L12.936 14.8102C13.8727 13.7373 13.8727 12.1374 12.936 11.0645" stroke="black" stroke-width="1.5" stroke-linecap="round" stroke-linejoin="round"/>
<path d="M15.0012 18.0024V17.002" stroke="black" stroke-width="1.5" stroke-linecap="round" stroke-linejoin="round"/>
<path d="M17.0021 15.0012H18.0025" stroke="black" stroke-width="1.5" stroke-linecap="round" stroke-linejoin="round"/>
<path d="M5.9975 8.99923H6.99791" stroke="black" stroke-width="1.5" stroke-linecap="round" stroke-linejoin="round"/>
<path d="M8.88758 5.99805V6.99846" stroke="black" stroke-width="1.5" stroke-linecap="round" stroke-linejoin="round"/>
<rect x="2.99625" y="2.99609" width="18.0075" height="18.0075" rx="5" stroke="black" stroke-width="1.5" stroke-linecap="round" stroke-linejoin="round"/>
</svg>
