<svg width="24" height="24" viewBox="0 0 24 24" fill="none" xmlns="http://www.w3.org/2000/svg">
<path d="M8 20.064V11C8 9.895 8.895 9 10 9H20.487" stroke="black" stroke-width="1.5" stroke-linecap="round" stroke-linejoin="round"/>
<path d="M8 14H20.776" stroke="black" stroke-width="1.5" stroke-linecap="round" stroke-linejoin="round"/>
<path d="M11.005 11.49C11.002 11.49 11 11.492 11 11.495C11 11.498 11.002 11.5 11.005 11.5C11.008 11.5 11.01 11.498 11.01 11.495C11.01 11.492 11.008 11.49 11.005 11.49" stroke="black" stroke-width="1.5" stroke-linecap="round" stroke-linejoin="round"/>
<path d="M13.548 11.49C13.545 11.49 13.543 11.492 13.543 11.495C13.543 11.498 13.545 11.5 13.548 11.5C13.551 11.5 13.553 11.498 13.553 11.495C13.553 11.492 13.551 11.49 13.548 11.49" stroke="black" stroke-width="1.5" stroke-linecap="round" stroke-linejoin="round"/>
<path fill-rule="evenodd" clip-rule="evenodd" d="M12 21V21C16.971 21 21 16.971 21 12V12C21 7.029 16.971 3 12 3V3C7.029 3 3 7.029 3 12V12C3 16.971 7.029 21 12 21Z" stroke="black" stroke-width="1.5" stroke-linecap="round" stroke-linejoin="round"/>
<path d="M16.088 11.49C16.085 11.49 16.083 11.492 16.083 11.495C16.083 11.498 16.085 11.5 16.088 11.5C16.091 11.5 16.093 11.498 16.093 11.495C16.093 11.492 16.09 11.49 16.088 11.49" stroke="black" stroke-width="1.5" stroke-linecap="round" stroke-linejoin="round"/>
</svg>
