<svg width="24" height="24" viewBox="0 0 24 24" fill="none" xmlns="http://www.w3.org/2000/svg">
<path d="M9.99917 21.0041H4.99709C3.89163 21.0041 2.99625 20.1087 2.99625 19.0032V4.99742C2.99625 3.89195 3.89163 2.99658 4.99709 2.99658H19.0029C20.1084 2.99658 21.0038 3.89195 21.0038 4.99742V9.9995" stroke="black" stroke-width="1.5" stroke-linecap="round" stroke-linejoin="round"/>
<path d="M2.99625 7.99874H21.0038" stroke="black" stroke-width="1.5" stroke-linecap="round" stroke-linejoin="round"/>
<path d="M17.0021 15.6528V18.7961" stroke="black" stroke-width="1.5" stroke-linecap="round" stroke-linejoin="round"/>
<path d="M18.5737 17.2243H15.4304" stroke="black" stroke-width="1.5" stroke-linecap="round" stroke-linejoin="round"/>
<path fill-rule="evenodd" clip-rule="evenodd" d="M19.0029 21.0043H15.0013C13.8958 21.0043 13.0004 20.1089 13.0004 19.0035V15.0018C13.0004 13.8963 13.8958 13.001 15.0013 13.001H19.0029C20.1084 13.001 21.0038 13.8963 21.0038 15.0018V19.0035C21.0038 20.1089 20.1084 21.0043 19.0029 21.0043Z" stroke="black" stroke-width="1.5" stroke-linecap="round" stroke-linejoin="round"/>
</svg>
