<svg width="24" height="24" viewBox="0 0 24 24" fill="none" xmlns="http://www.w3.org/2000/svg">
<path fill-rule="evenodd" clip-rule="evenodd" d="M18.9569 21.004H5.0431C3.93764 21.004 3.04227 20.1087 3.04227 19.0032V10.9999C3.04227 9.8944 3.93764 8.99902 5.0431 8.99902H18.9569C20.0624 8.99902 20.9577 9.8944 20.9577 10.9999V19.0032C20.9577 20.1087 20.0614 21.004 18.9569 21.004Z" stroke="black" stroke-width="1.5" stroke-linecap="round" stroke-linejoin="round"/>
<path d="M4.77899 8.9993V7.99888C4.77899 6.89342 5.67436 5.99805 6.77982 5.99805H17.2192C18.3246 5.99805 19.22 6.89342 19.22 7.99888V8.9993" stroke="black" stroke-width="1.5" stroke-linecap="round" stroke-linejoin="round"/>
<path d="M6.5137 5.99783V4.99742C6.5137 3.89195 7.40908 2.99658 8.51454 2.99658H15.4864C16.5919 2.99658 17.4873 3.89195 17.4873 4.99742V5.99783" stroke="black" stroke-width="1.5" stroke-linecap="round" stroke-linejoin="round"/>
<path fill-rule="evenodd" clip-rule="evenodd" d="M12 13.0357C12.2231 12.7836 12.6093 12.5005 13.1985 12.5005C14.2279 12.5005 14.9182 13.4319 14.9182 14.2992C14.9182 16.112 12.5772 17.5026 12 17.5026C11.4228 17.5026 9.08179 16.113 9.08179 14.2992C9.08179 13.4309 9.77207 12.5005 10.8015 12.5005C11.3907 12.5005 11.7769 12.7836 12 13.0357Z" stroke="black" stroke-width="1.5" stroke-linecap="round" stroke-linejoin="round"/>
</svg>
