<svg width="24" height="24" viewBox="0 0 24 24" fill="none" xmlns="http://www.w3.org/2000/svg">
<path fill-rule="evenodd" clip-rule="evenodd" d="M19 21H5C3.89543 21 3 20.1046 3 19V11C3 9.89543 3.89543 9 5 9H19C20.1046 9 21 9.89543 21 11V19C21 20.1046 20.1046 21 19 21Z" stroke="black" stroke-width="1.5" stroke-linecap="round" stroke-linejoin="round"/>
<path d="M4 9.27022V8C3.99985 7.46952 4.21052 6.96073 4.58563 6.58563C4.96073 6.21052 5.46952 5.99985 6 6H18C18.5305 5.99985 19.0393 6.21052 19.4144 6.58563C19.7895 6.96073 20.0001 7.46952 20 8V9.27022" stroke="black" stroke-width="1.5" stroke-linecap="round" stroke-linejoin="round"/>
<path d="M5.734 6V5C5.73386 4.46952 5.94452 3.96073 6.31963 3.58563C6.69473 3.21052 7.20352 2.99985 7.734 3H16.268C16.7985 2.99985 17.3073 3.21052 17.6824 3.58563C18.0575 3.96073 18.2681 4.46952 18.268 5V6" stroke="black" stroke-width="1.5" stroke-linecap="round" stroke-linejoin="round"/>
<path d="M3 14H21" stroke="black" stroke-width="1.5" stroke-linecap="round" stroke-linejoin="round"/>
<path d="M11.005 11.4999L11 11.5049L11.005 11.5099L11.01 11.5049L11.005 11.4999" stroke="black" stroke-width="1.5" stroke-linecap="round" stroke-linejoin="round"/>
<path d="M6.005 11.4999L6 11.5049L6.005 11.5099L6.01 11.5049L6.005 11.4999" stroke="black" stroke-width="1.5" stroke-linecap="round" stroke-linejoin="round"/>
<path d="M8.505 11.4999L8.5 11.5049L8.505 11.5099L8.51 11.5049L8.505 11.4999" stroke="black" stroke-width="1.5" stroke-linecap="round" stroke-linejoin="round"/>
</svg>
