<svg width="24" height="24" viewBox="0 0 24 24" fill="none" xmlns="http://www.w3.org/2000/svg">
<path d="M19.0029 8.99845C16.7929 8.99845 15.0013 7.20684 15.0013 4.99678C15.0013 2.78672 16.7929 0.995117 19.0029 0.995117C21.213 0.995117 23.0046 2.78672 23.0046 4.99678C23.0046 6.05809 22.583 7.07593 21.8325 7.82639C21.0821 8.57685 20.0642 8.99845 19.0029 8.99845" stroke="black" stroke-width="1.5" stroke-linecap="round" stroke-linejoin="round"/>
<path d="M20.3365 4.33008L18.6708 5.99777L17.6703 4.99736" stroke="black" stroke-width="1.5" stroke-linecap="round" stroke-linejoin="round"/>
<path d="M21.0037 8.46073V16.0015C21.0037 18.7641 18.7642 21.0036 16.0017 21.0036H7.99833C5.23576 21.0036 2.99625 18.7641 2.99625 16.0015V7.99818C2.99625 5.2356 5.23576 2.99609 7.99833 2.99609H15.5403" stroke="black" stroke-width="1.5" stroke-linecap="round" stroke-linejoin="round"/>
<path d="M6.85934 12.4899V12.4899V12.4949L6.86434 12.4899H6.85934" stroke="black" stroke-width="1.5" stroke-linecap="round" stroke-linejoin="round"/>
<path d="M2.99625 15.0012H14.9532" stroke="black" stroke-width="1.5" stroke-linecap="round" stroke-linejoin="round"/>
<path d="M11.947 12.4899V12.4899V12.4949L11.952 12.4899H11.947" stroke="black" stroke-width="1.5" stroke-linecap="round" stroke-linejoin="round"/>
<path d="M9.39892 12.4903H9.39392L9.39892 12.5003L9.40392 12.4953H9.39892" stroke="black" stroke-width="1.5" stroke-linecap="round" stroke-linejoin="round"/>
<path d="M2.99625 9.99902H12.9524C14.0574 9.99902 14.9532 10.8948 14.9532 11.9999V21.0036" stroke="black" stroke-width="1.5" stroke-linecap="round" stroke-linejoin="round"/>
</svg>
