<svg width="24" height="24" viewBox="0 0 24 24" fill="none" xmlns="http://www.w3.org/2000/svg">
<path d="M19.0029 8.99845C16.7929 8.99845 15.0013 7.20684 15.0013 4.99678C15.0013 2.78672 16.7929 0.995117 19.0029 0.995117C21.213 0.995117 23.0046 2.78672 23.0046 4.99678C23.0046 6.05809 22.583 7.07593 21.8325 7.82639C21.0821 8.57685 20.0642 8.99845 19.0029 8.99845" stroke="black" stroke-width="1.5" stroke-linecap="round" stroke-linejoin="round"/>
<path d="M20.3365 4.33008L18.6708 5.99777L17.6703 4.99736" stroke="black" stroke-width="1.5" stroke-linecap="round" stroke-linejoin="round"/>
<path d="M19.243 8.98918C19.7463 10.0913 20.0056 11.2891 20.0033 12.5006C20.0033 17.197 16.1962 21.0042 11.4998 21.0042C6.80341 21.0042 2.99625 17.197 2.99625 12.5006C2.99625 7.80427 6.80341 3.99709 11.4998 3.99709C12.7114 3.99478 13.9092 4.25413 15.0113 4.75742" stroke="black" stroke-width="1.5" stroke-linecap="round" stroke-linejoin="round"/>
<path d="M3.94864 9.99902H12.9524C14.0574 9.99902 14.9532 10.8948 14.9532 11.9999V20.0672" stroke="black" stroke-width="1.5" stroke-linecap="round" stroke-linejoin="round"/>
<path d="M3.94864 15.0012H14.9532" stroke="black" stroke-width="1.5" stroke-linecap="round" stroke-linejoin="round"/>
<path d="M11.947 12.4899V12.4899V12.4949L11.952 12.4899H11.947" stroke="black" stroke-width="1.5" stroke-linecap="round" stroke-linejoin="round"/>
<path d="M9.39892 12.4903H9.39392L9.39892 12.5003L9.40392 12.4953H9.39892" stroke="black" stroke-width="1.5" stroke-linecap="round" stroke-linejoin="round"/>
<path d="M6.86185 12.4902V12.4952" stroke="black" stroke-width="1.5" stroke-linecap="round" stroke-linejoin="round"/>
</svg>
