<svg width="24" height="24" viewBox="0 0 24 24" fill="none" xmlns="http://www.w3.org/2000/svg">
<path d="M9.99916 21.0041H4.99708C3.89162 21.0041 2.99625 20.1087 2.99625 19.0032V4.99742C2.99625 3.89195 3.89162 2.99658 4.99708 2.99658H19.0029C20.1084 2.99658 21.0037 3.89195 21.0037 4.99742V9.9995" stroke="black" stroke-width="1.5" stroke-linecap="round" stroke-linejoin="round"/>
<path d="M2.99625 7.99874H21.0037" stroke="black" stroke-width="1.5" stroke-linecap="round" stroke-linejoin="round"/>
<path fill-rule="evenodd" clip-rule="evenodd" d="M22.0042 17.0026V17.0026C22.0042 19.7657 19.7652 22.0047 17.0021 22.0047V22.0047C14.2389 22.0047 12 19.7657 12 17.0026V17.0026C12 14.2394 14.2389 12.0005 17.0021 12.0005V12.0005C19.7652 12.0005 22.0042 14.2394 22.0042 17.0026Z" stroke="black" stroke-width="1.5" stroke-linecap="round" stroke-linejoin="round"/>
<path fill-rule="evenodd" clip-rule="evenodd" d="M16.2828 15.0034L18.9199 16.5631C19.253 16.7602 19.253 17.2434 18.9199 17.4405L16.2828 19.0001C15.9426 19.2012 15.5135 18.9561 15.5135 18.5609V15.4426C15.5135 15.0475 15.9426 14.8024 16.2828 15.0034Z" stroke="black" stroke-width="1.5" stroke-linecap="round" stroke-linejoin="round"/>
</svg>
