<svg width="24" height="24" viewBox="0 0 24 24" fill="none" xmlns="http://www.w3.org/2000/svg">
<path fill-rule="evenodd" clip-rule="evenodd" d="M19.5031 21.0041H4.49687C3.39184 21.0041 2.49603 20.1083 2.49603 19.0032V4.99742C2.49603 3.89239 3.39184 2.99658 4.49687 2.99658H19.5031C20.6081 2.99658 21.504 3.89239 21.504 4.99742V19.0032C21.504 20.1083 20.6081 21.0041 19.5031 21.0041Z" stroke="black" stroke-width="1.5" stroke-linecap="round" stroke-linejoin="round"/>
<path d="M2.49603 7.99826H21.504" stroke="black" stroke-width="1.5" stroke-linecap="round" stroke-linejoin="round"/>
<path fill-rule="evenodd" clip-rule="evenodd" d="M6.00336 14.514C6.00093 13.4095 6.89439 12.5112 7.99896 12.5088L16.0039 12.4912C17.1085 12.4888 18.0059 13.3831 18.0083 14.4876C18.0108 15.5922 17.1173 16.4904 16.0127 16.4929L8.00776 16.5105C6.90319 16.5129 6.00579 15.6186 6.00336 14.514Z" stroke="black" stroke-width="1.5" stroke-linecap="round" stroke-linejoin="round"/>
<path d="M11.0006 12.5024L9.00874 16.5091" stroke="black" stroke-width="1.5" stroke-linecap="round" stroke-linejoin="round"/>
<path d="M15.0023 12.4932L13.0104 16.4998" stroke="black" stroke-width="1.5" stroke-linecap="round" stroke-linejoin="round"/>
<path d="M10.6374 5.49728C10.6374 5.46965 10.615 5.44726 10.5874 5.44726C10.5741 5.44726 10.5614 5.45253 10.552 5.46191C10.5427 5.47129 10.5374 5.48401 10.5374 5.49728C10.5374 5.5249 10.5598 5.5473 10.5874 5.5473C10.615 5.5473 10.6374 5.5249 10.6374 5.49728" stroke="black" stroke-width="1.5" stroke-linecap="round" stroke-linejoin="round"/>
<path d="M8.09837 5.49728C8.09837 5.48401 8.0931 5.47129 8.08372 5.46191C8.07434 5.45253 8.06162 5.44726 8.04835 5.44726C8.02072 5.44726 7.99833 5.46965 7.99833 5.49728C7.99833 5.5249 8.02072 5.5473 8.04835 5.5473C8.07598 5.5473 8.09837 5.5249 8.09837 5.49728" stroke="black" stroke-width="1.5" stroke-linecap="round" stroke-linejoin="round"/>
<path d="M5.5523 5.49728C5.5523 5.46965 5.52991 5.44726 5.50228 5.44726C5.47466 5.44726 5.45226 5.46965 5.45226 5.49728C5.45226 5.5249 5.47466 5.5473 5.50228 5.5473C5.52991 5.5473 5.5523 5.5249 5.5523 5.49728" stroke="black" stroke-width="1.5" stroke-linecap="round" stroke-linejoin="round"/>
</svg>
