<svg width="24" height="24" viewBox="0 0 24 24" fill="none" xmlns="http://www.w3.org/2000/svg">
<path d="M6.99791 21.0036H4.99708C3.89205 21.0036 2.99625 20.1078 2.99625 19.0028V17.002" stroke="black" stroke-width="1.5" stroke-linecap="round" stroke-linejoin="round"/>
<path d="M17.0021 2.99609H19.0029C20.1079 2.99609 21.0037 3.8919 21.0037 4.99693V6.99776" stroke="black" stroke-width="1.5" stroke-linecap="round" stroke-linejoin="round"/>
<path d="M2.99625 6.99776V4.99693C2.99625 3.8919 3.89205 2.99609 4.99708 2.99609H6.99791" stroke="black" stroke-width="1.5" stroke-linecap="round" stroke-linejoin="round"/>
<path d="M21.0037 17.002V19.0028C21.0037 20.1078 20.1079 21.0036 19.0029 21.0036H17.0021" stroke="black" stroke-width="1.5" stroke-linecap="round" stroke-linejoin="round"/>
<path fill-rule="evenodd" clip-rule="evenodd" d="M5.9975 15.0014C5.9975 16.1064 6.8933 17.0022 7.99833 17.0022H16.0017C17.1067 17.0022 18.0025 16.1064 18.0025 15.0014V8.99888C18.0025 7.89385 17.1067 6.99805 16.0017 6.99805H7.99833C6.8933 6.99805 5.9975 7.89385 5.9975 8.99888V15.0014Z" stroke="black" stroke-width="1.5" stroke-linecap="round" stroke-linejoin="round"/>
<path d="M18.0025 9.99923H5.9975" stroke="black" stroke-width="1.5" stroke-linecap="round" stroke-linejoin="round"/>
</svg>
