<svg width="24" height="24" viewBox="0 0 24 24" fill="none" xmlns="http://www.w3.org/2000/svg">
<path d="M9.99916 18.0028H4.99708C3.89162 18.0028 2.99625 17.1075 2.99625 16.002V4.99742C2.99625 3.89195 3.89162 2.99658 4.99708 2.99658H17.0021C18.1075 2.99658 19.0029 3.89195 19.0029 4.99742V9.9995" stroke="black" stroke-width="1.5" stroke-linecap="round" stroke-linejoin="round"/>
<path d="M2.99625 7.99874H19.0029" stroke="black" stroke-width="1.5" stroke-linecap="round" stroke-linejoin="round"/>
<path d="M15.8906 16.1133L18.1135 18.3362" stroke="black" stroke-width="1.5" stroke-linecap="round" stroke-linejoin="round"/>
<path d="M18.1135 16.1133L15.8906 18.3362" stroke="black" stroke-width="1.5" stroke-linecap="round" stroke-linejoin="round"/>
<path fill-rule="evenodd" clip-rule="evenodd" d="M19.0029 21.0043H15.0012C13.8958 21.0043 13.0004 20.1089 13.0004 19.0035V15.0018C13.0004 13.8963 13.8958 13.001 15.0012 13.001H19.0029C20.1084 13.001 21.0037 13.8963 21.0037 15.0018V19.0035C21.0037 20.1089 20.1084 21.0043 19.0029 21.0043Z" stroke="black" stroke-width="1.5" stroke-linecap="round" stroke-linejoin="round"/>
</svg>
