<svg width="24" height="24" viewBox="0 0 24 24" fill="none" xmlns="http://www.w3.org/2000/svg">
<path fill-rule="evenodd" clip-rule="evenodd" d="M5 3H11C12.105 3 13 3.895 13 5V9.738C13 10.843 12.105 11.738 11 11.738H5C3.895 11.738 3 10.843 3 9.738V5C3 3.895 3.895 3 5 3Z" stroke="black" stroke-width="1.5" stroke-linecap="round" stroke-linejoin="round"/>
<path d="M21 11.738H18.121C17.016 11.738 16.121 10.843 16.121 9.738V5C16.121 3.895 17.016 3 18.121 3H21" stroke="black" stroke-width="1.5" stroke-linecap="round" stroke-linejoin="round"/>
<path d="M3 21V17C3 15.895 3.895 15 5 15H11C12.105 15 13 15.895 13 17V21" stroke="black" stroke-width="1.5" stroke-linecap="round" stroke-linejoin="round"/>
<path d="M16 21V17C16 15.895 16.895 15 18 15H21" stroke="black" stroke-width="1.5" stroke-linecap="round" stroke-linejoin="round"/>
</svg>
