<svg width="24" height="24" viewBox="0 0 24 24" fill="none" xmlns="http://www.w3.org/2000/svg">
<path d="M16.0017 2.99609C18.7642 2.99609 21.0037 5.2356 21.0037 7.99818" stroke="black" stroke-width="1.5" stroke-linecap="round" stroke-linejoin="round"/>
<path d="M16.0017 5.99805C17.1067 5.99805 18.0025 6.89385 18.0025 7.99888" stroke="black" stroke-width="1.5" stroke-linecap="round" stroke-linejoin="round"/>
<path d="M12 2.99609H7.99833C5.23576 2.99609 2.99625 5.2356 2.99625 7.99818V16.0015C2.99625 18.7641 5.23576 21.0036 7.99833 21.0036H16.0017C18.7642 21.0036 21.0037 18.7641 21.0037 16.0015V11.9998" stroke="black" stroke-width="1.5" stroke-linecap="round" stroke-linejoin="round"/>
<path d="M2.99625 8.99902H13.0004C13.5311 8.99888 14.0401 9.20963 14.4154 9.58489C14.7906 9.96015 15.0014 10.4692 15.0012 10.9999V21.004" stroke="black" stroke-width="1.5" stroke-linecap="round" stroke-linejoin="round"/>
<path d="M2.99625 14.0012H15.0012" stroke="black" stroke-width="1.5" stroke-linecap="round" stroke-linejoin="round"/>
<path d="M11.995 11.4903L11.99 11.4953L11.995 11.5003L12 11.4953L11.995 11.4903" stroke="black" stroke-width="1.5" stroke-linecap="round" stroke-linejoin="round"/>
<path d="M9.45094 11.4903L9.44594 11.4953L9.45094 11.5003L9.45594 11.4953L9.45094 11.4903" stroke="black" stroke-width="1.5" stroke-linecap="round" stroke-linejoin="round"/>
<path d="M6.90988 11.4903L6.90487 11.4953L6.90988 11.5003L6.91488 11.4953L6.90988 11.4903" stroke="black" stroke-width="1.5" stroke-linecap="round" stroke-linejoin="round"/>
</svg>
