<svg width="24" height="24" viewBox="0 0 24 24" fill="none" xmlns="http://www.w3.org/2000/svg">
<path d="M8.99875 6.43673H20.0033" stroke="black" stroke-width="1.5" stroke-linecap="round" stroke-linejoin="round"/>
<path d="M20.0033 12.0002H8.99875" stroke="black" stroke-width="1.5" stroke-linecap="round" stroke-linejoin="round"/>
<path d="M8.99875 17.5637H20.0033" stroke="black" stroke-width="1.5" stroke-linecap="round" stroke-linejoin="round"/>
<path d="M4.49687 5.93652C4.22062 5.93652 3.99667 6.16047 3.99667 6.43673C3.99667 6.71299 4.22062 6.93694 4.49687 6.93694C4.77313 6.93694 4.99708 6.71299 4.99708 6.43673C4.99708 6.16047 4.77313 5.93652 4.49687 5.93652" stroke="black" stroke-width="1.5" stroke-linecap="round" stroke-linejoin="round"/>
<path d="M4.49687 11.5C4.22062 11.5 3.99667 11.724 3.99667 12.0002C3.99667 12.2765 4.22062 12.5004 4.49687 12.5004C4.77313 12.5004 4.99708 12.2765 4.99708 12.0002C4.99708 11.724 4.77313 11.5 4.49687 11.5" stroke="black" stroke-width="1.5" stroke-linecap="round" stroke-linejoin="round"/>
<path d="M4.49687 17.0635C4.22062 17.0635 3.99667 17.2874 3.99667 17.5637C3.99667 17.8399 4.22062 18.0639 4.49687 18.0639C4.77313 18.0639 4.99708 17.8399 4.99708 17.5637C4.99708 17.2874 4.77313 17.0635 4.49687 17.0635" stroke="black" stroke-width="1.5" stroke-linecap="round" stroke-linejoin="round"/>
</svg>
