<svg width="24" height="24" viewBox="0 0 24 24" fill="none" xmlns="http://www.w3.org/2000/svg">
<path d="M10.9996 21.0036H5.9975C4.33996 21.0036 2.99625 19.6599 2.99625 18.0023V5.99734C2.99625 4.3398 4.33996 2.99609 5.9975 2.99609H18.0025C19.66 2.99609 21.0037 4.3398 21.0037 5.99734V10.9994" stroke="black" stroke-width="1.5" stroke-linecap="round" stroke-linejoin="round"/>
<path d="M19.5862 16.2711H21.0038V14.8555" stroke="black" stroke-width="1.5" stroke-linecap="round" stroke-linejoin="round"/>
<path d="M16.4218 19.333H15.0073V20.7486" stroke="black" stroke-width="1.5" stroke-linecap="round" stroke-linejoin="round"/>
<path d="M21.0037 18.8691C20.8544 19.3206 20.6027 19.7314 20.2684 20.0696C19.0183 21.3195 16.9917 21.3195 15.7416 20.0696C15.5243 19.8534 15.3396 19.6067 15.1933 19.3373" stroke="black" stroke-width="1.5" stroke-linecap="round" stroke-linejoin="round"/>
<path d="M20.8157 16.2703C20.3331 15.3839 19.4607 14.7769 18.4618 14.6325C17.4628 14.4882 16.4543 14.8234 15.7406 15.537C15.4056 15.8752 15.153 16.286 15.0023 16.7375" stroke="black" stroke-width="1.5" stroke-linecap="round" stroke-linejoin="round"/>
<path d="M21.0037 7.99826H2.99625" stroke="black" stroke-width="1.5" stroke-linecap="round" stroke-linejoin="round"/>
<path d="M13.7497 11.4502C13.7227 11.4502 13.7007 11.4722 13.7007 11.4992C13.7007 11.5263 13.7227 11.5483 13.7497 11.5483C13.7768 11.5483 13.7987 11.5263 13.7987 11.4992C13.7987 11.4722 13.7768 11.4502 13.7497 11.4502" stroke="black" stroke-width="1.5" stroke-linecap="round" stroke-linejoin="round"/>
<path d="M10.2483 11.4502C10.2354 11.4502 10.223 11.4554 10.214 11.4646C10.2049 11.4739 10.2 11.4863 10.2003 11.4992C10.2003 11.5192 10.2123 11.5371 10.2307 11.5446C10.2492 11.5521 10.2704 11.5478 10.2843 11.5335C10.2982 11.5193 10.3022 11.4981 10.2943 11.4798C10.2864 11.4615 10.2682 11.4498 10.2483 11.4502" stroke="black" stroke-width="1.5" stroke-linecap="round" stroke-linejoin="round"/>
<path d="M6.74681 11.4497C6.73355 11.4494 6.72076 11.4546 6.71147 11.4641C6.70219 11.4736 6.69724 11.4865 6.69779 11.4997C6.6978 11.5197 6.70985 11.5376 6.72829 11.5451C6.74673 11.5526 6.76789 11.5483 6.78183 11.534C6.79577 11.5198 6.79971 11.4986 6.79181 11.4803C6.7839 11.462 6.76572 11.4503 6.74581 11.4507" stroke="black" stroke-width="1.5" stroke-linecap="round" stroke-linejoin="round"/>
<path d="M10.2483 14.4512C10.2354 14.4512 10.223 14.4564 10.214 14.4656C10.2049 14.4748 10.2 14.4873 10.2003 14.5002C10.2003 14.5201 10.2123 14.5381 10.2307 14.5456C10.2492 14.5531 10.2704 14.5487 10.2843 14.5345C10.2982 14.5203 10.3022 14.499 10.2943 14.4808C10.2864 14.4625 10.2682 14.4508 10.2483 14.4512" stroke="black" stroke-width="1.5" stroke-linecap="round" stroke-linejoin="round"/>
<path d="M6.74681 14.4507C6.73355 14.4504 6.72076 14.4556 6.71147 14.4651C6.70219 14.4746 6.69724 14.4875 6.69779 14.5007C6.6978 14.5206 6.70985 14.5386 6.72829 14.5461C6.74673 14.5536 6.76789 14.5492 6.78183 14.535C6.79577 14.5208 6.79971 14.4995 6.79181 14.4813C6.7839 14.463 6.76572 14.4513 6.74581 14.4517" stroke="black" stroke-width="1.5" stroke-linecap="round" stroke-linejoin="round"/>
<path d="M10.2483 17.4532C10.2354 17.4531 10.223 17.4583 10.214 17.4676C10.2049 17.4768 10.2 17.4893 10.2003 17.5022C10.2003 17.5221 10.2123 17.54 10.2307 17.5475C10.2492 17.5551 10.2704 17.5507 10.2843 17.5365C10.2982 17.5222 10.3022 17.501 10.2943 17.4827C10.2864 17.4644 10.2682 17.4527 10.2483 17.4532" stroke="black" stroke-width="1.5" stroke-linecap="round" stroke-linejoin="round"/>
<path d="M6.74681 17.4532C6.73373 17.4529 6.7211 17.458 6.71185 17.4672C6.70259 17.4765 6.69752 17.4891 6.69779 17.5022C6.6978 17.5221 6.70985 17.54 6.72829 17.5475C6.74673 17.5551 6.76789 17.5507 6.78183 17.5365C6.79577 17.5222 6.79971 17.501 6.79181 17.4827C6.7839 17.4644 6.76572 17.4527 6.74581 17.4532" stroke="black" stroke-width="1.5" stroke-linecap="round" stroke-linejoin="round"/>
</svg>
