<svg width="24" height="24" viewBox="0 0 24 24" fill="none" xmlns="http://www.w3.org/2000/svg">
<path d="M14.6741 21.0036H5.9975C4.33995 21.0036 2.99625 19.6599 2.99625 18.0023V5.99734C2.99625 4.3398 4.33995 2.99609 5.9975 2.99609H18.0025C19.66 2.99609 21.0037 4.3398 21.0037 5.99734V14.674" stroke="black" stroke-width="1.5" stroke-linecap="round" stroke-linejoin="round"/>
<path d="M17.5023 13.001C19.9886 13.001 22.0042 15.0165 22.0042 17.5029C22.0042 19.9892 19.9886 22.0047 17.5023 22.0047C15.016 22.0047 13.0004 19.9892 13.0004 17.5029C13.0004 15.0165 15.016 13.001 17.5023 13.001" stroke="black" stroke-width="1.5" stroke-linecap="round" stroke-linejoin="round"/>
<path d="M17.0021 16.002L18.5027 17.5026L17.0021 19.0032" stroke="black" stroke-width="1.5" stroke-linecap="round" stroke-linejoin="round"/>
<path d="M21.0037 7.99826H2.99625" stroke="black" stroke-width="1.5" stroke-linecap="round" stroke-linejoin="round"/>
<path d="M6.74682 11.4497C6.73408 11.4494 6.72176 11.4543 6.71257 11.4631C6.70338 11.4719 6.69806 11.484 6.6978 11.4967V11.4997C6.6978 11.5196 6.70974 11.5374 6.72806 11.545C6.74638 11.5526 6.76746 11.5484 6.78148 11.5344C6.7955 11.5204 6.7997 11.4993 6.79211 11.481C6.78452 11.4627 6.76665 11.4507 6.74682 11.4507H6.74582" stroke="black" stroke-width="1.5" stroke-linecap="round" stroke-linejoin="round"/>
<path d="M6.79684 11.5002C6.79684 11.5278 6.77445 11.5502 6.74682 11.5502C6.7192 11.5502 6.6968 11.5278 6.6968 11.5002C6.6968 11.4726 6.7192 11.4502 6.74682 11.4502" stroke="black" stroke-width="1.5" stroke-linecap="round" stroke-linejoin="round"/>
<path d="M6.7468 11.4498C6.77443 11.4498 6.79683 11.4722 6.79683 11.4998" stroke="black" stroke-width="1.5" stroke-linecap="round" stroke-linejoin="round"/>
<path d="M10.2993 11.5002C10.2993 11.5278 10.2769 11.5502 10.2493 11.5502C10.2216 11.5502 10.1992 11.5278 10.1992 11.5002C10.1992 11.4726 10.2216 11.4502 10.2493 11.4502" stroke="black" stroke-width="1.5" stroke-linecap="round" stroke-linejoin="round"/>
<path d="M10.2493 11.4498C10.2769 11.4498 10.2993 11.4722 10.2993 11.4998" stroke="black" stroke-width="1.5" stroke-linecap="round" stroke-linejoin="round"/>
<path d="M6.74682 14.4507C6.73408 14.4504 6.72176 14.4552 6.71257 14.464C6.70338 14.4729 6.69806 14.485 6.6978 14.4977V14.5007C6.6978 14.5278 6.71975 14.5497 6.74682 14.5497C6.77389 14.5497 6.79584 14.5278 6.79584 14.5007C6.79584 14.4736 6.77389 14.4517 6.74682 14.4517H6.74582" stroke="black" stroke-width="1.5" stroke-linecap="round" stroke-linejoin="round"/>
<path d="M6.79684 14.5012C6.79684 14.5288 6.77445 14.5512 6.74682 14.5512C6.7192 14.5512 6.6968 14.5288 6.6968 14.5012C6.6968 14.4736 6.7192 14.4512 6.74682 14.4512" stroke="black" stroke-width="1.5" stroke-linecap="round" stroke-linejoin="round"/>
<path d="M6.7468 14.4508C6.77443 14.4508 6.79683 14.4732 6.79683 14.5008" stroke="black" stroke-width="1.5" stroke-linecap="round" stroke-linejoin="round"/>
<path d="M10.2993 14.5012C10.2993 14.5288 10.2769 14.5512 10.2493 14.5512C10.2216 14.5512 10.1992 14.5288 10.1992 14.5012C10.1992 14.4736 10.2216 14.4512 10.2493 14.4512" stroke="black" stroke-width="1.5" stroke-linecap="round" stroke-linejoin="round"/>
<path d="M10.2493 14.4508C10.2769 14.4508 10.2993 14.4732 10.2993 14.5008" stroke="black" stroke-width="1.5" stroke-linecap="round" stroke-linejoin="round"/>
<path d="M6.74682 17.4526C6.72032 17.4521 6.69838 17.4731 6.6978 17.4996V17.5027C6.6978 17.5297 6.71975 17.5517 6.74682 17.5517C6.77389 17.5517 6.79584 17.5297 6.79584 17.5027C6.79584 17.4756 6.77389 17.4536 6.74682 17.4536H6.74582" stroke="black" stroke-width="1.5" stroke-linecap="round" stroke-linejoin="round"/>
<path d="M6.79684 17.5022C6.79684 17.5298 6.77445 17.5522 6.74682 17.5522C6.7192 17.5522 6.6968 17.5298 6.6968 17.5022C6.6968 17.4745 6.7192 17.4521 6.74682 17.4521" stroke="black" stroke-width="1.5" stroke-linecap="round" stroke-linejoin="round"/>
<path d="M6.7468 17.4527C6.77443 17.4527 6.79683 17.4751 6.79683 17.5028" stroke="black" stroke-width="1.5" stroke-linecap="round" stroke-linejoin="round"/>
<path d="M10.2993 17.5022C10.2993 17.5298 10.2769 17.5522 10.2493 17.5522C10.2216 17.5522 10.1992 17.5298 10.1992 17.5022C10.1992 17.4745 10.2216 17.4521 10.2493 17.4521" stroke="black" stroke-width="1.5" stroke-linecap="round" stroke-linejoin="round"/>
<path d="M10.2493 17.4527C10.2769 17.4527 10.2993 17.4751 10.2993 17.5028" stroke="black" stroke-width="1.5" stroke-linecap="round" stroke-linejoin="round"/>
<path d="M13.7997 11.5002C13.7997 11.5278 13.7773 11.5502 13.7497 11.5502C13.7221 11.5502 13.6997 11.5278 13.6997 11.5002C13.6997 11.4726 13.7221 11.4502 13.7497 11.4502" stroke="black" stroke-width="1.5" stroke-linecap="round" stroke-linejoin="round"/>
<path d="M13.7497 11.4498C13.7774 11.4498 13.7998 11.4722 13.7998 11.4998" stroke="black" stroke-width="1.5" stroke-linecap="round" stroke-linejoin="round"/>
</svg>
