<svg width="24" height="24" viewBox="0 0 24 24" fill="none" xmlns="http://www.w3.org/2000/svg">
<path d="M7.49813 2.99609V5.99734" stroke="black" stroke-width="1.5" stroke-linecap="round" stroke-linejoin="round"/>
<path d="M16.5019 2.99609V5.99734" stroke="black" stroke-width="1.5" stroke-linecap="round" stroke-linejoin="round"/>
<rect x="2.99625" y="4.49707" width="18.0075" height="16.5069" rx="3" stroke="black" stroke-width="1.5" stroke-linecap="round" stroke-linejoin="round"/>
<path d="M7.49813 16.0022H13.0004" stroke="black" stroke-width="1.5" stroke-linecap="round" stroke-linejoin="round"/>
<path d="M16.3768 16.1272C16.4459 16.1272 16.5019 16.0712 16.5019 16.0022C16.5019 15.9331 16.4459 15.8771 16.3768 15.8771C16.3078 15.8771 16.2518 15.9331 16.2518 16.0022C16.2518 16.0712 16.3078 16.1272 16.3768 16.1272" stroke="black" stroke-width="1.5" stroke-linecap="round" stroke-linejoin="round"/>
<path d="M16.5019 12.0002H10.8745" stroke="black" stroke-width="1.5" stroke-linecap="round" stroke-linejoin="round"/>
<path d="M7.62318 11.8752C7.55411 11.8752 7.49812 11.9311 7.49812 12.0002C7.49812 12.0693 7.55411 12.1253 7.62318 12.1253C7.69224 12.1253 7.74823 12.0693 7.74823 12.0002C7.74823 11.9311 7.69224 11.8752 7.62318 11.8752" stroke="black" stroke-width="1.5" stroke-linecap="round" stroke-linejoin="round"/>
</svg>
