<svg width="24" height="24" viewBox="0 0 24 24" fill="none" xmlns="http://www.w3.org/2000/svg">
<path d="M7.49813 2.99609V5.99734" stroke="black" stroke-width="1.5" stroke-linecap="round" stroke-linejoin="round"/>
<path d="M16.5019 2.99609V5.99734" stroke="black" stroke-width="1.5" stroke-linecap="round" stroke-linejoin="round"/>
<path d="M13.0004 21.0039H5.9975C4.33996 21.0039 2.99625 19.6602 2.99625 18.0027V7.49832C2.99625 5.84078 4.33996 4.49707 5.9975 4.49707H18.0025C19.66 4.49707 21.0037 5.84078 21.0037 7.49832V10.9998" stroke="black" stroke-width="1.5" stroke-linecap="round" stroke-linejoin="round"/>
<path d="M10.9996 15.0012H10.4994" stroke="black" stroke-width="1.5" stroke-linecap="round" stroke-linejoin="round"/>
<path d="M7.49813 14.8761C7.42906 14.8761 7.37307 14.9321 7.37307 15.0012C7.37307 15.0702 7.42906 15.1262 7.49813 15.1262C7.56719 15.1262 7.62318 15.0702 7.62318 15.0012C7.62318 14.9321 7.56719 14.8761 7.49813 14.8761" stroke="black" stroke-width="1.5" stroke-linecap="round" stroke-linejoin="round"/>
<path d="M13.0004 10.9992H10.4994" stroke="black" stroke-width="1.5" stroke-linecap="round" stroke-linejoin="round"/>
<path d="M7.49813 10.8742C7.42906 10.8742 7.37307 10.9302 7.37307 10.9992C7.37307 11.0683 7.42906 11.1243 7.49813 11.1243C7.56719 11.1243 7.62318 11.0683 7.62318 10.9992C7.62318 10.9302 7.56719 10.8742 7.49813 10.8742" stroke="black" stroke-width="1.5" stroke-linecap="round" stroke-linejoin="round"/>
<path d="M19.124 13.8799C19.9831 14.7385 20.2404 16.0301 19.7758 17.1523C19.3112 18.2746 18.2162 19.0063 17.0016 19.0063C15.787 19.0063 14.692 18.2746 14.2274 17.1523C13.7628 16.0301 14.02 14.7385 14.8792 13.8799C16.052 12.7093 17.9512 12.7093 19.124 13.8799" stroke="black" stroke-width="1.5" stroke-linecap="round" stroke-linejoin="round"/>
<path d="M21.0037 20.0038L19.123 18.123" stroke="black" stroke-width="1.5" stroke-linecap="round" stroke-linejoin="round"/>
</svg>
