<svg width="24" height="24" viewBox="0 0 24 24" fill="none" xmlns="http://www.w3.org/2000/svg">
<rect x="2.99625" y="2.99609" width="18.0075" height="18.0075" rx="3" stroke="black" stroke-width="1.5" stroke-linecap="round" stroke-linejoin="round"/>
<path d="M21.0037 7.99826H2.99625" stroke="black" stroke-width="1.5" stroke-linecap="round" stroke-linejoin="round"/>
<path d="M13.7497 11.4502C13.7227 11.4502 13.7007 11.4722 13.7007 11.4992C13.7007 11.5263 13.7227 11.5483 13.7497 11.5483C13.7768 11.5483 13.7987 11.5263 13.7987 11.4992C13.7987 11.4722 13.7768 11.4502 13.7497 11.4502" stroke="black" stroke-width="1.5" stroke-linecap="round" stroke-linejoin="round"/>
<path d="M10.2483 14.4512C10.2354 14.4512 10.223 14.4564 10.214 14.4656C10.2049 14.4748 10.2 14.4873 10.2003 14.5002C10.2003 14.5201 10.2123 14.5381 10.2307 14.5456C10.2492 14.5531 10.2704 14.5487 10.2843 14.5345C10.2982 14.5203 10.3022 14.499 10.2943 14.4808C10.2864 14.4625 10.2682 14.4508 10.2483 14.4512" stroke="black" stroke-width="1.5" stroke-linecap="round" stroke-linejoin="round"/>
<path d="M6.74681 14.4507C6.73355 14.4504 6.72076 14.4556 6.71147 14.4651C6.70219 14.4746 6.69723 14.4875 6.69779 14.5007C6.69779 14.5206 6.70985 14.5386 6.72829 14.5461C6.74673 14.5536 6.76789 14.5492 6.78183 14.535C6.79577 14.5208 6.79971 14.4995 6.79181 14.4813C6.7839 14.463 6.76572 14.4513 6.74581 14.4517" stroke="black" stroke-width="1.5" stroke-linecap="round" stroke-linejoin="round"/>
<path d="M10.2483 17.4532C10.2354 17.4531 10.223 17.4583 10.214 17.4676C10.2049 17.4768 10.2 17.4893 10.2003 17.5022C10.2003 17.5221 10.2123 17.54 10.2307 17.5475C10.2492 17.5551 10.2704 17.5507 10.2843 17.5365C10.2982 17.5222 10.3022 17.501 10.2943 17.4827C10.2864 17.4644 10.2682 17.4527 10.2483 17.4532" stroke="black" stroke-width="1.5" stroke-linecap="round" stroke-linejoin="round"/>
<path d="M6.74681 17.4532C6.73373 17.4529 6.7211 17.458 6.71184 17.4672C6.70259 17.4765 6.69751 17.4891 6.69779 17.5022C6.69779 17.5221 6.70985 17.54 6.72829 17.5475C6.74673 17.5551 6.76789 17.5507 6.78183 17.5365C6.79577 17.5222 6.79971 17.501 6.79181 17.4827C6.7839 17.4644 6.76572 17.4527 6.74581 17.4532" stroke="black" stroke-width="1.5" stroke-linecap="round" stroke-linejoin="round"/>
<path d="M17.2512 11.4512C17.2383 11.4512 17.2259 11.4564 17.2169 11.4656C17.2078 11.4748 17.2029 11.4873 17.2032 11.5002C17.2032 11.5201 17.2152 11.5381 17.2337 11.5456C17.2521 11.5531 17.2733 11.5487 17.2872 11.5345C17.3011 11.5203 17.3051 11.499 17.2972 11.4808C17.2893 11.4625 17.2711 11.4508 17.2512 11.4512" stroke="black" stroke-width="1.5" stroke-linecap="round" stroke-linejoin="round"/>
<path d="M13.7507 11.4512C13.7309 11.4512 13.713 11.4631 13.7054 11.4814C13.6979 11.4998 13.702 11.5209 13.7161 11.5349C13.7301 11.5489 13.7512 11.5531 13.7695 11.5455C13.7878 11.5379 13.7997 11.52 13.7997 11.5002C13.7997 11.4731 13.7778 11.4512 13.7507 11.4512" stroke="black" stroke-width="1.5" stroke-linecap="round" stroke-linejoin="round"/>
<path d="M13.7497 14.4512C13.7227 14.4512 13.7007 14.4731 13.7007 14.5002C13.7007 14.5273 13.7227 14.5492 13.7497 14.5492C13.7768 14.5492 13.7987 14.5273 13.7987 14.5002C13.7987 14.4731 13.7768 14.4512 13.7497 14.4512" stroke="black" stroke-width="1.5" stroke-linecap="round" stroke-linejoin="round"/>
<path d="M17.2512 14.4522C17.2383 14.4522 17.2259 14.4574 17.2169 14.4666C17.2078 14.4758 17.2029 14.4883 17.2032 14.5012C17.2032 14.5211 17.2152 14.539 17.2337 14.5466C17.2521 14.5541 17.2733 14.5497 17.2872 14.5355C17.3011 14.5213 17.3051 14.5 17.2972 14.4817C17.2893 14.4634 17.2711 14.4518 17.2512 14.4522" stroke="black" stroke-width="1.5" stroke-linecap="round" stroke-linejoin="round"/>
<path d="M13.7507 14.4531C13.7309 14.4531 13.713 14.4651 13.7054 14.4834C13.6979 14.5017 13.702 14.5228 13.7161 14.5368C13.7301 14.5508 13.7512 14.555 13.7695 14.5474C13.7878 14.5399 13.7997 14.522 13.7997 14.5022C13.7997 14.4751 13.7778 14.4531 13.7507 14.4531" stroke="black" stroke-width="1.5" stroke-linecap="round" stroke-linejoin="round"/>
</svg>
