<svg width="24" height="24" viewBox="0 0 24 24" fill="none" xmlns="http://www.w3.org/2000/svg">
<path d="M21.0037 7.99826H2.99625" stroke="black" stroke-width="1.5" stroke-linecap="round" stroke-linejoin="round"/>
<path d="M17.5023 13.001C19.9886 13.001 22.0042 15.0165 22.0042 17.5029C22.0042 19.9892 19.9886 22.0047 17.5023 22.0047C15.016 22.0047 13.0004 19.9892 13.0004 17.5029C13.0004 15.0165 15.016 13.001 17.5023 13.001" stroke="black" stroke-width="1.5" stroke-linecap="round" stroke-linejoin="round"/>
<path d="M14.6741 21.0036H5.9975C4.33996 21.0036 2.99625 19.6599 2.99625 18.0023V5.99734C2.99625 4.3398 4.33996 2.99609 5.9975 2.99609H18.0025C19.66 2.99609 21.0037 4.3398 21.0037 5.99734V14.674" stroke="black" stroke-width="1.5" stroke-linecap="round" stroke-linejoin="round"/>
<path d="M17.7242 15.291V17.6835" stroke="black" stroke-width="1.5" stroke-linecap="round" stroke-linejoin="round"/>
<path d="M15.7755 17.6838H17.7242" stroke="black" stroke-width="1.5" stroke-linecap="round" stroke-linejoin="round"/>
<path d="M6.79683 11.5002C6.79683 11.5278 6.77444 11.5502 6.74681 11.5502C6.71918 11.5502 6.69679 11.5278 6.69679 11.5002C6.69679 11.4726 6.71918 11.4502 6.74681 11.4502" stroke="black" stroke-width="1.5" stroke-linecap="round" stroke-linejoin="round"/>
<path d="M6.74681 11.4498C6.77444 11.4498 6.79683 11.4722 6.79683 11.4998" stroke="black" stroke-width="1.5" stroke-linecap="round" stroke-linejoin="round"/>
<path d="M10.2993 11.5002C10.2993 11.5278 10.2769 11.5502 10.2493 11.5502C10.2216 11.5502 10.1992 11.5278 10.1992 11.5002C10.1992 11.4726 10.2216 11.4502 10.2493 11.4502" stroke="black" stroke-width="1.5" stroke-linecap="round" stroke-linejoin="round"/>
<path d="M10.2493 11.4498C10.2769 11.4498 10.2993 11.4722 10.2993 11.4998" stroke="black" stroke-width="1.5" stroke-linecap="round" stroke-linejoin="round"/>
<path d="M6.79683 14.5012C6.79683 14.5288 6.77444 14.5512 6.74681 14.5512C6.71918 14.5512 6.69679 14.5288 6.69679 14.5012C6.69679 14.4736 6.71918 14.4512 6.74681 14.4512" stroke="black" stroke-width="1.5" stroke-linecap="round" stroke-linejoin="round"/>
<path d="M6.74681 14.4508C6.77444 14.4508 6.79683 14.4732 6.79683 14.5008" stroke="black" stroke-width="1.5" stroke-linecap="round" stroke-linejoin="round"/>
<path d="M10.2993 14.5012C10.2993 14.5288 10.2769 14.5512 10.2493 14.5512C10.2216 14.5512 10.1992 14.5288 10.1992 14.5012C10.1992 14.4736 10.2216 14.4512 10.2493 14.4512" stroke="black" stroke-width="1.5" stroke-linecap="round" stroke-linejoin="round"/>
<path d="M10.2493 14.4508C10.2769 14.4508 10.2993 14.4732 10.2993 14.5008" stroke="black" stroke-width="1.5" stroke-linecap="round" stroke-linejoin="round"/>
<path d="M13.7997 11.5002C13.7997 11.5278 13.7774 11.5502 13.7497 11.5502C13.7221 11.5502 13.6997 11.5278 13.6997 11.5002C13.6997 11.4726 13.7221 11.4502 13.7497 11.4502" stroke="black" stroke-width="1.5" stroke-linecap="round" stroke-linejoin="round"/>
<path d="M13.7497 11.4498C13.7774 11.4498 13.7997 11.4722 13.7997 11.4998" stroke="black" stroke-width="1.5" stroke-linecap="round" stroke-linejoin="round"/>
<path d="M6.79683 17.5022C6.79683 17.5298 6.77444 17.5522 6.74681 17.5522C6.71918 17.5522 6.69679 17.5298 6.69679 17.5022C6.69679 17.4745 6.71918 17.4521 6.74681 17.4521" stroke="black" stroke-width="1.5" stroke-linecap="round" stroke-linejoin="round"/>
<path d="M6.74681 17.4527C6.77444 17.4527 6.79683 17.4751 6.79683 17.5028" stroke="black" stroke-width="1.5" stroke-linecap="round" stroke-linejoin="round"/>
<path d="M10.2993 17.5022C10.2993 17.5298 10.2769 17.5522 10.2493 17.5522C10.2216 17.5522 10.1992 17.5298 10.1992 17.5022C10.1992 17.4745 10.2216 17.4521 10.2493 17.4521" stroke="black" stroke-width="1.5" stroke-linecap="round" stroke-linejoin="round"/>
<path d="M10.2493 17.4527C10.2769 17.4527 10.2993 17.4751 10.2993 17.5028" stroke="black" stroke-width="1.5" stroke-linecap="round" stroke-linejoin="round"/>
</svg>
