<svg width="24" height="24" viewBox="0 0 24 24" fill="none" xmlns="http://www.w3.org/2000/svg">
<path d="M7.49813 2.99609V5.99734" stroke="black" stroke-width="1.5" stroke-linecap="round" stroke-linejoin="round"/>
<path d="M16.5019 2.99609V5.99734" stroke="black" stroke-width="1.5" stroke-linecap="round" stroke-linejoin="round"/>
<path d="M7.49813 2.99609V5.99734" stroke="black" stroke-width="1.5" stroke-linecap="round" stroke-linejoin="round"/>
<path d="M16.5019 2.99609V5.99734" stroke="black" stroke-width="1.5" stroke-linecap="round" stroke-linejoin="round"/>
<path d="M8.99875 21.0039H5.9975C4.33996 21.0039 2.99625 19.6602 2.99625 18.0027V7.49832C2.99625 5.84078 4.33996 4.49707 5.9975 4.49707H18.0025C19.66 4.49707 21.0037 5.84078 21.0037 7.49832V8.99895" stroke="black" stroke-width="1.5" stroke-linecap="round" stroke-linejoin="round"/>
<path fill-rule="evenodd" clip-rule="evenodd" d="M19.0029 12H14.0008C12.8958 12 12 12.8958 12 14.0008V19.0029C12 20.1079 12.8958 21.0037 14.0008 21.0037H19.0029C20.1079 21.0037 21.0037 20.1079 21.0037 19.0029V14.0008C21.0037 12.8958 20.1079 12 19.0029 12Z" stroke="black" stroke-width="1.5" stroke-linecap="round" stroke-linejoin="round"/>
<path d="M15.2516 15.0015C15.2515 15.1396 15.1395 15.2514 15.0014 15.2513C14.8634 15.2512 14.7515 15.1393 14.7514 15.0013C14.7514 14.8632 14.8632 14.7512 15.0012 14.7511C15.0677 14.751 15.1314 14.7774 15.1784 14.8243C15.2254 14.8713 15.2517 14.9351 15.2516 15.0015" stroke="black" stroke-width="1.5" stroke-linecap="round" stroke-linejoin="round"/>
<path d="M21.0037 16.052C20.7968 16.0206 20.5878 16.0039 20.3785 16.002C17.9612 16.002 16.0017 17.9615 16.0017 20.3788V20.3788C16.0031 20.5881 16.0198 20.7971 16.0517 21.004" stroke="black" stroke-width="1.5" stroke-linecap="round" stroke-linejoin="round"/>
</svg>
