<svg width="24" height="24" viewBox="0 0 24 24" fill="none" xmlns="http://www.w3.org/2000/svg">
<path d="M6.99792 11.008H17.0021" stroke="black" stroke-width="1.5" stroke-linecap="round" stroke-linejoin="round"/>
<path d="M13.9452 6.83984V8.5072" stroke="black" stroke-width="1.5" stroke-linecap="round" stroke-linejoin="round"/>
<path d="M10.0548 6.83984V8.5072" stroke="black" stroke-width="1.5" stroke-linecap="round" stroke-linejoin="round"/>
<path fill-rule="evenodd" clip-rule="evenodd" d="M15.3347 17.0101H8.66528C8.22307 17.0101 7.79897 16.8344 7.48628 16.5217C7.17359 16.209 6.99792 15.7849 6.99792 15.3427V9.34022C6.99792 8.41936 7.74442 7.67285 8.66528 7.67285H15.3347C16.2556 7.67285 17.0021 8.41936 17.0021 9.34022V15.3427C17.0021 15.7849 16.8264 16.209 16.5137 16.5217C16.201 16.8344 15.7769 17.0101 15.3347 17.0101Z" stroke="black" stroke-width="1.5" stroke-linecap="round" stroke-linejoin="round"/>
<path fill-rule="evenodd" clip-rule="evenodd" d="M16.0017 21.0036H7.99833C5.23576 21.0036 2.99625 18.7641 2.99625 16.0015V7.99818C2.99625 5.2356 5.23576 2.99609 7.99833 2.99609H16.0017C18.7642 2.99609 21.0037 5.2356 21.0037 7.99818V16.0015C21.0037 18.7641 18.7642 21.0036 16.0017 21.0036Z" stroke="black" stroke-width="1.5" stroke-linecap="round" stroke-linejoin="round"/>
</svg>
