<svg width="24" height="24" viewBox="0 0 24 24" fill="none" xmlns="http://www.w3.org/2000/svg">
<path d="M7.49813 2.99609V5.99734" stroke="black" stroke-width="1.5" stroke-linecap="round" stroke-linejoin="round"/>
<path d="M16.5019 2.99609V5.99734" stroke="black" stroke-width="1.5" stroke-linecap="round" stroke-linejoin="round"/>
<rect x="2.99625" y="4.49707" width="18.0075" height="16.5069" rx="3" stroke="black" stroke-width="1.5" stroke-linecap="round" stroke-linejoin="round"/>
<path d="M8.49854 11H9.11328C9.64232 11 10.112 11.3385 10.2793 11.8404V11.8404C10.4158 12.25 10.3275 12.7012 10.0465 13.029L7.49813 16.0021H10.4994" stroke="black" stroke-width="1.5" stroke-linecap="round" stroke-linejoin="round"/>
<path d="M7.49813 12.0004C7.49813 11.4479 7.94603 11 8.49854 11" stroke="black" stroke-width="1.5" stroke-linecap="round" stroke-linejoin="round"/>
<path d="M14.501 11H15.1158C15.6448 11 16.1145 11.3385 16.2818 11.8404V11.8404C16.4183 12.25 16.33 12.7012 16.049 13.029L13.5006 16.0021H16.5019" stroke="black" stroke-width="1.5" stroke-linecap="round" stroke-linejoin="round"/>
<path d="M13.5006 12.0004C13.5006 11.4479 13.9485 11 14.501 11" stroke="black" stroke-width="1.5" stroke-linecap="round" stroke-linejoin="round"/>
</svg>
