<svg width="24" height="24" viewBox="0 0 24 24" fill="none" xmlns="http://www.w3.org/2000/svg">
<path d="M7.49813 2.99609V5.99734" stroke="black" stroke-width="1.5" stroke-linecap="round" stroke-linejoin="round"/>
<path d="M16.5019 2.99609V5.99734" stroke="black" stroke-width="1.5" stroke-linecap="round" stroke-linejoin="round"/>
<path fill-rule="evenodd" clip-rule="evenodd" d="M11.3283 10.4159C11.4541 10.1606 11.714 9.99902 11.9985 9.99902C12.2831 9.99902 12.543 10.1606 12.6688 10.4159L13.215 11.5233C13.3234 11.744 13.5339 11.8968 13.7773 11.9315L15.0008 12.1136C15.282 12.1548 15.5155 12.3521 15.6032 12.6225C15.6909 12.893 15.6175 13.1897 15.414 13.3881L14.5296 14.2505C14.3531 14.4218 14.2729 14.6695 14.3155 14.9118L14.5236 16.1283C14.572 16.4085 14.457 16.6919 14.2269 16.8591C13.9968 17.0263 13.6917 17.0482 13.4401 16.9156L12.3477 16.3413C12.1289 16.2245 11.8662 16.2245 11.6474 16.3413L10.5559 16.9156C10.3043 17.0482 9.99923 17.0263 9.76915 16.8591C9.53907 16.6919 9.42402 16.4085 9.47248 16.1283L9.68056 14.9118C9.72265 14.6695 9.64254 14.4221 9.46648 14.2505L8.58611 13.3881C8.38259 13.1898 8.30913 12.8933 8.39656 12.6229C8.48399 12.3525 8.71719 12.1552 8.99828 12.1136L10.2208 11.9315C10.4642 11.8968 10.6746 11.744 10.783 11.5233L11.3283 10.4159Z" stroke="black" stroke-width="1.5" stroke-linecap="round" stroke-linejoin="round"/>
<rect x="2.99625" y="4.49707" width="18.0075" height="16.5069" rx="3" stroke="black" stroke-width="1.5" stroke-linecap="round" stroke-linejoin="round"/>
</svg>
