<svg width="24" height="24" viewBox="0 0 24 24" fill="none" xmlns="http://www.w3.org/2000/svg">
<path d="M3.87862 13.5012H20.1213" stroke="black" stroke-width="1.5" stroke-linecap="round" stroke-linejoin="round"/>
<path fill-rule="evenodd" clip-rule="evenodd" d="M20.1482 13.164L20.9746 8.33702C21.0741 7.75563 20.9121 7.15995 20.5318 6.70906C20.1515 6.25818 19.5916 5.99805 19.0018 5.99805H4.99821C4.40852 5.99805 3.8488 6.25791 3.4685 6.70859C3.08821 7.15928 2.92607 7.75475 3.02539 8.33602L3.85173 13.163C3.88974 13.3865 3.88974 13.6148 3.85173 13.8383L3.02539 18.6653C2.92588 19.2467 3.08792 19.8424 3.46822 20.2933C3.84852 20.7442 4.40835 21.0043 4.99821 21.0043H19.0028C19.5923 21.0043 20.1518 20.7441 20.5319 20.2934C20.912 19.8428 21.0739 19.2474 20.9746 18.6663L20.1483 13.8393C20.1102 13.6158 20.1102 13.3875 20.1482 13.164Z" stroke="black" stroke-width="1.5" stroke-linecap="round" stroke-linejoin="round"/>
<path d="M5.13931 5.99734L5.02626 5.33407C4.92692 4.75297 5.08891 4.15764 5.46898 3.70698C5.84905 3.25633 6.40852 2.99622 6.99805 2.99609H17.0017C17.5914 2.99583 18.1511 3.25582 18.5313 3.70658C18.9114 4.15734 19.0733 4.7529 18.9735 5.33407L18.8605 5.99734" stroke="black" stroke-width="1.5" stroke-linecap="round" stroke-linejoin="round"/>
</svg>
