<svg width="24" height="24" viewBox="0 0 24 24" fill="none" xmlns="http://www.w3.org/2000/svg">
<rect x="2.99625" y="2.99609" width="18.0075" height="18.0075" rx="3" stroke="black" stroke-width="1.5" stroke-linecap="round" stroke-linejoin="round"/>
<path d="M21.0037 7.99826H2.99625" stroke="black" stroke-width="1.5" stroke-linecap="round" stroke-linejoin="round"/>
<path d="M17.3022 11.5002C17.3022 11.5278 17.2798 11.5502 17.2522 11.5502C17.2246 11.5502 17.2022 11.5278 17.2022 11.5002C17.2022 11.4726 17.2246 11.4502 17.2522 11.4502" stroke="black" stroke-width="1.5" stroke-linecap="round" stroke-linejoin="round"/>
<path d="M17.2522 11.4498C17.2798 11.4498 17.3022 11.4722 17.3022 11.4998" stroke="black" stroke-width="1.5" stroke-linecap="round" stroke-linejoin="round"/>
<path d="M13.7997 11.5002C13.7997 11.5278 13.7773 11.5502 13.7497 11.5502C13.7221 11.5502 13.6997 11.5278 13.6997 11.5002C13.6997 11.4726 13.7221 11.4502 13.7497 11.4502" stroke="black" stroke-width="1.5" stroke-linecap="round" stroke-linejoin="round"/>
<path d="M13.7497 11.4498C13.7773 11.4498 13.7997 11.4722 13.7997 11.4998" stroke="black" stroke-width="1.5" stroke-linecap="round" stroke-linejoin="round"/>
<path d="M10.2983 11.5002C10.2983 11.5278 10.2759 11.5502 10.2483 11.5502C10.2206 11.5502 10.1982 11.5278 10.1982 11.5002C10.1982 11.4726 10.2206 11.4502 10.2483 11.4502" stroke="black" stroke-width="1.5" stroke-linecap="round" stroke-linejoin="round"/>
<path d="M10.2483 11.4498C10.2759 11.4498 10.2983 11.4722 10.2983 11.4998" stroke="black" stroke-width="1.5" stroke-linecap="round" stroke-linejoin="round"/>
<path d="M6.79683 14.5012C6.79683 14.5288 6.77443 14.5512 6.74681 14.5512C6.71918 14.5512 6.69678 14.5288 6.69678 14.5012C6.69678 14.4736 6.71918 14.4512 6.74681 14.4512" stroke="black" stroke-width="1.5" stroke-linecap="round" stroke-linejoin="round"/>
<path d="M6.7468 14.4508C6.77443 14.4508 6.79683 14.4732 6.79683 14.5008" stroke="black" stroke-width="1.5" stroke-linecap="round" stroke-linejoin="round"/>
<path d="M10.2983 14.5012C10.2983 14.5288 10.2759 14.5512 10.2483 14.5512C10.2206 14.5512 10.1982 14.5288 10.1982 14.5012C10.1982 14.4736 10.2206 14.4512 10.2483 14.4512" stroke="black" stroke-width="1.5" stroke-linecap="round" stroke-linejoin="round"/>
<path d="M10.2483 14.4508C10.2759 14.4508 10.2983 14.4732 10.2983 14.5008" stroke="black" stroke-width="1.5" stroke-linecap="round" stroke-linejoin="round"/>
<path d="M13.7997 14.5012C13.7997 14.5288 13.7773 14.5512 13.7497 14.5512C13.7221 14.5512 13.6997 14.5288 13.6997 14.5012C13.6997 14.4736 13.7221 14.4512 13.7497 14.4512" stroke="black" stroke-width="1.5" stroke-linecap="round" stroke-linejoin="round"/>
<path d="M13.7497 14.4508C13.7773 14.4508 13.7997 14.4732 13.7997 14.5008" stroke="black" stroke-width="1.5" stroke-linecap="round" stroke-linejoin="round"/>
<path d="M17.3022 14.5012C17.3022 14.5288 17.2798 14.5512 17.2522 14.5512C17.2246 14.5512 17.2022 14.5288 17.2022 14.5012C17.2022 14.4736 17.2246 14.4512 17.2522 14.4512" stroke="black" stroke-width="1.5" stroke-linecap="round" stroke-linejoin="round"/>
<path d="M17.2522 14.4508C17.2798 14.4508 17.3022 14.4732 17.3022 14.5008" stroke="black" stroke-width="1.5" stroke-linecap="round" stroke-linejoin="round"/>
<path d="M17.3022 17.5022C17.3022 17.5298 17.2798 17.5522 17.2522 17.5522C17.2246 17.5522 17.2022 17.5298 17.2022 17.5022C17.2022 17.4745 17.2246 17.4521 17.2522 17.4521" stroke="black" stroke-width="1.5" stroke-linecap="round" stroke-linejoin="round"/>
<path d="M17.2522 17.4527C17.2798 17.4527 17.3022 17.4751 17.3022 17.5028" stroke="black" stroke-width="1.5" stroke-linecap="round" stroke-linejoin="round"/>
<path d="M13.7997 17.5022C13.7997 17.5298 13.7773 17.5522 13.7497 17.5522C13.7221 17.5522 13.6997 17.5298 13.6997 17.5022C13.6997 17.4745 13.7221 17.4521 13.7497 17.4521" stroke="black" stroke-width="1.5" stroke-linecap="round" stroke-linejoin="round"/>
<path d="M13.7497 17.4527C13.7773 17.4527 13.7997 17.4751 13.7997 17.5028" stroke="black" stroke-width="1.5" stroke-linecap="round" stroke-linejoin="round"/>
<path d="M10.2983 17.5022C10.2983 17.5298 10.2759 17.5522 10.2483 17.5522C10.2206 17.5522 10.1982 17.5298 10.1982 17.5022C10.1982 17.4745 10.2206 17.4521 10.2483 17.4521" stroke="black" stroke-width="1.5" stroke-linecap="round" stroke-linejoin="round"/>
<path d="M10.2483 17.4527C10.2759 17.4527 10.2983 17.4751 10.2983 17.5028" stroke="black" stroke-width="1.5" stroke-linecap="round" stroke-linejoin="round"/>
<path d="M6.79683 17.5022C6.79683 17.5298 6.77443 17.5522 6.74681 17.5522C6.71918 17.5522 6.69678 17.5298 6.69678 17.5022C6.69678 17.4745 6.71918 17.4521 6.74681 17.4521" stroke="black" stroke-width="1.5" stroke-linecap="round" stroke-linejoin="round"/>
<path d="M6.7468 17.4527C6.77443 17.4527 6.79683 17.4751 6.79683 17.5028" stroke="black" stroke-width="1.5" stroke-linecap="round" stroke-linejoin="round"/>
</svg>
