<svg width="24" height="24" viewBox="0 0 24 24" fill="none" xmlns="http://www.w3.org/2000/svg">
<path d="M21.0037 7.99826H2.99625" stroke="black" stroke-width="1.5" stroke-linecap="round" stroke-linejoin="round"/>
<path d="M22.0042 17.5029C22.0042 19.9892 19.9886 22.0047 17.5023 22.0047C15.016 22.0047 13.0004 19.9892 13.0004 17.5029C13.0004 15.0165 15.016 13.001 17.5023 13.001C18.6963 13.001 19.8413 13.4753 20.6856 14.3195C21.5299 15.1638 22.0042 16.3089 22.0042 17.5029" stroke="black" stroke-width="1.5" stroke-linecap="round" stroke-linejoin="round"/>
<path d="M14.6741 21.0036H5.9975C4.33995 21.0036 2.99625 19.6599 2.99625 18.0023V5.99734C2.99625 4.3398 4.33995 2.99609 5.9975 2.99609H18.0025C19.66 2.99609 21.0037 4.3398 21.0037 5.99734V14.674" stroke="black" stroke-width="1.5" stroke-linecap="round" stroke-linejoin="round"/>
<path d="M18.5027 17.252L17.5023 18.2524L16.5019 17.252" stroke="black" stroke-width="1.5" stroke-linecap="round" stroke-linejoin="round"/>
<path d="M6.79684 11.5002C6.79684 11.5278 6.77445 11.5502 6.74682 11.5502C6.7192 11.5502 6.6968 11.5278 6.6968 11.5002C6.6968 11.4726 6.7192 11.4502 6.74682 11.4502" stroke="black" stroke-width="1.5" stroke-linecap="round" stroke-linejoin="round"/>
<path d="M6.7468 11.4498C6.77443 11.4498 6.79683 11.4722 6.79683 11.4998" stroke="black" stroke-width="1.5" stroke-linecap="round" stroke-linejoin="round"/>
<path d="M10.2993 11.5002C10.2993 11.5278 10.2769 11.5502 10.2493 11.5502C10.2216 11.5502 10.1992 11.5278 10.1992 11.5002C10.1992 11.4726 10.2216 11.4502 10.2493 11.4502" stroke="black" stroke-width="1.5" stroke-linecap="round" stroke-linejoin="round"/>
<path d="M10.2493 11.4498C10.2769 11.4498 10.2993 11.4722 10.2993 11.4998" stroke="black" stroke-width="1.5" stroke-linecap="round" stroke-linejoin="round"/>
<path d="M13.7997 11.5002C13.7997 11.5278 13.7773 11.5502 13.7497 11.5502C13.7221 11.5502 13.6997 11.5278 13.6997 11.5002C13.6997 11.4726 13.7221 11.4502 13.7497 11.4502" stroke="black" stroke-width="1.5" stroke-linecap="round" stroke-linejoin="round"/>
<path d="M13.7497 11.4498C13.7774 11.4498 13.7998 11.4722 13.7998 11.4998" stroke="black" stroke-width="1.5" stroke-linecap="round" stroke-linejoin="round"/>
<path d="M6.79684 14.5012C6.79684 14.5288 6.77445 14.5512 6.74682 14.5512C6.7192 14.5512 6.6968 14.5288 6.6968 14.5012C6.6968 14.4736 6.7192 14.4512 6.74682 14.4512" stroke="black" stroke-width="1.5" stroke-linecap="round" stroke-linejoin="round"/>
<path d="M6.7468 14.4508C6.77443 14.4508 6.79683 14.4732 6.79683 14.5008" stroke="black" stroke-width="1.5" stroke-linecap="round" stroke-linejoin="round"/>
<path d="M10.2993 14.5012C10.2993 14.5288 10.2769 14.5512 10.2493 14.5512C10.2216 14.5512 10.1992 14.5288 10.1992 14.5012C10.1992 14.4736 10.2216 14.4512 10.2493 14.4512" stroke="black" stroke-width="1.5" stroke-linecap="round" stroke-linejoin="round"/>
<path d="M10.2493 14.4508C10.2769 14.4508 10.2993 14.4732 10.2993 14.5008" stroke="black" stroke-width="1.5" stroke-linecap="round" stroke-linejoin="round"/>
<path d="M6.79684 17.5022C6.79684 17.5298 6.77445 17.5522 6.74682 17.5522C6.7192 17.5522 6.6968 17.5298 6.6968 17.5022C6.6968 17.4745 6.7192 17.4521 6.74682 17.4521" stroke="black" stroke-width="1.5" stroke-linecap="round" stroke-linejoin="round"/>
<path d="M6.7468 17.4527C6.77443 17.4527 6.79683 17.4751 6.79683 17.5028" stroke="black" stroke-width="1.5" stroke-linecap="round" stroke-linejoin="round"/>
<path d="M10.2993 17.5022C10.2993 17.5298 10.2769 17.5522 10.2493 17.5522C10.2216 17.5522 10.1992 17.5298 10.1992 17.5022C10.1992 17.4745 10.2216 17.4521 10.2493 17.4521" stroke="black" stroke-width="1.5" stroke-linecap="round" stroke-linejoin="round"/>
<path d="M10.2493 17.4527C10.2769 17.4527 10.2993 17.4751 10.2993 17.5028" stroke="black" stroke-width="1.5" stroke-linecap="round" stroke-linejoin="round"/>
</svg>
