<svg width="24" height="24" viewBox="0 0 24 24" fill="none" xmlns="http://www.w3.org/2000/svg">
<path d="M16.5019 16.0022H10.9996" stroke="black" stroke-width="1.5" stroke-linecap="round" stroke-linejoin="round"/>
<path d="M7.49812 15.8771C7.42905 15.8771 7.37307 15.9331 7.37307 16.0022C7.37307 16.0712 7.42905 16.1272 7.49812 16.1272C7.56718 16.1272 7.62317 16.0712 7.62317 16.0022C7.62317 15.9331 7.56718 15.8771 7.49812 15.8771" stroke="black" stroke-width="1.5" stroke-linecap="round" stroke-linejoin="round"/>
<path d="M16.5019 12.0002H10.9996" stroke="black" stroke-width="1.5" stroke-linecap="round" stroke-linejoin="round"/>
<path d="M7.49812 2.99609V5.99734" stroke="black" stroke-width="1.5" stroke-linecap="round" stroke-linejoin="round"/>
<path d="M16.5019 2.99609V5.99734" stroke="black" stroke-width="1.5" stroke-linecap="round" stroke-linejoin="round"/>
<rect x="2.99625" y="4.49707" width="18.0075" height="16.5069" rx="3" stroke="black" stroke-width="1.5" stroke-linecap="round" stroke-linejoin="round"/>
<path d="M7.49812 11.8752C7.42905 11.8752 7.37307 11.9311 7.37307 12.0002C7.37307 12.0693 7.42905 12.1253 7.49812 12.1253C7.56718 12.1253 7.62317 12.0693 7.62317 12.0002C7.62317 11.9311 7.56718 11.8752 7.49812 11.8752" stroke="black" stroke-width="1.5" stroke-linecap="round" stroke-linejoin="round"/>
</svg>
