<svg width="24" height="24" viewBox="0 0 24 24" fill="none" xmlns="http://www.w3.org/2000/svg">
<path d="M7 7H17" stroke="black" stroke-width="1.5" stroke-linecap="round" stroke-linejoin="round"/>
<path fill-rule="evenodd" clip-rule="evenodd" d="M19 3.15601H5C3.895 3.15601 3 4.05101 3 5.15601V19C3 20.105 3.895 21 5 21H19C20.105 21 21 20.105 21 19V5.15601C21 4.05101 20.105 3.15601 19 3.15601Z" stroke="black" stroke-width="1.5" stroke-linecap="round" stroke-linejoin="round"/>
<path d="M13.884 17H17.1" stroke="black" stroke-width="1.5" stroke-linecap="round" stroke-linejoin="round"/>
<path d="M15.492 17V11L13.74 12.584" stroke="black" stroke-width="1.5" stroke-linecap="round" stroke-linejoin="round"/>
<path d="M7.5 12.152C7.691 11.492 8.274 11 8.995 11C9.869 11 10.578 11.708 10.578 12.583C10.578 13.365 9.943 14 9.161 14C9.943 14 10.578 14.635 10.578 15.417C10.578 16.291 9.87 17 8.995 17C8.274 17 7.691 16.508 7.5 15.848" stroke="black" stroke-width="1.5" stroke-linecap="round" stroke-linejoin="round"/>
</svg>
