<svg width="24" height="24" viewBox="0 0 24 24" fill="none" xmlns="http://www.w3.org/2000/svg">
<path d="M14.292 16.663L13.563 15.882L12.834 16.663" stroke="black" stroke-width="1.5" stroke-linecap="round" stroke-linejoin="round"/>
<path d="M18.834 19.405C18.287 19.778 17.629 20 16.917 20C15.027 20 13.495 18.468 13.495 16.578C13.495 16.349 13.519 16.125 13.562 15.908" stroke="black" stroke-width="1.5" stroke-linecap="round" stroke-linejoin="round"/>
<path d="M19.542 16.564L20.271 17.344L21 16.564" stroke="black" stroke-width="1.5" stroke-linecap="round" stroke-linejoin="round"/>
<path d="M14.999 13.822C15.546 13.449 16.204 13.228 16.916 13.228C18.806 13.228 20.338 14.76 20.338 16.65C20.338 16.879 20.314 17.102 20.27 17.32" stroke="black" stroke-width="1.5" stroke-linecap="round" stroke-linejoin="round"/>
<path d="M15 3V5" stroke="black" stroke-width="1.5" stroke-linecap="round" stroke-linejoin="round"/>
<path d="M7 3V5" stroke="black" stroke-width="1.5" stroke-linecap="round" stroke-linejoin="round"/>
<path d="M3 8H19" stroke="black" stroke-width="1.5" stroke-linecap="round" stroke-linejoin="round"/>
<path d="M19 10V6C19 4.895 18.105 4 17 4H5C3.895 4 3 4.895 3 6V17C3 18.105 3.895 19 5 19H10" stroke="black" stroke-width="1.5" stroke-linecap="round" stroke-linejoin="round"/>
<path d="M6.999 10.75C6.861 10.75 6.749 10.862 6.75 11C6.75 11.138 6.862 11.25 7 11.25C7.138 11.25 7.25 11.138 7.25 11C7.25 10.862 7.138 10.75 6.999 10.75" stroke="black" stroke-width="1.5" stroke-linecap="round" stroke-linejoin="round"/>
<path d="M6.999 14.75C6.861 14.75 6.749 14.862 6.75 15C6.75 15.138 6.862 15.25 7 15.25C7.138 15.25 7.25 15.138 7.25 15C7.25 14.862 7.138 14.75 6.999 14.75" stroke="black" stroke-width="1.5" stroke-linecap="round" stroke-linejoin="round"/>
<path d="M10.75 11.001C10.75 11.139 10.862 11.251 11 11.25C11.138 11.25 11.25 11.138 11.25 11C11.25 10.862 11.138 10.75 11 10.75C10.862 10.75 10.75 10.862 10.75 11.001" stroke="black" stroke-width="1.5" stroke-linecap="round" stroke-linejoin="round"/>
</svg>
