<svg width="24" height="24" viewBox="0 0 24 24" fill="none" xmlns="http://www.w3.org/2000/svg">
<path d="M20.7729 14.0006C21.678 10.0747 19.8734 6.0241 16.3494 4.07142C12.8254 2.11874 8.43415 2.73623 5.58531 5.58507C2.73647 8.43391 2.11897 12.8251 4.07165 16.3492C6.02433 19.8732 10.0749 21.6778 14.0008 20.7727" stroke="black" stroke-width="1.5" stroke-linecap="round" stroke-linejoin="round"/>
<path d="M19.0029 17.502V20.5032" stroke="black" stroke-width="1.5" stroke-linecap="round" stroke-linejoin="round"/>
<path d="M17.5023 19.0031H20.5035" stroke="black" stroke-width="1.5" stroke-linecap="round" stroke-linejoin="round"/>
<path d="M7.49813 10.9992H16.5019" stroke="black" stroke-width="1.5" stroke-linecap="round" stroke-linejoin="round"/>
<path d="M13.7507 7.24805V8.74867" stroke="black" stroke-width="1.5" stroke-linecap="round" stroke-linejoin="round"/>
<path d="M10.2493 7.24805V8.74867" stroke="black" stroke-width="1.5" stroke-linecap="round" stroke-linejoin="round"/>
<path fill-rule="evenodd" clip-rule="evenodd" d="M15.0013 16.5016H8.99876C8.16998 16.5016 7.49813 15.8297 7.49813 15.001V9.49867C7.49813 8.6699 8.16998 7.99805 8.99876 7.99805H15.0013C15.83 7.99805 16.5019 8.6699 16.5019 9.49867V15.001C16.5019 15.8297 15.83 16.5016 15.0013 16.5016Z" stroke="black" stroke-width="1.5" stroke-linecap="round" stroke-linejoin="round"/>
</svg>
