<svg width="24" height="24" viewBox="0 0 24 24" fill="none" xmlns="http://www.w3.org/2000/svg">
<path d="M14.6741 21.0036H5.9975C4.33996 21.0036 2.99625 19.6599 2.99625 18.0023V5.99734C2.99625 4.3398 4.33996 2.99609 5.9975 2.99609H18.0025C19.66 2.99609 21.0038 4.3398 21.0038 5.99734V14.675" stroke="black" stroke-width="1.5" stroke-linecap="round" stroke-linejoin="round"/>
<path d="M21.0038 7.99826H2.99625" stroke="black" stroke-width="1.5" stroke-linecap="round" stroke-linejoin="round"/>
<path d="M17.5023 13.001C19.9886 13.001 22.0042 15.0165 22.0042 17.5029C22.0042 19.9892 19.9886 22.0047 17.5023 22.0047C15.016 22.0047 13.0004 19.9892 13.0004 17.5029C13.0004 15.0165 15.016 13.001 17.5023 13.001" stroke="black" stroke-width="1.5" stroke-linecap="round" stroke-linejoin="round"/>
<path d="M18.7248 17.4521C18.6972 17.4521 18.6748 17.4745 18.6748 17.5022C18.6748 17.5298 18.6972 17.5522 18.7248 17.5522C18.7524 17.5522 18.7748 17.5298 18.7748 17.5022C18.7748 17.4745 18.7524 17.4521 18.7248 17.4521" stroke="black" stroke-width="1.5" stroke-linecap="round" stroke-linejoin="round"/>
<path d="M16.2788 17.4521C16.2656 17.4521 16.253 17.4574 16.2438 17.4669C16.2345 17.4763 16.2295 17.489 16.2298 17.5022C16.2298 17.5298 16.2522 17.5522 16.2798 17.5522C16.3074 17.5522 16.3298 17.5298 16.3298 17.5022C16.3298 17.4745 16.3074 17.4521 16.2798 17.4521" stroke="black" stroke-width="1.5" stroke-linecap="round" stroke-linejoin="round"/>
<path d="M13.7497 11.4502C13.7227 11.4502 13.7007 11.4722 13.7007 11.4992C13.7007 11.5263 13.7227 11.5483 13.7497 11.5483C13.7768 11.5483 13.7988 11.5263 13.7988 11.4992C13.7988 11.4722 13.7768 11.4502 13.7497 11.4502" stroke="black" stroke-width="1.5" stroke-linecap="round" stroke-linejoin="round"/>
<path d="M10.2483 11.4502C10.2354 11.4502 10.223 11.4554 10.214 11.4646C10.2049 11.4739 10.2 11.4863 10.2003 11.4992C10.2003 11.5192 10.2123 11.5371 10.2308 11.5446C10.2492 11.5521 10.2704 11.5478 10.2843 11.5335C10.2982 11.5193 10.3022 11.4981 10.2943 11.4798C10.2864 11.4615 10.2682 11.4498 10.2483 11.4502" stroke="black" stroke-width="1.5" stroke-linecap="round" stroke-linejoin="round"/>
<path d="M6.74681 11.4497C6.73355 11.4494 6.72076 11.4546 6.71147 11.4641C6.70219 11.4736 6.69723 11.4865 6.69779 11.4997C6.69779 11.5197 6.70985 11.5376 6.72829 11.5451C6.74673 11.5526 6.76789 11.5483 6.78183 11.534C6.79577 11.5198 6.79971 11.4986 6.79181 11.4803C6.7839 11.462 6.76572 11.4503 6.74581 11.4507" stroke="black" stroke-width="1.5" stroke-linecap="round" stroke-linejoin="round"/>
<path d="M10.2483 14.4512C10.2354 14.4512 10.223 14.4564 10.214 14.4656C10.2049 14.4748 10.2 14.4873 10.2003 14.5002C10.2003 14.5201 10.2123 14.5381 10.2308 14.5456C10.2492 14.5531 10.2704 14.5487 10.2843 14.5345C10.2982 14.5203 10.3022 14.499 10.2943 14.4808C10.2864 14.4625 10.2682 14.4508 10.2483 14.4512" stroke="black" stroke-width="1.5" stroke-linecap="round" stroke-linejoin="round"/>
<path d="M6.74681 14.4507C6.73355 14.4504 6.72076 14.4556 6.71147 14.4651C6.70219 14.4746 6.69723 14.4875 6.69779 14.5007C6.69779 14.5206 6.70985 14.5386 6.72829 14.5461C6.74673 14.5536 6.76789 14.5492 6.78183 14.535C6.79577 14.5208 6.79971 14.4995 6.79181 14.4813C6.7839 14.463 6.76572 14.4513 6.74581 14.4517" stroke="black" stroke-width="1.5" stroke-linecap="round" stroke-linejoin="round"/>
<path d="M10.2483 17.4532C10.2354 17.4531 10.223 17.4583 10.214 17.4676C10.2049 17.4768 10.2 17.4893 10.2003 17.5022C10.2003 17.5221 10.2123 17.54 10.2308 17.5475C10.2492 17.5551 10.2704 17.5507 10.2843 17.5365C10.2982 17.5222 10.3022 17.501 10.2943 17.4827C10.2864 17.4644 10.2682 17.4527 10.2483 17.4532" stroke="black" stroke-width="1.5" stroke-linecap="round" stroke-linejoin="round"/>
<path d="M6.74681 17.4532C6.73373 17.4529 6.72111 17.458 6.71185 17.4672C6.7026 17.4765 6.69752 17.4891 6.6978 17.5022C6.6978 17.5221 6.70986 17.54 6.7283 17.5475C6.74674 17.5551 6.7679 17.5507 6.78184 17.5365C6.79577 17.5222 6.79972 17.501 6.79181 17.4827C6.78391 17.4644 6.76573 17.4527 6.74582 17.4532" stroke="black" stroke-width="1.5" stroke-linecap="round" stroke-linejoin="round"/>
</svg>
