<svg width="24" height="24" viewBox="0 0 24 24" fill="none" xmlns="http://www.w3.org/2000/svg">
<path d="M18.3857 7.99854H19.4471C20.3075 7.99854 21.0038 8.69483 21.0038 9.55518V19.4483C21.0038 20.3077 20.3075 21.004 19.4471 21.004H8.55457C7.69421 21.004 6.99792 20.3077 6.99792 19.4473V18.0027" stroke="black" stroke-width="1.5" stroke-linecap="round" stroke-linejoin="round"/>
<path fill-rule="evenodd" clip-rule="evenodd" d="M3.99767 18.0029H15.3144C15.9837 18.0029 16.6079 17.6688 16.9791 17.1115L17.7134 16.0091C18.1516 15.3518 18.3857 14.5795 18.3857 13.7891V5.9979C18.3857 4.89244 17.4903 3.99707 16.3848 3.99707H6.38066C5.2752 3.99707 4.37982 4.89244 4.37982 5.9979V13.0568C4.37982 13.6781 4.23476 14.2904 3.95765 14.8466L3.10329 16.5553C2.77015 17.2206 3.25436 18.0029 3.99767 18.0029Z" stroke="black" stroke-width="1.5" stroke-linecap="round" stroke-linejoin="round"/>
<path d="M13.6517 9.59229L10.8375 12.4065L9.14881 10.7188" stroke="black" stroke-width="1.5" stroke-linecap="round" stroke-linejoin="round"/>
<path d="M8.37849 2.99658V4.99742" stroke="black" stroke-width="1.5" stroke-linecap="round" stroke-linejoin="round"/>
<path d="M14.381 2.99658V4.99742" stroke="black" stroke-width="1.5" stroke-linecap="round" stroke-linejoin="round"/>
</svg>
