<svg width="24" height="24" viewBox="0 0 24 24" fill="none" xmlns="http://www.w3.org/2000/svg">
<path d="M16 3V5" stroke="black" stroke-width="1.5" stroke-linecap="round" stroke-linejoin="round"/>
<path d="M7 3V5" stroke="black" stroke-width="1.5" stroke-linecap="round" stroke-linejoin="round"/>
<path d="M3 9H20" stroke="black" stroke-width="1.5" stroke-linecap="round" stroke-linejoin="round"/>
<path d="M20 10V7C20 5.343 18.657 4 17 4H6C4.343 4 3 5.343 3 7V16C3 17.657 4.343 19 6 19H9" stroke="black" stroke-width="1.5" stroke-linecap="round" stroke-linejoin="round"/>
<path fill-rule="evenodd" clip-rule="evenodd" d="M18.694 13.605L21.74 19.019C22.49 20.352 21.527 22 19.997 22H13.906C12.376 22 11.413 20.353 12.163 19.019L15.209 13.605C15.972 12.245 17.929 12.245 18.694 13.605Z" stroke="black" stroke-width="1.5" stroke-linecap="round" stroke-linejoin="round"/>
<path d="M16.951 17.42V15.585" stroke="black" stroke-width="1.5" stroke-linecap="round" stroke-linejoin="round"/>
<path d="M16.95 19.444C16.9 19.444 16.859 19.485 16.86 19.535C16.86 19.585 16.901 19.626 16.951 19.626C17.001 19.626 17.041 19.585 17.041 19.535C17.041 19.485 17.001 19.444 16.95 19.444" stroke="black" stroke-width="1.5" stroke-linecap="round" stroke-linejoin="round"/>
</svg>
