<svg width="24" height="24" viewBox="0 0 24 24" fill="none" xmlns="http://www.w3.org/2000/svg">
<path d="M16.5019 2.99609V5.99734" stroke="black" stroke-width="1.5" stroke-linecap="round" stroke-linejoin="round"/>
<path d="M7.49813 2.99609V5.99734" stroke="black" stroke-width="1.5" stroke-linecap="round" stroke-linejoin="round"/>
<path d="M12 21.0039H18.0025C19.66 21.0039 21.0038 19.6602 21.0038 18.0027V7.49832C21.0038 5.84078 19.66 4.49707 18.0025 4.49707H5.9975C4.33996 4.49707 2.99625 5.84078 2.99625 7.49832V12.0002" stroke="black" stroke-width="1.5" stroke-linecap="round" stroke-linejoin="round"/>
<path fill-rule="evenodd" clip-rule="evenodd" d="M6.77171 15.1587L6.99792 15.3884L7.22415 15.1587C7.63576 14.7381 8.19946 14.501 8.78798 14.501C9.3765 14.501 9.9402 14.7381 10.3518 15.1587V15.1587C11.2155 16.0411 11.2155 17.4521 10.3518 18.3345L8.23586 20.483C7.91003 20.816 7.46379 21.0037 6.99792 21.0037C6.53204 21.0037 6.0858 20.816 5.75997 20.483L3.64403 18.3346C2.78033 17.4521 2.78033 16.0412 3.64403 15.1587V15.1587C4.05564 14.7381 4.61935 14.501 5.20787 14.501C5.79639 14.501 6.3601 14.7381 6.77171 15.1587Z" stroke="black" stroke-width="1.5" stroke-linecap="round" stroke-linejoin="round"/>
</svg>
