<svg width="24" height="24" viewBox="0 0 24 24" fill="none" xmlns="http://www.w3.org/2000/svg">
<path fill-rule="evenodd" clip-rule="evenodd" d="M12 21V21C7.029 21 3 16.971 3 12V12C3 7.029 7.029 3 12 3H19C20.105 3 21 3.895 21 5V12C21 16.971 16.971 21 12 21Z" stroke="black" stroke-width="1.5" stroke-linecap="round" stroke-linejoin="round"/>
<path fill-rule="evenodd" clip-rule="evenodd" d="M11.929 15.016H8.5C7.948 15.016 7.5 14.568 7.5 14.016V9.98401C7.5 9.43201 7.948 8.98401 8.5 8.98401H11.929C12.481 8.98401 12.929 9.43201 12.929 9.98401V14.015C12.929 14.568 12.481 15.016 11.929 15.016Z" stroke="black" stroke-width="1.5" stroke-linecap="round" stroke-linejoin="round"/>
<path d="M12.929 11.286L14.883 9.33198C15.003 9.21198 15.166 9.14398 15.336 9.14398H15.858C16.212 9.14398 16.499 9.43098 16.499 9.78498V14.217C16.499 14.571 16.212 14.858 15.858 14.858H15.336C15.166 14.858 15.003 14.79 14.883 14.67L12.929 12.716" stroke="black" stroke-width="1.5" stroke-linecap="round" stroke-linejoin="round"/>
</svg>
