<svg width="24" height="24" viewBox="0 0 24 24" fill="none" xmlns="http://www.w3.org/2000/svg">
<rect x="7" y="8.5" width="7" height="7" rx="1.61538" stroke="black" stroke-width="1.5" stroke-linecap="round" stroke-linejoin="round"/>
<path d="M14 13.164L16.0089 14.4023C16.2095 14.5259 16.4612 14.5314 16.6669 14.4165C16.8725 14.3017 17 14.0846 17 13.849V10.151C17 9.91541 16.8725 9.69828 16.6669 9.58344C16.4612 9.4686 16.2095 9.47404 16.0089 9.59765L14 10.836" stroke="black" stroke-width="1.5" stroke-linecap="round" stroke-linejoin="round"/>
<path fill-rule="evenodd" clip-rule="evenodd" d="M4.62892 17.164C1.95099 13.3419 2.639 8.10687 6.21359 5.10649C9.78818 2.10611 15.0632 2.33596 18.3633 5.63589C21.6634 8.93582 21.8934 14.2109 18.8932 17.7856C15.893 21.3603 10.6579 22.0485 6.83571 19.3707L3.99844 20.0012L4.62892 17.164Z" stroke="black" stroke-width="1.5" stroke-linecap="round" stroke-linejoin="round"/>
</svg>
