<svg width="24" height="24" viewBox="0 0 24 24" fill="none" xmlns="http://www.w3.org/2000/svg">
<path d="M16.8571 12.0722V13.715C16.8571 14.5867 16.5108 15.4227 15.8944 16.0391C15.278 16.6555 14.442 17.0018 13.5703 17.0018H10.2847C8.46947 17.0018 6.99792 15.5302 6.99792 13.715V10.4294C6.99792 8.61413 8.46947 7.14258 10.2847 7.14258H11.9275" stroke="black" stroke-width="1.5" stroke-linecap="round" stroke-linejoin="round"/>
<path d="M12.9899 11.0122C13.575 11.5987 13.5741 12.5483 12.9879 13.1337C12.4018 13.7191 11.4522 13.7188 10.8664 13.133C10.2806 12.5472 10.2803 11.5976 10.8657 11.0115C11.4511 10.4253 12.4008 10.4244 12.9873 11.0095L12.9899 11.0122" stroke="black" stroke-width="1.5" stroke-linecap="round" stroke-linejoin="round"/>
<path d="M15.1625 7.6047H17.6273" stroke="black" stroke-width="1.5" stroke-linecap="round" stroke-linejoin="round"/>
<path d="M16.395 8.83784V6.37305" stroke="black" stroke-width="1.5" stroke-linecap="round" stroke-linejoin="round"/>
<rect x="2.99625" y="2.99609" width="18.0075" height="18.0075" rx="5" stroke="black" stroke-width="1.5" stroke-linecap="round" stroke-linejoin="round"/>
</svg>
