<svg width="24" height="24" viewBox="0 0 24 24" fill="none" xmlns="http://www.w3.org/2000/svg">
<path fill-rule="evenodd" clip-rule="evenodd" d="M15.9041 14.8947L13.8383 13.6213V11.379L15.9041 10.1056C16.0644 10.0068 16.2656 10.0024 16.43 10.0942C16.5945 10.1861 16.6964 10.3596 16.6964 10.548V14.4523C16.6964 14.6406 16.5945 14.8142 16.4301 14.906C16.2656 14.9978 16.0644 14.9935 15.9041 14.8947V14.8947Z" stroke="black" stroke-width="1.5" stroke-linecap="round" stroke-linejoin="round"/>
<rect x="6.30318" y="9.12207" width="7.53508" height="6.75559" rx="1.55833" stroke="black" stroke-width="1.5" stroke-linecap="round" stroke-linejoin="round"/>
<path d="M20.0033 9.99957V16.28C20.0033 18.8891 17.8882 21.0042 15.2791 21.0042H7.72044C5.11134 21.0042 2.99625 18.8891 2.99625 16.28V8.72126C2.99625 6.11216 5.11134 3.99707 7.72044 3.99707H14.0008" stroke="black" stroke-width="1.5" stroke-linecap="round" stroke-linejoin="round"/>
<circle cx="19.0029" cy="4.99693" r="2.00083" stroke="black" stroke-width="1.5" stroke-linecap="round" stroke-linejoin="round"/>
</svg>
