<svg width="24" height="24" viewBox="0 0 24 24" fill="none" xmlns="http://www.w3.org/2000/svg">
<path fill-rule="evenodd" clip-rule="evenodd" d="M12.4292 15.5727H7.99833C7.4461 15.5727 6.99792 15.1245 6.99792 14.5723V9.42815C6.99792 8.87592 7.4461 8.42773 7.99833 8.42773H12.4292C12.9814 8.42773 13.4296 8.87592 13.4296 9.42815V14.5733C13.4296 15.1255 12.9814 15.5727 12.4292 15.5727Z" stroke="black" stroke-width="1.5" stroke-linecap="round" stroke-linejoin="round"/>
<path d="M13.4296 11.286L15.4264 9.28913C15.5205 9.19509 15.6475 9.14307 15.7806 9.14307H16.5019C16.778 9.14307 17.0021 9.36716 17.0021 9.64327V14.3592C17.0021 14.6354 16.778 14.8594 16.5019 14.8594H15.7806C15.6475 14.8594 15.5205 14.8064 15.4264 14.7134L13.4296 12.7166" stroke="black" stroke-width="1.5" stroke-linecap="round" stroke-linejoin="round"/>
<path fill-rule="evenodd" clip-rule="evenodd" d="M17.0021 21.0041H6.99792C4.788 21.0041 2.99625 19.2123 2.99625 17.0024V6.99825C2.99625 4.78833 4.788 2.99658 6.99792 2.99658H17.0021C19.212 2.99658 21.0037 4.78833 21.0037 6.99825V17.0024C21.0037 19.2123 19.212 21.0041 17.0021 21.0041Z" stroke="black" stroke-width="1.5" stroke-linecap="round" stroke-linejoin="round"/>
</svg>
