<svg width="24" height="24" viewBox="0 0 24 24" fill="none" xmlns="http://www.w3.org/2000/svg">
<path d="M16.0017 14.4006H14.2609C13.7084 14.4006 13.2605 13.9527 13.2605 13.4002V10.599C13.2605 10.0465 13.7084 9.59863 14.2609 9.59863H16.0017" stroke="black" stroke-width="1.5" stroke-linecap="round" stroke-linejoin="round"/>
<path fill-rule="evenodd" clip-rule="evenodd" d="M7.11896 20.1242L3.87461 16.8799C3.3121 16.317 2.99625 15.5538 2.99625 14.758V9.24169C2.99625 8.44578 3.31273 7.68252 3.87561 7.11981L7.11996 3.87546C7.68268 3.31258 8.44593 2.99609 9.24185 2.99609H14.7581C15.5541 2.99609 16.3173 3.31258 16.88 3.87546L20.1254 7.12081C20.6879 7.68369 21.0037 8.44692 21.0037 9.2427V14.758C21.0037 15.5538 20.6879 16.317 20.1254 16.8799L16.881 20.1252C16.3179 20.688 15.5543 21.004 14.7581 21.0036H9.24185C8.44558 21.0036 7.68192 20.6874 7.11896 20.1242V20.1242Z" stroke="black" stroke-width="1.5" stroke-linecap="round" stroke-linejoin="round"/>
<path d="M10.7395 14.4006H8.99874C8.44622 14.4006 7.99832 13.9527 7.99832 13.4002V10.599C7.99832 10.0465 8.44622 9.59863 8.99874 9.59863H10.7395" stroke="black" stroke-width="1.5" stroke-linecap="round" stroke-linejoin="round"/>
</svg>
