<svg width="24" height="24" viewBox="0 0 24 24" fill="none" xmlns="http://www.w3.org/2000/svg">
<path d="M13.555 11.223L11.61 13.168L10.444 12.001" stroke="black" stroke-width="1.5" stroke-linecap="round" stroke-linejoin="round"/>
<path fill-rule="evenodd" clip-rule="evenodd" d="M7.275 12.814L7.939 13.683L8.083 14.764C8.163 15.364 8.634 15.836 9.234 15.916L10.319 16.061L11.187 16.725C11.667 17.092 12.334 17.092 12.814 16.725L13.683 16.061H13.682L14.764 15.917C15.364 15.837 15.836 15.366 15.916 14.766L16.061 13.682C16.061 13.683 16.397 13.243 16.725 12.814C17.092 12.334 17.092 11.667 16.725 11.187L16.061 10.318L15.917 9.23698C15.837 8.63698 15.366 8.16498 14.766 8.08498L13.681 7.93998L12.813 7.27598C12.333 6.90898 11.666 6.90898 11.186 7.27598L10.317 7.93998H10.318L9.236 8.08298C8.636 8.16298 8.164 8.63398 8.084 9.23398L7.939 10.318C7.939 10.317 7.603 10.757 7.275 11.186C6.908 11.667 6.908 12.333 7.275 12.814Z" stroke="black" stroke-width="1.5" stroke-linecap="round" stroke-linejoin="round"/>
<circle cx="12" cy="12" r="9" stroke="black" stroke-width="1.5" stroke-linecap="round" stroke-linejoin="round"/>
</svg>
