<svg width="24" height="24" viewBox="0 0 24 24" fill="none" xmlns="http://www.w3.org/2000/svg">
<path fill-rule="evenodd" clip-rule="evenodd" d="M3.495 13.465L4.69 15.029L4.948 16.976C5.091 18.056 5.94 18.906 7.02 19.05L8.972 19.311L10.535 20.505C11.4 21.166 12.599 21.166 13.464 20.505L15.028 19.31H15.026L16.974 19.052C18.054 18.909 18.904 18.06 19.048 16.98L19.308 15.028C19.308 15.029 19.912 14.238 20.503 13.465C21.164 12.6 21.163 11.401 20.503 10.536L19.31 8.97099L19.052 7.02399C18.909 5.94399 18.06 5.09399 16.98 4.94999L15.027 4.68999L13.464 3.49599C12.599 2.83499 11.4 2.83499 10.535 3.49599L8.971 4.68999H8.973L7.025 4.94899C5.945 5.09199 5.095 5.94099 4.951 7.02099L4.69 8.97299C4.69 8.97199 4.086 9.76299 3.495 10.536C2.835 11.4 2.835 12.6 3.495 13.465V13.465Z" stroke="black" stroke-width="1.5" stroke-linecap="round" stroke-linejoin="round"/>
<path fill-rule="evenodd" clip-rule="evenodd" d="M10.801 15.409L11.631 14.973C11.862 14.852 12.138 14.852 12.369 14.973L13.199 15.409C13.467 15.55 13.79 15.526 14.034 15.348L14.344 15.123C14.588 14.946 14.71 14.645 14.66 14.348L14.501 13.424C14.457 13.167 14.542 12.904 14.729 12.722L15.4 12.068C15.616 11.857 15.694 11.542 15.601 11.255L15.483 10.891C15.39 10.604 15.142 10.395 14.843 10.351L13.915 10.216C13.657 10.179 13.434 10.016 13.318 9.782L12.903 8.941C12.769 8.671 12.493 8.5 12.191 8.5H11.808C11.506 8.5 11.23 8.671 11.097 8.942L10.682 9.783C10.566 10.017 10.343 10.18 10.085 10.217L9.157 10.352C8.858 10.396 8.61 10.605 8.517 10.892L8.399 11.256C8.306 11.543 8.383 11.858 8.6 12.069L9.271 12.723C9.458 12.905 9.543 13.168 9.499 13.425L9.34 14.349C9.289 14.647 9.412 14.947 9.656 15.124L9.966 15.349C10.21 15.525 10.534 15.549 10.801 15.409V15.409Z" stroke="black" stroke-width="1.5" stroke-linecap="round" stroke-linejoin="round"/>
</svg>
