<svg width="24" height="24" viewBox="0 0 24 24" fill="none" xmlns="http://www.w3.org/2000/svg">
<path fill-rule="evenodd" clip-rule="evenodd" d="M17 21H7C4.791 21 3 19.209 3 17V7C3 4.791 4.791 3 7 3H17C19.209 3 21 4.791 21 7V17C21 19.209 19.209 21 17 21Z" stroke="black" stroke-width="1.5" stroke-linecap="round" stroke-linejoin="round"/>
<path d="M13.555 11.223L11.61 13.168L10.444 12.001" stroke="black" stroke-width="1.5" stroke-linecap="round" stroke-linejoin="round"/>
<path fill-rule="evenodd" clip-rule="evenodd" d="M7.276 12.814L7.94 13.683L8.084 14.764C8.164 15.364 8.635 15.836 9.235 15.916L10.319 16.061L11.187 16.724C11.667 17.091 12.334 17.091 12.814 16.724L13.683 16.06H13.682L14.764 15.916C15.364 15.836 15.836 15.365 15.916 14.765L16.061 13.681C16.061 13.682 16.397 13.242 16.725 12.813C17.092 12.333 17.092 11.666 16.725 11.186L16.061 10.317L15.917 9.23602C15.837 8.63602 15.366 8.16402 14.766 8.08402L13.681 7.94002L12.813 7.27702C12.333 6.91002 11.666 6.91002 11.186 7.27702L10.317 7.94002H10.318L9.236 8.08302C8.636 8.16302 8.164 8.63402 8.084 9.23402L7.939 10.318C7.939 10.317 7.603 10.757 7.275 11.186C6.909 11.667 6.909 12.333 7.276 12.814Z" stroke="black" stroke-width="1.5" stroke-linecap="round" stroke-linejoin="round"/>
</svg>
