<svg width="24" height="24" viewBox="0 0 24 24" fill="none" xmlns="http://www.w3.org/2000/svg">
<path d="M13.2505 10.499H15.7516C16.0278 10.499 16.2518 10.723 16.2518 10.9992V16.0013C16.2518 16.2776 16.0278 16.5015 15.7516 16.5015H13.2505" stroke="black" stroke-width="1.5" stroke-linecap="round" stroke-linejoin="round"/>
<path d="M10.2493 16.5017H7.74823C7.47197 16.5017 7.24802 16.2777 7.24802 16.0015V13.0002C7.24802 12.724 7.47197 12.5 7.74823 12.5H10.2493" stroke="black" stroke-width="1.5" stroke-linecap="round" stroke-linejoin="round"/>
<path fill-rule="evenodd" clip-rule="evenodd" d="M13.2505 16.5018H10.2493V7.99826C10.2493 7.722 10.4732 7.49805 10.7495 7.49805H12.7503C13.0266 7.49805 13.2505 7.722 13.2505 7.99826V16.5018Z" stroke="black" stroke-width="1.5" stroke-linecap="round" stroke-linejoin="round"/>
<path d="M20.5856 9.35174C20.8587 10.2081 20.9997 11.101 21.0037 11.9998C21.0037 16.9725 16.9726 21.0036 12 21.0036C7.02737 21.0036 2.99625 16.9725 2.99625 11.9998C2.99625 7.02721 7.02737 2.99609 12 2.99609C12.8988 3.00015 13.7918 3.14116 14.6481 3.41427" stroke="black" stroke-width="1.5" stroke-linecap="round" stroke-linejoin="round"/>
<path d="M18.0025 5.99811L20.5035 3.49707" stroke="black" stroke-width="1.5" stroke-linecap="round" stroke-linejoin="round"/>
<path d="M18.0025 3.49805L20.5035 5.99909" stroke="black" stroke-width="1.5" stroke-linecap="round" stroke-linejoin="round"/>
</svg>
