<svg width="24" height="24" viewBox="0 0 24 24" fill="none" xmlns="http://www.w3.org/2000/svg">
<path d="M5.62534 18.3575C8.50404 21.2443 12.9632 21.8366 16.4957 19.8014C20.0282 17.7662 21.7524 13.6113 20.6988 9.673C19.6452 5.73466 16.0768 2.99568 12 2.99609" stroke="black" stroke-width="1.5" stroke-linecap="round" stroke-linejoin="round"/>
<path d="M8.99875 14.0008V12" stroke="black" stroke-width="1.5" stroke-linecap="round" stroke-linejoin="round"/>
<path d="M12 14.0011V8.99902" stroke="black" stroke-width="1.5" stroke-linecap="round" stroke-linejoin="round"/>
<path d="M15.0012 14.0013V11" stroke="black" stroke-width="1.5" stroke-linecap="round" stroke-linejoin="round"/>
<path d="M3.72755 15.3769C3.69993 15.3769 3.67753 15.3993 3.67753 15.427C3.67753 15.4546 3.69993 15.477 3.72755 15.477C3.74543 15.477 3.76194 15.4675 3.77087 15.452C3.77981 15.4365 3.77981 15.4174 3.77087 15.402C3.76194 15.3865 3.74543 15.3769 3.72755 15.3769" stroke="black" stroke-width="1.5" stroke-linecap="round" stroke-linejoin="round"/>
<path d="M3.04627 11.9502C3.01865 11.9502 2.99625 11.9726 2.99625 12.0002C2.99625 12.0278 3.01865 12.0502 3.04627 12.0502C3.0739 12.0502 3.09629 12.0278 3.09629 12.0002C3.09629 11.9726 3.0739 11.9502 3.04627 11.9502" stroke="black" stroke-width="1.5" stroke-linecap="round" stroke-linejoin="round"/>
<path d="M3.72755 8.52343C3.71429 8.52343 3.70157 8.5287 3.69218 8.53808C3.6828 8.54746 3.67753 8.56018 3.67753 8.57345C3.67753 8.60108 3.69993 8.62347 3.72755 8.62347C3.74543 8.62347 3.76194 8.61394 3.77087 8.59846C3.77981 8.58298 3.77981 8.56392 3.77087 8.54844C3.76194 8.53296 3.74543 8.52343 3.72755 8.52343" stroke="black" stroke-width="1.5" stroke-linecap="round" stroke-linejoin="round"/>
<path d="M5.66836 5.61816C5.64096 5.61869 5.61887 5.64077 5.61834 5.66818C5.61834 5.6958 5.64074 5.7182 5.66836 5.7182C5.69599 5.7182 5.71838 5.6958 5.71838 5.66818C5.71838 5.64055 5.69599 5.61816 5.66836 5.61816" stroke="black" stroke-width="1.5" stroke-linecap="round" stroke-linejoin="round"/>
<path d="M8.57357 3.67773C8.54595 3.67773 8.52355 3.70012 8.52355 3.72775C8.52355 3.75537 8.54595 3.77777 8.57357 3.77777C8.6012 3.77777 8.62359 3.75537 8.62359 3.72775C8.62359 3.70012 8.6012 3.67773 8.57357 3.67773" stroke="black" stroke-width="1.5" stroke-linecap="round" stroke-linejoin="round"/>
</svg>
