<svg width="24" height="24" viewBox="0 0 24 24" fill="none" xmlns="http://www.w3.org/2000/svg">
<path d="M18.3666 5.63316C20.0865 7.35301 21.0374 9.69549 21.0029 12.1275C20.9684 14.5594 19.9515 16.874 18.1836 18.5444C14.694 21.7747 9.30598 21.7746 5.81642 18.5443C3.45692 16.3141 2.48089 12.9863 3.26199 9.8349C4.04309 6.68353 6.46034 4.19677 9.5883 3.32665C12.7163 2.45653 16.0704 3.33784 18.3666 5.63316" stroke="black" stroke-width="1.5" stroke-linecap="round" stroke-linejoin="round"/>
<path d="M13.2505 9.99902H15.7516C16.0278 9.99902 16.2518 10.223 16.2518 10.4992V15.5013C16.2518 15.7776 16.0278 16.0015 15.7516 16.0015H13.2505" stroke="black" stroke-width="1.5" stroke-linecap="round" stroke-linejoin="round"/>
<path d="M10.2493 16.0017H7.74823C7.47197 16.0017 7.24802 15.7777 7.24802 15.5015V12.5002C7.24802 12.224 7.47197 12 7.74823 12H10.2493" stroke="black" stroke-width="1.5" stroke-linecap="round" stroke-linejoin="round"/>
<path fill-rule="evenodd" clip-rule="evenodd" d="M13.2505 16.0018H10.2493V7.49826C10.2493 7.222 10.4732 6.99805 10.7495 6.99805H12.7503C13.0266 6.99805 13.2505 7.222 13.2505 7.49826V16.0018Z" stroke="black" stroke-width="1.5" stroke-linecap="round" stroke-linejoin="round"/>
</svg>
