<svg width="24" height="24" viewBox="0 0 24 24" fill="none" xmlns="http://www.w3.org/2000/svg">
<path d="M10.9 8L8.5 14" stroke="black" stroke-width="1.5" stroke-linecap="round" stroke-linejoin="round"/>
<path d="M12.5501 14.0001C12.55 14.0277 12.5276 14.05 12.5 14.05C12.4724 14.05 12.4501 14.0276 12.4501 14C12.4501 13.9724 12.4724 13.95 12.5 13.95C12.5276 13.95 12.55 13.9723 12.5501 13.9999V14.0001" stroke="black" stroke-width="1.5" stroke-linecap="round" stroke-linejoin="round"/>
<path d="M15.55 14C15.55 14.0276 15.5276 14.05 15.5 14.05C15.4724 14.05 15.45 14.0276 15.45 14C15.45 13.9724 15.4724 13.95 15.5 13.95C15.5276 13.95 15.55 13.9724 15.55 14V14.0001" stroke="black" stroke-width="1.5" stroke-linecap="round" stroke-linejoin="round"/>
<path fill-rule="evenodd" clip-rule="evenodd" d="M9.58582 19L11.2929 20.7071C11.6834 21.0976 12.3166 21.0976 12.7071 20.7071L14.4142 19H18C19.6569 19 21 17.6569 21 16V6C21 4.34315 19.6569 3 18 3H6C4.34315 3 3 4.34315 3 6V16C3 17.6569 4.34315 19 6 19H9.58582Z" stroke="black" stroke-width="1.5" stroke-linecap="round" stroke-linejoin="round"/>
</svg>
