<svg width="24" height="24" viewBox="0 0 24 24" fill="none" xmlns="http://www.w3.org/2000/svg">
<path d="M7.84726 9.73379C7.95465 9.84105 7.98683 10.0024 7.92879 10.1427C7.87075 10.2829 7.73393 10.3744 7.58215 10.3744C7.43037 10.3744 7.29354 10.2829 7.2355 10.1427C7.17746 10.0024 7.20965 9.84105 7.31704 9.73379V9.73379C7.46351 9.5875 7.70079 9.5875 7.84726 9.73379" stroke="black" stroke-width="1.5" stroke-linecap="round" stroke-linejoin="round"/>
<path d="M12.2651 9.73379C12.3725 9.84105 12.4047 10.0024 12.3466 10.1427C12.2886 10.2829 12.1518 10.3744 12 10.3744C11.8482 10.3744 11.7114 10.2829 11.6534 10.1427C11.5953 10.0024 11.6275 9.84105 11.7349 9.73379V9.73379C11.8814 9.5875 12.1186 9.5875 12.2651 9.73379" stroke="black" stroke-width="1.5" stroke-linecap="round" stroke-linejoin="round"/>
<path fill-rule="evenodd" clip-rule="evenodd" d="M20.9967 6.15975V13.8099C20.997 14.6526 20.6625 15.4609 20.0668 16.0569C19.4712 16.653 18.6631 16.988 17.8204 16.9883H12.9944L7.99233 20.9899V16.9883H6.16657C4.41178 16.9883 2.98924 15.5657 2.98924 13.8109V13.8109V6.15975C2.98924 4.40496 4.41178 2.98242 6.16657 2.98242H17.8194C19.5742 2.98242 20.9967 4.40496 20.9967 6.15975V6.15975Z" stroke="black" stroke-width="1.5" stroke-linecap="round" stroke-linejoin="round"/>
<path d="M17.0021 13.0002H15.0013" stroke="black" stroke-width="1.5" stroke-linecap="round" stroke-linejoin="round"/>
</svg>
