<svg width="24" height="24" viewBox="0 0 24 24" fill="none" xmlns="http://www.w3.org/2000/svg">
<path d="M5 21H19" stroke="black" stroke-width="1.3929" stroke-linecap="round" stroke-linejoin="round"/>
<path fill-rule="evenodd" clip-rule="evenodd" d="M8.45499 14.973C5.14499 14.674 2.60999 11.692 3.04999 8.218C3.43299 5.187 6.17099 3 9.22699 3H15C18.375 3 21.099 5.787 20.997 9.185C20.899 12.469 18.033 15 14.748 15H12.188C11.402 15.785 10.279 16.909 9.30699 17.881C8.99199 18.196 8.45499 17.972 8.45499 17.526V14.973Z" stroke="black" stroke-width="1.3929" stroke-linecap="round" stroke-linejoin="round"/>
<path d="M12.177 9.073C12.275 9.171 12.275 9.329 12.177 9.427C12.079 9.525 11.921 9.525 11.823 9.427C11.725 9.329 11.725 9.171 11.823 9.073C11.921 8.975 12.079 8.976 12.177 9.073" stroke="black" stroke-width="1.5" stroke-linecap="round" stroke-linejoin="round"/>
<path d="M16.177 9.073C16.275 9.171 16.275 9.329 16.177 9.427C16.079 9.525 15.921 9.525 15.823 9.427C15.725 9.329 15.725 9.171 15.823 9.073C15.921 8.975 16.079 8.976 16.177 9.073" stroke="black" stroke-width="1.5" stroke-linecap="round" stroke-linejoin="round"/>
<path d="M8.177 9.073C8.275 9.171 8.275 9.329 8.177 9.427C8.079 9.525 7.921 9.525 7.823 9.427C7.725 9.329 7.725 9.171 7.823 9.073C7.921 8.975 8.079 8.976 8.177 9.073" stroke="black" stroke-width="1.5" stroke-linecap="round" stroke-linejoin="round"/>
</svg>
