<svg width="24" height="24" viewBox="0 0 24 24" fill="none" xmlns="http://www.w3.org/2000/svg">
<path fill-rule="evenodd" clip-rule="evenodd" d="M9.188 15L11.1 17.55C11.55 18.15 12.45 18.15 12.9 17.55L14.812 15H18C19.657 15 21 13.657 21 12V6C21 4.343 19.657 3 18 3H6C4.343 3 3 4.343 3 6V12C3 13.657 4.343 15 6 15H9.188Z" stroke="black" stroke-width="1.5" stroke-linecap="round" stroke-linejoin="round"/>
<path d="M7 21H17" stroke="black" stroke-width="1.5" stroke-linecap="round" stroke-linejoin="round"/>
<path d="M12.177 9.323C12.275 9.421 12.275 9.579 12.177 9.677C12.079 9.775 11.921 9.775 11.823 9.677C11.725 9.579 11.725 9.421 11.823 9.323C11.921 9.225 12.079 9.226 12.177 9.323" stroke="black" stroke-width="1.5" stroke-linecap="round" stroke-linejoin="round"/>
<path d="M16.177 9.323C16.275 9.421 16.275 9.579 16.177 9.677C16.079 9.775 15.921 9.775 15.823 9.677C15.725 9.579 15.725 9.421 15.823 9.323C15.921 9.225 16.079 9.226 16.177 9.323" stroke="black" stroke-width="1.5" stroke-linecap="round" stroke-linejoin="round"/>
<path d="M8.177 9.323C8.275 9.421 8.275 9.579 8.177 9.677C8.079 9.775 7.921 9.775 7.823 9.677C7.725 9.579 7.725 9.421 7.823 9.323C7.921 9.225 8.079 9.226 8.177 9.323" stroke="black" stroke-width="1.5" stroke-linecap="round" stroke-linejoin="round"/>
</svg>
