<svg width="24" height="24" viewBox="0 0 24 24" fill="none" xmlns="http://www.w3.org/2000/svg">
<path fill-rule="evenodd" clip-rule="evenodd" d="M12 6.49805C8.68531 6.49805 5.99751 8.7381 5.99751 11.4982C6.04761 13.1637 6.96618 14.6814 8.41851 15.4983C8.27425 15.8904 8.07364 16.2593 7.82303 16.5935C7.6847 16.7955 7.68813 17.0625 7.83158 17.2609C7.97504 17.4593 8.22761 17.5461 8.46273 17.478C9.26461 17.2445 10.0194 16.8724 10.6928 16.3783C11.1238 16.4591 11.5615 16.4993 12 16.4983C15.3147 16.4983 18.0025 14.2583 18.0025 11.4982C18.0025 8.73809 15.3147 6.49805 12 6.49805Z" stroke="black" stroke-width="1.5" stroke-linecap="round" stroke-linejoin="round"/>
<rect x="2.99625" y="2.99609" width="18.0075" height="18.0075" rx="5" stroke="black" stroke-width="1.5" stroke-linecap="round" stroke-linejoin="round"/>
</svg>
