<svg width="24" height="24" viewBox="0 0 24 24" fill="none" xmlns="http://www.w3.org/2000/svg">
<path d="M13.0004 17.0019H18.0025C18.7985 17.002 19.5619 16.6858 20.1248 16.1229C20.6876 15.5601 21.0037 14.7967 21.0037 14.0007V5.99734C21.0037 5.20135 20.6876 4.43794 20.1248 3.87508C19.5619 3.31223 18.7985 2.99609 18.0025 2.99609H5.9975C5.2015 2.99609 4.43809 3.31223 3.87524 3.87508C3.31238 4.43794 2.99625 5.20135 2.99625 5.99734V14.0007C2.99625 14.7967 3.31238 15.5601 3.87524 16.1229C4.43809 16.6858 5.2015 17.002 5.9975 17.0019H7.99833V21.0036L13.0004 17.0019" stroke="black" stroke-width="1.5" stroke-linecap="round" stroke-linejoin="round"/>
<path fill-rule="evenodd" clip-rule="evenodd" d="M11.3859 13.501H8.99875V11.1138C8.99854 10.8689 9.09587 10.6341 9.26922 10.4612L12.9616 6.76874C13.1346 6.59544 13.3694 6.49805 13.6143 6.49805C13.8591 6.49805 14.0939 6.59544 14.2669 6.76874L15.731 8.23276C15.9043 8.40573 16.0017 8.64054 16.0017 8.8854C16.0017 9.13025 15.9043 9.36506 15.731 9.53803L12.0385 13.2305C11.8654 13.4035 11.6307 13.5007 11.3859 13.501V13.501Z" stroke="black" stroke-width="1.5" stroke-linecap="round" stroke-linejoin="round"/>
</svg>
