<svg width="24" height="24" viewBox="0 0 24 24" fill="none" xmlns="http://www.w3.org/2000/svg">
<path d="M17.0021 1.99609C19.7647 1.99609 22.0042 4.2356 22.0042 6.99818C22.0042 9.76075 19.7647 12.0003 17.0021 12.0003C14.2395 12.0003 12 9.76075 12 6.99818C12 4.2356 14.2395 1.99609 17.0021 1.99609" stroke="black" stroke-width="1.5" stroke-linecap="round" stroke-linejoin="round"/>
<path d="M20.0033 14.0006V14.3758C20.0033 15.941 18.7344 17.2099 17.1692 17.2099H12.4452L7.72122 20.9895V17.2099H5.83043C4.26516 17.2099 2.99625 15.941 2.99625 14.3758V6.8166C2.99625 5.25133 4.26516 3.98242 5.83043 3.98242H9.99917" stroke="black" stroke-width="1.5" stroke-linecap="round" stroke-linejoin="round"/>
<path d="M18.3607 6.94231C18.3453 6.94116 18.3302 6.94662 18.3191 6.95732C18.308 6.96802 18.302 6.98294 18.3026 6.99833C18.3026 7.02108 18.3164 7.04157 18.3374 7.05018C18.3585 7.05879 18.3827 7.05381 18.3986 7.03758C18.4146 7.02135 18.4191 6.99709 18.4101 6.97619C18.4011 6.95529 18.3804 6.94191 18.3576 6.94231" stroke="black" stroke-width="1.5" stroke-linecap="round" stroke-linejoin="round"/>
<path d="M15.6435 6.94225C15.6129 6.94335 15.5888 6.96889 15.5895 6.99956C15.5902 7.03023 15.6155 7.05461 15.6462 7.05426C15.6768 7.0539 15.7015 7.02895 15.7015 6.99827C15.7015 6.96772 15.6771 6.9428 15.6465 6.94225" stroke="black" stroke-width="1.5" stroke-linecap="round" stroke-linejoin="round"/>
</svg>
