<svg width="24" height="24" viewBox="0 0 24 24" fill="none" xmlns="http://www.w3.org/2000/svg">
<path fill-rule="evenodd" clip-rule="evenodd" d="M12 3.99707C7.02793 3.99707 2.99625 7.35715 2.99625 11.4973C3.07141 13.9956 4.44926 16.2722 6.62777 17.4975C6.41137 18.0855 6.11047 18.6389 5.73453 19.1402C5.52704 19.4432 5.53217 19.8438 5.74736 20.1413C5.96254 20.4389 6.34141 20.5692 6.69409 20.467C7.89692 20.1168 9.02908 19.5585 10.0392 18.8175C10.6857 18.9387 11.3422 18.999 12 18.9975C16.9721 18.9975 21.0038 15.6374 21.0038 11.4973C21.0038 7.35716 16.9721 3.99707 12 3.99707Z" stroke="black" stroke-width="1.5" stroke-linecap="round" stroke-linejoin="round"/>
<path d="M8.99875 9.99923H15.0012" stroke="black" stroke-width="1.5" stroke-linecap="round" stroke-linejoin="round"/>
<path d="M8.99875 13.0002H12" stroke="black" stroke-width="1.5" stroke-linecap="round" stroke-linejoin="round"/>
</svg>
