<svg width="24" height="24" viewBox="0 0 24 24" fill="none" xmlns="http://www.w3.org/2000/svg">
<path fill-rule="evenodd" clip-rule="evenodd" d="M7.751 16.495L8.17 13.842C7.24 11.784 7.962 9.31599 9.95 8.13399C12.085 6.86299 14.847 7.56499 16.117 9.69999C17.387 11.835 16.686 14.596 14.55 15.867C13.27 16.629 11.708 16.696 10.373 16.082L7.751 16.495H7.751Z" stroke="black" stroke-width="1.5" stroke-linecap="round" stroke-linejoin="round"/>
<path fill-rule="evenodd" clip-rule="evenodd" d="M3 5.15601V19C3 20.105 3.895 21 5 21H19C20.105 21 21 20.105 21 19V5.15601C21 4.05101 20.105 3.15601 19 3.15601H5C3.895 3.15601 3 4.05101 3 5.15601Z" stroke="black" stroke-width="1.5" stroke-linecap="round" stroke-linejoin="round"/>
</svg>
