<svg width="24" height="24" viewBox="0 0 24 24" fill="none" xmlns="http://www.w3.org/2000/svg">
<path fill-rule="evenodd" clip-rule="evenodd" d="M14.0453 14H12V11.9547C11.9998 11.7449 12.0832 11.5437 12.2317 11.3956L15.3954 8.23194C15.5434 8.08364 15.7442 8.00021 15.9537 8C16.1633 7.99979 16.3643 8.08282 16.5126 8.23083L16.5137 8.23194L17.7681 9.48632C17.9164 9.63433 17.9998 9.83519 18 10.0447C18.0002 10.2542 17.9172 10.4553 17.7692 10.6036L17.7681 10.6047L14.6045 13.7683C14.4561 13.9165 14.255 13.9998 14.0453 14V14Z" stroke="black" stroke-width="1.5" stroke-linecap="round" stroke-linejoin="round"/>
<path d="M14.4142 19H18C19.6569 19 21 17.6569 21 16V6C21 4.34315 19.6569 3 18 3H6C4.34315 3 3 4.34315 3 6V16C3 17.6569 4.34315 19 6 19H9.58582" stroke="black" stroke-width="1.5" stroke-linecap="round" stroke-linejoin="round"/>
<path d="M14.4142 19L12.7071 20.7071C12.3166 21.0976 11.6834 21.0976 11.2929 20.7071L9.58582 19" stroke="black" stroke-width="1.5" stroke-linecap="round" stroke-linejoin="round"/>
<path d="M6.05 14.0001C6.04997 14.0277 6.02758 14.05 5.99998 14.05C5.97238 14.05 5.95001 14.0276 5.95 14C5.94999 13.9724 5.97234 13.95 5.99994 13.95C6.01322 13.95 6.02596 13.9553 6.03536 13.9646C6.04475 13.974 6.05002 13.9868 6.05 14.0001" stroke="black" stroke-width="1.5" stroke-linecap="round" stroke-linejoin="round"/>
<path d="M9.05 14.0001C9.04997 14.0277 9.02758 14.05 8.99998 14.05C8.97238 14.05 8.95001 14.0276 8.95 14C8.94999 13.9724 8.97234 13.95 8.99994 13.95C9.01322 13.95 9.02596 13.9553 9.03536 13.9646C9.04475 13.974 9.05002 13.9868 9.05 14.0001" stroke="black" stroke-width="1.5" stroke-linecap="round" stroke-linejoin="round"/>
</svg>
