<svg width="24" height="24" viewBox="0 0 24 24" fill="none" xmlns="http://www.w3.org/2000/svg">
<path d="M8.24292 9.73379C8.38952 9.88021 8.38967 10.1177 8.24325 10.2643C8.09683 10.4109 7.8593 10.4111 7.7127 10.2647C7.5661 10.1183 7.56595 9.88072 7.71237 9.73412L7.7127 9.73379C7.85917 9.5875 8.09645 9.5875 8.24292 9.73379" stroke="black" stroke-width="1.5" stroke-linecap="round" stroke-linejoin="round"/>
<path d="M12.6608 9.73379C12.8074 9.88021 12.8075 10.1177 12.6611 10.2643C12.5147 10.4109 12.2771 10.4111 12.1305 10.2647C11.9839 10.1183 11.9838 9.88072 12.1302 9.73412L12.1305 9.73379C12.277 9.5875 12.5143 9.5875 12.6608 9.73379" stroke="black" stroke-width="1.5" stroke-linecap="round" stroke-linejoin="round"/>
<path d="M13.0004 17.0019H18.0025C18.7985 17.002 19.5619 16.6858 20.1248 16.1229C20.6876 15.5601 21.0037 14.7967 21.0037 14.0007V5.99734C21.0037 5.20135 20.6876 4.43794 20.1248 3.87508C19.5619 3.31223 18.7985 2.99609 18.0025 2.99609H5.9975C5.2015 2.99609 4.43809 3.31223 3.87524 3.87508C3.31238 4.43794 2.99625 5.20135 2.99625 5.99734V14.0007C2.99625 14.7967 3.31238 15.5601 3.87524 16.1229C4.43809 16.6858 5.2015 17.002 5.9975 17.0019H7.99833V21.0036L13.0004 17.0019" stroke="black" stroke-width="1.5" stroke-linecap="round" stroke-linejoin="round"/>
<path d="M16.3973 12.5001V7.49805" stroke="black" stroke-width="1.5" stroke-linecap="round" stroke-linejoin="round"/>
</svg>
