<svg width="24" height="24" viewBox="0 0 24 24" fill="none" xmlns="http://www.w3.org/2000/svg">
<path d="M13 14H17" stroke="black" stroke-width="1.5" stroke-linecap="round" stroke-linejoin="round"/>
<path d="M7 13.7545L7.82972 14.5L9.5 13" stroke="black" stroke-width="1.5" stroke-linecap="round" stroke-linejoin="round"/>
<path d="M13 9H17" stroke="black" stroke-width="1.5" stroke-linecap="round" stroke-linejoin="round"/>
<path d="M7 8.7545L7.82972 9.5L9.5 8" stroke="black" stroke-width="1.5" stroke-linecap="round" stroke-linejoin="round"/>
<path d="M14.4142 19H18C19.6569 19 21 17.6569 21 16V6C21 4.34315 19.6569 3 18 3H6C4.34315 3 3 4.34315 3 6V16C3 17.6569 4.34315 19 6 19H9.58582" stroke="black" stroke-width="1.5" stroke-linecap="round" stroke-linejoin="round"/>
<path d="M14.4142 19L12.7071 20.7071C12.3166 21.0976 11.6834 21.0976 11.2929 20.7071L9.58582 19" stroke="black" stroke-width="1.5" stroke-linecap="round" stroke-linejoin="round"/>
</svg>
