<svg width="24" height="24" viewBox="0 0 24 24" fill="none" xmlns="http://www.w3.org/2000/svg">
<path fill-rule="evenodd" clip-rule="evenodd" d="M18 3H6C4.34315 3 3 4.34315 3 6V15C3 16.6569 4.34315 18 6 18H8.007V20.4429C8.007 20.6567 8.12954 20.8515 8.3222 20.9441C8.51487 21.0367 8.74357 21.0107 8.91049 20.8771L12.507 18H18C19.6569 18 21 16.6569 21 15V6C21 4.34315 19.6569 3 18 3Z" stroke="black" stroke-width="1.5" stroke-linecap="round" stroke-linejoin="round"/>
<path d="M11.4 7L9 13" stroke="black" stroke-width="1.5" stroke-linecap="round" stroke-linejoin="round"/>
<path d="M13.0501 13.0001C13.05 13.0277 13.0276 13.05 13 13.05C12.9724 13.05 12.9501 13.0276 12.9501 13C12.9501 12.9724 12.9724 12.95 13 12.95C13.0276 12.95 13.05 12.9723 13.0501 12.9999V13.0001" stroke="black" stroke-width="1.5" stroke-linecap="round" stroke-linejoin="round"/>
<path d="M16.05 13C16.05 13.0276 16.0276 13.05 16 13.05C15.9724 13.05 15.95 13.0276 15.95 13C15.95 12.9724 15.9724 12.95 16 12.95C16.0276 12.95 16.05 12.9724 16.05 13V13.0001" stroke="black" stroke-width="1.5" stroke-linecap="round" stroke-linejoin="round"/>
</svg>
