<svg width="24" height="24" viewBox="0 0 24 24" fill="none" xmlns="http://www.w3.org/2000/svg">
<path d="M12.0884 11.6618C12.1373 11.7106 12.1373 11.7898 12.0884 11.8386C12.0396 11.8875 11.9604 11.8875 11.9116 11.8386C11.8627 11.7898 11.8627 11.7106 11.9116 11.6618C11.935 11.6383 11.9668 11.6252 12 11.6252C12.0332 11.6252 12.065 11.6383 12.0884 11.6618" stroke="black" stroke-width="1.5" stroke-linecap="round" stroke-linejoin="round"/>
<path fill-rule="evenodd" clip-rule="evenodd" d="M12 3.99707C7.02793 3.99707 2.99625 7.35715 2.99625 11.4973C3.07141 13.9956 4.44926 16.2722 6.62776 17.4975C6.41137 18.0855 6.11046 18.6389 5.73453 19.1402C5.52704 19.4432 5.53217 19.8438 5.74735 20.1413C5.96254 20.4389 6.34141 20.5692 6.69409 20.467C7.89692 20.1168 9.02907 19.5585 10.0392 18.8175C10.6857 18.9387 11.3422 18.999 12 18.9975C16.9721 18.9975 21.0037 15.6374 21.0037 11.4973C21.0037 7.35716 16.9721 3.99707 12 3.99707Z" stroke="black" stroke-width="1.5" stroke-linecap="round" stroke-linejoin="round"/>
<path d="M16.0901 11.6618C16.1389 11.7106 16.1389 11.7898 16.0901 11.8386C16.0413 11.8875 15.9621 11.8875 15.9133 11.8386C15.8644 11.7898 15.8644 11.7106 15.9133 11.6618C15.9367 11.6383 15.9685 11.6252 16.0017 11.6252C16.0348 11.6252 16.0667 11.6383 16.0901 11.6618" stroke="black" stroke-width="1.5" stroke-linecap="round" stroke-linejoin="round"/>
<path d="M8.08675 11.6618C8.13559 11.7106 8.13558 11.7898 8.08675 11.8386C8.03791 11.8875 7.95873 11.8875 7.9099 11.8386C7.86106 11.7898 7.86106 11.7106 7.9099 11.6618C7.93335 11.6383 7.96516 11.6252 7.99832 11.6252C8.03149 11.6252 8.0633 11.6383 8.08675 11.6618" stroke="black" stroke-width="1.5" stroke-linecap="round" stroke-linejoin="round"/>
</svg>
