<svg width="24" height="24" viewBox="0 0 24 24" fill="none" xmlns="http://www.w3.org/2000/svg">
<path fill-rule="evenodd" clip-rule="evenodd" d="M12.507 18H18C19.6569 18 21 16.6569 21 15V6C21 4.34315 19.6569 3 18 3H6C4.34315 3 3 4.34315 3 6V15C3 16.6569 4.34315 18 6 18H8.007V20.4429C8.007 20.6567 8.12953 20.8515 8.3222 20.9441C8.51487 21.0367 8.74356 21.0107 8.91049 20.8771L12.507 18Z" stroke="black" stroke-width="1.5" stroke-linecap="round" stroke-linejoin="round"/>
<path fill-rule="evenodd" clip-rule="evenodd" d="M14.6204 13.2071L17.7351 10.0923C18.0279 9.79937 18.0279 9.32456 17.7351 9.03167L16.4231 7.71967C16.2824 7.57902 16.0916 7.5 15.8927 7.5C15.6938 7.5 15.503 7.57902 15.3624 7.71967L12.2476 10.8343C12.0601 11.0218 11.9547 11.2762 11.9547 11.5414V13.5H13.9133C14.1785 13.5 14.4329 13.3946 14.6204 13.2071Z" stroke="black" stroke-width="1.5" stroke-linecap="round" stroke-linejoin="round"/>
<path d="M9.05 13.5001C9.04996 13.5277 9.02757 13.55 8.99997 13.55C8.97238 13.55 8.95001 13.5276 8.95 13.5C8.94999 13.4724 8.97234 13.45 8.99994 13.45C9.01322 13.45 9.02597 13.4553 9.03536 13.4646C9.04475 13.474 9.05002 13.4868 9.05 13.5001" stroke="black" stroke-width="1.5" stroke-linecap="round" stroke-linejoin="round"/>
<path d="M6.05 13.5001C6.04996 13.5277 6.02757 13.55 5.99997 13.55C5.97238 13.55 5.95001 13.5276 5.95 13.5C5.94999 13.4724 5.97234 13.45 5.99994 13.45C6.01322 13.45 6.02597 13.4553 6.03536 13.4646C6.04475 13.474 6.05002 13.4868 6.05 13.5001" stroke="black" stroke-width="1.5" stroke-linecap="round" stroke-linejoin="round"/>
</svg>
