<svg width="24" height="24" viewBox="0 0 24 24" fill="none" xmlns="http://www.w3.org/2000/svg">
<path d="M12.5 8.83105H17" stroke="black" stroke-width="1.5" stroke-linecap="round" stroke-linejoin="round"/>
<path d="M7.33623 8.83407L8 9.43047L9.33623 8.23047" stroke="black" stroke-width="1.5" stroke-linecap="round" stroke-linejoin="round"/>
<path d="M12.5 13H17" stroke="black" stroke-width="1.5" stroke-linecap="round" stroke-linejoin="round"/>
<path d="M7.33623 12.8341L8 13.4305L9.33622 12.2305" stroke="black" stroke-width="1.5" stroke-linecap="round" stroke-linejoin="round"/>
<path fill-rule="evenodd" clip-rule="evenodd" d="M12.507 18H18C19.6569 18 21 16.6569 21 15V6C21 4.34315 19.6569 3 18 3H6C4.34315 3 3 4.34315 3 6V15C3 16.6569 4.34315 18 6 18H8.007V20.4429C8.007 20.6567 8.12953 20.8515 8.3222 20.9441C8.51487 21.0367 8.74356 21.0107 8.91049 20.8771L12.507 18Z" stroke="black" stroke-width="1.5" stroke-linecap="round" stroke-linejoin="round"/>
</svg>
