<svg width="24" height="24" viewBox="0 0 24 24" fill="none" xmlns="http://www.w3.org/2000/svg">
<path d="M7.99834 4.99707H5.99751C4.89248 4.99707 3.99667 5.89287 3.99667 6.9979V19.0029C3.99667 20.1079 4.89248 21.0037 5.99751 21.0037H10.9996" stroke="black" stroke-width="1.5" stroke-linecap="round" stroke-linejoin="round"/>
<rect x="7.99832" y="2.99609" width="8.00333" height="4.00167" rx="1" stroke="black" stroke-width="1.5" stroke-linecap="round" stroke-linejoin="round"/>
<path d="M16.0016 4.99707H18.0025C19.1075 4.99707 20.0033 5.89287 20.0033 6.9979V9.99915" stroke="black" stroke-width="1.5" stroke-linecap="round" stroke-linejoin="round"/>
<path d="M17.5023 13.001C19.9886 13.001 22.0042 15.0165 22.0042 17.5029C22.0042 19.9892 19.9886 22.0047 17.5023 22.0047C15.016 22.0047 13.0004 19.9892 13.0004 17.5029C13.0004 15.0165 15.016 13.001 17.5023 13.001" stroke="black" stroke-width="1.5" stroke-linecap="round" stroke-linejoin="round"/>
<path d="M19.0329 16.7148L17.1196 18.6281L15.9694 17.4813" stroke="black" stroke-width="1.5" stroke-linecap="round" stroke-linejoin="round"/>
</svg>
