<svg width="24" height="24" viewBox="0 0 24 24" fill="none" xmlns="http://www.w3.org/2000/svg">
<path d="M11 5H21" stroke="black" stroke-width="1.5" stroke-linecap="round" stroke-linejoin="round"/>
<path d="M11 12H21" stroke="black" stroke-width="1.5" stroke-linecap="round" stroke-linejoin="round"/>
<path d="M11 19H21" stroke="black" stroke-width="1.5" stroke-linecap="round" stroke-linejoin="round"/>
<path d="M6.41421 10.5858C7.19526 11.3668 7.19526 12.6332 6.41421 13.4142C5.63316 14.1953 4.36683 14.1953 3.58578 13.4142C2.80473 12.6332 2.80473 11.3668 3.58578 10.5858C4.36683 9.80474 5.63316 9.80474 6.41421 10.5858" stroke="black" stroke-width="1.5" stroke-linecap="round" stroke-linejoin="round"/>
<path d="M6.41421 17.5858C7.19526 18.3668 7.19526 19.6332 6.41421 20.4142C5.63316 21.1953 4.36683 21.1953 3.58578 20.4142C2.80473 19.6332 2.80473 18.3668 3.58578 17.5858C4.36683 16.8047 5.63316 16.8047 6.41421 17.5858" stroke="black" stroke-width="1.5" stroke-linecap="round" stroke-linejoin="round"/>
<path d="M3.5 3.5L6.5 6.5" stroke="black" stroke-width="1.5" stroke-linecap="round" stroke-linejoin="round"/>
<path d="M3.5 6.5L6.5 3.5" stroke="black" stroke-width="1.5" stroke-linecap="round" stroke-linejoin="round"/>
</svg>
