<svg width="24" height="24" viewBox="0 0 24 24" fill="none" xmlns="http://www.w3.org/2000/svg">
<path d="M3.99666 14.0008V6.9979C3.99666 5.89287 4.89246 4.99707 5.99749 4.99707" stroke="black" stroke-width="1.5" stroke-linecap="round" stroke-linejoin="round"/>
<path d="M18.0025 4.99707C19.1075 4.99707 20.0033 5.89287 20.0033 6.9979V19.0029C20.0033 20.1079 19.1075 21.0037 18.0025 21.0037H9.99916" stroke="black" stroke-width="1.5" stroke-linecap="round" stroke-linejoin="round"/>
<path d="M5.9975 4.99728H7.99833" stroke="black" stroke-width="1.5" stroke-linecap="round" stroke-linejoin="round"/>
<rect x="7.99832" y="2.99609" width="8.00333" height="4.00167" rx="1" stroke="black" stroke-width="1.5" stroke-linecap="round" stroke-linejoin="round"/>
<path d="M16.0017 4.99728H18.0025" stroke="black" stroke-width="1.5" stroke-linecap="round" stroke-linejoin="round"/>
<path d="M16.0017 10.9992H11.2497" stroke="black" stroke-width="1.5" stroke-linecap="round" stroke-linejoin="round"/>
<path d="M16.0017 14.8762H11.2497" stroke="black" stroke-width="1.5" stroke-linecap="round" stroke-linejoin="round"/>
<path d="M8.12338 10.8742C8.05431 10.8742 7.99833 10.9302 7.99833 10.9992C7.99833 11.0683 8.05431 11.1243 8.12338 11.1243C8.19244 11.1243 8.24843 11.0683 8.24843 10.9992C8.24843 10.9302 8.19244 10.8742 8.12338 10.8742" stroke="black" stroke-width="1.5" stroke-linecap="round" stroke-linejoin="round"/>
<path d="M8.12338 14.7511C8.05431 14.7511 7.99833 14.8071 7.99833 14.8762C7.99833 14.9452 8.05431 15.0012 8.12338 15.0012C8.19244 15.0012 8.24843 14.9452 8.24843 14.8762C8.24843 14.8071 8.19244 14.7511 8.12338 14.7511" stroke="black" stroke-width="1.5" stroke-linecap="round" stroke-linejoin="round"/>
<path d="M3.49646 20.5032L6.49771 17.502" stroke="black" stroke-width="1.5" stroke-linecap="round" stroke-linejoin="round"/>
<path d="M6.49771 20.5032L3.49646 17.502" stroke="black" stroke-width="1.5" stroke-linecap="round" stroke-linejoin="round"/>
</svg>
