<svg width="24" height="24" viewBox="0 0 24 24" fill="none" xmlns="http://www.w3.org/2000/svg">
<path d="M10.3326 7.58203L8.04121 9.87466L6.66442 8.49908" stroke="black" stroke-width="1.5" stroke-linecap="round" stroke-linejoin="round"/>
<path d="M13.789 6.99797C13.067 4.44851 10.6299 2.77615 7.99142 3.01956C5.35289 3.26297 3.26291 5.35295 3.0195 7.99148C2.7761 10.63 4.44845 13.0671 6.99792 13.7891" stroke="black" stroke-width="1.5" stroke-linecap="round" stroke-linejoin="round"/>
<path d="M15.5015 15.8906V17.7247" stroke="black" stroke-width="1.5" stroke-linecap="round" stroke-linejoin="round"/>
<path d="M15.5015 13.318C15.4677 13.318 15.4403 13.3454 15.4403 13.3791C15.4403 13.4129 15.4677 13.4403 15.5015 13.4403C15.5352 13.4403 15.5626 13.4129 15.5626 13.3791C15.5626 13.3629 15.5562 13.3474 15.5447 13.3359C15.5332 13.3244 15.5177 13.318 15.5015 13.318V13.318" stroke="black" stroke-width="1.5" stroke-linecap="round" stroke-linejoin="round"/>
<rect x="9.99916" y="9.99902" width="11.0046" height="11.0046" rx="4" stroke="black" stroke-width="1.5" stroke-linecap="round" stroke-linejoin="round"/>
</svg>
