<svg width="24" height="24" viewBox="0 0 24 24" fill="none" xmlns="http://www.w3.org/2000/svg">
<circle cx="15.5002" cy="15.5004" r="5.50037" stroke="black" stroke-width="1.5" stroke-linecap="round" stroke-linejoin="round"/>
<path d="M13.7881 6.99952C13.0676 4.44871 10.6303 2.7746 7.99082 3.01749C5.35136 3.26039 3.26054 5.35121 3.01764 7.99068C2.77474 10.6301 4.44886 13.0674 6.99967 13.788" stroke="black" stroke-width="1.5" stroke-linecap="round" stroke-linejoin="round"/>
<path d="M15.5002 15.8896V17.7228" stroke="black" stroke-width="1.5" stroke-linecap="round" stroke-linejoin="round"/>
<path d="M15.5503 13.3781C15.5503 13.4058 15.5279 13.4282 15.5002 13.4282C15.4726 13.4282 15.4502 13.4058 15.4502 13.3781C15.4502 13.3505 15.4726 13.3281 15.5002 13.3281" stroke="black" stroke-width="1.5" stroke-linecap="round" stroke-linejoin="round"/>
<path d="M15.5002 13.3277C15.5135 13.3277 15.5262 13.333 15.5356 13.3424C15.545 13.3518 15.5503 13.3645 15.5503 13.3778" stroke="black" stroke-width="1.5" stroke-linecap="round" stroke-linejoin="round"/>
<path d="M10.1209 8.47677C10.1209 8.5044 10.0985 8.52679 10.0709 8.52679C10.0432 8.52679 10.0208 8.5044 10.0208 8.47677C10.0208 8.44915 10.0432 8.42675 10.0709 8.42675" stroke="black" stroke-width="1.5" stroke-linecap="round" stroke-linejoin="round"/>
<path d="M10.0709 8.42637C10.0985 8.42637 10.1209 8.44876 10.1209 8.47639" stroke="black" stroke-width="1.5" stroke-linecap="round" stroke-linejoin="round"/>
<path d="M6.97867 8.47677C6.97867 8.5044 6.95627 8.52679 6.92865 8.52679C6.90102 8.52679 6.87863 8.5044 6.87863 8.47677C6.87863 8.44915 6.90102 8.42675 6.92865 8.42675" stroke="black" stroke-width="1.5" stroke-linecap="round" stroke-linejoin="round"/>
<path d="M6.92865 8.42637C6.95627 8.42637 6.97867 8.44876 6.97867 8.47639" stroke="black" stroke-width="1.5" stroke-linecap="round" stroke-linejoin="round"/>
</svg>
