<svg width="24" height="24" viewBox="0 0 24 24" fill="none" xmlns="http://www.w3.org/2000/svg">
<path d="M13.795 7.00481C13.0742 4.45312 10.6361 2.77842 7.99572 3.02141C5.35534 3.26439 3.26379 5.35594 3.02081 7.99632C2.77782 10.6367 4.45252 13.0748 7.00421 13.7956" stroke="black" stroke-width="1.5" stroke-linecap="round" stroke-linejoin="round"/>
<circle cx="15.5015" cy="15.5013" r="5.50229" stroke="black" stroke-width="1.5" stroke-linecap="round" stroke-linejoin="round"/>
<path d="M15.5015 13.2549V14.5391" stroke="black" stroke-width="1.5" stroke-linecap="round" stroke-linejoin="round"/>
<path d="M16.9937 17.2902C16.0637 16.6839 15.5025 15.6492 15.5015 14.5391" stroke="black" stroke-width="1.5" stroke-linecap="round" stroke-linejoin="round"/>
<path d="M15.5015 14.5391C15.5004 15.6492 14.9392 16.6839 14.0092 17.2902" stroke="black" stroke-width="1.5" stroke-linecap="round" stroke-linejoin="round"/>
<path d="M13.8508 14.5383H17.1521" stroke="black" stroke-width="1.5" stroke-linecap="round" stroke-linejoin="round"/>
<path d="M6.97691 8.47579C6.97691 8.50342 6.95451 8.52582 6.92689 8.52582C6.89926 8.52582 6.87687 8.50342 6.87687 8.47579C6.87687 8.44817 6.89926 8.42577 6.92689 8.42577" stroke="black" stroke-width="1.5" stroke-linecap="round" stroke-linejoin="round"/>
<path d="M6.92688 8.42539C6.95451 8.42539 6.97691 8.44779 6.97691 8.47541" stroke="black" stroke-width="1.5" stroke-linecap="round" stroke-linejoin="round"/>
<path d="M10.1202 8.47579C10.1202 8.50342 10.0978 8.52582 10.0702 8.52582C10.0426 8.52582 10.0202 8.50342 10.0202 8.47579C10.0202 8.44817 10.0426 8.42577 10.0702 8.42577" stroke="black" stroke-width="1.5" stroke-linecap="round" stroke-linejoin="round"/>
<path d="M10.0702 8.42539C10.0835 8.42539 10.0962 8.43066 10.1056 8.44004C10.1149 8.44942 10.1202 8.46215 10.1202 8.47541" stroke="black" stroke-width="1.5" stroke-linecap="round" stroke-linejoin="round"/>
</svg>
