<svg width="24" height="24" viewBox="0 0 24 24" fill="none" xmlns="http://www.w3.org/2000/svg">
<path d="M16.0017 12.0002H10.9996" stroke="black" stroke-width="1.5" stroke-linecap="round" stroke-linejoin="round"/>
<path d="M16.0017 16.0022H10.9996" stroke="black" stroke-width="1.5" stroke-linecap="round" stroke-linejoin="round"/>
<path d="M8.12338 11.8752C8.05431 11.8752 7.99833 11.9311 7.99833 12.0002C7.99833 12.0693 8.05431 12.1253 8.12338 12.1253C8.19244 12.1253 8.24843 12.0693 8.24843 12.0002C8.24843 11.9311 8.19244 11.8752 8.12338 11.8752" stroke="black" stroke-width="1.5" stroke-linecap="round" stroke-linejoin="round"/>
<path d="M8.12338 15.8771C8.05431 15.8771 7.99833 15.9331 7.99833 16.0022C7.99833 16.0712 8.05431 16.1272 8.12338 16.1272C8.19244 16.1272 8.24843 16.0712 8.24843 16.0022C8.24843 15.9331 8.19244 15.8771 8.12338 15.8771" stroke="black" stroke-width="1.5" stroke-linecap="round" stroke-linejoin="round"/>
<rect x="7.99832" y="2.99609" width="8.00333" height="4.00167" rx="1" stroke="black" stroke-width="1.5" stroke-linecap="round" stroke-linejoin="round"/>
<path d="M16.0017 4.99707H18.0025C19.1075 4.99707 20.0033 5.89287 20.0033 6.9979V19.0029C20.0033 20.1079 19.1075 21.0037 18.0025 21.0037H5.99749C4.89246 21.0037 3.99666 20.1079 3.99666 19.0029V6.9979C3.99666 5.89287 4.89246 4.99707 5.99749 4.99707H7.99832" stroke="black" stroke-width="1.5" stroke-linecap="round" stroke-linejoin="round"/>
</svg>
