<svg width="24" height="24" viewBox="0 0 24 24" fill="none" xmlns="http://www.w3.org/2000/svg">
<path d="M7.99834 4.99707H5.99751C4.89248 4.99707 3.99667 5.89287 3.99667 6.9979V19.0029C3.99667 20.1079 4.89248 21.0037 5.99751 21.0037H8.99876" stroke="black" stroke-width="1.5" stroke-linecap="round" stroke-linejoin="round"/>
<rect x="7.99832" y="2.99609" width="8.00333" height="4.00167" rx="1" stroke="black" stroke-width="1.5" stroke-linecap="round" stroke-linejoin="round"/>
<path fill-rule="evenodd" clip-rule="evenodd" d="M19.0029 12H14.0008C12.8958 12 12 12.8958 12 14.0008V19.0029C12 20.1079 12.8958 21.0037 14.0008 21.0037H19.0029C20.1079 21.0037 21.0037 20.1079 21.0037 19.0029V14.0008C21.0037 12.8958 20.1079 12 19.0029 12Z" stroke="black" stroke-width="1.5" stroke-linecap="round" stroke-linejoin="round"/>
<path d="M15.1783 14.8246C15.2758 14.9223 15.2757 15.0805 15.178 15.1781C15.0804 15.2757 14.9221 15.2757 14.8245 15.1781C14.7268 15.0805 14.7267 14.9223 14.8242 14.8246C14.8711 14.7775 14.9348 14.7511 15.0012 14.7511C15.0677 14.7511 15.1314 14.7775 15.1783 14.8246" stroke="black" stroke-width="1.5" stroke-linecap="round" stroke-linejoin="round"/>
<path d="M21.0037 16.052C20.7967 16.0206 20.5878 16.0039 20.3785 16.002C17.9612 16.002 16.0016 17.9615 16.0016 20.3788V20.3788C16.0031 20.5881 16.0198 20.7971 16.0517 21.004" stroke="black" stroke-width="1.5" stroke-linecap="round" stroke-linejoin="round"/>
<path d="M16.0016 4.99707H18.0025C19.1075 4.99707 20.0033 5.89287 20.0033 6.9979V8.99874" stroke="black" stroke-width="1.5" stroke-linecap="round" stroke-linejoin="round"/>
</svg>
