<svg width="24" height="24" viewBox="0 0 24 24" fill="none" xmlns="http://www.w3.org/2000/svg">
<path fill-rule="evenodd" clip-rule="evenodd" d="M15.0013 7.99832H17.0021C17.8307 7.99802 18.5024 7.32634 18.5027 6.4977V6.4977C18.5024 5.66905 17.8307 4.99737 17.0021 4.99707H15.0013C14.1726 4.99737 13.5009 5.66905 13.5006 6.4977V6.4977C13.5009 7.32634 14.1726 7.99802 15.0013 7.99832Z" stroke="black" stroke-width="1.5" stroke-linecap="round" stroke-linejoin="round"/>
<path fill-rule="evenodd" clip-rule="evenodd" d="M17.0021 10.9998H6.99792C4.51168 10.9996 2.49624 8.9842 2.49604 6.49797V6.49797C2.49624 4.01173 4.51168 1.99629 6.99792 1.99609H17.0021C19.4883 1.99629 21.5038 4.01173 21.504 6.49797V6.49797C21.5038 8.9842 19.4883 10.9996 17.0021 10.9998Z" stroke="black" stroke-width="1.5" stroke-linecap="round" stroke-linejoin="round"/>
<path d="M7.60917 17.1133L5.38625 19.3362" stroke="black" stroke-width="1.5" stroke-linecap="round" stroke-linejoin="round"/>
<path d="M5.38625 17.1133L7.60917 19.3362" stroke="black" stroke-width="1.5" stroke-linecap="round" stroke-linejoin="round"/>
<path fill-rule="evenodd" clip-rule="evenodd" d="M8.49854 22.0043H4.49687C3.96618 22.0045 3.45717 21.7937 3.08191 21.4184C2.70665 21.0432 2.49589 20.5342 2.49604 20.0035V16.0018C2.49589 15.4711 2.70665 14.9621 3.08191 14.5868C3.45717 14.2116 3.96618 14.0008 4.49687 14.001H8.49854C9.02924 14.0008 9.53824 14.2116 9.9135 14.5868C10.2888 14.9621 10.4995 15.4711 10.4994 16.0018V20.0035C10.4995 20.5342 10.2888 21.0432 9.9135 21.4184C9.53824 21.7937 9.02924 22.0045 8.49854 22.0043Z" stroke="black" stroke-width="1.5" stroke-linecap="round" stroke-linejoin="round"/>
<path d="M17.5023 22.0043C15.2923 22.0042 13.5007 20.2127 13.5006 18.0026C13.5335 15.8052 15.3078 14.0322 17.5053 14.001C19.7154 14.0018 21.5063 15.7941 21.5055 18.0041C21.5046 20.2142 19.7124 22.0051 17.5023 22.0043" stroke="black" stroke-width="1.5"/>
<path d="M17.6754 18.1744C17.77 18.0787 17.7693 17.9244 17.6737 17.8295C17.5782 17.7347 17.4239 17.7351 17.3288 17.8305C17.2338 17.9259 17.234 18.0802 17.3292 18.1754C17.3749 18.2218 17.4374 18.2478 17.5025 18.2476C17.5676 18.2474 17.6299 18.221 17.6754 18.1744" stroke="black" stroke-width="1.5" stroke-linecap="round" stroke-linejoin="round"/>
</svg>
