<svg width="24" height="24" viewBox="0 0 24 24" fill="none" xmlns="http://www.w3.org/2000/svg">
<circle cx="7.5" cy="7.5" r="4.5" stroke="black" stroke-width="1.5" stroke-linecap="round" stroke-linejoin="round"/>
<path d="M8.7495 7.5H6.2495" stroke="black" stroke-width="1.5" stroke-linecap="round" stroke-linejoin="round"/>
<path d="M15 10H21" stroke="black" stroke-width="1.5" stroke-linecap="round" stroke-linejoin="round"/>
<path d="M15 5H21" stroke="black" stroke-width="1.5" stroke-linecap="round" stroke-linejoin="round"/>
<path d="M21 15H9" stroke="black" stroke-width="1.5" stroke-linecap="round" stroke-linejoin="round"/>
<path d="M4.75 15C4.75 15.1381 4.63807 15.25 4.5 15.25C4.36193 15.25 4.25 15.1381 4.25 15C4.25 14.8619 4.36193 14.75 4.5 14.75C4.63807 14.75 4.75 14.8619 4.75 15" stroke="black" stroke-width="1.5" stroke-linecap="round" stroke-linejoin="round"/>
<path d="M4.75 20C4.75 20.1381 4.63807 20.25 4.5 20.25C4.36193 20.25 4.25 20.1381 4.25 20C4.25 19.8619 4.36193 19.75 4.5 19.75C4.63807 19.75 4.75 19.8619 4.75 20" stroke="black" stroke-width="1.5" stroke-linecap="round" stroke-linejoin="round"/>
<path d="M21 20H9" stroke="black" stroke-width="1.5" stroke-linecap="round" stroke-linejoin="round"/>
</svg>
