<svg width="24" height="24" viewBox="0 0 24 24" fill="none" xmlns="http://www.w3.org/2000/svg">
<path d="M16.0017 10.9992H10.9996" stroke="black" stroke-width="1.5" stroke-linecap="round" stroke-linejoin="round"/>
<path d="M16.0017 15.0012H10.9996" stroke="black" stroke-width="1.5" stroke-linecap="round" stroke-linejoin="round"/>
<path d="M8.12338 10.8742C8.05432 10.8742 7.99833 10.9302 7.99833 10.9992C7.99833 11.0683 8.05432 11.1243 8.12338 11.1243C8.19245 11.1243 8.24844 11.0683 8.24844 10.9992C8.24844 10.9302 8.19245 10.8742 8.12338 10.8742" stroke="black" stroke-width="1.5" stroke-linecap="round" stroke-linejoin="round"/>
<path d="M8.12338 14.8761C8.05432 14.8761 7.99833 14.9321 7.99833 15.0012C7.99833 15.0702 8.05432 15.1262 8.12338 15.1262C8.19245 15.1262 8.24844 15.0702 8.24844 15.0012C8.24844 14.9321 8.19245 14.8761 8.12338 14.8761" stroke="black" stroke-width="1.5" stroke-linecap="round" stroke-linejoin="round"/>
<path d="M2.99625 19.0031H6.99792" stroke="black" stroke-width="1.5" stroke-linecap="round" stroke-linejoin="round"/>
<path d="M4.99709 21.0036V17.002" stroke="black" stroke-width="1.5" stroke-linecap="round" stroke-linejoin="round"/>
<path d="M7.99833 4.99707H5.9975C4.89247 4.99707 3.99667 5.89287 3.99667 6.9979V14.0008" stroke="black" stroke-width="1.5" stroke-linecap="round" stroke-linejoin="round"/>
<rect x="7.99834" y="2.99609" width="8.00333" height="4.00167" rx="1" stroke="black" stroke-width="1.5" stroke-linecap="round" stroke-linejoin="round"/>
<path d="M16.0017 4.99707H18.0025C19.1075 4.99707 20.0033 5.89287 20.0033 6.9979V19.0029C20.0033 20.1079 19.1075 21.0037 18.0025 21.0037H9.99917" stroke="black" stroke-width="1.5" stroke-linecap="round" stroke-linejoin="round"/>
</svg>
