<svg width="24" height="24" viewBox="0 0 24 24" fill="none" xmlns="http://www.w3.org/2000/svg">
<circle cx="15.3614" cy="14.9023" r="5.2822" stroke="black" stroke-width="1.5" stroke-linecap="round" stroke-linejoin="round"/>
<path d="M10.3993 7.2998L8.19956 9.50072L6.87784 8.18017" stroke="black" stroke-width="1.5" stroke-linecap="round" stroke-linejoin="round"/>
<path d="M13.7175 6.73927C13.0243 4.29178 10.6847 2.68632 8.15176 2.91999C5.61878 3.15366 3.6124 5.16004 3.37872 7.69303C3.14505 10.226 4.75051 12.5656 7.198 13.2587" stroke="black" stroke-width="1.5" stroke-linecap="round" stroke-linejoin="round"/>
<path d="M15.3614 15.2764V17.0371" stroke="black" stroke-width="1.5" stroke-linecap="round" stroke-linejoin="round"/>
<path d="M15.4094 12.8542C15.4094 12.8807 15.3879 12.9022 15.3614 12.9022C15.3349 12.9022 15.3134 12.8807 15.3134 12.8542C15.3134 12.8277 15.3349 12.8062 15.3614 12.8062" stroke="black" stroke-width="1.5" stroke-linecap="round" stroke-linejoin="round"/>
<path d="M15.3614 12.8068C15.3879 12.8068 15.4094 12.8283 15.4094 12.8548" stroke="black" stroke-width="1.5" stroke-linecap="round" stroke-linejoin="round"/>
</svg>
