<svg width="24" height="24" viewBox="0 0 24 24" fill="none" xmlns="http://www.w3.org/2000/svg">
<path d="M10.9996 21.0036H5.9975C4.33995 21.0036 2.99625 19.6599 2.99625 18.0023V5.99734C2.99625 4.3398 4.33995 2.99609 5.9975 2.99609H18.0025C19.66 2.99609 21.0037 4.3398 21.0037 5.99734V10.9994" stroke="black" stroke-width="1.5" stroke-linecap="round" stroke-linejoin="round"/>
<path d="M10.9996 16.0022H12" stroke="black" stroke-width="1.5" stroke-linecap="round" stroke-linejoin="round"/>
<path fill-rule="evenodd" clip-rule="evenodd" d="M19.555 14.768L21.8005 18.7628C22.0623 19.2286 22.0574 19.7982 21.7876 20.2593C21.5178 20.7205 21.0237 21.0039 20.4894 21.0039H15.9988C15.4646 21.0039 14.9704 20.7205 14.7006 20.2594C14.4308 19.7983 14.4259 19.2287 14.6876 18.763L16.9327 14.7681C17.199 14.2943 17.7003 14.001 18.2438 14.001C18.7874 14.001 19.2887 14.2942 19.555 14.768V14.768Z" stroke="black" stroke-width="1.5" stroke-linecap="round" stroke-linejoin="round"/>
<path d="M15.0012 12.0002H10.9996" stroke="black" stroke-width="1.5" stroke-linecap="round" stroke-linejoin="round"/>
<path d="M17.0021 7.99826H10.9996" stroke="black" stroke-width="1.5" stroke-linecap="round" stroke-linejoin="round"/>
<path d="M6.99792 8.1233C7.06698 8.1233 7.12297 8.06731 7.12297 7.99826C7.12297 7.92919 7.06698 7.8732 6.99792 7.8732C6.92886 7.8732 6.87287 7.92919 6.87287 7.99826V8.00125C6.87326 8.03402 6.88666 8.06529 6.91011 8.08818C6.93357 8.11107 6.96515 8.1237 6.99792 8.1233" stroke="black" stroke-width="1.5" stroke-linecap="round" stroke-linejoin="round"/>
<path d="M6.99792 16.1272C7.06698 16.1272 7.12297 16.0712 7.12297 16.0022C7.12297 15.9331 7.06698 15.8771 6.99792 15.8771C6.92886 15.8771 6.87287 15.9331 6.87287 16.0022V16.0052C6.87326 16.0379 6.88666 16.0692 6.91011 16.0921C6.93357 16.115 6.96515 16.1276 6.99792 16.1272" stroke="black" stroke-width="1.5" stroke-linecap="round" stroke-linejoin="round"/>
<path d="M6.99792 12.1253C7.06698 12.1253 7.12297 12.0693 7.12297 12.0002C7.12297 11.9311 7.06698 11.8752 6.99792 11.8752C6.92886 11.8752 6.87287 11.9311 6.87287 12.0002V12.0032C6.87326 12.036 6.88666 12.0672 6.91011 12.0901C6.93357 12.113 6.96515 12.1257 6.99792 12.1253" stroke="black" stroke-width="1.5" stroke-linecap="round" stroke-linejoin="round"/>
</svg>
