<svg width="24" height="24" viewBox="0 0 24 24" fill="none" xmlns="http://www.w3.org/2000/svg">
<path d="M7.99832 4.99707H5.99749C4.89246 4.99707 3.99666 5.89287 3.99666 6.9979V19.0029C3.99666 20.1079 4.89246 21.0037 5.99749 21.0037H8.99874" stroke="black" stroke-width="1.5" stroke-linecap="round" stroke-linejoin="round"/>
<rect x="7.99832" y="2.99609" width="8.00333" height="4.00167" rx="1" stroke="black" stroke-width="1.5" stroke-linecap="round" stroke-linejoin="round"/>
<path d="M16.0017 4.99707H18.0025C19.1075 4.99707 20.0033 5.89287 20.0033 6.9979V12" stroke="black" stroke-width="1.5" stroke-linecap="round" stroke-linejoin="round"/>
<path d="M15.0013 21.0035C13.3441 21.0025 12.001 19.6593 12 18.0022V18.0022C12.001 16.3451 13.3441 15.002 15.0013 15.001" stroke="black" stroke-width="1.5" stroke-linecap="round" stroke-linejoin="round"/>
<path d="M18.0025 15.001C19.6596 15.002 21.0027 16.3451 21.0038 18.0022V18.0022C21.0027 19.6593 19.6596 21.0025 18.0025 21.0035" stroke="black" stroke-width="1.5" stroke-linecap="round" stroke-linejoin="round"/>
<path d="M15.0013 18.0022H18.0025" stroke="black" stroke-width="1.5" stroke-linecap="round" stroke-linejoin="round"/>
</svg>
