<svg width="24" height="24" viewBox="0 0 24 24" fill="none" xmlns="http://www.w3.org/2000/svg">
<path d="M10.3326 7.58203L8.04121 9.87466L6.66441 8.49908" stroke="black" stroke-width="1.5" stroke-linecap="round" stroke-linejoin="round"/>
<path d="M15.5015 15.8906V17.7247" stroke="black" stroke-width="1.5" stroke-linecap="round" stroke-linejoin="round"/>
<path d="M15.5015 13.318C15.4677 13.318 15.4403 13.3454 15.4403 13.3791C15.4403 13.4129 15.4677 13.4403 15.5015 13.4403C15.5352 13.4403 15.5626 13.4129 15.5626 13.3791V13.3791C15.5626 13.3629 15.5562 13.3474 15.5447 13.3359C15.5332 13.3244 15.5177 13.318 15.5015 13.318V13.318" stroke="black" stroke-width="1.5" stroke-linecap="round" stroke-linejoin="round"/>
<rect x="9.99916" y="9.99902" width="11.0046" height="11.0046" rx="4" stroke="black" stroke-width="1.5" stroke-linecap="round" stroke-linejoin="round"/>
<path d="M6.99791 14.0007C4.78785 14.0007 2.99625 12.2091 2.99625 9.99901V6.99776C2.99625 4.7877 4.78785 2.99609 6.99791 2.99609H9.99916C12.2092 2.99609 14.0008 4.7877 14.0008 6.99776" stroke="black" stroke-width="1.5" stroke-linecap="round" stroke-linejoin="round"/>
<path d="M10.3326 7.58203L8.04121 9.87466L6.66441 8.49908" stroke="black" stroke-width="1.5" stroke-linecap="round" stroke-linejoin="round"/>
<path d="M15.5015 15.8906V17.7247" stroke="black" stroke-width="1.5" stroke-linecap="round" stroke-linejoin="round"/>
<path d="M15.5015 13.318C15.4677 13.318 15.4403 13.3454 15.4403 13.3791C15.4403 13.4129 15.4677 13.4403 15.5015 13.4403C15.5352 13.4403 15.5626 13.4129 15.5626 13.3791V13.3791C15.5626 13.3629 15.5562 13.3474 15.5447 13.3359C15.5332 13.3244 15.5177 13.318 15.5015 13.318V13.318" stroke="black" stroke-width="1.5" stroke-linecap="round" stroke-linejoin="round"/>
<rect x="9.99916" y="9.99902" width="11.0046" height="11.0046" rx="4" stroke="black" stroke-width="1.5" stroke-linecap="round" stroke-linejoin="round"/>
<path d="M6.99791 14.0007C4.78785 14.0007 2.99625 12.2091 2.99625 9.99901V6.99776C2.99625 4.7877 4.78785 2.99609 6.99791 2.99609H9.99916C12.2092 2.99609 14.0008 4.7877 14.0008 6.99776" stroke="black" stroke-width="1.5" stroke-linecap="round" stroke-linejoin="round"/>
</svg>
