<svg width="24" height="24" viewBox="0 0 24 24" fill="none" xmlns="http://www.w3.org/2000/svg">
<path d="M7.99833 4.99707H5.9975C4.89247 4.99707 3.99667 5.89287 3.99667 6.9979V19.0029C3.99667 20.1079 4.89247 21.0037 5.9975 21.0037H10.9996" stroke="black" stroke-width="1.5" stroke-linecap="round" stroke-linejoin="round"/>
<rect x="7.99834" y="2.99609" width="8.00333" height="4.00167" rx="1" stroke="black" stroke-width="1.5" stroke-linecap="round" stroke-linejoin="round"/>
<path d="M16.0017 4.99707H18.0025C19.1075 4.99707 20.0033 5.89287 20.0033 6.9979V10.9996" stroke="black" stroke-width="1.5" stroke-linecap="round" stroke-linejoin="round"/>
<path fill-rule="evenodd" clip-rule="evenodd" d="M19.5635 14.7681L21.8091 18.7629C22.0709 19.2286 22.066 19.7983 21.7962 20.2594C21.5264 20.7205 21.0322 21.0039 20.4979 21.0039H16.0073C15.4731 21.0039 14.9789 20.7205 14.7091 20.2594C14.4393 19.7983 14.4344 19.2287 14.6961 18.763L16.9412 14.7682C17.2075 14.2943 17.7088 14.001 18.2523 14.001C18.7959 14.001 19.2972 14.2942 19.5635 14.7681Z" stroke="black" stroke-width="1.5" stroke-linecap="round" stroke-linejoin="round"/>
</svg>
