<svg width="24" height="24" viewBox="0 0 24 24" fill="none" xmlns="http://www.w3.org/2000/svg">
<circle cx="7.49812" cy="7.49797" r="4.50187" stroke="black" stroke-width="1.5" stroke-linecap="round" stroke-linejoin="round"/>
<path d="M15.0013 9.99923H21.0038" stroke="black" stroke-width="1.5" stroke-linecap="round" stroke-linejoin="round"/>
<path d="M15.0013 4.99728H21.0038" stroke="black" stroke-width="1.5" stroke-linecap="round" stroke-linejoin="round"/>
<path d="M21.0037 15.0012H8.99875" stroke="black" stroke-width="1.5" stroke-linecap="round" stroke-linejoin="round"/>
<path d="M21.0037 20.0031H8.99875" stroke="black" stroke-width="1.5" stroke-linecap="round" stroke-linejoin="round"/>
<path d="M4.74598 14.7514C4.60888 14.7523 4.49829 14.8639 4.4987 15.001C4.49912 15.1381 4.61038 15.249 4.74748 15.249C4.88458 15.249 4.99584 15.1381 4.99625 15.001C4.99666 14.8639 4.88608 14.7523 4.74898 14.7514H4.74598" stroke="black" stroke-width="1.5" stroke-linecap="round" stroke-linejoin="round"/>
<path d="M4.74598 19.7534C4.60888 19.7542 4.49829 19.8658 4.4987 20.0029C4.49912 20.14 4.61038 20.2509 4.74748 20.2509C4.88458 20.2509 4.99584 20.14 4.99625 20.0029C4.99666 19.8658 4.88608 19.7542 4.74898 19.7534H4.74598" stroke="black" stroke-width="1.5" stroke-linecap="round" stroke-linejoin="round"/>
<path d="M8.99875 6.74805L7.12397 8.62383L5.9975 7.49836" stroke="black" stroke-width="1.5" stroke-linecap="round" stroke-linejoin="round"/>
</svg>
