<svg width="24" height="24" viewBox="0 0 24 24" fill="none" xmlns="http://www.w3.org/2000/svg">
<circle cx="15.5002" cy="15.5004" r="5.50037" stroke="black" stroke-width="1.5" stroke-linecap="round" stroke-linejoin="round"/>
<path d="M13.7881 6.99952C13.0676 4.44871 10.6303 2.7746 7.99083 3.01749C5.35136 3.26039 3.26055 5.35121 3.01765 7.99068C2.77475 10.6301 4.44887 13.0674 6.99967 13.788" stroke="black" stroke-width="1.5" stroke-linecap="round" stroke-linejoin="round"/>
<path d="M10.3306 7.58203L8.03916 9.87466L6.66236 8.49908" stroke="black" stroke-width="1.5" stroke-linecap="round" stroke-linejoin="round"/>
<path d="M13.9773 15.5012C13.9773 15.5288 13.9549 15.5512 13.9273 15.5512C13.8997 15.5512 13.8773 15.5288 13.8773 15.5012C13.8773 15.4736 13.8997 15.4512 13.9273 15.4512" stroke="black" stroke-width="1.5" stroke-linecap="round" stroke-linejoin="round"/>
<path d="M13.9273 15.4518C13.9549 15.4518 13.9773 15.4742 13.9773 15.5018" stroke="black" stroke-width="1.5" stroke-linecap="round" stroke-linejoin="round"/>
<path d="M17.1215 15.5012C17.1215 15.5288 17.0991 15.5512 17.0715 15.5512C17.0439 15.5512 17.0215 15.5288 17.0215 15.5012C17.0215 15.4736 17.0439 15.4512 17.0715 15.4512" stroke="black" stroke-width="1.5" stroke-linecap="round" stroke-linejoin="round"/>
<path d="M17.0715 15.4518C17.0991 15.4518 17.1215 15.4742 17.1215 15.5018" stroke="black" stroke-width="1.5" stroke-linecap="round" stroke-linejoin="round"/>
</svg>
