<svg width="24" height="24" viewBox="0 0 24 24" fill="none" xmlns="http://www.w3.org/2000/svg">
<path d="M16.752 2.49609C19.3764 2.49609 21.504 4.62363 21.504 7.24807C21.504 9.87252 19.3764 12.0001 16.752 12.0001C14.1275 12.0001 12 9.87252 12 7.24807C12 4.62363 14.1275 2.49609 16.752 2.49609" stroke="black" stroke-width="1.5" stroke-linecap="round" stroke-linejoin="round"/>
<path d="M18.3677 6.41699L16.3481 8.43658L15.1339 7.22602" stroke="black" stroke-width="1.5" stroke-linecap="round" stroke-linejoin="round"/>
<path d="M7.24802 12C9.87247 12 12 14.1275 12 16.752C12 19.3764 9.87247 21.504 7.24802 21.504C4.62357 21.504 2.49604 19.3764 2.49604 16.752C2.49604 14.1275 4.62357 12 7.24802 12" stroke="black" stroke-width="1.5" stroke-linecap="round" stroke-linejoin="round"/>
<path d="M8.25782 15.7422L6.23822 17.7618" stroke="black" stroke-width="1.5" stroke-linecap="round" stroke-linejoin="round"/>
<path d="M8.25782 17.7618L6.23822 15.7422" stroke="black" stroke-width="1.5" stroke-linecap="round" stroke-linejoin="round"/>
<path d="M6.49771 2.49609L7.99833 3.99685L6.49771 5.4976" stroke="black" stroke-width="1.5" stroke-linecap="round" stroke-linejoin="round"/>
<path d="M2.99625 6.99832C2.99625 5.34078 4.33996 3.99707 5.9975 3.99707H7.99834" stroke="black" stroke-width="1.5" stroke-linecap="round" stroke-linejoin="round"/>
<path d="M17.5023 21.5035L16.0017 20.0027L17.5023 18.502" stroke="black" stroke-width="1.5" stroke-linecap="round" stroke-linejoin="round"/>
<path d="M21.0038 17.002C21.0038 18.6595 19.66 20.0032 18.0025 20.0032H16.0017" stroke="black" stroke-width="1.5" stroke-linecap="round" stroke-linejoin="round"/>
</svg>
