<svg width="24" height="24" viewBox="0 0 24 24" fill="none" xmlns="http://www.w3.org/2000/svg">
<path fill-rule="evenodd" clip-rule="evenodd" d="M15.5 2.5H19.5C20.605 2.5 21.5 3.395 21.5 4.5V8.5C21.5 9.605 20.605 10.5 19.5 10.5H15.5C14.395 10.5 13.5 9.605 13.5 8.5V4.5C13.5 3.395 14.395 2.5 15.5 2.5Z" stroke="black" stroke-width="1.5" stroke-linecap="round" stroke-linejoin="round"/>
<path d="M17.5 10.5V2.5" stroke="black" stroke-width="1.5" stroke-linecap="round" stroke-linejoin="round"/>
<path fill-rule="evenodd" clip-rule="evenodd" d="M4.5 13.5H8.5C9.605 13.5 10.5 14.395 10.5 15.5V19.5C10.5 20.605 9.605 21.5 8.5 21.5H4.5C3.395 21.5 2.5 20.605 2.5 19.5V15.5C2.5 14.395 3.395 13.5 4.5 13.5Z" stroke="black" stroke-width="1.5" stroke-linecap="round" stroke-linejoin="round"/>
<path d="M9.91 14.09L3.09 20.91" stroke="black" stroke-width="1.5" stroke-linecap="round" stroke-linejoin="round"/>
<path d="M17.327 17.328C17.232 17.423 17.232 17.578 17.328 17.672C17.423 17.767 17.578 17.767 17.673 17.672C17.768 17.577 17.768 17.422 17.673 17.327C17.578 17.232 17.423 17.232 17.327 17.328" stroke="black" stroke-width="1.5" stroke-linecap="round" stroke-linejoin="round"/>
<path fill-rule="evenodd" clip-rule="evenodd" d="M2.5 8.5V4.5C2.5 3.395 3.395 2.5 4.5 2.5H8.5C9.605 2.5 10.5 3.395 10.5 4.5V8.5C10.5 9.605 9.605 10.5 8.5 10.5H4.5C3.395 10.5 2.5 9.605 2.5 8.5Z" stroke="black" stroke-width="1.5" stroke-linecap="round" stroke-linejoin="round"/>
<path fill-rule="evenodd" clip-rule="evenodd" d="M13.5 19.5V15.5C13.5 14.395 14.395 13.5 15.5 13.5H19.5C20.605 13.5 21.5 14.395 21.5 15.5V19.5C21.5 20.605 20.605 21.5 19.5 21.5H15.5C14.395 21.5 13.5 20.605 13.5 19.5Z" stroke="black" stroke-width="1.5" stroke-linecap="round" stroke-linejoin="round"/>
</svg>
