<svg width="24" height="24" viewBox="0 0 24 24" fill="none" xmlns="http://www.w3.org/2000/svg">
<path d="M16 5H18C19.1046 5 20 5.89543 20 7V19C20 20.1046 19.1046 21 18 21H17" stroke="black" stroke-width="1.5" stroke-linecap="round" stroke-linejoin="round"/>
<rect x="8" y="3" width="8" height="4" rx="1" stroke="black" stroke-width="1.5" stroke-linecap="round" stroke-linejoin="round"/>
<path d="M8 5H6C4.89543 5 4 5.89543 4 7V16" stroke="black" stroke-width="1.5" stroke-linecap="round" stroke-linejoin="round"/>
<path fill-rule="evenodd" clip-rule="evenodd" d="M9.29289 18.309L12.3344 15.2675C12.5219 15.08 12.7763 14.9746 13.0415 14.9746C13.3067 14.9746 13.5611 15.08 13.7486 15.2675L14.7071 16.226C15.0976 16.6165 15.0976 17.2497 14.7071 17.6402L11.6656 20.6817C11.4781 20.8692 11.2237 20.9746 10.9585 20.9746H9.25C9.11193 20.9746 9 20.8627 9 20.7246V19.0161C9 18.7509 9.10536 18.4966 9.29289 18.309Z" stroke="black" stroke-width="1.5" stroke-linecap="round" stroke-linejoin="round"/>
<path d="M5.55 20.9747C5.54997 21.0023 5.52758 21.0246 5.49998 21.0246C5.47238 21.0246 5.45001 21.0022 5.45 20.9746C5.44999 20.947 5.47234 20.9246 5.49994 20.9246C5.51322 20.9246 5.52596 20.9299 5.53536 20.9393C5.54475 20.9486 5.55002 20.9614 5.55 20.9747" stroke="black" stroke-width="1.5" stroke-linecap="round" stroke-linejoin="round"/>
<path d="M2.55 20.9747C2.54997 21.0023 2.52758 21.0246 2.49998 21.0246C2.47238 21.0246 2.45001 21.0022 2.45 20.9746C2.44999 20.947 2.47234 20.9246 2.49994 20.9246C2.51322 20.9246 2.52596 20.9299 2.53536 20.9393C2.54475 20.9486 2.55002 20.9614 2.55 20.9747" stroke="black" stroke-width="1.5" stroke-linecap="round" stroke-linejoin="round"/>
</svg>
