<svg width="24" height="24" viewBox="0 0 24 24" fill="none" xmlns="http://www.w3.org/2000/svg">
<path d="M17.0691 13.4454L14.2439 16.2716C12.5861 17.9284 9.8993 17.9284 8.24144 16.2716V16.2716C7.4453 15.4757 6.99802 14.3961 6.99802 13.2704C6.99802 12.1446 7.4453 11.065 8.24144 10.2691L11.1997 7.31389C12.3048 6.20917 14.0962 6.20917 15.2013 7.31389V7.31389C16.3061 8.41905 16.3061 10.2104 15.2013 11.3156L12.3331 14.1837C11.7805 14.7358 10.885 14.7358 10.3323 14.1837V14.1837C9.78023 13.6311 9.78023 12.7356 10.3323 12.1829L12.071 10.4442" stroke="black" stroke-width="1.5" stroke-linecap="round" stroke-linejoin="round"/>
<rect x="2.99625" y="2.99609" width="18.0075" height="18.0075" rx="5" stroke="black" stroke-width="1.5" stroke-linecap="round" stroke-linejoin="round"/>
</svg>
