<svg width="24" height="24" viewBox="0 0 24 24" fill="none" xmlns="http://www.w3.org/2000/svg">
<path d="M21.0037 15.0011V18.0023C21.0037 19.6599 19.66 21.0036 18.0025 21.0036H5.9975C4.33995 21.0036 2.99625 19.6599 2.99625 18.0023V5.99734C2.99625 4.3398 4.33995 2.99609 5.9975 2.99609H10.9996" stroke="black" stroke-width="1.5" stroke-linecap="round" stroke-linejoin="round"/>
<path d="M20.0033 11.0859L15.2443 15.8449C14.4484 16.641 13.3688 17.0883 12.2431 17.0883C11.1173 17.0883 10.0377 16.641 9.24184 15.8449V15.8449C8.4457 15.049 7.99841 13.9693 7.99841 12.8436C7.99841 11.7179 8.4457 10.6383 9.24184 9.84235L15.0873 3.99692C15.6179 3.46616 16.3376 3.16797 17.0881 3.16797C17.8386 3.16797 18.5583 3.46616 19.0889 3.99692V3.99692C20.1937 5.10208 20.1937 6.89342 19.0889 7.99858L13.3295 13.758C12.7768 14.3101 11.8814 14.3101 11.3287 13.758V13.758C10.7766 13.2053 10.7766 12.3098 11.3287 11.7572L14.478 8.60784" stroke="black" stroke-width="1.5" stroke-linecap="round" stroke-linejoin="round"/>
</svg>
