<svg width="24" height="24" viewBox="0 0 24 24" fill="none" xmlns="http://www.w3.org/2000/svg">
<path d="M13.4576 9.38098L7.9253 14.9123C7.28377 15.5541 7.28377 16.5944 7.9253 17.2362V17.2362C8.56713 17.8778 9.60743 17.8778 10.2493 17.2362L18.8789 8.60665C19.4953 7.99033 19.8416 7.15436 19.8416 6.28269C19.8416 5.41101 19.4953 4.57504 18.8789 3.95872V3.95872C18.2627 3.34237 17.4269 2.99609 16.5554 2.99609C15.6839 2.99609 14.8481 3.34237 14.2319 3.95872L5.60233 12.5893C4.67765 13.5136 4.15814 14.7674 4.15814 16.0748C4.15814 17.3822 4.67765 18.636 5.60233 19.5602V19.5602C6.52671 20.4846 7.78047 21.004 9.08778 21.004C10.3951 21.004 11.6488 20.4846 12.5732 19.5602L18.8759 13.2576" stroke="black" stroke-width="1.5" stroke-linecap="round" stroke-linejoin="round"/>
</svg>
