<svg width="24" height="24" viewBox="0 0 24 24" fill="none" xmlns="http://www.w3.org/2000/svg">
<path d="M15.456 8.54302C15.302 7.18702 14.71 5.87102 13.67 4.83002C11.229 2.38902 7.272 2.38902 4.831 4.83002C2.39 7.27102 2.39 11.228 4.831 13.669C7.272 16.11 11.229 16.11 13.67 13.669C14.391 12.948 14.893 12.094 15.188 11.187" stroke="black" stroke-width="1.5" stroke-linecap="round" stroke-linejoin="round"/>
<path d="M8.544 15.457C8.698 16.813 9.29 18.129 10.33 19.17C12.771 21.611 16.728 21.611 19.169 19.17C21.61 16.729 21.61 12.772 19.169 10.331C16.728 7.88999 12.771 7.88999 10.33 10.331C9.609 11.052 9.107 11.906 8.812 12.813" stroke="black" stroke-width="1.5" stroke-linecap="round" stroke-linejoin="round"/>
</svg>
