<svg width="24" height="24" viewBox="0 0 24 24" fill="none" xmlns="http://www.w3.org/2000/svg">
<path fill-rule="evenodd" clip-rule="evenodd" d="M11.9947 8.00488C9.78555 8.00488 7.99469 9.79574 7.99469 12.0049C7.99469 14.214 9.78555 16.0049 11.9947 16.0049C14.2038 16.0049 15.9947 14.214 15.9947 12.0049C15.9947 10.944 15.5733 9.9266 14.8231 9.17646C14.073 8.42631 13.0556 8.00488 11.9947 8.00488Z" stroke="black" stroke-width="1.5" stroke-linecap="round" stroke-linejoin="round"/>
<path d="M14 3.23047C17.3686 4.00069 19.9991 6.63114 20.7693 9.99976" stroke="black" stroke-width="1.5" stroke-linecap="round" stroke-linejoin="round"/>
<path d="M10 3.23047C5.65874 4.21866 2.69318 8.23356 3.02504 12.6735C3.35689 17.1134 6.88634 20.6429 11.3263 20.9747C15.7662 21.3066 19.7811 18.341 20.7693 13.9998" stroke="black" stroke-width="1.5" stroke-linecap="round" stroke-linejoin="round"/>
</svg>
