<svg width="24" height="24" viewBox="0 0 24 24" fill="none" xmlns="http://www.w3.org/2000/svg">
<circle cx="12" cy="12.0003" r="9.00375" stroke="black" stroke-width="1.5" stroke-linecap="round" stroke-linejoin="round"/>
<path d="M12.5002 7.99826C12.5002 7.722 12.2763 7.49805 12 7.49805C11.7237 7.49805 11.4998 7.722 11.4998 7.99826C11.4998 8.27451 11.7237 8.49846 12 8.49846C12.2763 8.49846 12.5002 8.27451 12.5002 7.99826" stroke="black" stroke-width="1.5" stroke-linecap="round" stroke-linejoin="round"/>
<path d="M9.03475 14.0012C9.03475 13.7249 8.8108 13.501 8.53454 13.501C8.25828 13.501 8.03433 13.7249 8.03433 14.0012C8.03433 14.2774 8.25828 14.5014 8.53454 14.5014C8.8108 14.5014 9.03475 14.2774 9.03475 14.0012" stroke="black" stroke-width="1.5" stroke-linecap="round" stroke-linejoin="round"/>
<path d="M15.9657 14.0012C15.9657 13.7249 15.7417 13.501 15.4654 13.501C15.1892 13.501 14.9652 13.7249 14.9652 14.0012C14.9652 14.2774 15.1892 14.5014 15.4654 14.5014C15.7417 14.5014 15.9657 14.2774 15.9657 14.0012" stroke="black" stroke-width="1.5" stroke-linecap="round" stroke-linejoin="round"/>
</svg>
