<svg width="24" height="24" viewBox="0 0 24 24" fill="none" xmlns="http://www.w3.org/2000/svg">
<path d="M15.0012 12.0001V7.99846C15.0012 7.44595 14.5533 6.99805 14.0008 6.99805H9.99917C9.44665 6.99805 8.99875 7.44595 8.99875 7.99846V9.9993" stroke="black" stroke-width="1.5" stroke-linecap="round" stroke-linejoin="round"/>
<path d="M14.0008 17.0023V13.0007C14.0008 12.4481 14.4487 12.0002 15.0012 12.0002H17.0021C17.5546 12.0002 18.0025 12.4481 18.0025 13.0007V16.0019C18.0025 16.5544 17.5546 17.0023 17.0021 17.0023H6.9979C6.44538 17.0023 5.99747 16.5544 5.99734 16.0019V12.4838C5.99734 12.0145 6.26248 11.5855 6.68221 11.3757L9.16987 10.1318C9.5529 9.94033 10.0077 9.96008 10.3726 10.1841C10.7376 10.4081 10.9611 10.8046 10.9638 11.2328L10.9997 17.0023" stroke="black" stroke-width="1.5" stroke-linecap="round" stroke-linejoin="round"/>
<path d="M12 6.9977V5.49707" stroke="black" stroke-width="1.5" stroke-linecap="round" stroke-linejoin="round"/>
<rect x="2.99625" y="2.99609" width="18.0075" height="18.0075" rx="5" stroke="black" stroke-width="1.5"/>
</svg>
