<svg width="24" height="24" viewBox="0 0 24 24" fill="none" xmlns="http://www.w3.org/2000/svg">
<circle cx="16.5019" cy="16.5019" r="4.50187" stroke="black" stroke-width="1.5" stroke-linecap="round" stroke-linejoin="round"/>
<path d="M17.7524 17.753L15.2513 15.252" stroke="black" stroke-width="1.5" stroke-linecap="round" stroke-linejoin="round"/>
<path d="M17.7524 15.252L15.2513 17.753" stroke="black" stroke-width="1.5" stroke-linecap="round" stroke-linejoin="round"/>
<path d="M14.0008 7.99805L5.82585 16.173C5.29519 16.7037 4.99707 17.4234 4.99707 18.1739C4.99707 18.9243 5.29519 19.644 5.82585 20.1747V20.1747C6.3565 20.7054 7.07622 21.0035 7.82668 21.0035C8.57714 21.0035 9.29686 20.7054 9.82751 20.1747L12.1931 17.8091" stroke="black" stroke-width="1.5" stroke-linecap="round" stroke-linejoin="round"/>
<path d="M2.99625 13.0003L11.5501 4.44645C12.4787 3.5178 13.7382 2.99609 15.0516 2.99609C16.3649 2.99609 17.6244 3.5178 18.553 4.44645V4.44645C19.4817 5.37509 20.0034 6.6346 20.0034 7.94791C20.0034 9.26121 19.4817 10.5207 18.553 11.4494L17.8096 12.1928" stroke="black" stroke-width="1.5" stroke-linecap="round" stroke-linejoin="round"/>
</svg>
