<svg width="24" height="24" viewBox="0 0 24 24" fill="none" xmlns="http://www.w3.org/2000/svg">
<path d="M11.5 18.4999L9.82842 20.1716C9.29799 20.702 8.57857 21 7.82842 21C7.07828 21 6.35885 20.702 5.82842 20.1716V20.1716C5.29799 19.6411 4.99999 18.9217 4.99999 18.1716C4.99999 17.4214 5.29799 16.702 5.82842 16.1716L14 8" stroke="black" stroke-width="1.5" stroke-linecap="round" stroke-linejoin="round"/>
<path d="M16.5 14L18.5 16" stroke="black" stroke-width="1.5" stroke-linecap="round" stroke-linejoin="round"/>
<path d="M16.5 18L18.5 16" stroke="black" stroke-width="1.5" stroke-linecap="round" stroke-linejoin="round"/>
<path d="M13.5 16H18.5" stroke="black" stroke-width="1.5" stroke-linecap="round" stroke-linejoin="round"/>
<path d="M18.5503 11.4497V11.4497C20.4833 9.51672 20.4833 6.38274 18.5503 4.44976V4.44976C17.622 3.5215 16.3631 3 15.0503 3C13.7375 3 12.4786 3.5215 11.5503 4.44976L3 13" stroke="black" stroke-width="1.5" stroke-linecap="round" stroke-linejoin="round"/>
</svg>
