<svg width="24" height="24" viewBox="0 0 24 24" fill="none" xmlns="http://www.w3.org/2000/svg">
<path d="M18.364 5.63604C21.8787 9.15076 21.8787 14.8492 18.364 18.3639C14.8493 21.8787 9.1508 21.8787 5.6361 18.3639C2.12138 14.8492 2.12138 9.15074 5.6361 5.63604C9.15082 2.12132 14.8493 2.12132 18.364 5.63604" stroke="black" stroke-width="1.5" stroke-linecap="round" stroke-linejoin="round"/>
<path d="M11.293 12.707L14.475 9.52496C15.06 8.93996 16.011 8.93996 16.596 9.52496V9.52496C17.181 10.11 17.181 11.061 16.596 11.646L12.707 15.535C11.535 16.707 9.63599 16.707 8.46399 15.535V15.535C7.29199 14.363 7.29199 12.464 8.46399 11.292L12 7.75696" stroke="black" stroke-width="1.5" stroke-linecap="round" stroke-linejoin="round"/>
</svg>
