<svg width="24" height="24" viewBox="0 0 24 24" fill="none" xmlns="http://www.w3.org/2000/svg">
<rect x="2.99625" y="2.99609" width="18.0075" height="18.0075" rx="5" stroke="black" stroke-width="1.5" stroke-linecap="round" stroke-linejoin="round"/>
<path d="M14.1219 9.87761L12.3131 11.6869C11.7496 12.2506 11.7496 13.1644 12.3131 13.7281V13.7281L12.3441 13.7591C12.6148 14.0298 12.9818 14.1819 13.3646 14.1819C13.7474 14.1818 14.1144 14.0298 14.385 13.7591L16.1445 11.9993C17.2881 10.8554 17.2881 9.00112 16.1445 7.85724V7.85724C15.5951 7.30775 14.85 6.99902 14.073 6.99902C13.296 6.99902 12.5508 7.3077 12.0014 7.85717L12.001 7.85754L7.85676 11.9995C7.3069 12.5491 6.99792 13.2947 6.99782 14.0721C6.99771 14.8495 7.30649 15.5952 7.8562 16.1449V16.1449C8.40566 16.6944 9.15093 17.0031 9.92802 17.0031C10.7051 17.0031 11.4503 16.6943 11.9998 16.1448" stroke="black" stroke-width="1.5" stroke-linecap="round" stroke-linejoin="round"/>
</svg>
