<svg width="24" height="24" viewBox="0 0 24 24" fill="none" xmlns="http://www.w3.org/2000/svg">
<path d="M17.0691 13.4454L14.2439 16.2716C12.5861 17.9284 9.89929 17.9284 8.24143 16.2716V16.2716C7.44529 15.4757 6.99801 14.3961 6.99801 13.2704C6.99801 12.1446 7.44529 11.065 8.24143 10.2691L11.1997 7.31389C12.3048 6.20917 14.0962 6.20917 15.2013 7.31389V7.31389C16.306 8.41905 16.306 10.2104 15.2013 11.3156L12.3331 14.1837C11.7804 14.7358 10.885 14.7358 10.3323 14.1837V14.1837C9.78022 13.6311 9.78022 12.7356 10.3323 12.1829L12.071 10.4442" stroke="black" stroke-width="1.5" stroke-linecap="round" stroke-linejoin="round"/>
<circle cx="12" cy="11.9998" r="9.00375" stroke="black" stroke-width="1.5" stroke-linecap="round" stroke-linejoin="round"/>
</svg>
