<svg width="24" height="24" viewBox="0 0 24 24" fill="none" xmlns="http://www.w3.org/2000/svg">
<path d="M13 20.938C12.6683 20.9791 12.3343 20.9998 12 21C7.02944 21 3 16.9706 3 12C3 7.02944 7.02944 3 12 3C16.9706 3 21 7.02944 21 12C20.9998 12.3343 20.9791 12.6683 20.938 13" stroke="black" stroke-width="1.5" stroke-linecap="round" stroke-linejoin="round"/>
<path d="M20 17L17.5 19.5L16 18" stroke="black" stroke-width="1.5" stroke-linecap="round" stroke-linejoin="round"/>
<path d="M12 13V9.5C12 8.67157 12.6716 8 13.5 8V8C14.3284 8 15 8.67157 15 9.5V13C15 14.6569 13.6569 16 12 16V16C10.3431 16 9 14.6569 9 13V9.9997" stroke="black" stroke-width="1.5" stroke-linecap="round" stroke-linejoin="round"/>
</svg>
