<svg width="24" height="24" viewBox="0 0 24 24" fill="none" xmlns="http://www.w3.org/2000/svg">
<path d="M12.4496 18.5503L10.8284 20.1715C10.298 20.702 9.57856 21 8.82841 21C8.07827 21 7.35885 20.702 6.82841 20.1715V20.1715C6.29798 19.6411 5.99998 18.9217 5.99998 18.1715C5.99998 17.4214 6.29798 16.702 6.82841 16.1715L15 8" stroke="black" stroke-width="1.5" stroke-linecap="round" stroke-linejoin="round"/>
<path d="M4 13L12.5503 4.44975C13.4785 3.52149 14.7375 3 16.0503 3C17.363 3 18.622 3.52149 19.5503 4.44975V4.44975C20.4785 5.37801 21 6.637 21 7.94975C21 9.26251 20.4785 10.5215 19.5503 11.4498" stroke="black" stroke-width="1.5" stroke-linecap="round" stroke-linejoin="round"/>
<path d="M17 14L15 16L17 18" stroke="black" stroke-width="1.5" stroke-linecap="round" stroke-linejoin="round"/>
<path d="M20 16H15" stroke="black" stroke-width="1.5" stroke-linecap="round" stroke-linejoin="round"/>
</svg>
