<svg width="24" height="24" viewBox="0 0 24 24" fill="none" xmlns="http://www.w3.org/2000/svg">
<path d="M2.99625 13.0001L11.5501 4.44629" stroke="black" stroke-width="1.5" stroke-linecap="round" stroke-linejoin="round"/>
<path d="M11.5501 4.44645C12.4787 3.5178 13.7382 2.99609 15.0515 2.99609C16.3648 2.99609 17.6243 3.5178 18.553 4.44645V4.44645C19.4816 5.37509 20.0033 6.6346 20.0033 7.94791C20.0033 9.26121 19.4816 10.5207 18.553 11.4494" stroke="black" stroke-width="1.5" stroke-linecap="round" stroke-linejoin="round"/>
<path d="M18.553 11.4495L17.8169 12.1856" stroke="black" stroke-width="1.5" stroke-linecap="round" stroke-linejoin="round"/>
<path d="M9.82753 20.1747C8.7225 21.2797 6.93089 21.2797 5.82586 20.1747V20.1747C4.72084 19.0697 4.72084 17.2781 5.82586 16.173L14.0008 7.99805" stroke="black" stroke-width="1.5" stroke-linecap="round" stroke-linejoin="round"/>
<path d="M12.1931 17.8096L9.82753 20.1751" stroke="black" stroke-width="1.5" stroke-linecap="round" stroke-linejoin="round"/>
<path d="M16.1328 15.2656L17.371 16.5033L16.1328 17.741" stroke="black" stroke-width="1.5" stroke-linecap="round" stroke-linejoin="round"/>
<circle cx="16.5019" cy="16.5019" r="4.50187" stroke="black" stroke-width="1.5" stroke-linecap="round" stroke-linejoin="round"/>
</svg>
