<svg width="24" height="24" viewBox="0 0 24 24" fill="none" xmlns="http://www.w3.org/2000/svg">
<path d="M5.5 8.25H3V5.75" stroke="black" stroke-width="1.5" stroke-linecap="round" stroke-linejoin="round"/>
<path d="M20.824 12C20.824 7.029 16.795 3 11.824 3C8.193 3 5.073 5.154 3.65 8.25" stroke="black" stroke-width="1.5" stroke-linecap="round" stroke-linejoin="round"/>
<path fill-rule="evenodd" clip-rule="evenodd" d="M13.521 12L14.827 13.684C14.963 13.859 15.037 14.075 15.037 14.297V15.25C15.037 15.526 14.813 15.75 14.537 15.75H9.463C9.187 15.75 8.963 15.526 8.963 15.25V14.279C8.963 14.069 9.029 13.863 9.153 13.693L10.378 12L9.153 10.308C9.03 10.137 8.963 9.932 8.963 9.722V8.75C8.963 8.474 9.187 8.25 9.463 8.25H14.537C14.813 8.25 15.037 8.474 15.037 8.75V9.703C15.037 9.925 14.963 10.141 14.827 10.316L13.521 12Z" stroke="black" stroke-width="1.5" stroke-linecap="round" stroke-linejoin="round"/>
<path d="M18.5 15.75H21V18.25" stroke="black" stroke-width="1.5" stroke-linecap="round" stroke-linejoin="round"/>
<path d="M3.176 12C3.176 16.971 7.205 21 12.176 21C15.806 21 18.927 18.846 20.35 15.75" stroke="black" stroke-width="1.5" stroke-linecap="round" stroke-linejoin="round"/>
</svg>
