<svg width="24" height="24" viewBox="0 0 24 24" fill="none" xmlns="http://www.w3.org/2000/svg">
<path d="M20.0033 20.8342L17.7424 18.5732" stroke="black" stroke-width="1.5" stroke-linecap="round" stroke-linejoin="round"/>
<path d="M6.25761 18.5732L3.99667 20.8342" stroke="black" stroke-width="1.5" stroke-linecap="round" stroke-linejoin="round"/>
<path d="M8.93773 5.60827C11.9281 4.36875 15.3706 5.05261 17.6601 7.34097C19.9496 9.62933 20.6352 13.0715 19.3972 16.0625C18.1592 19.0534 15.2414 21.0041 12.0044 21.0049C8.76733 21.0058 5.84853 19.0566 4.60901 16.0662L4.60793 16.0636C2.91724 11.9808 4.85551 7.30039 8.93773 5.60827" stroke="black" stroke-width="1.5" stroke-linecap="round" stroke-linejoin="round"/>
<path d="M7.51213 3.09618C6.36589 2.75876 5.12673 3.02701 4.22266 3.80828C3.3186 4.58955 2.87356 5.77674 3.04127 6.95979" stroke="black" stroke-width="1.5" stroke-linecap="round" stroke-linejoin="round"/>
<path d="M16.5019 3.09676C17.6481 2.7599 18.8869 3.02836 19.7908 3.8095C20.6947 4.59064 21.1399 5.77746 20.9727 6.96037" stroke="black" stroke-width="1.5" stroke-linecap="round" stroke-linejoin="round"/>
<path d="M10.1993 10.8132C10.3837 10.0187 11.1073 9.46778 11.9222 9.50161C12.8342 9.45112 13.616 10.1461 13.6728 11.0577C13.6728 12.2278 12 12.6138 12 13.3918" stroke="black" stroke-width="1.5" stroke-linecap="round" stroke-linejoin="round"/>
<path d="M12 15.9014C11.9724 15.9014 11.95 15.9238 11.95 15.9514C11.95 15.979 11.9724 16.0014 12 16.0014C12.0276 16.0014 12.05 15.979 12.05 15.9514C12.05 15.9238 12.0276 15.9014 12 15.9014" stroke="black" stroke-width="1.5" stroke-linecap="round" stroke-linejoin="round"/>
</svg>
