<svg width="24" height="24" viewBox="0 0 24 24" fill="none" xmlns="http://www.w3.org/2000/svg">
<path d="M12.6593 6.9834V11.6363L16.3168 13.8663" stroke="black" stroke-width="1.5" stroke-linecap="round" stroke-linejoin="round"/>
<path d="M3.99667 9.99882C4.53478 5.18576 8.78379 1.66062 13.6135 2.02037C18.4431 2.38011 22.123 6.49583 21.9421 11.3355C21.7613 16.1752 17.7844 20.0048 12.9414 20.003" stroke="black" stroke-width="1.5" stroke-linecap="round" stroke-linejoin="round"/>
<path d="M7.33106 16.335L5.66436 18.0027L4.66395 17.0022" stroke="black" stroke-width="1.5" stroke-linecap="round" stroke-linejoin="round"/>
<path fill-rule="evenodd" clip-rule="evenodd" d="M7.99833 21.0043H3.99667C2.89164 21.0043 1.99583 20.1085 1.99583 19.0035V15.0018C1.99583 13.8968 2.89164 13.001 3.99667 13.001H7.99833C9.10336 13.001 9.99917 13.8968 9.99917 15.0018V19.0035C9.99917 20.1085 9.10336 21.0043 7.99833 21.0043Z" stroke="black" stroke-width="1.5" stroke-linecap="round" stroke-linejoin="round"/>
</svg>
