<svg width="24" height="24" viewBox="0 0 24 24" fill="none" xmlns="http://www.w3.org/2000/svg">
<path d="M7.72021 17.4521C7.69258 17.4521 7.67019 17.4745 7.67019 17.5022C7.67019 17.5298 7.69258 17.5522 7.72021 17.5522C7.74784 17.5522 7.77023 17.5298 7.77023 17.5022C7.77023 17.4745 7.74784 17.4521 7.72021 17.4521" stroke="black" stroke-width="1.5" stroke-linecap="round" stroke-linejoin="round"/>
<path d="M5.27419 17.4521C5.26102 17.4521 5.24839 17.4574 5.23917 17.4669C5.22995 17.4763 5.2249 17.489 5.22517 17.5022C5.22517 17.5298 5.24757 17.5522 5.27519 17.5522C5.30282 17.5522 5.32521 17.5298 5.32521 17.5022C5.32521 17.4745 5.30282 17.4521 5.27519 17.4521" stroke="black" stroke-width="1.5" stroke-linecap="round" stroke-linejoin="round"/>
<circle cx="6.49771" cy="17.5029" r="4.50187" stroke="black" stroke-width="1.5" stroke-linecap="round" stroke-linejoin="round"/>
<path d="M4.36582 13.5372C3.20095 9.58069 4.86813 5.33809 8.41492 3.23312C11.9617 1.12814 16.4845 1.69708 19.3994 4.61489C22.3144 7.53271 22.8789 12.056 20.7704 15.6008C18.6619 19.1455 14.4177 20.8085 10.4624 19.6397" stroke="black" stroke-width="1.5" stroke-linecap="round" stroke-linejoin="round"/>
<path d="M16.893 11.3913H12.5002V5.99805" stroke="black" stroke-width="1.5" stroke-linecap="round" stroke-linejoin="round"/>
</svg>
