<svg width="24" height="24" viewBox="0 0 24 24" fill="none" xmlns="http://www.w3.org/2000/svg">
<path d="M7.99832 17.502L9.99915 19.5028L7.99832 21.5036" stroke="black" stroke-width="1.5" stroke-linecap="round" stroke-linejoin="round"/>
<path d="M12.007 10.3125C11.3233 10.3097 10.7053 10.7194 10.4418 11.3504C10.1782 11.9813 10.3212 12.7088 10.8038 13.1932C11.2864 13.6775 12.0135 13.823 12.6453 13.5618C13.2772 13.3005 13.6891 12.684 13.6887 12.0002C13.6876 11.0709 12.9363 10.3169 12.007 10.3125" stroke="black" stroke-width="1.5" stroke-linecap="round" stroke-linejoin="round"/>
<path d="M13.2005 10.8001L16.2018 7.79883" stroke="black" stroke-width="1.5" stroke-linecap="round" stroke-linejoin="round"/>
<path d="M9.55597 14.4439L10.8065 13.1934" stroke="black" stroke-width="1.5" stroke-linecap="round" stroke-linejoin="round"/>
<path d="M9.99917 19.5031H3.99667" stroke="black" stroke-width="1.5" stroke-linecap="round" stroke-linejoin="round"/>
<path d="M14.0008 20.2743C17.7421 19.4225 20.5324 16.2934 20.9519 12.4794C21.3713 8.66547 19.3276 5.00473 15.8609 3.3603C12.3941 1.71587 8.26617 2.44908 5.57781 5.18678C2.88946 7.92448 2.23144 12.0651 3.93864 15.5013" stroke="black" stroke-width="1.5" stroke-linecap="round" stroke-linejoin="round"/>
</svg>
