<svg width="24" height="24" viewBox="0 0 24 24" fill="none" xmlns="http://www.w3.org/2000/svg">
<path d="M11.9203 12.5206V7.06836" stroke="black" stroke-width="1.5" stroke-linecap="round" stroke-linejoin="round"/>
<path d="M15.2616 15.1726L11.9203 12.5215" stroke="black" stroke-width="1.5" stroke-linecap="round" stroke-linejoin="round"/>
<path d="M12 2.99609C7.02736 2.99609 2.99625 7.02721 2.99625 11.9998C2.99625 16.9725 7.02736 21.0036 12 21.0036C16.9726 21.0036 21.0037 16.9725 21.0037 11.9998" stroke="black" stroke-width="1.5" stroke-linecap="round" stroke-linejoin="round"/>
<path d="M19.0029 0.995117C21.213 0.995117 23.0046 2.78672 23.0046 4.99678C23.0046 7.20684 21.213 8.99845 19.0029 8.99845C16.7929 8.99845 15.0013 7.20684 15.0013 4.99678C15.0013 2.78672 16.7929 0.995117 19.0029 0.995117" stroke="black" stroke-width="1.5" stroke-linecap="round" stroke-linejoin="round"/>
<path d="M20.1382 4.99728C20.1382 5.0249 20.1158 5.0473 20.0881 5.0473C20.0605 5.0473 20.0381 5.0249 20.0381 4.99728C20.0381 4.96965 20.0605 4.94726 20.0881 4.94726" stroke="black" stroke-width="1.5" stroke-linecap="round" stroke-linejoin="round"/>
<path d="M20.0881 4.94688C20.1014 4.94688 20.1141 4.95215 20.1235 4.96153C20.1329 4.97091 20.1382 4.98363 20.1382 4.9969" stroke="black" stroke-width="1.5" stroke-linecap="round" stroke-linejoin="round"/>
<path d="M17.9677 4.99728C17.9677 5.0249 17.9453 5.0473 17.9177 5.0473C17.89 5.0473 17.8676 5.0249 17.8676 4.99728C17.8676 4.96965 17.89 4.94726 17.9177 4.94726" stroke="black" stroke-width="1.5" stroke-linecap="round" stroke-linejoin="round"/>
<path d="M17.9177 4.94688C17.9453 4.94688 17.9677 4.96927 17.9677 4.9969" stroke="black" stroke-width="1.5" stroke-linecap="round" stroke-linejoin="round"/>
</svg>
