<svg width="24" height="24" viewBox="0 0 24 24" fill="none" xmlns="http://www.w3.org/2000/svg">
<path d="M10 2H14" stroke="black" stroke-width="1.5" stroke-linecap="round" stroke-linejoin="round"/>
<path d="M17.6569 7.34314C20.7811 10.4673 20.7811 15.5327 17.6569 18.6568C14.5327 21.781 9.46739 21.781 6.3432 18.6568C3.21901 15.5327 3.21901 10.4673 6.3432 7.34314C9.46739 4.21895 14.5327 4.21895 17.6569 7.34314" stroke="black" stroke-width="1.5" stroke-linecap="round" stroke-linejoin="round"/>
<path d="M20 5L17.66 7.34" stroke="black" stroke-width="1.5" stroke-linecap="round" stroke-linejoin="round"/>
<path d="M19 4L21 6" stroke="black" stroke-width="1.5" stroke-linecap="round" stroke-linejoin="round"/>
<path d="M11.998 12.5C11.722 12.5 11.498 12.724 11.5 13C11.5 13.276 11.724 13.5 12 13.5C12.276 13.5 12.5 13.276 12.5 13C12.5 12.724 12.276 12.5 11.998 12.5" stroke="black" stroke-width="1.5" stroke-linecap="round" stroke-linejoin="round"/>
<path d="M12 18V13.5" stroke="black" stroke-width="1.5" stroke-linecap="round" stroke-linejoin="round"/>
<path d="M13.913 8.38306C15.724 9.13406 17 10.9171 17 13.0001C17 14.6311 16.208 16.0651 15 16.9771" stroke="black" stroke-width="1.5" stroke-linecap="round" stroke-linejoin="round"/>
</svg>
