<svg width="24" height="24" viewBox="0 0 24 24" fill="none" xmlns="http://www.w3.org/2000/svg">
<path d="M17.6919 18.126L20.0033 20.4374" stroke="black" stroke-width="1.5" stroke-linecap="round" stroke-linejoin="round"/>
<path d="M6.30788 18.127L3.99667 20.4382" stroke="black" stroke-width="1.5" stroke-linecap="round" stroke-linejoin="round"/>
<circle cx="12" cy="12.5004" r="8.00333" stroke="black" stroke-width="1.5"/>
<path d="M4.60692 9.42911C3.602 8.79373 2.99377 7.68682 2.99624 6.49789C2.99703 4.88731 4.09587 3.48478 5.65947 3.09861C7.22307 2.71245 8.84851 3.44217 9.599 4.86721" stroke="black" stroke-width="1.5" stroke-linecap="round" stroke-linejoin="round"/>
<path d="M14.401 4.86721C15.1515 3.44217 16.7769 2.71245 18.3405 3.09861C19.9041 3.48478 21.003 4.88731 21.0038 6.49789C21.0062 7.68682 20.398 8.79373 19.3931 9.42911" stroke="black" stroke-width="1.5" stroke-linecap="round" stroke-linejoin="round"/>
<path d="M12.0003 12.2721V10.001" stroke="black" stroke-width="1.5" stroke-linecap="round" stroke-linejoin="round"/>
<path d="M12.0003 14.7794C11.9389 14.7794 11.8891 14.8291 11.8891 14.8905V14.8919C11.8903 14.9535 11.941 15.0026 12.0026 15.0017C12.0642 15.0008 12.1135 14.9503 12.1128 14.8887C12.1122 14.8271 12.0619 14.7776 12.0003 14.778" stroke="black" stroke-width="1.5" stroke-linecap="round" stroke-linejoin="round"/>
</svg>
