<svg width="24" height="24" viewBox="0 0 24 24" fill="none" xmlns="http://www.w3.org/2000/svg">
<path d="M7.62818 13.8672L11.2857 11.6373V6.98438" stroke="black" stroke-width="1.5" stroke-linecap="round" stroke-linejoin="round"/>
<path d="M19.4541 14.8279H21.0037V13.2812" stroke="black" stroke-width="1.5" stroke-linecap="round" stroke-linejoin="round"/>
<path d="M15.9947 18.1768H14.448V19.7244" stroke="black" stroke-width="1.5" stroke-linecap="round" stroke-linejoin="round"/>
<path d="M21.0037 17.6699C20.8416 18.1632 20.5677 18.6124 20.2034 18.9825C19.423 19.7621 18.3208 20.1283 17.229 19.9708C16.1372 19.8133 15.1834 19.1505 14.6551 18.1821" stroke="black" stroke-width="1.5" stroke-linecap="round" stroke-linejoin="round"/>
<path d="M20.7977 14.8275C20.2694 13.8591 19.3156 13.1963 18.2238 13.0388C17.132 12.8813 16.0298 13.2476 15.2494 14.0272C14.8833 14.3969 14.6074 14.8461 14.443 15.3397" stroke="black" stroke-width="1.5" stroke-linecap="round" stroke-linejoin="round"/>
<path d="M10.9996 20.003C6.15653 20.0048 2.17972 16.1752 1.99884 11.3355C1.81797 6.49583 5.49784 2.38011 10.3275 2.02037C15.1572 1.66062 19.4062 5.18576 19.9443 9.99882" stroke="black" stroke-width="1.5" stroke-linecap="round" stroke-linejoin="round"/>
</svg>
