<svg width="24" height="24" viewBox="0 0 24 24" fill="none" xmlns="http://www.w3.org/2000/svg">
<path d="M16.0017 2.99609C18.7642 2.99609 21.0037 5.2356 21.0037 7.99818" stroke="black" stroke-width="1.5" stroke-linecap="round" stroke-linejoin="round"/>
<path d="M16.0017 5.99805C17.1067 5.99805 18.0025 6.89385 18.0025 7.99888" stroke="black" stroke-width="1.5" stroke-linecap="round" stroke-linejoin="round"/>
<path d="M12 2.99609H7.99833C5.23576 2.99609 2.99625 5.2356 2.99625 7.99818V16.0015C2.99625 18.7641 5.23576 21.0036 7.99833 21.0036H16.0017C18.7642 21.0036 21.0037 18.7641 21.0037 16.0015V11.9998" stroke="black" stroke-width="1.5" stroke-linecap="round" stroke-linejoin="round"/>
<path fill-rule="evenodd" clip-rule="evenodd" d="M14.6191 10.8991C14.052 8.9766 12.1169 7.79984 10.1491 8.18082C8.18126 8.5618 6.82515 10.3758 7.01655 12.371C7.20795 14.3662 8.88418 15.8891 10.8885 15.8891H14.501C15.818 15.8345 16.8665 14.7671 16.8977 13.4494C16.9288 12.1317 15.932 11.016 14.6191 10.8991Z" stroke="black" stroke-width="1.5" stroke-linecap="round" stroke-linejoin="round"/>
</svg>
