<svg width="24" height="24" viewBox="0 0 24 24" fill="none" xmlns="http://www.w3.org/2000/svg">
<path d="M7.99833 17.502L9.99917 19.5028L7.99833 21.5036" stroke="black" stroke-width="1.5" stroke-linecap="round" stroke-linejoin="round"/>
<path d="M9.99917 19.5031H3.99667" stroke="black" stroke-width="1.5" stroke-linecap="round" stroke-linejoin="round"/>
<path d="M14.0008 20.2743C17.7421 19.4225 20.5324 16.2934 20.9519 12.4794C21.3713 8.66547 19.3276 5.00473 15.8609 3.3603C12.3941 1.71587 8.26617 2.44908 5.57781 5.18678C2.88946 7.92448 2.23144 12.0651 3.93864 15.5013" stroke="black" stroke-width="1.5" stroke-linecap="round" stroke-linejoin="round"/>
<path fill-rule="evenodd" clip-rule="evenodd" d="M9.12681 10.266C7.81013 10.445 6.85746 11.6138 6.94768 12.9395C7.03791 14.2652 8.14016 15.2942 9.46895 15.2931H15.0363C16.1546 15.2931 17.0611 14.3865 17.0611 13.2682C17.0611 12.1499 16.1546 11.2434 15.0363 11.2434C15.0371 9.75754 13.9622 8.48948 12.4963 8.24702C11.0304 8.00456 9.6044 8.85898 9.12681 10.266Z" stroke="black" stroke-width="1.5" stroke-linecap="round" stroke-linejoin="round"/>
</svg>
