<svg width="24" height="24" viewBox="0 0 24 24" fill="none" xmlns="http://www.w3.org/2000/svg">
<path d="M20.5856 9.35174C20.8587 10.2081 20.9997 11.101 21.0037 11.9998C21.0037 16.9725 16.9726 21.0036 12 21.0036C7.02736 21.0036 2.99625 16.9725 2.99625 11.9998C2.99625 7.02721 7.02736 2.99609 12 2.99609C12.8988 3.00015 13.7918 3.14116 14.6481 3.41427" stroke="black" stroke-width="1.5" stroke-linecap="round" stroke-linejoin="round"/>
<path fill-rule="evenodd" clip-rule="evenodd" d="M14.6191 10.9C14.052 8.97758 12.1169 7.80082 10.1491 8.18179C8.18126 8.56277 6.82515 10.3767 7.01655 12.3719C7.20795 14.3671 8.88418 15.8901 10.8885 15.8901H14.501C15.818 15.8355 16.8665 14.7681 16.8977 13.4504C16.9288 12.1327 15.932 11.0169 14.6191 10.9Z" stroke="black" stroke-width="1.5" stroke-linecap="round" stroke-linejoin="round"/>
<path d="M19.0149 6.25991L17.7394 4.98438" stroke="black" stroke-width="1.5" stroke-linecap="round" stroke-linejoin="round"/>
<path d="M21.0037 4.27051L19.0149 6.25937" stroke="black" stroke-width="1.5" stroke-linecap="round" stroke-linejoin="round"/>
</svg>
