<svg width="24" height="24" viewBox="0 0 24 24" fill="none" xmlns="http://www.w3.org/2000/svg">
<path fill-rule="evenodd" clip-rule="evenodd" d="M14.6188 10.9004C14.0517 8.9777 12.1164 7.80077 10.1484 8.18181C8.18034 8.56285 6.82416 10.3771 7.01572 12.3725C7.20729 14.3679 8.88387 15.8909 10.8884 15.8906H14.5011C15.8586 15.8931 16.9693 14.8103 17.0013 13.4531C17.0333 12.0959 15.9749 10.9619 14.6188 10.9004Z" stroke="black" stroke-width="1.5" stroke-linecap="round" stroke-linejoin="round"/>
<path d="M12 21.0036C9.61204 21.0036 7.32187 20.0551 5.63333 18.3665C3.94479 16.678 2.99625 14.3878 2.99625 11.9998C3.07062 7.05555 7.06284 3.06651 12.0072 2.99609C16.9798 2.99808 21.0093 7.03081 21.0073 12.0034C21.0054 16.9761 16.9726 21.0056 12 21.0036" stroke="black" stroke-width="1.5" stroke-linecap="round" stroke-linejoin="round"/>
</svg>
