<svg width="24" height="24" viewBox="0 0 24 24" fill="none" xmlns="http://www.w3.org/2000/svg">
<path d="M17.7524 4.99728H20.2534" stroke="black" stroke-width="1.5" stroke-linecap="round" stroke-linejoin="round"/>
<path d="M19.0029 6.24762V3.74658" stroke="black" stroke-width="1.5" stroke-linecap="round" stroke-linejoin="round"/>
<path d="M19.0029 8.99894C16.793 8.99894 15.0013 7.20719 15.0013 4.99727C15.0013 2.78735 16.793 0.995605 19.0029 0.995605C21.2128 0.995605 23.0046 2.78735 23.0046 4.99727C23.0046 7.20719 21.2128 8.99894 19.0029 8.99894" stroke="black" stroke-width="1.5" stroke-linecap="round" stroke-linejoin="round"/>
<path d="M15.0073 4.76239C13.9368 4.27619 12.7523 3.99707 11.4998 3.99707C6.80384 3.99707 2.99625 7.80466 2.99625 12.5006C2.99625 17.1966 6.80384 21.0042 11.4998 21.0042C16.1958 21.0042 20.0033 17.1966 20.0033 12.5006C20.0033 11.2481 19.7242 10.0636 19.238 8.99315" stroke="black" stroke-width="1.5" stroke-linecap="round" stroke-linejoin="round"/>
<path fill-rule="evenodd" clip-rule="evenodd" d="M8.78666 10.8628C7.62118 11.0219 6.7198 12.0113 6.7198 13.2198C6.7198 14.5394 7.79025 15.6098 9.1098 15.6098H14.368C15.4244 15.6098 16.2808 14.7534 16.2808 13.697C16.2808 12.6406 15.4244 11.7842 14.368 11.7842C14.368 10.1996 13.0845 8.91602 11.4998 8.91602C10.2393 8.91802 9.17082 9.73236 8.78666 10.8628Z" stroke="black" stroke-width="1.5" stroke-linecap="round" stroke-linejoin="round"/>
</svg>
