<svg width="24" height="24" viewBox="0 0 24 24" fill="none" xmlns="http://www.w3.org/2000/svg">
<path fill-rule="evenodd" clip-rule="evenodd" d="M15.3 21H8.7C5.5 21 3 18.4 3 15.3V8.7C3 5.5 5.5 3 8.7 3H15.4C18.5 3 21 5.5 21 8.7V15.4C21 18.4 18.5 21 15.3 21Z" stroke="black" stroke-width="1.5" stroke-linecap="round" stroke-linejoin="round"/>
<path fill-rule="evenodd" clip-rule="evenodd" d="M6.9 12.8C6.9 11.5 7.9 10.5 9.1 10.3C9.5 9.09995 10.6 8.19995 12 8.19995C13.7 8.19995 15 9.59995 15 11.2C16.1 11.2 17 12.1 17 13.2C17 14.3 16.1 15.2 15 15.2H9.5C8.1 15.3 6.9 14.2 6.9 12.8Z" stroke="black" stroke-width="1.5" stroke-linecap="round" stroke-linejoin="round"/>
</svg>
