<svg width="24" height="24" viewBox="0 0 24 24" fill="none" xmlns="http://www.w3.org/2000/svg">
<path fill-rule="evenodd" clip-rule="evenodd" d="M9.49896 15.0016H16.0017C18.7642 15.0016 21.0037 12.7621 21.0037 9.99949C21.0037 7.23691 18.7642 4.9974 16.0017 4.9974C15.6761 4.99713 15.3512 5.02727 15.0313 5.08744C13.3874 2.42206 10.0771 1.30724 7.15581 2.43523C4.2345 3.56322 2.5324 6.61346 3.10641 9.69191C3.68043 12.7704 6.36744 15.0022 9.49896 15.0016V15.0016Z" stroke="black" stroke-width="1.5" stroke-linecap="round" stroke-linejoin="round"/>
<path d="M8.55923 18.9425C8.9884 19.3716 9.11679 20.0171 8.88452 20.5778C8.65225 21.1386 8.10507 21.5042 7.49812 21.5042C6.89118 21.5042 6.344 21.1386 6.11173 20.5778C5.87946 20.0171 6.00785 19.3716 6.43702 18.9425C7.02305 18.3564 7.9732 18.3564 8.55923 18.9425" stroke="black" stroke-width="1.5" stroke-linecap="round" stroke-linejoin="round"/>
<path d="M21.0037 20.0031H8.99875" stroke="black" stroke-width="1.5" stroke-linecap="round" stroke-linejoin="round"/>
<path d="M2.99625 20.0031H5.9975" stroke="black" stroke-width="1.5" stroke-linecap="round" stroke-linejoin="round"/>
</svg>
