<svg width="24" height="24" viewBox="0 0 24 24" fill="none" xmlns="http://www.w3.org/2000/svg">
<path fill-rule="evenodd" clip-rule="evenodd" d="M10.4994 10.4993H8.99875C8.16998 10.4993 7.49812 9.82744 7.49812 8.99867V8.99867C7.49812 8.1699 8.16998 7.49805 8.99875 7.49805V7.49805C9.82752 7.49805 10.4994 8.1699 10.4994 8.99867V10.4993Z" stroke="black" stroke-width="1.5" stroke-linecap="round" stroke-linejoin="round"/>
<path fill-rule="evenodd" clip-rule="evenodd" d="M10.4994 10.499H13.5006V13.5003H10.4994V10.499Z" stroke="black" stroke-width="1.5" stroke-linecap="round" stroke-linejoin="round"/>
<path fill-rule="evenodd" clip-rule="evenodd" d="M8.99875 16.5022V16.5022C8.16998 16.5022 7.49812 15.8304 7.49812 15.0016V15.0016C7.49812 14.1728 8.16998 13.501 8.99875 13.501H10.4994V15.0016C10.4994 15.8304 9.82752 16.5022 8.99875 16.5022Z" stroke="black" stroke-width="1.5" stroke-linecap="round" stroke-linejoin="round"/>
<path fill-rule="evenodd" clip-rule="evenodd" d="M13.5006 13.501H15.0013C15.83 13.501 16.5019 14.1728 16.5019 15.0016V15.0016C16.5019 15.8304 15.83 16.5022 15.0013 16.5022V16.5022C14.1725 16.5022 13.5006 15.8304 13.5006 15.0016V13.501Z" stroke="black" stroke-width="1.5" stroke-linecap="round" stroke-linejoin="round"/>
<path fill-rule="evenodd" clip-rule="evenodd" d="M12 2.99609V2.99609C16.9726 2.99609 21.0037 7.02721 21.0037 11.9998V11.9998C21.0037 16.9725 16.9726 21.0036 12 21.0036V21.0036C7.02736 21.0036 2.99625 16.9725 2.99625 11.9998V11.9998C2.99625 7.02721 7.02736 2.99609 12 2.99609V2.99609Z" stroke="black" stroke-width="1.5" stroke-linecap="round" stroke-linejoin="round"/>
<path fill-rule="evenodd" clip-rule="evenodd" d="M15.0013 7.49805V7.49805C15.83 7.49805 16.5019 8.1699 16.5019 8.99867V8.99867C16.5019 9.82744 15.83 10.4993 15.0013 10.4993H13.5006V8.99867C13.5006 8.1699 14.1725 7.49805 15.0013 7.49805Z" stroke="black" stroke-width="1.5" stroke-linecap="round" stroke-linejoin="round"/>
</svg>
