<svg width="24" height="24" viewBox="0 0 24 24" fill="none" xmlns="http://www.w3.org/2000/svg">
<path d="M15.944 16.667L18.111 14.5L15.944 12.333" stroke="black" stroke-width="1.5" stroke-linecap="round" stroke-linejoin="round"/>
<path d="M13.056 12.333L10.889 14.5L13.056 16.667" stroke="black" stroke-width="1.5" stroke-linecap="round" stroke-linejoin="round"/>
<path d="M5.167 16C3.97 16 3 15.03 3 13.833V5.167C3 3.97 3.97 3 5.167 3H13.834C15.03 3 16 3.97 16 5.167" stroke="black" stroke-width="1.5" stroke-linecap="round" stroke-linejoin="round"/>
<path fill-rule="evenodd" clip-rule="evenodd" d="M18.833 21H10.166C8.97 21 8 20.03 8 18.833V10.166C8 8.97 8.97 8 10.167 8H18.834C20.03 8 21 8.97 21 10.167V18.834C21 20.03 20.03 21 18.833 21V21Z" stroke="black" stroke-width="1.5" stroke-linecap="round" stroke-linejoin="round"/>
</svg>
