<svg width="24" height="24" viewBox="0 0 24 24" fill="none" xmlns="http://www.w3.org/2000/svg">
<path d="M12.9528 8.66113L11.0472 15.3306" stroke="black" stroke-width="1.5" stroke-linecap="round" stroke-linejoin="round"/>
<path d="M8.90272 12.9483L6.99792 11.0425L8.90272 9.1377" stroke="black" stroke-width="1.5" stroke-linecap="round" stroke-linejoin="round"/>
<path d="M15.0973 14.8545L17.0021 12.9487L15.0973 11.0439" stroke="black" stroke-width="1.5" stroke-linecap="round" stroke-linejoin="round"/>
<path fill-rule="evenodd" clip-rule="evenodd" d="M7.99833 2.99219H16.0017C18.7642 2.99219 21.0037 5.2317 21.0037 7.99427V15.9976C21.0037 17.3242 20.4767 18.5965 19.5387 19.5346C18.6006 20.4727 17.3283 20.9997 16.0017 20.9997H7.99833C5.23576 20.9997 2.99625 18.7602 2.99625 15.9976V7.99427C2.99625 6.66764 3.52325 5.39534 4.46132 4.45726C5.3994 3.51919 6.67169 2.99219 7.99833 2.99219Z" stroke="black" stroke-width="1.5" stroke-linecap="round" stroke-linejoin="round"/>
</svg>
