<svg width="24" height="24" viewBox="0 0 24 24" fill="none" xmlns="http://www.w3.org/2000/svg">
<path d="M10.3365 3.15625C8.2951 3.53898 6.44919 4.61683 5.11256 6.20658" stroke="black" stroke-width="1.5" stroke-linecap="round" stroke-linejoin="round"/>
<path d="M3.48964 9.08105C2.81543 11.0177 2.83268 13.128 3.53848 15.0533" stroke="black" stroke-width="1.5" stroke-linecap="round" stroke-linejoin="round"/>
<path d="M5.20888 17.8994C6.53685 19.4314 8.34402 20.4691 10.3365 20.8437" stroke="black" stroke-width="1.5" stroke-linecap="round" stroke-linejoin="round"/>
<path d="M13.6635 3.15625C15.7049 3.53898 17.5508 4.61683 18.8875 6.20658" stroke="black" stroke-width="1.5" stroke-linecap="round" stroke-linejoin="round"/>
<path d="M20.5104 9.08105C21.1846 11.0177 21.1673 13.128 20.4615 15.0533" stroke="black" stroke-width="1.5" stroke-linecap="round" stroke-linejoin="round"/>
<path d="M18.7911 17.8994C17.4632 19.4314 15.656 20.4691 13.6635 20.8437" stroke="black" stroke-width="1.5" stroke-linecap="round" stroke-linejoin="round"/>
<path fill-rule="evenodd" clip-rule="evenodd" d="M8.26468 15.1029L9.81598 10.449C9.91556 10.1502 10.15 9.91582 10.4487 9.81624L15.1026 8.26494C15.2824 8.20503 15.4805 8.25181 15.6145 8.38578C15.7485 8.51975 15.7953 8.71791 15.7353 8.89765L14.184 13.5516C14.0845 13.8503 13.8501 14.0847 13.5513 14.1843L8.89739 15.7356C8.71765 15.7955 8.51949 15.7487 8.38552 15.6148C8.25155 15.4808 8.20477 15.2826 8.26468 15.1029Z" stroke="black" stroke-width="1.5" stroke-linecap="round" stroke-linejoin="round"/>
</svg>
