<svg width="24" height="24" viewBox="0 0 24 24" fill="none" xmlns="http://www.w3.org/2000/svg">
<path d="M5.15714 6.15735C5.61913 5.61755 6.1437 5.13462 6.71979 4.71875" stroke="black" stroke-width="1.5" stroke-linecap="round" stroke-linejoin="round"/>
<path d="M17.0021 19.4854C14.7588 20.9857 11.9606 21.3999 9.37891 20.6138" stroke="black" stroke-width="1.5" stroke-linecap="round" stroke-linejoin="round"/>
<path d="M3.51948 8.99902C3.17502 9.96224 2.99806 10.9773 2.99626 12.0003" stroke="black" stroke-width="1.5" stroke-linecap="round" stroke-linejoin="round"/>
<path d="M9.37891 3.38691C13.0198 2.26849 16.9703 3.56701 19.2376 6.62745C21.505 9.68788 21.5965 13.8453 19.4661 17.0026" stroke="black" stroke-width="1.5" stroke-linecap="round" stroke-linejoin="round"/>
<path d="M6.71979 19.2818C5.24612 18.2103 4.13116 16.718 3.52145 15.001" stroke="black" stroke-width="1.5" stroke-linecap="round" stroke-linejoin="round"/>
<path fill-rule="evenodd" clip-rule="evenodd" d="M13.5807 15.0435L9.8521 15.9579C9.34431 16.0799 8.8096 15.9292 8.44032 15.5599C8.07103 15.1906 7.9203 14.6559 8.04234 14.1481L8.95672 10.4195C9.1349 9.69827 9.69806 9.13511 10.4193 8.95694L14.1479 8.04256C14.6557 7.92051 15.1904 8.07125 15.5597 8.44053C15.9289 8.80981 16.0797 9.34453 15.9576 9.85231L15.0433 13.5809C14.8651 14.3021 14.3019 14.8653 13.5807 15.0435Z" stroke="black" stroke-width="1.5" stroke-linecap="round" stroke-linejoin="round"/>
<path d="M12.2501 12.0002C12.2501 12.1383 12.1381 12.2503 12 12.2503C11.8619 12.2503 11.7499 12.1383 11.7499 12.0002C11.7499 11.8621 11.8619 11.7501 12 11.7501" stroke="black" stroke-width="1.5" stroke-linecap="round" stroke-linejoin="round"/>
<path d="M12 11.7502C12.1381 11.7502 12.2501 11.8621 12.2501 12.0003" stroke="black" stroke-width="1.5" stroke-linecap="round" stroke-linejoin="round"/>
</svg>
