<svg width="24" height="24" viewBox="0 0 24 24" fill="none" xmlns="http://www.w3.org/2000/svg">
<path d="M19.0029 8.99845C16.7929 8.99845 15.0013 7.20684 15.0013 4.99678C15.0013 2.78672 16.7929 0.995117 19.0029 0.995117C21.213 0.995117 23.0046 2.78672 23.0046 4.99678C23.0046 6.05809 22.583 7.07593 21.8325 7.82639C21.0821 8.57685 20.0642 8.99845 19.0029 8.99845" stroke="black" stroke-width="1.5" stroke-linecap="round" stroke-linejoin="round"/>
<path d="M19.243 8.98918C19.7463 10.0913 20.0056 11.2891 20.0033 12.5006C20.0033 17.197 16.1962 21.0042 11.4998 21.0042C6.80341 21.0042 2.99625 17.197 2.99625 12.5006C2.99625 7.80427 6.80341 3.99709 11.4998 3.99709C12.7114 3.99478 13.9092 4.25413 15.0113 4.75742" stroke="black" stroke-width="1.5" stroke-linecap="round" stroke-linejoin="round"/>
<path fill-rule="evenodd" clip-rule="evenodd" d="M12.6613 14.7813L9.8651 15.4676C9.48399 15.5605 9.08201 15.4479 8.80463 15.1705C8.52726 14.8931 8.41464 14.4911 8.50754 14.11L9.19882 11.3138C9.33046 10.7698 9.75524 10.345 10.2993 10.2134L13.1004 9.5271C13.4816 9.4342 13.8835 9.54682 14.1609 9.8242C14.4383 10.1016 14.5509 10.5035 14.458 10.8847L13.7717 13.6858C13.6353 14.2298 13.207 14.6523 12.6613 14.7813V14.7813Z" stroke="black" stroke-width="1.5" stroke-linecap="round" stroke-linejoin="round"/>
<path d="M19.0029 3.81836V6.17534" stroke="black" stroke-width="1.5" stroke-linecap="round" stroke-linejoin="round"/>
<path d="M17.8244 4.99728H20.1814" stroke="black" stroke-width="1.5" stroke-linecap="round" stroke-linejoin="round"/>
</svg>
