<svg width="24" height="24" viewBox="0 0 24 24" fill="none" xmlns="http://www.w3.org/2000/svg">
<path d="M18.364 5.63601C21.879 9.15101 21.879 14.849 18.364 18.364C14.849 21.879 9.15101 21.879 5.63601 18.364C2.12101 14.849 2.12101 9.15101 5.63601 5.63601C9.15101 2.12101 14.849 2.12101 18.364 5.63601" stroke="black" stroke-width="1.5" stroke-linecap="round" stroke-linejoin="round"/>
<path fill-rule="evenodd" clip-rule="evenodd" d="M9.006 14.563L9.836 10.41C9.894 10.121 10.12 9.89503 10.41 9.83703L14.563 9.00703C14.819 8.95603 15.044 9.18103 14.993 9.43703L14.163 13.59C14.105 13.879 13.879 14.105 13.59 14.163L9.437 14.993C9.181 15.045 8.955 14.819 9.006 14.563V14.563Z" stroke="black" stroke-width="1.5" stroke-linecap="round" stroke-linejoin="round"/>
<path d="M12 3V4.5" stroke="black" stroke-width="1.5" stroke-linecap="round" stroke-linejoin="round"/>
<path d="M12 21V19.5" stroke="black" stroke-width="1.5" stroke-linecap="round" stroke-linejoin="round"/>
<path d="M18.364 5.63599L17.303 6.69699" stroke="black" stroke-width="1.5" stroke-linecap="round" stroke-linejoin="round"/>
<path d="M5.63599 18.364L6.69699 17.303" stroke="black" stroke-width="1.5" stroke-linecap="round" stroke-linejoin="round"/>
<path d="M21 12H19.5" stroke="black" stroke-width="1.5" stroke-linecap="round" stroke-linejoin="round"/>
<path d="M3 12H4.5" stroke="black" stroke-width="1.5" stroke-linecap="round" stroke-linejoin="round"/>
<path d="M18.364 18.364L17.303 17.303" stroke="black" stroke-width="1.5" stroke-linecap="round" stroke-linejoin="round"/>
<path d="M5.63599 5.63599L6.69699 6.69699" stroke="black" stroke-width="1.5" stroke-linecap="round" stroke-linejoin="round"/>
</svg>
