<svg width="24" height="24" viewBox="0 0 24 24" fill="none" xmlns="http://www.w3.org/2000/svg">
<path d="M18.3667 5.63344C20.9417 8.20851 21.7121 12.0812 20.3184 15.4457C18.9248 18.8102 15.6417 21.0039 12 21.0039C8.3583 21.0039 5.07518 18.8102 3.68156 15.4457C2.28794 12.0812 3.05827 8.20851 5.63335 5.63344C7.32183 3.94479 9.612 2.99609 12 2.99609C14.388 2.99609 16.6782 3.94479 18.3667 5.63344" stroke="black" stroke-width="1.5" stroke-linecap="round" stroke-linejoin="round"/>
<path d="M12 2.99609V4.49672" stroke="black" stroke-width="1.5" stroke-linecap="round" stroke-linejoin="round"/>
<path d="M12 21.0036V19.5029" stroke="black" stroke-width="1.5" stroke-linecap="round" stroke-linejoin="round"/>
<path d="M18.3666 5.63379L17.3052 6.69523" stroke="black" stroke-width="1.5" stroke-linecap="round" stroke-linejoin="round"/>
<path d="M5.63335 18.3671L6.69479 17.3057" stroke="black" stroke-width="1.5" stroke-linecap="round" stroke-linejoin="round"/>
<path d="M21.0037 12.0002H19.5031" stroke="black" stroke-width="1.5" stroke-linecap="round" stroke-linejoin="round"/>
<path d="M2.99625 12.0002H4.49687" stroke="black" stroke-width="1.5" stroke-linecap="round" stroke-linejoin="round"/>
<path d="M18.3666 18.3671L17.3052 17.3057" stroke="black" stroke-width="1.5" stroke-linecap="round" stroke-linejoin="round"/>
<path d="M5.63335 5.63379L6.69479 6.69523" stroke="black" stroke-width="1.5" stroke-linecap="round" stroke-linejoin="round"/>
<path fill-rule="evenodd" clip-rule="evenodd" d="M13.1874 14.2907L10.428 14.9674C10.0362 15.0634 9.62276 14.9479 9.33756 14.6627C9.05236 14.3775 8.93684 13.964 9.03292 13.5723L9.70963 10.8128C9.84314 10.2684 10.2682 9.8434 10.8126 9.7099L13.572 9.03322C13.9637 8.93715 14.3772 9.05267 14.6624 9.33788C14.9476 9.62308 15.0631 10.0365 14.967 10.4283L14.2903 13.1878C14.1568 13.7322 13.7317 14.1572 13.1874 14.2907V14.2907Z" stroke="black" stroke-width="1.5" stroke-linecap="round" stroke-linejoin="round"/>
</svg>
