<svg width="24" height="24" viewBox="0 0 24 24" fill="none" xmlns="http://www.w3.org/2000/svg">
<path d="M18.4 5.59998C21.9 9.09998 21.9 14.8 18.4 18.3C14.9 21.8 9.2 21.8 5.7 18.3C2.2 14.8 2.2 9.09998 5.7 5.59998C9.2 2.09998 14.8 2.09998 18.4 5.59998" stroke="black" stroke-width="1.5" stroke-linecap="round" stroke-linejoin="round"/>
<path fill-rule="evenodd" clip-rule="evenodd" d="M16 12L13.6 13.1C13.4 13.2 13.2 13.4 13.1 13.6L12 16L10.9 13.6C10.8 13.4 10.6 13.2 10.4 13.1L8 12L10.4 10.9C10.6 10.8 10.8 10.6 10.9 10.4L12 8L13.1 10.4C13.2 10.6 13.4 10.8 13.6 10.9L16 12Z" stroke="black" stroke-width="1.5" stroke-linecap="round" stroke-linejoin="round"/>
<path d="M12 3V4.5" stroke="black" stroke-width="1.5" stroke-linecap="round" stroke-linejoin="round"/>
<path d="M12 21V19.5" stroke="black" stroke-width="1.5" stroke-linecap="round" stroke-linejoin="round"/>
<path d="M18.4 5.59998L17.3 6.69998" stroke="black" stroke-width="1.5" stroke-linecap="round" stroke-linejoin="round"/>
<path d="M5.60001 18.4L6.70001 17.3" stroke="black" stroke-width="1.5" stroke-linecap="round" stroke-linejoin="round"/>
<path d="M21 12H19.5" stroke="black" stroke-width="1.5" stroke-linecap="round" stroke-linejoin="round"/>
<path d="M3 12H4.5" stroke="black" stroke-width="1.5" stroke-linecap="round" stroke-linejoin="round"/>
<path d="M18.4 18.4L17.3 17.3" stroke="black" stroke-width="1.5" stroke-linecap="round" stroke-linejoin="round"/>
<path d="M5.60001 5.59998L6.70001 6.69998" stroke="black" stroke-width="1.5" stroke-linecap="round" stroke-linejoin="round"/>
</svg>
