<svg width="24" height="24" viewBox="0 0 24 24" fill="none" xmlns="http://www.w3.org/2000/svg">
<path d="M8.72763 8.72754C8.55726 8.89742 8.441 9.11394 8.39349 9.3498L7.00891 16.2727C6.96865 16.4728 7.03126 16.6797 7.17569 16.824C7.32012 16.9682 7.52717 17.0305 7.72721 16.99L14.6501 15.6054C14.886 15.5587 15.1027 15.4427 15.2724 15.2723" stroke="black" stroke-width="1.5" stroke-linecap="round" stroke-linejoin="round"/>
<path d="M16.1127 12.1111L16.9901 7.72631C17.0302 7.52668 16.9679 7.3202 16.8239 7.17621C16.6799 7.03222 16.4734 6.96984 16.2738 7.01001L11.8889 7.88738" stroke="black" stroke-width="1.5" stroke-linecap="round" stroke-linejoin="round"/>
<path fill-rule="evenodd" clip-rule="evenodd" d="M16.0017 21.0036H7.99833C5.23576 21.0036 2.99625 18.7641 2.99625 16.0015V7.99818C2.99625 5.2356 5.23576 2.99609 7.99833 2.99609H16.0017C18.7642 2.99609 21.0037 5.2356 21.0037 7.99818V16.0015C21.0037 18.7641 18.7642 21.0036 16.0017 21.0036Z" stroke="black" stroke-width="1.5" stroke-linecap="round" stroke-linejoin="round"/>
<path d="M4.46086 4.46094L19.5391 19.5392" stroke="black" stroke-width="1.5" stroke-linecap="round" stroke-linejoin="round"/>
</svg>
