<svg width="24" height="24" viewBox="0 0 24 24" fill="none" xmlns="http://www.w3.org/2000/svg">
<path d="M5.63333 5.63379L18.3666 18.3671" stroke="black" stroke-width="1.5" stroke-linecap="round" stroke-linejoin="round"/>
<path d="M9.22283 9.22266C9.07836 9.3669 8.97984 9.5507 8.93972 9.75088L7.76523 15.6253C7.73084 15.7951 7.78388 15.9708 7.90645 16.0931C8.02902 16.2155 8.20479 16.2682 8.37448 16.2336L14.2489 15.0591C14.4489 15.0189 14.6326 14.9208 14.7771 14.777" stroke="black" stroke-width="1.5" stroke-linecap="round" stroke-linejoin="round"/>
<path d="M9.22284 9.22266L14.7772 14.777" stroke="black" stroke-width="1.5" stroke-linecap="round" stroke-linejoin="round"/>
<path d="M15.4905 12.0998L16.2338 8.37826C16.2681 8.20898 16.2153 8.03378 16.0931 7.91165C15.971 7.78952 15.7958 7.73672 15.6265 7.77101L11.905 8.51432" stroke="black" stroke-width="1.5" stroke-linecap="round" stroke-linejoin="round"/>
<path d="M18.3666 5.63327C21.8828 9.14946 21.8828 14.8503 18.3666 18.3665C14.8504 21.8826 9.14958 21.8826 5.6334 18.3665C2.11722 14.8503 2.11719 9.14946 5.63334 5.63327C7.32188 3.94472 9.61203 2.99609 12 2.99609C14.388 2.99609 16.6781 3.94472 18.3666 5.63327" stroke="black" stroke-width="1.5" stroke-linecap="round" stroke-linejoin="round"/>
</svg>
