<svg width="24" height="24" viewBox="0 0 24 24" fill="none" xmlns="http://www.w3.org/2000/svg">
<path fill-rule="evenodd" clip-rule="evenodd" d="M7.90399 15.507L9.03999 9.82503C9.11999 9.42903 9.42899 9.12003 9.82499 9.04103L15.507 7.90503C15.857 7.83503 16.165 8.14303 16.095 8.49303L14.959 14.175C14.88 14.571 14.57 14.88 14.175 14.959L8.49299 16.095C8.14299 16.166 7.83399 15.857 7.90399 15.507Z" stroke="black" stroke-width="1.5" stroke-linecap="round" stroke-linejoin="round"/>
<path fill-rule="evenodd" clip-rule="evenodd" d="M17 21H7C4.791 21 3 19.209 3 17V7C3 4.791 4.791 3 7 3H17C19.209 3 21 4.791 21 7V17C21 19.209 19.209 21 17 21Z" stroke="black" stroke-width="1.5" stroke-linecap="round" stroke-linejoin="round"/>
</svg>
