<svg width="24" height="24" viewBox="0 0 24 24" fill="none" xmlns="http://www.w3.org/2000/svg">
<path fill-rule="evenodd" clip-rule="evenodd" d="M7.11897 20.1242L3.87462 16.8799C3.3121 16.317 2.99625 15.5538 2.99625 14.758V9.24169C2.99625 8.44578 3.31273 7.68252 3.87562 7.11981L7.11997 3.87546C7.68268 3.31258 8.44594 2.99609 9.24185 2.99609H14.7581C15.5541 2.99609 16.3173 3.31258 16.88 3.87546L20.1254 7.12081C20.6879 7.68369 21.0037 8.44692 21.0037 9.2427V14.758C21.0037 15.5538 20.6879 16.317 20.1254 16.8799L16.881 20.1252C16.3179 20.688 15.5543 21.004 14.7581 21.0036H9.24185C8.44559 21.0036 7.68192 20.6874 7.11897 20.1242V20.1242Z" stroke="black" stroke-width="1.5" stroke-linecap="round" stroke-linejoin="round"/>
<path fill-rule="evenodd" clip-rule="evenodd" d="M13.5807 15.0435L9.8521 15.9579C9.34432 16.0799 8.80961 15.9292 8.44032 15.5599C8.07104 15.1906 7.92031 14.6559 8.04235 14.1481L8.95673 10.4195C9.13491 9.69827 9.69807 9.13511 10.4193 8.95694L14.1479 8.04256C14.6557 7.92051 15.1904 8.07125 15.5597 8.44053C15.929 8.80981 16.0797 9.34453 15.9576 9.85231L15.0433 13.5809C14.8651 14.3021 14.3019 14.8653 13.5807 15.0435Z" stroke="black" stroke-width="1.5" stroke-linecap="round" stroke-linejoin="round"/>
<path d="M11.7499 12.0002C11.7499 12.1383 11.8619 12.2503 12 12.2503C12.1381 12.2503 12.2501 12.1383 12.2501 12.0002C12.2501 11.8621 12.1381 11.7501 12 11.7501C11.9334 11.7498 11.8695 11.7762 11.8225 11.8234C11.7755 11.8706 11.7494 11.9346 11.7499 12.0012" stroke="black" stroke-width="1.5" stroke-linecap="round" stroke-linejoin="round"/>
</svg>
