<svg width="24" height="24" viewBox="0 0 24 24" fill="none" xmlns="http://www.w3.org/2000/svg">
<path fill-rule="evenodd" clip-rule="evenodd" d="M5.636 5.63601V5.63601C9.151 2.12101 14.849 2.12101 18.364 5.63601V5.63601C21.879 9.15101 21.879 14.849 18.364 18.364V18.364C14.849 21.879 9.151 21.879 5.636 18.364V18.364C2.121 14.849 2.121 9.15101 5.636 5.63601Z" stroke="black" stroke-width="1.5" stroke-linecap="round" stroke-linejoin="round"/>
<path d="M12.8839 11.1161C13.3721 11.6043 13.3721 12.3957 12.8839 12.8839C12.3957 13.372 11.6043 13.372 11.1161 12.8839C10.628 12.3957 10.628 11.6043 11.1161 11.1161C11.6043 10.628 12.3957 10.628 12.8839 11.1161" stroke="black" stroke-width="1.5" stroke-linecap="round" stroke-linejoin="round"/>
<path fill-rule="evenodd" clip-rule="evenodd" d="M7.811 15.645L8.389 9.29498C8.433 8.81398 8.814 8.43298 9.294 8.38998L15.644 7.81298C15.955 7.78498 16.215 8.04498 16.187 8.35598L15.61 14.706C15.566 15.187 15.185 15.568 14.705 15.611L8.354 16.188C8.044 16.216 7.783 15.956 7.811 15.645Z" stroke="black" stroke-width="1.5" stroke-linecap="round" stroke-linejoin="round"/>
</svg>
