<svg width="24" height="24" viewBox="0 0 24 24" fill="none" xmlns="http://www.w3.org/2000/svg">
<path d="M13.0004 20.9416C12.6685 20.9827 12.3344 21.0036 12 21.0036C7.02737 21.0036 2.99625 16.9725 2.99625 11.9998C2.99625 7.02721 7.02737 2.99609 12 2.99609C16.9726 2.99609 21.0037 7.02721 21.0037 11.9998C21.0037 12.3343 20.9829 12.6684 20.9417 13.0003" stroke="black" stroke-width="1.5" stroke-linecap="round" stroke-linejoin="round"/>
<path fill-rule="evenodd" clip-rule="evenodd" d="M13.5807 15.0435L9.85211 15.9579C9.34432 16.0799 8.80961 15.9292 8.44032 15.5599C8.07104 15.1906 7.92031 14.6559 8.04235 14.1481L8.95673 10.4195C9.13491 9.69827 9.69807 9.13511 10.4193 8.95694L14.1479 8.04256C14.6557 7.92051 15.1904 8.07125 15.5597 8.44053C15.929 8.80981 16.0797 9.34453 15.9576 9.85231L15.0433 13.5809C14.8651 14.3021 14.3019 14.8653 13.5807 15.0435Z" stroke="black" stroke-width="1.5" stroke-linecap="round" stroke-linejoin="round"/>
<path d="M19.4901 17.0146L17.0141 19.4907" stroke="black" stroke-width="1.5" stroke-linecap="round" stroke-linejoin="round"/>
<path d="M17.0151 17.0146L19.4911 19.4907" stroke="black" stroke-width="1.5" stroke-linecap="round" stroke-linejoin="round"/>
<path d="M12 11.7501C11.862 11.7507 11.7505 11.8629 11.7509 12.0009C11.7513 12.1389 11.8633 12.2505 12.0013 12.2503C12.1393 12.2501 12.2511 12.1382 12.2511 12.0002C12.2514 11.9336 12.225 11.8697 12.1778 11.8227C12.1306 11.7757 12.0666 11.7496 12 11.7501" stroke="black" stroke-width="1.5" stroke-linecap="round" stroke-linejoin="round"/>
</svg>
