<svg width="24" height="24" viewBox="0 0 24 24" fill="none" xmlns="http://www.w3.org/2000/svg">
<path fill-rule="evenodd" clip-rule="evenodd" d="M12 21.0036C16.9726 21.0036 21.0038 16.9725 21.0038 11.9998C21.0038 7.02721 16.9726 2.99609 12 2.99609C7.02737 2.99609 2.99625 7.02721 2.99625 11.9998C2.99625 16.9725 7.02737 21.0036 12 21.0036V21.0036Z" stroke="black" stroke-width="1.5" stroke-linecap="round" stroke-linejoin="round"/>
<path d="M5.56021 5.71191L7.84658 7.99893" stroke="black" stroke-width="1.5" stroke-linecap="round" stroke-linejoin="round"/>
<path d="M15.8473 16.002L18.286 18.4413" stroke="black" stroke-width="1.5" stroke-linecap="round" stroke-linejoin="round"/>
<path fill-rule="evenodd" clip-rule="evenodd" d="M8.26468 15.1029L9.81598 10.449C9.91556 10.1502 10.15 9.91582 10.4487 9.81624L15.1026 8.26494C15.2824 8.20503 15.4805 8.25181 15.6145 8.38578C15.7485 8.51975 15.7953 8.71791 15.7353 8.89765L14.184 13.5516C14.0845 13.8503 13.8501 14.0847 13.5513 14.1843L8.89739 15.7356C8.71765 15.7955 8.51949 15.7487 8.38552 15.6148C8.25155 15.4808 8.20477 15.2826 8.26468 15.1029Z" stroke="black" stroke-width="1.5" stroke-linecap="round" stroke-linejoin="round"/>
</svg>
