<svg width="24" height="24" viewBox="0 0 24 24" fill="none" xmlns="http://www.w3.org/2000/svg">
<path d="M9.49954 13.45C9.47218 13.45 9.45 13.4722 9.45 13.4995V13.4995V13.5C9.45 13.5276 9.47239 13.55 9.5 13.55C9.52761 13.55 9.55 13.5276 9.55 13.5C9.55 13.4724 9.52761 13.45 9.5 13.45H9.49954" stroke="black" stroke-width="1.5" stroke-linecap="round" stroke-linejoin="round"/>
<path d="M10 9.95C9.98686 9.94988 9.97422 9.95497 9.96484 9.96418C9.95546 9.97338 9.95013 9.98592 9.95 9.99906V9.99906V10.0005C9.95026 10.028 9.97276 10.0502 10.0003 10.05C10.0279 10.0498 10.0501 10.0274 10.05 9.99985C10.0499 9.97229 10.0276 9.95 10 9.95" stroke="black" stroke-width="1.5" stroke-linecap="round" stroke-linejoin="round"/>
<path d="M12.9996 14.45C12.9864 14.45 12.9738 14.4552 12.9645 14.4645C12.9552 14.4738 12.95 14.4864 12.95 14.4996V14.4996V14.5001C12.95 14.5277 12.9724 14.55 13 14.55C13.0276 14.55 13.05 14.5276 13.05 14.5C13.05 14.4724 13.0277 14.4501 13.0001 14.45" stroke="black" stroke-width="1.5" stroke-linecap="round" stroke-linejoin="round"/>
<path fill-rule="evenodd" clip-rule="evenodd" d="M12 6C12 9.31371 14.6863 12 18 12C18 15.3137 15.3137 18 12 18C8.68629 18 6 15.3137 6 12C6 8.68629 8.68629 6 12 6Z" stroke="black" stroke-width="1.5" stroke-linecap="round" stroke-linejoin="round"/>
<path d="M20.7693 9.99977C21.674 13.924 19.8701 17.973 16.3476 19.9248C12.825 21.8767 8.43564 21.2595 5.58798 18.4118C2.74033 15.5642 2.12309 11.1748 4.07495 7.65221C6.02682 4.12965 10.0757 2.32581 14 3.23049" stroke="black" stroke-width="1.5" stroke-linecap="round" stroke-linejoin="round"/>
<path d="M17.25 6.75L19.75 4.25" stroke="black" stroke-width="1.5" stroke-linecap="round" stroke-linejoin="round"/>
<path d="M19.75 6.75L17.25 4.25" stroke="black" stroke-width="1.5" stroke-linecap="round" stroke-linejoin="round"/>
<path d="M12.05 12C12.05 12.0276 12.0276 12.05 12 12.05C11.9724 12.05 11.95 12.0276 11.95 12C11.95 11.9724 11.9724 11.95 12 11.95C12.0276 11.95 12.05 11.9724 12.05 12V12.0001" stroke="black" stroke-width="1.5" stroke-linecap="round" stroke-linejoin="round"/>
</svg>
