<svg width="24" height="24" viewBox="0 0 24 24" fill="none" xmlns="http://www.w3.org/2000/svg">
<path d="M9.33242 13.2832C9.30505 13.2832 9.28286 13.3054 9.28286 13.3328V13.3328V13.3332C9.28286 13.3608 9.30525 13.3832 9.33288 13.3832C9.36051 13.3832 9.3829 13.3608 9.3829 13.3332C9.3829 13.3056 9.36051 13.2832 9.33288 13.2832H9.33242" stroke="black" stroke-width="1.5" stroke-linecap="round" stroke-linejoin="round"/>
<path d="M9.99917 9.94824C9.98603 9.94811 9.97338 9.95321 9.964 9.96242C9.95461 9.97162 9.94928 9.98417 9.94915 9.99732V9.99732V9.99873C9.94941 10.0263 9.97192 10.0484 9.99948 10.0483C10.027 10.0481 10.0493 10.0257 10.0492 9.9981C10.0491 9.97054 10.0267 9.94824 9.99917 9.94824" stroke="black" stroke-width="1.5" stroke-linecap="round" stroke-linejoin="round"/>
<path d="M12.6667 14.6181C12.6394 14.6181 12.6171 14.6403 12.6171 14.6677V14.6677V14.6683C12.6172 14.6959 12.6396 14.7182 12.6672 14.7182C12.6948 14.7182 12.7172 14.6958 12.7172 14.6682C12.7172 14.6406 12.6948 14.6182 12.6672 14.6182" stroke="black" stroke-width="1.5" stroke-linecap="round" stroke-linejoin="round"/>
<path d="M12.0005 11.9492C11.9874 11.9492 11.9748 11.9544 11.9655 11.9637C11.9562 11.973 11.951 11.9856 11.951 11.9988V11.9997C11.9512 12.0199 11.9635 12.0381 11.9823 12.0456C12.0011 12.0532 12.0225 12.0487 12.0367 12.0343C12.0509 12.0198 12.0549 11.9983 12.047 11.9797C12.0391 11.961 12.0208 11.949 12.0005 11.9492" stroke="black" stroke-width="1.5" stroke-linecap="round" stroke-linejoin="round"/>
<path fill-rule="evenodd" clip-rule="evenodd" d="M12 5.99805C12 9.31314 14.6874 12.0005 18.0025 12.0005C18.0025 15.3156 15.3151 18.003 12 18.003C8.68491 18.003 5.9975 15.3156 5.9975 12.0005C5.9975 8.68546 8.68491 5.99805 12 5.99805Z" stroke="black" stroke-width="1.5" stroke-linecap="round" stroke-linejoin="round"/>
<path d="M20.5856 9.35174C20.8587 10.2081 20.9998 11.101 21.0037 11.9998C21.0037 16.9725 16.9726 21.0036 12 21.0036C7.02736 21.0036 2.99625 16.9725 2.99625 11.9998C2.99625 7.02721 7.02736 2.99609 12 2.99609C12.8988 3.00009 13.7918 3.1411 14.6481 3.41427" stroke="black" stroke-width="1.5" stroke-linecap="round" stroke-linejoin="round"/>
<path d="M21.0037 4.27148L19.0159 6.25931L17.7394 4.98478" stroke="black" stroke-width="1.5" stroke-linecap="round" stroke-linejoin="round"/>
</svg>
