<svg width="24" height="24" viewBox="0 0 24 24" fill="none" xmlns="http://www.w3.org/2000/svg">
<path d="M7.99733 13.8391C7.95449 13.839 7.91342 13.8561 7.88332 13.8866C7.85322 13.9171 7.83662 13.9584 7.83726 14.0012C7.83759 14.0906 7.90996 14.1629 7.99933 14.1633C8.05723 14.1629 8.11054 14.1317 8.13918 14.0814C8.16782 14.031 8.16744 13.9693 8.13818 13.9193C8.10892 13.8693 8.05523 13.8388 7.99733 13.8391" stroke="black" stroke-width="1.5" stroke-linecap="round" stroke-linejoin="round"/>
<path d="M8.99774 8.83717C8.95491 8.83706 8.91383 8.85417 8.88373 8.88464C8.85363 8.91512 8.83704 8.95641 8.83767 8.99923C8.83801 9.0886 8.91037 9.16097 8.99974 9.1613C9.08925 9.16075 9.16136 9.08774 9.16081 8.99823C9.16025 8.90873 9.08725 8.83661 8.99774 8.83717" stroke="black" stroke-width="1.5" stroke-linecap="round" stroke-linejoin="round"/>
<path d="M12.9994 15.8401C12.9566 15.84 12.9155 15.8571 12.8854 15.8876C12.8553 15.918 12.8387 15.9593 12.8394 16.0022C12.8397 16.0915 12.912 16.1639 13.0014 16.1642C13.0909 16.1637 13.163 16.0907 13.1625 16.0012C13.1619 15.9117 13.0889 15.8395 12.9994 15.8401" stroke="black" stroke-width="1.5" stroke-linecap="round" stroke-linejoin="round"/>
<path d="M11.999 11.8381C11.9562 11.838 11.9151 11.8551 11.885 11.8856C11.8549 11.9161 11.8383 11.9574 11.8389 12.0002C11.8393 12.0896 11.9116 12.1619 12.001 12.1623C12.0589 12.1619 12.1122 12.1307 12.1408 12.0804C12.1695 12.0301 12.1691 11.9683 12.1398 11.9183C12.1106 11.8683 12.0569 11.8378 11.999 11.8381" stroke="black" stroke-width="1.5" stroke-linecap="round" stroke-linejoin="round"/>
<path fill-rule="evenodd" clip-rule="evenodd" d="M12 2.99609C12 7.96873 16.0311 11.9998 21.0037 11.9998C21.0037 16.9725 16.9726 21.0036 12 21.0036C7.02736 21.0036 2.99625 16.9725 2.99625 11.9998C2.99625 7.02721 7.02736 2.99609 12 2.99609Z" stroke="black" stroke-width="1.5" stroke-linecap="round" stroke-linejoin="round"/>
</svg>
