<svg width="24" height="24" viewBox="0 0 24 24" fill="none" xmlns="http://www.w3.org/2000/svg">
<path d="M9.33242 13.2832C9.31928 13.2832 9.30667 13.2884 9.29738 13.2977C9.28808 13.307 9.28286 13.3196 9.28286 13.3327V13.3332C9.28286 13.3608 9.30525 13.3832 9.33288 13.3832C9.36051 13.3832 9.3829 13.3608 9.3829 13.3332C9.3829 13.3056 9.36051 13.2832 9.33288 13.2832H9.33242" stroke="black" stroke-width="1.5" stroke-linecap="round" stroke-linejoin="round"/>
<path d="M9.99916 9.94824C9.97181 9.94797 9.94943 9.96991 9.94914 9.99726V9.99868C9.94937 10.0262 9.97186 10.0484 9.99943 10.0483C10.027 10.0481 10.0493 10.0257 10.0492 9.99812C10.0491 9.97055 10.0267 9.94824 9.99916 9.94824" stroke="black" stroke-width="1.5" stroke-linecap="round" stroke-linejoin="round"/>
<path d="M12.6668 14.6182C12.6394 14.6182 12.6172 14.6404 12.6171 14.6678V14.6682C12.6172 14.6958 12.6396 14.7182 12.6672 14.7182C12.6948 14.7182 12.7172 14.6958 12.7172 14.6682C12.7172 14.6405 12.6948 14.6182 12.6672 14.6182" stroke="black" stroke-width="1.5" stroke-linecap="round" stroke-linejoin="round"/>
<path d="M12.0005 11.9492C11.9874 11.9492 11.9748 11.9544 11.9655 11.9637C11.9562 11.973 11.951 11.9856 11.951 11.9988V11.9997C11.9512 12.0199 11.9635 12.0381 11.9823 12.0456C12.001 12.0532 12.0225 12.0487 12.0367 12.0343C12.0509 12.0198 12.0549 11.9983 12.047 11.9797C12.0391 11.961 12.0207 11.949 12.0005 11.9492" stroke="black" stroke-width="1.5" stroke-linecap="round" stroke-linejoin="round"/>
<path fill-rule="evenodd" clip-rule="evenodd" d="M12 5.99805C12 9.31314 14.6874 12.0005 18.0025 12.0005C18.0025 15.3156 15.3151 18.003 12 18.003C8.68491 18.003 5.9975 15.3156 5.9975 12.0005C5.9975 8.68546 8.68491 5.99805 12 5.99805Z" stroke="black" stroke-width="1.5" stroke-linecap="round" stroke-linejoin="round"/>
<circle cx="12" cy="11.9998" r="9.00375" stroke="black" stroke-width="1.5" stroke-linecap="round" stroke-linejoin="round"/>
</svg>
