<svg width="24" height="24" viewBox="0 0 24 24" fill="none" xmlns="http://www.w3.org/2000/svg">
<path fill-rule="evenodd" clip-rule="evenodd" d="M16.0017 21.0036H7.99834C5.23576 21.0036 2.99625 18.7641 2.99625 16.0015V7.99818C2.99625 5.2356 5.23576 2.99609 7.99834 2.99609H16.0017C18.7642 2.99609 21.0038 5.2356 21.0038 7.99818V16.0015C21.0038 18.7641 18.7642 21.0036 16.0017 21.0036Z" stroke="black" stroke-width="1.5" stroke-linecap="round" stroke-linejoin="round"/>
<path fill-rule="evenodd" clip-rule="evenodd" d="M12 5.99805C12 9.31314 14.6874 12.0005 18.0025 12.0005C18.0025 15.3156 15.3151 18.003 12 18.003C8.68492 18.003 5.99751 15.3156 5.99751 12.0005C5.99751 8.68546 8.68492 5.99805 12 5.99805Z" stroke="black" stroke-width="1.5" stroke-linecap="round" stroke-linejoin="round"/>
<path d="M12.05 12.0002C12.05 12.0278 12.0276 12.0502 12 12.0502C11.9724 12.0502 11.95 12.0278 11.95 12.0002C11.95 11.9726 11.9724 11.9502 12 11.9502" stroke="black" stroke-width="1.5" stroke-linecap="round" stroke-linejoin="round"/>
<path d="M12 11.9498C12.0276 11.9498 12.05 11.9722 12.05 11.9998" stroke="black" stroke-width="1.5" stroke-linecap="round" stroke-linejoin="round"/>
<path d="M10.0492 9.99923C10.0492 10.0269 10.0268 10.0493 9.99917 10.0493C9.97154 10.0493 9.94915 10.0269 9.94915 9.99923C9.94915 9.97161 9.97154 9.94921 9.99917 9.94921" stroke="black" stroke-width="1.5" stroke-linecap="round" stroke-linejoin="round"/>
<path d="M9.99917 9.94883C10.0268 9.94883 10.0492 9.97123 10.0492 9.99885" stroke="black" stroke-width="1.5" stroke-linecap="round" stroke-linejoin="round"/>
<path d="M9.38225 13.3342C9.38225 13.3618 9.35985 13.3842 9.33222 13.3842C9.3046 13.3842 9.2822 13.3618 9.2822 13.3342C9.2822 13.3066 9.3046 13.2842 9.33222 13.2842" stroke="black" stroke-width="1.5" stroke-linecap="round" stroke-linejoin="round"/>
<path d="M9.33222 13.2838C9.35985 13.2838 9.38224 13.3062 9.38224 13.3338" stroke="black" stroke-width="1.5" stroke-linecap="round" stroke-linejoin="round"/>
<path d="M12.717 14.6682C12.717 14.6958 12.6946 14.7182 12.6669 14.7182C12.6393 14.7182 12.6169 14.6958 12.6169 14.6682C12.6169 14.6406 12.6393 14.6182 12.6669 14.6182" stroke="black" stroke-width="1.5" stroke-linecap="round" stroke-linejoin="round"/>
<path d="M12.6669 14.6178C12.6946 14.6178 12.717 14.6402 12.717 14.6678" stroke="black" stroke-width="1.5" stroke-linecap="round" stroke-linejoin="round"/>
</svg>
