<svg width="24" height="24" viewBox="0 0 24 24" fill="none" xmlns="http://www.w3.org/2000/svg">
<path d="M16.2648 13.4221H8.78766C7.6822 13.4221 6.78683 12.5267 6.78683 11.4212V8.68311" stroke="black" stroke-width="1.5" stroke-linecap="round" stroke-linejoin="round"/>
<path d="M10.9996 18.0028H4.99708C3.89162 18.0028 2.99625 17.1075 2.99625 16.002V4.99742C2.99625 3.89195 3.89162 2.99658 4.99708 2.99658H12C13.1055 2.99658 14.0008 3.89195 14.0008 4.99742V5.99783" stroke="black" stroke-width="1.5" stroke-linecap="round" stroke-linejoin="round"/>
<path d="M10.9996 11.0001V7.99888C10.9996 6.89342 11.895 5.99805 13.0004 5.99805H19.0029C20.1084 5.99805 21.0038 6.89342 21.0038 7.99888V19.0035C21.0038 20.1089 20.1084 21.0043 19.0029 21.0043H13.0004C11.895 21.0043 10.9996 20.1089 10.9996 19.0035V16.0022" stroke="black" stroke-width="1.5" stroke-linecap="round" stroke-linejoin="round"/>
<path d="M14.369 15.3179L16.2648 13.4222L14.369 11.5264" stroke="black" stroke-width="1.5" stroke-linecap="round" stroke-linejoin="round"/>
</svg>
