<svg width="24" height="24" viewBox="0 0 24 24" fill="none" xmlns="http://www.w3.org/2000/svg">
<path fill-rule="evenodd" clip-rule="evenodd" d="M14.7792 6.99805H9.22084C7.99316 6.99805 6.99792 7.99328 6.99792 9.22097V14.7793C6.99792 16.007 7.99316 17.0022 9.22084 17.0022H14.7792C16.0068 17.0022 17.0021 16.007 17.0021 14.7793V9.21997C17.0015 7.99268 16.0065 6.99805 14.7792 6.99805Z" stroke="black" stroke-width="1.5" stroke-linecap="round" stroke-linejoin="round"/>
<path d="M10.5294 10.1363C10.609 10.2158 10.6328 10.3354 10.5898 10.4394C10.5467 10.5433 10.4453 10.6111 10.3328 10.6111C10.2203 10.6111 10.1189 10.5433 10.0758 10.4394C10.0328 10.3354 10.0566 10.2158 10.1362 10.1363C10.245 10.0283 10.4206 10.0283 10.5294 10.1363" stroke="black" stroke-width="1.5" stroke-linecap="round" stroke-linejoin="round"/>
<path d="M9.99917 21.0041H14.0008" stroke="black" stroke-width="1.5" stroke-linecap="round" stroke-linejoin="round"/>
<path d="M9.99917 2.9963H14.0008" stroke="black" stroke-width="1.5" stroke-linecap="round" stroke-linejoin="round"/>
<path d="M2.99626 9.99902V14.0007" stroke="black" stroke-width="1.5" stroke-linecap="round" stroke-linejoin="round"/>
<path d="M21.0037 9.99902V14.0007" stroke="black" stroke-width="1.5" stroke-linecap="round" stroke-linejoin="round"/>
<path d="M6.99792 21.0036V21.0036C4.78786 21.0036 2.99625 19.212 2.99625 17.002V17.002" stroke="black" stroke-width="1.5" stroke-linecap="round" stroke-linejoin="round"/>
<path d="M6.99792 21.0036C4.78786 21.0036 2.99625 19.212 2.99625 17.002" stroke="black" stroke-width="1.5" stroke-linecap="round" stroke-linejoin="round"/>
<path d="M17.0021 2.99609C19.2121 2.99609 21.0038 4.7877 21.0038 6.99776" stroke="black" stroke-width="1.5" stroke-linecap="round" stroke-linejoin="round"/>
<path d="M2.99625 6.99776C2.99625 4.7877 4.78786 2.99609 6.99792 2.99609" stroke="black" stroke-width="1.5" stroke-linecap="round" stroke-linejoin="round"/>
<path d="M21.0038 17.002C21.0038 19.212 19.2121 21.0036 17.0021 21.0036" stroke="black" stroke-width="1.5" stroke-linecap="round" stroke-linejoin="round"/>
<path d="M17.0021 11.4995C16.7703 11.4643 16.5363 11.4456 16.3018 11.4435C14.8882 11.4335 13.5413 12.044 12.6172 13.1137C11.693 14.1834 11.2846 15.6046 11.4998 17.0018" stroke="black" stroke-width="1.5" stroke-linecap="round" stroke-linejoin="round"/>
</svg>
