<svg width="24" height="24" viewBox="0 0 24 24" fill="none" xmlns="http://www.w3.org/2000/svg">
<path d="M6.99792 21.0036V21.0036C4.78786 21.0036 2.99625 19.212 2.99625 17.002V17.002" stroke="black" stroke-width="1.5" stroke-linecap="round" stroke-linejoin="round"/>
<path fill-rule="evenodd" clip-rule="evenodd" d="M8.3985 17.0225H12.8173C13.3699 17.0225 13.8178 16.5746 13.8178 16.0221V10.7299C13.8178 10.1774 13.3699 9.72949 12.8173 9.72949H8.3985C7.84598 9.72949 7.39808 10.1774 7.39808 10.7299V16.0231C7.39864 16.5752 7.84638 17.0225 8.3985 17.0225Z" stroke="black" stroke-width="1.5" stroke-linecap="round" stroke-linejoin="round"/>
<path d="M10.1492 9.72868V7.97796C10.1492 7.42544 10.5971 6.97754 11.1496 6.97754H15.6015C15.8668 6.97754 16.1213 7.08294 16.3089 7.27055C16.4965 7.45817 16.6019 7.71263 16.6019 7.97796V13.2712C16.6019 13.8237 16.154 14.2716 15.6015 14.2716H13.8168" stroke="black" stroke-width="1.5" stroke-linecap="round" stroke-linejoin="round"/>
<path d="M9.99917 21.0041H14.0008" stroke="black" stroke-width="1.5" stroke-linecap="round" stroke-linejoin="round"/>
<path d="M9.99917 2.9963H14.0008" stroke="black" stroke-width="1.5" stroke-linecap="round" stroke-linejoin="round"/>
<path d="M2.99625 9.99902V14.0007" stroke="black" stroke-width="1.5" stroke-linecap="round" stroke-linejoin="round"/>
<path d="M21.0037 9.99902V14.0007" stroke="black" stroke-width="1.5" stroke-linecap="round" stroke-linejoin="round"/>
<path d="M6.99792 21.0036V21.0036C4.78786 21.0036 2.99625 19.212 2.99625 17.002V17.002" stroke="black" stroke-width="1.5" stroke-linecap="round" stroke-linejoin="round"/>
<path d="M17.0021 2.99609V2.99609C19.2121 2.99609 21.0038 4.7877 21.0038 6.99776V6.99776" stroke="black" stroke-width="1.5" stroke-linecap="round" stroke-linejoin="round"/>
<path d="M2.99625 6.99776V6.99776C2.99625 4.7877 4.78786 2.99609 6.99792 2.99609V2.99609" stroke="black" stroke-width="1.5" stroke-linecap="round" stroke-linejoin="round"/>
<path d="M21.0038 17.002V17.002C21.0038 19.212 19.2121 21.0036 17.0021 21.0036V21.0036" stroke="black" stroke-width="1.5" stroke-linecap="round" stroke-linejoin="round"/>
</svg>
