<svg width="24" height="24" viewBox="0 0 24 24" fill="none" xmlns="http://www.w3.org/2000/svg">
<rect x="10.9996" y="13.3711" width="6.0025" height="4.20175" rx="1.2" stroke="black" stroke-width="1.5" stroke-linecap="round" stroke-linejoin="round"/>
<path d="M5.9975 16.0015H3.99667C2.89164 16.0015 1.99583 15.1057 1.99583 14.0007V4.99693C1.99583 3.8919 2.89164 2.99609 3.99667 2.99609H16.0017C17.1067 2.99609 18.0025 3.8919 18.0025 4.99693V6.99776" stroke="black" stroke-width="1.5" stroke-linecap="round" stroke-linejoin="round"/>
<rect x="5.9975" y="6.99805" width="16.0067" height="14.0058" rx="2" stroke="black" stroke-width="1.5" stroke-linecap="round" stroke-linejoin="round"/>
<path d="M12.2001 13.3709V12.2304C12.2001 11.7528 12.3898 11.2948 12.7275 10.9571C13.0652 10.6194 13.5232 10.4297 14.0008 10.4297V10.4297C14.4784 10.4297 14.9364 10.6194 15.2742 10.9571C15.6119 11.2948 15.8016 11.7528 15.8016 12.2304V12.2304V13.3709" stroke="black" stroke-width="1.5" stroke-linecap="round" stroke-linejoin="round"/>
</svg>
