<svg width="24" height="24" viewBox="0 0 24 24" fill="none" xmlns="http://www.w3.org/2000/svg">
<path d="M15.5 20H18.5C19.605 20 20.5 19.105 20.5 18V15" stroke="black" stroke-width="1.5" stroke-linecap="round" stroke-linejoin="round"/>
<path fill-rule="evenodd" clip-rule="evenodd" d="M10.447 20H5.5C4.395 20 3.5 19.105 3.5 18V13.053C3.5 11.948 4.395 11.053 5.5 11.053H10.447C11.552 11.053 12.447 11.948 12.447 13.053V18C12.447 19.105 11.552 20 10.447 20Z" stroke="black" stroke-width="1.5" stroke-linecap="round" stroke-linejoin="round"/>
<path d="M8.5 3H5.5C4.395 3 3.5 3.895 3.5 5V8" stroke="black" stroke-width="1.5" stroke-linecap="round" stroke-linejoin="round"/>
<path d="M20.5 8V5C20.5 3.895 19.605 3 18.5 3H15.5" stroke="black" stroke-width="1.5" stroke-linecap="round" stroke-linejoin="round"/>
</svg>
