<svg width="24" height="24" viewBox="0 0 24 24" fill="none" xmlns="http://www.w3.org/2000/svg">
<path d="M16.0017 21.0041C17.1067 21.0041 18.0025 20.1083 18.0025 19.0033V17.0024" stroke="black" stroke-width="1.5" stroke-linecap="round" stroke-linejoin="round"/>
<path d="M2.99625 19.0029C2.99625 20.108 3.89205 21.0038 4.99708 21.0038" stroke="black" stroke-width="1.5" stroke-linecap="round" stroke-linejoin="round"/>
<path d="M6.99791 5.99756H4.99708C3.89205 5.99756 2.99625 6.89336 2.99625 7.99839" stroke="black" stroke-width="1.5" stroke-linecap="round" stroke-linejoin="round"/>
<path d="M2.99624 12V15.0013" stroke="black" stroke-width="1.5" stroke-linecap="round" stroke-linejoin="round"/>
<path d="M8.99875 21.0036H12" stroke="black" stroke-width="1.5" stroke-linecap="round" stroke-linejoin="round"/>
<path d="M10.1102 13.1115H17.8915" stroke="black" stroke-width="1.5" stroke-linecap="round" stroke-linejoin="round"/>
<path d="M10.1102 9.99923H17.8915" stroke="black" stroke-width="1.5" stroke-linecap="round" stroke-linejoin="round"/>
<path d="M10.1102 6.88693H17.8915" stroke="black" stroke-width="1.5" stroke-linecap="round" stroke-linejoin="round"/>
<path fill-rule="evenodd" clip-rule="evenodd" d="M6.99791 15.0016V4.99742C6.99791 3.89239 7.89371 2.99658 8.99874 2.99658H19.0029C20.1079 2.99658 21.0037 3.89239 21.0037 4.99742V15.0016C21.0037 16.1066 20.1079 17.0024 19.0029 17.0024H8.99874C7.89371 17.0024 6.99791 16.1066 6.99791 15.0016Z" stroke="black" stroke-width="1.5" stroke-linecap="round" stroke-linejoin="round"/>
</svg>
