<svg width="24" height="24" viewBox="0 0 24 24" fill="none" xmlns="http://www.w3.org/2000/svg">
<path d="M6.99792 14.501C6.99792 15.0535 7.44582 15.5014 7.99833 15.5014H16.0017C16.5542 15.5014 17.0021 15.0535 17.0021 14.501" stroke="black" stroke-width="1.5" stroke-linecap="round" stroke-linejoin="round"/>
<path d="M6.99792 14.5008V9.5316C6.99792 9.34713 7.09946 9.17764 7.26211 9.0906C7.42475 9.00356 7.6221 9.0131 7.77559 9.11543L9.99917 10.5978L11.5838 8.2208C11.6766 8.08164 11.8328 7.99805 12 7.99805C12.1673 7.99805 12.3235 8.08164 12.4162 8.2208L14.0008 10.5978L16.2244 9.11541C16.3779 9.01308 16.5753 9.00354 16.7379 9.09059C16.9005 9.17763 17.0021 9.34713 17.0021 9.5316V14.5008" stroke="black" stroke-width="1.5" stroke-linecap="round" stroke-linejoin="round"/>
<circle cx="12" cy="11.9998" r="9.00375" stroke="black" stroke-width="1.5" stroke-linecap="round" stroke-linejoin="round"/>
</svg>
