<svg width="24" height="24" viewBox="0 0 24 24" fill="none" xmlns="http://www.w3.org/2000/svg">
<rect x="2.99625" y="2.99609" width="18.0075" height="18.0075" rx="5" stroke="black" stroke-width="1.5" stroke-linecap="round" stroke-linejoin="round"/>
<path fill-rule="evenodd" clip-rule="evenodd" d="M14.0008 11.0001L16.2244 9.51774C16.3779 9.41541 16.5753 9.40587 16.7379 9.49292C16.9006 9.57997 17.0021 9.74947 17.0021 9.93395V15.0018C17.0021 15.5543 16.5542 16.0022 16.0017 16.0022H7.99833C7.44582 16.0022 6.99792 15.5543 6.99792 15.0018V9.93395C6.99792 9.74948 7.09946 9.57998 7.26211 9.49294C7.42475 9.40591 7.6221 9.41545 7.77559 9.51777L9.99917 11.0001L11.5838 8.62314C11.6766 8.48398 11.8328 8.40039 12 8.40039C12.1673 8.40039 12.3235 8.48398 12.4162 8.62314L14.0008 11.0001Z" stroke="black" stroke-width="1.5" stroke-linecap="round" stroke-linejoin="round"/>
</svg>
