<svg width="24" height="24" viewBox="0 0 24 24" fill="none" xmlns="http://www.w3.org/2000/svg">
<path d="M12 14.001V17.0022" stroke="black" stroke-width="1.5" stroke-linecap="round" stroke-linejoin="round"/>
<path d="M15.0013 8.49902H16.5019C17.0544 8.49902 17.5023 8.94693 17.5023 9.49944V10.4999C17.5023 11.6049 16.6065 12.5007 15.5015 12.5007H15.0013" stroke="black" stroke-width="1.5" stroke-linecap="round" stroke-linejoin="round"/>
<path fill-rule="evenodd" clip-rule="evenodd" d="M9.99917 6.99805H14.0008C14.5533 6.99805 15.0012 7.44595 15.0012 7.99846V12.0001C15.0012 13.1052 14.1054 14.001 13.0004 14.001H10.9996C9.89455 14.001 8.99875 13.1052 8.99875 12.0001V7.99846C8.99875 7.44595 9.44665 6.99805 9.99917 6.99805Z" stroke="black" stroke-width="1.5" stroke-linecap="round" stroke-linejoin="round"/>
<path d="M8.99875 8.49902H7.49813C6.94561 8.49902 6.49771 8.94693 6.49771 9.49944V10.4999C6.49771 11.6049 7.39351 12.5007 8.49854 12.5007H8.99875" stroke="black" stroke-width="1.5" stroke-linecap="round" stroke-linejoin="round"/>
<path d="M14.0008 17.0022H9.99916" stroke="black" stroke-width="1.5" stroke-linecap="round" stroke-linejoin="round"/>
<rect x="2.99625" y="2.99609" width="18.0075" height="18.0075" rx="5" stroke="black" stroke-width="1.5" stroke-linecap="round" stroke-linejoin="round"/>
</svg>
