<svg width="24" height="24" viewBox="0 0 24 24" fill="none" xmlns="http://www.w3.org/2000/svg">
<path d="M15.0013 8.99902H16.5019C17.0544 8.99902 17.5023 9.44693 17.5023 9.99944V10.9999C17.5023 12.1049 16.6065 13.0007 15.5015 13.0007H14.9382" stroke="black" stroke-width="1.5" stroke-linecap="round" stroke-linejoin="round"/>
<path d="M12 14.501V17.5022" stroke="black" stroke-width="1.5" stroke-linecap="round" stroke-linejoin="round"/>
<path d="M14.0008 17.5022H9.99917" stroke="black" stroke-width="1.5" stroke-linecap="round" stroke-linejoin="round"/>
<path d="M12 21.0036C7.02737 21.0036 2.99625 16.9725 2.99625 11.9998C2.99625 7.02721 7.02737 2.99609 12 2.99609C16.9726 2.99609 21.0038 7.02721 21.0038 11.9998C21.0038 16.9725 16.9726 21.0036 12 21.0036" stroke="black" stroke-width="1.5" stroke-linecap="round" stroke-linejoin="round"/>
<path fill-rule="evenodd" clip-rule="evenodd" d="M9.99917 7.49805H14.0008C14.5533 7.49805 15.0012 7.94595 15.0012 8.49846V12.5001C15.0012 13.6052 14.1054 14.501 13.0004 14.501H10.9996C9.89455 14.501 8.99875 13.6052 8.99875 12.5001V8.49846C8.99875 7.94595 9.44665 7.49805 9.99917 7.49805Z" stroke="black" stroke-width="1.5" stroke-linecap="round" stroke-linejoin="round"/>
<path d="M8.99875 8.99902H7.49813C6.94561 8.99902 6.49771 9.44693 6.49771 9.99944V10.9999C6.49771 12.1049 7.39351 13.0007 8.49854 13.0007H9.06178" stroke="black" stroke-width="1.5" stroke-linecap="round" stroke-linejoin="round"/>
</svg>
