<svg width="24" height="24" viewBox="0 0 24 24" fill="none" xmlns="http://www.w3.org/2000/svg">
<path d="M21.0037 11.0285C20.4802 6.32871 16.4199 2.82853 11.6943 3.00334C6.96862 3.17816 3.178 6.96877 3.00319 11.6944C2.82837 16.4201 6.32856 20.4804 11.0284 21.0039" stroke="black" stroke-width="1.5" stroke-linecap="round" stroke-linejoin="round"/>
<path d="M7.99832 7.99826H13.0004" stroke="black" stroke-width="1.5" stroke-linecap="round" stroke-linejoin="round"/>
<path d="M6.99792 10.9992H8.99876" stroke="black" stroke-width="1.5" stroke-linecap="round" stroke-linejoin="round"/>
<path d="M6.99792 14.0012H8.99876" stroke="black" stroke-width="1.5" stroke-linecap="round" stroke-linejoin="round"/>
<path fill-rule="evenodd" clip-rule="evenodd" d="M18.5852 16.6484L20.8512 18.8988C20.9493 18.9959 21.0043 19.1283 21.0038 19.2664C21.0033 19.4044 20.9474 19.5364 20.8486 19.6328L19.6065 20.8532C19.3995 21.0551 19.0689 21.054 18.8633 20.8506L16.5973 18.6002L14.7032 20.8336L12.0265 12.6803C11.9668 12.4917 12.0186 12.2856 12.1605 12.1478C12.3023 12.0099 12.5098 11.964 12.6966 12.0292L20.8558 14.7897L18.5852 16.6484Z" stroke="black" stroke-width="1.5" stroke-linecap="round" stroke-linejoin="round"/>
</svg>
