<svg width="24" height="24" viewBox="0 0 24 24" fill="none" xmlns="http://www.w3.org/2000/svg">
<path d="M8.43634 15.3814C6.52069 13.4631 6.52176 10.3554 8.43874 8.43844C10.3557 6.52146 13.4634 6.52038 15.3817 8.43604" stroke="black" stroke-width="1.5" stroke-linecap="round" stroke-linejoin="round"/>
<circle cx="12" cy="11.9998" r="9.00375" stroke="black" stroke-width="1.5" stroke-linecap="round" stroke-linejoin="round"/>
<path fill-rule="evenodd" clip-rule="evenodd" d="M16.093 12.1336L11.2872 10.5317C11.0724 10.4601 10.8356 10.516 10.6755 10.6761C10.5154 10.8362 10.4595 11.073 10.5311 11.2878L12.133 16.0936C12.2069 16.3151 12.4029 16.4733 12.6349 16.4988C12.8669 16.5242 13.0926 16.4123 13.2127 16.2121L14.1835 14.5941C14.2845 14.4258 14.4253 14.285 14.5936 14.1841L16.2116 13.2132C16.4117 13.0931 16.5237 12.8675 16.4982 12.6355C16.4727 12.4034 16.3145 12.2074 16.093 12.1336V12.1336Z" stroke="black" stroke-width="1.5" stroke-linecap="round" stroke-linejoin="round"/>
<path d="M16.195 16.1951L14.3633 14.3633" stroke="black" stroke-width="1.5" stroke-linecap="round" stroke-linejoin="round"/>
</svg>
