<svg width="24" height="24" viewBox="0 0 24 24" fill="none" xmlns="http://www.w3.org/2000/svg">
<path d="M12.007 10.3125C11.0744 10.3087 10.3152 11.0616 10.3113 11.9942C10.3074 12.9269 11.0604 13.686 11.993 13.6899C12.9256 13.6938 13.6848 12.9409 13.6887 12.0082V12.0002C13.6876 11.0709 12.9363 10.3169 12.007 10.3125" stroke="black" stroke-width="1.5" stroke-linecap="round" stroke-linejoin="round"/>
<path d="M9.49896 14.5015L10.7495 13.251" stroke="black" stroke-width="1.5" stroke-linecap="round" stroke-linejoin="round"/>
<path d="M12 2.99609C7.70455 2.99609 4.0073 6.03045 3.16933 10.2434C2.33137 14.4563 4.58606 18.6745 8.55455 20.3182C12.523 21.962 17.1 20.5736 19.4864 17.002C21.8729 13.4305 21.4041 8.67059 18.3667 5.63324" stroke="black" stroke-width="1.5" stroke-linecap="round" stroke-linejoin="round"/>
<path d="M16.0017 7.99805L13.1922 10.8076" stroke="black" stroke-width="1.5" stroke-linecap="round" stroke-linejoin="round"/>
</svg>
