<svg width="24" height="24" viewBox="0 0 24 24" fill="none" xmlns="http://www.w3.org/2000/svg">
<path d="M12 5V7" stroke="black" stroke-width="1.5" stroke-linecap="round" stroke-linejoin="round"/>
<path d="M19 14H21" stroke="black" stroke-width="1.5" stroke-linecap="round" stroke-linejoin="round"/>
<path d="M3 14H5" stroke="black" stroke-width="1.5" stroke-linecap="round" stroke-linejoin="round"/>
<path d="M13.4142 11.5858C14.1953 12.3668 14.1953 13.6332 13.4142 14.4142C12.6332 15.1953 11.3668 15.1953 10.5858 14.4142C9.80472 13.6332 9.80472 12.3668 10.5858 11.5858C11.3668 10.8047 12.6332 10.8047 13.4142 11.5858" stroke="black" stroke-width="1.5" stroke-linecap="round" stroke-linejoin="round"/>
<path d="M12 5V7" stroke="black" stroke-width="1.5" stroke-linecap="round" stroke-linejoin="round"/>
<path d="M21 14H19" stroke="black" stroke-width="1.5" stroke-linecap="round" stroke-linejoin="round"/>
<path d="M5 14H3" stroke="black" stroke-width="1.5" stroke-linecap="round" stroke-linejoin="round"/>
<path d="M15.41 9.58997L13.41 11.59" stroke="black" stroke-width="1.5" stroke-linecap="round" stroke-linejoin="round"/>
<path d="M13.4142 11.5858C14.1953 12.3668 14.1953 13.6332 13.4142 14.4142C12.6332 15.1953 11.3668 15.1953 10.5858 14.4142C9.80472 13.6332 9.80472 12.3668 10.5858 11.5858C11.3668 10.8047 12.6332 10.8047 13.4142 11.5858" stroke="black" stroke-width="1.5" stroke-linecap="round" stroke-linejoin="round"/>
<path fill-rule="evenodd" clip-rule="evenodd" d="M18.319 19H5.679C4.929 19 4.223 18.591 3.897 17.916C3.181 16.438 2.856 14.734 3.062 12.94C3.532 8.83402 6.879 5.50402 10.987 5.05502C16.411 4.46302 21 8.69502 21 14C21 15.399 20.68 16.723 20.11 17.903C19.782 18.584 19.074 19 18.319 19V19Z" stroke="black" stroke-width="1.5" stroke-linecap="round" stroke-linejoin="round"/>
</svg>
