<svg width="24" height="24" viewBox="0 0 24 24" fill="none" xmlns="http://www.w3.org/2000/svg">
<path d="M12 4.00098V6.43998" stroke="black" stroke-width="1.5" stroke-linecap="round" stroke-linejoin="round"/>
<path d="M21 13H19" stroke="black" stroke-width="1.5" stroke-linecap="round" stroke-linejoin="round"/>
<path d="M3 13H5" stroke="black" stroke-width="1.5" stroke-linecap="round" stroke-linejoin="round"/>
<path d="M18.36 6.64001L13.404 11.596" stroke="black" stroke-width="1.5" stroke-linecap="round" stroke-linejoin="round"/>
<path d="M11.981 11C13.086 11 13.981 11.895 13.981 13C13.981 14.105 13.086 15 11.981 15C10.876 15 9.98099 14.105 9.98099 13C9.98099 11.895 10.876 11 11.981 11" stroke="black" stroke-width="1.5" stroke-linecap="round" stroke-linejoin="round"/>
<path d="M5.64001 6.64001L7.76001 8.76001" stroke="black" stroke-width="1.5" stroke-linecap="round" stroke-linejoin="round"/>
<path d="M16.24 17.24L18.36 19.36L18.364 19.364C21.879 15.849 21.879 10.151 18.364 6.63601C14.849 3.12101 9.15101 3.12101 5.63601 6.63601C2.12101 10.151 2.12101 15.849 5.63601 19.364L5.64001 19.36L7.64001 17.36" stroke="black" stroke-width="1.5" stroke-linecap="round" stroke-linejoin="round"/>
</svg>
