<svg width="24" height="24" viewBox="0 0 24 24" fill="none" xmlns="http://www.w3.org/2000/svg">
<path fill-rule="evenodd" clip-rule="evenodd" d="M15.6148 8.02012L11.3601 9.77202C10.681 10.0517 10.1865 10.6523 10.0425 11.3725C9.8984 12.0927 10.1238 12.8373 10.6432 13.3567V13.3567C11.1626 13.8761 11.9072 14.1015 12.6274 13.9575C13.3477 13.8135 13.9483 13.319 14.2279 12.6398L15.9799 8.38512C16.0229 8.28074 15.9989 8.16074 15.919 8.08091C15.8392 8.00109 15.7192 7.97711 15.6148 8.02012Z" stroke="black" stroke-width="1.5" stroke-linecap="round" stroke-linejoin="round"/>
<path d="M16.0377 3.9609C12.0821 1.96991 7.26616 3.14496 4.67201 6.73407C2.07787 10.3232 2.4729 15.2646 5.6043 18.396C8.73569 21.5274 13.6771 21.9224 17.2662 19.3283C20.8553 16.7341 22.0304 11.9182 20.0394 7.96257" stroke="black" stroke-width="1.5" stroke-linecap="round" stroke-linejoin="round"/>
</svg>
