<svg width="24" height="24" viewBox="0 0 24 24" fill="none" xmlns="http://www.w3.org/2000/svg">
<circle cx="12" cy="11.9998" r="9.00375" stroke="black" stroke-width="1.5" stroke-linecap="round" stroke-linejoin="round"/>
<path d="M12.007 10.3125C11.0744 10.3087 10.3152 11.0616 10.3113 11.9942C10.3075 12.9269 11.0604 13.686 11.993 13.6899C12.9256 13.6938 13.6848 12.9409 13.6887 12.0082V12.0002C13.6876 11.0709 12.9363 10.3169 12.007 10.3125" stroke="black" stroke-width="1.5" stroke-linecap="round" stroke-linejoin="round"/>
<path d="M13.2005 10.8001L16.2018 7.79883" stroke="black" stroke-width="1.5" stroke-linecap="round" stroke-linejoin="round"/>
<path d="M12.1251 17.6721C12.1251 17.7411 12.0691 17.7971 12 17.7971C11.9309 17.7971 11.8749 17.7411 11.8749 17.6721C11.8749 17.603 11.9309 17.547 12 17.547" stroke="black" stroke-width="1.5" stroke-linecap="round" stroke-linejoin="round"/>
<path d="M12 17.5471C12.0691 17.5471 12.1251 17.603 12.1251 17.6721" stroke="black" stroke-width="1.5" stroke-linecap="round" stroke-linejoin="round"/>
<path d="M12.1251 6.37814C12.1251 6.4472 12.0691 6.50319 12 6.50319C11.9309 6.50319 11.8749 6.4472 11.8749 6.37814C11.8749 6.30907 11.9309 6.25309 12 6.25309" stroke="black" stroke-width="1.5" stroke-linecap="round" stroke-linejoin="round"/>
<path d="M12 6.25311C12.0691 6.25311 12.1251 6.3091 12.1251 6.37816" stroke="black" stroke-width="1.5" stroke-linecap="round" stroke-linejoin="round"/>
<path d="M6.35265 12.1507C6.28358 12.1507 6.2276 12.0947 6.2276 12.0256C6.2276 11.9565 6.28358 11.9005 6.35265 11.9005C6.42171 11.9005 6.4777 11.9565 6.4777 12.0256" stroke="black" stroke-width="1.5" stroke-linecap="round" stroke-linejoin="round"/>
<path d="M6.4777 12.0256C6.4777 12.0946 6.42171 12.1506 6.35265 12.1506" stroke="black" stroke-width="1.5" stroke-linecap="round" stroke-linejoin="round"/>
<path d="M17.6473 12.1507C17.5783 12.1507 17.5223 12.0947 17.5223 12.0256C17.5223 11.9565 17.5783 11.9005 17.6473 11.9005C17.7164 11.9005 17.7724 11.9565 17.7724 12.0256" stroke="black" stroke-width="1.5" stroke-linecap="round" stroke-linejoin="round"/>
<path d="M17.7724 12.0256C17.7724 12.0946 17.7164 12.1506 17.6474 12.1506" stroke="black" stroke-width="1.5" stroke-linecap="round" stroke-linejoin="round"/>
<path d="M7.9183 8.12062C7.86946 8.07178 7.86946 7.9926 7.9183 7.94377C7.96713 7.89493 8.04631 7.89493 8.09515 7.94377C8.14398 7.9926 8.14399 8.07178 8.09515 8.12062" stroke="black" stroke-width="1.5" stroke-linecap="round" stroke-linejoin="round"/>
<path d="M8.09516 8.12057C8.07171 8.14402 8.0399 8.15719 8.00674 8.15719C7.97357 8.15719 7.94176 8.14402 7.91831 8.12057" stroke="black" stroke-width="1.5" stroke-linecap="round" stroke-linejoin="round"/>
<path d="M15.9048 16.1069C15.856 16.0581 15.856 15.9789 15.9048 15.9301C15.9537 15.8813 16.0329 15.8813 16.0817 15.9301C16.1305 15.9789 16.1305 16.0581 16.0817 16.1069" stroke="black" stroke-width="1.5" stroke-linecap="round" stroke-linejoin="round"/>
<path d="M16.0817 16.1069C16.0582 16.1303 16.0264 16.1435 15.9933 16.1435C15.9601 16.1435 15.9283 16.1303 15.9048 16.1069" stroke="black" stroke-width="1.5" stroke-linecap="round" stroke-linejoin="round"/>
<path d="M8.09516 16.1072C8.0594 16.143 8.00561 16.1537 7.95888 16.1343C7.91215 16.1149 7.88168 16.0693 7.88168 16.0188C7.88168 15.9682 7.91215 15.9226 7.95888 15.9032C8.00561 15.8839 8.0594 15.8946 8.09516 15.9303" stroke="black" stroke-width="1.5" stroke-linecap="round" stroke-linejoin="round"/>
<path d="M8.09516 15.9303C8.14399 15.9792 8.14399 16.0583 8.09516 16.1072" stroke="black" stroke-width="1.5" stroke-linecap="round" stroke-linejoin="round"/>
</svg>
