<svg width="24" height="24" viewBox="0 0 24 24" fill="none" xmlns="http://www.w3.org/2000/svg">
<path d="M5.63334 5.63324C2.59601 8.67059 2.1272 13.4305 4.51361 17.002C6.90002 20.5736 11.477 21.962 15.4455 20.3182C19.414 18.6745 21.6687 14.4563 20.8307 10.2434C19.9928 6.03047 16.2955 2.99609 12.0001 2.99609V4.99693" stroke="black" stroke-width="1.5" stroke-linecap="round" stroke-linejoin="round"/>
<path fill-rule="evenodd" clip-rule="evenodd" d="M8.38518 8.0201L12.6399 9.772C13.319 10.0517 13.8135 10.6523 13.9576 11.3725C14.1016 12.0927 13.8762 12.8373 13.3568 13.3567V13.3567C12.8374 13.8761 12.0929 14.1015 11.3726 13.9575C10.6524 13.8135 10.0517 13.319 9.77207 12.6398L8.02017 8.3851C7.97719 8.28073 8.00118 8.16074 8.081 8.08092C8.16082 8.00111 8.2808 7.97711 8.38518 8.0201Z" stroke="black" stroke-width="1.5" stroke-linecap="round" stroke-linejoin="round"/>
</svg>
