<svg width="24" height="24" viewBox="0 0 24 24" fill="none" xmlns="http://www.w3.org/2000/svg">
<path d="M15.97 9.96997L14.97 10.97" stroke="black" stroke-width="1.5" stroke-linecap="round" stroke-linejoin="round"/>
<path d="M12 8V9" stroke="black" stroke-width="1.5" stroke-linecap="round" stroke-linejoin="round"/>
<path d="M8.03 9.96997L9.03 10.97" stroke="black" stroke-width="1.5" stroke-linecap="round" stroke-linejoin="round"/>
<path d="M17.95 13.95H16.95" stroke="black" stroke-width="1.5" stroke-linecap="round" stroke-linejoin="round"/>
<path d="M6.05 13.95H7.05" stroke="black" stroke-width="1.5" stroke-linecap="round" stroke-linejoin="round"/>
<path d="M19.482 18C20.62 16.3 21.196 14.193 20.939 11.942C20.47 7.83603 17.124 4.50603 13.016 4.05603C7.591 3.46103 3 7.69403 3 13C3 14.851 3.56 16.57 4.518 18" stroke="black" stroke-width="1.5" stroke-linecap="round" stroke-linejoin="round"/>
<path d="M10 16V16C10 17.102 10.894 17.996 11.998 17.996H12.003C13.106 17.995 14 17.102 14 16V16L13.999 15.996H14C14 14.88 12.914 13.686 12.343 13.135C12.15 12.949 11.851 12.949 11.658 13.135C11.086 13.686 10 14.88 10 15.995" stroke="black" stroke-width="1.4991" stroke-linecap="round" stroke-linejoin="round"/>
</svg>
