<svg width="24" height="24" viewBox="0 0 24 24" fill="none" xmlns="http://www.w3.org/2000/svg">
<path d="M6.99791 12.0002H5.9975" stroke="black" stroke-width="1.5" stroke-linecap="round" stroke-linejoin="round"/>
<path d="M18.0025 12.0002H17.0021" stroke="black" stroke-width="1.5" stroke-linecap="round" stroke-linejoin="round"/>
<path d="M12 5.99805V6.99846" stroke="black" stroke-width="1.5" stroke-linecap="round" stroke-linejoin="round"/>
<path d="M16.2444 7.75588L15.537 8.46329" stroke="black" stroke-width="1.5" stroke-linecap="round" stroke-linejoin="round"/>
<path fill-rule="evenodd" clip-rule="evenodd" d="M12.7772 11.5879L13.6823 14.7655C13.8338 15.2941 13.7286 15.8633 13.398 16.3028C13.0675 16.7423 12.5499 17.0013 12 17.0025V17.0025C11.4501 17.0013 10.9325 16.7423 10.602 16.3028C10.2714 15.8633 10.1662 15.2942 10.3176 14.7655L11.2228 11.588C11.3211 11.2402 11.6385 11 12 11C12.3614 11 12.6788 11.2401 12.7772 11.5879Z" stroke="black" stroke-width="1.5" stroke-linecap="round" stroke-linejoin="round"/>
<circle cx="12" cy="11.9998" r="9.00375" stroke="black" stroke-width="1.5" stroke-linecap="round" stroke-linejoin="round"/>
<path d="M7.75559 7.75588L8.463 8.46329" stroke="black" stroke-width="1.5" stroke-linecap="round" stroke-linejoin="round"/>
</svg>
