<svg width="24" height="24" viewBox="0 0 24 24" fill="none" xmlns="http://www.w3.org/2000/svg">
<path d="M8.49854 17.009H15.5015" stroke="black" stroke-width="1.5" stroke-linecap="round" stroke-linejoin="round"/>
<path fill-rule="evenodd" clip-rule="evenodd" d="M12.9091 7.73002L13.8147 11.7375C13.9549 12.3598 13.7663 13.0104 13.315 13.4611V13.4611C12.5887 14.1874 11.4113 14.1874 10.685 13.4611V13.4611V13.4611C10.2337 13.0104 10.0451 12.3598 10.1853 11.7375L11.0909 7.73002C11.1296 7.55798 11.2164 7.40047 11.3412 7.27583V7.27583C11.705 6.91196 12.295 6.91196 12.6589 7.27583V7.27583C12.7836 7.40047 12.8704 7.55798 12.9091 7.73002Z" stroke="black" stroke-width="1.5" stroke-linecap="round" stroke-linejoin="round"/>
<path fill-rule="evenodd" clip-rule="evenodd" d="M6.74065 19.8001C4.38341 18.1086 2.98869 15.3824 2.99622 12.4811C3.16616 7.69176 6.93663 3.80991 11.719 3.50068C15.6846 3.37456 19.2649 5.86057 20.5323 9.62032C21.7997 13.3801 20.4551 17.5262 17.2224 19.8266C16.5681 20.2784 15.7892 20.515 14.9941 20.5034H9.00999C8.19851 20.5128 7.40464 20.2667 6.74065 19.8001Z" stroke="black" stroke-width="1.5" stroke-linecap="round" stroke-linejoin="round"/>
</svg>
