<svg width="24" height="24" viewBox="0 0 24 24" fill="none" xmlns="http://www.w3.org/2000/svg">
<path fill-rule="evenodd" clip-rule="evenodd" d="M21 7V17C21 19.209 19.209 21 17 21H7C4.791 21 3 19.209 3 17V7C3 4.791 4.791 3 7 3H17C19.209 3 21 4.791 21 7Z" stroke="black" stroke-width="1.5" stroke-linecap="round" stroke-linejoin="round"/>
<path d="M21 12H16.309C16.12 12 15.946 12.107 15.862 12.276L14.447 15.105C14.263 15.474 13.737 15.474 13.553 15.105L10.43 8.86103C10.249 8.49903 9.735 8.49103 9.543 8.84703L7.984 11.737C7.896 11.899 7.727 12 7.544 12H3" stroke="black" stroke-width="1.5" stroke-linecap="round" stroke-linejoin="round"/>
</svg>
