<svg width="24" height="24" viewBox="0 0 24 24" fill="none" xmlns="http://www.w3.org/2000/svg">
<path d="M12 2.99609V5.43711" stroke="black" stroke-width="1.5" stroke-linecap="round" stroke-linejoin="round"/>
<path d="M16.0017 7.99805L13.4006 10.5991" stroke="black" stroke-width="1.5" stroke-linecap="round" stroke-linejoin="round"/>
<path d="M11.981 9.99902C13.086 9.99902 13.9818 10.8948 13.9818 11.9999C13.9818 13.1049 13.086 14.0007 11.981 14.0007C10.876 14.0007 9.98016 13.1049 9.98016 11.9999C9.98016 10.8948 10.876 9.99902 11.981 9.99902" stroke="black" stroke-width="1.5" stroke-linecap="round" stroke-linejoin="round"/>
<path d="M3.51947 15.001C4.78712 18.598 8.18611 21.0041 12 21.0041C15.8139 21.0041 19.2129 18.598 20.4805 15.001" stroke="black" stroke-width="1.5" stroke-linecap="round" stroke-linejoin="round"/>
<path d="M4.99708 11.9998H2.99625C2.99625 8.78311 4.71235 5.81073 7.49812 4.20237C10.2839 2.594 13.7161 2.594 16.5019 4.20237C19.2876 5.81073 21.0037 8.78311 21.0037 11.9998H19.0029" stroke="black" stroke-width="1.5" stroke-linecap="round" stroke-linejoin="round"/>
<path d="M5.63736 5.6377L7.04795 7.04828" stroke="black" stroke-width="1.5" stroke-linecap="round" stroke-linejoin="round"/>
</svg>
