<svg width="24" height="24" viewBox="0 0 24 24" fill="none" xmlns="http://www.w3.org/2000/svg">
<path fill-rule="evenodd" clip-rule="evenodd" d="M15.8516 9.48567L13.5696 13.1002C13.215 13.6611 12.5975 14.0009 11.934 14.0005V14.0005C11.4208 14.0005 10.9287 13.7967 10.5658 13.4339C10.203 13.071 9.99915 12.5789 9.99915 12.0657V12.0657C9.99874 11.4021 10.3386 10.7847 10.8995 10.4301L14.514 8.14811C14.6691 8.05001 14.8488 7.99797 15.0322 7.99805V7.99805C15.5676 7.99805 16.0016 8.43206 16.0016 8.96745V8.96745C16.0017 9.15092 15.9497 9.33063 15.8516 9.48567V9.48567Z" stroke="black" stroke-width="1.5" stroke-linecap="round" stroke-linejoin="round"/>
<rect x="2.99625" y="2.99609" width="18.0075" height="18.0075" rx="5" stroke="black" stroke-width="1.5" stroke-linecap="round" stroke-linejoin="round"/>
<path d="M11.7679 6.37914C11.7685 6.51714 11.8807 6.62861 12.0187 6.62824C12.1567 6.62787 12.2683 6.51581 12.2681 6.37781C12.2679 6.23981 12.156 6.12804 12.018 6.12803C11.9514 6.12777 11.8875 6.15417 11.8405 6.20135C11.7935 6.24852 11.7674 6.31255 11.7679 6.37914" stroke="black" stroke-width="1.5" stroke-linecap="round" stroke-linejoin="round"/>
<path d="M11.7179 17.6731C11.7184 17.8111 11.8307 17.9226 11.9687 17.9222C12.1066 17.9218 12.2183 17.8098 12.2181 17.6718C12.2179 17.5338 12.106 17.422 11.968 17.422C11.9014 17.4217 11.8375 17.4481 11.7905 17.4953C11.7435 17.5425 11.7173 17.6065 11.7179 17.6731" stroke="black" stroke-width="1.5" stroke-linecap="round" stroke-linejoin="round"/>
<path d="M7.80424 15.825C7.70675 15.9227 7.70689 16.081 7.80454 16.1785C7.9022 16.2761 8.06044 16.2761 8.15809 16.1785C8.25575 16.081 8.25588 15.9227 8.15839 15.825C8.11174 15.7774 8.04793 15.7507 7.98132 15.7507C7.91471 15.7507 7.8509 15.7774 7.80424 15.825" stroke="black" stroke-width="1.5" stroke-linecap="round" stroke-linejoin="round"/>
<path d="M17.6383 11.7999C17.5003 11.8005 17.3889 11.9127 17.3892 12.0507C17.3896 12.1887 17.5017 12.3003 17.6397 12.3001C17.7777 12.2999 17.8894 12.188 17.8894 12.05C17.8897 11.9834 17.8633 11.9195 17.8161 11.8725C17.769 11.8255 17.7049 11.7994 17.6383 11.7999" stroke="black" stroke-width="1.5" stroke-linecap="round" stroke-linejoin="round"/>
<path d="M6.34465 11.7501C6.20692 11.7518 6.09646 11.8645 6.09755 12.0022C6.09865 12.1399 6.2109 12.2508 6.34864 12.2503C6.48637 12.2498 6.59774 12.138 6.59775 12.0002C6.59802 11.9336 6.57162 11.8697 6.52444 11.8227C6.47726 11.7757 6.41324 11.7496 6.34665 11.7501" stroke="black" stroke-width="1.5" stroke-linecap="round" stroke-linejoin="round"/>
<path d="M16.1437 15.8583C16.097 15.8113 16.0334 15.7849 15.9671 15.7849C15.9009 15.7849 15.8373 15.8113 15.7906 15.8583C15.6928 15.9561 15.6928 16.1147 15.7906 16.2125C15.8884 16.3103 16.0469 16.3103 16.1447 16.2125C16.192 16.1657 16.2186 16.1019 16.2186 16.0354C16.2186 15.9689 16.192 15.9051 16.1447 15.8583" stroke="black" stroke-width="1.5" stroke-linecap="round" stroke-linejoin="round"/>
<path d="M8.19842 7.83696C8.15167 7.78998 8.08812 7.76357 8.02185 7.76357C7.95557 7.76357 7.89202 7.78998 7.84527 7.83696C7.77358 7.90843 7.75204 8.01606 7.7907 8.10962C7.82937 8.20317 7.92062 8.26419 8.02185 8.26419C8.12307 8.26419 8.21432 8.20317 8.25299 8.10962C8.29165 8.01606 8.27011 7.90843 8.19842 7.83696" stroke="black" stroke-width="1.5" stroke-linecap="round" stroke-linejoin="round"/>
</svg>
