<svg width="24" height="24" viewBox="0 0 24 24" fill="none" xmlns="http://www.w3.org/2000/svg">
<circle cx="12" cy="11.9998" r="9.00375" stroke="black" stroke-width="1.5" stroke-linecap="round" stroke-linejoin="round"/>
<path fill-rule="evenodd" clip-rule="evenodd" d="M15.8516 9.48567L13.5697 13.1002C13.215 13.6611 12.5976 14.0009 11.934 14.0005V14.0005C11.4208 14.0005 10.9287 13.7967 10.5659 13.4339C10.203 13.071 9.99917 12.5789 9.99917 12.0657V12.0657C9.99877 11.4021 10.3387 10.7847 10.8995 10.4301L14.514 8.14811C14.6691 8.05001 14.8488 7.99797 15.0323 7.99805V7.99805C15.5677 7.99805 16.0017 8.43206 16.0017 8.96745V8.96745C16.0017 9.15092 15.9497 9.33063 15.8516 9.48567V9.48567Z" stroke="black" stroke-width="1.5" stroke-linecap="round" stroke-linejoin="round"/>
<path d="M12.017 6.12804C11.879 6.12859 11.7675 6.24081 11.7679 6.37881C11.7683 6.51681 11.8803 6.62843 12.0183 6.62824C12.1563 6.62806 12.2681 6.51614 12.2681 6.37814C12.2684 6.31156 12.242 6.24763 12.1948 6.20064C12.1476 6.15365 12.0836 6.1275 12.017 6.12804" stroke="black" stroke-width="1.5" stroke-linecap="round" stroke-linejoin="round"/>
<path d="M11.967 17.422C11.829 17.4225 11.7175 17.5348 11.7179 17.6728C11.7183 17.8108 11.8303 17.9224 11.9683 17.9222C12.1063 17.922 12.2181 17.8101 12.2181 17.6721C12.2184 17.6055 12.192 17.5416 12.1448 17.4946C12.0976 17.4476 12.0336 17.4214 11.967 17.422" stroke="black" stroke-width="1.5" stroke-linecap="round" stroke-linejoin="round"/>
<path d="M7.83927 7.83873C7.74218 7.93661 7.74262 8.0946 7.84023 8.19195C7.93785 8.2893 8.09583 8.2893 8.19345 8.19195C8.29107 8.0946 8.2915 7.93661 8.19441 7.83873C8.14745 7.79139 8.08353 7.76475 8.01684 7.76475C7.95015 7.76475 7.88623 7.79139 7.83927 7.83873" stroke="black" stroke-width="1.5" stroke-linecap="round" stroke-linejoin="round"/>
<path d="M15.7906 15.8598C15.7436 15.9065 15.7172 15.9701 15.7172 16.0363C15.7172 16.1026 15.7436 16.1662 15.7906 16.2129C15.862 16.2846 15.9697 16.3061 16.0632 16.2675C16.1568 16.2288 16.2178 16.1376 16.2178 16.0363C16.2178 15.9351 16.1568 15.8439 16.0632 15.8052C15.9697 15.7665 15.862 15.7881 15.7906 15.8598" stroke="black" stroke-width="1.5" stroke-linecap="round" stroke-linejoin="round"/>
<path d="M7.80626 16.1783C7.904 16.2757 8.06224 16.2756 8.15981 16.178C8.25738 16.0803 8.25738 15.9221 8.15981 15.8244C8.06224 15.7268 7.904 15.7266 7.80626 15.8241C7.75847 15.8706 7.73151 15.9345 7.73151 16.0012C7.73151 16.0679 7.75847 16.1317 7.80626 16.1783" stroke="black" stroke-width="1.5" stroke-linecap="round" stroke-linejoin="round"/>
<path d="M6.09754 12.0002C6.0981 12.1382 6.21031 12.2497 6.34831 12.2493C6.48631 12.249 6.59793 12.1369 6.59775 11.9989C6.59757 11.8609 6.48565 11.7491 6.34764 11.7491C6.28106 11.7489 6.21714 11.7753 6.17015 11.8224C6.12315 11.8696 6.09701 11.9336 6.09754 12.0002" stroke="black" stroke-width="1.5" stroke-linecap="round" stroke-linejoin="round"/>
<path d="M17.3892 12.051C17.3898 12.189 17.502 12.3005 17.64 12.3001C17.778 12.2997 17.8896 12.1877 17.8895 12.0497C17.8893 11.9117 17.7773 11.7999 17.6393 11.7999C17.5728 11.7996 17.5088 11.826 17.4618 11.8732C17.4149 11.9204 17.3887 11.9844 17.3892 12.051" stroke="black" stroke-width="1.5" stroke-linecap="round" stroke-linejoin="round"/>
</svg>
