<svg width="24" height="24" viewBox="0 0 24 24" fill="none" xmlns="http://www.w3.org/2000/svg">
<path d="M7.99833 17.502L9.99917 19.5028L7.99833 21.5036" stroke="black" stroke-width="1.5" stroke-linecap="round" stroke-linejoin="round"/>
<path d="M9.99917 19.5031H3.99667" stroke="black" stroke-width="1.5" stroke-linecap="round" stroke-linejoin="round"/>
<path d="M14.0008 20.2776C17.742 19.4264 20.5328 16.2979 20.953 12.4841C21.3732 8.67041 19.3304 5.00938 15.8642 3.36417C12.398 1.71896 8.27002 2.45104 5.58098 5.18785C2.89194 7.92467 2.23265 12.0649 3.93864 15.5016" stroke="black" stroke-width="1.5" stroke-linecap="round" stroke-linejoin="round"/>
<path fill-rule="evenodd" clip-rule="evenodd" d="M11.0727 7.78307L10.1889 11.7172C10.0653 12.2672 10.1984 12.8437 10.5507 13.2839C10.903 13.724 11.4362 13.9803 12 13.9803V13.9803C12.5638 13.9803 13.097 13.724 13.4493 13.2839C13.8016 12.8437 13.9347 12.2672 13.8111 11.7171L12.9273 7.78305C12.8298 7.34925 12.4446 7.04102 12 7.04102C11.5554 7.04102 11.1702 7.34927 11.0727 7.78307V7.78307Z" stroke="black" stroke-width="1.5" stroke-linecap="round" stroke-linejoin="round"/>
</svg>
