<svg width="24" height="24" viewBox="0 0 24 24" fill="none" xmlns="http://www.w3.org/2000/svg">
<path d="M18.3666 5.63327C21.8828 9.14947 21.8828 14.8503 18.3666 18.3665C14.8504 21.8826 9.14956 21.8826 5.63338 18.3665C2.11721 14.8503 2.1172 9.14944 5.63336 5.63325C9.14953 2.11706 14.8504 2.11704 18.3666 5.63319L18.3666 5.63327" stroke="black" stroke-width="1.5" stroke-linecap="round" stroke-linejoin="round"/>
<path d="M12.007 10.3125C11.0744 10.3087 10.3152 11.0616 10.3113 11.9942C10.3074 12.9269 11.0604 13.686 11.993 13.6899C12.9256 13.6938 13.6848 12.9409 13.6887 12.0082V12.0002C13.6876 11.0709 12.9363 10.3169 12.007 10.3125" stroke="black" stroke-width="1.5" stroke-linecap="round" stroke-linejoin="round"/>
<path d="M13.2005 10.8001L16.2018 7.79883" stroke="black" stroke-width="1.5" stroke-linecap="round" stroke-linejoin="round"/>
<path d="M5.63334 18.3664C2.11719 14.8502 2.11722 9.14938 5.6334 5.63321C9.14959 2.11705 14.8504 2.11706 18.3666 5.63323C21.8828 9.14941 21.8828 14.8502 18.3666 18.3664C14.8505 21.8826 9.14962 21.8826 5.63342 18.3665L5.63334 18.3664" stroke="black" stroke-width="1.5" stroke-linecap="round" stroke-linejoin="round"/>
<path d="M12.125 17.8772C12.125 17.9462 12.0691 18.0022 12 18.0022C11.9309 18.0022 11.8749 17.9462 11.8749 17.8772C11.8749 17.8081 11.9309 17.7521 12 17.7521" stroke="black" stroke-width="1.5" stroke-linecap="round" stroke-linejoin="round"/>
<path d="M12 17.7521C12.0691 17.7521 12.1251 17.8081 12.1251 17.8772" stroke="black" stroke-width="1.5" stroke-linecap="round" stroke-linejoin="round"/>
<path d="M12.125 6.12228C12.125 6.19134 12.0691 6.24733 12 6.24733C11.9309 6.24733 11.8749 6.19134 11.8749 6.12228C11.8749 6.05321 11.9309 5.99723 12 5.99723" stroke="black" stroke-width="1.5" stroke-linecap="round" stroke-linejoin="round"/>
<path d="M12 5.99725C12.0691 5.99725 12.1251 6.05324 12.1251 6.1223" stroke="black" stroke-width="1.5" stroke-linecap="round" stroke-linejoin="round"/>
<path d="M6.12255 12.1253C6.05349 12.1253 5.9975 12.0693 5.9975 12.0002C5.9975 11.9311 6.05349 11.8752 6.12255 11.8752C6.19162 11.8752 6.24761 11.9311 6.24761 12.0002" stroke="black" stroke-width="1.5" stroke-linecap="round" stroke-linejoin="round"/>
<path d="M6.24761 12.0002C6.24761 12.0692 6.19162 12.1252 6.12256 12.1252" stroke="black" stroke-width="1.5" stroke-linecap="round" stroke-linejoin="round"/>
<path d="M17.8774 12.1253C17.8084 12.1253 17.7524 12.0693 17.7524 12.0002C17.7524 11.9311 17.8084 11.8752 17.8774 11.8752C17.9465 11.8752 18.0025 11.9311 18.0025 12.0002" stroke="black" stroke-width="1.5" stroke-linecap="round" stroke-linejoin="round"/>
<path d="M18.0025 12.0002C18.0025 12.0692 17.9465 12.1252 17.8774 12.1252" stroke="black" stroke-width="1.5" stroke-linecap="round" stroke-linejoin="round"/>
</svg>
