<svg width="24" height="24" viewBox="0 0 24 24" fill="none" xmlns="http://www.w3.org/2000/svg">
<path fill-rule="evenodd" clip-rule="evenodd" d="M12.9091 7.72514L13.8147 11.7326C13.9549 12.3549 13.7663 13.0055 13.315 13.4563V13.4563C12.9662 13.805 12.4932 14.001 12 14.001C11.5068 14.001 11.0338 13.805 10.685 13.4563V13.4563C10.2337 13.0055 10.0451 12.3549 10.1853 11.7326L11.0909 7.72514C11.1296 7.5531 11.2164 7.39559 11.3411 7.27095V7.27095C11.705 6.90708 12.295 6.90708 12.6588 7.27095V7.27095C12.7836 7.39559 12.8704 7.5531 12.9091 7.72514V7.72514Z" stroke="black" stroke-width="1.5" stroke-linecap="round" stroke-linejoin="round"/>
<path fill-rule="evenodd" clip-rule="evenodd" d="M16.0017 21.0036H7.99833C5.23576 21.0036 2.99625 18.7641 2.99625 16.0015V7.99818C2.99625 5.2356 5.23576 2.99609 7.99833 2.99609H16.0017C18.7642 2.99609 21.0037 5.2356 21.0037 7.99818V16.0015C21.0037 18.7641 18.7642 21.0036 16.0017 21.0036Z" stroke="black" stroke-width="1.5" stroke-linecap="round" stroke-linejoin="round"/>
</svg>
