<svg width="24" height="24" viewBox="0 0 24 24" fill="none" xmlns="http://www.w3.org/2000/svg">
<path d="M18.3666 5.63327C21.8828 9.14946 21.8828 14.8503 18.3666 18.3665C14.8504 21.8826 9.14958 21.8826 5.6334 18.3665C2.11722 14.8503 2.11719 9.14946 5.63334 5.63327C7.32188 3.94472 9.61203 2.99609 12 2.99609C14.388 2.99609 16.6781 3.94472 18.3666 5.63327" stroke="black" stroke-width="1.5" stroke-linecap="round" stroke-linejoin="round"/>
<path d="M12.007 10.3125C11.3233 10.3097 10.7053 10.7194 10.4418 11.3504C10.1782 11.9813 10.3212 12.7088 10.8038 13.1932C11.2864 13.6775 12.0135 13.823 12.6453 13.5618C13.2772 13.3005 13.6891 12.684 13.6887 12.0002C13.6876 11.0709 12.9363 10.3169 12.007 10.3125" stroke="black" stroke-width="1.5" stroke-linecap="round" stroke-linejoin="round"/>
<path d="M9.55597 14.4439L10.8065 13.1934" stroke="black" stroke-width="1.5" stroke-linecap="round" stroke-linejoin="round"/>
<path d="M13.2005 10.8001L16.2018 7.79883" stroke="black" stroke-width="1.5" stroke-linecap="round" stroke-linejoin="round"/>
</svg>
