<svg width="24" height="24" viewBox="0 0 24 24" fill="none" xmlns="http://www.w3.org/2000/svg">
<path d="M12.007 10.3125C11.3233 10.3097 10.7053 10.7194 10.4418 11.3504C10.1782 11.9813 10.3212 12.7088 10.8038 13.1932C11.2864 13.6775 12.0135 13.823 12.6453 13.5618C13.2772 13.3005 13.6891 12.684 13.6887 12.0002C13.6876 11.0709 12.9363 10.3169 12.007 10.3125" stroke="black" stroke-width="1.5" stroke-linecap="round" stroke-linejoin="round"/>
<path d="M13.2005 10.8001L16.2018 7.79883" stroke="black" stroke-width="1.5" stroke-linecap="round" stroke-linejoin="round"/>
<rect x="21.0038" y="21.0039" width="18.0075" height="18.0075" rx="5" transform="rotate(180 21.0038 21.0039)" stroke="black" stroke-width="1.5" stroke-linecap="round" stroke-linejoin="round"/>
<path d="M9.80608 14.1938L10.8065 13.1934" stroke="black" stroke-width="1.5" stroke-linecap="round" stroke-linejoin="round"/>
<path d="M5.49729 12.0002H5.9975" stroke="black" stroke-width="1.5" stroke-linecap="round" stroke-linejoin="round"/>
<path d="M18.5027 12.0002H18.0025" stroke="black" stroke-width="1.5" stroke-linecap="round" stroke-linejoin="round"/>
<path d="M7.75823 16.242L7.39808 16.6022" stroke="black" stroke-width="1.5" stroke-linecap="round" stroke-linejoin="round"/>
<path d="M12 18.003V18.5032" stroke="black" stroke-width="1.5" stroke-linecap="round" stroke-linejoin="round"/>
<path d="M12 5.49717V5.99738" stroke="black" stroke-width="1.5" stroke-linecap="round" stroke-linejoin="round"/>
<path d="M16.2418 16.242L16.6019 16.6022" stroke="black" stroke-width="1.5" stroke-linecap="round" stroke-linejoin="round"/>
<path d="M7.39808 7.39826L7.75823 7.75841" stroke="black" stroke-width="1.5" stroke-linecap="round" stroke-linejoin="round"/>
</svg>
