<svg width="24" height="24" viewBox="0 0 24 24" fill="none" xmlns="http://www.w3.org/2000/svg">
<path d="M12 3.43994V5.43994" stroke="black" stroke-width="1.5" stroke-linecap="round" stroke-linejoin="round"/>
<path d="M21 12H19" stroke="black" stroke-width="1.5" stroke-linecap="round" stroke-linejoin="round"/>
<path d="M3 12H5" stroke="black" stroke-width="1.5" stroke-linecap="round" stroke-linejoin="round"/>
<path d="M18.36 5.64001L16.24 7.76001" stroke="black" stroke-width="1.5" stroke-linecap="round" stroke-linejoin="round"/>
<path d="M5.64 18.36L7.64 16.36" stroke="black" stroke-width="1.5" stroke-linecap="round" stroke-linejoin="round"/>
<path d="M18.36 18.36L16.24 16.24" stroke="black" stroke-width="1.5" stroke-linecap="round" stroke-linejoin="round"/>
<path d="M5.64 5.64001L7.76 7.76001" stroke="black" stroke-width="1.5" stroke-linecap="round" stroke-linejoin="round"/>
<path d="M18.364 5.63604C21.8787 9.15076 21.8787 14.8492 18.364 18.3639C14.8493 21.8787 9.1508 21.8787 5.6361 18.3639C2.12138 14.8492 2.12138 9.15074 5.6361 5.63604C9.15082 2.12132 14.8493 2.12132 18.364 5.63604" stroke="black" stroke-width="1.5" stroke-linecap="round" stroke-linejoin="round"/>
<path d="M10.547 11.042V11.042C9.792 11.797 9.792 13.021 10.547 13.775L10.553 13.781C11.308 14.536 12.532 14.536 13.286 13.781V13.781L13.288 13.777L13.289 13.778C14.14 12.927 14.135 11.086 14.106 10.454C14.1 10.325 14.004 10.228 13.874 10.222C13.242 10.193 11.401 10.187 10.55 11.039" stroke="black" stroke-width="1.4991" stroke-linecap="round" stroke-linejoin="round"/>
</svg>
