<svg width="24" height="24" viewBox="0 0 24 24" fill="none" xmlns="http://www.w3.org/2000/svg">
<path d="M20.477 14.9971C19.2099 18.5926 15.8123 20.9977 12 20.9977C8.18769 20.9977 4.79012 18.5926 3.52299 14.9971" stroke="black" stroke-width="1.5" stroke-linecap="round" stroke-linejoin="round"/>
<path d="M21 12C21 7.02944 16.9706 3 12 3C7.02944 3 3 7.02944 3 12" stroke="black" stroke-width="1.5" stroke-linecap="round" stroke-linejoin="round"/>
<path d="M3 12H4.5" stroke="black" stroke-width="1.5" stroke-linecap="round" stroke-linejoin="round"/>
<path d="M19.5 12H21" stroke="black" stroke-width="1.5" stroke-linecap="round" stroke-linejoin="round"/>
<path fill-rule="evenodd" clip-rule="evenodd" d="M14.3133 9.03837L11.1817 10.3278C10.592 10.5707 10.1627 11.0922 10.0376 11.7175C9.91252 12.3429 10.1083 12.9894 10.5592 13.4404V13.4404C11.0102 13.8914 11.6567 14.0871 12.2821 13.962C12.9074 13.837 13.4289 13.4076 13.6718 12.8179L14.9612 9.68635C15.0375 9.50106 14.9949 9.28807 14.8532 9.14638C14.7115 9.00468 14.4985 8.96208 14.3133 9.03837Z" stroke="black" stroke-width="1.5" stroke-linecap="round" stroke-linejoin="round"/>
<path d="M5.636 5.63574L6.6967 6.69644" stroke="black" stroke-width="1.5" stroke-linecap="round" stroke-linejoin="round"/>
<path d="M12 3V4.5" stroke="black" stroke-width="1.5" stroke-linecap="round" stroke-linejoin="round"/>
<path d="M18.364 5.63574L17.3033 6.69644" stroke="black" stroke-width="1.5" stroke-linecap="round" stroke-linejoin="round"/>
</svg>
