<svg width="24" height="24" viewBox="0 0 24 24" fill="none" xmlns="http://www.w3.org/2000/svg">
<path d="M3.11787 13.4152C3.00458 12.7138 2.97513 12.0013 3.03015 11.293" stroke="black" stroke-width="1.5" stroke-linecap="round" stroke-linejoin="round"/>
<path d="M16.2373 4.05566C18.6187 5.32535 20.3045 7.59692 20.8298 10.2441" stroke="black" stroke-width="1.5" stroke-linecap="round" stroke-linejoin="round"/>
<path d="M5.63335 5.63379C4.91128 6.35839 4.31864 7.2013 3.88112 8.12597" stroke="black" stroke-width="1.5" stroke-linecap="round" stroke-linejoin="round"/>
<path d="M20.8163 13.7422C20.0902 17.4812 17.0858 20.3562 13.3185 20.917C9.55117 21.4778 5.83956 19.6026 4.05588 16.2372" stroke="black" stroke-width="1.5" stroke-linecap="round" stroke-linejoin="round"/>
<path d="M8.12698 3.88257C9.77219 3.09961 11.6158 2.83278 13.4155 3.11717" stroke="black" stroke-width="1.5" stroke-linecap="round" stroke-linejoin="round"/>
<path fill-rule="evenodd" clip-rule="evenodd" d="M12 14.001C12.5653 14.001 13.1 13.7438 13.4529 13.3022C13.8059 12.8606 13.9388 12.2824 13.8141 11.7309L12.9083 7.72394C12.8123 7.29946 12.4352 6.99805 12 6.99805V6.99805C11.5648 6.99805 11.1877 7.29946 11.0917 7.72394L10.1859 11.7309C10.0612 12.2824 10.1941 12.8606 10.5471 13.3022C10.9 13.7438 11.4347 14.001 12 14.001Z" stroke="black" stroke-width="1.5" stroke-linecap="round" stroke-linejoin="round"/>
</svg>
