<svg width="24" height="24" viewBox="0 0 24 24" fill="none" xmlns="http://www.w3.org/2000/svg">
<circle cx="12" cy="12.5057" r="2.00083" stroke="black" stroke-width="1.5" stroke-linecap="round" stroke-linejoin="round"/>
<path d="M16.0017 8.50391L13.5006 11.0049" stroke="black" stroke-width="1.5" stroke-linecap="round" stroke-linejoin="round"/>
<path d="M18.2986 12.5051H17.3982" stroke="black" stroke-width="1.5" stroke-linecap="round" stroke-linejoin="round"/>
<path d="M5.69237 12.5051H6.59275" stroke="black" stroke-width="1.5" stroke-linecap="round" stroke-linejoin="round"/>
<path d="M11.996 6.20236V7.10274" stroke="black" stroke-width="1.5" stroke-linecap="round" stroke-linejoin="round"/>
<path d="M7.53813 8.04855L7.98832 8.49874" stroke="black" stroke-width="1.5" stroke-linecap="round" stroke-linejoin="round"/>
<path fill-rule="evenodd" clip-rule="evenodd" d="M11.7189 3.49695C6.88617 3.6991 3.05527 7.64512 2.9962 12.4817C2.98734 15.3833 4.38055 18.1104 6.7368 19.8037C7.4038 20.2697 8.20018 20.5146 9.01375 20.504H14.9942C15.7893 20.5159 16.5682 20.2791 17.2222 19.8267C20.4584 17.5275 21.8056 13.3791 20.5378 9.61713C19.2699 5.85513 15.6867 3.3684 11.7189 3.49695Z" stroke="black" stroke-width="1.5" stroke-linecap="round" stroke-linejoin="round"/>
</svg>
