<svg width="24" height="24" viewBox="0 0 24 24" fill="none" xmlns="http://www.w3.org/2000/svg">
<path fill-rule="evenodd" clip-rule="evenodd" d="M16.5019 11.9999C16.5019 14.4862 14.4863 16.5018 12 16.5018C9.51367 16.5018 7.49811 14.4862 7.49811 11.9999C7.49811 9.51362 9.51367 7.49805 12 7.49805C13.1945 7.4962 14.3407 7.9699 15.1853 8.81457C16.03 9.65924 16.5037 10.8054 16.5019 11.9999Z" stroke="black" stroke-width="1.5" stroke-linecap="round" stroke-linejoin="round"/>
<path d="M8.81766 15.182L15.1823 8.81738" stroke="black" stroke-width="1.5" stroke-linecap="round" stroke-linejoin="round"/>
<path fill-rule="evenodd" clip-rule="evenodd" d="M15.6015 21.0036H8.3985C5.41492 21.0036 2.99625 18.5849 2.99625 15.6013V8.39834C2.99625 5.41476 5.41492 2.99609 8.3985 2.99609H15.6015C18.5851 2.99609 21.0037 5.41476 21.0037 8.39834V15.6013C21.0037 18.5849 18.5851 21.0036 15.6015 21.0036Z" stroke="black" stroke-width="1.5" stroke-linecap="round" stroke-linejoin="round"/>
</svg>
