<svg width="24" height="24" viewBox="0 0 24 24" fill="none" xmlns="http://www.w3.org/2000/svg">
<path d="M18.364 5.63604C21.8787 9.15076 21.8787 14.8492 18.364 18.3639C14.8493 21.8787 9.1508 21.8787 5.6361 18.3639C2.12138 14.8492 2.12138 9.15074 5.6361 5.63604C9.15082 2.12132 14.8493 2.12132 18.364 5.63604" stroke="black" stroke-width="1.5" stroke-linecap="round" stroke-linejoin="round"/>
<path d="M15 10L13.888 7.776C13.804 7.607 13.63 7.5 13.441 7.5H10.559C10.37 7.5 10.196 7.607 10.112 7.776L9 10" stroke="black" stroke-width="1.5" stroke-linecap="round" stroke-linejoin="round"/>
<path d="M15.403 10L14.938 15.583C14.895 16.101 14.462 16.5 13.941 16.5H10.059C9.539 16.5 9.106 16.101 9.062 15.583L8.597 10" stroke="black" stroke-width="1.5" stroke-linecap="round" stroke-linejoin="round"/>
<path d="M8 10H16" stroke="black" stroke-width="1.5" stroke-linecap="round" stroke-linejoin="round"/>
</svg>
