<svg width="24" height="24" viewBox="0 0 24 24" fill="none" xmlns="http://www.w3.org/2000/svg">
<path d="M20.5856 9.35174C20.8587 10.2081 20.9997 11.101 21.0037 11.9998C21.0037 16.9725 16.9726 21.0036 12 21.0036C7.02737 21.0036 2.99625 16.9725 2.99625 11.9998C2.99625 7.02721 7.02737 2.99609 12 2.99609C12.8988 3.00015 13.7918 3.14116 14.6481 3.41427" stroke="black" stroke-width="1.5" stroke-linecap="round" stroke-linejoin="round"/>
<path d="M19.0149 6.25991L17.7394 4.98438" stroke="black" stroke-width="1.5" stroke-linecap="round" stroke-linejoin="round"/>
<path d="M21.0037 4.27051L19.0149 6.25937" stroke="black" stroke-width="1.5" stroke-linecap="round" stroke-linejoin="round"/>
<path fill-rule="evenodd" clip-rule="evenodd" d="M9.38053 15.1725L11.6205 14.2585C11.8626 14.1597 12.1338 14.1597 12.3759 14.2585L14.6196 15.1736C15.0115 15.3333 15.4615 15.2292 15.7434 14.9136C16.0253 14.5979 16.0782 14.1391 15.8755 13.7676L12.8779 8.26963C12.7027 7.94812 12.3659 7.74805 11.9997 7.74805C11.6336 7.74805 11.2967 7.94812 11.1215 8.26963L8.1245 13.7665C7.92175 14.138 7.97465 14.5969 8.25661 14.9125C8.53857 15.2281 8.98861 15.3322 9.38053 15.1725Z" stroke="black" stroke-width="1.5" stroke-linecap="round" stroke-linejoin="round"/>
</svg>
