<svg width="24" height="24" viewBox="0 0 24 24" fill="none" xmlns="http://www.w3.org/2000/svg">
<path d="M16.5 5.75195H20" stroke="black" stroke-width="1.5" stroke-linecap="round" stroke-linejoin="round"/>
<path d="M18.249 7.5V4" stroke="black" stroke-width="1.5" stroke-linecap="round" stroke-linejoin="round"/>
<path fill-rule="evenodd" clip-rule="evenodd" d="M14.6181 15.1715L12.3797 14.2579C12.1375 14.159 11.8663 14.159 11.6241 14.2578L9.38169 15.1724C8.9901 15.3321 8.54039 15.2283 8.25853 14.913C7.97667 14.5977 7.9236 14.1392 8.126 13.7679L11.1219 8.27137C11.2971 7.95 11.6339 7.75001 11.9999 7.75C12.3659 7.74999 12.7027 7.94994 12.8779 8.2713L15.874 13.767C16.0764 14.1384 16.0234 14.5969 15.7414 14.9122C15.4595 15.2275 15.0097 15.3313 14.6181 15.1715Z" stroke="black" stroke-width="1.5" stroke-linecap="round" stroke-linejoin="round"/>
<path d="M14 3.23147C10.0757 2.32678 6.02682 4.13062 4.07495 7.65319C2.12309 11.1758 2.74033 15.5651 5.58798 18.4128C8.43564 21.2604 12.825 21.8777 16.3476 19.9258C19.8701 17.9739 21.674 13.925 20.7693 10.0007" stroke="black" stroke-width="1.5" stroke-linecap="round" stroke-linejoin="round"/>
</svg>
