<svg width="24" height="24" viewBox="0 0 24 24" fill="none" xmlns="http://www.w3.org/2000/svg">
<path d="M18.364 5.63604C21.8787 9.15076 21.8787 14.8492 18.364 18.3639C14.8493 21.8787 9.1508 21.8787 5.6361 18.3639C2.12138 14.8492 2.12138 9.15074 5.6361 5.63604C9.15082 2.12132 14.8493 2.12132 18.364 5.63604" stroke="black" stroke-width="1.5" stroke-linecap="round" stroke-linejoin="round"/>
<path d="M8.5 12H15.5" stroke="black" stroke-width="1.5" stroke-linecap="round" stroke-linejoin="round"/>
<path d="M11.625 8.501C11.626 8.708 11.794 8.875 12.001 8.875C12.208 8.875 12.376 8.707 12.375 8.5C12.375 8.293 12.207 8.125 12 8.125C11.793 8.125 11.625 8.293 11.625 8.501" stroke="black" stroke-width="1.5" stroke-linecap="round" stroke-linejoin="round"/>
<path d="M11.625 15.501C11.626 15.708 11.794 15.875 12.001 15.875C12.208 15.875 12.376 15.707 12.375 15.5C12.375 15.293 12.207 15.125 12 15.125C11.793 15.125 11.625 15.293 11.625 15.501" stroke="black" stroke-width="1.5" stroke-linecap="round" stroke-linejoin="round"/>
</svg>
