<svg width="24" height="24" viewBox="0 0 24 24" fill="none" xmlns="http://www.w3.org/2000/svg">
<path d="M4 8V5C4 3.89543 4.89543 3 6 3H19C20.1046 3 21 3.89543 21 5V19C21 20.1046 20.1046 21 19 21H16" stroke="black" stroke-width="1.5" stroke-linecap="round" stroke-linejoin="round"/>
<path d="M17 8H8" stroke="black" stroke-width="1.5" stroke-linecap="round" stroke-linejoin="round"/>
<path d="M17 12H15" stroke="black" stroke-width="1.5" stroke-linecap="round" stroke-linejoin="round"/>
<path d="M17 16H16" stroke="black" stroke-width="1.5" stroke-linecap="round" stroke-linejoin="round"/>
<path d="M7.55615 17.9443V14.9443" stroke="black" stroke-width="1.5" stroke-linecap="round" stroke-linejoin="round"/>
<path d="M6.05557 16.4434H9.05557" stroke="black" stroke-width="1.5" stroke-linecap="round" stroke-linejoin="round"/>
<path fill-rule="evenodd" clip-rule="evenodd" d="M12.1111 13.9134V18.9751C12.1111 19.5121 11.8978 20.0271 11.5181 20.4068C11.1384 20.7865 10.6234 20.9998 10.0864 20.9998H5.02469C3.90648 20.9998 3 20.0933 3 18.9751V13.9134C3 12.7952 3.90648 11.8887 5.02469 11.8887H10.0864C10.6234 11.8887 11.1384 12.102 11.5181 12.4817C11.8978 12.8614 12.1111 13.3764 12.1111 13.9134Z" stroke="black" stroke-width="1.5" stroke-linecap="round" stroke-linejoin="round"/>
</svg>
