<svg width="24" height="24" viewBox="0 0 24 24" fill="none" xmlns="http://www.w3.org/2000/svg">
<path d="M12 12H8" stroke="black" stroke-width="1.5" stroke-linecap="round" stroke-linejoin="round"/>
<path d="M12 16H8" stroke="black" stroke-width="1.5" stroke-linecap="round" stroke-linejoin="round"/>
<path d="M12 21H7C4.79086 21 3 19.2091 3 17V7C3 4.79086 4.79086 3 7 3H17C19.2091 3 21 4.79086 21 7V8" stroke="black" stroke-width="1.5" stroke-linecap="round" stroke-linejoin="round"/>
<path d="M16 8H8" stroke="black" stroke-width="1.5" stroke-linecap="round" stroke-linejoin="round"/>
<path fill-rule="evenodd" clip-rule="evenodd" d="M21.4992 18.5H15.5008C15.3206 18.5 15.1544 18.4031 15.0657 18.2463C14.9769 18.0896 14.9793 17.8972 15.072 17.7428L16.3688 15.5815C16.4967 15.3682 16.5406 15.1148 16.4918 14.8709L16.1568 13.1961C16.0981 12.9023 16.1741 12.5977 16.3641 12.366C16.554 12.1343 16.8379 12 17.1375 12H19.8625C20.1621 12 20.4459 12.1343 20.6358 12.366C20.8258 12.5977 20.9018 12.9023 20.843 13.1961L20.508 14.8709C20.4593 15.1148 20.5031 15.3682 20.6311 15.5815L21.928 17.7428C22.0207 17.8972 22.0231 18.0896 21.9343 18.2464C21.8456 18.4031 21.6794 18.5 21.4992 18.5Z" stroke="black" stroke-width="1.5" stroke-linecap="round" stroke-linejoin="round"/>
<path d="M18.5 21V18.5" stroke="black" stroke-width="1.5" stroke-linecap="round" stroke-linejoin="round"/>
</svg>
