<svg width="24" height="24" viewBox="0 0 24 24" fill="none" xmlns="http://www.w3.org/2000/svg">
<path d="M18.0025 14.0007V19.0028C18.0025 20.1078 17.1067 21.0036 16.0017 21.0036H4.99708C3.89205 21.0036 2.99625 20.1078 2.99625 19.0028V4.99693C2.99625 3.8919 3.89205 2.99609 4.99708 2.99609H16.0017C17.1067 2.99609 18.0025 3.8919 18.0025 4.99693V7.99818" stroke="black" stroke-width="1.5" stroke-linecap="round" stroke-linejoin="round"/>
<path fill-rule="evenodd" clip-rule="evenodd" d="M13.0004 13.4143V16.0014H15.5875C15.8528 16.0014 16.1072 15.8959 16.2948 15.7083L20.3825 11.6206C21.2109 10.7917 21.2109 9.44827 20.3825 8.61934V8.61934C19.5536 7.79095 18.2102 7.79095 17.3812 8.61934L13.2935 12.707C13.1059 12.8946 13.0004 13.149 13.0004 13.4143Z" stroke="black" stroke-width="1.5" stroke-linecap="round" stroke-linejoin="round"/>
<path d="M6.99792 12.0002H9.99917" stroke="black" stroke-width="1.5" stroke-linecap="round" stroke-linejoin="round"/>
<path d="M6.99792 16.0022H9.99917" stroke="black" stroke-width="1.5" stroke-linecap="round" stroke-linejoin="round"/>
<path d="M6.99792 7.99826H14.0008" stroke="black" stroke-width="1.5" stroke-linecap="round" stroke-linejoin="round"/>
</svg>
