<svg width="24" height="24" viewBox="0 0 24 24" fill="none" xmlns="http://www.w3.org/2000/svg">
<path fill-rule="evenodd" clip-rule="evenodd" d="M15.0013 18.003H8.99875C7.89372 18.003 6.99792 17.1072 6.99792 16.0022V7.99888C6.99792 6.89385 7.89372 5.99805 8.99875 5.99805H15.0013C16.1063 5.99805 17.0021 6.89385 17.0021 7.99888V16.0022C17.0021 17.1072 16.1063 18.003 15.0013 18.003Z" stroke="black" stroke-width="1.5" stroke-linecap="round" stroke-linejoin="round"/>
<path d="M21.0037 19.0029H19.5031C19.2269 19.0029 19.0029 19.2269 19.0029 19.5031V21.0038" stroke="black" stroke-width="1.5" stroke-linecap="round" stroke-linejoin="round"/>
<path d="M9.99916 8.99923H14.0008" stroke="black" stroke-width="1.5" stroke-linecap="round" stroke-linejoin="round"/>
<path d="M9.99916 12.0002H12" stroke="black" stroke-width="1.5" stroke-linecap="round" stroke-linejoin="round"/>
<path d="M2.99625 4.99693H4.49688C4.77313 4.99693 4.99708 4.77298 4.99708 4.49672V2.99609" stroke="black" stroke-width="1.5" stroke-linecap="round" stroke-linejoin="round"/>
<path d="M19.0029 2.99609V4.49672C19.0029 4.77298 19.2269 4.99693 19.5031 4.99693H21.0037" stroke="black" stroke-width="1.5" stroke-linecap="round" stroke-linejoin="round"/>
<path d="M4.99708 21.0038V19.5031C4.99708 19.2269 4.77313 19.0029 4.49688 19.0029H2.99625" stroke="black" stroke-width="1.5" stroke-linecap="round" stroke-linejoin="round"/>
</svg>
