<svg width="24" height="24" viewBox="0 0 24 24" fill="none" xmlns="http://www.w3.org/2000/svg">
<path d="M4 14V17C4.0001 19.2091 5.7909 20.9999 8 21H15.343C16.4041 21.0001 17.4218 20.5785 18.172 19.828L20.122 17.878C20.6843 17.3154 21.0002 16.5525 21 15.757V8C20.9999 5.7909 19.2091 4.0001 17 4H14" stroke="black" stroke-width="1.5" stroke-linecap="round" stroke-linejoin="round"/>
<path d="M15 21V17C14.9999 16.4697 15.2104 15.9611 15.5852 15.586C15.9601 15.2109 16.4686 15.0001 16.9989 15H21" stroke="black" stroke-width="1.5" stroke-linecap="round" stroke-linejoin="round"/>
<circle cx="7.5" cy="7.5" r="4.5" stroke="black" stroke-width="1.5" stroke-linecap="round" stroke-linejoin="round"/>
<path d="M7.49994 8.8498C7.47234 8.84977 7.44998 8.82738 7.45 8.79977C7.45002 8.77217 7.4724 8.7498 7.5 8.7498C7.5276 8.7498 7.54998 8.77217 7.55 8.79977C7.55002 8.82738 7.52766 8.84977 7.50006 8.8498H7.49994" stroke="black" stroke-width="1.5" stroke-linecap="round" stroke-linejoin="round"/>
<path d="M7.49994 6.3498C7.47234 6.34977 7.44998 6.32738 7.45 6.29977C7.45002 6.27217 7.4724 6.2498 7.5 6.2498C7.5276 6.2498 7.54998 6.27217 7.55 6.29977C7.55002 6.32738 7.52766 6.34977 7.50006 6.3498H7.49994" stroke="black" stroke-width="1.5" stroke-linecap="round" stroke-linejoin="round"/>
</svg>
