<svg width="24" height="24" viewBox="0 0 24 24" fill="none" xmlns="http://www.w3.org/2000/svg">
<path d="M8.99875 8.4834H8.24844C7.91669 8.48313 7.59847 8.6148 7.36389 8.84937C7.12931 9.08395 6.99765 9.40218 6.99791 9.73392V14.2658C6.99765 14.5975 7.12931 14.9158 7.36389 15.1504C7.59847 15.3849 7.91669 15.5166 8.24844 15.5163H8.99875" stroke="black" stroke-width="1.5" stroke-linecap="round" stroke-linejoin="round"/>
<path fill-rule="evenodd" clip-rule="evenodd" d="M12.8944 16.4867L16.0207 15.7964C16.594 15.6701 17.0022 15.162 17.0021 14.5749V9.42475C17.0022 8.8377 16.594 8.32958 16.0207 8.20324L12.8944 7.51295C12.5242 7.431 12.1369 7.52152 11.8414 7.75904C11.5459 7.99655 11.3743 8.35536 11.3747 8.73446V15.2662C11.3746 15.6451 11.5464 16.0036 11.8418 16.2409C12.1373 16.4782 12.5244 16.5686 12.8944 16.4867Z" stroke="black" stroke-width="1.5" stroke-linecap="round" stroke-linejoin="round"/>
<path d="M13.7507 11.5V12.5004" stroke="black" stroke-width="1.5" stroke-linecap="round" stroke-linejoin="round"/>
<circle cx="12" cy="11.9998" r="9.00375" stroke="black" stroke-width="1.5" stroke-linecap="round" stroke-linejoin="round"/>
</svg>
