<svg width="24" height="24" viewBox="0 0 24 24" fill="none" xmlns="http://www.w3.org/2000/svg">
<path d="M8.99874 7.99805H8.24843C7.91669 7.99778 7.59846 8.12945 7.36389 8.36402C7.12931 8.5986 6.99764 8.91683 6.99791 9.24857V14.7509C6.99764 15.0826 7.12931 15.4008 7.36389 15.6354C7.59846 15.87 7.91669 16.0016 8.24843 16.0014H8.99874" stroke="black" stroke-width="1.5" stroke-linecap="round" stroke-linejoin="round"/>
<path fill-rule="evenodd" clip-rule="evenodd" d="M12.8944 16.9717L16.0207 16.2815C16.594 16.1551 17.0022 15.647 17.0021 15.0599V8.9394C17.0022 8.35234 16.594 7.84422 16.0207 7.71789L12.8944 7.0276C12.5242 6.94565 12.1369 7.03617 11.8414 7.27368C11.5459 7.51119 11.3743 7.87001 11.3747 8.24911V15.7522C11.3749 16.131 11.5468 16.4892 11.8422 16.7263C12.1376 16.9633 12.5246 17.0536 12.8944 16.9717Z" stroke="black" stroke-width="1.5" stroke-linecap="round" stroke-linejoin="round"/>
<rect x="2.99625" y="2.99609" width="18.0075" height="18.0075" rx="5" stroke="black" stroke-width="1.5" stroke-linecap="round" stroke-linejoin="round"/>
<path d="M13.7507 11.5V12.5004" stroke="black" stroke-width="1.5" stroke-linecap="round" stroke-linejoin="round"/>
</svg>
