<svg width="24" height="24" viewBox="0 0 24 24" fill="none" xmlns="http://www.w3.org/2000/svg">
<path d="M12 17V11" stroke="black" stroke-width="1.5" stroke-linecap="round" stroke-linejoin="round"/>
<path d="M12 6.88501C11.93 6.88501 11.875 6.94001 11.875 7.01001C11.875 7.08001 11.93 7.13501 12 7.13501C12.07 7.13501 12.125 7.08001 12.125 7.01001C12.125 6.94001 12.07 6.88501 12 6.88501" stroke="black" stroke-width="1.5" stroke-linecap="round" stroke-linejoin="round"/>
<path d="M12 2.90002C11.93 2.90002 11.875 2.95502 11.875 3.02502C11.875 3.09502 11.93 3.15002 12 3.15002C12.07 3.15002 12.125 3.09502 12.125 3.02502C12.125 2.95502 12.07 2.90002 12 2.90002" stroke="black" stroke-width="1.5" stroke-linecap="round" stroke-linejoin="round"/>
<path d="M20 21H4" stroke="black" stroke-width="1.5" stroke-linecap="round" stroke-linejoin="round"/>
<path d="M16 13L11.999 17.001L7.99899 13" stroke="black" stroke-width="1.5" stroke-linecap="round" stroke-linejoin="round"/>
</svg>
