<svg width="24" height="24" viewBox="0 0 24 24" fill="none" xmlns="http://www.w3.org/2000/svg">
<path d="M18.364 5.63601C21.879 9.15101 21.879 14.849 18.364 18.364C14.849 21.879 9.151 21.879 5.636 18.364C2.121 14.849 2.121 9.15101 5.636 5.63601C9.151 2.12101 14.849 2.12101 18.364 5.63601" stroke="black" stroke-width="1.5" stroke-linecap="round" stroke-linejoin="round"/>
<path d="M18.364 5.63601C21.879 9.15101 21.879 14.849 18.364 18.364C14.849 21.879 9.151 21.879 5.636 18.364C2.121 14.849 2.121 9.15101 5.636 5.63601C9.151 2.12101 14.849 2.12101 18.364 5.63601" stroke="black" stroke-width="1.5" stroke-linecap="round" stroke-linejoin="round"/>
<path d="M12 7V14" stroke="black" stroke-width="1.5" stroke-linecap="round" stroke-linejoin="round"/>
<path d="M14.025 11.975L12 14L9.975 11.975" stroke="black" stroke-width="1.5" stroke-linecap="round" stroke-linejoin="round"/>
<path d="M8.464 15.536C10.417 17.489 13.582 17.489 15.535 15.536" stroke="black" stroke-width="1.5" stroke-linecap="round" stroke-linejoin="round"/>
</svg>
