<svg width="24" height="24" viewBox="0 0 24 24" fill="none" xmlns="http://www.w3.org/2000/svg">
<path d="M9.99916 2.99658V11.6992" stroke="black" stroke-width="1.5" stroke-linecap="round" stroke-linejoin="round"/>
<path d="M13.0004 8.69775L9.99916 11.699" stroke="black" stroke-width="1.5" stroke-linecap="round" stroke-linejoin="round"/>
<path d="M6.99791 8.69775L9.99916 11.699" stroke="black" stroke-width="1.5" stroke-linecap="round" stroke-linejoin="round"/>
<path d="M13.0004 4.99707H14.0008C15.6584 4.99707 17.0021 6.34078 17.0021 7.99832V14.0008C17.0021 15.6584 15.6584 17.0021 14.0008 17.0021H5.9975C4.33995 17.0021 2.99625 15.6584 2.99625 14.0008V7.99832C2.99625 6.34078 4.33995 4.99707 5.9975 4.99707H6.99791" stroke="black" stroke-width="1.5" stroke-linecap="round" stroke-linejoin="round"/>
<path d="M17.0021 8.99902H18.0025C19.66 8.99902 21.0037 10.3427 21.0037 12.0003V18.0028C21.0037 19.6603 19.66 21.004 18.0025 21.004H9.99916C8.34161 21.004 6.99791 19.6603 6.99791 18.0028V17.0024" stroke="black" stroke-width="1.5" stroke-linecap="round" stroke-linejoin="round"/>
</svg>
