<svg width="24" height="24" viewBox="0 0 24 24" fill="none" xmlns="http://www.w3.org/2000/svg">
<path d="M18.0025 6.99776V4.99693C18.0025 3.8919 17.1067 2.99609 16.0017 2.99609H4.99708C3.89205 2.99609 2.99625 3.8919 2.99625 4.99693V9.99901C2.99625 11.104 3.89205 11.9998 4.99708 11.9998H6.99792" stroke="black" stroke-width="1.5" stroke-linecap="round" stroke-linejoin="round"/>
<path fill-rule="evenodd" clip-rule="evenodd" d="M19.4471 21.0039H8.55456C8.14163 21.0041 7.74554 20.8402 7.45355 20.5482C7.16157 20.2563 6.99765 19.8602 6.99792 19.4472V8.5547C6.99765 8.14177 7.16157 7.74567 7.45355 7.45369C7.74554 7.1617 8.14163 6.99778 8.55456 6.99805H19.4481C19.8609 6.99805 20.2567 7.16208 20.5485 7.45404C20.8402 7.746 21.004 8.14194 21.0037 8.5547V19.4482C21.0037 19.861 20.8397 20.2568 20.5478 20.5486C20.2558 20.8404 19.8599 21.0041 19.4471 21.0039Z" stroke="black" stroke-width="1.5" stroke-linecap="round" stroke-linejoin="round"/>
<path d="M15.5575 11.5L13.6127 13.4448L12.4452 12.2773" stroke="black" stroke-width="1.5" stroke-linecap="round" stroke-linejoin="round"/>
<path d="M10.9996 16.5022H17.0021" stroke="black" stroke-width="1.5" stroke-linecap="round" stroke-linejoin="round"/>
</svg>
