<svg width="24" height="24" viewBox="0 0 24 24" fill="none" xmlns="http://www.w3.org/2000/svg">
<path d="M18.0025 6.99825V4.99742C18.0025 3.89195 17.1071 2.99658 16.0017 2.99658H4.99709C3.89163 2.99658 2.99625 3.89195 2.99625 4.99742V9.9995C2.99625 11.105 3.89163 12.0003 4.99709 12.0003H6.99792" stroke="black" stroke-width="1.5" stroke-linecap="round" stroke-linejoin="round"/>
<path fill-rule="evenodd" clip-rule="evenodd" d="M19.4471 21.0039H8.55457C7.69421 21.0039 6.99792 20.3076 6.99792 19.4472V8.5547C6.99792 7.69434 7.69421 6.99805 8.55457 6.99805H19.4481C20.3075 6.99805 21.0038 7.69434 21.0038 8.5547V19.4482C21.0038 20.3076 20.3075 21.0039 19.4471 21.0039Z" stroke="black" stroke-width="1.5" stroke-linecap="round" stroke-linejoin="round"/>
<path d="M9.99917 15.0017H18.0025" stroke="black" stroke-width="1.5" stroke-linecap="round" stroke-linejoin="round"/>
<path d="M9.99917 18.0026H18.0025" stroke="black" stroke-width="1.5" stroke-linecap="round" stroke-linejoin="round"/>
<path d="M14.9732 9.8584L13.0284 11.8032" stroke="black" stroke-width="1.5" stroke-linecap="round" stroke-linejoin="round"/>
<path d="M13.0284 9.8584L14.9732 11.8032" stroke="black" stroke-width="1.5" stroke-linecap="round" stroke-linejoin="round"/>
</svg>
