<svg width="24" height="24" viewBox="0 0 24 24" fill="none" xmlns="http://www.w3.org/2000/svg">
<path d="M8.5 13V10V9.5C8.5 7.567 10.067 6 12 6V6C13.933 6 15.5 7.567 15.5 9.5V10" stroke="black" stroke-width="1.5" stroke-linecap="round" stroke-linejoin="round"/>
<path d="M8.5 11H10.379C11.551 11 12.5 11.95 12.5 13.121V13.121C12.5 13.684 12.277 14.223 11.879 14.621L10.5 16" stroke="black" stroke-width="1.5" stroke-linecap="round" stroke-linejoin="round"/>
<path fill-rule="evenodd" clip-rule="evenodd" d="M5.5 10V17.069C5.5 19.24 7.26 21 9.431 21V21C11.235 21 12.807 19.772 13.245 18.023V18.023C13.411 17.36 13.79 16.769 14.324 16.342L16.158 14.874C17.638 13.69 18.5 11.896 18.5 10V10V9.5C18.5 5.91 15.59 3 12 3V3C8.41 3 5.5 5.91 5.5 9.5V10Z" stroke="black" stroke-width="1.5" stroke-linecap="round" stroke-linejoin="round"/>
</svg>
