<svg width="24" height="24" viewBox="0 0 24 24" fill="none" xmlns="http://www.w3.org/2000/svg">
<path fill-rule="evenodd" clip-rule="evenodd" d="M15.3 17.3L18.8 13.8C18.9825 13.6084 19.2354 13.5 19.5 13.5C19.7646 13.5 20.0175 13.6084 20.2 13.8V13.8L21.7 15.3C21.8916 15.4825 22 15.7354 22 16C22 16.2646 21.8916 16.5175 21.7 16.7V16.7L18.2 20.2C18.0219 20.3978 17.766 20.5074 17.5 20.5H15V18C15.0117 17.738 15.1183 17.4892 15.3 17.3Z" stroke="black" stroke-width="1.5" stroke-linecap="round" stroke-linejoin="round"/>
<path d="M12 21H8C5.23858 21 3 18.7614 3 16V8C3 5.23858 5.23858 3 8 3H16C18.7614 3 21 5.23858 21 8V11" stroke="black" stroke-width="1.5" stroke-linecap="round" stroke-linejoin="round"/>
<path d="M11.549 12.0001C11.549 12.0277 11.5266 12.05 11.499 12.05C11.4714 12.05 11.449 12.0276 11.449 12C11.449 11.9724 11.4713 11.95 11.4989 11.95C11.5122 11.95 11.525 11.9553 11.5343 11.9646C11.5437 11.974 11.549 11.9868 11.549 12.0001" stroke="black" stroke-width="1.5" stroke-linecap="round" stroke-linejoin="round"/>
<path d="M15.049 12.0001C15.049 12.0277 15.0266 12.05 14.999 12.05C14.9714 12.05 14.949 12.0276 14.949 12C14.949 11.9724 14.9713 11.95 14.9989 11.95C15.0122 11.95 15.025 11.9553 15.0343 11.9646C15.0437 11.974 15.049 11.9868 15.049 12.0001" stroke="black" stroke-width="1.5" stroke-linecap="round" stroke-linejoin="round"/>
<path d="M8.04899 12.0001C8.04896 12.0277 8.02657 12.05 7.99898 12.05C7.97138 12.05 7.94901 12.0276 7.94899 12C7.94898 11.9724 7.97133 11.95 7.99892 11.95C8.01221 11.95 8.02495 11.9552 8.03434 11.9646C8.04374 11.974 8.04901 11.9868 8.04899 12.0001" stroke="black" stroke-width="1.5" stroke-linecap="round" stroke-linejoin="round"/>
</svg>
