<svg width="24" height="24" viewBox="0 0 24 24" fill="none" xmlns="http://www.w3.org/2000/svg">
<path fill-rule="evenodd" clip-rule="evenodd" d="M16.0017 21.0036H7.99834C5.23576 21.0036 2.99625 18.7641 2.99625 16.0015V7.99818C2.99625 5.2356 5.23576 2.99609 7.99834 2.99609H16.0017C18.7642 2.99609 21.0038 5.2356 21.0038 7.99818V16.0015C21.0038 18.7641 18.7642 21.0036 16.0017 21.0036Z" stroke="black" stroke-width="1.5" stroke-linecap="round" stroke-linejoin="round"/>
<path fill-rule="evenodd" clip-rule="evenodd" d="M14.0008 17.0025H11.9547V14.9564C11.9545 14.7465 12.0379 14.5452 12.1865 14.397L15.3515 11.232C15.4997 11.0835 15.701 11 15.9109 11C16.1208 11 16.322 11.0835 16.4703 11.232L17.7252 12.4869C17.8737 12.6352 17.9572 12.8365 17.9572 13.0463C17.9572 13.2562 17.8737 13.4575 17.7252 13.6057L14.5602 16.7707C14.4118 16.919 14.2106 17.0023 14.0008 17.0025V17.0025Z" stroke="black" stroke-width="1.5" stroke-linecap="round" stroke-linejoin="round"/>
<path d="M8.99875 14.0012H6.95262" stroke="black" stroke-width="1.5" stroke-linecap="round" stroke-linejoin="round"/>
<path d="M10.9996 10.9992H6.95262" stroke="black" stroke-width="1.5" stroke-linecap="round" stroke-linejoin="round"/>
<path d="M13.0004 7.99826H6.95262" stroke="black" stroke-width="1.5" stroke-linecap="round" stroke-linejoin="round"/>
</svg>
