<svg width="24" height="24" viewBox="0 0 24 24" fill="none" xmlns="http://www.w3.org/2000/svg">
<rect x="3" y="3" width="18" height="18" rx="5" stroke="black" stroke-width="1.5" stroke-linecap="round" stroke-linejoin="round"/>
<path d="M7 15.5L11 8.5" stroke="black" stroke-width="1.5" stroke-linecap="round" stroke-linejoin="round"/>
<path d="M14.05 15.5001C14.05 15.5277 14.0276 15.55 14 15.55C13.9724 15.55 13.95 15.5276 13.95 15.5C13.95 15.4724 13.9723 15.45 13.9999 15.45C14.0132 15.45 14.026 15.4553 14.0354 15.4646C14.0447 15.474 14.05 15.4868 14.05 15.5001" stroke="black" stroke-width="1.5" stroke-linecap="round" stroke-linejoin="round"/>
<path d="M17.0501 15.5001C17.05 15.5277 17.0277 15.55 17.0001 15.55C16.9725 15.55 16.9501 15.5276 16.9501 15.5C16.9501 15.4724 16.9724 15.45 17 15.45C17.0133 15.45 17.026 15.4552 17.0354 15.4646C17.0448 15.474 17.0501 15.4868 17.0501 15.5001" stroke="black" stroke-width="1.5" stroke-linecap="round" stroke-linejoin="round"/>
<path d="M11.05 15.5001C11.05 15.5277 11.0276 15.55 11 15.55C10.9724 15.55 10.95 15.5276 10.95 15.5C10.95 15.4724 10.9723 15.45 10.9999 15.45C11.0132 15.45 11.026 15.4553 11.0354 15.4646C11.0447 15.474 11.05 15.4868 11.05 15.5001" stroke="black" stroke-width="1.5" stroke-linecap="round" stroke-linejoin="round"/>
</svg>
