<svg width="24" height="24" viewBox="0 0 24 24" fill="none" xmlns="http://www.w3.org/2000/svg">
<path d="M5.99743 14.0012H3.104" stroke="black" stroke-width="1.5" stroke-linecap="round" stroke-linejoin="round"/>
<path d="M10.9996 8.99923H2.99625" stroke="black" stroke-width="1.5" stroke-linecap="round" stroke-linejoin="round"/>
<path d="M16.0017 3.9963H3.104" stroke="black" stroke-width="1.5" stroke-linecap="round" stroke-linejoin="round"/>
<path fill-rule="evenodd" clip-rule="evenodd" d="M10.9996 16.8307C10.9996 16.3 11.2104 15.7911 11.5856 15.4159L16.3306 10.6709L16.4159 10.5856C16.791 10.2101 17.3 9.99902 17.8308 9.99902C18.3616 9.99902 18.8707 10.2097 19.246 10.5851L20.4175 11.7567C21.199 12.5381 21.1992 13.805 20.418 14.5868L20.3322 14.6726L15.5876 19.4172C15.2124 19.7925 14.7034 20.0033 14.1728 20.0033H12C11.4475 20.0033 10.9996 19.5554 10.9996 19.0029V16.8307Z" stroke="black" stroke-width="1.5" stroke-linecap="round" stroke-linejoin="round"/>
</svg>
