<svg width="24" height="24" viewBox="0 0 24 24" fill="none" xmlns="http://www.w3.org/2000/svg">
<path fill-rule="evenodd" clip-rule="evenodd" d="M12 21C16.9706 21 21 16.9706 21 12C21 7.02944 16.9706 3 12 3C7.02944 3 3 7.02944 3 12C3 16.9706 7.02944 21 12 21V21Z" stroke="black" stroke-width="1.5" stroke-linecap="round" stroke-linejoin="round"/>
<path d="M9.4 8L7 14" stroke="black" stroke-width="1.5" stroke-linecap="round" stroke-linejoin="round"/>
<path d="M14.05 14.0001C14.05 14.0277 14.0276 14.05 14 14.05C13.9724 14.05 13.95 14.0276 13.95 14C13.95 13.9725 13.9723 13.9501 13.9999 13.95C14.0132 13.95 14.0259 13.9552 14.0353 13.9646C14.0447 13.974 14.05 13.9868 14.05 14.0001" stroke="black" stroke-width="1.5" stroke-linecap="round" stroke-linejoin="round"/>
<path d="M17.05 14.0001C17.05 14.0277 17.0276 14.05 17 14.05C16.9724 14.05 16.95 14.0276 16.95 14C16.95 13.9724 16.9724 13.95 17 13.95C17.0133 13.95 17.026 13.9553 17.0354 13.9646C17.0448 13.974 17.0501 13.9868 17.0501 14.0001" stroke="black" stroke-width="1.5" stroke-linecap="round" stroke-linejoin="round"/>
<path d="M11.05 14.0001C11.05 14.0277 11.0276 14.05 11 14.05C10.9724 14.05 10.95 14.0276 10.95 14C10.95 13.9725 10.9723 13.9501 10.9999 13.95C11.0132 13.95 11.0259 13.9552 11.0353 13.9646C11.0447 13.974 11.05 13.9868 11.05 14.0001" stroke="black" stroke-width="1.5" stroke-linecap="round" stroke-linejoin="round"/>
</svg>
