<svg width="24" height="24" viewBox="0 0 24 24" fill="none" xmlns="http://www.w3.org/2000/svg">
<circle cx="12" cy="12" r="9.5" stroke="black" stroke-width="1.5" stroke-linecap="round" stroke-linejoin="round"/>
<path fill-rule="evenodd" clip-rule="evenodd" d="M14.6657 13.7071L17.7804 10.5922C18.0732 10.2994 18.0732 9.82455 17.7804 9.53167L16.4684 8.21967C16.1755 7.92678 15.7006 7.92678 15.4077 8.21967L12.293 11.3343C12.1054 11.5218 12 11.7762 12 12.0414V14H13.9586C14.2238 14 14.4782 13.8946 14.6657 13.7071Z" stroke="black" stroke-width="1.5" stroke-linecap="round" stroke-linejoin="round"/>
<path d="M9.05 14.0001C9.04997 14.0277 9.02758 14.05 8.99998 14.05C8.97238 14.05 8.95001 14.0276 8.95 14C8.94999 13.9724 8.97234 13.95 8.99994 13.95C9.01322 13.95 9.02596 13.9553 9.03536 13.9646C9.04475 13.974 9.05002 13.9868 9.05 14.0001" stroke="black" stroke-width="1.5" stroke-linecap="round" stroke-linejoin="round"/>
<path d="M6.05 14.0001C6.04997 14.0277 6.02758 14.05 5.99998 14.05C5.97238 14.05 5.95001 14.0276 5.95 14C5.94999 13.9724 5.97234 13.95 5.99994 13.95C6.01322 13.95 6.02596 13.9553 6.03536 13.9646C6.04475 13.974 6.05002 13.9868 6.05 14.0001" stroke="black" stroke-width="1.5" stroke-linecap="round" stroke-linejoin="round"/>
</svg>
