<svg width="24" height="24" viewBox="0 0 24 24" fill="none" xmlns="http://www.w3.org/2000/svg">
<circle cx="12" cy="11.9998" r="9.00375" stroke="black" stroke-width="1.5" stroke-linecap="round" stroke-linejoin="round"/>
<path fill-rule="evenodd" clip-rule="evenodd" d="M14.0461 16.0015H12V13.9554C11.9998 13.7455 12.0832 13.5442 12.2318 13.396L15.3968 10.2311C15.545 10.0825 15.7463 9.99902 15.9562 9.99902C16.166 9.99902 16.3673 10.0825 16.5156 10.2311L17.7705 11.486C17.919 11.6342 18.0025 11.8355 18.0025 12.0454C18.0025 12.2552 17.919 12.4565 17.7705 12.6048L14.6055 15.7697C14.4571 15.918 14.2559 16.0014 14.0461 16.0015Z" stroke="black" stroke-width="1.5" stroke-linecap="round" stroke-linejoin="round"/>
<path d="M7.99834 15.0012H6.99792" stroke="black" stroke-width="1.5" stroke-linecap="round" stroke-linejoin="round"/>
<path d="M9.99917 12.0002H6.99792" stroke="black" stroke-width="1.5" stroke-linecap="round" stroke-linejoin="round"/>
<path d="M12 8.99923H6.99792" stroke="black" stroke-width="1.5" stroke-linecap="round" stroke-linejoin="round"/>
</svg>
