<svg width="24" height="24" viewBox="0 0 24 24" fill="none" xmlns="http://www.w3.org/2000/svg">
<path d="M17.551 19.561C17.088 19.883 16.587 20.165 16.045 20.389C15.04 20.806 13.999 21 12.974 21C8.843 21 5.444 17.879 5 13.866" stroke="black" stroke-width="1.5" stroke-linecap="round" stroke-linejoin="round"/>
<path d="M16.541 12.974V14.312C16.541 15.544 17.539 16.541 18.77 16.541C20.002 16.541 20.999 15.543 20.999 14.312V12.974C20.999 8.843 17.878 5.444 13.865 5" stroke="black" stroke-width="1.5" stroke-linecap="round" stroke-linejoin="round"/>
<path d="M6.75 11.5C4.127 11.5 2 9.373 2 6.75C2 4.127 4.127 2 6.75 2C9.373 2 11.5 4.127 11.5 6.75C11.5 9.373 9.373 11.5 6.75 11.5" stroke="black" stroke-width="1.5" stroke-linecap="round" stroke-linejoin="round"/>
<path d="M5.41 5.41003L8.09 8.09003" stroke="black" stroke-width="1.5" stroke-linecap="round" stroke-linejoin="round"/>
<path d="M5.41 8.09003L8.09 5.41003" stroke="black" stroke-width="1.5" stroke-linecap="round" stroke-linejoin="round"/>
<path d="M9.53299 13.866C9.93099 15.402 11.314 16.541 12.974 16.541C14.944 16.541 16.541 14.944 16.541 12.974C16.541 11.314 15.401 9.93096 13.866 9.53296" stroke="black" stroke-width="1.5" stroke-linecap="round" stroke-linejoin="round"/>
</svg>
