<svg width="24" height="24" viewBox="0 0 24 24" fill="none" xmlns="http://www.w3.org/2000/svg">
<path d="M7 9L10.0813 11.3758C11.1377 12.1903 12.6051 12.2095 13.6824 11.4227L17 9" stroke="black" stroke-width="1.5" stroke-linecap="round" stroke-linejoin="round"/>
<path d="M12 20H8C5.23858 20 3 17.7614 3 15V9C3 6.23858 5.23858 4 8 4H16C18.7614 4 21 6.23858 21 9V11" stroke="black" stroke-width="1.5" stroke-linecap="round" stroke-linejoin="round"/>
<path d="M18 21C15.7909 21 14 19.2091 14 17C14 14.7909 15.7909 13 18 13C20.2091 13 22 14.7909 22 17C21.9998 19.2091 20.2091 20.9998 18 21" stroke="black" stroke-width="1.5" stroke-linecap="round" stroke-linejoin="round"/>
<path d="M19.2944 17.0001C19.2944 17.0246 19.2745 17.0445 19.25 17.0444C19.2255 17.0444 19.2056 17.0245 19.2056 17C19.2055 16.9755 19.2254 16.9556 19.2499 16.9556C19.2617 16.9555 19.2731 16.9602 19.2814 16.9686C19.2898 16.9769 19.2945 16.9883 19.2944 17.0001" stroke="black" stroke-width="1.5" stroke-linecap="round" stroke-linejoin="round"/>
<path d="M16.7944 17.0001C16.7944 17.0246 16.7745 17.0445 16.75 17.0444C16.7255 17.0444 16.7056 17.0245 16.7056 17C16.7055 16.9755 16.7254 16.9556 16.7499 16.9556C16.7617 16.9555 16.7731 16.9602 16.7814 16.9686C16.7898 16.9769 16.7945 16.9883 16.7944 17.0001" stroke="black" stroke-width="1.5" stroke-linecap="round" stroke-linejoin="round"/>
</svg>
