<svg width="24" height="24" viewBox="0 0 24 24" fill="none" xmlns="http://www.w3.org/2000/svg">
<path d="M12 20.0032H7.99833C5.23576 20.0032 2.99625 17.7637 2.99625 15.0011V7.99818C2.99625 5.2356 5.23576 2.99609 7.99833 2.99609H16.0017C18.7642 2.99609 21.0037 5.2356 21.0037 7.99818V10.9994" stroke="black" stroke-width="1.5" stroke-linecap="round" stroke-linejoin="round"/>
<path d="M6.99791 8.99902L10.0805 11.3758C11.1373 12.1907 12.6053 12.2099 13.6831 11.4228L17.0021 8.99902" stroke="black" stroke-width="1.5" stroke-linecap="round" stroke-linejoin="round"/>
<path fill-rule="evenodd" clip-rule="evenodd" d="M17.8044 15.0745L18.0025 15.2756L18.2006 15.0745C18.5617 14.7076 19.055 14.501 19.5698 14.501C20.0847 14.501 20.578 14.7076 20.9391 15.0745V15.0745C21.6922 15.8484 21.6922 17.0813 20.9391 17.8552L19.4001 19.418C19.0315 19.7925 18.528 20.0033 18.0025 20.0033C17.4771 20.0033 16.9736 19.7925 16.605 19.418L15.0659 17.8553C14.3128 17.0813 14.3128 15.8485 15.0659 15.0745V15.0745C15.427 14.7076 15.9203 14.501 16.4351 14.501C16.95 14.501 17.4433 14.7076 17.8044 15.0745V15.0745Z" stroke="black" stroke-width="1.5" stroke-linecap="round" stroke-linejoin="round"/>
</svg>
