<svg width="24" height="24" viewBox="0 0 24 24" fill="none" xmlns="http://www.w3.org/2000/svg">
<path fill-rule="evenodd" clip-rule="evenodd" d="M15.3 16.4H8.7C7.485 16.4 6.5 15.416 6.5 14.2V9.79998C6.5 8.58498 7.484 7.59998 8.7 7.59998H15.3C16.515 7.59998 17.5 8.58498 17.5 9.79998V14.2C17.5 15.415 16.515 16.4 15.3 16.4Z" stroke="black" stroke-width="1.5" stroke-linecap="round" stroke-linejoin="round"/>
<path d="M16.855 8.245L13.375 11.725V11.725C12.616 12.484 11.384 12.484 10.625 11.725V11.725L7.145 8.245" stroke="black" stroke-width="1.5" stroke-linecap="round" stroke-linejoin="round"/>
<path d="M10.625 11.725L6.896 15.454" stroke="black" stroke-width="1.5" stroke-linecap="round" stroke-linejoin="round"/>
<path d="M13.375 11.725L17.104 15.454" stroke="black" stroke-width="1.5" stroke-linecap="round" stroke-linejoin="round"/>
<path fill-rule="evenodd" clip-rule="evenodd" d="M18 21H6C4.343 21 3 19.657 3 18V6C3 4.343 4.343 3 6 3H18C19.657 3 21 4.343 21 6V18C21 19.657 19.657 21 18 21Z" stroke="black" stroke-width="1.5" stroke-linecap="round" stroke-linejoin="round"/>
</svg>
