<svg width="24" height="24" viewBox="0 0 24 24" fill="none" xmlns="http://www.w3.org/2000/svg">
<path fill-rule="evenodd" clip-rule="evenodd" d="M15.6015 21.0036H8.3985C5.41492 21.0036 2.99625 18.5849 2.99625 15.6013V8.39834C2.99625 5.41476 5.41492 2.99609 8.3985 2.99609H15.6015C18.5851 2.99609 21.0037 5.41476 21.0037 8.39834V15.6013C21.0037 18.5849 18.5851 21.0036 15.6015 21.0036Z" stroke="black" stroke-width="1.5" stroke-linecap="round" stroke-linejoin="round"/>
<path fill-rule="evenodd" clip-rule="evenodd" d="M11.8189 12.1915C11.3087 12.7508 9.75506 14.3134 8.31746 14.3134V14.3134H8.31246V14.3134C7.03505 14.3134 5.9995 13.2779 5.9995 12.0005C5.9995 10.723 7.03505 9.6875 8.31246 9.6875V9.6875H8.31746V9.6875C9.75806 9.6875 11.3117 11.2492 11.8189 11.8094L12 12.0005L11.8189 12.1915Z" stroke="black" stroke-width="1.5" stroke-linecap="round" stroke-linejoin="round"/>
<path fill-rule="evenodd" clip-rule="evenodd" d="M12.1811 12.1915C12.6913 12.7508 14.2449 14.3134 15.6825 14.3134V14.3134H15.6875V14.3134C16.965 14.3134 18.0005 13.2779 18.0005 12.0005C18.0005 10.723 16.965 9.6875 15.6875 9.6875V9.6875H15.6825V9.6875C14.2419 9.6875 12.6883 11.2492 12.1811 11.8094L12 12.0005L12.1811 12.1915Z" stroke="black" stroke-width="1.5" stroke-linecap="round" stroke-linejoin="round"/>
</svg>
