<svg width="24" height="24" viewBox="0 0 24 24" fill="none" xmlns="http://www.w3.org/2000/svg">
<path d="M16.0017 12.0002H21.0038" stroke="black" stroke-width="1.5" stroke-linecap="round" stroke-linejoin="round"/>
<path d="M19.0029 14.0012L21.0038 12.0003L19.0029 9.99951" stroke="black" stroke-width="1.5" stroke-linecap="round" stroke-linejoin="round"/>
<path d="M20.0033 17.0024V19.0032C20.0033 20.1087 19.108 21.0041 18.0025 21.0041H5.99751C4.89205 21.0041 3.99667 20.1087 3.99667 19.0032V4.99742C3.99667 3.89195 4.89205 2.99658 5.99751 2.99658H18.0025C19.108 2.99658 20.0033 3.89195 20.0033 4.99742V6.99825" stroke="black" stroke-width="1.5" stroke-linecap="round" stroke-linejoin="round"/>
<path d="M8.99874 11V13.0008" stroke="black" stroke-width="1.5" stroke-linecap="round" stroke-linejoin="round"/>
<path d="M3.99667 19.0002C3.99667 20.4879 5.56233 21.4553 6.89188 20.79L10.8935 18.7892C11.5718 18.449 12 17.7567 12 16.9984V2.99658" stroke="black" stroke-width="1.5" stroke-linecap="round" stroke-linejoin="round"/>
</svg>
