<svg width="24" height="24" viewBox="0 0 24 24" fill="none" xmlns="http://www.w3.org/2000/svg">
<path d="M12 21.0041H5.99749C4.89203 21.0041 3.99666 20.1087 3.99666 19.0032V4.99742C3.99666 3.89195 4.89203 2.99658 5.99749 2.99658H18.0025C19.108 2.99658 20.0033 3.89195 20.0033 4.99742V9.9995" stroke="black" stroke-width="1.5" stroke-linecap="round" stroke-linejoin="round"/>
<path d="M8.99874 11V13.0008" stroke="black" stroke-width="1.5" stroke-linecap="round" stroke-linejoin="round"/>
<path fill-rule="evenodd" clip-rule="evenodd" d="M3.99666 5.00019V19.001C3.99666 20.4886 5.56231 21.456 6.89186 20.7908L10.8935 18.7899C11.5718 18.4498 12 17.7575 12 16.9992V7.00102C12 6.24271 11.5718 5.55042 10.8935 5.21128L6.89186 3.21045C5.56231 2.54517 3.99666 3.51257 3.99666 5.00019Z" stroke="black" stroke-width="1.5" stroke-linecap="round" stroke-linejoin="round"/>
<path fill-rule="evenodd" clip-rule="evenodd" d="M22.0042 17.5024C22.0042 19.4402 20.4405 21.0039 18.5027 21.0039C16.5649 21.0039 15.0012 19.4402 15.0012 17.5024C15.0012 15.5646 16.5649 14.001 18.5027 14.001C20.4405 14.001 22.0042 15.5646 22.0042 17.5024Z" stroke="black" stroke-width="1.5" stroke-linecap="round" stroke-linejoin="round"/>
<path d="M16.0277 19.9779L20.9777 15.0278" stroke="black" stroke-width="1.5" stroke-linecap="round" stroke-linejoin="round"/>
</svg>
