<svg width="24" height="24" viewBox="0 0 24 24" fill="none" xmlns="http://www.w3.org/2000/svg">
<path fill-rule="evenodd" clip-rule="evenodd" d="M6.536 13.074C6.109 12.428 6.109 11.574 6.536 10.928C7.856 8.93298 9.928 7.33398 12 7.33398C14.072 7.33398 16.144 8.93298 17.464 10.927C17.892 11.573 17.892 12.428 17.464 13.073C16.143 15.068 14.072 16.666 12 16.666C9.928 16.668 7.856 15.069 6.536 13.074Z" stroke="black" stroke-width="1.5" stroke-linecap="round" stroke-linejoin="round"/>
<path d="M13.237 10.764C13.92 11.447 13.92 12.555 13.237 13.239C12.554 13.922 11.446 13.922 10.762 13.239C10.079 12.556 10.079 11.448 10.762 10.764C11.446 10.08 12.554 10.08 13.237 10.764" stroke="black" stroke-width="1.5" stroke-linecap="round" stroke-linejoin="round"/>
<path fill-rule="evenodd" clip-rule="evenodd" d="M19 21H5C3.895 21 3 20.105 3 19V5C3 3.895 3.895 3 5 3H19C20.105 3 21 3.895 21 5V19C21 20.105 20.105 21 19 21Z" stroke="black" stroke-width="1.5" stroke-linecap="round" stroke-linejoin="round"/>
</svg>
