<svg width="24" height="24" viewBox="0 0 24 24" fill="none" xmlns="http://www.w3.org/2000/svg">
<path d="M18.364 5.63604C21.8787 9.15076 21.8787 14.8492 18.364 18.3639C14.8493 21.8787 9.1508 21.8787 5.6361 18.3639C2.12138 14.8492 2.12138 9.15074 5.6361 5.63604C9.15082 2.12132 14.8493 2.12132 18.364 5.63604" stroke="black" stroke-width="1.5" stroke-linecap="round" stroke-linejoin="round"/>
<path fill-rule="evenodd" clip-rule="evenodd" d="M6.53601 13.073C6.10901 12.427 6.10901 11.573 6.53601 10.927C7.85601 8.93201 9.92801 7.33301 12 7.33301C14.072 7.33301 16.144 8.93201 17.464 10.926C17.892 11.572 17.892 12.427 17.464 13.072C16.143 15.067 14.072 16.665 12 16.665C9.92801 16.667 7.85601 15.068 6.53601 13.073V13.073Z" stroke="black" stroke-width="1.5" stroke-linecap="round" stroke-linejoin="round"/>
<path d="M13.2374 10.7626C13.9208 11.446 13.9208 12.554 13.2374 13.2374C12.554 13.9209 11.4459 13.9209 10.7625 13.2374C10.0791 12.554 10.0791 11.446 10.7625 10.7626C11.446 10.0791 12.554 10.0791 13.2374 10.7626" stroke="black" stroke-width="1.5" stroke-linecap="round" stroke-linejoin="round"/>
</svg>
