<svg width="24" height="24" viewBox="0 0 24 24" fill="none" xmlns="http://www.w3.org/2000/svg">
<path d="M13.8197 7.18108C14.8242 8.1855 14.8242 9.81518 13.8197 10.8216C12.8153 11.826 11.1857 11.826 10.1792 10.8216C9.17481 9.81718 9.17481 8.1875 10.1792 7.18108C11.1857 6.17466 12.8143 6.17466 13.8197 7.18108" stroke="black" stroke-width="1.5" stroke-linecap="round" stroke-linejoin="round"/>
<path fill-rule="evenodd" clip-rule="evenodd" d="M3.99666 8.99908C3.99666 8.43385 4.13171 7.87461 4.39282 7.3594V7.3594C5.74038 4.70429 8.71762 2.99658 12 2.99658C15.2824 2.99658 18.2596 4.70429 19.6072 7.3594V7.3594C19.8683 7.87461 20.0033 8.43385 20.0033 8.99908C20.0033 9.56432 19.8683 10.1236 19.6072 10.6388V10.6388C18.2596 13.2939 15.2824 15.0016 12 15.0016C8.71762 15.0016 5.74038 13.2939 4.39282 10.6388V10.6388C4.13171 10.1236 3.99666 9.56432 3.99666 8.99908Z" stroke="black" stroke-width="1.5" stroke-linecap="round" stroke-linejoin="round"/>
<path d="M12 21.004V15.0015" stroke="black" stroke-width="1.5" stroke-linecap="round" stroke-linejoin="round"/>
<path d="M14.501 18.5029L12 21.004L9.49895 18.5029" stroke="black" stroke-width="1.5" stroke-linecap="round" stroke-linejoin="round"/>
</svg>
