<svg width="24" height="24" viewBox="0 0 24 24" fill="none" xmlns="http://www.w3.org/2000/svg">
<path d="M12 11.9312C11.9818 11.9312 11.9643 11.9385 11.9515 11.9515C11.9388 11.9644 11.9317 11.982 11.932 12.0002C11.932 12.0282 11.9489 12.0535 11.9748 12.0641C12.0007 12.0747 12.0305 12.0686 12.0502 12.0487C12.0698 12.0287 12.0755 11.9989 12.0645 11.9731C12.0535 11.9473 12.028 11.9308 12 11.9312" stroke="black" stroke-width="1.5" stroke-linecap="round" stroke-linejoin="round"/>
<path fill-rule="evenodd" clip-rule="evenodd" d="M2.99625 12.0005C2.99699 11.3372 3.14962 10.6829 3.44244 10.0878V10.0878C5.09833 6.90499 8.41282 4.9335 12 4.99763C15.5867 4.93312 18.9011 6.90377 20.5576 10.0858V10.0858C21.1528 11.2915 21.1528 12.7056 20.5576 13.9113V13.9113C18.9022 17.0949 15.5876 19.0672 12 19.0035C8.41326 19.068 5.09888 17.0973 3.44244 13.9153V13.9153C3.14932 13.3196 2.99668 12.6645 2.99625 12.0005Z" stroke="black" stroke-width="1.5" stroke-linecap="round" stroke-linejoin="round"/>
<path d="M15.3694 11.9312C15.3313 11.9312 15.3004 11.9621 15.3004 12.0002C15.3004 12.0383 15.3313 12.0692 15.3694 12.0692C15.4075 12.0692 15.4384 12.0383 15.4384 12.0002C15.4384 11.9621 15.4075 11.9312 15.3694 11.9312" stroke="black" stroke-width="1.5" stroke-linecap="round" stroke-linejoin="round"/>
<path d="M8.6296 11.9312C8.61138 11.9312 8.59392 11.9385 8.58114 11.9515C8.56835 11.9644 8.5613 11.982 8.56157 12.0002C8.56157 12.0282 8.5785 12.0535 8.60442 12.0641C8.63033 12.0747 8.6601 12.0686 8.67976 12.0487C8.69942 12.0287 8.70508 11.9989 8.69408 11.9731C8.68308 11.9473 8.6576 11.9308 8.6296 11.9312" stroke="black" stroke-width="1.5" stroke-linecap="round" stroke-linejoin="round"/>
<path d="M11.931 8.63107C11.931 8.65899 11.9478 8.68416 11.9736 8.69484C11.9994 8.70553 12.0291 8.69962 12.0488 8.67988C12.0686 8.66014 12.0745 8.63044 12.0638 8.60465C12.0531 8.57886 12.0279 8.56204 12 8.56204C11.9817 8.56204 11.9641 8.56931 11.9512 8.58226C11.9382 8.5952 11.931 8.61276 11.931 8.63107" stroke="black" stroke-width="1.5" stroke-linecap="round" stroke-linejoin="round"/>
<path d="M11.931 15.3703C11.931 15.3886 11.9383 15.406 11.9512 15.4188C11.9642 15.4316 11.9818 15.4386 12 15.4384C12.028 15.4384 12.0532 15.4214 12.0639 15.3955C12.0745 15.3696 12.0684 15.3398 12.0484 15.3202C12.0285 15.3005 11.9986 15.2949 11.9729 15.3059C11.9471 15.3169 11.9306 15.3423 11.931 15.3703" stroke="black" stroke-width="1.5" stroke-linecap="round" stroke-linejoin="round"/>
</svg>
