<svg width="24" height="24" viewBox="0 0 24 24" fill="none" xmlns="http://www.w3.org/2000/svg">
<path fill-rule="evenodd" clip-rule="evenodd" d="M2.99625 12.0005C2.99714 11.3372 3.14976 10.6829 3.44243 10.0877V10.0877C5.09852 6.90514 8.41289 4.93373 12 4.9976C15.5871 4.93373 18.9015 6.90514 20.5576 10.0877V10.0877C21.1525 11.2935 21.1525 12.7075 20.5576 13.9133V13.9133C18.9015 17.0959 15.5871 19.0673 12 19.0034C8.41289 19.0673 5.09852 17.0959 3.44243 13.9133V13.9133C3.14976 13.3181 2.99714 12.6638 2.99625 12.0005Z" stroke="black" stroke-width="1.5" stroke-linecap="round" stroke-linejoin="round"/>
<path d="M15.0012 12.0003C15.0012 13.6578 13.6575 15.0015 12 15.0015C10.3425 15.0015 8.99875 13.6578 8.99875 12.0003C8.99875 10.3427 10.3425 8.99902 12 8.99902" stroke="black" stroke-width="1.5" stroke-linecap="round" stroke-linejoin="round"/>
</svg>
