<svg width="24" height="24" viewBox="0 0 24 24" fill="none" xmlns="http://www.w3.org/2000/svg">
<path d="M13.7707 11.8261L14.7712 10.8257C15.2012 11.837 15.0441 13.0024 14.3617 13.8638C13.6792 14.7251 12.5806 15.1447 11.4978 14.9574" stroke="black" stroke-width="1.5" stroke-linecap="round" stroke-linejoin="round"/>
<path d="M10.2293 12.173L9.22885 13.1734C8.78424 12.1329 8.96255 10.9309 9.69005 10.0643C10.4175 9.19773 11.5706 8.81395 12.6723 9.07166" stroke="black" stroke-width="1.5" stroke-linecap="round" stroke-linejoin="round"/>
<path fill-rule="evenodd" clip-rule="evenodd" d="M2.99625 12C2.99713 11.3367 3.14975 10.6825 3.44244 10.0872V10.0872C5.09851 6.90464 8.41289 4.93322 12 4.99711C15.5871 4.93322 18.9015 6.90464 20.5576 10.0872V10.0872C21.1525 11.293 21.1525 12.707 20.5576 13.9128V13.9128C18.9015 17.0954 15.5871 19.0668 12 19.0029C8.41289 19.0668 5.09851 17.0954 3.44244 13.9128V13.9128C3.14975 13.3176 2.99713 12.6633 2.99625 12Z" stroke="black" stroke-width="1.5" stroke-linecap="round" stroke-linejoin="round"/>
</svg>
