<svg width="24" height="24" viewBox="0 0 24 24" fill="none" xmlns="http://www.w3.org/2000/svg">
<path fill-rule="evenodd" clip-rule="evenodd" d="M5.99777 12.0005C5.99826 11.5583 6.10001 11.1221 6.29522 10.7254V10.7254C7.39911 8.6036 9.60869 7.28933 12 7.33208C14.3911 7.28907 16.6006 8.60279 17.7049 10.724V10.724C18.1017 11.5278 18.1017 12.4705 17.7049 13.2743V13.2743C16.6014 15.3966 14.3917 16.7114 12 16.6689C9.60899 16.712 7.39949 15.3983 6.29522 13.277V13.277C6.09981 12.8799 5.99805 12.4432 5.99777 12.0005Z" stroke="black" stroke-width="1.5" stroke-linecap="round" stroke-linejoin="round"/>
<path fill-rule="evenodd" clip-rule="evenodd" d="M16.0017 21.0036H7.99833C5.23576 21.0036 2.99625 18.7641 2.99625 16.0015V7.99818C2.99625 5.2356 5.23576 2.99609 7.99833 2.99609H16.0017C18.7642 2.99609 21.0037 5.2356 21.0037 7.99818V16.0015C21.0037 18.7641 18.7642 21.0036 16.0017 21.0036Z" stroke="black" stroke-width="1.5" stroke-linecap="round" stroke-linejoin="round"/>
<path d="M13.5006 12.0002H10.4994" stroke="black" stroke-width="1.5" stroke-linecap="round" stroke-linejoin="round"/>
</svg>
