<svg width="24" height="24" viewBox="0 0 24 24" fill="none" xmlns="http://www.w3.org/2000/svg">
<path d="M19.042 18.3753L5.62463 4.95801" stroke="black" stroke-width="1.5" stroke-linecap="round" stroke-linejoin="round"/>
<path d="M10.9637 10.2969C10.254 10.7255 9.88327 11.5484 10.0326 12.364C10.1819 13.1797 10.8202 13.8179 11.6358 13.9672C12.4514 14.1165 13.2743 13.7458 13.7029 13.0361" stroke="black" stroke-width="1.5" stroke-linecap="round" stroke-linejoin="round"/>
<path d="M8.9198 8.25293C7.8751 8.78398 6.99885 9.59536 6.38916 10.5962C5.87024 11.46 5.87024 12.5396 6.38916 13.4033C7.58931 15.3456 9.71694 16.5198 12 16.4998" stroke="black" stroke-width="1.5" stroke-linecap="round" stroke-linejoin="round"/>
<path d="M15.9109 15.2441C14.7716 16.0633 13.4032 16.5027 12 16.5" stroke="black" stroke-width="1.5" stroke-linecap="round" stroke-linejoin="round"/>
<path d="M17.6985 13.1987C18.1151 12.3732 18.0821 11.3923 17.6108 10.5967C16.4107 8.65442 14.2831 7.48026 12 7.50025" stroke="black" stroke-width="1.5" stroke-linecap="round" stroke-linejoin="round"/>
<circle cx="12" cy="12" r="9.5" stroke="black" stroke-width="1.5" stroke-linecap="round" stroke-linejoin="round"/>
</svg>
