<svg width="24" height="24" viewBox="0 0 24 24" fill="none" xmlns="http://www.w3.org/2000/svg">
<path d="M13.1795 10.8217C13.8308 11.473 13.8308 12.5294 13.1795 13.1807C12.5282 13.832 11.4718 13.832 10.8205 13.1807C10.1692 12.5294 10.1692 11.473 10.8205 10.8217C11.4718 10.1695 12.5282 10.1695 13.1795 10.8217" stroke="black" stroke-width="1.5" stroke-linecap="round" stroke-linejoin="round"/>
<path fill-rule="evenodd" clip-rule="evenodd" d="M6.99792 12.0005C6.99792 11.6343 7.08195 11.2722 7.24602 10.938V10.938C8.08737 9.21632 9.94815 8.10986 12 8.10986C14.0519 8.10986 15.9126 9.21632 16.754 10.938V10.938C16.918 11.2722 17.0021 11.6343 17.0021 12.0005C17.0021 12.3666 16.918 12.7288 16.754 13.0629V13.0629C15.9116 14.7836 14.0509 15.8911 12 15.8911C9.94815 15.8911 8.08737 14.7846 7.24602 13.0629V13.0629C7.08195 12.7288 6.99792 12.3666 6.99792 12.0005Z" stroke="black" stroke-width="1.5" stroke-linecap="round" stroke-linejoin="round"/>
<circle cx="12" cy="12.0003" r="9.00375" stroke="black" stroke-width="1.5" stroke-linecap="round" stroke-linejoin="round"/>
</svg>
