<svg width="24" height="24" viewBox="0 0 24 24" fill="none" xmlns="http://www.w3.org/2000/svg">
<path fill-rule="evenodd" clip-rule="evenodd" d="M6.07899 12.312C5.97399 12.118 5.97399 11.882 6.07899 11.689C7.33999 9.35501 9.66999 7.33301 12 7.33301C14.33 7.33301 16.66 9.35501 17.921 11.688C18.026 11.882 18.026 12.118 17.921 12.311C16.66 14.645 14.33 16.667 12 16.667C9.66999 16.667 7.33999 14.645 6.07899 12.312V12.312Z" stroke="black" stroke-width="1.5" stroke-linecap="round" stroke-linejoin="round"/>
<path d="M13.2374 10.7626C13.9208 11.446 13.9208 12.554 13.2374 13.2374C12.554 13.9209 11.4459 13.9209 10.7625 13.2374C10.0791 12.554 10.0791 11.446 10.7625 10.7626C11.446 10.0791 12.554 10.0791 13.2374 10.7626" stroke="black" stroke-width="1.5" stroke-linecap="round" stroke-linejoin="round"/>
<path d="M7.5 3H5.25C4.007 3 3 4.007 3 5.25V7.5" stroke="black" stroke-width="1.5" stroke-linecap="round" stroke-linejoin="round"/>
<path d="M3 16.5V18.75C3 19.993 4.007 21 5.25 21H7.5" stroke="black" stroke-width="1.5" stroke-linecap="round" stroke-linejoin="round"/>
<path d="M16.5 21H18.75C19.993 21 21 19.993 21 18.75V16.5" stroke="black" stroke-width="1.5" stroke-linecap="round" stroke-linejoin="round"/>
<path d="M21 7.5V5.25C21 4.007 19.993 3 18.75 3H16.5" stroke="black" stroke-width="1.5" stroke-linecap="round" stroke-linejoin="round"/>
</svg>
