<svg width="24" height="24" viewBox="0 0 24 24" fill="none" xmlns="http://www.w3.org/2000/svg">
<path d="M14.5581 13.5577C13.9186 14.6361 12.6763 15.2036 11.4425 14.9811C10.2087 14.7585 9.24295 13.7928 9.02042 12.559C8.79789 11.3251 9.36538 10.0829 10.4437 9.44336" stroke="black" stroke-width="1.5" stroke-linecap="round" stroke-linejoin="round"/>
<path d="M17.9966 16.9966C16.2718 18.3048 14.1648 19.0099 12 19.0033C8.4129 19.0672 5.09854 17.0957 3.44243 13.9132C2.84754 12.7074 2.84754 11.2934 3.44243 10.0876C4.27068 8.43821 5.59098 7.08695 7.22073 6.2207" stroke="black" stroke-width="1.5" stroke-linecap="round" stroke-linejoin="round"/>
<path d="M20.4273 14.135C20.4675 14.059 20.5197 13.9908 20.5576 13.9133C21.1525 12.7075 21.1525 11.2935 20.5576 10.0877C18.9015 6.90513 15.5871 4.93372 12 4.9976C11.7751 4.9976 11.5565 5.02761 11.3345 5.04224" stroke="black" stroke-width="1.5" stroke-linecap="round" stroke-linejoin="round"/>
<path d="M21.0037 20.0032L3.99666 2.99609" stroke="black" stroke-width="1.5" stroke-linecap="round" stroke-linejoin="round"/>
</svg>
