<svg width="24" height="24" viewBox="0 0 24 24" fill="none" xmlns="http://www.w3.org/2000/svg">
<path d="M10.1802 16.8191C9.17582 15.8147 9.17582 14.185 10.1802 13.1786C11.1847 12.1742 12.8143 12.1742 13.8208 13.1786C14.8252 14.183 14.8252 15.8127 13.8208 16.8191C12.8143 17.8255 11.1857 17.8255 10.1802 16.8191" stroke="black" stroke-width="1.5" stroke-linecap="round" stroke-linejoin="round"/>
<path fill-rule="evenodd" clip-rule="evenodd" d="M20.0033 15.0015C20.0033 15.5668 19.8683 16.126 19.6072 16.6412V16.6412C18.2596 19.2963 15.2824 21.004 12 21.004C8.71763 21.004 5.74039 19.2963 4.39283 16.6412V16.6412C4.13172 16.126 3.99667 15.5668 3.99667 15.0015C3.99667 14.4363 4.13172 13.8771 4.39283 13.3618V13.3618C5.74039 10.7067 8.71763 8.99902 12 8.99902C15.2824 8.99902 18.2596 10.7067 19.6072 13.3618V13.3618C19.8683 13.8771 20.0033 14.4363 20.0033 15.0015Z" stroke="black" stroke-width="1.5" stroke-linecap="round" stroke-linejoin="round"/>
<path d="M12 2.99658V8.99908" stroke="black" stroke-width="1.5" stroke-linecap="round" stroke-linejoin="round"/>
<path d="M9.49896 5.49762L12 2.99658L14.501 5.49762" stroke="black" stroke-width="1.5" stroke-linecap="round" stroke-linejoin="round"/>
</svg>
