<svg width="24" height="24" viewBox="0 0 24 24" fill="none" xmlns="http://www.w3.org/2000/svg">
<path fill-rule="evenodd" clip-rule="evenodd" d="M14.2509 14.5015H9.74906C9.33489 14.5015 8.99875 14.1873 8.99875 13.8012V11.7003C8.99875 11.3141 9.33489 11 9.74906 11H14.2509C14.6651 11 15.0012 11.3141 15.0012 11.7003V13.8012C15.0012 14.1873 14.6651 14.5015 14.2509 14.5015Z" stroke="black" stroke-width="1.5" stroke-linecap="round" stroke-linejoin="round"/>
<path fill-rule="evenodd" clip-rule="evenodd" d="M3.99667 15.6689V4.99742C3.99667 3.89195 4.89204 2.99658 5.9975 2.99658H18.0025C19.108 2.99658 20.0033 3.89195 20.0033 4.99742V15.6689C20.0033 16.3952 19.6092 17.0654 18.9739 17.4176L12.9714 20.752C12.3672 21.0881 11.6318 21.0881 11.0276 20.752L5.02509 17.4176C4.39083 17.0644 3.99667 16.3952 3.99667 15.6689Z" stroke="black" stroke-width="1.5" stroke-linecap="round" stroke-linejoin="round"/>
<path d="M10.1782 10.8579V9.32029C10.1782 8.31488 10.9946 7.49854 12 7.49854V7.49854C13.0054 7.49854 13.8218 8.31488 13.8218 9.32029V10.8579" stroke="black" stroke-width="1.5" stroke-linecap="round" stroke-linejoin="round"/>
</svg>
