<svg width="24" height="24" viewBox="0 0 24 24" fill="none" xmlns="http://www.w3.org/2000/svg">
<path fill-rule="evenodd" clip-rule="evenodd" d="M4 15.667V5C4 3.895 4.895 3 6 3H18C19.105 3 20 3.895 20 5V15.667C20 16.393 19.606 17.063 18.971 17.415L12.971 20.748C12.367 21.084 11.632 21.084 11.028 20.748L5.028 17.415C4.394 17.062 4 16.393 4 15.667Z" stroke="black" stroke-width="1.5" stroke-linecap="round" stroke-linejoin="round"/>
<path fill-rule="evenodd" clip-rule="evenodd" d="M10.802 13.909L11.632 13.473C11.863 13.352 12.139 13.352 12.37 13.473L13.2 13.909C13.468 14.05 13.791 14.026 14.035 13.848L14.345 13.623C14.589 13.446 14.711 13.145 14.661 12.848L14.502 11.924C14.458 11.667 14.543 11.404 14.73 11.222L15.401 10.568C15.617 10.357 15.695 10.042 15.602 9.755L15.484 9.391C15.391 9.104 15.143 8.895 14.844 8.851L13.916 8.716C13.658 8.679 13.435 8.516 13.319 8.282L12.904 7.441C12.769 7.171 12.493 7 12.191 7H11.808C11.506 7 11.23 7.171 11.097 7.442L10.682 8.283C10.566 8.517 10.343 8.68 10.085 8.717L9.158 8.851C8.859 8.895 8.611 9.104 8.518 9.391L8.4 9.755C8.307 10.042 8.384 10.357 8.601 10.568L9.272 11.222C9.459 11.404 9.544 11.667 9.5 11.924L9.341 12.848C9.29 13.146 9.413 13.446 9.657 13.623L9.967 13.848C10.211 14.025 10.534 14.049 10.802 13.909V13.909Z" stroke="black" stroke-width="1.5" stroke-linecap="round" stroke-linejoin="round"/>
</svg>
