<svg width="24" height="24" viewBox="0 0 24 24" fill="none" xmlns="http://www.w3.org/2000/svg">
<path d="M20.2534 17.252L17.7524 19.753L16.2518 18.2524" stroke="black" stroke-width="1.5" stroke-linecap="round" stroke-linejoin="round"/>
<path d="M13.0004 21.0036H7.99833C5.23576 21.0036 2.99625 18.7641 2.99625 16.0015V7.99818C2.99625 5.2356 5.23576 2.99609 7.99833 2.99609H16.0017C18.7642 2.99609 21.0037 5.2356 21.0037 7.99818V13.0003" stroke="black" stroke-width="1.5" stroke-linecap="round" stroke-linejoin="round"/>
<path fill-rule="evenodd" clip-rule="evenodd" d="M11.7738 9.40677L12 9.63646L12.2262 9.40674C12.6378 8.98611 13.2015 8.74902 13.79 8.74902C14.3786 8.74902 14.9423 8.98611 15.3539 9.40674V9.40674C16.2176 10.2892 16.2176 11.7001 15.3539 12.5826L13.2379 14.7311C12.9121 15.0641 12.4658 15.2517 12 15.2517C11.5341 15.2517 11.0878 15.0641 10.762 14.7311L8.64609 12.5826C7.7824 11.7002 7.7824 10.2892 8.64609 9.40678V9.40678C9.0577 8.98614 9.62141 8.74902 10.2099 8.74902C10.7985 8.74902 11.3622 8.98613 11.7738 9.40677V9.40677Z" stroke="black" stroke-width="1.5" stroke-linecap="round" stroke-linejoin="round"/>
</svg>
