<svg width="24" height="24" viewBox="0 0 24 24" fill="none" xmlns="http://www.w3.org/2000/svg">
<path fill-rule="evenodd" clip-rule="evenodd" d="M9.332 10.318L11.474 8.16101C12.681 6.94601 14.644 6.94601 15.851 8.16101V8.16101C17.05 9.36801 17.05 11.318 15.851 12.525L13.731 14.66C13.356 15.038 12.846 15.25 12.315 15.25H8.75V11.73C8.75 11.201 8.959 10.693 9.332 10.318V10.318Z" stroke="black" stroke-width="1.5" stroke-linecap="round" stroke-linejoin="round"/>
<path fill-rule="evenodd" clip-rule="evenodd" d="M21 7V17C21 19.209 19.209 21 17 21H7C4.791 21 3 19.209 3 17V7C3 4.791 4.791 3 7 3H17C19.209 3 21 4.791 21 7Z" stroke="black" stroke-width="1.5" stroke-linecap="round" stroke-linejoin="round"/>
<path d="M13.75 10.25L7.75 16.25" stroke="black" stroke-width="1.5" stroke-linecap="round" stroke-linejoin="round"/>
</svg>
