<svg width="24" height="24" viewBox="0 0 24 24" fill="none" xmlns="http://www.w3.org/2000/svg">
<path d="M18.3666 5.65151C21.9431 9.228 21.8821 15.0634 18.1836 18.5629C14.7691 21.7932 9.23084 21.7932 5.81641 18.5629C2.11787 15.0634 2.05685 9.228 5.63334 5.65151C9.1498 2.13504 14.8502 2.13504 18.3666 5.65151" stroke="black" stroke-width="1.5" stroke-linecap="round" stroke-linejoin="round"/>
<path fill-rule="evenodd" clip-rule="evenodd" d="M15.5645 8.89584L13.9928 7.32418C13.7847 7.1151 13.5016 6.99805 13.2075 6.99805H9.22084C8.60658 6.99805 8.10938 7.49525 8.10938 8.10951V15.8908C8.10938 16.505 8.60658 17.0022 9.22084 17.0022H14.7792C15.3934 17.0022 15.8906 16.505 15.8906 15.8908V9.68116C15.8906 9.38704 15.7736 9.10392 15.5645 8.89584Z" stroke="black" stroke-width="1.5" stroke-linecap="round" stroke-linejoin="round"/>
<path d="M15.8906 10.2494H13.2895C12.9304 10.2494 12.6393 9.95828 12.6393 9.59913V6.99805" stroke="black" stroke-width="1.5" stroke-linecap="round" stroke-linejoin="round"/>
</svg>
