<svg width="24" height="24" viewBox="0 0 24 24" fill="none" xmlns="http://www.w3.org/2000/svg">
<path d="M12 17.0022H13.5006" stroke="black" stroke-width="1.5" stroke-linecap="round" stroke-linejoin="round"/>
<path d="M10.4994 18.5031H12" stroke="black" stroke-width="1.5" stroke-linecap="round" stroke-linejoin="round"/>
<path d="M12 15.5012H10.4994" stroke="black" stroke-width="1.5" stroke-linecap="round" stroke-linejoin="round"/>
<path d="M12 8.49902V21.5044" stroke="black" stroke-width="1.5" stroke-linecap="round" stroke-linejoin="round"/>
<path d="M12 14.0012H13.5006" stroke="black" stroke-width="1.5" stroke-linecap="round" stroke-linejoin="round"/>
<path d="M12 12.5002H10.4994" stroke="black" stroke-width="1.5" stroke-linecap="round" stroke-linejoin="round"/>
<path d="M12 10.9992H13.5006" stroke="black" stroke-width="1.5" stroke-linecap="round" stroke-linejoin="round"/>
<path fill-rule="evenodd" clip-rule="evenodd" d="M12 8.49859V8.49859C11.3005 8.49859 10.6344 8.20009 10.1688 7.67814C9.70317 7.15618 9.48242 6.46036 9.56197 5.76546L9.78407 3.82565C9.87099 3.06812 10.5122 2.49621 11.2747 2.49609H12.7253C13.4878 2.49621 14.129 3.06812 14.2159 3.82565L14.438 5.76546C14.5176 6.46036 14.2968 7.15618 13.8312 7.67814C13.3656 8.20009 12.6994 8.49859 12 8.49859Z" stroke="black" stroke-width="1.5" stroke-linecap="round" stroke-linejoin="round"/>
<path d="M9.86211 3.49609H6.99791C4.78785 3.49609 2.99625 5.2877 2.99625 7.49776V17.5019C2.99625 19.712 4.78785 21.5036 6.99791 21.5036H17.0021C19.2121 21.5036 21.0037 19.712 21.0037 17.5019V7.49776C21.0037 5.2877 19.2121 3.49609 17.0021 3.49609H14.1389" stroke="black" stroke-width="1.5" stroke-linecap="round" stroke-linejoin="round"/>
</svg>
