<svg width="24" height="24" viewBox="0 0 24 24" fill="none" xmlns="http://www.w3.org/2000/svg">
<path fill-rule="evenodd" clip-rule="evenodd" d="M15.6015 8.89884L14.0008 7.29817C13.8007 7.09809 13.5006 6.99805 13.2005 6.99805H9.19883C8.59858 6.99805 8.09837 7.49826 8.09837 8.09851V15.9018C8.09837 16.502 8.59858 17.0022 9.19883 17.0022H14.8012C15.4014 17.0022 15.9016 16.502 15.9016 15.9018V9.69917C15.9016 9.39905 15.8016 9.09892 15.6015 8.89884Z" stroke="black" stroke-width="1.5" stroke-linecap="round" stroke-linejoin="round"/>
<path fill-rule="evenodd" clip-rule="evenodd" d="M17.0021 21.0041H6.99792C4.797 21.0041 2.99625 19.2033 2.99625 17.0024V6.99825C2.99625 4.79733 4.797 2.99658 6.99792 2.99658H17.0021C19.203 2.99658 21.0037 4.79733 21.0037 6.99825V17.0024C21.0037 19.2033 19.203 21.0041 17.0021 21.0041Z" stroke="black" stroke-width="1.5" stroke-linecap="round" stroke-linejoin="round"/>
</svg>
