<svg width="24" height="24" viewBox="0 0 24 24" fill="none" xmlns="http://www.w3.org/2000/svg">
<path fill-rule="evenodd" clip-rule="evenodd" d="M16.0017 14.3191V8.10951C16.0018 7.81469 15.8847 7.5319 15.6763 7.32343C15.4678 7.11496 15.185 6.99791 14.8902 6.99805H9.10978C8.81496 6.99791 8.53218 7.11496 8.32371 7.32343C8.11524 7.5319 7.99818 7.81469 7.99832 8.10951V15.8908C7.99818 16.1856 8.11524 16.4684 8.32371 16.6768C8.53218 16.8853 8.81496 17.0024 9.10978 17.0022H13.3185C13.6133 17.0022 13.8959 16.8849 14.1039 16.6761L15.6755 15.1044C15.8843 14.8964 16.0017 14.6138 16.0017 14.3191Z" stroke="black" stroke-width="1.5" stroke-linecap="round" stroke-linejoin="round"/>
<path d="M12.4502 17.0027V14.1615C12.4502 13.7692 12.7682 13.4512 13.1605 13.4512H16.0017" stroke="black" stroke-width="1.5" stroke-linecap="round" stroke-linejoin="round"/>
<circle cx="12" cy="11.9998" r="9.00375" stroke="black" stroke-width="1.5" stroke-linecap="round" stroke-linejoin="round"/>
</svg>
