<svg width="24" height="24" viewBox="0 0 24 24" fill="none" xmlns="http://www.w3.org/2000/svg">
<path d="M16.5 12C14.015 12 12 9.985 12 7.5C12 5.066 14.07 2.998 16.503 3C18.987 3.002 21 5.016 21 7.5C21 9.985 18.986 12 16.5 12" stroke="black" stroke-width="1.5" stroke-linecap="round" stroke-linejoin="round"/>
<path d="M17.693 6.30688L15.307 8.69288" stroke="black" stroke-width="1.5" stroke-linecap="round" stroke-linejoin="round"/>
<path d="M17.694 8.69411L15.308 6.30811" stroke="black" stroke-width="1.5" stroke-linecap="round" stroke-linejoin="round"/>
<path d="M12.288 6H4.556C3.697 6 3 6.697 3 7.556V9.903C3 10.385 3.224 10.839 3.605 11.135L7.198 13.907V19.443C7.198 20.599 8.414 21.352 9.449 20.834L11.941 19.588C12.468 19.325 12.801 18.785 12.801 18.197V13.907" stroke="black" stroke-width="1.5" stroke-linecap="round" stroke-linejoin="round"/>
<path d="M12.8 13.9101L15.44 11.8701" stroke="black" stroke-width="1.5" stroke-linecap="round" stroke-linejoin="round"/>
</svg>
