<svg width="24" height="24" viewBox="0 0 24 24" fill="none" xmlns="http://www.w3.org/2000/svg">
<path fill-rule="evenodd" clip-rule="evenodd" d="M10.1982 12.8337V16.2511C10.1982 16.9944 10.9806 17.4786 11.6458 17.1454L13.2485 16.3441C13.5876 16.175 13.8017 15.8279 13.8017 15.4497V12.8337L16.1127 11.0509C16.3578 10.8618 16.5019 10.5687 16.5019 10.2586V8.74895C16.5019 8.19672 16.0537 7.74854 15.5014 7.74854H8.49852C7.94629 7.74854 7.49811 8.19672 7.49811 8.74895V10.2586C7.49811 10.5687 7.64217 10.8608 7.88727 11.0509L10.1982 12.8337Z" stroke="black" stroke-width="1.5" stroke-linecap="round" stroke-linejoin="round"/>
<path d="M13.0004 21.0041H6.99791C4.78799 21.0041 2.99625 19.2123 2.99625 17.0024V6.99825C2.99625 4.78833 4.78799 2.99658 6.99791 2.99658H17.0021C19.212 2.99658 21.0037 4.78833 21.0037 6.99825V14.0012" stroke="black" stroke-width="1.5" stroke-linecap="round" stroke-linejoin="round"/>
<path d="M21.0037 18.2949L18.2946 21.0041L16.6679 19.3784" stroke="black" stroke-width="1.5" stroke-linecap="round" stroke-linejoin="round"/>
</svg>
