<svg width="24" height="24" viewBox="0 0 24 24" fill="none" xmlns="http://www.w3.org/2000/svg">
<path fill-rule="evenodd" clip-rule="evenodd" d="M10.1982 13.0837V16.5011C10.1982 17.2444 10.9806 17.7286 11.6459 17.3954L13.2485 16.5941C13.5877 16.425 13.8017 16.0779 13.8017 15.6997V13.0837L16.1127 11.3009C16.3578 11.1118 16.5019 10.8187 16.5019 10.5086V8.99895C16.5019 8.44672 16.0537 7.99854 15.5015 7.99854H8.49854C7.94631 7.99854 7.49812 8.44672 7.49812 8.99895V10.5086C7.49812 10.8187 7.64218 11.1108 7.88729 11.3009L10.1982 13.0837Z" stroke="black" stroke-width="1.5" stroke-linecap="round" stroke-linejoin="round"/>
<path fill-rule="evenodd" clip-rule="evenodd" d="M17.0021 21.0041H6.99792C4.788 21.0041 2.99625 19.2123 2.99625 17.0024V6.99825C2.99625 4.78833 4.788 2.99658 6.99792 2.99658H17.0021C19.212 2.99658 21.0037 4.78833 21.0037 6.99825V17.0024C21.0037 19.2123 19.212 21.0041 17.0021 21.0041Z" stroke="black" stroke-width="1.5" stroke-linecap="round" stroke-linejoin="round"/>
</svg>
