<svg width="24" height="24" viewBox="0 0 24 24" fill="none" xmlns="http://www.w3.org/2000/svg">
<path d="M20.0033 5.99742V4.997C20.0033 4.44477 19.5551 3.99658 19.0029 3.99658H4.99708C4.44485 3.99658 3.99667 4.44477 3.99667 4.997V7.58408C3.99667 7.84919 4.10171 8.10429 4.28979 8.29137L9.49896 13.5005V19.7521C9.49896 20.5655 10.2633 21.1627 11.0526 20.9656L13.5536 20.3404C14.1099 20.2013 14.501 19.7011 14.501 19.1269V16.977" stroke="black" stroke-width="1.5" stroke-linecap="round" stroke-linejoin="round"/>
<path fill-rule="evenodd" clip-rule="evenodd" d="M17.5023 9.6408C17.7704 9.33868 18.2326 8.99854 18.9399 8.99854C20.1734 8.99854 21.0037 10.116 21.0037 11.1574C21.0027 13.3333 18.1946 15.001 17.5023 15.001C16.81 15.001 14.0008 13.3333 14.0008 11.1574C14.0008 10.116 14.8292 8.99854 16.0647 8.99854C16.77 8.99854 17.2332 9.33868 17.5023 9.6408Z" stroke="black" stroke-width="1.5" stroke-linecap="round" stroke-linejoin="round"/>
</svg>
