<svg width="24" height="24" viewBox="0 0 24 24" fill="none" xmlns="http://www.w3.org/2000/svg">
<path d="M14.501 18.0024V19.1269C14.501 19.7011 14.1099 20.2013 13.5536 20.3404L11.0526 20.9656C10.2633 21.1627 9.49895 20.5655 9.49895 19.7521V13.5005L4.28978 8.29137C4.1017 8.10429 3.99666 7.84919 3.99666 7.58408V4.997C3.99666 4.44477 4.44484 3.99658 4.99707 3.99658H19.0029C19.5551 3.99658 20.0033 4.44477 20.0033 4.997V5.99742" stroke="black" stroke-width="1.5" stroke-linecap="round" stroke-linejoin="round"/>
<path fill-rule="evenodd" clip-rule="evenodd" d="M17.1151 15.2681L21.3849 10.9994C21.695 10.6892 21.695 10.186 21.3849 9.87689L20.1254 8.61736C19.8153 8.30723 19.312 8.30723 19.0029 8.61736L14.7341 12.8861C14.5851 13.0352 14.501 13.2373 14.501 13.4474V15.5012H16.5539C16.765 15.5012 16.9661 15.4182 17.1151 15.2681Z" stroke="black" stroke-width="1.5" stroke-linecap="round" stroke-linejoin="round"/>
</svg>
