<svg width="24" height="24" viewBox="0 0 24 24" fill="none" xmlns="http://www.w3.org/2000/svg">
<path d="M20.9546 12.8993C20.984 12.6035 21 12.3037 21 12.0001C21.0113 8.25259 18.706 4.88781 15.2073 3.54505C11.7086 2.2023 7.74407 3.16085 5.24526 5.9537C2.74646 8.74656 2.23306 12.7928 3.95519 16.1213C5.67732 19.4497 9.27679 21.3679 13 20.9415" stroke="black" stroke-width="1.5" stroke-linecap="round" stroke-linejoin="round"/>
<path d="M20 17L17.5 19.5L16 18" stroke="black" stroke-width="1.5" stroke-linecap="round" stroke-linejoin="round"/>
<path fill-rule="evenodd" clip-rule="evenodd" d="M13.6013 13.0173V14.8054C13.6013 15.1842 13.3873 15.5305 13.0485 15.6999L11.6298 16.4092C11.3663 16.5409 11.0534 16.5268 10.8028 16.372C10.5522 16.2171 10.3997 15.9435 10.3997 15.6489V13.0173L8.38837 11.4623C8.14342 11.273 8.00001 10.9808 8 10.6712V9.35C8 8.88056 8.38056 8.5 8.85 8.5H15.15C15.6194 8.5 16 8.88056 16 9.35V10.6752C16 10.9852 15.8563 11.2776 15.6108 11.467L13.6013 13.0173Z" stroke="black" stroke-width="1.5" stroke-linecap="round" stroke-linejoin="round"/>
</svg>
