<svg width="24" height="24" viewBox="0 0 24 24" fill="none" xmlns="http://www.w3.org/2000/svg">
<path fill-rule="evenodd" clip-rule="evenodd" d="M10.3993 13.5189V16.112C10.3977 16.4209 10.5566 16.7085 10.8189 16.8717C11.0812 17.0349 11.4094 17.0503 11.6859 16.9123L13.1105 16.2C13.4134 16.0486 13.6042 15.7384 13.6027 15.3997V13.5189L15.6565 11.9342C15.8737 11.7667 16.0015 11.5083 16.0027 11.234V9.88839C16.0027 9.65235 15.9088 9.42598 15.7418 9.25916C15.5748 9.09234 15.3483 8.99876 15.1123 8.99902H8.8877C8.39652 8.99902 7.99833 9.39721 7.99833 9.88839V11.23C7.99969 11.5042 8.12739 11.7626 8.34448 11.9302L10.3993 13.5189Z" stroke="black" stroke-width="1.5" stroke-linecap="round" stroke-linejoin="round"/>
<circle cx="12" cy="11.9998" r="9.00375" stroke="black" stroke-width="1.5" stroke-linecap="round" stroke-linejoin="round"/>
</svg>
