<svg width="24" height="24" viewBox="0 0 24 24" fill="none" xmlns="http://www.w3.org/2000/svg">
<path d="M21.0037 7.99826H2.99625" stroke="black" stroke-width="1.5" stroke-linecap="round" stroke-linejoin="round"/>
<path d="M7.99833 13.0007H2.99625" stroke="black" stroke-width="1.5" stroke-linecap="round" stroke-linejoin="round"/>
<path d="M7.99833 18.0026H2.99625" stroke="black" stroke-width="1.5" stroke-linecap="round" stroke-linejoin="round"/>
<path d="M21.0037 2.9963H2.99625" stroke="black" stroke-width="1.5" stroke-linecap="round" stroke-linejoin="round"/>
<path fill-rule="evenodd" clip-rule="evenodd" d="M15.4014 17.5204V20.1135C15.3993 20.4226 15.558 20.7107 15.8205 20.874C16.083 21.0373 16.4116 21.0524 16.6879 20.9138L18.1125 20.2015C18.4158 20.0504 18.6067 19.74 18.6047 19.4012V17.5204L20.6586 15.9357C20.8758 15.7682 21.0035 15.5097 21.0047 15.2354V13.8899C21.0047 13.6538 20.9109 13.4274 20.7439 13.2606C20.5769 13.0938 20.3504 13.0002 20.1144 13.0005H13.8898C13.3986 13.0005 13.0004 13.3987 13.0004 13.8899V15.2314C13.0018 15.5057 13.1295 15.7641 13.3466 15.9317L15.4014 17.5204Z" stroke="black" stroke-width="1.5" stroke-linecap="round" stroke-linejoin="round"/>
</svg>
