<svg width="24" height="24" viewBox="0 0 24 24" fill="none" xmlns="http://www.w3.org/2000/svg">
<path fill-rule="evenodd" clip-rule="evenodd" d="M10.199 13.333V16.749C10.199 17.492 10.981 17.976 11.646 17.643L13.248 16.842C13.587 16.673 13.801 16.326 13.801 15.948V13.333L16.111 11.551C16.356 11.362 16.5 11.069 16.5 10.759V9.25C16.5 8.698 16.052 8.25 15.5 8.25H8.5C7.948 8.25 7.5 8.698 7.5 9.25V10.759C7.5 11.069 7.644 11.361 7.889 11.551L10.199 13.333Z" stroke="black" stroke-width="1.5" stroke-linecap="round" stroke-linejoin="round"/>
<path fill-rule="evenodd" clip-rule="evenodd" d="M12 21V21C7.029 21 3 16.971 3 12V12C3 7.029 7.029 3 12 3V3C16.971 3 21 7.029 21 12V12C21 16.971 16.971 21 12 21Z" stroke="black" stroke-width="1.5" stroke-linecap="round" stroke-linejoin="round"/>
</svg>
