<svg width="24" height="24" viewBox="0 0 24 24" fill="none" xmlns="http://www.w3.org/2000/svg">
<path d="M19.8563 13.0067C20.8375 13.9877 21.1311 15.4633 20.6001 16.7452C20.0692 18.0271 18.8183 18.863 17.4308 18.863C16.0432 18.863 14.7924 18.0271 14.2614 16.7452C13.7305 15.4633 14.0241 13.9877 15.0053 13.0067C16.3453 11.6683 18.5162 11.6683 19.8563 13.0067" stroke="black" stroke-width="1.5" stroke-linecap="round" stroke-linejoin="round"/>
<path d="M22.0042 20.0034L19.8553 17.8545" stroke="black" stroke-width="1.5" stroke-linecap="round" stroke-linejoin="round"/>
<path d="M21.0038 9.9995V5.99783C21.0038 4.34029 19.66 2.99658 18.0025 2.99658H5.9975C4.33996 2.99658 2.99625 4.34029 2.99625 5.99783V18.0028C2.99625 19.6604 4.33996 21.0041 5.9975 21.0041H13.5887" stroke="black" stroke-width="1.5" stroke-linecap="round" stroke-linejoin="round"/>
<path d="M8.99875 2.99658V21.0041" stroke="black" stroke-width="1.5" stroke-linecap="round" stroke-linejoin="round"/>
</svg>
