<svg width="24" height="24" viewBox="0 0 24 24" fill="none" xmlns="http://www.w3.org/2000/svg">
<path d="M18.0025 1.99609C20.2125 1.99609 22.0042 3.7877 22.0042 5.99776C22.0042 8.20782 20.2125 9.99943 18.0025 9.99943C15.7924 9.99943 14.0008 8.20782 14.0008 5.99776C14.0008 3.7877 15.7924 1.99609 18.0025 1.99609" stroke="black" stroke-width="1.5" stroke-linecap="round" stroke-linejoin="round"/>
<path d="M5.15115 17.8486C4.39684 16.7072 3.99532 15.3691 3.99666 14.001" stroke="black" stroke-width="1.5" stroke-linecap="round" stroke-linejoin="round"/>
<path d="M8.8887 7.88824C9.49329 7.42078 10.2354 7.16616 10.9996 7.16394" stroke="black" stroke-width="1.5" stroke-linecap="round" stroke-linejoin="round"/>
<path d="M7.49808 11.333V14.3343C7.49205 15.6654 8.24467 16.8837 9.43773 17.4741C10.6308 18.0644 12.0559 17.9237 13.1105 17.1114" stroke="black" stroke-width="1.5" stroke-linecap="round" stroke-linejoin="round"/>
<path d="M10.9996 10.9995V14.0008" stroke="black" stroke-width="1.5" stroke-linecap="round" stroke-linejoin="round"/>
<path d="M14.501 12V13.6677" stroke="black" stroke-width="1.5" stroke-linecap="round" stroke-linejoin="round"/>
<path d="M10.9996 3.99658C7.13199 3.99658 3.99667 7.13189 3.99667 10.9995" stroke="black" stroke-width="1.5" stroke-linecap="round" stroke-linejoin="round"/>
<path d="M18.0025 13.0005V14.0009V14.0009C18.0025 17.8685 14.8672 21.0038 10.9996 21.0038V21.0038C9.88019 21.0038 8.77729 20.7341 7.78424 20.2175" stroke="black" stroke-width="1.5" stroke-linecap="round" stroke-linejoin="round"/>
<path d="M18.9749 5.02539L17.0301 6.9702" stroke="black" stroke-width="1.5" stroke-linecap="round" stroke-linejoin="round"/>
<path d="M17.0301 5.02539L18.9749 6.9702" stroke="black" stroke-width="1.5" stroke-linecap="round" stroke-linejoin="round"/>
</svg>
