<svg width="24" height="24" viewBox="0 0 24 24" fill="none" xmlns="http://www.w3.org/2000/svg">
<path d="M12 10.499V13.5003" stroke="black" stroke-width="1.5" stroke-linecap="round" stroke-linejoin="round"/>
<path d="M9.37842 7.99858C10.5544 6.9578 12.2321 6.70507 13.6625 7.35323C15.0928 8.00139 16.0089 9.42946 16.0017 10.9998V13.0007" stroke="black" stroke-width="1.5" stroke-linecap="round" stroke-linejoin="round"/>
<path d="M7.99827 11V13.0008C7.99106 14.5712 8.90713 15.9993 10.3375 16.6474C11.7679 17.2956 13.4456 17.0429 14.6216 16.0021" stroke="black" stroke-width="1.5" stroke-linecap="round" stroke-linejoin="round"/>
<path d="M18.9239 6.99805C19.6309 8.21313 20.0033 9.59388 20.0033 10.9997V13.0005C20.0068 15.8611 18.4814 18.5056 16.0034 19.9347C13.5254 21.3639 10.4726 21.36 7.99832 19.9244" stroke="black" stroke-width="1.5" stroke-linecap="round" stroke-linejoin="round"/>
<path d="M16.0016 4.07553C13.5273 2.63997 10.4745 2.63604 7.99654 4.06523C5.51854 5.49441 3.99315 8.13882 3.99665 10.9994V13.0002C3.99665 14.4061 4.36904 15.7868 5.0761 17.0019" stroke="black" stroke-width="1.5" stroke-linecap="round" stroke-linejoin="round"/>
</svg>
