<svg width="24" height="24" viewBox="0 0 24 24" fill="none" xmlns="http://www.w3.org/2000/svg">
<path d="M18.8428 17.8428C18.3809 18.3826 17.8563 18.8655 17.2802 19.2814" stroke="black" stroke-width="1.5" stroke-linecap="round" stroke-linejoin="round"/>
<path d="M6.99791 4.51479C9.24115 3.01444 12.0394 2.60021 14.6211 3.38632" stroke="black" stroke-width="1.5" stroke-linecap="round" stroke-linejoin="round"/>
<path d="M17.6534 4.99707C18.9471 6.04437 19.9257 7.42942 20.4805 8.99874" stroke="black" stroke-width="1.5" stroke-linecap="round" stroke-linejoin="round"/>
<path d="M20.4805 15.0013C20.825 14.038 21.0019 13.0229 21.0037 12" stroke="black" stroke-width="1.5" stroke-linecap="round" stroke-linejoin="round"/>
<path d="M4.53388 6.99805C2.67308 9.75427 2.48771 13.3131 4.05208 16.2478C5.61645 19.1824 8.67444 21.0123 12 21.0039" stroke="black" stroke-width="1.5" stroke-linecap="round" stroke-linejoin="round"/>
<path d="M8.49849 11.167V13.501C8.49246 14.8321 9.24508 16.0504 10.4381 16.6408C11.6312 17.2311 13.0563 17.0904 14.1109 16.2781" stroke="black" stroke-width="1.5" stroke-linecap="round" stroke-linejoin="round"/>
<path d="M12 10.834V13.168" stroke="black" stroke-width="1.5" stroke-linecap="round" stroke-linejoin="round"/>
<path d="M15.5015 12.8344V10.4994C15.5075 9.1683 14.7549 7.94997 13.5618 7.35961C12.3688 6.76925 10.9437 6.90997 9.88911 7.72226" stroke="black" stroke-width="1.5" stroke-linecap="round" stroke-linejoin="round"/>
</svg>
