<svg width="24" height="24" viewBox="0 0 24 24" fill="none" xmlns="http://www.w3.org/2000/svg">
<path d="M8.7063 19.5124C10.5892 17.0743 11.6102 14.0805 11.6094 11" stroke="black" stroke-width="1.5" stroke-linecap="round" stroke-linejoin="round"/>
<path d="M4.41141 7.52637C3.88468 8.60869 3.61047 9.79643 3.60944 11.0001C3.6087 11.9091 3.40025 12.8058 3 13.6219" stroke="black" stroke-width="1.5" stroke-linecap="round" stroke-linejoin="round"/>
<path d="M15.468 10.0003C14.9678 8.05051 13.0942 6.77813 11.0974 7.03223C9.10057 7.28632 7.60532 8.98738 7.60941 11.0003C7.61231 13.341 6.79038 15.6079 5.28799 17.4029" stroke="black" stroke-width="1.5" stroke-linecap="round" stroke-linejoin="round"/>
<path d="M19.5404 10C19.1979 7.25806 17.463 4.88767 14.9529 3.73217C12.4428 2.57667 9.51381 2.80008 7.20801 4.32293" stroke="black" stroke-width="1.5" stroke-linecap="round" stroke-linejoin="round"/>
<circle cx="18" cy="17" r="4" stroke="black" stroke-width="1.5" stroke-linecap="round" stroke-linejoin="round"/>
<path d="M19.3 17H16.8" stroke="black" stroke-width="1.5" stroke-linecap="round" stroke-linejoin="round"/>
<path d="M18.05 15.75V18.25" stroke="black" stroke-width="1.5" stroke-linecap="round" stroke-linejoin="round"/>
</svg>
