<svg width="24" height="24" viewBox="0 0 24 24" fill="none" xmlns="http://www.w3.org/2000/svg">
<path d="M18 13C20.2091 13 22 14.7909 22 17C22 19.2091 20.2091 21 18 21C15.7909 21 14 19.2091 14 17C14 14.7909 15.7909 13 18 13" stroke="black" stroke-width="1.5" stroke-linecap="round" stroke-linejoin="round"/>
<path d="M7.60944 11C7.60944 8.79086 9.4003 7 11.6094 7" stroke="black" stroke-width="1.5" stroke-linecap="round" stroke-linejoin="round"/>
<path d="M5.28799 17.4026C6.79039 15.6076 7.61232 13.3407 7.60943 11" stroke="black" stroke-width="1.5" stroke-linecap="round" stroke-linejoin="round"/>
<path d="M3.60944 11C3.6087 11.9089 3.40025 12.8057 3 13.6218" stroke="black" stroke-width="1.5" stroke-linecap="round" stroke-linejoin="round"/>
<path d="M8.7063 19.5124C10.5892 17.0743 11.6102 14.0805 11.6094 11" stroke="black" stroke-width="1.5" stroke-linecap="round" stroke-linejoin="round"/>
<path d="M11.6095 3C10.0442 2.99851 8.51314 3.45866 7.20801 4.32288" stroke="black" stroke-width="1.5" stroke-linecap="round" stroke-linejoin="round"/>
<path d="M4.41141 7.52637C3.88468 8.60868 3.61048 9.79644 3.60947 11.0001" stroke="black" stroke-width="1.5" stroke-linecap="round" stroke-linejoin="round"/>
<path d="M15.468 10C15.0162 8.2372 13.4292 7.00327 11.6094 7" stroke="black" stroke-width="1.5" stroke-linecap="round" stroke-linejoin="round"/>
<path d="M11.6095 3C15.6393 3.00164 19.0382 6.00162 19.5404 10" stroke="black" stroke-width="1.5" stroke-linecap="round" stroke-linejoin="round"/>
<path d="M19.3 17H16.8" stroke="black" stroke-width="1.5" stroke-linecap="round" stroke-linejoin="round"/>
</svg>
