<svg width="24" height="24" viewBox="0 0 24 24" fill="none" xmlns="http://www.w3.org/2000/svg">
<path d="M18.0025 13.0005V14.0009" stroke="black" stroke-width="1.5" stroke-linecap="round" stroke-linejoin="round"/>
<path d="M12 12V18.0025" stroke="black" stroke-width="1.5" stroke-linecap="round" stroke-linejoin="round"/>
<path d="M6.83283 8.95605C6.28625 9.87747 5.99771 10.929 5.99748 12.0003V14.0012" stroke="black" stroke-width="1.5" stroke-linecap="round" stroke-linejoin="round"/>
<path d="M17.6513 9.99947C17.0577 8.30813 15.7371 6.97201 14.0528 6.35871C12.3685 5.7454 10.4979 5.91952 8.95572 6.83315" stroke="black" stroke-width="1.5" stroke-linecap="round" stroke-linejoin="round"/>
<path d="M15.0013 17.0023V12.1703C15.0366 10.5305 13.7949 9.1439 12.1611 8.99896C11.3376 8.9547 10.5321 9.25125 9.93396 9.81896C9.33578 10.3867 8.99757 11.1755 8.99875 12.0002V13.0006" stroke="black" stroke-width="1.5" stroke-linecap="round" stroke-linejoin="round"/>
<path d="M8.99874 16.002V17.0024" stroke="black" stroke-width="1.5" stroke-linecap="round" stroke-linejoin="round"/>
<rect x="2.99625" y="2.99658" width="18.0075" height="18.0075" rx="5" stroke="black" stroke-width="1.5" stroke-linecap="round" stroke-linejoin="round"/>
</svg>
