<svg width="24" height="24" viewBox="0 0 24 24" fill="none" xmlns="http://www.w3.org/2000/svg">
<path d="M5.15115 17.8486C4.39695 16.7072 3.99544 15.369 3.99666 14.001" stroke="black" stroke-width="1.5" stroke-linecap="round" stroke-linejoin="round"/>
<path d="M8.8887 7.88873C9.49325 7.4212 10.2354 7.16657 10.9996 7.16442" stroke="black" stroke-width="1.5" stroke-linecap="round" stroke-linejoin="round"/>
<path d="M7.49809 11.333V14.3343C7.49206 15.6654 8.24468 16.8837 9.43773 17.4741C10.6308 18.0644 12.0559 17.9237 13.1105 17.1114" stroke="black" stroke-width="1.5" stroke-linecap="round" stroke-linejoin="round"/>
<path d="M10.9996 11V14.0013" stroke="black" stroke-width="1.5" stroke-linecap="round" stroke-linejoin="round"/>
<path d="M14.501 12V13.6677" stroke="black" stroke-width="1.5" stroke-linecap="round" stroke-linejoin="round"/>
<path d="M18.0025 1.99609C20.2126 1.99609 22.0042 3.7877 22.0042 5.99776C22.0042 8.20782 20.2126 9.99943 18.0025 9.99943C15.7924 9.99943 14.0008 8.20782 14.0008 5.99776C14.0008 3.7877 15.7924 1.99609 18.0025 1.99609" stroke="black" stroke-width="1.5" stroke-linecap="round" stroke-linejoin="round"/>
<path d="M19.336 5.95327C19.3243 5.95299 19.3129 5.95754 19.3046 5.96585C19.2963 5.97417 19.2918 5.98553 19.292 5.99728V5.99728C19.292 6.0216 19.3117 6.0413 19.336 6.0413C19.3604 6.0413 19.3801 6.0216 19.3801 5.99728C19.3801 5.97297 19.3604 5.95327 19.336 5.95327V5.95327" stroke="black" stroke-width="1.5" stroke-linecap="round" stroke-linejoin="round"/>
<path d="M16.6689 5.95327C16.6572 5.95299 16.6458 5.95754 16.6375 5.96585C16.6292 5.97417 16.6246 5.98553 16.6249 5.99728V5.99728C16.6249 6.0216 16.6446 6.0413 16.6689 6.0413C16.6933 6.0413 16.713 6.0216 16.713 5.99728C16.713 5.97297 16.6933 5.95327 16.6689 5.95327" stroke="black" stroke-width="1.5" stroke-linecap="round" stroke-linejoin="round"/>
<path d="M10.9996 3.99707C7.13198 3.99707 3.99666 7.13238 3.99666 11" stroke="black" stroke-width="1.5" stroke-linecap="round" stroke-linejoin="round"/>
<path d="M18.0025 14.001V14.001C18.0025 17.8686 14.8672 21.0039 10.9996 21.0039V21.0039C9.88023 21.0037 8.77737 20.734 7.78424 20.2176" stroke="black" stroke-width="1.5" stroke-linecap="round" stroke-linejoin="round"/>
<path d="M18.0025 14.0014V13.001" stroke="black" stroke-width="1.5" stroke-linecap="round" stroke-linejoin="round"/>
</svg>
