<svg width="24" height="24" viewBox="0 0 24 24" fill="none" xmlns="http://www.w3.org/2000/svg">
<path d="M18.0025 1.99609C20.2125 1.99609 22.0042 3.7877 22.0042 5.99776C22.0042 8.20782 20.2125 9.99943 18.0025 9.99943C15.7924 9.99943 14.0008 8.20782 14.0008 5.99776C14.0008 3.7877 15.7924 1.99609 18.0025 1.99609" stroke="black" stroke-width="1.5" stroke-linecap="round" stroke-linejoin="round"/>
<path d="M19.3641 5.14648L17.6634 6.84719L16.6409 5.82777" stroke="black" stroke-width="1.5" stroke-linecap="round" stroke-linejoin="round"/>
<path d="M5.15115 17.8486C4.39684 16.7072 3.99532 15.3691 3.99666 14.001" stroke="black" stroke-width="1.5" stroke-linecap="round" stroke-linejoin="round"/>
<path d="M8.8887 7.88824C9.49329 7.42078 10.2354 7.16616 10.9996 7.16394" stroke="black" stroke-width="1.5" stroke-linecap="round" stroke-linejoin="round"/>
<path d="M7.49808 14.334C7.49205 15.6651 8.24467 16.8834 9.43773 17.4738C10.6308 18.0642 12.0559 17.9234 13.1105 17.1111" stroke="black" stroke-width="1.5" stroke-linecap="round" stroke-linejoin="round"/>
<path d="M7.49812 11.333V14.3343" stroke="black" stroke-width="1.5" stroke-linecap="round" stroke-linejoin="round"/>
<path d="M10.9996 10.9995V14.0008" stroke="black" stroke-width="1.5" stroke-linecap="round" stroke-linejoin="round"/>
<path d="M14.501 12V13.6677" stroke="black" stroke-width="1.5" stroke-linecap="round" stroke-linejoin="round"/>
<path d="M10.9996 3.99658C7.13199 3.99658 3.99667 7.13189 3.99667 10.9995" stroke="black" stroke-width="1.5" stroke-linecap="round" stroke-linejoin="round"/>
<path d="M10.9996 21.0037C9.88019 21.0037 8.77729 20.734 7.78424 20.2174" stroke="black" stroke-width="1.5" stroke-linecap="round" stroke-linejoin="round"/>
<path d="M10.9996 21.0039V21.0039C14.8672 21.0039 18.0025 17.8686 18.0025 14.001V14.001" stroke="black" stroke-width="1.5" stroke-linecap="round" stroke-linejoin="round"/>
<path d="M18.0025 14.0009V13.0005" stroke="black" stroke-width="1.5" stroke-linecap="round" stroke-linejoin="round"/>
</svg>
