<svg width="24" height="24" viewBox="0 0 24 24" fill="none" xmlns="http://www.w3.org/2000/svg">
<path fill-rule="evenodd" clip-rule="evenodd" d="M12 5.99756V5.99756C15.3151 5.99756 18.0025 8.68497 18.0025 12.0001V12.0001C18.0025 15.3151 15.3151 18.0026 12 18.0026V18.0026C8.68491 18.0026 5.9975 15.3151 5.9975 12.0001V12.0001C5.9975 8.68497 8.68491 5.99756 12 5.99756Z" stroke="black" stroke-width="1.5" stroke-linecap="round" stroke-linejoin="round"/>
<path d="M14.431 12.7936V11.428C14.4507 10.2907 13.7315 9.27155 12.6533 8.90896C12.1044 8.73333 11.5111 8.75779 10.9786 8.97799" stroke="black" stroke-width="1.5" stroke-linecap="round" stroke-linejoin="round"/>
<path d="M12 12.4003V11.3999" stroke="black" stroke-width="1.5" stroke-linecap="round" stroke-linejoin="round"/>
<path d="M9.56899 10.9995V12.3651C9.54933 13.5024 10.2685 14.5215 11.3467 14.8841C11.8956 15.0598 12.4889 15.0353 13.0214 14.8151" stroke="black" stroke-width="1.5" stroke-linecap="round" stroke-linejoin="round"/>
<rect x="2.99625" y="2.99658" width="18.0075" height="18.0075" rx="5" stroke="black" stroke-width="1.5" stroke-linecap="round" stroke-linejoin="round"/>
</svg>
