<svg width="24" height="24" viewBox="0 0 24 24" fill="none" xmlns="http://www.w3.org/2000/svg">
<path d="M10.3061 17.692C11.4126 15.9771 12.0008 13.9793 12 11.9385" stroke="black" stroke-width="1.5" stroke-linecap="round" stroke-linejoin="round"/>
<path d="M13.7203 17.6852C14.5617 15.8861 14.9985 13.9245 15 11.9385" stroke="black" stroke-width="1.5" stroke-linecap="round" stroke-linejoin="round"/>
<path d="M6 11.9999C6.00038 11.1493 6.18253 10.3087 6.53424 9.53418" stroke="black" stroke-width="1.5" stroke-linecap="round" stroke-linejoin="round"/>
<path d="M18 12C18.0033 9.83051 16.8335 7.82873 14.9416 6.76678C13.0498 5.70483 10.7317 5.74865 8.88135 6.88136" stroke="black" stroke-width="1.5" stroke-linecap="round" stroke-linejoin="round"/>
<path d="M13.5944 9.40579C12.6722 8.81903 11.5034 8.78227 10.5462 9.30993C9.58907 9.83759 8.99615 10.8455 9.00001 11.9385C9.00143 13.4379 8.56086 14.9044 7.73337 16.1547" stroke="black" stroke-width="1.5" stroke-linecap="round" stroke-linejoin="round"/>
<rect x="3" y="3" width="18" height="18" rx="5" stroke="black" stroke-width="1.5" stroke-linecap="round" stroke-linejoin="round"/>
</svg>
