<svg width="24" height="24" viewBox="0 0 24 24" fill="none" xmlns="http://www.w3.org/2000/svg">
<path d="M2.99625 18.0024V20.0033C2.99625 20.5558 3.44415 21.0037 3.99666 21.0037H5.9975" stroke="black" stroke-width="1.5" stroke-linecap="round" stroke-linejoin="round"/>
<path d="M21.0038 5.99783V3.997C21.0038 3.44448 20.5559 2.99658 20.0033 2.99658H18.0025" stroke="black" stroke-width="1.5" stroke-linecap="round" stroke-linejoin="round"/>
<path d="M5.9975 2.99658H3.99666C3.44415 2.99658 2.99625 3.44448 2.99625 3.997V5.99783" stroke="black" stroke-width="1.5" stroke-linecap="round" stroke-linejoin="round"/>
<path d="M18.0025 21.0037H20.0033C20.5559 21.0037 21.0038 20.5558 21.0038 20.0033V18.0024" stroke="black" stroke-width="1.5" stroke-linecap="round" stroke-linejoin="round"/>
<path d="M15.0013 13.0004V11.1887C15.0173 10.3364 14.6846 9.51458 14.0802 8.91355C13.4758 8.31252 12.6521 7.98445 11.7999 8.00533C11.0754 8.05362 10.3931 8.36366 9.88013 8.8777" stroke="black" stroke-width="1.5" stroke-linecap="round" stroke-linejoin="round"/>
<path d="M8.99874 12V13.0004" stroke="black" stroke-width="1.5" stroke-linecap="round" stroke-linejoin="round"/>
<path d="M8.99876 12V12.8113C8.98268 13.6636 9.31539 14.4854 9.91982 15.0864C10.5243 15.6875 11.348 16.0156 12.2001 15.9947C12.9247 15.9464 13.607 15.6363 14.1199 15.1223" stroke="black" stroke-width="1.5" stroke-linecap="round" stroke-linejoin="round"/>
<path d="M17.1211 7.87939C17.6971 8.81828 18.0022 9.89821 18.0025 10.9997V12.7834C18.0456 15.911 15.7349 18.573 12.6323 18.97C11.3221 19.109 10.0027 18.8107 8.8797 18.1217" stroke="black" stroke-width="1.5" stroke-linecap="round" stroke-linejoin="round"/>
<path d="M6.87885 16.121C6.30285 15.1821 5.99781 14.1022 5.99748 13.0007V11.2169C5.95438 8.08936 8.26512 5.42736 11.3677 5.03037C12.6779 4.89144 13.9973 5.18971 15.1203 5.87873" stroke="black" stroke-width="1.5" stroke-linecap="round" stroke-linejoin="round"/>
<path d="M12 10.9995V13.0003" stroke="black" stroke-width="1.5" stroke-linecap="round" stroke-linejoin="round"/>
</svg>
