<svg width="24" height="24" viewBox="0 0 24 24" fill="none" xmlns="http://www.w3.org/2000/svg">
<path d="M8.7063 19.5124C10.5892 17.0743 11.6102 14.0805 11.6094 11" stroke="black" stroke-width="1.5" stroke-linecap="round" stroke-linejoin="round"/>
<path d="M4.41141 7.52637C3.88468 8.60869 3.61047 9.79643 3.60944 11.0001C3.6087 11.9091 3.40025 12.8058 3 13.6219" stroke="black" stroke-width="1.5" stroke-linecap="round" stroke-linejoin="round"/>
<path d="M15.468 10.0003C14.9678 8.05051 13.0942 6.77813 11.0974 7.03223C9.10057 7.28632 7.60532 8.98738 7.60941 11.0003C7.61231 13.341 6.79038 15.6079 5.28799 17.4029" stroke="black" stroke-width="1.5" stroke-linecap="round" stroke-linejoin="round"/>
<path d="M18 21C15.7909 21 14 19.2091 14 17C14 14.7909 15.7909 13 18 13C20.2091 13 22 14.7909 22 17C22 19.2091 20.2091 21 18 21" stroke="black" stroke-width="1.5" stroke-linecap="round" stroke-linejoin="round"/>
<path d="M19.3389 17.0001C19.3389 17.0246 19.3189 17.0445 19.2944 17.0444C19.2699 17.0444 19.25 17.0245 19.25 17C19.25 16.9755 19.2699 16.9556 19.2944 16.9556C19.3189 16.9555 19.3389 16.9754 19.3389 16.9999V17.0001" stroke="black" stroke-width="1.5" stroke-linecap="round" stroke-linejoin="round"/>
<path d="M16.85 17.0001C16.85 17.0246 16.8301 17.0445 16.8055 17.0444C16.781 17.0444 16.7611 17.0245 16.7611 17C16.7611 16.9755 16.781 16.9556 16.8055 16.9556C16.8301 16.9555 16.85 16.9754 16.85 16.9999V17.0001" stroke="black" stroke-width="1.5" stroke-linecap="round" stroke-linejoin="round"/>
<path d="M19.5404 10C19.1979 7.25806 17.463 4.88767 14.9529 3.73217C12.4428 2.57667 9.51381 2.80008 7.20801 4.32293" stroke="black" stroke-width="1.5" stroke-linecap="round" stroke-linejoin="round"/>
</svg>
