<svg width="24" height="24" viewBox="0 0 24 24" fill="none" xmlns="http://www.w3.org/2000/svg">
<path d="M10.875 20.091C8.308 17.524 8.33 13.349 10.941 10.81C13.422 8.39699 17.544 8.39699 20.025 10.81C22.636 13.349 22.658 17.525 20.091 20.091C17.546 22.636 13.42 22.636 10.875 20.091" stroke="black" stroke-width="1.5" stroke-linecap="round" stroke-linejoin="round"/>
<path d="M7 19.941H6C4.343 19.941 3 18.598 3 16.941V6C3 4.343 4.343 3 6 3H17C18.657 3 20 4.343 20 6V7" stroke="black" stroke-width="1.5" stroke-linecap="round" stroke-linejoin="round"/>
<path d="M15.483 16.646V14.147" stroke="black" stroke-width="1.5" stroke-linecap="round" stroke-linejoin="round"/>
<path d="M14.12 12.2271C14.721 11.8091 15.491 11.6221 16.333 11.8891C17.399 12.2271 18.086 13.2711 18.086 14.3891V16.2961" stroke="black" stroke-width="1.5" stroke-linecap="round" stroke-linejoin="round"/>
<path d="M17.019 18.7389C16.418 19.1569 15.648 19.3439 14.806 19.0769C13.74 18.7389 13.053 17.6949 13.053 16.5769V14.6699" stroke="black" stroke-width="1.5" stroke-linecap="round" stroke-linejoin="round"/>
</svg>
