<svg width="24" height="24" viewBox="0 0 24 24" fill="none" xmlns="http://www.w3.org/2000/svg">
<path d="M12 16.0018V14.001" stroke="black" stroke-width="1.5" stroke-linecap="round" stroke-linejoin="round"/>
<path d="M8.99875 16.0022V14.0013C8.99857 12.7874 9.72976 11.693 10.8513 11.2285C11.9728 10.764 13.2637 11.0209 14.1219 11.8794" stroke="black" stroke-width="1.5" stroke-linecap="round" stroke-linejoin="round"/>
<path d="M15.0012 15.001V16.0014" stroke="black" stroke-width="1.5" stroke-linecap="round" stroke-linejoin="round"/>
<path d="M5.9975 16.002V14.0012C5.99786 12.8997 6.30289 11.8198 6.87886 10.8809" stroke="black" stroke-width="1.5" stroke-linecap="round" stroke-linejoin="round"/>
<path d="M8.8797 8.87942C10.7309 7.74653 13.05 7.70287 14.9426 8.76528C16.8351 9.82768 18.0056 11.8302 18.0025 14.0005V16.0014" stroke="black" stroke-width="1.5" stroke-linecap="round" stroke-linejoin="round"/>
<path d="M21.0037 17.002V19.0028C21.0039 19.5335 20.7931 20.0425 20.4179 20.4178C20.0426 20.793 19.5336 21.0038 19.0029 21.0036H17.0021" stroke="black" stroke-width="1.5" stroke-linecap="round" stroke-linejoin="round"/>
<path d="M2.99625 6.99776V4.99693C2.9961 4.46623 3.20686 3.95722 3.58212 3.58196C3.95738 3.2067 4.46638 2.99595 4.99708 2.99609H6.99791" stroke="black" stroke-width="1.5" stroke-linecap="round" stroke-linejoin="round"/>
<path d="M17.0021 2.99609H19.0029C19.5336 2.99595 20.0426 3.2067 20.4179 3.58196C20.7931 3.95722 21.0039 4.46623 21.0037 4.99693V6.99776" stroke="black" stroke-width="1.5" stroke-linecap="round" stroke-linejoin="round"/>
<path d="M6.99791 21.0036H4.99708C4.46638 21.0038 3.95738 20.793 3.58212 20.4178C3.20686 20.0425 2.9961 19.5335 2.99625 19.0028V17.002" stroke="black" stroke-width="1.5" stroke-linecap="round" stroke-linejoin="round"/>
</svg>
