<svg width="24" height="24" viewBox="0 0 24 24" fill="none" xmlns="http://www.w3.org/2000/svg">
<path d="M3.99665 9.99897C3.99542 8.63091 4.39693 7.29276 5.15113 6.15137" stroke="black" stroke-width="1.5" stroke-linecap="round" stroke-linejoin="round"/>
<path d="M10.9996 16.836C10.2354 16.8338 9.49325 16.5792 8.8887 16.1117" stroke="black" stroke-width="1.5" stroke-linecap="round" stroke-linejoin="round"/>
<path d="M13.1105 6.88925C12.0559 6.07696 10.6308 5.93624 9.43773 6.5266C8.24467 7.11696 7.49205 8.3353 7.49808 9.66641V12.6677" stroke="black" stroke-width="1.5" stroke-linecap="round" stroke-linejoin="round"/>
<path d="M10.9996 9.99902V13.0003" stroke="black" stroke-width="1.5" stroke-linecap="round" stroke-linejoin="round"/>
<path d="M14.501 10.332V11.9997" stroke="black" stroke-width="1.5" stroke-linecap="round" stroke-linejoin="round"/>
<path d="M3.99667 13C3.99667 16.8676 7.13199 20.0029 10.9996 20.0029" stroke="black" stroke-width="1.5" stroke-linecap="round" stroke-linejoin="round"/>
<path d="M7.78424 3.78242C8.77737 3.26603 9.88022 2.99632 10.9996 2.99609V2.99609C14.8672 2.99609 18.0025 6.13141 18.0025 9.99901V9.99901" stroke="black" stroke-width="1.5" stroke-linecap="round" stroke-linejoin="round"/>
<path d="M18.0025 10.9994V9.99902" stroke="black" stroke-width="1.5" stroke-linecap="round" stroke-linejoin="round"/>
<circle cx="18.0025" cy="18.0026" r="4.00167" stroke="black" stroke-width="1.5" stroke-linecap="round" stroke-linejoin="round"/>
<path d="M19.3364 17.3359L17.6699 19.0033L16.6686 18.0028" stroke="black" stroke-width="1.5" stroke-linecap="round" stroke-linejoin="round"/>
</svg>
