<svg width="24" height="24" viewBox="0 0 24 24" fill="none" xmlns="http://www.w3.org/2000/svg">
<path d="M18.0025 13.001V14.0014" stroke="black" stroke-width="1.5" stroke-linecap="round" stroke-linejoin="round"/>
<path d="M12 12V18.0025" stroke="black" stroke-width="1.5" stroke-linecap="round" stroke-linejoin="round"/>
<path d="M6.83285 8.95605C6.28627 9.87747 5.99774 10.929 5.9975 12.0003V14.0012" stroke="black" stroke-width="1.5" stroke-linecap="round" stroke-linejoin="round"/>
<path d="M17.6514 9.99898C17.0577 8.30764 15.7371 6.97152 14.0528 6.35822C12.3685 5.74491 10.4979 5.91903 8.95573 6.83267" stroke="black" stroke-width="1.5" stroke-linecap="round" stroke-linejoin="round"/>
<path fill-rule="evenodd" clip-rule="evenodd" d="M7.11897 20.1242L3.87462 16.8799C3.3121 16.317 2.99625 15.5538 2.99625 14.758V9.24169C2.99625 8.44578 3.31274 7.68252 3.87562 7.11981L7.11997 3.87546C7.68268 3.31258 8.44594 2.99609 9.24186 2.99609H14.7582C15.5541 2.99609 16.3173 3.31258 16.88 3.87546L20.1254 7.12081C20.6879 7.68369 21.0038 8.44692 21.0038 9.2427V14.758C21.0038 15.5538 20.6879 16.317 20.1254 16.8799L16.881 20.1252C16.3179 20.688 15.5543 21.004 14.7582 21.0036H9.24186C8.44559 21.0036 7.68193 20.6874 7.11897 20.1242V20.1242Z" stroke="black" stroke-width="1.5" stroke-linecap="round" stroke-linejoin="round"/>
<path d="M15.0012 17.0024V12.0003C15.0012 10.3427 13.6575 8.99902 12 8.99902C10.3425 8.99902 8.99875 10.3427 8.99875 12.0003V13.0007" stroke="black" stroke-width="1.5" stroke-linecap="round" stroke-linejoin="round"/>
<path d="M8.99875 16.002V17.0024" stroke="black" stroke-width="1.5" stroke-linecap="round" stroke-linejoin="round"/>
</svg>
