<svg width="24" height="24" viewBox="0 0 24 24" fill="none" xmlns="http://www.w3.org/2000/svg">
<path fill-rule="evenodd" clip-rule="evenodd" d="M16.0017 1.99609V1.99609C19.3168 1.99609 22.0042 4.6835 22.0042 7.99859V7.99859C22.0042 11.3137 19.3168 14.0011 16.0017 14.0011V14.0011C12.6866 14.0011 9.99918 11.3137 9.99918 7.99859V7.99859C9.99918 4.6835 12.6866 1.99609 16.0017 1.99609Z" stroke="black" stroke-width="1.5" stroke-linecap="round" stroke-linejoin="round"/>
<path d="M18.4327 8.79163V7.41506C18.4507 6.28977 17.743 5.2805 16.6789 4.91402C16.1229 4.73019 15.5194 4.7522 14.9782 4.97604" stroke="black" stroke-width="1.5" stroke-linecap="round" stroke-linejoin="round"/>
<path d="M16.0017 8.39885V7.39844" stroke="black" stroke-width="1.5" stroke-linecap="round" stroke-linejoin="round"/>
<path d="M13.5707 6.99805V8.37462C13.5526 9.49991 14.2603 10.5092 15.3244 10.8757C15.8804 11.0595 16.4839 11.0375 17.0251 10.8136" stroke="black" stroke-width="1.5" stroke-linecap="round" stroke-linejoin="round"/>
<path d="M21.0037 16.002V17.0024C21.0037 19.2125 19.2121 21.0041 17.0021 21.0041H6.99791C4.78785 21.0041 2.99625 19.2125 2.99625 17.0024V6.99825C2.99625 4.78819 4.78785 2.99658 6.99791 2.99658H7.99833" stroke="black" stroke-width="1.5" stroke-linecap="round" stroke-linejoin="round"/>
</svg>
