<svg width="24" height="24" viewBox="0 0 24 24" fill="none" xmlns="http://www.w3.org/2000/svg">
<path d="M6.399 8.343C9.523 5.219 14.589 5.219 17.713 8.343" stroke="black" stroke-width="1.5" stroke-linecap="round" stroke-linejoin="round"/>
<path d="M14.667 16.667C13.194 16.667 12 15.473 12 14" stroke="black" stroke-width="1.5" stroke-linecap="round" stroke-linejoin="round"/>
<path fill-rule="evenodd" clip-rule="evenodd" d="M18 21H6C4.343 21 3 19.657 3 18V6C3 4.343 4.343 3 6 3H18C19.657 3 21 4.343 21 6V18C21 19.657 19.657 21 18 21Z" stroke="black" stroke-width="1.5" stroke-linecap="round" stroke-linejoin="round"/>
<path d="M11.23 18C10.107 17.028 9.389 15.604 9.389 14C9.389 12.527 10.583 11.333 12.056 11.333C13.529 11.333 14.723 12.527 14.723 14" stroke="black" stroke-width="1.5" stroke-linecap="round" stroke-linejoin="round"/>
<path d="M7.797 18C7.115 16.823 6.722 15.458 6.722 14C6.722 11.054 9.11 8.66699 12.055 8.66699C15 8.66699 17.388 11.055 17.388 14" stroke="black" stroke-width="1.5" stroke-linecap="round" stroke-linejoin="round"/>
</svg>
