<svg width="24" height="24" viewBox="0 0 24 24" fill="none" xmlns="http://www.w3.org/2000/svg">
<path d="M5.15113 17.8486C4.39693 16.7072 3.99542 15.369 3.99665 14.001" stroke="black" stroke-width="1.5" stroke-linecap="round" stroke-linejoin="round"/>
<path d="M8.8887 7.88873C9.49325 7.4212 10.2354 7.16657 10.9996 7.16442" stroke="black" stroke-width="1.5" stroke-linecap="round" stroke-linejoin="round"/>
<path d="M7.49808 11.333V14.3343C7.49205 15.6654 8.24467 16.8837 9.43773 17.4741C10.6308 18.0644 12.0559 17.9237 13.1105 17.1114" stroke="black" stroke-width="1.5" stroke-linecap="round" stroke-linejoin="round"/>
<path d="M10.9996 11V14.0013" stroke="black" stroke-width="1.5" stroke-linecap="round" stroke-linejoin="round"/>
<path d="M14.501 12V13.6677" stroke="black" stroke-width="1.5" stroke-linecap="round" stroke-linejoin="round"/>
<path d="M10.9996 3.99707C7.13199 3.99707 3.99667 7.13238 3.99667 11" stroke="black" stroke-width="1.5" stroke-linecap="round" stroke-linejoin="round"/>
<path d="M18.0025 14.001V14.001C18.0025 17.8686 14.8672 21.0039 10.9996 21.0039V21.0039C9.88022 21.0037 8.77737 20.734 7.78424 20.2176" stroke="black" stroke-width="1.5" stroke-linecap="round" stroke-linejoin="round"/>
<path d="M18.0025 14.0014V13.001" stroke="black" stroke-width="1.5" stroke-linecap="round" stroke-linejoin="round"/>
<path d="M18.0025 5.63138V4.38086" stroke="black" stroke-width="1.5" stroke-linecap="round" stroke-linejoin="round"/>
<path d="M15.1733 8.82779C14.0286 7.68342 13.686 5.96214 14.3053 4.46667C14.9246 2.9712 16.3839 1.99609 18.0025 1.99609C19.6211 1.99609 21.0803 2.9712 21.6997 4.46667C22.319 5.96214 21.9764 7.68342 20.8317 8.82779C19.269 10.39 16.736 10.39 15.1733 8.82779" stroke="black" stroke-width="1.5" stroke-linecap="round" stroke-linejoin="round"/>
<path d="M18.0025 7.46917C17.9832 7.46917 17.9648 7.47689 17.9512 7.49062C17.9377 7.50435 17.9302 7.52292 17.9305 7.5422C17.9305 7.58253 17.9632 7.61523 18.0035 7.61523C18.0438 7.61523 18.0765 7.58253 18.0765 7.5422C18.076 7.50171 18.043 7.46917 18.0025 7.46917" stroke="black" stroke-width="1.5" stroke-linecap="round" stroke-linejoin="round"/>
</svg>
