<svg width="24" height="24" viewBox="0 0 24 24" fill="none" xmlns="http://www.w3.org/2000/svg">
<path d="M9 12.0928C9 10.4359 10.3431 9.09277 12 9.09277C13.6569 9.09277 15 10.4359 15 12.0928" stroke="black" stroke-width="1.5" stroke-linecap="round" stroke-linejoin="round"/>
<path d="M15 12.0928C15 12.4519 14.968 12.8027 14.9402 13.1544" stroke="black" stroke-width="1.5" stroke-linecap="round" stroke-linejoin="round"/>
<path d="M14.3596 16.1543C14.1831 16.7292 13.9696 17.2921 13.7203 17.8394" stroke="black" stroke-width="1.5" stroke-linecap="round" stroke-linejoin="round"/>
<path d="M10.3061 17.8463C11.4126 16.1314 12.0007 14.1336 12 12.0928" stroke="black" stroke-width="1.5" stroke-linecap="round" stroke-linejoin="round"/>
<path d="M7.73335 16.309C8.56084 15.0586 9.00141 13.5921 8.99999 12.0928" stroke="black" stroke-width="1.5" stroke-linecap="round" stroke-linejoin="round"/>
<path d="M6 12.1542C6.00038 11.3036 6.18253 10.463 6.53424 9.68848" stroke="black" stroke-width="1.5" stroke-linecap="round" stroke-linejoin="round"/>
<path d="M18 12.1543C18.0033 9.9848 16.8335 7.98303 14.9416 6.92108C13.0498 5.85912 10.7317 5.90295 8.88135 7.03565" stroke="black" stroke-width="1.5" stroke-linecap="round" stroke-linejoin="round"/>
<path d="M3 17V18C3 19.6569 4.34315 21 6 21H7" stroke="black" stroke-width="1.5" stroke-linecap="round" stroke-linejoin="round"/>
<path d="M17 3H18C19.6569 3 21 4.34315 21 6V7" stroke="black" stroke-width="1.5" stroke-linecap="round" stroke-linejoin="round"/>
<path d="M7 3H6C4.34315 3 3 4.34315 3 6V7" stroke="black" stroke-width="1.5" stroke-linecap="round" stroke-linejoin="round"/>
<path d="M21 17V18C21 19.6569 19.6569 21 18 21H17" stroke="black" stroke-width="1.5" stroke-linecap="round" stroke-linejoin="round"/>
</svg>
