<svg width="24" height="24" viewBox="0 0 24 24" fill="none" xmlns="http://www.w3.org/2000/svg">
<path d="M8.30472 11.5801C8.30472 9.37094 10.0956 7.58008 12.3047 7.58008C14.5139 7.58008 16.3047 9.37094 16.3047 11.5801" stroke="black" stroke-width="1.5" stroke-linecap="round" stroke-linejoin="round"/>
<path d="M5.98331 17.9827C7.48569 16.1877 8.30761 13.9208 8.30472 11.5801" stroke="black" stroke-width="1.5" stroke-linecap="round" stroke-linejoin="round"/>
<path d="M4.30472 11.5801C4.30399 12.489 4.09553 13.3858 3.69528 14.2018" stroke="black" stroke-width="1.5" stroke-linecap="round" stroke-linejoin="round"/>
<path d="M9.40158 20.0925C11.2844 17.6544 12.3055 14.6606 12.3047 11.5801" stroke="black" stroke-width="1.5" stroke-linecap="round" stroke-linejoin="round"/>
<path d="M19.6983 16.7048C20.1004 15.0262 20.3039 13.3062 20.3047 11.5801" stroke="black" stroke-width="1.5" stroke-linecap="round" stroke-linejoin="round"/>
<path d="M20.3048 11.5801C20.3062 8.63696 18.6907 5.93097 16.0993 4.53573C13.5079 3.14049 10.3595 3.28156 7.90332 4.90297" stroke="black" stroke-width="1.5" stroke-linecap="round" stroke-linejoin="round"/>
<path d="M5.10669 8.10645C4.57996 9.18876 4.30576 10.3765 4.30475 11.5802" stroke="black" stroke-width="1.5" stroke-linecap="round" stroke-linejoin="round"/>
<path d="M15.1074 18C14.7899 18.8333 14.4114 19.642 13.9748 20.4196" stroke="black" stroke-width="1.5" stroke-linecap="round" stroke-linejoin="round"/>
<path d="M16.3047 11.5801C16.3044 12.3894 16.2494 13.1977 16.1401 13.9996" stroke="black" stroke-width="1.5" stroke-linecap="round" stroke-linejoin="round"/>
</svg>
