<svg width="24" height="24" viewBox="0 0 24 24" fill="none" xmlns="http://www.w3.org/2000/svg">
<path d="M10.3061 17.692C11.4126 15.9771 12.0007 13.9793 12 11.9385" stroke="black" stroke-width="1.5" stroke-linecap="round" stroke-linejoin="round"/>
<path d="M7.73336 16.1547C8.56085 14.9043 9.00142 13.4378 9 11.9385" stroke="black" stroke-width="1.5" stroke-linecap="round" stroke-linejoin="round"/>
<path d="M6 11.9999C6.00038 11.1493 6.18253 10.3087 6.53424 9.53418" stroke="black" stroke-width="1.5" stroke-linecap="round" stroke-linejoin="round"/>
<path d="M18 12C18.0033 9.83051 16.8335 7.82873 14.9416 6.76678C13.0498 5.70483 10.7317 5.74865 8.88135 6.88136" stroke="black" stroke-width="1.5" stroke-linecap="round" stroke-linejoin="round"/>
<circle cx="12" cy="12" r="9" stroke="black" stroke-width="1.5" stroke-linecap="round" stroke-linejoin="round"/>
<path d="M9 11.9385C9 10.2816 10.3431 8.93848 12 8.93848C13.6569 8.93848 15 10.2816 15 11.9385" stroke="black" stroke-width="1.5" stroke-linecap="round" stroke-linejoin="round"/>
<path d="M15 11.9385C15 12.2976 14.968 12.6484 14.9402 13.0001" stroke="black" stroke-width="1.5" stroke-linecap="round" stroke-linejoin="round"/>
<path d="M14.3596 16C14.1831 16.5749 13.9696 17.1378 13.7203 17.6851" stroke="black" stroke-width="1.5" stroke-linecap="round" stroke-linejoin="round"/>
</svg>
