<svg width="24" height="24" viewBox="0 0 24 24" fill="none" xmlns="http://www.w3.org/2000/svg">
<path d="M3.99666 13.998V21.001" stroke="black" stroke-width="1.5" stroke-linecap="round" stroke-linejoin="round"/>
<path d="M20.5389 13.465C22.4923 15.4183 22.4924 18.5854 20.539 20.5389C18.5857 22.4923 15.4186 22.4924 13.4651 20.539C11.5117 18.5857 11.5116 15.4186 13.465 13.4651L13.4651 13.465C15.4185 11.5117 18.5855 11.5117 20.5389 13.465" stroke="black" stroke-width="1.5" stroke-linecap="round" stroke-linejoin="round"/>
<path d="M12.5502 14.7185C11.9974 14.5649 11.4735 14.3216 10.9996 13.9982C8.85488 12.6676 6.14137 12.6676 3.99667 13.9982V3.99401C6.14137 2.66346 8.85488 2.66346 10.9996 3.99401C13.1443 5.32456 15.8578 5.32456 18.0025 3.99401V12.0974" stroke="black" stroke-width="1.5" stroke-linecap="round" stroke-linejoin="round"/>
<path d="M18.0479 18.0028L16.0471 16.002" stroke="black" stroke-width="1.5" stroke-linecap="round" stroke-linejoin="round"/>
<path d="M16.0471 18.0028L18.0479 16.002" stroke="black" stroke-width="1.5" stroke-linecap="round" stroke-linejoin="round"/>
</svg>
