<svg width="24" height="24" viewBox="0 0 24 24" fill="none" xmlns="http://www.w3.org/2000/svg">
<path d="M16.0017 21.5036L14.0008 19.5028L16.0017 17.502" stroke="black" stroke-width="1.5" stroke-linecap="round" stroke-linejoin="round"/>
<path d="M8.99874 8.45605V16.0021" stroke="black" stroke-width="1.5" stroke-linecap="round" stroke-linejoin="round"/>
<path d="M15.4014 8.45626C14.4214 9.06604 13.1801 9.06604 12.2001 8.45626C11.2201 7.84649 9.97875 7.84649 8.99875 8.45626" stroke="black" stroke-width="1.5" stroke-linecap="round" stroke-linejoin="round"/>
<path d="M8.99875 13.1438C9.97875 12.534 11.2201 12.534 12.2001 13.1438C13.1801 13.7535 14.4214 13.7535 15.4014 13.1438" stroke="black" stroke-width="1.5" stroke-linecap="round" stroke-linejoin="round"/>
<path d="M15.4014 8.45605V13.1437" stroke="black" stroke-width="1.5" stroke-linecap="round" stroke-linejoin="round"/>
<path d="M20.0033 19.5031H14.0008" stroke="black" stroke-width="1.5" stroke-linecap="round" stroke-linejoin="round"/>
<path d="M20.0616 15.5052C21.7684 12.0697 21.1105 7.93005 18.4228 5.19298C15.735 2.45591 11.608 1.72288 8.14202 3.36696C4.67609 5.01103 2.63285 8.67096 3.05218 12.4841C3.47151 16.2972 6.26127 19.4256 10.0017 20.2772" stroke="black" stroke-width="1.5" stroke-linecap="round" stroke-linejoin="round"/>
</svg>
