<svg width="24" height="24" viewBox="0 0 24 24" fill="none" xmlns="http://www.w3.org/2000/svg">
<path d="M3.99667 13.998V21.001" stroke="black" stroke-width="1.5" stroke-linecap="round" stroke-linejoin="round"/>
<path d="M20.5389 13.465C22.4923 15.4183 22.4924 18.5854 20.539 20.5389C18.5857 22.4923 15.4186 22.4924 13.4651 20.539C11.5117 18.5857 11.5116 15.4186 13.465 13.4651L13.4651 13.465C15.4185 11.5117 18.5855 11.5117 20.5389 13.465" stroke="black" stroke-width="1.5" stroke-linecap="round" stroke-linejoin="round"/>
<path d="M12.5502 14.7185C11.9974 14.5649 11.4735 14.3216 10.9996 13.9982C8.85489 12.6676 6.14138 12.6676 3.99667 13.9982V3.99401C6.14138 2.66346 8.85489 2.66346 10.9996 3.99401C13.1443 5.32456 15.8578 5.32456 18.0025 3.99401V12.0974" stroke="black" stroke-width="1.5" stroke-linecap="round" stroke-linejoin="round"/>
<path d="M19.278 17.0022C19.278 17.0298 19.2556 17.0522 19.228 17.0522C19.2004 17.0522 19.178 17.0298 19.178 17.0022C19.178 16.9745 19.2004 16.9521 19.228 16.9521" stroke="black" stroke-width="1.5" stroke-linecap="round" stroke-linejoin="round"/>
<path d="M19.228 16.9518C19.2556 16.9518 19.278 16.9742 19.278 17.0018" stroke="black" stroke-width="1.5" stroke-linecap="round" stroke-linejoin="round"/>
<path d="M17.0521 17.0022C17.0521 17.0298 17.0297 17.0522 17.0021 17.0522C16.9744 17.0522 16.952 17.0298 16.952 17.0022C16.952 16.9745 16.9744 16.9521 17.0021 16.9521" stroke="black" stroke-width="1.5" stroke-linecap="round" stroke-linejoin="round"/>
<path d="M17.0021 16.9518C17.0297 16.9518 17.0521 16.9742 17.0521 17.0018" stroke="black" stroke-width="1.5" stroke-linecap="round" stroke-linejoin="round"/>
<path d="M14.8292 17.0022C14.8292 17.0298 14.8068 17.0522 14.7791 17.0522C14.7515 17.0522 14.7291 17.0298 14.7291 17.0022C14.7291 16.9745 14.7515 16.9521 14.7791 16.9521" stroke="black" stroke-width="1.5" stroke-linecap="round" stroke-linejoin="round"/>
<path d="M14.7792 16.9518C14.8068 16.9518 14.8292 16.9742 14.8292 17.0018" stroke="black" stroke-width="1.5" stroke-linecap="round" stroke-linejoin="round"/>
</svg>
