<svg width="24" height="24" viewBox="0 0 24 24" fill="none" xmlns="http://www.w3.org/2000/svg">
<path fill-rule="evenodd" clip-rule="evenodd" d="M10.4424 9.49417L3.66953 16.267C2.77274 17.1653 2.77274 18.6201 3.66953 19.5183L4.48187 20.3307C5.38014 21.2275 6.83495 21.2275 7.73322 20.3307L14.506 13.5579C14.8579 13.2062 15.3142 12.9781 15.8066 12.9076L17.1341 12.7185C17.6265 12.648 18.0829 12.4199 18.4347 12.0682L20.3355 10.1675C21.2316 9.26929 21.2316 7.81525 20.3355 6.9171L17.0841 3.66574C16.186 2.76962 14.7319 2.76962 13.8338 3.66574L11.933 5.56653C11.5813 5.91836 11.3532 6.37467 11.2827 6.86708L11.0926 8.19863C11.0211 8.68926 10.793 9.14366 10.4424 9.49417Z" stroke="black" stroke-width="1.5" stroke-linecap="round" stroke-linejoin="round"/>
<path d="M10.9996 13.0006L12.5002 11.5" stroke="black" stroke-width="1.5" stroke-linecap="round" stroke-linejoin="round"/>
<path d="M18.7048 11.7971L12.2031 5.29541" stroke="black" stroke-width="1.5" stroke-linecap="round" stroke-linejoin="round"/>
</svg>
