<svg width="24" height="24" viewBox="0 0 24 24" fill="none" xmlns="http://www.w3.org/2000/svg">
<path fill-rule="evenodd" clip-rule="evenodd" d="M14.082 7.5H8.504C7.949 7.5 7.5 7.952 7.504 8.507L7.556 15.507C7.56 16.056 8.007 16.5 8.556 16.5H15.497C16.049 16.5 16.497 16.052 16.497 15.5V9.914C16.497 9.649 16.392 9.394 16.204 9.207L14.79 7.793C14.602 7.605 14.347 7.5 14.082 7.5Z" stroke="black" stroke-width="1.5" stroke-linecap="round" stroke-linejoin="round"/>
<path d="M13.83 7.5V9.854C13.83 10.107 13.625 10.312 13.372 10.312H10.622C10.369 10.312 10.164 10.107 10.164 9.854V7.5" stroke="black" stroke-width="1.5" stroke-linecap="round" stroke-linejoin="round"/>
<path d="M10.125 16.5V13.607C10.125 13.341 10.341 13.125 10.607 13.125H13.393C13.659 13.125 13.875 13.341 13.875 13.607V16.5" stroke="black" stroke-width="1.5" stroke-linecap="round" stroke-linejoin="round"/>
<path fill-rule="evenodd" clip-rule="evenodd" d="M20.996 7V17C20.996 19.209 19.205 21 16.996 21H6.996C4.787 21 2.996 19.209 2.996 17V7C2.996 4.791 4.787 3 6.996 3H16.996C19.205 3 20.996 4.791 20.996 7Z" stroke="black" stroke-width="1.5" stroke-linecap="round" stroke-linejoin="round"/>
</svg>
