<svg width="24" height="24" viewBox="0 0 24 24" fill="none" xmlns="http://www.w3.org/2000/svg">
<path fill-rule="evenodd" clip-rule="evenodd" d="M14.0829 7.49805H8.49854C8.232 7.49805 7.97647 7.6044 7.78865 7.79353C7.60084 7.98267 7.49626 8.23893 7.4981 8.50547L7.55015 15.5084C7.554 16.0582 8.00077 16.5018 8.55056 16.5018H15.5015C16.054 16.5018 16.5019 16.0539 16.5019 15.5014V9.91305C16.5019 9.64775 16.3964 9.39333 16.2088 9.20576L14.7912 7.79117C14.6033 7.6033 14.3485 7.49784 14.0829 7.49805Z" stroke="black" stroke-width="1.5" stroke-linecap="round" stroke-linejoin="round"/>
<path d="M13.8308 7.49805V9.85303C13.8308 10.1061 13.6256 10.3112 13.3726 10.3112H10.6214C10.3684 10.3112 10.1632 10.1061 10.1632 9.85303V7.49805" stroke="black" stroke-width="1.5" stroke-linecap="round" stroke-linejoin="round"/>
<circle cx="12" cy="11.9998" r="9.00375" stroke="black" stroke-width="1.5" stroke-linecap="round" stroke-linejoin="round"/>
<path d="M10.1242 16.5024V13.6082C10.1242 13.3419 10.3401 13.126 10.6064 13.126H13.3936C13.6599 13.126 13.8758 13.3419 13.8758 13.6082V16.5024" stroke="black" stroke-width="1.5" stroke-linecap="round" stroke-linejoin="round"/>
</svg>
