<svg width="24" height="24" viewBox="0 0 24 24" fill="none" xmlns="http://www.w3.org/2000/svg">
<path fill-rule="evenodd" clip-rule="evenodd" d="M11 12.9004H13C13.2761 12.9004 13.5 13.1242 13.5 13.4004V16.5004H10.5V13.4004C10.5 13.1242 10.7239 12.9004 11 12.9004Z" stroke="black" stroke-width="1.5" stroke-linecap="round" stroke-linejoin="round"/>
<path fill-rule="evenodd" clip-rule="evenodd" d="M16.0607 9.56066L14.4393 7.93934C14.158 7.65804 13.7765 7.5 13.3787 7.5H9C8.17157 7.5 7.5 8.17157 7.5 9V15C7.5 15.8284 8.17157 16.5 9 16.5H15C15.8284 16.5 16.5 15.8284 16.5 15V10.6213C16.5 10.2235 16.342 9.84196 16.0607 9.56066Z" stroke="black" stroke-width="1.5" stroke-linecap="round" stroke-linejoin="round"/>
<path fill-rule="evenodd" clip-rule="evenodd" d="M12 21C16.9706 21 21 16.9706 21 12C21 7.02944 16.9706 3 12 3C7.02944 3 3 7.02944 3 12C3 16.9706 7.02944 21 12 21V21Z" stroke="black" stroke-width="1.5" stroke-linecap="round" stroke-linejoin="round"/>
</svg>
