<svg width="24" height="24" viewBox="0 0 24 24" fill="none" xmlns="http://www.w3.org/2000/svg">
<path d="M20.0033 10.9994V7.82611C20.0031 7.29551 19.7923 6.7867 19.4171 6.41152L16.5879 3.58234C16.2123 3.20712 15.7032 2.99627 15.1723 2.99609H5.00409C4.47083 2.99609 3.95965 3.20899 3.584 3.58746C3.20834 3.96594 2.99929 4.4787 3.0032 5.01193L3.1073 18.0174C3.11527 19.1166 4.00882 20.0035 5.10813 20.0032H10.9996" stroke="black" stroke-width="1.5" stroke-linecap="round" stroke-linejoin="round"/>
<path d="M15.0012 2.99609V6.90672C15.0011 7.45916 14.5533 7.90694 14.0008 7.90714H8.99175C8.43931 7.90694 7.99153 7.45916 7.99133 6.90672V2.99609" stroke="black" stroke-width="1.5" stroke-linecap="round" stroke-linejoin="round"/>
<path d="M6.99792 20.0039V14.2875C6.99809 13.577 7.57399 13.0011 8.28445 13.001H12" stroke="black" stroke-width="1.5" stroke-linecap="round" stroke-linejoin="round"/>
<path d="M18.5027 16.502L16.5019 18.5028" stroke="black" stroke-width="1.5" stroke-linecap="round" stroke-linejoin="round"/>
<path d="M16.5019 16.502L18.5027 18.5028" stroke="black" stroke-width="1.5" stroke-linecap="round" stroke-linejoin="round"/>
<circle cx="17.5023" cy="17.5029" r="4.50187" stroke="black" stroke-width="1.5" stroke-linecap="round" stroke-linejoin="round"/>
</svg>
