<svg width="24" height="24" viewBox="0 0 24 24" fill="none" xmlns="http://www.w3.org/2000/svg">
<path d="M20.0033 10.9994V7.55835C20.0033 7.05701 19.8042 6.5762 19.4497 6.2217L16.7779 3.54993C16.4233 3.19532 15.9423 2.99609 15.4408 2.99609H4.99709C3.89206 2.99609 2.99625 3.8919 2.99625 4.99693V18.0023C2.99625 19.1074 3.89206 20.0032 4.99709 20.0032H10.9996" stroke="black" stroke-width="1.5" stroke-linecap="round" stroke-linejoin="round"/>
<path d="M14.9948 2.99609V7.12281C14.9947 7.60619 14.6028 7.998 14.1195 7.99818H8.86728C8.3839 7.998 7.99209 7.60619 7.99191 7.12281V2.99609" stroke="black" stroke-width="1.5" stroke-linecap="round" stroke-linejoin="round"/>
<path d="M6.99792 20.0035V14.3272C6.99014 13.634 7.52172 13.0538 8.21295 13.001H12" stroke="black" stroke-width="1.5" stroke-linecap="round" stroke-linejoin="round"/>
<path d="M17.5023 22.0039C15.6815 22.0039 14.0399 20.907 13.3431 19.2248C12.6463 17.5426 13.0315 15.6062 14.319 14.3187C15.6065 13.0312 17.5429 12.646 19.2251 13.3428C20.9073 14.0396 22.0042 15.6812 22.0042 17.502C22.004 19.9882 19.9885 22.0037 17.5023 22.0039" stroke="black" stroke-width="1.5" stroke-linecap="round" stroke-linejoin="round"/>
<path d="M17.3952 15.9844V17.7431L18.7778 18.5865" stroke="black" stroke-width="1.5" stroke-linecap="round" stroke-linejoin="round"/>
</svg>
