<svg width="24" height="24" viewBox="0 0 24 24" fill="none" xmlns="http://www.w3.org/2000/svg">
<path d="M21 14V7.828C20.9998 7.29762 20.789 6.78903 20.414 6.414L17.586 3.586C17.2106 3.21094 16.7017 3.00018 16.171 3H5.00006C4.46703 3.00003 3.95605 3.21281 3.58056 3.59112C3.20506 3.96944 2.9961 4.48199 3.00006 5.015L3.10406 19.015C3.11203 20.1138 4.00521 21.0003 5.10406 21H13.9931" stroke="black" stroke-width="1.5" stroke-linecap="round" stroke-linejoin="round"/>
<path d="M15.993 3V6.909C15.9928 7.4612 15.5452 7.9088 14.993 7.909H8.99301C8.44081 7.9088 7.99321 7.4612 7.99301 6.909V3" stroke="black" stroke-width="1.5" stroke-linecap="round" stroke-linejoin="round"/>
<path d="M7 21V13.286C7.00017 12.5758 7.57583 12.0002 8.286 12H15.715C16.4248 12.0006 17 12.5762 17 13.286V14" stroke="black" stroke-width="1.5" stroke-linecap="round" stroke-linejoin="round"/>
<path d="M20.993 18L18.493 20.5L16.993 19" stroke="black" stroke-width="1.5" stroke-linecap="round" stroke-linejoin="round"/>
</svg>
