<svg width="24" height="24" viewBox="0 0 24 24" fill="none" xmlns="http://www.w3.org/2000/svg">
<path d="M20.0033 8.99859V7.55835C20.0033 7.05701 19.8042 6.5762 19.4497 6.2217L16.7779 3.54993C16.4233 3.19532 15.9423 2.99609 15.4408 2.99609H4.99708C3.89205 2.99609 2.99625 3.8919 2.99625 4.99693V18.0023C2.99625 19.1074 3.89205 20.0032 4.99708 20.0032H9.99916" stroke="black" stroke-width="1.5" stroke-linecap="round" stroke-linejoin="round"/>
<path d="M14.9948 2.99609V7.12281C14.9947 7.60619 14.6028 7.998 14.1195 7.99818H8.86728C8.3839 7.998 7.99209 7.60619 7.99191 7.12281V2.99609" stroke="black" stroke-width="1.5" stroke-linecap="round" stroke-linejoin="round"/>
<path d="M6.99792 20.0035V14.3272C6.99014 13.634 7.52172 13.0538 8.21295 13.001H14.0008" stroke="black" stroke-width="1.5" stroke-linecap="round" stroke-linejoin="round"/>
<path fill-rule="evenodd" clip-rule="evenodd" d="M16.2618 20.7138L21.7138 15.2618C21.8997 15.0762 22.0042 14.8244 22.0042 14.5617C22.0042 14.299 21.8997 14.0472 21.7138 13.8616L20.1426 12.2904C19.9571 12.1045 19.7052 12 19.4425 12C19.1799 12 18.928 12.1045 18.7424 12.2904L13.2904 17.7424C13.1046 17.9279 13.0003 18.1796 13.0004 18.4421V21.0037H15.5621C15.8246 21.0039 16.0763 20.8996 16.2618 20.7138Z" stroke="black" stroke-width="1.5" stroke-linecap="round" stroke-linejoin="round"/>
</svg>
