<svg width="24" height="24" viewBox="0 0 24 24" fill="none" xmlns="http://www.w3.org/2000/svg">
<path fill-rule="evenodd" clip-rule="evenodd" d="M10.5556 13H13.4444C13.7513 13 14 13.2487 14 13.5556V17H10V13.5556C10 13.2487 10.2487 13 10.5556 13V13Z" stroke="black" stroke-width="1.5" stroke-linecap="round" stroke-linejoin="round"/>
<path fill-rule="evenodd" clip-rule="evenodd" d="M16.5607 9.33844L14.6616 7.43934C14.3803 7.15804 13.9987 7 13.6009 7H8.5C7.67157 7 7 7.67157 7 8.5V15.5C7 16.3284 7.67157 17 8.5 17H15.5C16.3284 17 17 16.3284 17 15.5V10.3991C17 10.0013 16.842 9.61974 16.5607 9.33844Z" stroke="black" stroke-width="1.5" stroke-linecap="round" stroke-linejoin="round"/>
<rect x="3" y="3" width="18" height="18" rx="5" stroke="black" stroke-width="1.5" stroke-linecap="round" stroke-linejoin="round"/>
</svg>
