<svg width="24" height="24" viewBox="0 0 24 24" fill="none" xmlns="http://www.w3.org/2000/svg">
<path d="M20.0033 10.9994V7.55835C20.0033 7.05701 19.8042 6.5762 19.4497 6.2217L16.7779 3.54993C16.4233 3.19532 15.9423 2.99609 15.4408 2.99609H4.99708C3.89205 2.99609 2.99625 3.8919 2.99625 4.99693V18.0023C2.99625 19.1074 3.89205 20.0032 4.99708 20.0032H10.9996" stroke="black" stroke-width="1.5" stroke-linecap="round" stroke-linejoin="round"/>
<path d="M14.9948 2.99609V7.12281C14.9947 7.60619 14.6028 7.998 14.1195 7.99818H8.86728C8.3839 7.998 7.99209 7.60619 7.99191 7.12281V2.99609" stroke="black" stroke-width="1.5" stroke-linecap="round" stroke-linejoin="round"/>
<path d="M6.99792 20.0035V14.3272C6.99014 13.634 7.52172 13.0538 8.21295 13.001H12" stroke="black" stroke-width="1.5" stroke-linecap="round" stroke-linejoin="round"/>
<circle cx="17.5023" cy="17.5029" r="4.50187" stroke="black" stroke-width="1.5" stroke-linecap="round" stroke-linejoin="round"/>
<path d="M18.9024 16.8037L17.1511 18.5549L16.1011 17.5038" stroke="black" stroke-width="1.5" stroke-linecap="round" stroke-linejoin="round"/>
</svg>
