<svg width="24" height="24" viewBox="0 0 24 24" fill="none" xmlns="http://www.w3.org/2000/svg">
<path d="M20.993 14V7.828C20.993 7.298 20.782 6.789 20.407 6.414L17.579 3.586C17.203 3.211 16.695 3 16.164 3H5.007C3.897 3 2.999 3.904 3.007 5.015L3.111 19.015C3.119 20.114 4.012 21 5.111 21H14" stroke="black" stroke-width="1.5" stroke-linecap="round" stroke-linejoin="round"/>
<path d="M15.993 3V6.909C15.993 7.461 15.545 7.909 14.993 7.909H8.993C8.441 7.909 7.993 7.461 7.993 6.909V3" stroke="black" stroke-width="1.5" stroke-linecap="round" stroke-linejoin="round"/>
<path d="M7 21V13.286C7 12.576 7.576 12 8.286 12H15.715C16.424 12 17 12.576 17 13.286V14" stroke="black" stroke-width="1.5" stroke-linecap="round" stroke-linejoin="round"/>
<path d="M21 18L18 21" stroke="black" stroke-width="1.5" stroke-linecap="round" stroke-linejoin="round"/>
<path d="M18 18L21 21" stroke="black" stroke-width="1.5" stroke-linecap="round" stroke-linejoin="round"/>
</svg>
