<svg width="24" height="24" viewBox="0 0 24 24" fill="none" xmlns="http://www.w3.org/2000/svg">
<path fill-rule="evenodd" clip-rule="evenodd" d="M17.0021 21.0041H6.99792C4.788 21.0041 2.99625 19.2123 2.99625 17.0024V6.99825C2.99625 4.78833 4.788 2.99658 6.99792 2.99658H17.0021C19.212 2.99658 21.0037 4.78833 21.0037 6.99825V17.0024C21.0037 19.2123 19.212 21.0041 17.0021 21.0041Z" stroke="black" stroke-width="1.5" stroke-linecap="round" stroke-linejoin="round"/>
<path fill-rule="evenodd" clip-rule="evenodd" d="M15.5015 9.46915H12L11.2977 8.43572C11.1106 8.1626 10.8015 7.99854 10.4704 7.99854H8.49854C7.94631 7.99854 7.49812 8.44672 7.49812 8.99895V15.0015C7.49812 15.5537 7.94631 16.0019 8.49854 16.0019H15.5015C16.0537 16.0019 16.5019 15.5537 16.5019 15.0015V10.4696C16.5019 9.91733 16.0537 9.46915 15.5015 9.46915Z" stroke="black" stroke-width="1.5" stroke-linecap="round" stroke-linejoin="round"/>
</svg>
