<svg width="24" height="24" viewBox="0 0 24 24" fill="none" xmlns="http://www.w3.org/2000/svg">
<path fill-rule="evenodd" clip-rule="evenodd" d="M16.0017 21.0041H7.99833C5.23618 21.0041 2.99625 18.7641 2.99625 16.002V7.99867C2.99625 5.23651 5.23618 2.99658 7.99833 2.99658H16.0017C18.7638 2.99658 21.0037 5.23651 21.0037 7.99867V16.002C21.0037 18.7641 18.7638 21.0041 16.0017 21.0041Z" stroke="black" stroke-width="1.5" stroke-linecap="round" stroke-linejoin="round"/>
<path fill-rule="evenodd" clip-rule="evenodd" d="M15.5014 9.46915H12L11.2977 8.43572C11.1106 8.1626 10.8015 7.99854 10.4703 7.99854H8.49852C7.94629 7.99854 7.49811 8.44672 7.49811 8.99895V15.0015C7.49811 15.5537 7.94629 16.0019 8.49852 16.0019H15.5014C16.0537 16.0019 16.5019 15.5537 16.5019 15.0015V10.4696C16.5019 9.91733 16.0537 9.46915 15.5014 9.46915Z" stroke="black" stroke-width="1.5" stroke-linecap="round" stroke-linejoin="round"/>
</svg>
