<svg width="24" height="24" viewBox="0 0 24 24" fill="none" xmlns="http://www.w3.org/2000/svg">
<path d="M18.3667 5.63344C21.8831 9.14991 21.8831 14.8503 18.3667 18.3667C14.8502 21.8832 9.14982 21.8832 5.63335 18.3667C2.11689 14.8503 2.11689 9.14991 5.63335 5.63344C9.14982 2.11698 14.8502 2.11698 18.3667 5.63344" stroke="black" stroke-width="1.5" stroke-linecap="round" stroke-linejoin="round"/>
<path fill-rule="evenodd" clip-rule="evenodd" d="M15.5015 9.46915H12L11.2977 8.43572C11.1106 8.1626 10.8015 7.99854 10.4704 7.99854H8.49855C7.94632 7.99854 7.49813 8.44672 7.49813 8.99895V15.0015C7.49813 15.5537 7.94632 16.0019 8.49855 16.0019H15.5015C16.0537 16.0019 16.5019 15.5537 16.5019 15.0015V10.4696C16.5019 9.91733 16.0537 9.46915 15.5015 9.46915Z" stroke="black" stroke-width="1.5" stroke-linecap="round" stroke-linejoin="round"/>
</svg>
