<svg width="24" height="24" viewBox="0 0 24 24" fill="none" xmlns="http://www.w3.org/2000/svg">
<path d="M5.33022 5.46661C6.97091 3.95398 9.3469 2.99658 12 2.99658C14.6531 2.99658 17.0291 3.95398 18.6698 5.46661" stroke="black" stroke-width="1.5" stroke-linecap="round" stroke-linejoin="round"/>
<path d="M7.55415 8.18377C8.6476 7.27639 10.2313 6.70215 12 6.70215C13.7687 6.70215 15.3524 7.27639 16.4458 8.18377" stroke="black" stroke-width="1.5" stroke-linecap="round" stroke-linejoin="round"/>
<path d="M9.77708 10.9998C10.3243 10.5456 11.1156 10.2585 12 10.2585C12.8844 10.2585 13.6767 10.5456 14.2229 10.9998" stroke="black" stroke-width="1.5" stroke-linecap="round" stroke-linejoin="round"/>
<path d="M4.40283 11L3.04927 17.7668C2.71413 19.4415 3.99567 21.0042 5.70438 21.0042H18.2966C20.0043 21.0042 21.2859 19.4415 20.9507 17.7668L19.5972 11" stroke="black" stroke-width="1.5" stroke-linecap="round" stroke-linejoin="round"/>
</svg>
