<svg width="24" height="24" viewBox="0 0 24 24" fill="none" xmlns="http://www.w3.org/2000/svg">
<path d="M10 12.0131C11.105 10.6801 12.895 10.6801 14 12.0131" stroke="black" stroke-width="1.5" stroke-linecap="round" stroke-linejoin="round"/>
<path d="M8.82843 9.17157C10.3905 10.7337 10.3905 13.2663 8.82843 14.8284C7.26633 16.3905 4.73367 16.3905 3.17158 14.8284C1.60948 13.2663 1.60948 10.7337 3.17158 9.17157C4.73368 7.60947 7.26634 7.60947 8.82843 9.17157" stroke="black" stroke-width="1.5" stroke-linecap="round" stroke-linejoin="round"/>
<path d="M20.8284 9.17157C22.3905 10.7337 22.3905 13.2663 20.8284 14.8284C19.2663 16.3905 16.7336 16.3905 15.1716 14.8284C13.6095 13.2663 13.6095 10.7337 15.1716 9.17157C16.7337 7.60947 19.2663 7.60947 20.8284 9.17157" stroke="black" stroke-width="1.5" stroke-linecap="round" stroke-linejoin="round"/>
<path d="M2 12H1" stroke="black" stroke-width="1.5" stroke-linecap="round" stroke-linejoin="round"/>
<path d="M23 12H22" stroke="black" stroke-width="1.5" stroke-linecap="round" stroke-linejoin="round"/>
</svg>
