<svg width="24" height="24" viewBox="0 0 24 24" fill="none" xmlns="http://www.w3.org/2000/svg">
<path d="M12 21.0041C7.02693 21.0041 2.99625 16.9734 2.99625 12.0003C2.99625 7.02726 7.02693 2.99658 12 2.99658C16.9731 2.99658 21.0038 7.02726 21.0038 12.0003" stroke="black" stroke-width="1.5" stroke-linecap="round" stroke-linejoin="round"/>
<path d="M3.50947 8.99923H20.4235" stroke="black" stroke-width="1.5" stroke-linecap="round" stroke-linejoin="round"/>
<path d="M3.51047 15.0017H12" stroke="black" stroke-width="1.5" stroke-linecap="round" stroke-linejoin="round"/>
<path d="M16.0017 12.0006C16.0017 9.23542 15.2784 6.47027 13.8338 4.05726C12.9864 2.64367 11.0136 2.64367 10.1672 4.05726C7.27604 8.88427 7.27604 15.1179 10.1672 19.9449C10.5904 20.6512 11.2957 21.0053 12.001 21.0053" stroke="black" stroke-width="1.5" stroke-linecap="round" stroke-linejoin="round"/>
<path d="M18.2526 22.0046C16.1807 22.0046 14.501 20.3249 14.501 18.253C14.501 16.1812 16.1807 14.5015 18.2526 14.5015C20.3255 14.5015 22.0042 16.1812 22.0042 18.253C22.0042 20.3249 20.3255 22.0046 18.2526 22.0046" stroke="black" stroke-width="1.5" stroke-linecap="round" stroke-linejoin="round"/>
<path d="M17.2522 18.2531H19.253" stroke="black" stroke-width="1.5" stroke-linecap="round" stroke-linejoin="round"/>
</svg>
