<svg width="24" height="24" viewBox="0 0 24 24" fill="none" xmlns="http://www.w3.org/2000/svg">
<path d="M12 21.0036C7.02736 21.0036 2.99625 16.9725 2.99625 11.9998C2.99625 7.02721 7.02736 2.99609 12 2.99609C16.9726 2.99609 21.0037 7.02721 21.0037 11.9998" stroke="black" stroke-width="1.5" stroke-linecap="round" stroke-linejoin="round"/>
<path d="M3.50946 8.99923H20.3845" stroke="black" stroke-width="1.5" stroke-linecap="round" stroke-linejoin="round"/>
<path d="M3.51047 15.0012H12" stroke="black" stroke-width="1.5" stroke-linecap="round" stroke-linejoin="round"/>
<path d="M16.0017 12.0006C16.0092 9.20566 15.2601 6.46082 13.8338 4.05726C13.4563 3.40136 12.7573 2.99707 12.0005 2.99707C11.2438 2.99707 10.5447 3.40136 10.1672 4.05726C7.27604 8.95853 7.27604 15.0436 10.1672 19.9449C10.5463 20.5994 11.2446 21.0032 12.001 21.0053" stroke="black" stroke-width="1.5" stroke-linecap="round" stroke-linejoin="round"/>
<circle cx="18.0025" cy="18.0026" r="4.00167" stroke="black" stroke-width="1.5" stroke-linecap="round" stroke-linejoin="round"/>
<path d="M19.247 17.3818L17.6904 18.9385L16.757 18.0041" stroke="black" stroke-width="1.5" stroke-linecap="round" stroke-linejoin="round"/>
</svg>
