<svg width="24" height="24" viewBox="0 0 24 24" fill="none" xmlns="http://www.w3.org/2000/svg">
<path d="M12 21.0041C7.02693 21.0041 2.99625 16.9734 2.99625 12.0003C2.99625 7.02726 7.02693 2.99658 12 2.99658C16.9731 2.99658 21.0037 7.02726 21.0037 12.0003" stroke="black" stroke-width="1.5" stroke-linecap="round" stroke-linejoin="round"/>
<path d="M3.50946 8.99923H20.3845" stroke="black" stroke-width="1.5" stroke-linecap="round" stroke-linejoin="round"/>
<path d="M3.51047 15.0017H12" stroke="black" stroke-width="1.5" stroke-linecap="round" stroke-linejoin="round"/>
<path d="M16.0017 12.0006C16.0017 9.23542 15.2784 6.47027 13.8338 4.05726C12.9864 2.64367 11.0136 2.64367 10.1672 4.05726C7.27604 8.88427 7.27604 15.1179 10.1672 19.9449C10.5904 20.6512 11.2957 21.0053 12.001 21.0053" stroke="black" stroke-width="1.5" stroke-linecap="round" stroke-linejoin="round"/>
<path d="M19.247 17.3813L17.6904 18.938L16.757 18.0036" stroke="black" stroke-width="1.5" stroke-linecap="round" stroke-linejoin="round"/>
<path fill-rule="evenodd" clip-rule="evenodd" d="M14.2209 18.6553L14.7521 19.3506L14.8672 20.216C14.9312 20.6962 15.3084 21.0744 15.7886 21.1384L16.6559 21.2544L17.3502 21.7846C17.7344 22.0788 18.2686 22.0788 18.6528 21.7846L19.348 21.2534H19.347L20.2134 21.1384C20.6936 21.0744 21.0718 20.6972 21.1358 20.217L21.2518 19.3496C21.2518 19.3506 21.521 18.9985 21.7831 18.6553C22.0772 18.2712 22.0772 17.737 21.7831 17.3528L21.2518 16.6575L21.1368 15.7922C21.0728 15.312 20.6956 14.9338 20.2154 14.8698L19.347 14.7547L18.6528 14.2245C18.2686 13.9304 17.7344 13.9304 17.3502 14.2245L16.6549 14.7547H16.6559L15.7896 14.8688C15.3094 14.9328 14.9312 15.31 14.8672 15.7902L14.7511 16.6575C14.7511 16.6565 14.482 17.0087 14.2199 17.3518C13.9278 17.737 13.9278 18.2702 14.2209 18.6553Z" stroke="black" stroke-width="1.5" stroke-linecap="round" stroke-linejoin="round"/>
</svg>
