<svg width="24" height="24" viewBox="0 0 24 24" fill="none" xmlns="http://www.w3.org/2000/svg">
<path fill-rule="evenodd" clip-rule="evenodd" d="M14.827 21H9.173C5.859 21 3.173 18.314 3.173 15V9C3.173 5.686 5.859 3 9.173 3H14.826C18.14 3 20.826 5.686 20.826 9V15C20.827 18.314 18.14 21 14.827 21Z" stroke="black" stroke-width="1.5" stroke-linecap="round" stroke-linejoin="round"/>
<path d="M19 12H20.83" stroke="black" stroke-width="1.5" stroke-linecap="round" stroke-linejoin="round"/>
<path d="M5.00001 12H3.17001" stroke="black" stroke-width="1.5" stroke-linecap="round" stroke-linejoin="round"/>
<path d="M12 19V21" stroke="black" stroke-width="1.5" stroke-linecap="round" stroke-linejoin="round"/>
<path d="M12 5V3" stroke="black" stroke-width="1.5" stroke-linecap="round" stroke-linejoin="round"/>
<path d="M8 12C8 12 9.499 12 10.75 13.25C12.001 14.5 12 16 12 16" stroke="black" stroke-width="1.5" stroke-linecap="round" stroke-linejoin="round"/>
<path d="M16 12C16 12 14.501 12 13.25 10.75C11.999 9.5 12 8 12 8" stroke="black" stroke-width="1.5" stroke-linecap="round" stroke-linejoin="round"/>
<path d="M12 16C12 16 12 14.501 13.25 13.25C14.5 11.999 16 12 16 12" stroke="black" stroke-width="1.5" stroke-linecap="round" stroke-linejoin="round"/>
<path d="M12 8C12 8 12 9.499 10.75 10.75C9.5 12.001 8 12 8 12" stroke="black" stroke-width="1.5" stroke-linecap="round" stroke-linejoin="round"/>
</svg>
