<svg width="24" height="24" viewBox="0 0 24 24" fill="none" xmlns="http://www.w3.org/2000/svg">
<path d="M19.0029 12.6006V4.99742C19.0029 3.89239 18.1071 2.99658 17.0021 2.99658H4.99708C3.89205 2.99658 2.99625 3.89239 2.99625 4.99742V17.0024C2.99625 18.1074 3.89205 19.0032 4.99708 19.0032H12.6933" stroke="black" stroke-width="1.5" stroke-linecap="round" stroke-linejoin="round"/>
<path d="M13.6677 2.99658V13.668" stroke="black" stroke-width="1.5" stroke-linecap="round" stroke-linejoin="round"/>
<path d="M8.33147 2.99658V19.0032" stroke="black" stroke-width="1.5" stroke-linecap="round" stroke-linejoin="round"/>
<path d="M2.99625 13.6677H13.6677" stroke="black" stroke-width="1.5" stroke-linecap="round" stroke-linejoin="round"/>
<path d="M2.99625 8.33175H19.0029" stroke="black" stroke-width="1.5" stroke-linecap="round" stroke-linejoin="round"/>
<path d="M17.2022 22.0043C14.552 22.0015 12.4052 19.8524 12.4052 17.2023C12.445 14.5677 14.5725 12.4423 17.2072 12.4053C19.7975 12.4902 21.8531 14.6154 21.8517 17.2072C21.8504 19.7989 19.7926 21.922 17.2022 22.0043" stroke="black" stroke-width="1.5"/>
<path d="M17.2022 15.2876V19.1262" stroke="black" stroke-width="1.5" stroke-linecap="round" stroke-linejoin="round"/>
<path d="M19.126 17.2024H15.2874" stroke="black" stroke-width="1.5" stroke-linecap="round" stroke-linejoin="round"/>
</svg>
