<svg width="24" height="24" viewBox="0 0 24 24" fill="none" xmlns="http://www.w3.org/2000/svg">
<path fill-rule="evenodd" clip-rule="evenodd" d="M10.3323 8.16574V8.16574C10.3323 7.2447 11.079 6.49805 12 6.49805V6.49805C12.921 6.49805 13.6677 7.2447 13.6677 8.16574V8.16574C13.6677 9.08678 12.921 9.83344 12 9.83344V9.83344C11.0792 9.83288 10.3329 9.08656 10.3323 8.16574Z" stroke="black" stroke-width="1.5" stroke-linecap="round" stroke-linejoin="round"/>
<path fill-rule="evenodd" clip-rule="evenodd" d="M6.29062 14.8347V14.8347C6.29062 13.9136 7.03727 13.167 7.95831 13.167V13.167C8.87936 13.167 9.62601 13.9136 9.62601 14.8347V14.8347C9.62546 15.7555 8.87913 16.5018 7.95831 16.5024V16.5024C7.51601 16.5024 7.09183 16.3267 6.77908 16.0139C6.46632 15.7012 6.29062 15.277 6.29062 14.8347V14.8347Z" stroke="black" stroke-width="1.5" stroke-linecap="round" stroke-linejoin="round"/>
<path fill-rule="evenodd" clip-rule="evenodd" d="M14.374 14.8347V14.8347C14.374 13.9136 15.1206 13.167 16.0417 13.167V13.167C16.9627 13.167 17.7094 13.9136 17.7094 14.8347V14.8347C17.7094 15.7557 16.9627 16.5024 16.0417 16.5024V16.5024C15.1206 16.5024 14.374 15.7557 14.374 14.8347V14.8347Z" stroke="black" stroke-width="1.5" stroke-linecap="round" stroke-linejoin="round"/>
<path d="M9.88912 11.4502L8.67862 13.341" stroke="black" stroke-width="1.5" stroke-linecap="round" stroke-linejoin="round"/>
<path d="M12.9004 9.56934L14.1109 11.4501" stroke="black" stroke-width="1.5" stroke-linecap="round" stroke-linejoin="round"/>
<path d="M14.371 14.8313H12" stroke="black" stroke-width="1.5" stroke-linecap="round" stroke-linejoin="round"/>
<rect x="2.99625" y="2.99609" width="18.0075" height="18.0075" rx="4" stroke="black" stroke-width="1.5" stroke-linecap="round" stroke-linejoin="round"/>
</svg>
