<svg width="24" height="24" viewBox="0 0 24 24" fill="none" xmlns="http://www.w3.org/2000/svg">
<path fill-rule="evenodd" clip-rule="evenodd" d="M10.333 8.667V8.667C10.333 7.747 11.079 7 12 7V7C12.92 7 13.667 7.746 13.667 8.667V8.667C13.667 9.587 12.921 10.334 12 10.334V10.334C11.079 10.333 10.333 9.587 10.333 8.667Z" stroke="black" stroke-width="1.5" stroke-linecap="round" stroke-linejoin="round"/>
<path fill-rule="evenodd" clip-rule="evenodd" d="M6.293 15.333V15.333C6.293 14.413 7.039 13.666 7.96 13.666V13.666C8.88 13.666 9.627 14.412 9.627 15.333V15.333C9.626 16.253 8.881 17 7.96 17V17C7.039 17 6.293 16.254 6.293 15.333H6.293Z" stroke="black" stroke-width="1.5" stroke-linecap="round" stroke-linejoin="round"/>
<path fill-rule="evenodd" clip-rule="evenodd" d="M14.373 15.333V15.333C14.373 14.413 15.119 13.666 16.04 13.666V13.666C16.96 13.666 17.707 14.412 17.707 15.333V15.333C17.707 16.253 16.961 17 16.04 17V17C15.119 17 14.373 16.254 14.373 15.333Z" stroke="black" stroke-width="1.5" stroke-linecap="round" stroke-linejoin="round"/>
<path fill-rule="evenodd" clip-rule="evenodd" d="M3 18V6C3 4.343 4.343 3 6 3H18C19.657 3 21 4.343 21 6V18C21 19.657 19.657 21 18 21H6C4.343 21 3 19.657 3 18Z" stroke="black" stroke-width="1.5" stroke-linecap="round" stroke-linejoin="round"/>
<path d="M9.88999 11.95L8.67999 13.84" stroke="black" stroke-width="1.5" stroke-linecap="round" stroke-linejoin="round"/>
<path d="M12.9 10.0701L14.11 11.9501" stroke="black" stroke-width="1.5" stroke-linecap="round" stroke-linejoin="round"/>
<path d="M14.37 15.3301H12" stroke="black" stroke-width="1.5" stroke-linecap="round" stroke-linejoin="round"/>
</svg>
