<svg width="24" height="24" viewBox="0 0 24 24" fill="none" xmlns="http://www.w3.org/2000/svg">
<path fill-rule="evenodd" clip-rule="evenodd" d="M16.0017 21.0036H7.99833C5.23576 21.0036 2.99625 18.7641 2.99625 16.0015V7.99818C2.99625 5.2356 5.23576 2.99609 7.99833 2.99609H16.0017C18.7642 2.99609 21.0037 5.2356 21.0037 7.99818V16.0015C21.0037 18.7641 18.7642 21.0036 16.0017 21.0036Z" stroke="black" stroke-width="1.5" stroke-linecap="round" stroke-linejoin="round"/>
<path d="M12.125 16.8772C12.125 16.9462 12.0691 17.0022 12 17.0022C11.9309 17.0022 11.8749 16.9462 11.8749 16.8772C11.8749 16.8081 11.9309 16.7521 12 16.7521" stroke="black" stroke-width="1.5" stroke-linecap="round" stroke-linejoin="round"/>
<path d="M12 16.7521C12.0691 16.7521 12.1251 16.8081 12.1251 16.8772" stroke="black" stroke-width="1.5" stroke-linecap="round" stroke-linejoin="round"/>
<path d="M12.125 12.0002C12.125 12.0693 12.0691 12.1253 12 12.1253C11.9309 12.1253 11.8749 12.0693 11.8749 12.0002C11.8749 11.9311 11.9309 11.8752 12 11.8752" stroke="black" stroke-width="1.5" stroke-linecap="round" stroke-linejoin="round"/>
<path d="M12 11.8752C12.0691 11.8752 12.1251 11.9312 12.1251 12.0002" stroke="black" stroke-width="1.5" stroke-linecap="round" stroke-linejoin="round"/>
<path d="M12.125 7.12326C12.125 7.19232 12.0691 7.24831 12 7.24831C11.9309 7.24831 11.8749 7.19232 11.8749 7.12326C11.8749 7.05419 11.9309 6.9982 12 6.9982" stroke="black" stroke-width="1.5" stroke-linecap="round" stroke-linejoin="round"/>
<path d="M12 6.99823C12.0691 6.99823 12.1251 7.05422 12.1251 7.12328" stroke="black" stroke-width="1.5" stroke-linecap="round" stroke-linejoin="round"/>
<path d="M7.12297 12.1253C7.0539 12.1253 6.99791 12.0693 6.99791 12.0002C6.99791 11.9311 7.0539 11.8752 7.12297 11.8752C7.19203 11.8752 7.24802 11.9311 7.24802 12.0002" stroke="black" stroke-width="1.5" stroke-linecap="round" stroke-linejoin="round"/>
<path d="M7.24802 12.0002C7.24802 12.0692 7.19203 12.1252 7.12297 12.1252" stroke="black" stroke-width="1.5" stroke-linecap="round" stroke-linejoin="round"/>
<path d="M16.877 12.1253C16.808 12.1253 16.752 12.0693 16.752 12.0002C16.752 11.9311 16.808 11.8752 16.877 11.8752C16.9461 11.8752 17.0021 11.9311 17.0021 12.0002" stroke="black" stroke-width="1.5" stroke-linecap="round" stroke-linejoin="round"/>
<path d="M17.0021 12.0002C17.0021 12.0692 16.9461 12.1252 16.877 12.1252" stroke="black" stroke-width="1.5" stroke-linecap="round" stroke-linejoin="round"/>
<path d="M8.46299 8.64015C8.42723 8.60439 8.41653 8.5506 8.43588 8.50387C8.45524 8.45714 8.50084 8.42667 8.55142 8.42667C8.602 8.42667 8.6476 8.45714 8.66695 8.50387C8.68631 8.5506 8.67561 8.60439 8.63984 8.64015" stroke="black" stroke-width="1.5" stroke-linecap="round" stroke-linejoin="round"/>
<path d="M8.63984 8.6401C8.591 8.68893 8.51183 8.68893 8.46299 8.6401" stroke="black" stroke-width="1.5" stroke-linecap="round" stroke-linejoin="round"/>
<path d="M15.3602 15.5366C15.3244 15.5009 15.3137 15.4471 15.333 15.4004C15.3524 15.3536 15.398 15.3232 15.4486 15.3232C15.4992 15.3232 15.5448 15.3536 15.5641 15.4004C15.5835 15.4471 15.5728 15.5009 15.537 15.5366" stroke="black" stroke-width="1.5" stroke-linecap="round" stroke-linejoin="round"/>
<path d="M15.537 15.5376C15.4882 15.5864 15.409 15.5864 15.3602 15.5376" stroke="black" stroke-width="1.5" stroke-linecap="round" stroke-linejoin="round"/>
<path d="M8.63983 15.5369C8.60407 15.5726 8.55028 15.5833 8.50355 15.564C8.45682 15.5446 8.42635 15.499 8.42635 15.4485C8.42635 15.3979 8.45682 15.3523 8.50355 15.3329C8.55028 15.3136 8.60407 15.3243 8.63983 15.36" stroke="black" stroke-width="1.5" stroke-linecap="round" stroke-linejoin="round"/>
<path d="M8.63984 15.36C8.68867 15.4089 8.68867 15.488 8.63984 15.5369" stroke="black" stroke-width="1.5" stroke-linecap="round" stroke-linejoin="round"/>
<path d="M15.537 8.64039C15.5012 8.67615 15.4475 8.68686 15.4007 8.6675C15.354 8.64815 15.3235 8.60255 15.3235 8.55197C15.3235 8.50139 15.354 8.45579 15.4007 8.43643C15.4475 8.41708 15.5012 8.42778 15.537 8.46354" stroke="black" stroke-width="1.5" stroke-linecap="round" stroke-linejoin="round"/>
<path d="M15.537 8.46354C15.5858 8.51238 15.5858 8.59155 15.537 8.64039" stroke="black" stroke-width="1.5" stroke-linecap="round" stroke-linejoin="round"/>
</svg>
