<svg width="24" height="24" viewBox="0 0 24 24" fill="none" xmlns="http://www.w3.org/2000/svg">
<path fill-rule="evenodd" clip-rule="evenodd" d="M6.82383 11.5392C7.38607 11.078 8.20641 11.119 8.71962 11.6332L9.58799 12.5006V9.00115C9.58799 7.63558 10.9255 6.67118 12.2211 7.10336L15.0253 8.03775C15.8426 8.30986 16.3938 9.07518 16.3938 9.93554V14.0352C16.3938 15.941 14.8482 17.4867 12.9424 17.4867H11.3157C10.2283 17.4867 9.20483 16.9745 8.55255 16.1041L6.58774 13.48C6.13455 12.8738 6.23859 12.0184 6.82383 11.5392V11.5392Z" stroke="black" stroke-width="1.5" stroke-linecap="round" stroke-linejoin="round"/>
<path fill-rule="evenodd" clip-rule="evenodd" d="M17.0021 21.0041H6.99791C4.78799 21.0041 2.99625 19.2123 2.99625 17.0024V6.99825C2.99625 4.78833 4.78799 2.99658 6.99791 2.99658H17.0021C19.212 2.99658 21.0037 4.78833 21.0037 6.99825V17.0024C21.0037 19.2123 19.212 21.0041 17.0021 21.0041Z" stroke="black" stroke-width="1.5" stroke-linecap="round" stroke-linejoin="round"/>
</svg>
