<svg width="24" height="24" viewBox="0 0 24 24" fill="none" xmlns="http://www.w3.org/2000/svg">
<path fill-rule="evenodd" clip-rule="evenodd" d="M6.82384 11.0547C7.38665 10.5905 8.21038 10.6312 8.72463 11.1487L9.59299 12.0161V9.06485C9.59219 8.42135 9.90095 7.81673 10.4227 7.44008C10.9445 7.06343 11.6156 6.96071 12.2261 7.16406L15.0273 8.09845C15.8446 8.37164 16.3952 9.13746 16.3938 9.99924V13.5507C16.3938 15.4569 14.8486 17.0022 12.9424 17.0022H11.3157C10.2283 17.0022 9.20448 16.4899 8.55256 15.6196L6.58774 13.0005C6.13424 12.3947 6.23832 11.5391 6.82384 11.0597V11.0547Z" stroke="black" stroke-width="1.5" stroke-linecap="round" stroke-linejoin="round"/>
<path d="M18.3666 5.63327C21.8828 9.14946 21.8828 14.8503 18.3666 18.3665C14.8504 21.8826 9.14958 21.8826 5.6334 18.3665C2.11722 14.8503 2.11719 9.14946 5.63334 5.63327C7.32188 3.94472 9.61203 2.99609 12 2.99609C14.388 2.99609 16.6781 3.94472 18.3666 5.63327" stroke="black" stroke-width="1.5" stroke-linecap="round" stroke-linejoin="round"/>
</svg>
