<svg width="24" height="24" viewBox="0 0 24 24" fill="none" xmlns="http://www.w3.org/2000/svg">
<path d="M16.5019 13.1252H7.49812" stroke="black" stroke-width="1.5" stroke-linecap="round" stroke-linejoin="round"/>
<path fill-rule="evenodd" clip-rule="evenodd" d="M15.0012 16.5018H8.99875C8.60075 16.5018 8.21905 16.3437 7.93762 16.0623C7.65619 15.7809 7.49812 15.3992 7.49812 15.0012V8.99867C7.49812 8.60067 7.65619 8.21897 7.93762 7.93754C8.21905 7.65612 8.60075 7.49805 8.99875 7.49805H15.0012C15.3992 7.49805 15.781 7.65612 16.0624 7.93754C16.3438 8.21897 16.5019 8.60067 16.5019 8.99867V15.0012C16.5019 15.3992 16.3438 15.7809 16.0624 16.0623C15.781 16.3437 15.3992 16.5018 15.0012 16.5018Z" stroke="black" stroke-width="1.5" stroke-linecap="round" stroke-linejoin="round"/>
<circle cx="12" cy="11.9998" r="9.00375" stroke="black" stroke-width="1.5" stroke-linecap="round" stroke-linejoin="round"/>
<path d="M9.99916 10.4992H14.0008" stroke="black" stroke-width="1.5" stroke-linecap="round" stroke-linejoin="round"/>
</svg>
