<svg width="24" height="24" viewBox="0 0 24 24" fill="none" xmlns="http://www.w3.org/2000/svg">
<path fill-rule="evenodd" clip-rule="evenodd" d="M16.0017 21.0041H7.99833C5.23618 21.0041 2.99625 18.7641 2.99625 16.002V7.99867C2.99625 5.23651 5.23618 2.99658 7.99833 2.99658H16.0017C18.7638 2.99658 21.0037 5.23651 21.0037 7.99867V16.002C21.0037 18.7641 18.7638 21.0041 16.0017 21.0041Z" stroke="black" stroke-width="1.5" stroke-linecap="round" stroke-linejoin="round"/>
<path d="M17.1722 15.0014V11.823C17.1722 8.96684 14.8562 6.65088 12 6.65088V6.65088C9.14381 6.65088 6.82785 8.96684 6.82785 11.823V15.0014" stroke="black" stroke-width="1.5" stroke-linecap="round" stroke-linejoin="round"/>
<path fill-rule="evenodd" clip-rule="evenodd" d="M8.41351 17.0022V17.0022C7.53814 17.0022 6.82785 16.2919 6.82785 15.4166V13.99C6.82785 13.1146 7.53814 12.4043 8.41351 12.4043V12.4043C9.28887 12.4043 9.99917 13.1146 9.99917 13.99V15.4166C9.99917 16.2919 9.28887 17.0022 8.41351 17.0022Z" stroke="black" stroke-width="1.5" stroke-linecap="round" stroke-linejoin="round"/>
<path fill-rule="evenodd" clip-rule="evenodd" d="M15.5865 17.0022V17.0022C14.7111 17.0022 14.0008 16.2919 14.0008 15.4166V13.99C14.0008 13.1146 14.7111 12.4043 15.5865 12.4043V12.4043C16.4619 12.4043 17.1722 13.1146 17.1722 13.99V15.4166C17.1722 16.2919 16.4619 17.0022 15.5865 17.0022Z" stroke="black" stroke-width="1.5" stroke-linecap="round" stroke-linejoin="round"/>
</svg>
