<svg width="24" height="24" viewBox="0 0 24 24" fill="none" xmlns="http://www.w3.org/2000/svg">
<path d="M17.0021 1.99609C19.7646 1.99609 22.0042 4.2356 22.0042 6.99818" stroke="black" stroke-width="1.5" stroke-linecap="round" stroke-linejoin="round"/>
<path d="M17.0021 4.99707C18.1071 4.99707 19.0029 5.89287 19.0029 6.9979" stroke="black" stroke-width="1.5" stroke-linecap="round" stroke-linejoin="round"/>
<path d="M13.0004 2.99609H7.99833C5.23576 2.99609 2.99625 5.2356 2.99625 7.99818V16.0015C2.99625 18.7641 5.23576 21.0036 7.99833 21.0036H16.0017C18.7642 21.0036 21.0037 18.7641 21.0037 16.0015V10.9994" stroke="black" stroke-width="1.5" stroke-linecap="round" stroke-linejoin="round"/>
<rect x="7.03093" y="11.9668" width="3.04727" height="4.00167" rx="1.25" stroke="black" stroke-width="1.5" stroke-linecap="round" stroke-linejoin="round"/>
<rect x="13.9228" y="11.9668" width="3.04727" height="4.00167" rx="1.25" stroke="black" stroke-width="1.5" stroke-linecap="round" stroke-linejoin="round"/>
<path d="M16.9691 13.2176V11.9671C16.9691 9.22277 14.7443 6.99805 12 6.99805V6.99805C9.25566 6.99805 7.03093 9.22277 7.03093 11.9671V13.2176" stroke="black" stroke-width="1.5" stroke-linecap="round" stroke-linejoin="round"/>
</svg>
