<svg width="24" height="24" viewBox="0 0 24 24" fill="none" xmlns="http://www.w3.org/2000/svg">
<path d="M15.0073 4.7622C11.2545 3.05513 6.818 4.27756 4.46924 7.6658C2.12047 11.054 2.53235 15.6375 5.44755 18.5527C8.36276 21.4679 12.9462 21.8797 16.3344 19.531C19.7227 17.1822 20.9451 12.7457 19.238 8.99296" stroke="black" stroke-width="1.5" stroke-linecap="round" stroke-linejoin="round"/>
<path d="M19.0029 8.99845C16.7929 8.99845 15.0013 7.20684 15.0013 4.99678C15.0013 2.78672 16.7929 0.995117 19.0029 0.995117C21.213 0.995117 23.0046 2.78672 23.0046 4.99678C23.0046 6.05809 22.583 7.07593 21.8325 7.82639C21.0821 8.57685 20.0642 8.99845 19.0029 8.99845" stroke="black" stroke-width="1.5" stroke-linecap="round" stroke-linejoin="round"/>
<path d="M20.0894 4.95574C20.0713 4.95578 20.0551 4.96686 20.0485 4.98368C20.0419 5.0005 20.0462 5.01964 20.0595 5.03196C20.0727 5.04428 20.0921 5.04727 20.1084 5.0395C20.1247 5.03173 20.1346 5.01478 20.1334 4.99675C20.1334 4.97244 20.1137 4.95274 20.0894 4.95274" stroke="black" stroke-width="1.5" stroke-linecap="round" stroke-linejoin="round"/>
<path d="M17.9165 4.95575C17.8985 4.9562 17.8826 4.96753 17.8763 4.98437C17.87 5.00122 17.8746 5.02019 17.8879 5.03229C17.9012 5.0444 17.9205 5.04721 17.9367 5.03939C17.9529 5.03158 17.9627 5.0147 17.9615 4.99677C17.9615 4.98492 17.9567 4.97357 17.9482 4.96528C17.9398 4.957 17.9283 4.95248 17.9165 4.95275" stroke="black" stroke-width="1.5" stroke-linecap="round" stroke-linejoin="round"/>
<path fill-rule="evenodd" clip-rule="evenodd" d="M12.6903 15.5345C12.3678 15.8557 11.9309 16.0356 11.4758 16.0347V16.0347C11.0206 16.0356 10.5837 15.8557 10.2613 15.5345L8.20442 13.4776C7.36128 12.6345 7.36128 11.2675 8.20442 10.4243C9.04756 9.58121 10.4146 9.58121 11.2577 10.4243L11.4758 10.6414L11.6939 10.4243C12.537 9.58121 13.904 9.58121 14.7471 10.4243C15.5903 11.2675 15.5903 12.6345 14.7471 13.4776L12.6903 15.5345Z" stroke="black" stroke-width="1.5" stroke-linecap="round" stroke-linejoin="round"/>
</svg>
