<svg width="24" height="24" viewBox="0 0 24 24" fill="none" xmlns="http://www.w3.org/2000/svg">
<path fill-rule="evenodd" clip-rule="evenodd" d="M7.28514 11.1861C7.34228 12.3656 7.81255 13.4874 8.61359 14.355C9.25337 15.0981 10.0168 15.7251 10.8701 16.2082C11.6132 16.6227 12.5239 16.5959 13.2413 16.1383C14.0148 15.6439 14.7102 15.037 15.3047 14.3376C16.1205 13.4787 16.6181 12.3667 16.715 11.1861C16.7205 10.4837 16.4579 9.80571 15.9807 9.29037C15.522 8.79066 14.8765 8.5038 14.1982 8.49829C13.3466 8.43871 12.5236 8.81847 12.0162 9.50509L12.0001 9.52872L11.9838 9.50505C11.5221 8.85543 10.7676 8.47804 9.9709 8.49829C9.25457 8.48612 8.56403 8.76546 8.05763 9.27225C7.55123 9.77903 7.27242 10.4698 7.28514 11.1861V11.1861Z" stroke="black" stroke-width="1.5" stroke-linecap="round" stroke-linejoin="round"/>
<rect x="2.99625" y="2.99609" width="18.0075" height="18.0075" rx="5" stroke="black" stroke-width="1.5" stroke-linecap="round" stroke-linejoin="round"/>
</svg>
