<svg width="24" height="24" viewBox="0 0 24 24" fill="none" xmlns="http://www.w3.org/2000/svg">
<path d="M19.828 11.6859C21.39 13.2479 21.39 15.7809 19.828 17.3429C18.266 18.9049 15.733 18.9049 14.171 17.3429C12.609 15.7809 12.609 13.2479 14.171 11.6859C15.734 10.1229 18.266 10.1229 19.828 11.6859" stroke="black" stroke-width="1.5" stroke-linecap="round" stroke-linejoin="round"/>
<path d="M17.944 13.571L16.056 15.459" stroke="black" stroke-width="1.5" stroke-linecap="round" stroke-linejoin="round"/>
<path d="M17.944 15.452L16.063 13.571" stroke="black" stroke-width="1.5" stroke-linecap="round" stroke-linejoin="round"/>
<path d="M14.507 17.6361C12.887 18.8101 11.513 19.5141 11.453 19.5141C11.303 19.5141 3 15.1841 3 9.89608C3 7.28508 5.001 4.48608 7.978 4.48608C9.687 4.48608 10.805 5.34108 11.453 6.09208C12.101 5.34108 13.219 4.48608 14.928 4.48608C17.905 4.48608 19.906 7.28508 19.906 9.89608C19.906 10.4461 19.799 10.9821 19.637 11.5071" stroke="black" stroke-width="1.5" stroke-linecap="round" stroke-linejoin="round"/>
</svg>
