<svg width="24" height="24" viewBox="0 0 24 24" fill="none" xmlns="http://www.w3.org/2000/svg">
<path d="M15.0073 4.7622C11.2545 3.05513 6.818 4.27756 4.46923 7.6658C2.12047 11.054 2.53234 15.6375 5.44755 18.5527C8.36276 21.4679 12.9462 21.8797 16.3344 19.531C19.7226 17.1822 20.9451 12.7457 19.238 8.99296" stroke="black" stroke-width="1.5" stroke-linecap="round" stroke-linejoin="round"/>
<path fill-rule="evenodd" clip-rule="evenodd" d="M12.6903 15.5345C12.3676 15.8554 11.9309 16.0353 11.4758 16.0347V16.0347C11.0207 16.0353 10.5839 15.8554 10.2613 15.5345L8.20442 13.4776C7.36128 12.6345 7.36128 11.2675 8.20442 10.4243C9.04755 9.58121 10.4146 9.58121 11.2577 10.4243L11.4758 10.6414L11.6939 10.4243C12.537 9.58121 13.904 9.58121 14.7471 10.4243C15.5903 11.2675 15.5903 12.6345 14.7471 13.4776L12.6903 15.5345Z" stroke="black" stroke-width="1.5" stroke-linecap="round" stroke-linejoin="round"/>
<path d="M19.0029 8.99845C16.7929 8.99845 15.0013 7.20684 15.0013 4.99678C15.0013 2.78672 16.7929 0.995117 19.0029 0.995117C21.213 0.995117 23.0046 2.78672 23.0046 4.99678C23.0046 6.05809 22.583 7.07593 21.8325 7.82639C21.0821 8.57685 20.0642 8.99845 19.0029 8.99845" stroke="black" stroke-width="1.5" stroke-linecap="round" stroke-linejoin="round"/>
<path d="M20.3335 4.33008L18.6668 5.99777L17.6664 4.99736" stroke="black" stroke-width="1.5" stroke-linecap="round" stroke-linejoin="round"/>
</svg>
