<svg width="24" height="24" viewBox="0 0 24 24" fill="none" xmlns="http://www.w3.org/2000/svg">
<path fill-rule="evenodd" clip-rule="evenodd" d="M12.5091 5.9742L12 6.49112L11.4908 5.97412C10.5626 5.03106 9.29463 4.5 7.97135 4.5C6.64807 4.5 5.38014 5.03106 4.45185 5.97412V5.97412C2.51608 7.96337 2.51608 11.1322 4.45185 13.1215L9.8445 18.5971C10.413 19.1747 11.1896 19.5 12 19.5C12.8105 19.5 13.5871 19.1747 14.1556 18.5971L19.5482 13.1216C21.484 11.1323 21.484 7.96347 19.5482 5.97421V5.97421C18.6199 5.03112 17.352 4.50003 16.0287 4.50003C14.7053 4.50003 13.4374 5.03111 12.5091 5.9742Z" stroke="black" stroke-width="1.5" stroke-linecap="round" stroke-linejoin="round"/>
<path d="M13.2499 11L10.7501 13.4999" stroke="black" stroke-width="1.5" stroke-linecap="round" stroke-linejoin="round"/>
<path d="M10.7501 11L13.2499 13.4999" stroke="black" stroke-width="1.5" stroke-linecap="round" stroke-linejoin="round"/>
</svg>
