<svg width="24" height="24" viewBox="0 0 24 24" fill="none" xmlns="http://www.w3.org/2000/svg">
<path d="M5.16 6.15992C5.621 5.61992 6.146 5.13892 6.722 4.72192" stroke="black" stroke-width="1.5" stroke-linecap="round" stroke-linejoin="round"/>
<path d="M17 19.4819C15.57 20.4399 13.851 20.9999 12 20.9999C11.088 20.9999 10.209 20.8619 9.38 20.6099" stroke="black" stroke-width="1.5" stroke-linecap="round" stroke-linejoin="round"/>
<path d="M6.34899 19C5.06799 17.965 4.08399 16.583 3.52299 15" stroke="black" stroke-width="1.5" stroke-linecap="round" stroke-linejoin="round"/>
<path d="M3.523 9C3.19 9.94 3 10.946 3 12" stroke="black" stroke-width="1.5" stroke-linecap="round" stroke-linejoin="round"/>
<path d="M19.463 17C20.427 15.569 21 13.855 21 12C21 7.029 16.971 3 12 3" stroke="black" stroke-width="1.5" stroke-linecap="round" stroke-linejoin="round"/>
<path fill-rule="evenodd" clip-rule="evenodd" d="M13.643 9C15.054 9 16 10.304 16 11.518C16 13.982 12.072 16 12 16C11.928 16 8 13.982 8 11.518C8 10.304 8.947 9 10.357 9C11.163 9 11.693 9.396 12 9.749C12.306 9.396 12.836 9 13.643 9Z" stroke="black" stroke-width="1.5" stroke-linecap="round" stroke-linejoin="round"/>
</svg>
