<svg width="24" height="24" viewBox="0 0 24 24" fill="none" xmlns="http://www.w3.org/2000/svg">
<path d="M19.8284 11.6855C21.3905 13.2476 21.3905 15.7803 19.8284 17.3423C18.2663 18.9044 15.7336 18.9044 14.1715 17.3423C12.6094 15.7802 12.6094 13.2476 14.1715 11.6855C15.7336 10.1234 18.2663 10.1234 19.8284 11.6855" stroke="black" stroke-width="1.5" stroke-linecap="round" stroke-linejoin="round"/>
<path d="M17 13.1799V15.8499" stroke="black" stroke-width="1.5" stroke-linecap="round" stroke-linejoin="round"/>
<path d="M18.33 14.51H15.67" stroke="black" stroke-width="1.5" stroke-linecap="round" stroke-linejoin="round"/>
<path d="M14.507 17.6361C12.887 18.8101 11.513 19.5141 11.453 19.5141C11.303 19.5141 3 15.1841 3 9.89608C3 7.28508 5.001 4.48608 7.978 4.48608C9.687 4.48608 10.805 5.34108 11.453 6.09208C12.101 5.34108 13.219 4.48608 14.928 4.48608C17.905 4.48608 19.906 7.28508 19.906 9.89608C19.906 10.4461 19.799 10.9821 19.637 11.5071" stroke="black" stroke-width="1.5" stroke-linecap="round" stroke-linejoin="round"/>
</svg>
