<svg width="24" height="24" viewBox="0 0 24 24" fill="none" xmlns="http://www.w3.org/2000/svg">
<path d="M20.7729 14.0006C21.678 10.0747 19.8734 6.0241 16.3494 4.07142C12.8253 2.11874 8.43413 2.73623 5.58529 5.58507C2.73645 8.43391 2.11895 12.8251 4.07163 16.3492C6.02431 19.8732 10.0749 21.6778 14.0008 20.7727" stroke="black" stroke-width="1.5" stroke-linecap="round" stroke-linejoin="round"/>
<path d="M18.7519 17.252V20.2532" stroke="black" stroke-width="1.5" stroke-linecap="round" stroke-linejoin="round"/>
<path d="M17.2522 18.7522H20.2534" stroke="black" stroke-width="1.5" stroke-linecap="round" stroke-linejoin="round"/>
<path fill-rule="evenodd" clip-rule="evenodd" d="M13.5557 15.8581C13.143 16.2706 12.5834 16.5024 12 16.5024V16.5024C11.4166 16.5024 10.857 16.2706 10.4444 15.8581L7.80826 13.222C6.72781 12.1416 6.72781 10.3899 7.80826 9.30942C8.8887 8.22898 10.6404 8.22898 11.7209 9.30942L12 9.58853L12.2791 9.30942C12.978 8.61049 13.9967 8.33753 14.9515 8.59336C15.9062 8.84918 16.652 9.59492 16.9078 10.5497C17.1636 11.5044 16.8907 12.5231 16.1917 13.222L13.5557 15.8581Z" stroke="black" stroke-width="1.5" stroke-linecap="round" stroke-linejoin="round"/>
</svg>
