<svg width="24" height="24" viewBox="0 0 24 24" fill="none" xmlns="http://www.w3.org/2000/svg">
<path d="M19.8313 11.6859C21.3939 13.2486 21.3939 15.7826 19.8313 17.3453C18.2686 18.9079 15.7346 18.9079 14.1719 17.3453C12.6093 15.7826 12.6093 13.2486 14.1719 11.6859C15.7356 10.1223 18.2686 10.1223 19.8313 11.6859" stroke="black" stroke-width="1.5" stroke-linecap="round" stroke-linejoin="round"/>
<path d="M18.3326 14.511H15.6715" stroke="black" stroke-width="1.5" stroke-linecap="round" stroke-linejoin="round"/>
<path d="M14.508 17.6384C12.8874 18.8129 11.5128 19.5172 11.4528 19.5172C11.3027 19.5172 2.99625 15.1854 2.99625 9.89516C2.99625 7.28308 4.99809 4.48291 7.97633 4.48291C9.68604 4.48291 10.8045 5.33827 11.4528 6.08958C12.101 5.33827 13.2195 4.48291 14.9292 4.48291C17.9075 4.48291 19.9093 7.28308 19.9093 9.89516C19.9093 10.4454 19.8023 10.9816 19.6402 11.5068" stroke="black" stroke-width="1.5" stroke-linecap="round" stroke-linejoin="round"/>
</svg>
