<svg width="24" height="24" viewBox="0 0 24 24" fill="none" xmlns="http://www.w3.org/2000/svg">
<path d="M7.99834 17.502L9.99917 19.5028L7.99834 21.5036" stroke="black" stroke-width="1.5" stroke-linecap="round" stroke-linejoin="round"/>
<path d="M9.99917 19.5031H3.99667" stroke="black" stroke-width="1.5" stroke-linecap="round" stroke-linejoin="round"/>
<path d="M13.9983 20.2772C17.7387 19.4256 20.5285 16.2972 20.9478 12.4841C21.3671 8.67096 19.3239 5.01103 15.858 3.36696C12.392 1.72288 8.265 2.45591 5.57723 5.19298C2.88946 7.93005 2.23156 12.0697 3.93836 15.5052" stroke="black" stroke-width="1.5" stroke-linecap="round" stroke-linejoin="round"/>
<path fill-rule="evenodd" clip-rule="evenodd" d="M13.2445 14.8865C12.9144 15.2165 12.4668 15.4019 12 15.4019V15.4019C11.5332 15.4019 11.0856 15.2165 10.7555 14.8865L8.64661 12.7776C8.08563 12.2188 7.86587 11.403 8.07029 10.638C8.27472 9.87308 8.87219 9.27561 9.63713 9.07119C10.4021 8.86676 11.2179 9.08652 11.7767 9.6475L12 9.87079L12.2233 9.6475C12.7821 9.08652 13.5979 8.86676 14.3629 9.07119C15.1278 9.27561 15.7253 9.87308 15.9297 10.638C16.1341 11.403 15.9144 12.2188 15.3534 12.7776L13.2445 14.8865Z" stroke="black" stroke-width="1.5" stroke-linecap="round" stroke-linejoin="round"/>
</svg>
