<svg width="24" height="24" viewBox="0 0 24 24" fill="none" xmlns="http://www.w3.org/2000/svg">
<path d="M19.0029 8.99845C16.7929 8.99845 15.0013 7.20684 15.0013 4.99678C15.0013 2.78672 16.7929 0.995117 19.0029 0.995117C21.213 0.995117 23.0046 2.78672 23.0046 4.99678C23.0046 6.05809 22.583 7.07593 21.8325 7.82639C21.0821 8.57685 20.0642 8.99845 19.0029 8.99845" stroke="black" stroke-width="1.5" stroke-linecap="round" stroke-linejoin="round"/>
<path d="M15.0012 4.75578C11.2509 3.05621 6.82179 4.28125 4.47783 7.66641C2.13387 11.0516 2.54557 15.6285 5.45603 18.541C8.36649 21.4535 12.9431 21.8685 16.3299 19.5269C19.7168 17.1853 20.9449 12.7571 19.248 9.00555" stroke="black" stroke-width="1.5" stroke-linecap="round" stroke-linejoin="round"/>
<path d="M19.0029 8.99845C16.7929 8.99845 15.0013 7.20684 15.0013 4.99678C15.0013 2.78672 16.7929 0.995117 19.0029 0.995117C21.213 0.995117 23.0046 2.78672 23.0046 4.99678C23.0046 6.05809 22.583 7.07593 21.8325 7.82639C21.0821 8.57685 20.0642 8.99845 19.0029 8.99845" stroke="black" stroke-width="1.5" stroke-linecap="round" stroke-linejoin="round"/>
<path d="M20.4175 4.99728H17.5883" stroke="black" stroke-width="1.5" stroke-linecap="round" stroke-linejoin="round"/>
<path d="M19.0029 3.58301V6.41219" stroke="black" stroke-width="1.5" stroke-linecap="round" stroke-linejoin="round"/>
<path fill-rule="evenodd" clip-rule="evenodd" d="M12.6903 15.5345C12.3678 15.8556 11.9309 16.0355 11.4758 16.0347V16.0347C11.0206 16.0355 10.5838 15.8556 10.2613 15.5345L8.20441 13.4776C7.36127 12.6345 7.36127 11.2675 8.20441 10.4243C9.04754 9.58121 10.4145 9.58121 11.2577 10.4243L11.4758 10.6414L11.6939 10.4243C12.537 9.58121 13.904 9.58121 14.7471 10.4243C15.5903 11.2675 15.5903 12.6345 14.7471 13.4776L12.6903 15.5345Z" stroke="black" stroke-width="1.5" stroke-linecap="round" stroke-linejoin="round"/>
</svg>
