<svg width="24" height="24" viewBox="0 0 24 24" fill="none" xmlns="http://www.w3.org/2000/svg">
<path d="M20.7693 13.9999C21.674 10.0756 19.8701 6.02672 16.3476 4.07485C12.825 2.12298 8.43562 2.74022 5.58797 5.58788C2.74031 8.43553 2.12308 12.8249 4.07494 16.3475C6.02681 19.87 10.0757 21.6739 14 20.7692" stroke="black" stroke-width="1.5" stroke-linecap="round" stroke-linejoin="round"/>
<path d="M19.8738 17.625L17.6246 19.8742" stroke="black" stroke-width="1.5" stroke-linecap="round" stroke-linejoin="round"/>
<path d="M17.5006 17.499L20.0006 19.999" stroke="black" stroke-width="1.5" stroke-linecap="round" stroke-linejoin="round"/>
<path fill-rule="evenodd" clip-rule="evenodd" d="M13.555 15.8561C13.1425 16.2683 12.5832 16.5 12 16.5001V16.5001C11.4168 16.5 10.8575 16.2683 10.445 15.8561L7.80999 13.2211C6.73 12.1411 6.73 10.3901 7.80999 9.31006C8.88999 8.23006 10.641 8.23006 11.721 9.31006L12 9.58906L12.279 9.31006C12.9776 8.61142 13.9959 8.33858 14.9503 8.59429C15.9046 8.85001 16.65 9.59544 16.9058 10.5498C17.1615 11.5041 16.8886 12.5224 16.19 13.2211L13.555 15.8561Z" stroke="black" stroke-width="1.5" stroke-linecap="round" stroke-linejoin="round"/>
</svg>
