<svg width="24" height="24" viewBox="0 0 24 24" fill="none" xmlns="http://www.w3.org/2000/svg">
<path fill-rule="evenodd" clip-rule="evenodd" d="M11.1736 16.7499C11.6733 17.086 12.3267 17.086 12.8263 16.7499L13.4526 16.3297C14.7953 15.4281 15.9488 14.2726 16.848 12.9283C17.45 12.028 17.5697 10.8889 17.1681 9.88305C16.8383 9.05798 16.1621 8.41985 15.3194 8.13832C14.2422 7.77931 13.0556 8.13469 12.3531 9.02669L12 9.47288L11.6468 9.02469C10.9444 8.13269 9.75776 7.77731 8.68061 8.13632C7.83784 8.41785 7.16165 9.05598 6.83184 9.88105C6.43024 10.8869 6.54999 12.026 7.15197 12.9263C8.05122 14.2706 9.20467 15.4261 10.5474 16.3277L11.1736 16.7499Z" stroke="black" stroke-width="1.5" stroke-linecap="round" stroke-linejoin="round"/>
<rect x="2.99625" y="2.99658" width="18.0075" height="18.0075" rx="5" stroke="black" stroke-width="1.5" stroke-linecap="round" stroke-linejoin="round"/>
</svg>
