<svg width="24" height="24" viewBox="0 0 24 24" fill="none" xmlns="http://www.w3.org/2000/svg">
<path fill-rule="evenodd" clip-rule="evenodd" d="M18.9879 8.43559C18.6269 8.79615 18.1376 8.99873 17.6273 8.99882V8.99882C17.1171 8.99873 16.6278 8.79615 16.2668 8.43559L13.9598 6.12863C13.0389 5.17919 13.0504 3.66637 13.9857 2.73107C14.921 1.79577 16.4338 1.78425 17.3832 2.7052L17.6273 2.9493L17.8714 2.7052C18.8209 1.78425 20.3337 1.79577 21.269 2.73107C22.2043 3.66637 22.2158 5.17919 21.2949 6.12863L18.9879 8.43559Z" stroke="black" stroke-width="1.5" stroke-linecap="round" stroke-linejoin="round"/>
<path d="M21.0037 10.9999V16.002C21.0037 18.7646 18.7642 21.0041 16.0017 21.0041H7.99833C5.23576 21.0041 2.99625 18.7646 2.99625 16.002V7.99867C2.99625 5.23609 5.23576 2.99658 7.99833 2.99658H9.99916" stroke="black" stroke-width="1.5" stroke-linecap="round" stroke-linejoin="round"/>
</svg>
