<svg width="24" height="24" viewBox="0 0 24 24" fill="none" xmlns="http://www.w3.org/2000/svg">
<path d="M13 20.938C12.6683 20.9791 12.3343 20.9998 12 21C7.02944 21 3 16.9706 3 12C3 7.02944 7.02944 3 12 3C16.9706 3 21 7.02944 21 12C20.9998 12.3343 20.9791 12.6683 20.938 13" stroke="black" stroke-width="1.5" stroke-linecap="round" stroke-linejoin="round"/>
<path d="M20 17L17.5 19.5L16 18" stroke="black" stroke-width="1.5" stroke-linecap="round" stroke-linejoin="round"/>
<path fill-rule="evenodd" clip-rule="evenodd" d="M11.7739 9.90748L12 10.1371L12.2261 9.90745C12.6376 9.48699 13.201 9.25 13.7893 9.25C14.3776 9.25 14.9411 9.48699 15.3525 9.90745V9.90745C16.2158 10.7895 16.2158 12.1999 15.3525 13.0819L13.2374 15.2296C12.9117 15.5624 12.4657 15.75 12 15.75C11.5343 15.75 11.0882 15.5624 10.7625 15.2296L8.6475 13.082C7.78417 12.1999 7.78417 10.7896 8.6475 9.90748V9.90748C9.05894 9.48701 9.62241 9.25002 10.2107 9.25002C10.799 9.25002 11.3625 9.48701 11.7739 9.90748Z" stroke="black" stroke-width="1.5" stroke-linecap="round" stroke-linejoin="round"/>
</svg>
