<svg width="24" height="24" viewBox="0 0 24 24" fill="none" xmlns="http://www.w3.org/2000/svg">
<path fill-rule="evenodd" clip-rule="evenodd" d="M17 13.65V11.07C17 10.2042 16.6064 9.38538 15.9304 8.84453L13.7804 7.12453C12.7395 6.29182 11.2605 6.29182 10.2196 7.12453L8.07229 8.8424C7.39454 9.38461 7 10.2055 7 11.0735V13.65C7 15.224 8.27599 16.5 9.85 16.5H14.15C15.724 16.5 17 15.224 17 13.65V13.65Z" stroke="black" stroke-width="1.5" stroke-linecap="round" stroke-linejoin="round"/>
<path fill-rule="evenodd" clip-rule="evenodd" d="M12 21C16.9706 21 21 16.9706 21 12C21 7.02944 16.9706 3 12 3C7.02944 3 3 7.02944 3 12C3 16.9706 7.02944 21 12 21V21Z" stroke="black" stroke-width="1.5" stroke-linecap="round" stroke-linejoin="round"/>
</svg>
