<svg width="24" height="24" viewBox="0 0 24 24" fill="none" xmlns="http://www.w3.org/2000/svg">
<path fill-rule="evenodd" clip-rule="evenodd" d="M19.8453 8.29755L13.8428 3.62861C12.759 2.78526 11.241 2.78526 10.1572 3.62861L4.15474 8.29755C3.42353 8.866 2.99595 9.74037 2.99625 10.6665V18.0026C2.99625 18.7986 3.31239 19.562 3.87524 20.1249C4.4381 20.6877 5.20151 21.0038 5.9975 21.0038H18.0025C18.7985 21.0038 19.5619 20.6877 20.1248 20.1249C20.6876 19.562 21.0038 18.7986 21.0038 18.0026V10.6665C21.0041 9.74037 20.5765 8.866 19.8453 8.29755Z" stroke="black" stroke-width="1.5" stroke-linecap="round" stroke-linejoin="round"/>
<path d="M16.2518 14.0012C16.2518 14.1393 16.1398 14.2513 16.0017 14.2513C15.8635 14.2513 15.7516 14.1393 15.7516 14.0012C15.7516 13.8631 15.8635 13.7511 16.0017 13.7511" stroke="black" stroke-width="1.5" stroke-linecap="round" stroke-linejoin="round"/>
<path d="M16.0017 13.7511C16.1398 13.7511 16.2518 13.8631 16.2518 14.0012" stroke="black" stroke-width="1.5" stroke-linecap="round" stroke-linejoin="round"/>
<path d="M12.2501 14.0012C12.2501 14.1393 12.1381 14.2513 12 14.2513C11.8619 14.2513 11.7499 14.1393 11.7499 14.0012C11.7499 13.8631 11.8619 13.7511 12 13.7511" stroke="black" stroke-width="1.5" stroke-linecap="round" stroke-linejoin="round"/>
<path d="M12 13.7511C12.1381 13.7511 12.2501 13.8631 12.2501 14.0012" stroke="black" stroke-width="1.5" stroke-linecap="round" stroke-linejoin="round"/>
<path d="M8.24844 14.0012C8.24844 14.1393 8.13647 14.2513 7.99834 14.2513C7.86021 14.2513 7.74823 14.1393 7.74823 14.0012C7.74823 13.8631 7.86021 13.7511 7.99834 13.7511" stroke="black" stroke-width="1.5" stroke-linecap="round" stroke-linejoin="round"/>
<path d="M7.99833 13.7511C8.13646 13.7511 8.24844 13.8631 8.24844 14.0012" stroke="black" stroke-width="1.5" stroke-linecap="round" stroke-linejoin="round"/>
</svg>
