<svg width="24" height="24" viewBox="0 0 24 24" fill="none" xmlns="http://www.w3.org/2000/svg">
<path d="M18.2186 20.8627C19.8763 20.8627 21.2198 19.5192 21.2198 17.8615V10.5254C21.2198 9.59904 20.7927 8.72467 20.0614 8.15644L14.0589 3.48749C12.9754 2.64414 11.4578 2.64414 10.3733 3.48749L4.37082 8.15644C3.63952 8.72467 3.21234 9.59904 3.21234 10.5254V17.8615C3.21234 19.5192 4.5559 20.8627 6.21359 20.8627" stroke="black" stroke-width="1.5" stroke-linecap="round" stroke-linejoin="round"/>
<path d="M18.2186 20.8625H6.21359" stroke="black" stroke-width="1.5" stroke-linecap="round" stroke-linejoin="round"/>
<path d="M10.2153 10.8584V11.8588" stroke="black" stroke-width="1.5" stroke-linecap="round" stroke-linejoin="round"/>
<path d="M14.2169 10.8584V11.8588" stroke="black" stroke-width="1.5" stroke-linecap="round" stroke-linejoin="round"/>
<path d="M15.7175 15.5483C15.7175 15.5483 14.405 16.8609 12.2161 16.8609C10.0272 16.8609 8.71463 15.5483 8.71463 15.5483" stroke="black" stroke-width="1.5" stroke-linecap="round" stroke-linejoin="round"/>
</svg>
