<svg width="24" height="24" viewBox="0 0 24 24" fill="none" xmlns="http://www.w3.org/2000/svg">
<path d="M12.05 13.0001C12.05 13.0277 12.0276 13.05 12 13.05C11.9724 13.05 11.95 13.0276 11.95 13C11.95 12.9724 11.9723 12.95 11.9999 12.95C12.0132 12.95 12.026 12.9553 12.0354 12.9646C12.0447 12.974 12.05 12.9868 12.05 13.0001" stroke="black" stroke-width="1.5" stroke-linecap="round" stroke-linejoin="round"/>
<path fill-rule="evenodd" clip-rule="evenodd" d="M16 21H8C5.23858 21 3 18.7614 3 16V11.2C3.00001 9.68108 3.69046 8.24453 4.87653 7.29568L8.87653 4.09568C10.7026 2.63477 13.2974 2.63477 15.1235 4.09568L19.1235 7.29568C20.3096 8.24455 21 9.68109 21 11.2V16C21 18.7614 18.7614 21 16 21Z" stroke="black" stroke-width="1.5" stroke-linecap="round" stroke-linejoin="round"/>
<path d="M15.55 13.0001C15.55 13.0277 15.5276 13.05 15.5 13.05C15.4724 13.05 15.45 13.0276 15.45 13C15.45 12.9724 15.4723 12.95 15.4999 12.95C15.5132 12.95 15.526 12.9553 15.5354 12.9646C15.5447 12.974 15.55 12.9868 15.55 13.0001" stroke="black" stroke-width="1.5" stroke-linecap="round" stroke-linejoin="round"/>
<path d="M8.55 13.0001C8.54997 13.0277 8.52758 13.05 8.49998 13.05C8.47239 13.05 8.45001 13.0276 8.45 13C8.44999 12.9724 8.47233 12.95 8.49993 12.95C8.51321 12.95 8.52596 12.9552 8.53535 12.9646C8.54475 12.974 8.55002 12.9868 8.55 13.0001" stroke="black" stroke-width="1.5" stroke-linecap="round" stroke-linejoin="round"/>
</svg>
