<svg width="24" height="24" viewBox="0 0 24 24" fill="none" xmlns="http://www.w3.org/2000/svg">
<path fill-rule="evenodd" clip-rule="evenodd" d="M16.0683 3.21875C18.8298 3.21875 21.0683 5.45733 21.0683 8.21875L21.0683 16.2187C21.0683 18.9802 18.8298 21.2188 16.0683 21.2188L8.06834 21.2188C5.30691 21.2188 3.06833 18.9802 3.06833 16.2188L3.06833 8.21876C3.06833 5.45733 5.30691 3.21876 8.06833 3.21875L16.0683 3.21875Z" stroke="black" stroke-width="1.5" stroke-linecap="round" stroke-linejoin="round"/>
<path fill-rule="evenodd" clip-rule="evenodd" d="M17.1295 14.3004V11.7204C17.1295 10.8546 16.736 10.0358 16.0599 9.49492L13.9099 7.77492C12.869 6.94221 11.39 6.94221 10.3491 7.77492L8.20181 9.49279C7.52407 10.035 7.12953 10.8559 7.12952 11.7238V14.3004C7.12952 15.8744 8.4055 17.1504 9.97952 17.1504H14.2795C15.8535 17.1504 17.1295 15.8744 17.1295 14.3004V14.3004Z" stroke="black" stroke-width="1.5" stroke-linecap="round" stroke-linejoin="round"/>
</svg>
