<svg width="24" height="24" viewBox="0 0 24 24" fill="none" xmlns="http://www.w3.org/2000/svg">
<path fill-rule="evenodd" clip-rule="evenodd" d="M12.5862 21.004H9.99916V18.4169C9.99916 18.1516 10.1047 17.8972 10.2923 17.7096L14.2939 13.7079C14.6846 13.3174 15.3179 13.3174 15.7085 13.7079L17.2952 15.2946C17.6857 15.6853 17.6857 16.3185 17.2952 16.7092L13.2935 20.7109C13.106 20.8985 12.8515 21.004 12.5862 21.004Z" stroke="black" stroke-width="1.5" stroke-linecap="round" stroke-linejoin="round"/>
<path d="M17.0021 21.0037H18.0025C19.66 21.0037 21.0037 19.6599 21.0037 18.0024V10.6663C21.0035 9.74059 20.576 8.86677 19.8453 8.29836L13.8428 3.62942C12.7589 2.78629 11.2411 2.78629 10.1572 3.62942L4.15473 8.29836C3.42402 8.86677 2.99653 9.74059 2.99625 10.6663V18.0024C2.99625 19.6599 4.33995 21.0037 5.9975 21.0037H6.99791" stroke="black" stroke-width="1.5" stroke-linecap="round" stroke-linejoin="round"/>
</svg>
