<svg width="24" height="24" viewBox="0 0 24 24" fill="none" xmlns="http://www.w3.org/2000/svg">
<path d="M18.364 5.63604C21.8787 9.15076 21.8787 14.8492 18.364 18.3639C14.8493 21.8787 9.1508 21.8787 5.6361 18.3639C2.12138 14.8492 2.12138 9.15074 5.6361 5.63604C9.15082 2.12132 14.8493 2.12132 18.364 5.63604" stroke="black" stroke-width="1.5" stroke-linecap="round" stroke-linejoin="round"/>
<path fill-rule="evenodd" clip-rule="evenodd" d="M15.664 9.40408L12.573 7.24008C12.229 6.99908 11.77 6.99908 11.426 7.24008L8.336 9.40308C8.068 9.59008 7.909 9.89608 7.909 10.2231V15.0001C7.909 15.5521 8.357 16.0001 8.909 16.0001H15.091C15.643 16.0001 16.091 15.5521 16.091 15.0001V10.2231C16.091 9.89708 15.932 9.59108 15.664 9.40408V9.40408Z" stroke="black" stroke-width="1.5" stroke-linecap="round" stroke-linejoin="round"/>
</svg>
