<svg width="24" height="24" viewBox="0 0 24 24" fill="none" xmlns="http://www.w3.org/2000/svg">
<path fill-rule="evenodd" clip-rule="evenodd" d="M18.0165 18.9032L4.789 14.5284C4.01939 14.2766 3.49821 13.5594 3.49646 12.7497V10.2486C3.49908 9.43963 4.02008 8.72344 4.789 8.4719L18.0165 4.09708C18.5901 3.90458 19.2213 3.99885 19.7136 4.35057C20.2059 4.70228 20.4997 5.26877 20.5035 5.87382V17.1265C20.4997 17.7315 20.2059 18.298 19.7136 18.6498C19.2213 19.0015 18.5901 19.0957 18.0165 18.9032Z" stroke="black" stroke-width="1.5" stroke-linecap="round" stroke-linejoin="round"/>
<path d="M8.31045 15.6934C8.1076 16.0999 8.00081 16.5476 7.99832 17.0019C8.0089 18.5432 9.18532 19.826 10.72 19.9695C12.2547 20.1131 13.6486 19.0708 13.9448 17.5581" stroke="black" stroke-width="1.5" stroke-linecap="round" stroke-linejoin="round"/>
<path d="M8.31046 15.6934L13.9448 17.5581" stroke="black" stroke-width="1.5" stroke-linecap="round" stroke-linejoin="round"/>
</svg>
