<svg width="24" height="24" viewBox="0 0 24 24" fill="none" xmlns="http://www.w3.org/2000/svg">
<circle cx="12" cy="11.9998" r="9.00375" stroke="black" stroke-width="1.5" stroke-linecap="round" stroke-linejoin="round"/>
<path fill-rule="evenodd" clip-rule="evenodd" d="M14.6851 15.6386L7.68219 13.3226C7.27473 13.1895 6.99876 12.8099 6.99791 12.3812V11.0577C6.99876 10.629 7.27473 10.2494 7.68219 10.1163L14.6851 7.80031C14.9887 7.69917 15.3224 7.74938 15.5828 7.93537C15.8432 8.12137 15.9989 8.42071 16.0017 8.7407V14.7012C15.9956 15.2494 15.5495 15.6906 15.0012 15.6906C14.8937 15.691 14.7869 15.6734 14.6851 15.6386V15.6386Z" stroke="black" stroke-width="1.5" stroke-linecap="round" stroke-linejoin="round"/>
<path d="M9.52696 13.9326C9.12581 14.5828 9.16611 15.4127 9.62837 16.021C10.0906 16.6292 10.8795 16.8902 11.6133 16.6778C12.3471 16.4653 12.8746 15.8232 12.9404 15.0621" stroke="black" stroke-width="1.5" stroke-linecap="round" stroke-linejoin="round"/>
</svg>
