<svg width="24" height="24" viewBox="0 0 24 24" fill="none" xmlns="http://www.w3.org/2000/svg">
<path fill-rule="evenodd" clip-rule="evenodd" d="M12.7919 14.3158L10.1334 15.0281C9.49543 15.199 8.81568 15.1095 8.24369 14.7793C7.6717 14.4491 7.25433 13.9051 7.08338 13.2672V13.2672C6.91244 12.6292 7.00193 11.9494 7.33216 11.3774C7.6624 10.8055 8.20634 10.3881 8.84431 10.2171L11.5028 9.50484C11.6528 9.46464 11.7914 9.39007 11.9076 9.28702L13.8581 7.55748C14.1164 7.32843 14.4749 7.24945 14.8055 7.34876C15.1362 7.44806 15.3918 7.71149 15.4812 8.04496L16.9672 13.591C17.0566 13.9244 16.9669 14.2804 16.7302 14.5317C16.4935 14.7831 16.1435 14.8939 15.8053 14.8247L13.2513 14.3021C13.0992 14.2709 12.9419 14.2756 12.7919 14.3158Z" stroke="black" stroke-width="1.5" stroke-linecap="round" stroke-linejoin="round"/>
<circle cx="12" cy="11.9998" r="9.00375" stroke="black" stroke-width="1.5" stroke-linecap="round" stroke-linejoin="round"/>
<path d="M9.76135 9.98535L11.6112 16.6942" stroke="black" stroke-width="1.5" stroke-linecap="round" stroke-linejoin="round"/>
</svg>
