<svg width="24" height="24" viewBox="0 0 24 24" fill="none" xmlns="http://www.w3.org/2000/svg">
<rect x="3" y="3" width="18" height="18" rx="5" stroke="black" stroke-width="1.5" stroke-linecap="round" stroke-linejoin="round"/>
<path d="M8.70369 13.4756L9.75053 16.117C9.96178 16.65 10.477 17.0001 11.0504 17.0001V17.0001C11.513 17.0001 11.9457 16.7713 12.2061 16.3889C12.4665 16.0066 12.5209 15.5202 12.3515 15.0898L11.7259 13.5001" stroke="black" stroke-width="1.5" stroke-linecap="round" stroke-linejoin="round"/>
<path d="M13 8.49922L15.5209 7.12322C15.8307 6.9541 16.2068 6.96086 16.5103 7.141C16.8139 7.32115 17 7.64799 17 8.00098V13.9981C17 14.3511 16.8139 14.6779 16.5103 14.8581C16.2068 15.0382 15.8307 15.045 15.5209 14.8759L13 13.4999" stroke="black" stroke-width="1.5" stroke-linecap="round" stroke-linejoin="round"/>
<path fill-rule="evenodd" clip-rule="evenodd" d="M9 8.5H13V13.5H9C7.89543 13.5 7 12.6046 7 11.5V10.5C7 9.39543 7.89543 8.5 9 8.5Z" stroke="black" stroke-width="1.5" stroke-linecap="round" stroke-linejoin="round"/>
</svg>
