<svg width="24" height="24" viewBox="0 0 24 24" fill="none" xmlns="http://www.w3.org/2000/svg">
<path fill-rule="evenodd" clip-rule="evenodd" d="M12.7919 14.3158L10.1334 15.0281C9.49545 15.199 8.8157 15.1095 8.24371 14.7793C7.67172 14.4491 7.25434 13.9051 7.0834 13.2672V13.2672C6.91245 12.6292 7.00194 11.9494 7.33218 11.3774C7.66242 10.8055 8.20635 10.3881 8.84432 10.2171L11.5028 9.50484C11.6528 9.46464 11.7914 9.39007 11.9076 9.28702L13.8581 7.55748C14.1164 7.32843 14.4749 7.24945 14.8055 7.34876C15.1362 7.44806 15.3918 7.71149 15.4812 8.04496L16.9672 13.591C17.0566 13.9244 16.9669 14.2804 16.7302 14.5317C16.4935 14.7831 16.1436 14.8939 15.8053 14.8247L13.2514 14.3021C13.0992 14.2709 12.9419 14.2756 12.7919 14.3158Z" stroke="black" stroke-width="1.5" stroke-linecap="round" stroke-linejoin="round"/>
<rect x="2.99625" y="2.99609" width="18.0075" height="18.0075" rx="4" stroke="black" stroke-width="1.5" stroke-linecap="round" stroke-linejoin="round"/>
<path d="M9.76136 9.98535L11.6112 16.6942" stroke="black" stroke-width="1.5" stroke-linecap="round" stroke-linejoin="round"/>
</svg>
