<svg width="24" height="24" viewBox="0 0 24 24" fill="none" xmlns="http://www.w3.org/2000/svg">
<path d="M6.99792 9.85645V14.1432" stroke="black" stroke-width="1.5" stroke-linecap="round" stroke-linejoin="round"/>
<path d="M12.113 9.85742H10.9226C10.3966 9.85742 9.97015 10.2838 9.97015 10.8098V13.1908C9.97015 13.7168 10.3966 14.1432 10.9226 14.1432H12.113" stroke="black" stroke-width="1.5" stroke-linecap="round" stroke-linejoin="round"/>
<path fill-rule="evenodd" clip-rule="evenodd" d="M16.3938 14.2509H15.6435C15.091 14.2509 14.6431 13.803 14.6431 13.2505V10.7494C14.6431 10.1969 15.091 9.74902 15.6435 9.74902H16.3938C16.9463 9.74902 17.3942 10.1969 17.3942 10.7494V13.2505C17.3942 13.803 16.9463 14.2509 16.3938 14.2509Z" stroke="black" stroke-width="1.5" stroke-linecap="round" stroke-linejoin="round"/>
<path fill-rule="evenodd" clip-rule="evenodd" d="M2.99625 16.0015V7.99818C2.99625 5.2356 5.23576 2.99609 7.99833 2.99609H16.0017C18.7642 2.99609 21.0037 5.2356 21.0037 7.99818V16.0015C21.0037 18.7641 18.7642 21.0036 16.0017 21.0036H7.99833C5.23576 21.0036 2.99625 18.7641 2.99625 16.0015Z" stroke="black" stroke-width="1.5" stroke-linecap="round" stroke-linejoin="round"/>
</svg>
