<svg width="24" height="24" viewBox="0 0 24 24" fill="none" xmlns="http://www.w3.org/2000/svg">
<path d="M6.99792 9.85645V14.1432" stroke="black" stroke-width="1.5" stroke-linecap="round" stroke-linejoin="round"/>
<path fill-rule="evenodd" clip-rule="evenodd" d="M12 21.0036V21.0036C7.02737 21.0036 2.99625 16.9725 2.99625 11.9998V11.9998C2.99625 7.02721 7.02737 2.99609 12 2.99609V2.99609C16.9726 2.99609 21.0038 7.02721 21.0038 11.9998V11.9998C21.0038 16.9725 16.9726 21.0036 12 21.0036V21.0036Z" stroke="black" stroke-width="1.5" stroke-linecap="round" stroke-linejoin="round"/>
<path d="M12.113 9.85645H10.9226C10.3964 9.857 9.97015 10.2837 9.97015 10.8098V13.1908C9.97015 13.7168 10.3966 14.1432 10.9226 14.1432H12.113" stroke="black" stroke-width="1.5" stroke-linecap="round" stroke-linejoin="round"/>
<path fill-rule="evenodd" clip-rule="evenodd" d="M16.3938 14.2509H15.6435C15.091 14.2509 14.6431 13.803 14.6431 13.2505V10.7494C14.6431 10.1969 15.091 9.74902 15.6435 9.74902H16.3938C16.9463 9.74902 17.3943 10.1969 17.3943 10.7494V13.2505C17.3943 13.803 16.9463 14.2509 16.3938 14.2509Z" stroke="black" stroke-width="1.5" stroke-linecap="round" stroke-linejoin="round"/>
</svg>
