<svg width="24" height="24" viewBox="0 0 24 24" fill="none" xmlns="http://www.w3.org/2000/svg">
<path d="M7.99833 2.99609C6.8933 2.99609 5.9975 3.8919 5.9975 4.99693V6.99776" stroke="black" stroke-width="1.5" stroke-linecap="round" stroke-linejoin="round"/>
<path d="M21.0037 4.99693C21.0037 3.8919 20.1079 2.99609 19.0029 2.99609" stroke="black" stroke-width="1.5" stroke-linecap="round" stroke-linejoin="round"/>
<path d="M17.0021 18.0028H19.0029C20.1079 18.0028 21.0037 17.107 21.0037 16.002" stroke="black" stroke-width="1.5" stroke-linecap="round" stroke-linejoin="round"/>
<path d="M21.0037 12.0003V8.99902" stroke="black" stroke-width="1.5" stroke-linecap="round" stroke-linejoin="round"/>
<path d="M15.0013 2.9963H12" stroke="black" stroke-width="1.5" stroke-linecap="round" stroke-linejoin="round"/>
<rect x="2.99625" y="6.99805" width="14.0058" height="14.0058" rx="3" stroke="black" stroke-width="1.5" stroke-linecap="round" stroke-linejoin="round"/>
<path d="M7.12295 12V16.0017" stroke="black" stroke-width="1.5" stroke-linecap="round" stroke-linejoin="round"/>
<path fill-rule="evenodd" clip-rule="evenodd" d="M10.1242 16.002V12.0003H11.3747C12.4798 12.0003 13.3756 12.8961 13.3756 14.0011V14.0011C13.3756 15.1061 12.4798 16.002 11.3747 16.002H10.1242Z" stroke="black" stroke-width="1.5" stroke-linecap="round" stroke-linejoin="round"/>
</svg>
