<svg width="24" height="24" viewBox="0 0 24 24" fill="none" xmlns="http://www.w3.org/2000/svg">
<path fill-rule="evenodd" clip-rule="evenodd" d="M12 21C16.9706 21 21 16.9706 21 12C21 7.02944 16.9706 3 12 3C7.02944 3 3 7.02944 3 12C3 16.9706 7.02944 21 12 21V21Z" stroke="black" stroke-width="1.5" stroke-linecap="round" stroke-linejoin="round"/>
<path d="M20.3491 8.65137L13.9571 15.0434" stroke="black" stroke-width="1.5" stroke-linecap="round" stroke-linejoin="round"/>
<path d="M3.67444 15.4113L8.2929 10.7929C8.68342 10.4024 9.31656 10.4024 9.70708 10.7929L17.7988 18.8846" stroke="black" stroke-width="1.5" stroke-linecap="round" stroke-linejoin="round"/>
<path d="M13.9646 7.91488L13.9647 7.9148C13.9843 7.89748 14.0141 7.89927 14.0315 7.91879C14.0488 7.93832 14.047 7.9682 14.0275 7.98555C14.008 8.0029 13.9781 8.00115 13.9608 7.98164C13.9434 7.96214 13.9451 7.93226 13.9646 7.91488" stroke="black" stroke-width="1.5" stroke-linecap="round" stroke-linejoin="round"/>
</svg>
