<svg width="24" height="24" viewBox="0 0 24 24" fill="none" xmlns="http://www.w3.org/2000/svg">
<rect x="2.99625" y="2.99609" width="18.0075" height="18.0075" rx="5" stroke="black" stroke-width="1.5" stroke-linecap="round" stroke-linejoin="round"/>
<path d="M15.3244 8.32163L15.3248 8.32118C15.4226 8.22368 15.5809 8.22383 15.6784 8.32152C15.776 8.41921 15.7759 8.57748 15.6783 8.67511C15.5807 8.77273 15.4224 8.77278 15.3247 8.67522C15.227 8.57765 15.2269 8.41938 15.3244 8.32163" stroke="black" stroke-width="1.5" stroke-linecap="round" stroke-linejoin="round"/>
<path d="M21.0037 10.1662V11.2052C21.0037 12.4774 20.4984 13.6975 19.5988 14.597C18.6993 15.4966 17.4792 16.0019 16.207 16.0019V16.0019C14.8067 16.0019 13.4764 15.3901 12.5651 14.3269L9.02388 10.1955C8.37296 9.4361 7.42269 8.99902 6.42247 8.99902V8.99902C4.53023 8.99902 2.99625 10.533 2.99625 12.4253V14.8348" stroke="black" stroke-width="1.5" stroke-linecap="round" stroke-linejoin="round"/>
</svg>
