<svg width="24" height="24" viewBox="0 0 24 24" fill="none" xmlns="http://www.w3.org/2000/svg">
<path fill-rule="evenodd" clip-rule="evenodd" d="M12 21C16.9706 21 21 16.9706 21 12C21 7.02944 16.9706 3 12 3C7.02944 3 3 7.02944 3 12C3 16.9706 7.02944 21 12 21V21Z" stroke="black" stroke-width="1.5" stroke-linecap="round" stroke-linejoin="round"/>
<path d="M20.3491 8.65137L15.4142 13.5863C14.6332 14.3673 13.3668 14.3673 12.5858 13.5863L10.4142 11.4147C9.63316 10.6337 8.36684 10.6337 7.58579 11.4147L3.65088 15.3496" stroke="black" stroke-width="1.5" stroke-linecap="round" stroke-linejoin="round"/>
<path d="M14.0501 8.00007C14.05 8.02767 14.0276 8.05002 14 8.05C13.9724 8.04998 13.9501 8.0276 13.9501 8C13.9501 7.9724 13.9724 7.95002 14 7.95C14.0276 7.94998 14.05 7.97233 14.0501 7.99994V8.00007" stroke="black" stroke-width="1.5" stroke-linecap="round" stroke-linejoin="round"/>
</svg>
