<svg width="24" height="24" viewBox="0 0 24 24" fill="none" xmlns="http://www.w3.org/2000/svg">
<path fill-rule="evenodd" clip-rule="evenodd" d="M14.7792 6.99805H9.22084C7.99316 6.99805 6.99792 7.99328 6.99792 9.22097V14.7793C6.99792 16.007 7.99316 17.0022 9.22084 17.0022H14.7792C16.0068 17.0022 17.0021 16.007 17.0021 14.7793V9.21997C17.0015 7.99268 16.0065 6.99805 14.7792 6.99805Z" stroke="black" stroke-width="1.5" stroke-linecap="round" stroke-linejoin="round"/>
<path d="M10.5094 10.1563C10.5811 10.2278 10.6026 10.3354 10.5639 10.429C10.5253 10.5225 10.434 10.5835 10.3328 10.5835C10.2316 10.5835 10.1403 10.5225 10.1017 10.429C10.063 10.3354 10.0845 10.2278 10.1562 10.1563C10.203 10.1093 10.2665 10.0829 10.3328 10.0829C10.3991 10.0829 10.4626 10.1093 10.5094 10.1563" stroke="black" stroke-width="1.5" stroke-linecap="round" stroke-linejoin="round"/>
<path d="M17.0021 11.5C16.7703 11.4648 16.5363 11.4461 16.3018 11.444C14.8882 11.4339 13.5413 12.0445 12.6172 13.1142C11.693 14.1839 11.2846 15.6051 11.4998 17.0023" stroke="black" stroke-width="1.5" stroke-linecap="round" stroke-linejoin="round"/>
<path d="M15.0013 21.0038H17.0021C19.2121 21.0038 21.0038 19.2122 21.0038 17.0021V15.6016" stroke="black" stroke-width="1.5" stroke-linecap="round" stroke-linejoin="round"/>
<path d="M8.3985 2.99658H6.99792C4.78786 2.99658 2.99625 4.78819 2.99625 6.99825V8.39883" stroke="black" stroke-width="1.5" stroke-linecap="round" stroke-linejoin="round"/>
<path d="M2.99625 15.6016V17.0021C2.99625 19.2122 4.78786 21.0038 6.99792 21.0038H8.3985" stroke="black" stroke-width="1.5" stroke-linecap="round" stroke-linejoin="round"/>
<path d="M21.0038 8.39883V6.99825C21.0038 4.78819 19.2121 2.99658 17.0021 2.99658H15.0013" stroke="black" stroke-width="1.5" stroke-linecap="round" stroke-linejoin="round"/>
</svg>
