<svg width="24" height="24" viewBox="0 0 24 24" fill="none" xmlns="http://www.w3.org/2000/svg">
<path fill-rule="evenodd" clip-rule="evenodd" d="M9.99917 12H4.99708C3.89205 12 2.99625 12.8958 2.99625 14.0008V19.0029C2.99625 20.1079 3.89205 21.0037 4.99708 21.0037H9.99917C11.1042 21.0037 12 20.1079 12 19.0029V14.0008C12 12.8958 11.1042 12 9.99917 12Z" stroke="black" stroke-width="1.5" stroke-linecap="round" stroke-linejoin="round"/>
<path d="M2.99625 9.9995V6.99825C2.99625 4.78819 4.78786 2.99658 6.99792 2.99658H9.99917" stroke="black" stroke-width="1.5" stroke-linecap="round" stroke-linejoin="round"/>
<path d="M14.0008 2.99658H17.0021C19.2121 2.99658 21.0037 4.78819 21.0037 6.99825V9.9995" stroke="black" stroke-width="1.5" stroke-linecap="round" stroke-linejoin="round"/>
<path d="M21.0037 14.001V17.0022C21.0037 19.2123 19.2121 21.0039 17.0021 21.0039H14.0008" stroke="black" stroke-width="1.5" stroke-linecap="round" stroke-linejoin="round"/>
<path d="M6.17457 14.8241C6.27206 14.9219 6.27193 15.0801 6.17428 15.1777C6.07662 15.2753 5.91838 15.2753 5.82072 15.1777C5.72307 15.0801 5.72294 14.9219 5.82043 14.8241C5.9186 14.7273 6.0764 14.7273 6.17457 14.8241" stroke="black" stroke-width="1.5" stroke-linecap="round" stroke-linejoin="round"/>
<path d="M12 16.052C11.793 16.0206 11.5841 16.0039 11.3747 16.002C8.95749 16.002 6.99792 17.9615 6.99792 20.3788C6.99938 20.5881 7.0161 20.7971 7.04794 21.004" stroke="black" stroke-width="1.5" stroke-linecap="round" stroke-linejoin="round"/>
</svg>
