<svg width="24" height="24" viewBox="0 0 24 24" fill="none" xmlns="http://www.w3.org/2000/svg">
<path d="M11.6769 7.32114C11.7743 7.41888 11.7742 7.57712 11.6766 7.67469C11.5789 7.77226 11.4207 7.77226 11.323 7.67469C11.2254 7.57712 11.2252 7.41888 11.3227 7.32114C11.3696 7.2741 11.4333 7.24766 11.4998 7.24766C11.5662 7.24766 11.6299 7.2741 11.6769 7.32114" stroke="black" stroke-width="1.5" stroke-linecap="round" stroke-linejoin="round"/>
<path d="M21.0037 8.52865C18.8509 8.19783 16.6613 8.82816 15.0139 10.253C13.3665 11.6778 12.4271 13.7537 12.4442 15.9317C12.447 16.2902 12.4757 16.6479 12.5302 17.0022" stroke="black" stroke-width="1.5" stroke-linecap="round" stroke-linejoin="round"/>
<path d="M6.99791 6.99805H5.9975C4.33995 6.99805 2.99625 8.34175 2.99625 9.9993V18.0026C2.99625 19.6602 4.33995 21.0039 5.9975 21.0039H14.0008C15.6584 21.0039 17.0021 19.6602 17.0021 18.0026V17.0022" stroke="black" stroke-width="1.5" stroke-linecap="round" stroke-linejoin="round"/>
<path fill-rule="evenodd" clip-rule="evenodd" d="M18.0025 2.99658H9.99917C8.34163 2.99658 6.99792 4.34029 6.99792 5.99783V14.0012C6.99792 15.6587 8.34163 17.0024 9.99917 17.0024H18.0025C19.6601 17.0024 21.0038 15.6587 21.0038 14.0012V5.99783C21.0038 4.34029 19.6601 2.99658 18.0025 2.99658Z" stroke="black" stroke-width="1.5" stroke-linecap="round" stroke-linejoin="round"/>
</svg>
