<svg width="24" height="24" viewBox="0 0 24 24" fill="none" xmlns="http://www.w3.org/2000/svg">
<path d="M14.92 17C14.9709 16.6691 14.9977 16.3348 15 16V16C15 12.134 11.866 9 8 9C7.6652 9.00307 7.33103 9.02981 7 9.08" stroke="black" stroke-width="1.5" stroke-linecap="round" stroke-linejoin="round"/>
<path fill-rule="evenodd" clip-rule="evenodd" d="M7 6.11111V13.8889C7 15.6071 8.39289 17 10.1111 17H17.8889C19.6071 17 21 15.6071 21 13.8889V6.11111C21 5.28599 20.6722 4.49467 20.0888 3.91122C19.5053 3.32778 18.714 3 17.8889 3H10.1111C8.39289 3 7 4.39289 7 6.11111Z" stroke="black" stroke-width="1.5" stroke-linecap="round" stroke-linejoin="round"/>
<path d="M17 17V18C17 19.6569 15.6569 21 14 21H6C4.34315 21 3 19.6569 3 18V10C3 8.34315 4.34315 7 6 7H7" stroke="black" stroke-width="1.5" stroke-linecap="round" stroke-linejoin="round"/>
<path d="M16.4646 7.46469L16.4647 7.4646C16.4842 7.44511 16.5159 7.44514 16.5354 7.46467C16.5549 7.4842 16.5549 7.51584 16.5354 7.53536C16.5158 7.55487 16.4842 7.55488 16.4647 7.53538C16.4451 7.51587 16.4451 7.48423 16.4646 7.46469" stroke="black" stroke-width="1.5" stroke-linecap="round" stroke-linejoin="round"/>
</svg>
