<svg width="24" height="24" viewBox="0 0 24 24" fill="none" xmlns="http://www.w3.org/2000/svg">
<path d="M20.945 11.0503C20.5277 10.9869 20.1065 10.9532 19.6844 10.9494C17.14 10.9314 14.7156 12.0303 13.0521 13.9558C11.3887 15.8813 10.6535 18.4395 11.0408 20.9544" stroke="black" stroke-width="1.5" stroke-linecap="round" stroke-linejoin="round"/>
<path fill-rule="evenodd" clip-rule="evenodd" d="M21.0038 11.9998V11.9998C21.0038 14.3878 20.0553 16.6781 18.3668 18.3666C16.6782 20.0552 14.388 21.0036 12 21.0036V21.0036C9.61202 21.0036 7.32179 20.0552 5.63323 18.3666C3.94466 16.6781 2.99625 14.3878 2.99625 11.9998V11.9998C2.99625 9.61186 3.94466 7.32163 5.63323 5.63307C7.32179 3.9445 9.61202 2.99609 12 2.99609V2.99609C14.388 2.99609 16.6782 3.9445 18.3668 5.63307C20.0553 7.32163 21.0038 9.61186 21.0038 11.9998Z" stroke="black" stroke-width="1.5" stroke-linecap="round" stroke-linejoin="round"/>
<path d="M10.179 9.29904C10.179 9.43717 10.067 9.54914 9.92888 9.54914C9.79075 9.54914 9.67878 9.43717 9.67878 9.29904C9.67878 9.16091 9.79075 9.04893 9.92888 9.04893" stroke="black" stroke-width="1.5" stroke-linecap="round" stroke-linejoin="round"/>
<path d="M9.92888 9.04898C10.067 9.04898 10.179 9.16096 10.179 9.29909" stroke="black" stroke-width="1.5" stroke-linecap="round" stroke-linejoin="round"/>
</svg>
