<svg width="24" height="24" viewBox="0 0 24 24" fill="none" xmlns="http://www.w3.org/2000/svg">
<path d="M21.0037 9.99901V17.0019C21.0037 19.212 19.2121 21.0036 17.0021 21.0036H6.99791C4.78785 21.0036 2.99625 19.212 2.99625 17.0019V6.99776C2.99625 4.7877 4.78785 2.99609 6.99791 2.99609H13.0004" stroke="black" stroke-width="1.5" stroke-linecap="round" stroke-linejoin="round"/>
<path d="M2.99625 13.0002L4.29195 11.7045C4.74428 11.2522 5.35779 10.998 5.9975 10.998C6.6372 10.998 7.2507 11.2522 7.70304 11.7045L12 16.0015" stroke="black" stroke-width="1.5" stroke-linecap="round" stroke-linejoin="round"/>
<path d="M7.00092 21.0042L13.2987 14.7065C14.2407 13.7645 15.7678 13.7645 16.7098 14.7065L20.6506 18.6473" stroke="black" stroke-width="1.5" stroke-linecap="round" stroke-linejoin="round"/>
<path d="M18.0025 7.99811L20.5035 5.49707" stroke="black" stroke-width="1.5" stroke-linecap="round" stroke-linejoin="round"/>
<path d="M15.5014 5.49707L18.0025 7.99811" stroke="black" stroke-width="1.5" stroke-linecap="round" stroke-linejoin="round"/>
<path d="M18.0025 7.99818V2.99609" stroke="black" stroke-width="1.5" stroke-linecap="round" stroke-linejoin="round"/>
</svg>
