<svg width="24" height="24" viewBox="0 0 24 24" fill="none" xmlns="http://www.w3.org/2000/svg">
<path fill-rule="evenodd" clip-rule="evenodd" d="M9.99916 3.49658H4.99708C3.89162 3.49658 2.99625 4.39195 2.99625 5.49742V10.4995C2.99625 11.605 3.89162 12.5003 4.99708 12.5003H9.99916C11.1046 12.5003 12 11.605 12 10.4995V5.49641C12 4.39195 11.1046 3.49658 9.99916 3.49658Z" stroke="black" stroke-width="1.5" stroke-linecap="round" stroke-linejoin="round"/>
<path d="M6.0495 6.19581C6.14755 6.29385 6.14755 6.45191 6.0495 6.54995C5.95146 6.64799 5.7934 6.64799 5.69536 6.54995C5.59732 6.45191 5.59732 6.29385 5.69536 6.19581C5.7934 6.09877 5.95146 6.09877 6.0495 6.19581" stroke="black" stroke-width="1.5" stroke-linecap="round" stroke-linejoin="round"/>
<path d="M12 7.05307C11.7749 7.02106 11.5468 6.99805 11.3117 6.99805C8.65258 6.99805 6.49768 9.15394 6.49768 11.8121C6.49768 12.0461 6.51969 12.2742 6.5527 12.5003" stroke="black" stroke-width="1.5" stroke-linecap="round" stroke-linejoin="round"/>
<path d="M21.0038 12.0002H15.0013" stroke="black" stroke-width="1.5" stroke-linecap="round" stroke-linejoin="round"/>
<path d="M21.0038 7.99826H15.0013" stroke="black" stroke-width="1.5" stroke-linecap="round" stroke-linejoin="round"/>
<path d="M21.0038 3.99679H15.0013" stroke="black" stroke-width="1.5" stroke-linecap="round" stroke-linejoin="round"/>
<path d="M21.0037 20.0036H2.99625" stroke="black" stroke-width="1.5" stroke-linecap="round" stroke-linejoin="round"/>
<path d="M21.0037 16.0017H2.99625" stroke="black" stroke-width="1.5" stroke-linecap="round" stroke-linejoin="round"/>
</svg>
