<svg width="24" height="24" viewBox="0 0 24 24" fill="none" xmlns="http://www.w3.org/2000/svg">
<path d="M9.99916 2.9963H14.0008" stroke="black" stroke-width="1.5" stroke-linecap="round" stroke-linejoin="round"/>
<path d="M21.0037 14.0007V9.99902" stroke="black" stroke-width="1.5" stroke-linecap="round" stroke-linejoin="round"/>
<path d="M21.0038 17.002C21.0038 19.212 19.2121 21.0036 17.0021 21.0036" stroke="black" stroke-width="1.5" stroke-linecap="round" stroke-linejoin="round"/>
<path d="M10.0266 13.6676V13.6668C10.0268 13.4981 10.1637 13.3614 10.3324 13.3615C10.5012 13.3616 10.6379 13.4985 10.6379 13.6672C10.6379 13.8359 10.5012 13.9728 10.3324 13.9729C10.1637 13.973 10.0268 13.8363 10.0266 13.6676" stroke="black" stroke-width="1.5" stroke-linecap="round" stroke-linejoin="round"/>
<path d="M9.04877 21.0043C9.08769 20.7514 9.10812 20.496 9.1099 20.2401V20.2401C9.1099 17.2857 6.71487 14.8906 3.76045 14.8906C3.5046 14.893 3.24922 14.9134 2.99625 14.9518" stroke="black" stroke-width="1.5" stroke-linecap="round" stroke-linejoin="round"/>
<path d="M2.99625 6.99776C2.99625 4.7877 4.78785 2.99609 6.99791 2.99609" stroke="black" stroke-width="1.5" stroke-linecap="round" stroke-linejoin="round"/>
<path d="M17.0021 2.99609C19.2121 2.99609 21.0038 4.7877 21.0038 6.99776" stroke="black" stroke-width="1.5" stroke-linecap="round" stroke-linejoin="round"/>
<path fill-rule="evenodd" clip-rule="evenodd" d="M2.99625 12.4445V18.5581C2.99625 19.9087 4.09112 21.0036 5.4417 21.0036H11.5554C12.906 21.0036 14.0008 19.9087 14.0008 18.5581V12.4445C14.0008 11.0939 12.906 9.99902 11.5554 9.99902H5.4417C4.09112 9.99902 2.99625 11.0939 2.99625 12.4445Z" stroke="black" stroke-width="1.5" stroke-linecap="round" stroke-linejoin="round"/>
</svg>
