<svg width="24" height="24" viewBox="0 0 24 24" fill="none" xmlns="http://www.w3.org/2000/svg">
<path d="M21.0037 10.9994V17.0019C21.0037 19.212 19.2121 21.0036 17.0021 21.0036H6.99791C4.78785 21.0036 2.99625 19.212 2.99625 17.0019V6.99776C2.99625 4.7877 4.78785 2.99609 6.99791 2.99609H9.99916" stroke="black" stroke-width="1.5" stroke-linecap="round" stroke-linejoin="round"/>
<path d="M2.99625 13.0002L4.29195 11.7045C4.74428 11.2522 5.35779 10.998 5.9975 10.998C6.6372 10.998 7.2507 11.2522 7.70304 11.7045L12 16.0015" stroke="black" stroke-width="1.5" stroke-linecap="round" stroke-linejoin="round"/>
<path d="M7.00092 21.0042L13.2987 14.7065C14.2407 13.7645 15.7678 13.7645 16.7098 14.7065L20.6506 18.6473" stroke="black" stroke-width="1.5" stroke-linecap="round" stroke-linejoin="round"/>
<path d="M15.0013 8.99859C13.3441 8.99757 12.001 7.65447 12 5.99734V5.99734C12.001 4.34022 13.3441 2.99711 15.0013 2.99609" stroke="black" stroke-width="1.5" stroke-linecap="round" stroke-linejoin="round"/>
<path d="M18.0025 2.99609C19.6596 2.99711 21.0027 4.34022 21.0038 5.99734V5.99734C21.0027 7.65447 19.6596 8.99757 18.0025 8.99859" stroke="black" stroke-width="1.5" stroke-linecap="round" stroke-linejoin="round"/>
<path d="M15.0013 5.99728H18.0025" stroke="black" stroke-width="1.5" stroke-linecap="round" stroke-linejoin="round"/>
</svg>
