<svg width="24" height="24" viewBox="0 0 24 24" fill="none" xmlns="http://www.w3.org/2000/svg">
<path d="M2.99625 13.0022L4.29195 11.7065C4.74428 11.2541 5.35779 11 5.9975 11C6.6372 11 7.2507 11.2541 7.70304 11.7065L12 16.0034" stroke="black" stroke-width="1.5" stroke-linecap="round" stroke-linejoin="round"/>
<path d="M7.00224 21.0039L13.2987 14.7074C14.2407 13.7655 15.7678 13.7655 16.7098 14.7074L20.6506 18.6482" stroke="black" stroke-width="1.5" stroke-linecap="round" stroke-linejoin="round"/>
<path fill-rule="evenodd" clip-rule="evenodd" d="M16.279 9.3941H14.2328V7.34797C14.2327 7.1381 14.3161 6.93679 14.4647 6.78858L17.6296 3.62364C17.7779 3.47508 17.9791 3.3916 18.189 3.3916C18.3989 3.3916 18.6002 3.47508 18.7484 3.62364L20.0033 4.87853C20.1519 5.02679 20.2354 5.22805 20.2354 5.43794C20.2354 5.64782 20.1519 5.84908 20.0033 5.99734L16.8384 9.16228C16.69 9.31056 16.4888 9.39393 16.279 9.3941V9.3941Z" stroke="black" stroke-width="1.5" stroke-linecap="round" stroke-linejoin="round"/>
<path d="M21.0037 9.99901V17.0019C21.0037 19.212 19.2121 21.0036 17.0021 21.0036H6.99791C4.78785 21.0036 2.99625 19.212 2.99625 17.0019V6.99776C2.99625 4.7877 4.78785 2.99609 6.99791 2.99609H13.0004" stroke="black" stroke-width="1.5" stroke-linecap="round" stroke-linejoin="round"/>
</svg>
