<svg width="24" height="24" viewBox="0 0 24 24" fill="none" xmlns="http://www.w3.org/2000/svg">
<rect x="3" y="3" width="18" height="18" rx="5" stroke="black" stroke-width="1.5" stroke-linecap="round" stroke-linejoin="round"/>
<path d="M15.323 8.32345L15.3235 8.323C15.4212 8.22554 15.5794 8.22569 15.6769 8.32334C15.7744 8.42099 15.7744 8.57919 15.6768 8.67678C15.5792 8.77436 15.421 8.77441 15.3233 8.67689C15.2257 8.57936 15.2255 8.42116 15.323 8.32345" stroke="black" stroke-width="1.5" stroke-linecap="round" stroke-linejoin="round"/>
<path d="M21 8V9.50259C21 10.7333 20.5111 11.9135 19.6409 12.7838C18.7707 13.654 17.5904 14.1429 16.3597 14.1429V14.1429C15.6724 14.1429 14.9936 13.9902 14.3725 13.6958L9.62756 11.4471C9.00643 11.1527 8.32765 11 7.64029 11V11C6.40961 11 5.22933 11.4889 4.35911 12.3591C3.48888 13.2293 3 14.4096 3 15.6403V16" stroke="black" stroke-width="1.5" stroke-linecap="round" stroke-linejoin="round"/>
</svg>
