<svg width="24" height="24" viewBox="0 0 24 24" fill="none" xmlns="http://www.w3.org/2000/svg">
<path d="M21.0037 11.9998V17.0019C21.0037 19.212 19.2121 21.0036 17.0021 21.0036H6.99792C4.78786 21.0036 2.99625 19.212 2.99625 17.0019V6.99776C2.99625 4.7877 4.78786 2.99609 6.99792 2.99609H12" stroke="black" stroke-width="1.5" stroke-linecap="round" stroke-linejoin="round"/>
<path d="M20.5035 5.49714L18.0025 2.99609" stroke="black" stroke-width="1.5" stroke-linecap="round" stroke-linejoin="round"/>
<path d="M18.0025 7.99811L20.5035 5.49707" stroke="black" stroke-width="1.5" stroke-linecap="round" stroke-linejoin="round"/>
<path d="M20.5035 5.49728H15.5015" stroke="black" stroke-width="1.5" stroke-linecap="round" stroke-linejoin="round"/>
<path d="M20.6495 18.6491L16.7068 14.7065C15.7649 13.7645 14.2377 13.7645 13.2957 14.7065L6.99792 21.0042" stroke="black" stroke-width="1.5" stroke-linecap="round" stroke-linejoin="round"/>
<path d="M12 16.0015L7.70304 11.7045C6.7611 10.7626 5.23391 10.7626 4.29196 11.7045L2.99625 13.0002" stroke="black" stroke-width="1.5" stroke-linecap="round" stroke-linejoin="round"/>
</svg>
