<svg width="24" height="24" viewBox="0 0 24 24" fill="none" xmlns="http://www.w3.org/2000/svg">
<path d="M21.0037 4.99693C21.0039 4.46623 20.7931 3.95722 20.4179 3.58196C20.0426 3.2067 19.5336 2.99595 19.0029 2.99609" stroke="black" stroke-width="1.5" stroke-linecap="round" stroke-linejoin="round"/>
<path d="M21.0037 12V13.0004" stroke="black" stroke-width="1.5" stroke-linecap="round" stroke-linejoin="round"/>
<path d="M21.0037 7.99805V8.99846" stroke="black" stroke-width="1.5" stroke-linecap="round" stroke-linejoin="round"/>
<path d="M21.0037 16.002C21.0039 16.5327 20.7931 17.0417 20.4179 17.4169C20.0426 17.7922 19.5336 18.0029 19.0029 18.0028" stroke="black" stroke-width="1.5" stroke-linecap="round" stroke-linejoin="round"/>
<path d="M7.99833 2.99609C7.46763 2.99595 6.95863 3.2067 6.58337 3.58196C6.20811 3.95722 5.99735 4.46623 5.9975 4.99693" stroke="black" stroke-width="1.5" stroke-linecap="round" stroke-linejoin="round"/>
<path d="M15.0013 2.9963H16.0017" stroke="black" stroke-width="1.5" stroke-linecap="round" stroke-linejoin="round"/>
<path d="M10.9996 2.9963H12" stroke="black" stroke-width="1.5" stroke-linecap="round" stroke-linejoin="round"/>
<path d="M16.0017 13.1361C15.6728 13.085 15.3406 13.0582 15.0078 13.0559C12.9855 13.0408 11.0584 13.9133 9.73544 15.4429C8.41251 16.9725 7.82692 19.0053 8.13339 21.0043" stroke="black" stroke-width="1.5" stroke-linecap="round" stroke-linejoin="round"/>
<rect x="2.99625" y="7.99805" width="13.0054" height="13.0054" rx="3.9" stroke="black" stroke-width="1.5" stroke-linecap="round" stroke-linejoin="round"/>
<path d="M7.27825 12.1526C7.27825 12.2216 7.22227 12.2776 7.1532 12.2776C7.08414 12.2776 7.02815 12.2216 7.02815 12.1526C7.02815 12.0835 7.08414 12.0275 7.1532 12.0275" stroke="black" stroke-width="1.5" stroke-linecap="round" stroke-linejoin="round"/>
<path d="M7.1532 12.0275C7.22227 12.0275 7.27825 12.0835 7.27825 12.1526" stroke="black" stroke-width="1.5" stroke-linecap="round" stroke-linejoin="round"/>
</svg>
