<svg width="24" height="24" viewBox="0 0 24 24" fill="none" xmlns="http://www.w3.org/2000/svg">
<path fill-rule="evenodd" clip-rule="evenodd" d="M14.5871 14.4156L15.4154 13.5872C15.7906 13.212 16.2994 13.0011 16.83 13.001H20.0033C20.5559 13.001 21.0038 13.4489 21.0038 14.0014V17.878C21.0038 18.983 20.1079 19.8788 19.0029 19.8788H4.99709C3.89206 19.8788 2.99625 18.983 2.99625 17.878V14.0014C2.99625 13.4489 3.44416 13.001 3.99667 13.001H7.16999C7.7006 13.0011 8.20944 13.212 8.58458 13.5872L9.41293 14.4156C9.78807 14.7908 10.2969 15.0017 10.8275 15.0018H13.1725C13.7031 15.0017 14.2119 14.7908 14.5871 14.4156Z" stroke="black" stroke-width="1.5" stroke-linecap="round" stroke-linejoin="round"/>
<path d="M20.0033 3.9963H3.99667" stroke="black" stroke-width="1.5" stroke-linecap="round" stroke-linejoin="round"/>
<path d="M20.0033 8.99923H3.99667" stroke="black" stroke-width="1.5" stroke-linecap="round" stroke-linejoin="round"/>
</svg>
