<svg width="24" height="24" viewBox="0 0 24 24" fill="none" xmlns="http://www.w3.org/2000/svg">
<path fill-rule="evenodd" clip-rule="evenodd" d="M11.819 12.191C11.309 12.75 9.756 14.312 8.316 14.312V14.31L8.311 14.312V14.312C7.035 14.313 6 13.277 6 12C6 10.723 7.035 9.68699 8.312 9.68799V9.68799L8.317 9.68999V9.68799C9.757 9.68799 11.31 11.249 11.82 11.809C11.819 11.809 12 12 12 12L11.819 12.191V12.191Z" stroke="black" stroke-width="1.5" stroke-linecap="round" stroke-linejoin="round"/>
<path fill-rule="evenodd" clip-rule="evenodd" d="M12.181 12.191C12.691 12.75 14.244 14.312 15.684 14.312V14.31L15.689 14.312V14.312C16.965 14.313 18 13.277 18 12C18 10.723 16.965 9.68699 15.688 9.68799V9.68799L15.683 9.68999V9.68799C14.243 9.68799 12.69 11.249 12.18 11.809C12.181 11.809 12 12 12 12L12.181 12.191V12.191Z" stroke="black" stroke-width="1.5" stroke-linecap="round" stroke-linejoin="round"/>
<path d="M18.364 5.63604C21.8787 9.15076 21.8787 14.8492 18.364 18.3639C14.8493 21.8787 9.1508 21.8787 5.6361 18.3639C2.12138 14.8492 2.12138 9.15074 5.6361 5.63604C9.15082 2.12132 14.8493 2.12132 18.364 5.63604" stroke="black" stroke-width="1.5" stroke-linecap="round" stroke-linejoin="round"/>
</svg>
