<svg width="24" height="24" viewBox="0 0 24 24" fill="none" xmlns="http://www.w3.org/2000/svg">
<path fill-rule="evenodd" clip-rule="evenodd" d="M16.0017 21.0041H7.99833C5.23618 21.0041 2.99625 18.7641 2.99625 16.002V7.99867C2.99625 5.23651 5.23618 2.99658 7.99833 2.99658H16.0017C18.7638 2.99658 21.0037 5.23651 21.0037 7.99867V16.002C21.0037 18.7641 18.7638 21.0041 16.0017 21.0041Z" stroke="black" stroke-width="1.5" stroke-linecap="round" stroke-linejoin="round"/>
<path d="M11.999 7.99864C11.8609 7.99864 11.7489 8.11069 11.7499 8.24874C11.7499 8.3868 11.8619 8.49885 12 8.49885C12.1381 8.49885 12.2501 8.3868 12.2501 8.24874C12.2501 8.11069 12.1381 7.99864 11.999 7.99864" stroke="black" stroke-width="1.5" stroke-linecap="round" stroke-linejoin="round"/>
<path d="M12.2501 16.1861V11.4341H11.2497" stroke="black" stroke-width="1.5" stroke-linecap="round" stroke-linejoin="round"/>
</svg>
