<svg width="24" height="24" viewBox="0 0 24 24" fill="none" xmlns="http://www.w3.org/2000/svg">
<path d="M7.49812 2.99609H4.99708C3.89205 2.99609 2.99625 3.8919 2.99625 4.99693V7.49797" stroke="black" stroke-width="1.5" stroke-linecap="round" stroke-linejoin="round"/>
<path d="M2.99625 16.502V19.003C2.99625 20.108 3.89205 21.0038 4.99708 21.0038H7.49812" stroke="black" stroke-width="1.5" stroke-linecap="round" stroke-linejoin="round"/>
<path d="M16.5019 21.0038H19.0029C20.1079 21.0038 21.0037 20.108 21.0037 19.003V16.502" stroke="black" stroke-width="1.5" stroke-linecap="round" stroke-linejoin="round"/>
<path d="M21.0037 7.49797V4.99693C21.0037 3.8919 20.1079 2.99609 19.0029 2.99609H16.5019" stroke="black" stroke-width="1.5" stroke-linecap="round" stroke-linejoin="round"/>
<path d="M11.8499 7.99815C11.7118 7.99815 11.5998 8.11013 11.5998 8.24826C11.5998 8.38638 11.7118 8.49836 11.8499 8.49836C11.9881 8.49836 12.1 8.38638 12.1 8.24826C12.1 8.11013 11.9881 7.99815 11.8499 7.99815V7.99815" stroke="black" stroke-width="1.5" stroke-linecap="round" stroke-linejoin="round"/>
<path d="M11.0086 11.25H12.1591V15.5018" stroke="black" stroke-width="1.5" stroke-linecap="round" stroke-linejoin="round"/>
<path d="M10.9996 15.5012H13.3095" stroke="black" stroke-width="1.5" stroke-linecap="round" stroke-linejoin="round"/>
</svg>
