<svg width="24" height="24" viewBox="0 0 24 24" fill="none" xmlns="http://www.w3.org/2000/svg">
<path d="M11.0086 11.25H12.1591V15.5018" stroke="black" stroke-width="1.5" stroke-linecap="round" stroke-linejoin="round"/>
<path d="M10.9996 15.5012H13.3099" stroke="black" stroke-width="1.5" stroke-linecap="round" stroke-linejoin="round"/>
<path fill-rule="evenodd" clip-rule="evenodd" d="M6.82584 19.8311L4.16773 17.173C3.41746 16.4226 2.99605 15.4049 2.99625 14.3438V9.65587C2.99596 8.59454 3.41779 7.57668 4.16873 6.82669L6.82684 4.16858C7.57683 3.41764 8.5947 2.99581 9.65602 2.99609H14.343C15.4043 2.99581 16.4222 3.41764 17.1722 4.16858L19.8313 6.82769C20.5822 7.57768 21.004 8.59554 21.0037 9.65687V14.3428C21.0039 15.4039 20.5825 16.4216 19.8323 17.172L17.1742 19.8311C16.4235 20.5817 15.4055 21.0036 14.344 21.0036H9.65602C8.59444 21.0036 7.57633 20.5819 6.82584 19.8311Z" stroke="black" stroke-width="1.5" stroke-linecap="round" stroke-linejoin="round"/>
<path d="M12.1003 8.24565C12.1002 8.38369 11.9882 8.49549 11.8501 8.49543C11.7121 8.49537 11.6002 8.38348 11.6001 8.24543C11.6001 8.10739 11.7119 7.9954 11.8499 7.99522C11.9164 7.99514 11.9801 8.02149 12.0271 8.06848C12.0741 8.11546 12.1004 8.1792 12.1003 8.24565" stroke="black" stroke-width="1.5" stroke-linecap="round" stroke-linejoin="round"/>
</svg>
