<svg width="24" height="24" viewBox="0 0 24 24" fill="none" xmlns="http://www.w3.org/2000/svg">
<path d="M7.4845 17.002L4.98346 19.503L3.48283 18.0024" stroke="black" stroke-width="1.5" stroke-linecap="round" stroke-linejoin="round"/>
<path d="M11.3361 7.99522C11.198 7.99522 11.086 8.1072 11.086 8.24533C11.086 8.38345 11.198 8.49543 11.3361 8.49543C11.4742 8.49543 11.5862 8.38345 11.5862 8.24533C11.5862 8.1072 11.4742 7.99522 11.3361 7.99522V7.99522" stroke="black" stroke-width="1.5" stroke-linecap="round" stroke-linejoin="round"/>
<path d="M10.4954 11.25H11.6458V15.5018" stroke="black" stroke-width="1.5" stroke-linecap="round" stroke-linejoin="round"/>
<path d="M10.4857 15.5012H12.796" stroke="black" stroke-width="1.5" stroke-linecap="round" stroke-linejoin="round"/>
<path d="M2.54445 13.0005C2.5033 12.6686 2.48242 12.3345 2.48242 12.0001V12.0001C2.48242 8.35843 4.67612 5.07534 8.04059 3.68173C11.4051 2.28812 15.2777 3.05844 17.8528 5.63349C20.4278 8.20855 21.1982 12.0812 19.8046 15.4457C18.4109 18.8102 15.1278 21.0039 11.4862 21.0039C11.1517 21.0039 10.8176 20.983 10.4858 20.9418" stroke="black" stroke-width="1.5" stroke-linecap="round" stroke-linejoin="round"/>
</svg>
