<svg width="24" height="24" viewBox="0 0 24 24" fill="none" xmlns="http://www.w3.org/2000/svg">
<path d="M12 15.502V19.0034" stroke="black" stroke-width="1.5" stroke-linecap="round" stroke-linejoin="round"/>
<path d="M12 12.178C12.0995 12.178 12.1801 12.0974 12.1801 11.9979V11.9959C12.1802 11.9313 12.1458 11.8714 12.0898 11.839C12.0338 11.8066 11.9648 11.8064 11.9087 11.8387C11.8526 11.871 11.818 11.9307 11.8179 11.9954V11.9959C11.8177 12.044 11.8365 12.0901 11.8703 12.1243C11.904 12.1584 11.95 12.1778 11.998 12.178H12" stroke="black" stroke-width="1.5" stroke-linecap="round" stroke-linejoin="round"/>
<path d="M11.8189 11.9963H12.1811" stroke="black" stroke-width="1.5" stroke-linecap="round" stroke-linejoin="round"/>
<path d="M12.001 12.1779V11.8127" stroke="black" stroke-width="1.5" stroke-linecap="round" stroke-linejoin="round"/>
<path d="M2.99625 12C2.99596 15.6203 5.16347 18.8889 8.49855 20.2973" stroke="black" stroke-width="1.5" stroke-linecap="round" stroke-linejoin="round"/>
<path d="M21.0038 11.9998C21.0038 7.02721 16.9726 2.99609 12 2.99609C7.02737 2.99609 2.99625 7.02721 2.99625 11.9998" stroke="black" stroke-width="1.5" stroke-linecap="round" stroke-linejoin="round"/>
<path d="M15.5015 20.2973C18.8366 18.8889 21.0041 15.6203 21.0038 12" stroke="black" stroke-width="1.5" stroke-linecap="round" stroke-linejoin="round"/>
<path d="M7.49813 12C7.50199 13.0195 7.85507 14.0069 8.49855 14.7977" stroke="black" stroke-width="1.5" stroke-linecap="round" stroke-linejoin="round"/>
<path d="M16.5019 11.9999C16.5019 9.5136 14.4863 7.49805 12 7.49805C9.51369 7.49805 7.49813 9.5136 7.49813 11.9999" stroke="black" stroke-width="1.5" stroke-linecap="round" stroke-linejoin="round"/>
<path d="M15.5015 14.7977C16.145 14.0069 16.498 13.0195 16.5019 12" stroke="black" stroke-width="1.5" stroke-linecap="round" stroke-linejoin="round"/>
</svg>
