<svg width="24" height="24" viewBox="0 0 24 24" fill="none" xmlns="http://www.w3.org/2000/svg">
<path d="M19.4895 17.002L16.9884 19.503L15.4878 18.0024" stroke="black" stroke-width="1.5" stroke-linecap="round" stroke-linejoin="round"/>
<path d="M11.3361 7.99522C11.198 7.99522 11.086 8.1072 11.086 8.24533C11.086 8.38345 11.198 8.49543 11.3361 8.49543C11.4742 8.49543 11.5862 8.38345 11.5862 8.24533C11.5862 8.1072 11.4742 7.99522 11.3361 7.99522V7.99522" stroke="black" stroke-width="1.5" stroke-linecap="round" stroke-linejoin="round"/>
<path d="M10.4954 11.25H11.6458V15.5018" stroke="black" stroke-width="1.5" stroke-linecap="round" stroke-linejoin="round"/>
<path d="M10.4857 15.5012H12.796" stroke="black" stroke-width="1.5" stroke-linecap="round" stroke-linejoin="round"/>
<path d="M12.4866 20.9418C12.1547 20.983 11.8206 21.0039 11.4862 21.0039C7.84448 21.0039 4.56139 18.8102 3.16778 15.4457C1.77417 12.0812 2.54449 8.20855 5.11955 5.63349C7.6946 3.05844 11.5673 2.28812 14.9317 3.68173C18.2962 5.07534 20.4899 8.35843 20.4899 12.0001C20.4899 12.3345 20.469 12.6686 20.4279 13.0005" stroke="black" stroke-width="1.5" stroke-linecap="round" stroke-linejoin="round"/>
</svg>
