<svg width="24" height="24" viewBox="0 0 24 24" fill="none" xmlns="http://www.w3.org/2000/svg">
<circle cx="7.49812" cy="7.49797" r="4.50187" stroke="black" stroke-width="1.5" stroke-linecap="round" stroke-linejoin="round"/>
<path d="M15.0013 9.99923H21.0038" stroke="black" stroke-width="1.5" stroke-linecap="round" stroke-linejoin="round"/>
<path d="M15.0013 4.99728H21.0038" stroke="black" stroke-width="1.5" stroke-linecap="round" stroke-linejoin="round"/>
<path d="M21.0037 15.0012H8.99875" stroke="black" stroke-width="1.5" stroke-linecap="round" stroke-linejoin="round"/>
<path d="M21.0037 20.0031H8.99875" stroke="black" stroke-width="1.5" stroke-linecap="round" stroke-linejoin="round"/>
<path d="M7.49813 7.81641V9.31703" stroke="black" stroke-width="1.5" stroke-linecap="round" stroke-linejoin="round"/>
<path d="M4.74597 14.7511C4.60797 14.7516 4.4965 14.8639 4.49687 15.0019C4.49724 15.1399 4.60931 15.2515 4.7473 15.2513C4.8853 15.2511 4.99708 15.1392 4.99708 15.0012C4.99735 14.9346 4.97094 14.8707 4.92377 14.8237C4.87659 14.7767 4.81256 14.7506 4.74597 14.7511" stroke="black" stroke-width="1.5" stroke-linecap="round" stroke-linejoin="round"/>
<path d="M4.74597 19.753C4.60797 19.7536 4.4965 19.8658 4.49687 20.0038C4.49724 20.1418 4.60931 20.2534 4.7473 20.2532C4.8853 20.2531 4.99708 20.1411 4.99708 20.0031C4.99735 19.9366 4.97094 19.8726 4.92377 19.8256C4.87659 19.7786 4.81256 19.7525 4.74597 19.753" stroke="black" stroke-width="1.5" stroke-linecap="round" stroke-linejoin="round"/>
<path d="M7.49813 5.71191C7.47051 5.71191 7.44811 5.7343 7.44811 5.76193C7.44811 5.78955 7.47051 5.81195 7.49813 5.81195C7.52576 5.81195 7.54815 5.78955 7.54815 5.76193C7.54815 5.7343 7.52576 5.71191 7.49813 5.71191" stroke="black" stroke-width="1.5" stroke-linecap="round" stroke-linejoin="round"/>
</svg>
