<svg width="24" height="24" viewBox="0 0 24 24" fill="none" xmlns="http://www.w3.org/2000/svg">
<path d="M9.99917 21.0041H14.0008" stroke="black" stroke-width="1.5" stroke-linecap="round" stroke-linejoin="round"/>
<path d="M9.99917 2.9963H14.0008" stroke="black" stroke-width="1.5" stroke-linecap="round" stroke-linejoin="round"/>
<path d="M2.99626 9.99902V14.0007" stroke="black" stroke-width="1.5" stroke-linecap="round" stroke-linejoin="round"/>
<path d="M21.0037 9.99902V14.0007" stroke="black" stroke-width="1.5" stroke-linecap="round" stroke-linejoin="round"/>
<path d="M6.99792 21.0036V21.0036C4.78786 21.0036 2.99625 19.212 2.99625 17.002V17.002" stroke="black" stroke-width="1.5" stroke-linecap="round" stroke-linejoin="round"/>
<path d="M7.00167 21.0017C4.79161 21.0017 3 19.2101 3 17" stroke="black" stroke-width="1.5" stroke-linecap="round" stroke-linejoin="round"/>
<path d="M17.0021 2.99609C19.2121 2.99609 21.0038 4.7877 21.0038 6.99776" stroke="black" stroke-width="1.5" stroke-linecap="round" stroke-linejoin="round"/>
<path d="M2.99625 6.99776C2.99625 4.7877 4.78786 2.99609 6.99792 2.99609" stroke="black" stroke-width="1.5" stroke-linecap="round" stroke-linejoin="round"/>
<path d="M21.0038 17.002C21.0038 19.212 19.2121 21.0036 17.0021 21.0036" stroke="black" stroke-width="1.5" stroke-linecap="round" stroke-linejoin="round"/>
<path d="M11.8499 7.99522C11.7118 7.99522 11.5998 8.1072 11.5998 8.24533C11.5998 8.38345 11.7118 8.49543 11.8499 8.49543C11.9881 8.49543 12.1 8.38345 12.1 8.24533C12.1 8.1072 11.9881 7.99522 11.8499 7.99522V7.99522" stroke="black" stroke-width="1.5" stroke-linecap="round" stroke-linejoin="round"/>
<path d="M11.0096 11.25H12.1601V15.5018" stroke="black" stroke-width="1.5" stroke-linecap="round" stroke-linejoin="round"/>
<path d="M10.9996 15.5012H13.3099" stroke="black" stroke-width="1.5" stroke-linecap="round" stroke-linejoin="round"/>
</svg>
