<svg width="24" height="24" viewBox="0 0 24 24" fill="none" xmlns="http://www.w3.org/2000/svg">
<path d="M7.49813 2.99609H5.9975C4.33996 2.99609 2.99625 4.3398 2.99625 5.99734V7.49797" stroke="black" stroke-width="1.5" stroke-linecap="round" stroke-linejoin="round"/>
<path d="M2.99625 16.502V18.0026C2.99625 19.6601 4.33996 21.0038 5.9975 21.0038H7.49813" stroke="black" stroke-width="1.5" stroke-linecap="round" stroke-linejoin="round"/>
<path d="M16.5019 21.0038H18.0025C19.66 21.0038 21.0038 19.6601 21.0038 18.0026V16.502" stroke="black" stroke-width="1.5" stroke-linecap="round" stroke-linejoin="round"/>
<path d="M21.0038 7.49797V5.99734C21.0038 4.3398 19.66 2.99609 18.0025 2.99609H16.5019" stroke="black" stroke-width="1.5" stroke-linecap="round" stroke-linejoin="round"/>
<path d="M11.0086 11.25H12.1591V15.5018" stroke="black" stroke-width="1.5" stroke-linecap="round" stroke-linejoin="round"/>
<path d="M10.9996 15.5012H13.3099" stroke="black" stroke-width="1.5" stroke-linecap="round" stroke-linejoin="round"/>
<path d="M12.1004 8.24565C12.1002 8.38369 11.9882 8.49549 11.8502 8.49543C11.7121 8.49537 11.6002 8.38348 11.6002 8.24543C11.6001 8.10739 11.7119 7.9954 11.8499 7.99522C11.9164 7.99514 11.9801 8.02149 12.0271 8.06848C12.0741 8.11546 12.1004 8.1792 12.1004 8.24565" stroke="black" stroke-width="1.5" stroke-linecap="round" stroke-linejoin="round"/>
</svg>
