<svg width="24" height="24" viewBox="0 0 24 24" fill="none" xmlns="http://www.w3.org/2000/svg">
<path d="M5.62534 18.3575C8.50404 21.2443 12.9632 21.8366 16.4957 19.8014C20.0282 17.7662 21.7524 13.6113 20.6988 9.673C19.6452 5.73466 16.0768 2.99568 12 2.99609" stroke="black" stroke-width="1.5" stroke-linecap="round" stroke-linejoin="round"/>
<path d="M10.9996 15.5012H13.3099" stroke="black" stroke-width="1.5" stroke-linecap="round" stroke-linejoin="round"/>
<path d="M12.1591 15.5018V11.25H11.0086" stroke="black" stroke-width="1.5" stroke-linecap="round" stroke-linejoin="round"/>
<path d="M12.1 8.24533C12.1 8.38345 11.9881 8.49543 11.8499 8.49543C11.7118 8.49543 11.5998 8.38345 11.5998 8.24533C11.5998 8.1072 11.7118 7.99522 11.8499 7.99522" stroke="black" stroke-width="1.5" stroke-linecap="round" stroke-linejoin="round"/>
<path d="M11.8499 7.99527C11.9881 7.99527 12.1 8.10725 12.1 8.24538" stroke="black" stroke-width="1.5" stroke-linecap="round" stroke-linejoin="round"/>
<path d="M8.62359 3.72775C8.62359 3.75537 8.6012 3.77777 8.57357 3.77777C8.54595 3.77777 8.52355 3.75537 8.52355 3.72775C8.52355 3.70012 8.54595 3.67773 8.57357 3.67773" stroke="black" stroke-width="1.5" stroke-linecap="round" stroke-linejoin="round"/>
<path d="M8.57357 3.67735C8.6012 3.67735 8.62359 3.69974 8.62359 3.72737" stroke="black" stroke-width="1.5" stroke-linecap="round" stroke-linejoin="round"/>
<path d="M5.71838 5.66818C5.71838 5.68841 5.70619 5.70665 5.6875 5.71439C5.66881 5.72213 5.6473 5.71785 5.63299 5.70355C5.61868 5.68924 5.61441 5.66773 5.62215 5.64903C5.62989 5.63034 5.64813 5.61816 5.66836 5.61816" stroke="black" stroke-width="1.5" stroke-linecap="round" stroke-linejoin="round"/>
<path d="M5.66836 5.61875C5.69599 5.61875 5.71838 5.64115 5.71838 5.66877" stroke="black" stroke-width="1.5" stroke-linecap="round" stroke-linejoin="round"/>
<path d="M3.77757 8.57345C3.77757 8.60108 3.75518 8.62347 3.72755 8.62347C3.69993 8.62347 3.67753 8.60108 3.67753 8.57345C3.67753 8.54582 3.69993 8.52343 3.72755 8.52343" stroke="black" stroke-width="1.5" stroke-linecap="round" stroke-linejoin="round"/>
<path d="M3.72756 8.52403C3.74082 8.52403 3.75354 8.5293 3.76293 8.53868C3.77231 8.54806 3.77758 8.56078 3.77758 8.57405" stroke="black" stroke-width="1.5" stroke-linecap="round" stroke-linejoin="round"/>
<path d="M3.09629 12.0002C3.09629 12.0204 3.08411 12.0387 3.06541 12.0464C3.04672 12.0542 3.02521 12.0499 3.0109 12.0356C2.9966 12.0213 2.99232 11.9998 3.00006 11.9811C3.0078 11.9624 3.02604 11.9502 3.04627 11.9502" stroke="black" stroke-width="1.5" stroke-linecap="round" stroke-linejoin="round"/>
<path d="M3.04627 11.9498C3.0739 11.9498 3.09629 11.9722 3.09629 11.9998" stroke="black" stroke-width="1.5" stroke-linecap="round" stroke-linejoin="round"/>
<path d="M3.77757 15.427C3.77757 15.4546 3.75518 15.477 3.72755 15.477C3.69993 15.477 3.67753 15.4546 3.67753 15.427C3.67753 15.3993 3.69993 15.3769 3.72755 15.3769" stroke="black" stroke-width="1.5" stroke-linecap="round" stroke-linejoin="round"/>
<path d="M3.72756 15.3766C3.75518 15.3766 3.77758 15.399 3.77758 15.4266" stroke="black" stroke-width="1.5" stroke-linecap="round" stroke-linejoin="round"/>
</svg>
