<svg width="24" height="24" viewBox="0 0 24 24" fill="none" xmlns="http://www.w3.org/2000/svg">
<path d="M11.104 11.5H12.254V15.75" stroke="black" stroke-width="1.5" stroke-linecap="round" stroke-linejoin="round"/>
<path d="M11.1 15.75H13.4" stroke="black" stroke-width="1.5" stroke-linecap="round" stroke-linejoin="round"/>
<path d="M12.1956 8.50032C12.1955 8.63831 12.0835 8.75006 11.9455 8.75C11.8076 8.74994 11.6957 8.63809 11.6957 8.50011C11.6956 8.36212 11.8073 8.25018 11.9453 8.25C12.0117 8.24992 12.0755 8.27626 12.1224 8.32322C12.1694 8.37019 12.1957 8.43391 12.1956 8.50032" stroke="black" stroke-width="1.5" stroke-linecap="round" stroke-linejoin="round"/>
<path d="M19.6132 7.21484C21.8544 10.7667 21.3372 15.3972 18.3674 18.367C15.3976 21.3368 10.7671 21.854 7.21527 19.6127" stroke="black" stroke-width="1.5" stroke-linecap="round" stroke-linejoin="round"/>
<path d="M14 3.23047C14.987 3.45531 15.9287 3.84626 16.7847 4.3866" stroke="black" stroke-width="1.5" stroke-linecap="round" stroke-linejoin="round"/>
<path d="M3.23071 14C3.45555 14.987 3.8465 15.9287 4.38684 16.7847" stroke="black" stroke-width="1.5" stroke-linecap="round" stroke-linejoin="round"/>
<path d="M10 3.23047C9.01297 3.45531 8.07132 3.84626 7.21527 4.3866" stroke="black" stroke-width="1.5" stroke-linecap="round" stroke-linejoin="round"/>
<path d="M4.38684 7.21484C3.8465 8.07089 3.45555 9.01254 3.23071 9.99957" stroke="black" stroke-width="1.5" stroke-linecap="round" stroke-linejoin="round"/>
</svg>
