<svg width="24" height="24" viewBox="0 0 24 24" fill="none" xmlns="http://www.w3.org/2000/svg">
<path d="M7.84727 11.7348C7.95466 11.842 7.98685 12.0034 7.92881 12.1437C7.87077 12.2839 7.73394 12.3754 7.58216 12.3754C7.43038 12.3754 7.29356 12.2839 7.23552 12.1437C7.17748 12.0034 7.20966 11.842 7.31705 11.7348C7.46352 11.5885 7.7008 11.5885 7.84727 11.7348" stroke="black" stroke-width="1.5" stroke-linecap="round" stroke-linejoin="round"/>
<path d="M12.2651 11.7348C12.3725 11.842 12.4047 12.0034 12.3466 12.1437C12.2886 12.2839 12.1518 12.3754 12 12.3754C11.8482 12.3754 11.7114 12.2839 11.6534 12.1437C11.5953 12.0034 11.6275 11.842 11.7349 11.7348C11.8814 11.5885 12.1186 11.5885 12.2651 11.7348" stroke="black" stroke-width="1.5" stroke-linecap="round" stroke-linejoin="round"/>
<path d="M16.0017 20.0037V3.99707" stroke="black" stroke-width="1.5" stroke-linecap="round" stroke-linejoin="round"/>
<path d="M13.0004 17.0022H4.99709C3.89206 17.0022 2.99625 16.1064 2.99625 15.0014V8.99888C2.99625 7.89385 3.89206 6.99805 4.99709 6.99805H13.0004" stroke="black" stroke-width="1.5" stroke-linecap="round" stroke-linejoin="round"/>
<path d="M16.0017 17.0022H19.0029C20.108 17.0022 21.0038 16.1064 21.0038 15.0014V8.99888C21.0038 7.89385 20.108 6.99805 19.0029 6.99805H16.0017" stroke="black" stroke-width="1.5" stroke-linecap="round" stroke-linejoin="round"/>
<path d="M13.5006 20.0031H18.5027" stroke="black" stroke-width="1.5" stroke-linecap="round" stroke-linejoin="round"/>
<path d="M13.5006 3.9963H18.5027" stroke="black" stroke-width="1.5" stroke-linecap="round" stroke-linejoin="round"/>
</svg>
