<svg width="24" height="24" viewBox="0 0 24 24" fill="none" xmlns="http://www.w3.org/2000/svg">
<path d="M8.99875 2.99658H9.99917C11.1042 2.99658 12 3.89239 12 4.99742C12 3.89239 12.8958 2.99658 14.0008 2.99658H15.0012" stroke="black" stroke-width="1.5" stroke-linecap="round" stroke-linejoin="round"/>
<path d="M12 20.0033V4.99707" stroke="black" stroke-width="1.5" stroke-linecap="round" stroke-linejoin="round"/>
<path d="M15.0012 21.0038H14.0008C12.8958 21.0038 12 20.108 12 19.0029C12 20.108 11.1042 21.0038 9.99917 21.0038H8.99875" stroke="black" stroke-width="1.5" stroke-linecap="round" stroke-linejoin="round"/>
<path d="M8.99875 18.0026H4.99708C3.89205 18.0026 2.99625 17.1068 2.99625 16.0017V7.99839C2.99625 6.89336 3.89205 5.99756 4.99708 5.99756H8.99875" stroke="black" stroke-width="1.5" stroke-linecap="round" stroke-linejoin="round"/>
<path d="M15.0013 18.0026H19.0029C20.1079 18.0026 21.0038 17.1068 21.0038 16.0017V7.99839C21.0038 6.89336 20.1079 5.99756 19.0029 5.99756H15.0013" stroke="black" stroke-width="1.5" stroke-linecap="round" stroke-linejoin="round"/>
</svg>
