<svg width="24" height="24" viewBox="0 0 24 24" fill="none" xmlns="http://www.w3.org/2000/svg">
<path d="M7.75924 11.8232C7.85673 11.9209 7.85659 12.0792 7.75894 12.1767C7.66128 12.2743 7.50304 12.2743 7.40539 12.1767C7.30773 12.0792 7.3076 11.9209 7.40509 11.8232C7.50326 11.7263 7.66106 11.7263 7.75924 11.8232" stroke="black" stroke-width="1.5" stroke-linecap="round" stroke-linejoin="round"/>
<path d="M12.1771 11.8232C12.2746 11.9209 12.2744 12.0792 12.1768 12.1767C12.0791 12.2743 11.9209 12.2743 11.8232 12.1767C11.7256 12.0792 11.7254 11.9209 11.8229 11.8232C11.9211 11.7263 12.0789 11.7263 12.1771 11.8232" stroke="black" stroke-width="1.5" stroke-linecap="round" stroke-linejoin="round"/>
<path d="M16.0017 14.5011V9.49902" stroke="black" stroke-width="1.5" stroke-linecap="round" stroke-linejoin="round"/>
<path fill-rule="evenodd" clip-rule="evenodd" d="M17.0021 2.99658H6.99792C4.78786 2.99658 2.99625 4.78819 2.99625 6.99825V17.0024C2.99625 19.2125 4.78786 21.0041 6.99792 21.0041H17.0021C19.2121 21.0041 21.0038 19.2125 21.0038 17.0024V6.99825C21.0038 4.78819 19.2121 2.99658 17.0021 2.99658Z" stroke="black" stroke-width="1.5" stroke-linecap="round" stroke-linejoin="round"/>
</svg>
