<svg width="24" height="24" viewBox="0 0 24 24" fill="none" xmlns="http://www.w3.org/2000/svg">
<path d="M7.84726 11.7348C7.95465 11.842 7.98683 12.0034 7.92879 12.1437C7.87075 12.2839 7.73393 12.3754 7.58215 12.3754C7.43037 12.3754 7.29354 12.2839 7.2355 12.1437C7.17746 12.0034 7.20965 11.842 7.31704 11.7348C7.46351 11.5885 7.70079 11.5885 7.84726 11.7348" stroke="black" stroke-width="1.5" stroke-linecap="round" stroke-linejoin="round"/>
<path d="M12.2651 11.7348C12.3725 11.842 12.4047 12.0034 12.3466 12.1437C12.2886 12.2839 12.1518 12.3754 12 12.3754C11.8482 12.3754 11.7114 12.2839 11.6534 12.1437C11.5953 12.0034 11.6275 11.842 11.7349 11.7348C11.8814 11.5885 12.1186 11.5885 12.2651 11.7348" stroke="black" stroke-width="1.5" stroke-linecap="round" stroke-linejoin="round"/>
<path d="M16.0017 14.5011V9.49902" stroke="black" stroke-width="1.5" stroke-linecap="round" stroke-linejoin="round"/>
<circle cx="12" cy="12.0003" r="9.00375" stroke="black" stroke-width="1.5" stroke-linecap="round" stroke-linejoin="round"/>
</svg>
