<svg width="24" height="24" viewBox="0 0 24 24" fill="none" xmlns="http://www.w3.org/2000/svg">
<path d="M7.849 11.7349C7.995 11.8809 7.995 12.1189 7.849 12.2649C7.703 12.4109 7.465 12.4109 7.319 12.2649C7.173 12.1189 7.173 11.8809 7.319 11.7349C7.465 11.5879 7.702 11.5879 7.849 11.7349" stroke="black" stroke-width="1.5" stroke-linecap="round" stroke-linejoin="round"/>
<path d="M12.265 11.7349C12.411 11.8809 12.411 12.1189 12.265 12.2649C12.119 12.4109 11.881 12.4109 11.735 12.2649C11.589 12.1189 11.589 11.8809 11.735 11.7349C11.881 11.5879 12.119 11.5879 12.265 11.7349" stroke="black" stroke-width="1.5" stroke-linecap="round" stroke-linejoin="round"/>
<path d="M13 3H14C15.105 3 16 3.895 16 5C16 3.895 16.895 3 18 3H19" stroke="black" stroke-width="1.5" stroke-linecap="round" stroke-linejoin="round"/>
<path d="M16 19V5" stroke="black" stroke-width="1.5" stroke-linecap="round" stroke-linejoin="round"/>
<path d="M19 21H18C16.895 21 16 20.105 16 19C16 20.105 15.105 21 14 21H13" stroke="black" stroke-width="1.5" stroke-linecap="round" stroke-linejoin="round"/>
<path d="M13 17H5C3.895 17 3 16.105 3 15V9C3 7.895 3.895 7 5 7H13" stroke="black" stroke-width="1.5" stroke-linecap="round" stroke-linejoin="round"/>
<path d="M16 17H19C20.105 17 21 16.105 21 15V9C21 7.895 20.105 7 19 7H16" stroke="black" stroke-width="1.5" stroke-linecap="round" stroke-linejoin="round"/>
</svg>
