<svg width="24" height="24" viewBox="0 0 24 24" fill="none" xmlns="http://www.w3.org/2000/svg">
<path d="M13.574 3.14501C13.062 3.05601 12.538 3.00001 12 3.00001C11.462 3.00001 10.938 3.05601 10.426 3.14501" stroke="black" stroke-width="1.5" stroke-linecap="round" stroke-linejoin="round"/>
<path d="M20.518 8.9729C20.871 9.9419 21.073 10.9829 21.073 12.0729" stroke="black" stroke-width="1.5" stroke-linecap="round" stroke-linejoin="round"/>
<path d="M18.948 6.24292C18.27 5.43592 17.451 4.75292 16.533 4.22192" stroke="black" stroke-width="1.5" stroke-linecap="round" stroke-linejoin="round"/>
<path d="M7.467 4.22192C6.549 4.75292 5.731 5.43592 5.052 6.24292" stroke="black" stroke-width="1.5" stroke-linecap="round" stroke-linejoin="round"/>
<path d="M2.927 12.0729C2.927 10.9819 3.129 9.9409 3.482 8.9729" stroke="black" stroke-width="1.5" stroke-linecap="round" stroke-linejoin="round"/>
<path d="M7.46701 19.9241C8.36701 20.4451 9.36401 20.8141 10.426 21.0001" stroke="black" stroke-width="1.5" stroke-linecap="round" stroke-linejoin="round"/>
<path d="M3.48199 15.1731C3.84799 16.1771 4.37799 17.1001 5.05199 17.9031" stroke="black" stroke-width="1.5" stroke-linecap="round" stroke-linejoin="round"/>
<path d="M13.574 21.0001C14.636 20.8141 15.632 20.4451 16.533 19.9241" stroke="black" stroke-width="1.5" stroke-linecap="round" stroke-linejoin="round"/>
<path d="M18.948 17.9031C19.622 17.1001 20.152 16.1771 20.518 15.1731" stroke="black" stroke-width="1.5" stroke-linecap="round" stroke-linejoin="round"/>
</svg>
