<svg width="24" height="24" viewBox="0 0 24 24" fill="none" xmlns="http://www.w3.org/2000/svg">
<path fill-rule="evenodd" clip-rule="evenodd" d="M16 21H8C5.239 21 3 18.761 3 16V8C3 5.239 5.239 3 8 3H16C18.761 3 21 5.239 21 8V16C21 18.761 18.761 21 16 21Z" stroke="black" stroke-width="1.5" stroke-linecap="round" stroke-linejoin="round"/>
<path d="M6.54999 9.3001C6.52199 9.3001 6.49999 9.3221 6.49999 9.3501C6.49999 9.3781 6.52199 9.4001 6.54999 9.4001C6.57799 9.4001 6.59999 9.3781 6.59999 9.3501C6.59999 9.3221 6.57799 9.3001 6.54999 9.3001" stroke="black" stroke-width="1.5" stroke-linecap="round" stroke-linejoin="round"/>
<path fill-rule="evenodd" clip-rule="evenodd" d="M11.094 14.525H10.606C9.91201 14.525 9.35001 13.963 9.35001 13.269V10.681C9.35001 9.98705 9.91201 9.42505 10.606 9.42505H11.094C11.788 9.42505 12.35 9.98705 12.35 10.681V13.269C12.35 13.963 11.788 14.525 11.094 14.525V14.525Z" stroke="black" stroke-width="1.5" stroke-linecap="round" stroke-linejoin="round"/>
<path d="M14.941 13.902C15.156 14.256 15.525 14.5 15.971 14.5H16.971C17.523 14.5 17.971 14.052 17.971 13.5V13.221C17.971 12.791 17.696 12.408 17.287 12.272L15.655 11.728C15.247 11.592 14.971 11.21 14.971 10.779V10.5C14.971 9.948 15.419 9.5 15.971 9.5H16.971C17.415 9.5 17.783 9.743 17.998 10.095" stroke="black" stroke-width="1.5" stroke-linecap="round" stroke-linejoin="round"/>
<path d="M6.54999 11.8999V14.3999" stroke="black" stroke-width="1.5" stroke-linecap="round" stroke-linejoin="round"/>
</svg>
