<svg width="24" height="24" viewBox="0 0 24 24" fill="none" xmlns="http://www.w3.org/2000/svg">
<path d="M9.99916 20.0037H4.99708C3.89205 20.0037 2.99625 19.1079 2.99625 18.0029V5.9979C2.99625 4.89287 3.89205 3.99707 4.99708 3.99707H19.0029C20.1079 3.99707 21.0037 4.89287 21.0037 5.9979V7.99874" stroke="black" stroke-width="1.5" stroke-linecap="round" stroke-linejoin="round"/>
<path d="M22.0042 20.0036L19.6842 17.6836" stroke="black" stroke-width="1.5" stroke-linecap="round" stroke-linejoin="round"/>
<path d="M16.5019 9.99902C18.9882 9.99902 21.0037 12.0146 21.0037 14.5009C21.0037 16.9872 18.9882 19.0028 16.5019 19.0028C14.0156 19.0028 12 16.9872 12 14.5009C12 12.0146 14.0156 9.99902 16.5019 9.99902" stroke="black" stroke-width="1.5" stroke-linecap="round" stroke-linejoin="round"/>
<path d="M17.7244 14.4512C17.6968 14.4512 17.6744 14.4736 17.6744 14.5012C17.6744 14.5288 17.6968 14.5512 17.7244 14.5512V14.5512C17.752 14.5512 17.7744 14.5288 17.7744 14.5012C17.7744 14.4736 17.752 14.4512 17.7244 14.4512" stroke="black" stroke-width="1.5" stroke-linecap="round" stroke-linejoin="round"/>
<path d="M15.2784 14.4512C15.2513 14.4512 15.2293 14.4731 15.2293 14.5002V14.5002C15.2293 14.5278 15.2517 14.5502 15.2794 14.5502C15.307 14.5502 15.3294 14.5278 15.3294 14.5002C15.3294 14.4726 15.307 14.4502 15.2794 14.4502V14.4502" stroke="black" stroke-width="1.5" stroke-linecap="round" stroke-linejoin="round"/>
</svg>
