<svg width="24" height="24" viewBox="0 0 24 24" fill="none" xmlns="http://www.w3.org/2000/svg">
<path d="M21.0038 4.99693C21.0039 4.46623 20.7931 3.95722 20.4179 3.58196C20.0426 3.2067 19.5336 2.99595 19.0029 2.99609" stroke="black" stroke-width="1.5" stroke-linecap="round" stroke-linejoin="round"/>
<path d="M21.0037 12V13.0004" stroke="black" stroke-width="1.5" stroke-linecap="round" stroke-linejoin="round"/>
<path d="M21.0037 7.99805V8.99846" stroke="black" stroke-width="1.5" stroke-linecap="round" stroke-linejoin="round"/>
<path d="M21.0038 16.002C21.0039 16.5327 20.7931 17.0417 20.4179 17.4169C20.0426 17.7922 19.5336 18.0029 19.0029 18.0028" stroke="black" stroke-width="1.5" stroke-linecap="round" stroke-linejoin="round"/>
<path fill-rule="evenodd" clip-rule="evenodd" d="M14.0008 21.0035H4.99708C4.46639 21.0036 3.95738 20.7929 3.58212 20.4176C3.20686 20.0423 2.9961 19.5333 2.99625 19.0026V9.99888C2.9961 9.46818 3.20686 8.95918 3.58212 8.58392C3.95738 8.20866 4.46639 7.9979 4.99708 7.99805H14.0008C14.5315 7.9979 15.0405 8.20866 15.4158 8.58392C15.7911 8.95918 16.0018 9.46818 16.0017 9.99888V19.0026C16.0018 19.5333 15.7911 20.0423 15.4158 20.4176C15.0405 20.7929 14.5315 21.0036 14.0008 21.0035Z" stroke="black" stroke-width="1.5" stroke-linecap="round" stroke-linejoin="round"/>
<path d="M5.9975 11.5002H13.0004" stroke="black" stroke-width="1.5" stroke-linecap="round" stroke-linejoin="round"/>
<path d="M5.9975 17.5022H13.0004" stroke="black" stroke-width="1.5" stroke-linecap="round" stroke-linejoin="round"/>
<path d="M5.9975 14.5012H13.0004" stroke="black" stroke-width="1.5" stroke-linecap="round" stroke-linejoin="round"/>
<path d="M7.99833 2.99609C7.46764 2.99595 6.95863 3.2067 6.58337 3.58196C6.20811 3.95722 5.99736 4.46623 5.9975 4.99693" stroke="black" stroke-width="1.5" stroke-linecap="round" stroke-linejoin="round"/>
<path d="M15.0013 2.9963H16.0017" stroke="black" stroke-width="1.5" stroke-linecap="round" stroke-linejoin="round"/>
<path d="M10.9996 2.9963H12" stroke="black" stroke-width="1.5" stroke-linecap="round" stroke-linejoin="round"/>
</svg>
