<svg width="24" height="24" viewBox="0 0 24 24" fill="none" xmlns="http://www.w3.org/2000/svg">
<path d="M20.0033 13.0008V16.7524C20.0033 17.88 19.5554 18.9615 18.758 19.7588C17.9607 20.5562 16.8792 21.0042 15.7516 21.0042H7.24802C4.89984 21.0042 2.99625 19.1006 2.99625 16.7524V8.24884C2.99625 5.90065 4.89984 3.99707 7.24802 3.99707H10.9996" stroke="black" stroke-width="1.5" stroke-linecap="round" stroke-linejoin="round"/>
<path fill-rule="evenodd" clip-rule="evenodd" d="M17.2662 2.45378C17.4041 2.17301 17.6897 1.99512 18.0025 1.99512C18.3153 1.99512 18.6009 2.17301 18.7388 2.45378L19.3391 3.67028C19.4583 3.91296 19.6897 4.08107 19.9573 4.11947L21.3009 4.31956C21.6104 4.36422 21.8676 4.58097 21.964 4.87843C22.0605 5.1759 21.9795 5.50234 21.7551 5.72014L20.7837 6.66853C20.5897 6.85672 20.5014 7.12859 20.5476 7.39484L20.7767 8.73239C20.8298 9.04031 20.7033 9.35167 20.4506 9.53539C20.1978 9.71911 19.8627 9.74329 19.5862 9.59775L18.3857 8.96649C18.1465 8.84038 17.8605 8.84038 17.6213 8.96649L16.4208 9.59775C16.1443 9.74329 15.8092 9.71911 15.5564 9.53539C15.3037 9.35167 15.1772 9.04031 15.2303 8.73239L15.4594 7.39484C15.5056 7.12859 15.4173 6.85672 15.2233 6.66853L14.2519 5.72014C14.0275 5.50234 13.9465 5.1759 14.043 4.87843C14.1394 4.58097 14.3966 4.36422 14.7061 4.31956L16.0497 4.11947C16.3173 4.08107 16.5487 3.91296 16.6679 3.67028L17.2662 2.45378Z" stroke="black" stroke-width="1.5" stroke-linecap="round" stroke-linejoin="round"/>
</svg>
