<svg width="24" height="24" viewBox="0 0 24 24" fill="none" xmlns="http://www.w3.org/2000/svg">
<path d="M7 7.25C6.58579 7.25 6.25 7.58579 6.25 8C6.25 8.41421 6.58579 8.75 7 8.75V7.25ZM17 8.75C17.4142 8.75 17.75 8.41421 17.75 8C17.75 7.58579 17.4142 7.25 17 7.25V8.75ZM7 11.25C6.58579 11.25 6.25 11.5858 6.25 12C6.25 12.4142 6.58579 12.75 7 12.75V11.25ZM15 12.75C15.4142 12.75 15.75 12.4142 15.75 12C15.75 11.5858 15.4142 11.25 15 11.25V12.75ZM7 15.25C6.58579 15.25 6.25 15.5858 6.25 16C6.25 16.4142 6.58579 16.75 7 16.75V15.25ZM9 16.75C9.41421 16.75 9.75 16.4142 9.75 16C9.75 15.5858 9.41421 15.25 9 15.25V16.75ZM14.4697 18.5303C14.7626 18.8232 15.2374 18.8232 15.5303 18.5303C15.8232 18.2374 15.8232 17.7626 15.5303 17.4697L14.4697 18.5303ZM13.5303 15.4697C13.2374 15.1768 12.7626 15.1768 12.4697 15.4697C12.1768 15.7626 12.1768 16.2374 12.4697 16.5303L13.5303 15.4697ZM18.5303 15.5303C18.8232 15.2374 18.8232 14.7626 18.5303 14.4697C18.2374 14.1768 17.7626 14.1768 17.4697 14.4697L18.5303 15.5303ZM14.4697 17.4697C14.1768 17.7626 14.1768 18.2374 14.4697 18.5303C14.7626 18.8232 15.2374 18.8232 15.5303 18.5303L14.4697 17.4697ZM7 8.75H17V7.25H7V8.75ZM7 12.75H15V11.25H7V12.75ZM7 16.75H9V15.25H7V16.75ZM19 20.25H5V21.75H19V20.25ZM5 20.25C4.30921 20.25 3.75 19.6908 3.75 19H2.25C2.25 20.5192 3.48079 21.75 5 21.75V20.25ZM3.75 19V5H2.25V19H3.75ZM3.75 5C3.75 4.30921 4.30921 3.75 5 3.75V2.25C3.48079 2.25 2.25 3.48079 2.25 5H3.75ZM5 3.75H19V2.25H5V3.75ZM19 3.75C19.6908 3.75 20.25 4.30921 20.25 5H21.75C21.75 3.48079 20.5192 2.25 19 2.25V3.75ZM20.25 5V19H21.75V5H20.25ZM20.25 19C20.25 19.6908 19.6908 20.25 19 20.25V21.75C20.5192 21.75 21.75 20.5192 21.75 19H20.25ZM15.5303 17.4697L13.5303 15.4697L12.4697 16.5303L14.4697 18.5303L15.5303 17.4697ZM17.4697 14.4697L14.4697 17.4697L15.5303 18.5303L18.5303 15.5303L17.4697 14.4697Z" fill="black"/>
</svg>
