<svg width="24" height="24" viewBox="0 0 24 24" fill="none" xmlns="http://www.w3.org/2000/svg">
<path d="M19.0029 15.0012V17.0021C19.0029 19.2121 17.2113 21.0037 15.0012 21.0037H6.99791C4.78785 21.0037 2.99625 19.2121 2.99625 17.0021V8.99874C2.99625 6.78868 4.78785 4.99707 6.99791 4.99707H8.99875" stroke="black" stroke-width="1.5" stroke-linecap="round" stroke-linejoin="round"/>
<path d="M17.0021 6.8133V4.97754" stroke="black" stroke-width="1.5" stroke-linecap="round" stroke-linejoin="round"/>
<path d="M17.0021 8.83789C16.978 8.83788 16.955 8.84751 16.9381 8.86461C16.9211 8.88171 16.9118 8.90487 16.912 8.92892C16.912 8.96584 16.9343 8.99909 16.9685 9.01312C17.0026 9.02715 17.0419 9.01918 17.0678 8.99293C17.0938 8.96669 17.1013 8.92737 17.0869 8.89339C17.0725 8.8594 17.039 8.83748 17.0021 8.83789" stroke="black" stroke-width="1.5" stroke-linecap="round" stroke-linejoin="round"/>
<path d="M17.0021 12.0003C14.2395 12.0003 12 9.76075 12 6.99818C12 4.2356 14.2395 1.99609 17.0021 1.99609C19.7647 1.99609 22.0042 4.2356 22.0042 6.99818C22.0042 9.76075 19.7647 12.0003 17.0021 12.0003" stroke="black" stroke-width="1.5" stroke-linecap="round" stroke-linejoin="round"/>
</svg>
