<svg width="24" height="24" viewBox="0 0 24 24" fill="none" xmlns="http://www.w3.org/2000/svg">
<path d="M6.99791 9.99923H9.99916" stroke="black" stroke-width="1.5" stroke-linecap="round" stroke-linejoin="round"/>
<path d="M6.99791 14.0012H13.0004" stroke="black" stroke-width="1.5" stroke-linecap="round" stroke-linejoin="round"/>
<path fill-rule="evenodd" clip-rule="evenodd" d="M16.388 9.99901H14.0008V7.61186C14.0006 7.36701 14.0979 7.13215 14.2713 6.95923L17.9637 3.2668C18.1365 3.09371 18.3709 2.99633 18.6155 2.99609C18.86 2.99586 19.0946 3.09278 19.2677 3.26554L19.269 3.2668L20.733 4.73082C20.9061 4.90357 21.0035 5.138 21.0037 5.38254C21.004 5.62708 20.9071 5.86171 20.7343 6.03479L20.733 6.03608L17.0406 9.72851C16.8675 9.90151 16.6328 9.99879 16.388 9.99901Z" stroke="black" stroke-width="1.5" stroke-linecap="round" stroke-linejoin="round"/>
<path d="M21.0037 10.9994V17.0019C21.0037 19.212 19.2121 21.0036 17.0021 21.0036H6.99791C4.78785 21.0036 2.99625 19.212 2.99625 17.0019V6.99776C2.99625 4.7877 4.78785 2.99609 6.99791 2.99609H12" stroke="black" stroke-width="1.5" stroke-linecap="round" stroke-linejoin="round"/>
</svg>
