<svg width="24" height="24" viewBox="0 0 24 24" fill="none" xmlns="http://www.w3.org/2000/svg">
<path d="M15.0012 9.44824V15.4177" stroke="black" stroke-width="1.5" stroke-linecap="round" stroke-linejoin="round"/>
<path d="M14.1219 10.3123C14.9804 11.1706 15.2374 12.4616 14.7729 13.5832C14.3084 14.7048 13.214 15.4361 12 15.4361C10.786 15.4361 9.6916 14.7048 9.22711 13.5832C8.76263 12.4616 9.01957 11.1706 9.87811 10.3123C11.0501 9.14069 12.9499 9.14069 14.1219 10.3123" stroke="black" stroke-width="1.5" stroke-linecap="round" stroke-linejoin="round"/>
<path fill-rule="evenodd" clip-rule="evenodd" d="M12 2.99609V2.99609C16.9726 2.99609 21.0037 7.02721 21.0037 11.9998V17.0019C21.0037 19.212 19.2121 21.0036 17.0021 21.0036H12C7.02736 21.0036 2.99625 16.9725 2.99625 11.9998V11.9998C2.99625 7.02721 7.02736 2.99609 12 2.99609V2.99609Z" stroke="black" stroke-width="1.5" stroke-linecap="round" stroke-linejoin="round"/>
</svg>
