<svg width="24" height="24" viewBox="0 0 24 24" fill="none" xmlns="http://www.w3.org/2000/svg">
<path fill-rule="evenodd" clip-rule="evenodd" d="M20.7536 17.002H17.2522C16.5615 17.002 16.0017 17.5618 16.0017 18.2525V20.7535C16.0017 21.4442 16.5615 22.004 17.2522 22.004H20.7536C21.4443 22.004 22.0042 21.4442 22.0042 20.7535V18.2525C22.0042 17.5618 21.4443 17.002 20.7536 17.002Z" stroke="black" stroke-width="1.5" stroke-linecap="round" stroke-linejoin="round"/>
<path d="M20.7536 17.0022V15.7517C20.7536 14.7848 19.9698 14.001 19.0029 14.001V14.001C18.036 14.001 17.2522 14.7848 17.2522 15.7517V17.0022" stroke="black" stroke-width="1.5" stroke-linecap="round" stroke-linejoin="round"/>
<path d="M14.5 10.7148L11.376 13.8389L9.49796 11.9669" stroke="black" stroke-width="1.5" stroke-linecap="round" stroke-linejoin="round"/>
<path d="M20.9451 11C20.4063 6.18818 16.158 2.66443 11.3295 3.0243C6.50105 3.38417 2.82207 7.49873 3.0025 12.3372C3.18293 17.1757 7.15813 21.0049 12 21.0041" stroke="black" stroke-width="1.5" stroke-linecap="round" stroke-linejoin="round"/>
</svg>
