<svg width="24" height="24" viewBox="0 0 24 24" fill="none" xmlns="http://www.w3.org/2000/svg">
<rect x="3.06833" y="3.21875" width="18" height="18" rx="5" stroke="black" stroke-width="1.5" stroke-linecap="round" stroke-linejoin="round"/>
<path d="M7 8H17" stroke="black" stroke-width="1.5" stroke-linecap="round" stroke-linejoin="round"/>
<path d="M7 12H9" stroke="black" stroke-width="1.5" stroke-linecap="round" stroke-linejoin="round"/>
<path d="M7 16H9" stroke="black" stroke-width="1.5" stroke-linecap="round" stroke-linejoin="round"/>
<path fill-rule="evenodd" clip-rule="evenodd" d="M14.8303 12.5173L15 12.6896L15.1754 12.5042C15.4731 12.1866 15.8877 12.0045 16.323 12.0001C16.7582 11.9957 17.1764 12.1695 17.4804 12.481L17.5161 12.5172C18.1613 13.1803 18.1613 14.2366 17.5161 14.8997L15.7618 16.681C15.5609 16.8851 15.2864 17.0001 15 17.0001C14.7136 17.0001 14.4391 16.8851 14.2382 16.681L12.484 14.8997C11.8387 14.2366 11.8387 13.1803 12.484 12.5173V12.5173C12.7934 12.2029 13.2161 12.0259 13.6572 12.0259C14.0982 12.0259 14.5209 12.2029 14.8303 12.5173Z" stroke="black" stroke-width="1.5" stroke-linecap="round" stroke-linejoin="round"/>
</svg>
