<svg width="24" height="24" viewBox="0 0 24 24" fill="none" xmlns="http://www.w3.org/2000/svg">
<path d="M10 21H8C5.23858 21 3 18.7614 3 16V8C3 5.23858 5.23858 3 8 3H16C18.7614 3 21 5.23858 21 8V10" stroke="black" stroke-width="1.5" stroke-linecap="round" stroke-linejoin="round"/>
<path d="M7 9.5045L7.82972 10.25L9.5 8.75" stroke="black" stroke-width="1.5" stroke-linecap="round" stroke-linejoin="round"/>
<path d="M13 10H17" stroke="black" stroke-width="1.5" stroke-linecap="round" stroke-linejoin="round"/>
<path d="M7 14.5045L7.82972 15.25L9.5 13.75" stroke="black" stroke-width="1.5" stroke-linecap="round" stroke-linejoin="round"/>
<path d="M17.5 22.0001C15.6799 22.0001 14.0391 20.9037 13.3425 19.2222C12.646 17.5407 13.031 15.6051 14.318 14.3182C15.605 13.0312 17.5405 12.6462 19.2221 13.3427C20.9036 14.0392 22 15.6801 22 17.5001C22 19.9854 19.9853 22.0001 17.5 22.0001" stroke="black" stroke-width="1.5" stroke-linecap="round" stroke-linejoin="round"/>
<path d="M18.75 17.5001C18.75 17.5277 18.7276 17.55 18.7 17.55C18.6724 17.55 18.65 17.5276 18.65 17.5C18.65 17.4724 18.6724 17.45 18.7 17.45C18.7276 17.45 18.75 17.4723 18.75 17.4999V17.5001" stroke="black" stroke-width="1.5" stroke-linecap="round" stroke-linejoin="round"/>
<path d="M16.35 17.5001C16.35 17.5277 16.3276 17.55 16.3 17.55C16.2724 17.55 16.25 17.5276 16.25 17.5C16.25 17.4724 16.2724 17.45 16.3 17.45C16.3276 17.45 16.35 17.4723 16.35 17.4999V17.5001" stroke="black" stroke-width="1.5" stroke-linecap="round" stroke-linejoin="round"/>
</svg>
