<svg width="24" height="24" viewBox="0 0 24 24" fill="none" xmlns="http://www.w3.org/2000/svg">
<path d="M5 16H4.444C3.647 16 3 15.353 3 14.556V4.444C3 3.647 3.647 3 4.444 3H14.555C15.353 3 16 3.647 16 4.444V5" stroke="black" stroke-width="1.5" stroke-linecap="round" stroke-linejoin="round"/>
<path fill-rule="evenodd" clip-rule="evenodd" d="M19.556 21H9.444C8.647 21 8 20.353 8 19.556V9.444C8 8.647 8.647 8 9.444 8H19.555C20.353 8 21 8.647 21 9.444V19.555C21 20.353 20.353 21 19.556 21Z" stroke="black" stroke-width="1.5"/>
<path d="M14.5 12V17" stroke="black" stroke-width="1.5" stroke-linecap="round" stroke-linejoin="round"/>
<path d="M17 14.5H12" stroke="black" stroke-width="1.5" stroke-linecap="round" stroke-linejoin="round"/>
</svg>
