<svg width="24" height="24" viewBox="0 0 24 24" fill="none" xmlns="http://www.w3.org/2000/svg">
<path fill-rule="evenodd" clip-rule="evenodd" d="M20.7537 16.9824H17.2522C16.5615 16.9824 16.0017 17.5423 16.0017 18.2329V20.734C16.0017 21.4246 16.5615 21.9845 17.2522 21.9845H20.7537C21.4443 21.9845 22.0042 21.4246 22.0042 20.734V18.2329C22.0042 17.9013 21.8724 17.5832 21.6379 17.3487C21.4034 17.1142 21.0853 16.9824 20.7537 16.9824V16.9824Z" stroke="black" stroke-width="1.5" stroke-linecap="round" stroke-linejoin="round"/>
<path d="M20.7536 16.9827V15.7517C20.7536 14.7848 19.9698 14.001 19.0029 14.001V14.001C18.036 14.001 17.2522 14.7848 17.2522 15.7517V16.9827" stroke="black" stroke-width="1.5" stroke-linecap="round" stroke-linejoin="round"/>
<path d="M20.9451 11C20.4063 6.18818 16.158 2.66443 11.3295 3.0243C6.50106 3.38417 2.82208 7.49873 3.00251 12.3372C3.18294 17.1757 7.15814 21.0049 12 21.0041" stroke="black" stroke-width="1.5" stroke-linecap="round" stroke-linejoin="round"/>
<path d="M13.5006 10.499L10.4994 13.5003" stroke="black" stroke-width="1.5" stroke-linecap="round" stroke-linejoin="round"/>
<path d="M10.4994 10.499L13.5006 13.5003" stroke="black" stroke-width="1.5" stroke-linecap="round" stroke-linejoin="round"/>
</svg>
