<svg width="24" height="24" viewBox="0 0 24 24" fill="none" xmlns="http://www.w3.org/2000/svg">
<path d="M11 21H8C5.23858 21 3 18.7614 3 16V8C3 5.23858 5.23858 3 8 3H16C18.7614 3 21 5.23858 21 8V10" stroke="black" stroke-width="1.5" stroke-linecap="round" stroke-linejoin="round"/>
<path d="M13 9.5H17" stroke="black" stroke-width="1.5" stroke-linecap="round" stroke-linejoin="round"/>
<path d="M7.5 14.5045L8.32942 15.25L10 13.75" stroke="black" stroke-width="1.5" stroke-linecap="round" stroke-linejoin="round"/>
<path d="M7.5 9.5045L8.32972 10.25L10 8.75" stroke="black" stroke-width="1.5" stroke-linecap="round" stroke-linejoin="round"/>
<path d="M18 22C15.5147 22 13.5 19.9853 13.5 17.5C13.5 15.0147 15.5147 13 18 13C20.4853 13 22.5 15.0147 22.5 17.5C22.4998 19.9852 20.4852 21.9998 18 22" stroke="black" stroke-width="1.5" stroke-linecap="round" stroke-linejoin="round"/>
<path d="M17.893 15.9834V17.7414L19.275 18.5844" stroke="black" stroke-width="1.5" stroke-linecap="round" stroke-linejoin="round"/>
</svg>
