<svg width="24" height="24" viewBox="0 0 24 24" fill="none" xmlns="http://www.w3.org/2000/svg">
<path d="M6.7478 11.5001C4.12335 11.5001 1.99582 9.37252 1.99582 6.74807C1.99582 4.12363 4.12335 1.99609 6.7478 1.99609C9.37224 1.99609 11.4998 4.12363 11.4998 6.74807C11.4998 8.00838 10.9991 9.21706 10.108 10.1082C9.21679 10.9994 8.0081 11.5001 6.7478 11.5001" stroke="black" stroke-width="1.5" stroke-linecap="round" stroke-linejoin="round"/>
<path d="M13.8668 5.0459C18.0377 5.49966 21.15 9.09764 20.9985 13.2904C20.847 17.4832 17.4831 20.8472 13.2903 20.9987C9.09749 21.1502 5.4995 18.0378 5.04575 13.8669" stroke="black" stroke-width="1.5" stroke-linecap="round" stroke-linejoin="round"/>
<path d="M8.3815 6.75021C8.3815 6.77044 8.36931 6.78868 8.35062 6.79642C8.33193 6.80416 8.31041 6.79988 8.29611 6.78558C8.2818 6.77127 8.27752 6.74976 8.28526 6.73107C8.29301 6.71237 8.31125 6.70019 8.33148 6.70019" stroke="black" stroke-width="1.5" stroke-linecap="round" stroke-linejoin="round"/>
<path d="M8.33146 6.70078C8.35909 6.70078 8.38148 6.72318 8.38148 6.7508" stroke="black" stroke-width="1.5" stroke-linecap="round" stroke-linejoin="round"/>
<path d="M5.21417 6.75021C5.21417 6.77044 5.20198 6.78868 5.18329 6.79642C5.1646 6.80416 5.14309 6.79988 5.12878 6.78558C5.11447 6.77127 5.11019 6.74976 5.11794 6.73107C5.12568 6.71237 5.14392 6.70019 5.16415 6.70019" stroke="black" stroke-width="1.5" stroke-linecap="round" stroke-linejoin="round"/>
<path d="M5.16416 6.70078C5.19179 6.70078 5.21418 6.72318 5.21418 6.7508" stroke="black" stroke-width="1.5" stroke-linecap="round" stroke-linejoin="round"/>
</svg>
