<svg width="24" height="24" viewBox="0 0 24 24" fill="none" xmlns="http://www.w3.org/2000/svg">
<path d="M20.0033 18.0023C20.0033 19.6599 18.6596 21.0036 17.0021 21.0036H5.9975C4.33996 21.0036 2.99625 19.6599 2.99625 18.0023V5.99734C2.99625 4.3398 4.33996 2.99609 5.9975 2.99609H17.0021C18.6596 2.99609 20.0033 4.3398 20.0033 5.99734" stroke="black" stroke-width="1.5" stroke-linecap="round" stroke-linejoin="round"/>
<path fill-rule="evenodd" clip-rule="evenodd" d="M15.0013 11.0534C15.0437 11.9293 15.3929 12.7624 15.9878 13.4067C16.463 13.9586 17.0299 14.4242 17.6636 14.783C18.2155 15.0908 18.8918 15.0709 19.4246 14.7311C19.999 14.3639 20.5154 13.9132 20.9569 13.3938C21.5628 12.756 21.9323 11.9301 22.0042 11.0534C22.0084 10.5318 21.8134 10.0282 21.4589 9.64551C21.1183 9.2744 20.6389 9.06136 20.1352 9.05727C19.5028 9.01302 18.8916 9.29504 18.5148 9.80496L18.5028 9.82253L18.4906 9.80496C18.1478 9.32251 17.5875 9.04223 16.9958 9.05727C16.4638 9.04823 15.951 9.25568 15.5749 9.63204C15.1989 10.0084 14.9918 10.5214 15.0013 11.0534V11.0534Z" stroke="black" stroke-width="1.5" stroke-linecap="round" stroke-linejoin="round"/>
<path d="M6.99792 6.99826H14.0008" stroke="black" stroke-width="1.5" stroke-linecap="round" stroke-linejoin="round"/>
<path d="M6.99792 10.4992H12" stroke="black" stroke-width="1.5" stroke-linecap="round" stroke-linejoin="round"/>
<path d="M6.99792 13.6672H12" stroke="black" stroke-width="1.5" stroke-linecap="round" stroke-linejoin="round"/>
<path d="M6.99792 17.0022H15.0013" stroke="black" stroke-width="1.5" stroke-linecap="round" stroke-linejoin="round"/>
</svg>
