<svg width="24" height="24" viewBox="0 0 24 24" fill="none" xmlns="http://www.w3.org/2000/svg">
<path d="M20.66 3.34007C22.653 5.33307 22.376 8.73707 19.828 10.3371C18.422 11.2211 16.562 11.2211 15.155 10.3371C12.608 8.73607 12.33 5.33307 14.323 3.34007C16.073 1.59107 18.91 1.59107 20.66 3.34007" stroke="black" stroke-width="1.5" stroke-linecap="round" stroke-linejoin="round"/>
<path d="M19 14V17C19 19.209 17.209 21 15 21H7C4.791 21 3 19.209 3 17V9C3 6.791 4.791 5 7 5H10" stroke="black" stroke-width="1.5" stroke-linecap="round" stroke-linejoin="round"/>
<path d="M16.649 5.66697L17.491 4.82397V8.19397" stroke="black" stroke-width="1.5" stroke-linecap="round" stroke-linejoin="round"/>
<path d="M16.652 8.19604H18.331" stroke="black" stroke-width="1.5" stroke-linecap="round" stroke-linejoin="round"/>
</svg>
