<svg width="24" height="24" viewBox="0 0 24 24" fill="none" xmlns="http://www.w3.org/2000/svg">
<path d="M21.0037 13.0007V17.0024C21.0037 19.2125 19.2121 21.0041 17.0021 21.0041H6.99791C4.78785 21.0041 2.99625 19.2125 2.99625 17.0024V6.99825C2.99625 4.78819 4.78785 2.99658 6.99791 2.99658H10.9996" stroke="black" stroke-width="1.5" stroke-linecap="round" stroke-linejoin="round"/>
<path d="M22.0042 6.63775C21.6972 8.52434 20.099 9.93049 18.1887 9.99461C16.2784 10.0587 14.5894 8.76292 14.1567 6.90116C13.7239 5.0394 14.6682 3.13153 16.411 2.34656C18.1538 1.56159 20.2084 2.11869 21.3159 3.67652L18.0675 6.91187L16.695 5.5393" stroke="black" stroke-width="1.5" stroke-linecap="round" stroke-linejoin="round"/>
<path d="M6.99792 16.0017H17.0021" stroke="black" stroke-width="1.5" stroke-linecap="round" stroke-linejoin="round"/>
<path d="M6.99792 12.0002H12" stroke="black" stroke-width="1.5" stroke-linecap="round" stroke-linejoin="round"/>
</svg>
