<svg width="24" height="24" viewBox="0 0 24 24" fill="none" xmlns="http://www.w3.org/2000/svg">
<path d="M21.0038 14.001V17.0022C21.0038 19.2123 19.2121 21.0039 17.0021 21.0039H15.0013" stroke="black" stroke-width="1.5" stroke-linecap="round" stroke-linejoin="round"/>
<path d="M21.0038 9.9995V6.99825C21.0038 4.78819 19.2121 2.99658 17.0021 2.99658H14.0008" stroke="black" stroke-width="1.5" stroke-linecap="round" stroke-linejoin="round"/>
<path d="M2.99625 9.9995V6.99825C2.99625 4.78819 4.78786 2.99658 6.99792 2.99658H9.99917" stroke="black" stroke-width="1.5" stroke-linecap="round" stroke-linejoin="round"/>
<path d="M6.99792 15.5015V18.5027" stroke="black" stroke-width="1.5" stroke-linecap="round" stroke-linejoin="round"/>
<path d="M8.49854 17.0022H5.49729" stroke="black" stroke-width="1.5" stroke-linecap="round" stroke-linejoin="round"/>
<path fill-rule="evenodd" clip-rule="evenodd" d="M9.22085 13.0005H4.77499C3.79262 13.0005 2.99625 13.7969 2.99625 14.7792V19.2251C2.99625 20.2075 3.79262 21.0038 4.77499 21.0038H9.22085C10.2032 21.0038 10.9996 20.2075 10.9996 19.2251V14.7782C10.999 13.7962 10.2028 13.0005 9.22085 13.0005V13.0005Z" stroke="black" stroke-width="1.5" stroke-linecap="round" stroke-linejoin="round"/>
</svg>
