<svg width="24" height="24" viewBox="0 0 24 24" fill="none" xmlns="http://www.w3.org/2000/svg">
<path d="M13.245 10.885C13.314 10.885 13.37 10.829 13.37 10.76C13.37 10.691 13.313 10.635 13.245 10.635C13.176 10.635 13.12 10.691 13.12 10.76C13.12 10.829 13.176 10.885 13.245 10.885" stroke="black" stroke-width="1.5" stroke-linecap="round" stroke-linejoin="round"/>
<path d="M10.155 11.741C9.8 10.618 10.051 9.34202 10.938 8.45002C12.21 7.17602 14.271 7.17502 15.544 8.44802C16.817 9.72102 16.819 11.788 15.55 13.064C14.658 13.958 13.381 14.212 12.256 13.852L12.249 13.858L10.043 16.068C9.461 16.651 8.517 16.651 7.935 16.068C7.355 15.487 7.355 14.546 7.935 13.964L10.141 11.754" stroke="black" stroke-width="1.5" stroke-linecap="round" stroke-linejoin="round"/>
<path fill-rule="evenodd" clip-rule="evenodd" d="M12 21V21C7.029 21 3 16.971 3 12V12C3 7.029 7.029 3 12 3V3C16.971 3 21 7.029 21 12V12C21 16.971 16.971 21 12 21Z" stroke="black" stroke-width="1.5" stroke-linecap="round" stroke-linejoin="round"/>
</svg>
