<svg width="24" height="24" viewBox="0 0 24 24" fill="none" xmlns="http://www.w3.org/2000/svg">
<path d="M13.464 10.793C13.602 10.793 13.713 10.681 13.713 10.543C13.713 10.405 13.6 10.293 13.463 10.293C13.325 10.293 13.213 10.405 13.213 10.543C13.213 10.681 13.325 10.793 13.464 10.793" stroke="black" stroke-width="1.5" stroke-linecap="round" stroke-linejoin="round"/>
<path d="M9.83101 11.696C9.41401 10.375 9.70901 8.87601 10.752 7.82701C12.247 6.32901 14.67 6.32801 16.166 7.82501C17.662 9.32101 17.665 11.751 16.173 13.251C15.124 14.302 13.623 14.6 12.301 14.177L12.293 14.184L9.70001 16.782C9.01601 17.467 7.90601 17.467 7.22201 16.782C6.54001 16.099 6.54001 14.993 7.22201 14.309L9.81501 11.711" stroke="black" stroke-width="1.5" stroke-linecap="round" stroke-linejoin="round"/>
<path fill-rule="evenodd" clip-rule="evenodd" d="M19 21H5C3.895 21 3 20.105 3 19V5C3 3.895 3.895 3 5 3H19C20.105 3 21 3.895 21 5V19C21 20.105 20.105 21 19 21Z" stroke="black" stroke-width="1.5" stroke-linecap="round" stroke-linejoin="round"/>
</svg>
