<svg width="24" height="24" viewBox="0 0 24 24" fill="none" xmlns="http://www.w3.org/2000/svg">
<path d="M16.0017 10.9993V7.99805H13.0004L8.79266 12.2058C6.81659 11.6064 4.68609 12.4282 3.62448 14.1994C2.56287 15.9706 2.8424 18.237 4.30257 19.6971C5.76274 21.1573 8.02908 21.4368 9.80029 20.3752C11.5715 19.3136 12.3933 17.1831 11.7939 15.207L12.7373 14.2637V12.8851H13.8378V11.7846H15.2183L16.0017 11.0083" stroke="black" stroke-width="1.5" stroke-linecap="round" stroke-linejoin="round"/>
<path d="M2.99625 9.99901V7.99818C2.99625 5.2356 5.23576 2.99609 7.99833 2.99609H16.0017C18.7642 2.99609 21.0037 5.2356 21.0037 7.99818V16.0015C21.0037 18.7641 18.7642 21.0036 16.0017 21.0036H14.0008" stroke="black" stroke-width="1.5" stroke-linecap="round" stroke-linejoin="round"/>
<path d="M7.49812 16.2521C7.36013 16.2526 7.24865 16.3648 7.24902 16.5028C7.24939 16.6408 7.36146 16.7525 7.49946 16.7523C7.63746 16.7521 7.74923 16.6402 7.74923 16.5022C7.7495 16.4356 7.7231 16.3717 7.67592 16.3247C7.62874 16.2777 7.56471 16.2515 7.49812 16.2521" stroke="black" stroke-width="1.5" stroke-linecap="round" stroke-linejoin="round"/>
</svg>
