<svg width="24" height="24" viewBox="0 0 24 24" fill="none" xmlns="http://www.w3.org/2000/svg">
<path fill-rule="evenodd" clip-rule="evenodd" d="M9.17683 12.1144L6.81684 14.4793C6.61306 14.6848 6.4984 14.9623 6.49771 15.2517V16.4091C6.49771 17.013 6.98727 17.5026 7.59117 17.5026H8.75365C9.04389 17.5027 9.32221 17.3872 9.52697 17.1815L11.882 14.8215C12.3132 14.9718 12.7659 15.0512 13.2225 15.0566C15.121 15.0882 16.8209 13.8855 17.4231 12.0848C18.0252 10.2841 17.3907 8.30082 15.8551 7.18406C14.3195 6.0673 12.2372 6.07476 10.7096 7.20249C9.18209 8.33022 8.56178 10.318 9.17683 12.1144Z" stroke="black" stroke-width="1.5" stroke-linecap="round" stroke-linejoin="round"/>
<rect x="2.99625" y="2.99609" width="18.0075" height="18.0075" rx="5" stroke="black" stroke-width="1.5" stroke-linecap="round" stroke-linejoin="round"/>
<path d="M13.2225 10.7275C13.1949 10.7275 13.1725 10.7499 13.1725 10.7776C13.1725 10.8052 13.1949 10.8276 13.2225 10.8276C13.2501 10.8276 13.2725 10.8052 13.2725 10.7776C13.2725 10.7499 13.2501 10.7275 13.2225 10.7275" stroke="black" stroke-width="1.5" stroke-linecap="round" stroke-linejoin="round"/>
</svg>
