<svg width="24" height="24" viewBox="0 0 24 24" fill="none" xmlns="http://www.w3.org/2000/svg">
<path d="M15.031 9.34202C15.031 9.13502 14.863 8.96802 14.656 8.96802C14.449 8.96902 14.281 9.13702 14.281 9.34402C14.281 9.55102 14.449 9.71902 14.656 9.71802C14.863 9.71802 15.031 9.55002 15.031 9.34302" stroke="black" stroke-width="1.5" stroke-linecap="round" stroke-linejoin="round"/>
<path fill-rule="evenodd" clip-rule="evenodd" d="M3.5 17.195L9.223 11.459C8.417 9.36499 8.849 6.90299 10.534 5.21399C12.814 2.92899 16.511 2.92899 18.79 5.21399C21.07 7.49899 21.07 11.204 18.79 13.49C17.089 15.195 14.601 15.624 12.499 14.786L6.798 20.5H3.5C3.5 20.5 3.5 17.195 3.5 17.195Z" stroke="black" stroke-width="1.5" stroke-linecap="round" stroke-linejoin="round"/>
</svg>
