<svg width="24" height="24" viewBox="0 0 24 24" fill="none" xmlns="http://www.w3.org/2000/svg">
<path d="M21.0038 14.0012V19.0032C21.0038 20.1087 20.1084 21.0041 19.0029 21.0041H4.99709C3.89163 21.0041 2.99625 20.1087 2.99625 19.0032V4.99742C2.99625 3.89195 3.89163 2.99658 4.99709 2.99658H10.9996" stroke="black" stroke-width="1.5" stroke-linecap="round" stroke-linejoin="round"/>
<path d="M6.99792 2.99658V21.0041" stroke="black" stroke-width="1.5" stroke-linecap="round" stroke-linejoin="round"/>
<path d="M18.1426 7.12226C18.1426 6.9762 18.0235 6.85815 17.8775 6.85815C17.7314 6.85915 17.6123 6.9772 17.6123 7.12326C17.6123 7.26932 17.7314 7.38837 17.8775 7.38737C18.0235 7.38737 18.1426 7.26932 18.1426 7.12226" stroke="black" stroke-width="1.5" stroke-linecap="round" stroke-linejoin="round"/>
<path fill-rule="evenodd" clip-rule="evenodd" d="M10.9996 11.6674L14.0409 8.61716C13.4716 7.13855 13.7767 5.39982 14.9662 4.20732C16.5759 2.59365 19.187 2.59365 20.7967 4.20732C22.4063 5.821 22.4063 8.43709 20.7967 10.0518C19.5952 11.2563 17.8384 11.5584 16.3538 10.9671L13.3286 14.0014H10.9996V11.6674Z" stroke="black" stroke-width="1.5" stroke-linecap="round" stroke-linejoin="round"/>
</svg>
