<svg width="24" height="24" viewBox="0 0 24 24" fill="none" xmlns="http://www.w3.org/2000/svg">
<path fill-rule="evenodd" clip-rule="evenodd" d="M9.99916 11.461L13.3165 8.13361C12.5588 6.14849 13.2968 3.90405 15.0846 2.75586C16.8725 1.60767 19.2205 1.87029 20.7105 3.38511C22.2005 4.89992 22.4243 7.25193 21.2468 9.0206C20.0692 10.7893 17.8129 11.49 15.8406 10.6997L12.5392 14.0111H9.99916V11.461Z" stroke="black" stroke-width="1.5" stroke-linecap="round" stroke-linejoin="round"/>
<path d="M17.6273 6.50265C17.6273 6.43359 17.5713 6.3776 17.5023 6.3776C17.4332 6.3776 17.3772 6.43359 17.3772 6.50265C17.3772 6.57171 17.4332 6.6277 17.5023 6.6277C17.5713 6.6277 17.6273 6.57171 17.6273 6.50265" stroke="black" stroke-width="1.5" stroke-linecap="round" stroke-linejoin="round"/>
<path d="M9.99916 3.22754C5.65264 4.21418 2.68211 8.23245 3.01343 12.6772C3.34476 17.122 6.8782 20.6554 11.323 20.9868C15.7677 21.3181 19.786 18.3476 20.7726 14.001" stroke="black" stroke-width="1.5" stroke-linecap="round" stroke-linejoin="round"/>
</svg>
