<svg width="24" height="24" viewBox="0 0 24 24" fill="none" xmlns="http://www.w3.org/2000/svg">
<path fill-rule="evenodd" clip-rule="evenodd" d="M13.6787 8.61292L11.3187 10.9779C11.1146 11.183 10.9996 11.4611 10.9996 11.7502V12.9077C10.9996 13.512 11.4888 14.0012 12.093 14.0012H13.2555C13.5456 14.0012 13.8237 13.8861 14.0288 13.68L16.3838 11.32C16.808 11.4611 17.2532 11.5551 17.7244 11.5551C20.0884 11.5561 22.0042 9.63935 22.0042 7.27636C22.0042 4.91338 20.0884 2.99658 17.7244 2.99658C15.3604 2.99658 13.4446 4.91238 13.4446 7.27636C13.4446 7.74656 13.5396 8.18974 13.6787 8.61292Z" stroke="black" stroke-width="1.5" stroke-linecap="round" stroke-linejoin="round"/>
<path d="M21.0037 14.0012V17.0024C21.0037 19.2123 19.212 21.0041 17.0021 21.0041H6.99791C4.78799 21.0041 2.99625 19.2123 2.99625 17.0024V6.99825C2.99625 4.78833 4.78799 2.99658 6.99791 2.99658H12" stroke="black" stroke-width="1.5" stroke-linecap="round" stroke-linejoin="round"/>
<path d="M17.7244 7.22655C17.6964 7.22655 17.6744 7.24856 17.6744 7.27658C17.6744 7.30459 17.6964 7.3266 17.7244 7.3266C17.7524 7.3266 17.7744 7.30459 17.7744 7.27658C17.7744 7.24856 17.7524 7.22655 17.7244 7.22655" stroke="black" stroke-width="1.5" stroke-linecap="round" stroke-linejoin="round"/>
</svg>
