<svg width="24" height="24" viewBox="0 0 24 24" fill="none" xmlns="http://www.w3.org/2000/svg">
<path fill-rule="evenodd" clip-rule="evenodd" d="M11.8449 13.5603L13.7797 15.4911C13.9477 15.6577 14.1745 15.7515 14.411 15.7522H15.3584C15.8523 15.7522 16.2528 15.3518 16.2528 14.8578V13.9074C16.2523 13.67 16.1581 13.4425 15.9907 13.2742L14.0599 11.3474C14.5973 9.78068 13.9831 8.05032 12.5782 7.1731C11.1732 6.29588 9.3489 6.50364 8.17718 7.67429C7.00547 8.84495 6.79606 10.6691 7.67201 12.0748C8.54796 13.4806 10.2778 14.0963 11.8449 13.5603Z" stroke="black" stroke-width="1.5" stroke-linecap="round" stroke-linejoin="round"/>
<path d="M9.99917 19.5031H3.99667" stroke="black" stroke-width="1.5" stroke-linecap="round" stroke-linejoin="round"/>
<path d="M14.0008 20.2743C17.7421 19.4225 20.5324 16.2934 20.9519 12.4794C21.3713 8.66547 19.3276 5.00473 15.8609 3.3603C12.3941 1.71587 8.26617 2.44908 5.57781 5.18678C2.88946 7.92448 2.23144 12.0651 3.93864 15.5013" stroke="black" stroke-width="1.5" stroke-linecap="round" stroke-linejoin="round"/>
<path d="M7.99833 17.502L9.99917 19.5028L7.99833 21.5036" stroke="black" stroke-width="1.5" stroke-linecap="round" stroke-linejoin="round"/>
<path d="M10.6995 10.2502C10.6995 10.2778 10.7219 10.3002 10.7495 10.3002C10.7771 10.3002 10.7995 10.2778 10.7995 10.2502C10.7995 10.2226 10.7771 10.2002 10.7495 10.2002C10.7219 10.2002 10.6995 10.2226 10.6995 10.2502" stroke="black" stroke-width="1.5" stroke-linecap="round" stroke-linejoin="round"/>
</svg>
