<svg width="24" height="24" viewBox="0 0 24 24" fill="none" xmlns="http://www.w3.org/2000/svg">
<path d="M17 13.86V12" stroke="black" stroke-width="1.5" stroke-linecap="round" stroke-linejoin="round"/>
<path d="M14 13.86V12" stroke="black" stroke-width="1.5" stroke-linecap="round" stroke-linejoin="round"/>
<path d="M10.4142 10.5858C11.1952 11.3668 11.1952 12.6332 10.4142 13.4142C9.63315 14.1953 8.36682 14.1953 7.58577 13.4142C6.80472 12.6332 6.80472 11.3668 7.58577 10.5858C8.36682 9.80474 9.63315 9.80474 10.4142 10.5858" stroke="black" stroke-width="1.5" stroke-linecap="round" stroke-linejoin="round"/>
<path fill-rule="evenodd" clip-rule="evenodd" d="M10.476 20.8749C16.635 21.8849 21.885 16.6359 20.875 10.4759C20.263 6.7459 17.255 3.7369 13.525 3.1249C7.365 2.1139 2.115 7.3649 3.126 13.5239C3.737 17.2549 6.746 20.2629 10.476 20.8749Z" stroke="black" stroke-width="1.5" stroke-linecap="round" stroke-linejoin="round"/>
<path d="M17 12H11" stroke="black" stroke-width="1.5" stroke-linecap="round" stroke-linejoin="round"/>
</svg>
