<svg width="24" height="24" viewBox="0 0 24 24" fill="none" xmlns="http://www.w3.org/2000/svg">
<path d="M8.294 10.7051C8.294 10.5421 8.162 10.4111 8 10.4111C7.837 10.4121 7.706 10.5441 7.706 10.7061C7.706 10.8691 7.838 11.0001 8 11.0001C8.162 11.0001 8.294 10.8681 8.294 10.7051" stroke="black" stroke-width="1.5" stroke-linecap="round" stroke-linejoin="round"/>
<path d="M8 10.411V5.5C8 4.119 9.119 3 10.5 3V3C11.881 3 13 4.119 13 5.5V6.072" stroke="black" stroke-width="1.5" stroke-linecap="round" stroke-linejoin="round"/>
<path d="M10.162 15.183C10.969 15.741 11.945 16.072 13 16.072C13.662 16.072 14.29 15.937 14.868 15.703L17.877 18.708C18.065 18.895 18.319 19 18.583 19H20C20.552 19 21 18.552 21 18V16.588C21 16.322 20.894 16.068 20.706 15.88L17.662 12.84C17.872 12.289 18 11.697 18 11.072C18 8.31102 15.761 6.07202 13 6.07202C12.216 6.07202 11.484 6.26802 10.824 6.59002" stroke="black" stroke-width="1.5" stroke-linecap="round" stroke-linejoin="round"/>
<path fill-rule="evenodd" clip-rule="evenodd" d="M6.004 15.2681C5.447 15.0251 4.921 14.6861 4.465 14.2301C2.512 12.2771 2.512 9.11209 4.465 7.15909C6.418 5.20609 9.583 5.20609 11.536 7.15909C13.489 9.11209 13.489 12.2771 11.536 14.2301C11.082 14.6841 10.558 15.0211 10.004 15.2641L10.007 19.5011C10.007 19.7671 9.902 20.0211 9.714 20.2091L8.716 21.2071C8.325 21.5981 7.692 21.5981 7.302 21.2071L6.3 20.2051C6.113 20.0181 6.007 19.7641 6.007 19.4991L6.004 15.2681Z" stroke="black" stroke-width="1.5" stroke-linecap="round" stroke-linejoin="round"/>
</svg>
