<svg width="24" height="24" viewBox="0 0 24 24" fill="none" xmlns="http://www.w3.org/2000/svg">
<path d="M14.4 8.90005C14.2 8.90005 14 9.10005 14 9.30005C14 9.50005 14.2 9.70005 14.4 9.70005C14.6 9.70005 14.8 9.50005 14.8 9.30005C14.8 9.10005 14.6 8.90005 14.4 8.90005" stroke="black" stroke-width="1.5" stroke-linecap="round" stroke-linejoin="round"/>
<path fill-rule="evenodd" clip-rule="evenodd" d="M9.5 11.2999L8.6 9.29995C8.3 8.49995 8.5 7.59995 9.1 6.99995L12 4.09995C12.6 3.49995 13.4 3.39995 14.2 3.69995L17.7 5.19995C18.2 5.39995 18.6 5.79995 18.8 6.29995L20.3 9.79995C20.6 10.5999 20.4 11.3999 19.9 11.9999L17 14.8999C16.4 15.4999 15.6 15.5999 14.8 15.2999L12.7 14.3999L6.7 20.3999H3.5V17.1999L9.5 11.2999Z" stroke="black" stroke-width="1.5" stroke-linecap="round" stroke-linejoin="round"/>
</svg>
