<svg width="24" height="24" viewBox="0 0 24 24" fill="none" xmlns="http://www.w3.org/2000/svg">
<path fill-rule="evenodd" clip-rule="evenodd" d="M17.6704 21.004H6.32864C5.0411 21.004 3.99667 19.9606 3.99667 18.6721V11.331C3.99667 10.0425 5.0401 8.99902 6.32864 8.99902H17.6714C18.9589 8.99902 20.0033 10.0425 20.0033 11.331V18.6731C20.0023 19.9606 18.9589 21.004 17.6704 21.004Z" stroke="black" stroke-width="1.5" stroke-linecap="round" stroke-linejoin="round"/>
<path d="M10.5854 2.99658L13.4146 5.82576" stroke="black" stroke-width="1.5" stroke-linecap="round" stroke-linejoin="round"/>
<path d="M10.5854 5.82576L13.4146 2.99658" stroke="black" stroke-width="1.5" stroke-linecap="round" stroke-linejoin="round"/>
<path d="M16.912 13.5461C17.0121 13.5461 17.0941 13.465 17.0931 13.364C17.0931 13.2639 17.0121 13.1819 16.9111 13.1819C16.81 13.1819 16.729 13.2629 16.729 13.364C16.729 13.465 16.811 13.5461 16.912 13.5461" stroke="black" stroke-width="1.5" stroke-linecap="round" stroke-linejoin="round"/>
<path d="M16.912 16.8205C17.0121 16.8205 17.0941 16.7394 17.0931 16.6384C17.0931 16.5384 17.0121 16.4563 16.9111 16.4563C16.81 16.4563 16.729 16.5373 16.729 16.6384C16.729 16.7394 16.811 16.8205 16.912 16.8205" stroke="black" stroke-width="1.5" stroke-linecap="round" stroke-linejoin="round"/>
<path d="M10.2293 16.6423H13.7707" stroke="black" stroke-width="1.5" stroke-linecap="round" stroke-linejoin="round"/>
<path d="M13.6377 13.5461C13.7377 13.5461 13.8198 13.465 13.8188 13.364C13.8188 13.2639 13.7377 13.1819 13.6367 13.1819C13.5366 13.1819 13.4546 13.2629 13.4546 13.364C13.4556 13.465 13.5366 13.5461 13.6377 13.5461" stroke="black" stroke-width="1.5" stroke-linecap="round" stroke-linejoin="round"/>
<path d="M10.3633 13.5461C10.4634 13.5461 10.5454 13.465 10.5444 13.364C10.5444 13.2639 10.4634 13.1819 10.3623 13.1819C10.2623 13.1819 10.1802 13.2629 10.1802 13.364C10.1812 13.465 10.2623 13.5461 10.3633 13.5461" stroke="black" stroke-width="1.5" stroke-linecap="round" stroke-linejoin="round"/>
<path d="M7.08995 13.5461C7.18999 13.5461 7.27203 13.465 7.27103 13.364C7.27103 13.2639 7.18999 13.1819 7.08896 13.1819C6.98791 13.1819 6.90688 13.2629 6.90688 13.364C6.90688 13.465 6.98891 13.5461 7.08995 13.5461" stroke="black" stroke-width="1.5" stroke-linecap="round" stroke-linejoin="round"/>
<path d="M7.08995 16.8205C7.18999 16.8205 7.27203 16.7394 7.27103 16.6384C7.27103 16.5384 7.18999 16.4563 7.08896 16.4563C6.98791 16.4563 6.90688 16.5373 6.90688 16.6384C6.90688 16.7394 6.98891 16.8205 7.08995 16.8205" stroke="black" stroke-width="1.5" stroke-linecap="round" stroke-linejoin="round"/>
</svg>
