<svg width="24" height="24" viewBox="0 0 24 24" fill="none" xmlns="http://www.w3.org/2000/svg">
<path fill-rule="evenodd" clip-rule="evenodd" d="M17.6704 15.0016H6.32864C5.0411 15.0016 3.99667 13.9581 3.99667 12.6696V5.32855C3.99667 4.04002 5.0401 2.99658 6.32864 2.99658H17.6714C18.9589 2.99658 20.0033 4.04002 20.0033 5.32855V12.6706C20.0023 13.9581 18.9589 15.0016 17.6704 15.0016Z" stroke="black" stroke-width="1.5" stroke-linecap="round" stroke-linejoin="round"/>
<path d="M16.912 7.54361C17.0121 7.54361 17.0941 7.46258 17.0931 7.36154C17.0931 7.26149 17.0121 7.17946 16.9111 7.17946C16.81 7.17946 16.729 7.26049 16.729 7.36154C16.729 7.46258 16.811 7.54361 16.912 7.54361" stroke="black" stroke-width="1.5" stroke-linecap="round" stroke-linejoin="round"/>
<path d="M16.912 10.818C17.0121 10.818 17.0941 10.737 17.0931 10.636C17.0931 10.5359 17.0121 10.4539 16.9111 10.4539C16.81 10.4539 16.729 10.5349 16.729 10.636C16.729 10.737 16.811 10.818 16.912 10.818" stroke="black" stroke-width="1.5" stroke-linecap="round" stroke-linejoin="round"/>
<path d="M10.2293 10.6399H13.7707" stroke="black" stroke-width="1.5" stroke-linecap="round" stroke-linejoin="round"/>
<path d="M13.6377 7.54361C13.7377 7.54361 13.8198 7.46258 13.8188 7.36154C13.8188 7.26149 13.7377 7.17946 13.6367 7.17946C13.5366 7.17946 13.4546 7.26049 13.4546 7.36154C13.4556 7.46258 13.5366 7.54361 13.6377 7.54361" stroke="black" stroke-width="1.5" stroke-linecap="round" stroke-linejoin="round"/>
<path d="M10.3633 7.54361C10.4634 7.54361 10.5454 7.46258 10.5444 7.36154C10.5444 7.26149 10.4634 7.17946 10.3623 7.17946C10.2623 7.17946 10.1802 7.26049 10.1802 7.36154C10.1812 7.46258 10.2623 7.54361 10.3633 7.54361" stroke="black" stroke-width="1.5" stroke-linecap="round" stroke-linejoin="round"/>
<path d="M7.08996 7.54361C7.19 7.54361 7.27203 7.46258 7.27103 7.36154C7.27103 7.26149 7.19 7.17946 7.08896 7.17946C6.98791 7.17946 6.90688 7.26049 6.90688 7.36154C6.90688 7.46258 6.98891 7.54361 7.08996 7.54361" stroke="black" stroke-width="1.5" stroke-linecap="round" stroke-linejoin="round"/>
<path d="M7.08996 10.818C7.19 10.818 7.27203 10.737 7.27103 10.636C7.27103 10.5359 7.19 10.4539 7.08896 10.4539C6.98791 10.4539 6.90688 10.5349 6.90688 10.636C6.90688 10.737 6.98891 10.818 7.08996 10.818" stroke="black" stroke-width="1.5" stroke-linecap="round" stroke-linejoin="round"/>
<path d="M9.49895 21.0043L12 19.0034L14.501 21.0043" stroke="black" stroke-width="1.5" stroke-linecap="round" stroke-linejoin="round"/>
</svg>
