<svg width="24" height="24" viewBox="0 0 24 24" fill="none" xmlns="http://www.w3.org/2000/svg">
<path d="M8.1584 16.322H15.8416" stroke="black" stroke-width="1.5" stroke-linecap="round" stroke-linejoin="round"/>
<circle cx="12" cy="12.4532" r="8.6436" stroke="black" stroke-width="1.5" stroke-linecap="round" stroke-linejoin="round"/>
<path d="M15.856 12.7061C15.8558 12.8386 15.7483 12.9459 15.6158 12.9459C15.4833 12.9458 15.3759 12.8384 15.3758 12.7059C15.3758 12.5734 15.4831 12.4659 15.6156 12.4657C15.6794 12.4656 15.7406 12.4909 15.7857 12.536C15.8308 12.5811 15.8561 12.6423 15.856 12.7061" stroke="black" stroke-width="1.5" stroke-linecap="round" stroke-linejoin="round"/>
<path d="M12.2404 12.7061C12.2402 12.8386 12.1327 12.9459 12.0002 12.9459C11.8677 12.9458 11.7602 12.8384 11.7602 12.7059C11.7601 12.5734 11.8675 12.4658 12 12.4657C12.0638 12.4656 12.125 12.4909 12.1701 12.536C12.2152 12.5811 12.2405 12.6423 12.2404 12.7061" stroke="black" stroke-width="1.5" stroke-linecap="round" stroke-linejoin="round"/>
<path d="M8.62476 12.7061C8.6246 12.8386 8.51709 12.9459 8.38456 12.9459C8.25204 12.9458 8.14462 12.8384 8.14456 12.7059C8.14451 12.5734 8.25184 12.4659 8.38436 12.4657C8.44814 12.4656 8.50934 12.4909 8.55444 12.536C8.59954 12.5811 8.62484 12.6423 8.62476 12.7061" stroke="black" stroke-width="1.5" stroke-linecap="round" stroke-linejoin="round"/>
<path d="M8.62476 9.37309C8.62459 9.50561 8.51708 9.61294 8.38456 9.61288C8.25203 9.61282 8.14461 9.5054 8.14456 9.37287C8.14451 9.24035 8.25184 9.13284 8.38436 9.13268C8.44815 9.1326 8.50934 9.1579 8.55444 9.20301C8.59954 9.24811 8.62484 9.3093 8.62476 9.37309" stroke="black" stroke-width="1.5" stroke-linecap="round" stroke-linejoin="round"/>
<path d="M12.2404 9.37307C12.2402 9.50559 12.1327 9.61293 12.0002 9.61288C11.8677 9.61283 11.7602 9.5054 11.7602 9.37287C11.7601 9.24035 11.8675 9.13284 12 9.13268C12.0638 9.1326 12.125 9.1579 12.1701 9.203C12.2152 9.2481 12.2405 9.3093 12.2404 9.37309" stroke="black" stroke-width="1.5" stroke-linecap="round" stroke-linejoin="round"/>
<path d="M15.856 9.37309C15.8558 9.50561 15.7483 9.61294 15.6158 9.61288C15.4833 9.61282 15.3759 9.5054 15.3758 9.37287C15.3758 9.24035 15.4831 9.13284 15.6156 9.13268C15.6794 9.1326 15.7406 9.1579 15.7857 9.20301C15.8308 9.24811 15.8561 9.3093 15.856 9.37309" stroke="black" stroke-width="1.5" stroke-linecap="round" stroke-linejoin="round"/>
</svg>
