<svg width="24" height="24" viewBox="0 0 24 24" fill="none" xmlns="http://www.w3.org/2000/svg">
<path d="M12.25 12.5003C12.2498 12.6383 12.1379 12.7501 11.9999 12.75C11.8618 12.7499 11.75 12.638 11.75 12.5C11.75 12.362 11.8618 12.2501 11.9999 12.25C12.1379 12.2499 12.2498 12.3617 12.25 12.4997V12.5003" stroke="black" stroke-width="1.5" stroke-linecap="round" stroke-linejoin="round"/>
<path d="M12.25 8.5003C12.2498 8.63831 12.1379 8.75008 11.9999 8.75C11.8618 8.74992 11.75 8.63801 11.75 8.5C11.75 8.36199 11.8618 8.25008 11.9999 8.25C12.1379 8.24992 12.2498 8.36169 12.25 8.4997V8.5003" stroke="black" stroke-width="1.5" stroke-linecap="round" stroke-linejoin="round"/>
<path d="M12.25 16.5003C12.2498 16.6383 12.1379 16.7501 11.9999 16.75C11.8618 16.7499 11.75 16.638 11.75 16.5C11.75 16.362 11.8618 16.2501 11.9999 16.25C12.1379 16.2499 12.2498 16.3617 12.25 16.4997V16.5003" stroke="black" stroke-width="1.5" stroke-linecap="round" stroke-linejoin="round"/>
<path d="M16.25 12.5003C16.2498 12.6383 16.1379 12.7501 15.9999 12.75C15.8618 12.7499 15.75 12.638 15.75 12.5C15.75 12.362 15.8618 12.2501 15.9999 12.25C16.1379 12.2499 16.2498 12.3617 16.25 12.4997V12.5003" stroke="black" stroke-width="1.5" stroke-linecap="round" stroke-linejoin="round"/>
<path d="M16.25 8.5003C16.2498 8.63831 16.1379 8.75008 15.9999 8.75C15.8618 8.74992 15.75 8.63801 15.75 8.5C15.75 8.36199 15.8618 8.25008 15.9999 8.25C16.1379 8.24992 16.2498 8.36169 16.25 8.4997V8.5003" stroke="black" stroke-width="1.5" stroke-linecap="round" stroke-linejoin="round"/>
<path d="M8.25 12.5003C8.24983 12.6383 8.13786 12.7501 7.99985 12.75C7.86184 12.7499 7.75 12.638 7.75 12.5C7.75 12.362 7.86184 12.2501 7.99985 12.25C8.13786 12.2499 8.24983 12.3617 8.25 12.4997V12.5003" stroke="black" stroke-width="1.5" stroke-linecap="round" stroke-linejoin="round"/>
<path d="M8.25 8.5003C8.24983 8.63831 8.13786 8.75008 7.99985 8.75C7.86184 8.74992 7.75 8.63801 7.75 8.5C7.75 8.36199 7.86184 8.25008 7.99985 8.25C8.13786 8.24992 8.24983 8.36169 8.25 8.4997V8.5003" stroke="black" stroke-width="1.5" stroke-linecap="round" stroke-linejoin="round"/>
<path fill-rule="evenodd" clip-rule="evenodd" d="M21 8V16C21 18.7614 18.7614 21 16 21H8C5.23858 21 3 18.7614 3 16V8C3 5.23858 5.23858 3 8 3H16C18.7614 3 21 5.23858 21 8Z" stroke="black" stroke-width="1.5" stroke-linecap="round" stroke-linejoin="round"/>
</svg>
