<svg width="24" height="24" viewBox="0 0 24 24" fill="none" xmlns="http://www.w3.org/2000/svg">
<path d="M8.49854 16.5022H15.5015" stroke="black" stroke-width="1.5" stroke-linecap="round" stroke-linejoin="round"/>
<rect x="2.99625" y="2.99609" width="18.0075" height="18.0075" rx="5" stroke="black" stroke-width="1.5" stroke-linecap="round" stroke-linejoin="round"/>
<path d="M12.2504 12.5005C12.2502 12.6386 12.1383 12.7504 12.0002 12.7503C11.8622 12.7503 11.7503 12.6384 11.7502 12.5003C11.7502 12.3623 11.8619 12.2503 12 12.2501C12.0664 12.25 12.1302 12.2764 12.1772 12.3234C12.2241 12.3703 12.2505 12.4341 12.2504 12.5005" stroke="black" stroke-width="1.5" stroke-linecap="round" stroke-linejoin="round"/>
<path d="M8.24876 12.5005C8.24858 12.6386 8.13659 12.7504 7.99855 12.7503C7.8605 12.7503 7.74861 12.6384 7.74855 12.5003C7.74849 12.3623 7.86029 12.2503 7.99833 12.2501C8.06477 12.25 8.12852 12.2764 8.1755 12.3234C8.22248 12.3703 8.24884 12.4341 8.24876 12.5005" stroke="black" stroke-width="1.5" stroke-linecap="round" stroke-linejoin="round"/>
<path d="M16.2521 12.5005C16.2519 12.6386 16.1399 12.7504 16.0019 12.7503C15.8638 12.7503 15.7519 12.6384 15.7519 12.5003C15.7518 12.3623 15.8636 12.2503 16.0017 12.2501C16.0681 12.25 16.1318 12.2764 16.1788 12.3234C16.2258 12.3703 16.2522 12.4341 16.2521 12.5005" stroke="black" stroke-width="1.5" stroke-linecap="round" stroke-linejoin="round"/>
<path d="M16.2521 8.49858C16.2519 8.63662 16.1399 8.74842 16.0019 8.74836C15.8638 8.7483 15.7519 8.63641 15.7519 8.49836C15.7518 8.36032 15.8636 8.24833 16.0017 8.24815C16.0681 8.24807 16.1318 8.27442 16.1788 8.3214C16.2258 8.36839 16.2522 8.43213 16.2521 8.49858" stroke="black" stroke-width="1.5" stroke-linecap="round" stroke-linejoin="round"/>
<path d="M12.2504 8.49858C12.2502 8.63662 12.1383 8.74842 12.0002 8.74836C11.8622 8.7483 11.7503 8.63641 11.7502 8.49836C11.7502 8.36032 11.8619 8.24833 12 8.24815C12.0664 8.24807 12.1302 8.27442 12.1772 8.3214C12.2241 8.36839 12.2505 8.43213 12.2504 8.49858" stroke="black" stroke-width="1.5" stroke-linecap="round" stroke-linejoin="round"/>
<path d="M8.24876 8.49858C8.24858 8.63662 8.13659 8.74842 7.99855 8.74836C7.8605 8.7483 7.74861 8.63641 7.74855 8.49836C7.74849 8.36032 7.86029 8.24833 7.99833 8.24815C8.06477 8.24807 8.12852 8.27442 8.1755 8.3214C8.22248 8.36839 8.24884 8.43213 8.24876 8.49858" stroke="black" stroke-width="1.5" stroke-linecap="round" stroke-linejoin="round"/>
</svg>
