<svg width="24" height="24" viewBox="0 0 24 24" fill="none" xmlns="http://www.w3.org/2000/svg">
<path fill-rule="evenodd" clip-rule="evenodd" d="M5.32823 21.0037H12C12.6185 21.004 13.2117 20.7586 13.6493 20.3214C14.0868 19.8843 14.3327 19.2913 14.333 18.6728V14.332C14.333 13.7133 14.0871 13.12 13.6496 12.6827C13.2121 12.2453 12.6187 11.9997 12 12H5.32823C4.70967 11.9997 4.11637 12.2453 3.67898 12.6827C3.24159 13.1201 2.99599 13.7134 2.99625 14.332V18.6718C2.99625 19.9597 4.04031 21.0037 5.32823 21.0037Z" stroke="black" stroke-width="1.5" stroke-linecap="round" stroke-linejoin="round"/>
<path d="M13.0004 2.99658H4.71097C3.76419 2.99713 2.99681 3.76451 2.99625 4.7113V9.9995" stroke="black" stroke-width="1.5" stroke-linecap="round" stroke-linejoin="round"/>
<path d="M21.0038 10.9995V19.2029C21.0038 19.6805 20.814 20.1385 20.4763 20.4763C20.1386 20.814 19.6806 21.0037 19.203 21.0037H17.0021" stroke="black" stroke-width="1.5" stroke-linecap="round" stroke-linejoin="round"/>
<path d="M16.0017 7.99867L21.0038 2.99658" stroke="black" stroke-width="1.5" stroke-linecap="round" stroke-linejoin="round"/>
<path d="M17.0021 2.9963H21.0038" stroke="black" stroke-width="1.5" stroke-linecap="round" stroke-linejoin="round"/>
<path d="M21.0037 6.99825V2.99658" stroke="black" stroke-width="1.5" stroke-linecap="round" stroke-linejoin="round"/>
<path d="M8.66461 15.0512C8.69224 15.0512 8.71464 15.0288 8.71464 15.0012C8.71464 14.9736 8.69224 14.9512 8.66461 14.9512C8.63699 14.9512 8.61459 14.9736 8.61459 15.0012C8.61459 15.0288 8.63699 15.0512 8.66461 15.0512" stroke="black" stroke-width="1.5" stroke-linecap="round" stroke-linejoin="round"/>
<path d="M11.1657 15.0512C11.1933 15.0512 11.2157 15.0288 11.2157 15.0012C11.2157 14.9736 11.1933 14.9512 11.1657 14.9512C11.1524 14.9512 11.1397 14.9564 11.1303 14.9658C11.1209 14.9752 11.1156 14.9879 11.1156 15.0012C11.1156 15.0145 11.1209 15.0272 11.1303 15.0366C11.1397 15.0459 11.1524 15.0512 11.1657 15.0512" stroke="black" stroke-width="1.5" stroke-linecap="round" stroke-linejoin="round"/>
<path d="M6.16357 15.0512C6.19119 15.0512 6.21359 15.0288 6.21359 15.0012C6.21359 14.9736 6.19119 14.9512 6.16357 14.9512C6.1503 14.9512 6.13758 14.9564 6.1282 14.9658C6.11882 14.9752 6.11355 14.9879 6.11355 15.0012C6.11355 15.0145 6.11882 15.0272 6.1282 15.0366C6.13758 15.0459 6.1503 15.0512 6.16357 15.0512" stroke="black" stroke-width="1.5" stroke-linecap="round" stroke-linejoin="round"/>
<path d="M6.16357 15.0512C6.19119 15.0512 6.21359 15.0288 6.21359 15.0012C6.21359 14.9736 6.19119 14.9512 6.16357 14.9512C6.1503 14.9512 6.13758 14.9564 6.1282 14.9658C6.11882 14.9752 6.11355 14.9879 6.11355 15.0012C6.11355 15.0145 6.11882 15.0272 6.1282 15.0366C6.13758 15.0459 6.1503 15.0512 6.16357 15.0512" stroke="black" stroke-width="1.5" stroke-linecap="round" stroke-linejoin="round"/>
<path d="M6.16357 18.0026H11.1657" stroke="black" stroke-width="1.5" stroke-linecap="round" stroke-linejoin="round"/>
</svg>
