<svg width="24" height="24" viewBox="0 0 24 24" fill="none" xmlns="http://www.w3.org/2000/svg">
<path fill-rule="evenodd" clip-rule="evenodd" d="M8.99876 16.0014H15.0013C16.1063 16.0014 17.0021 15.1056 17.0021 14.0005V9.99888C17.0021 8.89385 16.1063 7.99805 15.0013 7.99805H8.99876C7.89373 7.99805 6.99792 8.89385 6.99792 9.99888V14.0005C6.99792 15.1056 7.89373 16.0014 8.99876 16.0014Z" stroke="black" stroke-width="1.5" stroke-linecap="round" stroke-linejoin="round"/>
<rect x="2.99625" y="2.99609" width="18.0075" height="18.0075" rx="5" stroke="black" stroke-width="1.5" stroke-linecap="round" stroke-linejoin="round"/>
<path d="M12 11.0493C12.0276 11.0493 12.05 11.0269 12.05 10.9992C12.05 10.9716 12.0276 10.9492 12 10.9492C11.9724 10.9492 11.95 10.9716 11.95 10.9992C11.95 11.0269 11.9724 11.0493 12 11.0493" stroke="black" stroke-width="1.5" stroke-linecap="round" stroke-linejoin="round"/>
<path d="M14.501 11.0493C14.5287 11.0493 14.5511 11.0269 14.5511 10.9992C14.5511 10.9716 14.5287 10.9492 14.501 10.9492C14.4734 10.9492 14.451 10.9716 14.451 10.9992C14.451 11.0125 14.4563 11.0252 14.4657 11.0346C14.475 11.044 14.4878 11.0493 14.501 11.0493" stroke="black" stroke-width="1.5" stroke-linecap="round" stroke-linejoin="round"/>
<path d="M9.49896 11.0493C9.52658 11.0493 9.54898 11.0269 9.54898 10.9992C9.54898 10.9716 9.52658 10.9492 9.49896 10.9492C9.47133 10.9492 9.44894 10.9716 9.44894 10.9992C9.44894 11.0125 9.45421 11.0252 9.46359 11.0346C9.47297 11.044 9.48569 11.0493 9.49896 11.0493" stroke="black" stroke-width="1.5" stroke-linecap="round" stroke-linejoin="round"/>
<path d="M9.49896 11.0493C9.52658 11.0493 9.54898 11.0269 9.54898 10.9992C9.54898 10.9716 9.52658 10.9492 9.49896 10.9492C9.47133 10.9492 9.44894 10.9716 9.44894 10.9992C9.44894 11.0125 9.45421 11.0252 9.46359 11.0346C9.47297 11.044 9.48569 11.0493 9.49896 11.0493" stroke="black" stroke-width="1.5" stroke-linecap="round" stroke-linejoin="round"/>
<path d="M9.99918 13.5012H14.0008" stroke="black" stroke-width="1.5" stroke-linecap="round" stroke-linejoin="round"/>
</svg>
