<svg width="24" height="24" viewBox="0 0 24 24" fill="none" xmlns="http://www.w3.org/2000/svg">
<path fill-rule="evenodd" clip-rule="evenodd" d="M6 7H5C4.448 7 4 6.552 4 6V5C4 4.448 4.448 4 5 4H6C6.552 4 7 4.448 7 5V6C7 6.552 6.552 7 6 7Z" stroke="black" stroke-width="1.5"/>
<path fill-rule="evenodd" clip-rule="evenodd" d="M12.5 7H11.5C10.948 7 10.5 6.552 10.5 6V5C10.5 4.448 10.948 4 11.5 4H12.5C13.052 4 13.5 4.448 13.5 5V6C13.5 6.552 13.052 7 12.5 7Z" stroke="black" stroke-width="1.5"/>
<path fill-rule="evenodd" clip-rule="evenodd" d="M19 7H18C17.448 7 17 6.552 17 6V5C17 4.448 17.448 4 18 4H19C19.552 4 20 4.448 20 5V6C20 6.552 19.552 7 19 7Z" stroke="black" stroke-width="1.5"/>
<path d="M8 18L12 20L16 18" stroke="black" stroke-width="1.5" stroke-linecap="round" stroke-linejoin="round"/>
<path fill-rule="evenodd" clip-rule="evenodd" d="M10.5 6V5C10.5 4.448 10.948 4 11.5 4H12.5C13.052 4 13.5 4.448 13.5 5V6C13.5 6.552 13.052 7 12.5 7H11.5C10.948 7 10.5 6.552 10.5 6Z" stroke="black" stroke-width="1.5"/>
<path fill-rule="evenodd" clip-rule="evenodd" d="M6 13.5H5C4.448 13.5 4 13.052 4 12.5V11.5C4 10.948 4.448 10.5 5 10.5H6C6.552 10.5 7 10.948 7 11.5V12.5C7 13.052 6.552 13.5 6 13.5Z" stroke="black" stroke-width="1.5"/>
<path fill-rule="evenodd" clip-rule="evenodd" d="M12.5 13.5H11.5C10.948 13.5 10.5 13.052 10.5 12.5V11.5C10.5 10.948 10.948 10.5 11.5 10.5H12.5C13.052 10.5 13.5 10.948 13.5 11.5V12.5C13.5 13.052 13.052 13.5 12.5 13.5Z" stroke="black" stroke-width="1.5"/>
<path fill-rule="evenodd" clip-rule="evenodd" d="M19 13.5H18C17.448 13.5 17 13.052 17 12.5V11.5C17 10.948 17.448 10.5 18 10.5H19C19.552 10.5 20 10.948 20 11.5V12.5C20 13.052 19.552 13.5 19 13.5Z" stroke="black" stroke-width="1.5"/>
</svg>
