<svg width="24" height="24" viewBox="0 0 24 24" fill="none" xmlns="http://www.w3.org/2000/svg">
<rect x="2.99625" y="3.99707" width="18.0075" height="16.0067" rx="5" stroke="black" stroke-width="1.5" stroke-linecap="round" stroke-linejoin="round"/>
<path d="M16.0017 16.5022H7.99834" stroke="black" stroke-width="1.5" stroke-linecap="round" stroke-linejoin="round"/>
<path d="M13.6757 12.3674C13.6757 12.4005 13.6889 12.4322 13.7124 12.4555C13.7359 12.4788 13.7677 12.4917 13.8008 12.4915C13.8514 12.4915 13.8971 12.4609 13.9164 12.414C13.9357 12.3672 13.9248 12.3133 13.8888 12.2776C13.8528 12.242 13.7989 12.2315 13.7522 12.2512C13.7055 12.2708 13.6753 12.3168 13.6757 12.3674" stroke="black" stroke-width="1.5" stroke-linecap="round" stroke-linejoin="round"/>
<path d="M17.2772 12.3674C17.2772 12.4005 17.2904 12.4322 17.3139 12.4555C17.3374 12.4788 17.3692 12.4917 17.4022 12.4915C17.4529 12.4915 17.4986 12.4609 17.5179 12.414C17.5372 12.3672 17.5263 12.3133 17.4903 12.2776C17.4543 12.242 17.4004 12.2315 17.3537 12.2512C17.307 12.2708 17.2768 12.3168 17.2772 12.3674" stroke="black" stroke-width="1.5" stroke-linecap="round" stroke-linejoin="round"/>
<path d="M10.0742 12.3674C10.0742 12.4005 10.0874 12.4322 10.1109 12.4555C10.1344 12.4788 10.1662 12.4917 10.1993 12.4915C10.2499 12.4915 10.2956 12.4609 10.3149 12.414C10.3342 12.3672 10.3233 12.3133 10.2873 12.2776C10.2513 12.242 10.1974 12.2315 10.1507 12.2512C10.104 12.2708 10.0738 12.3168 10.0742 12.3674" stroke="black" stroke-width="1.5" stroke-linecap="round" stroke-linejoin="round"/>
<path d="M6.4727 12.3674C6.4727 12.4005 6.48591 12.4322 6.50939 12.4555C6.53287 12.4788 6.56468 12.4917 6.59775 12.4915C6.64842 12.4915 6.69408 12.4609 6.71338 12.414C6.73267 12.3672 6.72179 12.3133 6.68582 12.2776C6.64985 12.242 6.59589 12.2315 6.5492 12.2512C6.5025 12.2708 6.47229 12.3168 6.4727 12.3674" stroke="black" stroke-width="1.5" stroke-linecap="round" stroke-linejoin="round"/>
<path d="M6.4727 8.74923C6.4727 8.8183 6.52869 8.87428 6.59775 8.87428C6.66681 8.87428 6.7228 8.8183 6.7228 8.74923C6.7228 8.68017 6.66681 8.62418 6.59775 8.62418C6.52869 8.62418 6.4727 8.68017 6.4727 8.74923" stroke="black" stroke-width="1.5" stroke-linecap="round" stroke-linejoin="round"/>
<path d="M10.0742 8.74923C10.0742 8.8183 10.1302 8.87428 10.1993 8.87428C10.2683 8.87428 10.3243 8.8183 10.3243 8.74923C10.3243 8.68017 10.2683 8.62418 10.1993 8.62418C10.1302 8.62418 10.0742 8.68017 10.0742 8.74923" stroke="black" stroke-width="1.5" stroke-linecap="round" stroke-linejoin="round"/>
<path d="M13.6757 8.74923C13.6757 8.8183 13.7317 8.87428 13.8008 8.87428C13.8698 8.87428 13.9258 8.8183 13.9258 8.74923C13.9258 8.68017 13.8698 8.62418 13.8008 8.62418C13.7317 8.62418 13.6757 8.68017 13.6757 8.74923" stroke="black" stroke-width="1.5" stroke-linecap="round" stroke-linejoin="round"/>
<path d="M17.2772 8.74923C17.2772 8.8183 17.3332 8.87428 17.4023 8.87428C17.4713 8.87428 17.5273 8.8183 17.5273 8.74923C17.5273 8.68017 17.4713 8.62418 17.4023 8.62418C17.3332 8.62418 17.2772 8.68017 17.2772 8.74923" stroke="black" stroke-width="1.5" stroke-linecap="round" stroke-linejoin="round"/>
</svg>
