<svg width="24" height="24" viewBox="0 0 24 24" fill="none" xmlns="http://www.w3.org/2000/svg">
<path fill-rule="evenodd" clip-rule="evenodd" d="M17.919 18H6.081C4.794 18 3.75 16.957 3.75 15.669V8.331C3.75 7.043 4.793 6 6.081 6H17.92C19.207 6 20.251 7.043 20.251 8.331V15.67C20.25 16.957 19.207 18 17.919 18Z" stroke="black" stroke-width="1.5" stroke-linecap="round" stroke-linejoin="round"/>
<path d="M16.91 10.545C17.01 10.545 17.092 10.464 17.091 10.363C17.091 10.263 17.01 10.181 16.909 10.181C16.808 10.181 16.727 10.262 16.727 10.363C16.727 10.464 16.809 10.545 16.91 10.545" stroke="black" stroke-width="1.5" stroke-linecap="round" stroke-linejoin="round"/>
<path d="M16.91 13.818C17.01 13.818 17.092 13.737 17.091 13.636C17.091 13.536 17.01 13.454 16.909 13.454C16.808 13.454 16.727 13.535 16.727 13.636C16.727 13.737 16.809 13.818 16.91 13.818" stroke="black" stroke-width="1.5" stroke-linecap="round" stroke-linejoin="round"/>
<path d="M10.23 13.6399H13.77" stroke="black" stroke-width="1.5" stroke-linecap="round" stroke-linejoin="round"/>
<path d="M13.637 10.545C13.737 10.545 13.819 10.464 13.818 10.363C13.818 10.263 13.737 10.181 13.636 10.181C13.536 10.181 13.454 10.262 13.454 10.363C13.455 10.464 13.536 10.545 13.637 10.545" stroke="black" stroke-width="1.5" stroke-linecap="round" stroke-linejoin="round"/>
<path d="M10.364 10.545C10.464 10.545 10.546 10.464 10.545 10.363C10.545 10.263 10.464 10.181 10.363 10.181C10.263 10.181 10.181 10.262 10.181 10.363C10.182 10.464 10.263 10.545 10.364 10.545" stroke="black" stroke-width="1.5" stroke-linecap="round" stroke-linejoin="round"/>
<path d="M7.092 10.545C7.192 10.545 7.274 10.464 7.273 10.363C7.273 10.263 7.192 10.181 7.091 10.181C6.99 10.181 6.909 10.262 6.909 10.363C6.909 10.464 6.991 10.545 7.092 10.545" stroke="black" stroke-width="1.5" stroke-linecap="round" stroke-linejoin="round"/>
<path d="M7.092 13.818C7.192 13.818 7.274 13.737 7.273 13.636C7.273 13.536 7.192 13.454 7.091 13.454C6.99 13.454 6.909 13.535 6.909 13.636C6.909 13.737 6.991 13.818 7.092 13.818" stroke="black" stroke-width="1.5" stroke-linecap="round" stroke-linejoin="round"/>
</svg>
