<svg width="24" height="24" viewBox="0 0 24 24" fill="none" xmlns="http://www.w3.org/2000/svg">
<path d="M10.4854 12.5429L9.71881 15.2254C9.63258 15.5271 9.69298 15.8518 9.88194 16.1023C10.0709 16.3528 10.3665 16.5002 10.6803 16.5002H13.3213C13.6351 16.5002 13.9307 16.3529 14.1196 16.1024C14.3086 15.8519 14.369 15.5272 14.2828 15.2255L13.5163 12.542" stroke="black" stroke-width="1.5" stroke-linecap="round" stroke-linejoin="round"/>
<path d="M13.5163 12.5417C14.5293 11.8724 14.9835 10.618 14.6338 9.45526C14.2842 8.29256 13.2135 7.4967 11.9993 7.49707C10.7852 7.49744 9.71495 8.29394 9.36601 9.45686C9.01708 10.6198 9.47203 11.8739 10.4854 12.5426" stroke="black" stroke-width="1.5" stroke-linecap="round" stroke-linejoin="round"/>
<rect x="3" y="3" width="18" height="18" rx="5" stroke="black" stroke-width="1.5" stroke-linecap="round" stroke-linejoin="round"/>
</svg>
