<svg width="24" height="24" viewBox="0 0 24 24" fill="none" xmlns="http://www.w3.org/2000/svg">
<path fill-rule="evenodd" clip-rule="evenodd" d="M7.11896 20.1242L3.87461 16.8799C3.3121 16.317 2.99625 15.5538 2.99625 14.758V9.24169C2.99625 8.44578 3.31273 7.68252 3.87561 7.11981L7.11996 3.87546C7.68268 3.31258 8.44593 2.99609 9.24185 2.99609H14.7581C15.5541 2.99609 16.3173 3.31258 16.88 3.87546L20.1254 7.12081C20.6879 7.68369 21.0037 8.44692 21.0037 9.2427V14.758C21.0037 15.5538 20.6879 16.317 20.1254 16.8799L16.881 20.1252C16.3179 20.688 15.5543 21.004 14.7581 21.0036H9.24185C8.44558 21.0036 7.68192 20.6874 7.11896 20.1242V20.1242Z" stroke="black" stroke-width="1.5" stroke-linecap="round" stroke-linejoin="round"/>
<path fill-rule="evenodd" clip-rule="evenodd" d="M13.3836 13.1489C14.6111 12.5113 15.2437 11.1172 14.9155 9.7735C14.5873 8.42976 13.3832 7.48438 12 7.48438C10.6168 7.48438 9.41267 8.42976 9.08446 9.7735C8.75625 11.1172 9.38893 12.5113 10.6164 13.1489L9.71605 15.8441C9.66521 15.9967 9.69089 16.1645 9.78505 16.2949C9.87921 16.4253 10.0304 16.5025 10.1912 16.5023H13.8047C13.9656 16.5025 14.1168 16.4253 14.2109 16.2949C14.3051 16.1645 14.3308 15.9967 14.2799 15.8441L13.3836 13.1489Z" stroke="black" stroke-width="1.5" stroke-linecap="round" stroke-linejoin="round"/>
</svg>
