<svg width="24" height="24" viewBox="0 0 24 24" fill="none" xmlns="http://www.w3.org/2000/svg">
<path fill-rule="evenodd" clip-rule="evenodd" d="M6.49 6.53795L3.419 10.838C2.922 11.533 2.922 12.468 3.419 13.163L6.49 17.463C6.865 17.988 7.471 18.3 8.117 18.3H19C20.105 18.3 21 17.405 21 16.3V7.69995C21 6.59495 20.105 5.69995 19 5.69995H8.117C7.471 5.69995 6.865 6.01195 6.49 6.53795Z" stroke="black" stroke-width="1.5" stroke-linecap="round" stroke-linejoin="round"/>
<path d="M10.5728 10.7272C11.2757 11.4301 11.2757 12.5698 10.5728 13.2727C9.86986 13.9757 8.73016 13.9757 8.02722 13.2727C7.32428 12.5698 7.32428 11.4301 8.02722 10.7272C8.73016 10.0242 9.86986 10.0242 10.5728 10.7272" stroke="black" stroke-width="1.5" stroke-linecap="round" stroke-linejoin="round"/>
</svg>
