<svg width="24" height="24" viewBox="0 0 24 24" fill="none" xmlns="http://www.w3.org/2000/svg">
<path d="M7.99832 17.502L9.99915 19.5028L7.99832 21.5036" stroke="black" stroke-width="1.5" stroke-linecap="round" stroke-linejoin="round"/>
<path d="M9.99917 19.5031H3.99667" stroke="black" stroke-width="1.5" stroke-linecap="round" stroke-linejoin="round"/>
<path d="M13.9983 20.2772C17.7387 19.4256 20.5285 16.2972 20.9478 12.4841C21.3671 8.67096 19.3239 5.01103 15.858 3.36696C12.392 1.72288 8.26498 2.45591 5.57721 5.19298C2.88945 7.93005 2.23155 12.0697 3.93834 15.5052" stroke="black" stroke-width="1.5" stroke-linecap="round" stroke-linejoin="round"/>
<path fill-rule="evenodd" clip-rule="evenodd" d="M7.9248 11.3491V9.49888C7.9248 8.39385 8.82061 7.49805 9.92564 7.49805H11.7753C12.3059 7.49805 12.8148 7.70883 13.19 8.08402L16.0678 10.9615C16.443 11.3368 16.6538 11.8457 16.6538 12.3764C16.6538 12.9071 16.443 13.416 16.0678 13.7912L14.2174 15.6415C13.8421 16.0167 13.3332 16.2275 12.8025 16.2275C12.2718 16.2275 11.7629 16.0166 11.3877 15.6413L8.5107 12.7637C8.13555 12.3885 7.9248 11.8796 7.9248 11.3491Z" stroke="black" stroke-width="1.5" stroke-linecap="round" stroke-linejoin="round"/>
<path d="M10.8094 10.2834C10.8094 10.311 10.787 10.3334 10.7594 10.3334C10.7317 10.3334 10.7093 10.311 10.7093 10.2834C10.7093 10.2558 10.7317 10.2334 10.7594 10.2334" stroke="black" stroke-width="1.5" stroke-linecap="round" stroke-linejoin="round"/>
<path d="M10.7593 10.233C10.7726 10.233 10.7853 10.2383 10.7947 10.2477C10.8041 10.257 10.8094 10.2698 10.8094 10.283" stroke="black" stroke-width="1.5" stroke-linecap="round" stroke-linejoin="round"/>
</svg>
