<svg width="24" height="24" viewBox="0 0 24 24" fill="none" xmlns="http://www.w3.org/2000/svg">
<path d="M13.6747 13.426H10.3253" stroke="black" stroke-width="1.5" stroke-linecap="round" stroke-linejoin="round"/>
<path fill-rule="evenodd" clip-rule="evenodd" d="M10.1672 13.2718C9.03524 12.4735 8.55064 11.034 8.96939 9.71358C9.38815 8.3932 10.6138 7.49609 11.999 7.49609C13.3842 7.49609 14.6099 8.3932 15.0286 9.71358C15.4474 11.034 14.9628 12.4735 13.8308 13.2718C13.6825 13.3707 13.5921 13.5358 13.5887 13.714V15.1796C13.5887 15.9111 12.9956 16.5041 12.2641 16.5041H11.7339C11.0024 16.5041 10.4093 15.9111 10.4093 15.1796V13.717C10.4072 13.5377 10.3166 13.371 10.1672 13.2718V13.2718Z" stroke="black" stroke-width="1.5" stroke-linecap="round" stroke-linejoin="round"/>
<path d="M13.0004 20.9416C12.6685 20.9827 12.3344 21.0036 12 21.0036C7.02736 21.0036 2.99625 16.9725 2.99625 11.9998C2.99625 7.02721 7.02736 2.99609 12 2.99609C16.9726 2.99609 21.0037 7.02721 21.0037 11.9998C21.0037 12.3343 20.9829 12.6684 20.9417 13.0003" stroke="black" stroke-width="1.5" stroke-linecap="round" stroke-linejoin="round"/>
<path d="M20.0033 17.002L17.5023 19.503L16.0017 18.0024" stroke="black" stroke-width="1.5" stroke-linecap="round" stroke-linejoin="round"/>
</svg>
