<svg width="24" height="24" viewBox="0 0 24 24" fill="none" xmlns="http://www.w3.org/2000/svg">
<path d="M14.6893 15.8166H9.31311" stroke="black" stroke-width="1.5" stroke-linecap="round" stroke-linejoin="round"/>
<path fill-rule="evenodd" clip-rule="evenodd" d="M9.06877 15.5662C7.25844 14.2886 6.48403 11.9857 7.15454 9.87379C7.82506 7.76191 9.78608 6.32748 12.0018 6.32813C14.2176 6.32877 16.1778 7.76434 16.8471 9.8766C17.5164 11.9889 16.7406 14.2913 14.9296 15.5679C14.6927 15.7264 14.5481 15.9906 14.5423 16.2755V18.6204C14.5424 19.1823 14.3192 19.7212 13.9219 20.1185C13.5245 20.5158 12.9856 20.7389 12.4237 20.7389H11.5763C11.0144 20.7389 10.4755 20.5158 10.0782 20.1185C9.68083 19.7212 9.45765 19.1823 9.45773 18.6204V16.2789C9.45211 15.9921 9.30693 15.7261 9.06877 15.5662Z" stroke="black" stroke-width="1.5" stroke-linecap="round" stroke-linejoin="round"/>
<path d="M18.3666 5.3684L17.7299 6.00506" stroke="black" stroke-width="1.5" stroke-linecap="round" stroke-linejoin="round"/>
<path d="M6.27005 17.4651L5.63338 18.1017" stroke="black" stroke-width="1.5" stroke-linecap="round" stroke-linejoin="round"/>
<path d="M21.0037 11.7356H20.1034" stroke="black" stroke-width="1.5" stroke-linecap="round" stroke-linejoin="round"/>
<path d="M3.89662 11.7356H2.99625" stroke="black" stroke-width="1.5" stroke-linecap="round" stroke-linejoin="round"/>
<path d="M18.3666 18.1017L17.7299 17.4651" stroke="black" stroke-width="1.5" stroke-linecap="round" stroke-linejoin="round"/>
<path d="M6.27004 6.00506L5.63339 5.3684" stroke="black" stroke-width="1.5" stroke-linecap="round" stroke-linejoin="round"/>
<path d="M12 3.63204V2.73166" stroke="black" stroke-width="1.5" stroke-linecap="round" stroke-linejoin="round"/>
</svg>
