<svg width="24" height="24" viewBox="0 0 24 24" fill="none" xmlns="http://www.w3.org/2000/svg">
<path d="M13.8726 13.5012H10.1251" stroke="black" stroke-width="1.5" stroke-linecap="round" stroke-linejoin="round"/>
<path fill-rule="evenodd" clip-rule="evenodd" d="M9.98115 13.3604C8.73417 12.481 8.20035 10.8953 8.66165 9.44077C9.12294 7.98628 10.4731 6.99805 11.999 6.99805C13.5249 6.99805 14.875 7.98628 15.3363 9.44077C15.7976 10.8953 15.2638 12.481 14.0168 13.3604C13.8536 13.4693 13.7539 13.6513 13.7501 13.8475V15.545C13.7489 16.35 13.096 17.0019 12.291 17.0019H11.707C10.9011 17.0019 10.2479 16.3487 10.2479 15.5428V15.5428V13.8509C10.2455 13.6533 10.1457 13.4697 9.98115 13.3604Z" stroke="black" stroke-width="1.5" stroke-linecap="round" stroke-linejoin="round"/>
<path d="M13.0004 20.9416C12.6685 20.9827 12.3344 21.0036 12 21.0036C7.02736 21.0036 2.99625 16.9725 2.99625 11.9998C2.99625 7.02721 7.02736 2.99609 12 2.99609C16.9726 2.99609 21.0037 7.02721 21.0037 11.9998C21.0037 12.3343 20.9829 12.6684 20.9417 13.0003" stroke="black" stroke-width="1.5" stroke-linecap="round" stroke-linejoin="round"/>
<path d="M17.0141 17.0156L19.4901 19.4917" stroke="black" stroke-width="1.5" stroke-linecap="round" stroke-linejoin="round"/>
<path d="M17.0141 19.4907L19.4901 17.0146" stroke="black" stroke-width="1.5" stroke-linecap="round" stroke-linejoin="round"/>
</svg>
