<svg width="24" height="24" viewBox="0 0 24 24" fill="none" xmlns="http://www.w3.org/2000/svg">
<path d="M14.9972 7.74826H8.99875" stroke="black" stroke-width="1.5" stroke-linecap="round" stroke-linejoin="round"/>
<path d="M12 6.24805L12.004 7.74867" stroke="black" stroke-width="1.5" stroke-linecap="round" stroke-linejoin="round"/>
<path d="M13.5006 7.74805C13.5006 10.6503 11.4848 13.0002 8.99875 13.0002" stroke="black" stroke-width="1.5" stroke-linecap="round" stroke-linejoin="round"/>
<path d="M15.0013 13.0008C13.8583 12.9854 12.7723 12.4989 12 11.6562" stroke="black" stroke-width="1.5" stroke-linecap="round" stroke-linejoin="round"/>
<path d="M13.0004 17.0019H18.0025C18.7985 17.002 19.5619 16.6858 20.1248 16.1229C20.6876 15.5601 21.0037 14.7967 21.0037 14.0007V5.99734C21.0037 5.20135 20.6876 4.43794 20.1248 3.87508C19.5619 3.31223 18.7985 2.99609 18.0025 2.99609H5.9975C5.2015 2.99609 4.43809 3.31223 3.87524 3.87508C3.31239 4.43794 2.99625 5.20135 2.99625 5.99734V14.0007C2.99625 14.7967 3.31239 15.5601 3.87524 16.1229C4.43809 16.6858 5.2015 17.002 5.9975 17.0019H7.99833V21.0036L13.0004 17.0019" stroke="black" stroke-width="1.5" stroke-linecap="round" stroke-linejoin="round"/>
</svg>
