<svg width="24" height="24" viewBox="0 0 24 24" fill="none" xmlns="http://www.w3.org/2000/svg">
<path fill-rule="evenodd" clip-rule="evenodd" d="M9.99916 3.49672C9.99916 2.66795 10.671 1.99609 11.4998 1.99609H20.5035C21.3323 1.99609 22.0042 2.66795 22.0042 3.49672V9.49922C22.0042 10.328 21.3323 10.9998 20.5035 10.9998H19.5384V12.9997C19.5384 13.202 19.4165 13.3844 19.2296 13.4618C19.0427 13.5392 18.8275 13.4964 18.6845 13.3534L16.331 10.9998H11.4998C10.671 10.9998 9.99916 10.328 9.99916 9.49922V3.49672Z" stroke="black" stroke-width="1.5" stroke-linecap="round" stroke-linejoin="round"/>
<path d="M13.0004 14.0005V18.0664C13.0004 18.8951 12.3286 19.567 11.4998 19.567H7.63655L5.34723 21.8563C5.20417 21.9994 4.98903 22.0421 4.80212 21.9647C4.61521 21.8873 4.49334 21.7049 4.49333 21.5026V19.567H3.49646C2.66768 19.567 1.99583 18.8951 1.99583 18.0664V11.9996C1.99583 11.1709 2.66768 10.499 3.49646 10.499H6.99791" stroke="black" stroke-width="1.5" stroke-linecap="round" stroke-linejoin="round"/>
<path d="M14.2832 7.67697H17.709" stroke="black" stroke-width="1.5" stroke-linecap="round" stroke-linejoin="round"/>
<path d="M18.0025 8.47628L16.5619 4.47461H15.4414L14.0008 8.47628" stroke="black" stroke-width="1.5" stroke-linecap="round" stroke-linejoin="round"/>
<path d="M7.49813 14.3057V13.0322" stroke="black" stroke-width="1.5" stroke-linecap="round" stroke-linejoin="round"/>
<path d="M7.49812 14.3057C7.49703 15.4065 6.94053 16.4325 6.01837 17.0338" stroke="black" stroke-width="1.5" stroke-linecap="round" stroke-linejoin="round"/>
<path d="M8.97788 17.0338C8.05571 16.4325 7.49921 15.4065 7.49812 14.3057" stroke="black" stroke-width="1.5" stroke-linecap="round" stroke-linejoin="round"/>
<path d="M9.24885 14.3059H5.74739" stroke="black" stroke-width="1.5" stroke-linecap="round" stroke-linejoin="round"/>
</svg>
