<svg width="24" height="24" viewBox="0 0 24 24" fill="none" xmlns="http://www.w3.org/2000/svg">
<path d="M19.075 18.6841L16.95 14.4341L14.825 18.6841" stroke="black" stroke-width="1.5" stroke-linecap="round" stroke-linejoin="round"/>
<path d="M15.2 17.9341H18.7" stroke="black" stroke-width="1.5" stroke-linecap="round" stroke-linejoin="round"/>
<path fill-rule="evenodd" clip-rule="evenodd" d="M16.95 22.0001V22.0001C14.161 22.0001 11.9 19.7391 11.9 16.9501V16.9501C11.9 14.1611 14.161 11.9001 16.95 11.9001V11.9001C19.739 11.9001 22 14.1611 22 16.9501V16.9501C22 19.7391 19.739 22.0001 16.95 22.0001Z" stroke="black" stroke-width="1.5" stroke-linecap="round" stroke-linejoin="round"/>
<path fill-rule="evenodd" clip-rule="evenodd" d="M5.1 2.1001H9C10.657 2.1001 12 3.4431 12 5.1001V9.0001C12 10.6571 10.657 12.0001 9 12.0001H5.1C3.443 12.0001 2.1 10.6571 2.1 9.0001V5.1001C2.1 3.4431 3.443 2.1001 5.1 2.1001Z" stroke="black" stroke-width="1.5" stroke-linecap="round" stroke-linejoin="round"/>
<path d="M9.07 5.93018H5.03" stroke="black" stroke-width="1.5" stroke-linecap="round" stroke-linejoin="round"/>
<path d="M7.05 5.25009V5.93009" stroke="black" stroke-width="1.5" stroke-linecap="round" stroke-linejoin="round"/>
<path d="M8.062 5.92505C8.062 7.66505 6.702 9.07505 5.025 9.07505" stroke="black" stroke-width="1.5" stroke-linecap="round" stroke-linejoin="round"/>
<path d="M9.075 9.0752C8.347 9.0752 7.696 8.6872 7.234 8.0752" stroke="black" stroke-width="1.5" stroke-linecap="round" stroke-linejoin="round"/>
<path d="M14.565 4.91602H16.031C18.055 4.91602 19.695 6.55702 19.695 8.58002" stroke="black" stroke-width="1.5" stroke-linecap="round" stroke-linejoin="round"/>
<path d="M14.565 4.91602L15.664 6.01502" stroke="black" stroke-width="1.5" stroke-linecap="round" stroke-linejoin="round"/>
<path d="M15.664 3.81592L14.565 4.91492" stroke="black" stroke-width="1.5" stroke-linecap="round" stroke-linejoin="round"/>
<path d="M9.435 19.0839H7.969C5.945 19.0839 4.305 17.4429 4.305 15.4199" stroke="black" stroke-width="1.5" stroke-linecap="round" stroke-linejoin="round"/>
<path d="M9.435 19.0841L8.336 17.9851" stroke="black" stroke-width="1.5" stroke-linecap="round" stroke-linejoin="round"/>
<path d="M8.336 20.184L9.435 19.085" stroke="black" stroke-width="1.5" stroke-linecap="round" stroke-linejoin="round"/>
</svg>
