<svg width="24" height="24" viewBox="0 0 24 24" fill="none" xmlns="http://www.w3.org/2000/svg">
<path d="M5.15715 6.15735C5.61914 5.61755 6.14371 5.13462 6.7198 4.71875" stroke="black" stroke-width="1.5" stroke-linecap="round" stroke-linejoin="round"/>
<path d="M17.0021 19.4854C14.7588 20.9857 11.9606 21.3999 9.37891 20.6138" stroke="black" stroke-width="1.5" stroke-linecap="round" stroke-linejoin="round"/>
<path d="M3.51947 8.99902C3.17501 9.96224 2.99805 10.9773 2.99625 12.0003" stroke="black" stroke-width="1.5" stroke-linecap="round" stroke-linejoin="round"/>
<path d="M9.37891 3.38691C13.0198 2.26849 16.9703 3.56701 19.2376 6.62745C21.505 9.68788 21.5965 13.8453 19.4661 17.0026" stroke="black" stroke-width="1.5" stroke-linecap="round" stroke-linejoin="round"/>
<path d="M6.7198 19.2818C5.24613 18.2103 4.13117 16.718 3.52147 15.001" stroke="black" stroke-width="1.5" stroke-linecap="round" stroke-linejoin="round"/>
<path d="M10.9996 9.99902C12.1046 9.99902 13.0004 10.8948 13.0004 11.9999V11.9999C13.0004 13.1049 12.1046 14.0007 10.9996 14.0007" stroke="black" stroke-width="1.5" stroke-linecap="round" stroke-linejoin="round"/>
<path fill-rule="evenodd" clip-rule="evenodd" d="M8.99875 9.99902H15.0012C16.1063 9.99902 17.0021 10.8948 17.0021 11.9999V11.9999C17.0021 13.1049 16.1063 14.0007 15.0012 14.0007H8.99875C7.89372 14.0007 6.99792 13.1049 6.99792 11.9999V11.9999C6.99792 10.8948 7.89372 9.99902 8.99875 9.99902Z" stroke="black" stroke-width="1.5" stroke-linecap="round" stroke-linejoin="round"/>
</svg>
