<svg width="24" height="24" viewBox="0 0 24 24" fill="none" xmlns="http://www.w3.org/2000/svg">
<path d="M17.5023 17.0022H6.49771" stroke="black" stroke-width="1.5" stroke-linecap="round" stroke-linejoin="round"/>
<path fill-rule="evenodd" clip-rule="evenodd" d="M8.49855 6.99805H15.5015C16.3302 6.99805 17.0021 7.6699 17.0021 8.49867V13.5008C17.0021 14.0533 16.5542 14.5012 16.0017 14.5012H7.99834C7.44583 14.5012 6.99792 14.0533 6.99792 13.5008V8.49867C6.99792 7.6699 7.66978 6.99805 8.49855 6.99805Z" stroke="black" stroke-width="1.5" stroke-linecap="round" stroke-linejoin="round"/>
<path fill-rule="evenodd" clip-rule="evenodd" d="M16.0017 2.99658H7.99833C5.23576 2.99658 2.99625 5.23609 2.99625 7.99867V16.002C2.99625 18.7646 5.23576 21.0041 7.99833 21.0041H16.0017C18.7642 21.0041 21.0037 18.7646 21.0037 16.002V7.99867C21.0037 5.23609 18.7642 2.99658 16.0017 2.99658Z" stroke="black" stroke-width="1.5" stroke-linecap="round" stroke-linejoin="round"/>
</svg>
