<svg width="24" height="24" viewBox="0 0 24 24" fill="none" xmlns="http://www.w3.org/2000/svg">
<path d="M6.5 6.5H9.14" stroke="black" stroke-width="1.5" stroke-linecap="round" stroke-linejoin="round"/>
<path d="M6.5 10H10.02" stroke="black" stroke-width="1.5" stroke-linecap="round" stroke-linejoin="round"/>
<path d="M6.5 13.5H10.9" stroke="black" stroke-width="1.5" stroke-linecap="round" stroke-linejoin="round"/>
<path d="M17.5 13.5H14.4" stroke="black" stroke-width="1.5" stroke-linecap="round" stroke-linejoin="round"/>
<path d="M17.5 10H13.9" stroke="black" stroke-width="1.5" stroke-linecap="round" stroke-linejoin="round"/>
<path d="M11.182 20.718L14.193 17.707C14.638 17.262 14.848 16.633 14.759 16.01L13.145 4.717C13.004 3.732 12.16 3 11.165 3H5C3.895 3 3 3.895 3 5V15C3 16.105 3.895 17 5 17H14.658" stroke="black" stroke-width="1.5" stroke-linecap="round" stroke-linejoin="round"/>
<path d="M9.89999 17L10.226 19.283C10.366 20.268 11.21 21 12.206 21H19C20.105 21 21 20.105 21 19V8C21 6.895 20.105 6 19 6H13.9" stroke="black" stroke-width="1.5" stroke-linecap="round" stroke-linejoin="round"/>
</svg>
