<svg width="24" height="24" viewBox="0 0 24 24" fill="none" xmlns="http://www.w3.org/2000/svg">
<path d="M21.0037 10.9996V16.0017C21.0037 17.6592 19.66 19.0029 18.0025 19.0029H5.9975C4.33996 19.0029 2.99625 17.6592 2.99625 16.0017V7.99832C2.99625 6.34078 4.33996 4.99707 5.9975 4.99707H15.0013" stroke="black" stroke-width="1.5" stroke-linecap="round" stroke-linejoin="round"/>
<path fill-rule="evenodd" clip-rule="evenodd" d="M20.0849 3.99708C19.34 3.99533 18.6509 4.39169 18.2778 5.03648C17.9048 5.68127 17.9046 6.47623 18.2775 7.12115C18.6503 7.76606 19.3393 8.16265 20.0842 8.16115H20.0849C20.8298 8.1629 21.5189 7.76654 21.8919 7.12175C22.265 6.47696 22.2651 5.682 21.8923 5.03708C21.5195 4.39217 20.8305 3.99558 20.0856 3.99708H20.0849Z" stroke="black" stroke-width="1.5" stroke-linecap="round" stroke-linejoin="round"/>
<path d="M17.0021 9.77828L13.5216 12.489C12.5369 13.256 11.1519 13.2377 10.1878 12.4449L5.9975 8.99902" stroke="black" stroke-width="1.5" stroke-linecap="round" stroke-linejoin="round"/>
</svg>
