<svg width="24" height="24" viewBox="0 0 24 24" fill="none" xmlns="http://www.w3.org/2000/svg">
<path d="M7.50159 8.97559C8.13979 9.55977 9.63827 10.9302 10.8777 12.0596C11.5135 12.64 12.487 12.6405 13.1234 12.0606C14.4068 10.8902 15.8732 9.54877 16.4994 8.97559" stroke="black" stroke-width="1.5" stroke-linecap="round" stroke-linejoin="round"/>
<path fill-rule="evenodd" clip-rule="evenodd" d="M6.99841 10.1665V14.3346C6.99841 15.2555 7.74503 16.0021 8.66594 16.0021H15.3341C16.255 16.0018 17.0016 15.2556 17.0026 14.3346V10.1665C17.0026 9.24564 16.256 8.49912 15.3351 8.49902H8.66594C7.74503 8.49912 6.99841 9.24564 6.99841 10.1665Z" stroke="black" stroke-width="1.5" stroke-linecap="round" stroke-linejoin="round"/>
<path d="M11.091 12.2246L7.49344 15.5183" stroke="black" stroke-width="1.5" stroke-linecap="round" stroke-linejoin="round"/>
<path d="M12.91 12.2246L16.5075 15.5183" stroke="black" stroke-width="1.5" stroke-linecap="round" stroke-linejoin="round"/>
<path d="M21.0037 4.27148L19.0159 6.25931L17.7394 4.98478" stroke="black" stroke-width="1.5" stroke-linecap="round" stroke-linejoin="round"/>
<path d="M21.0037 8.99859V16.0015C21.0037 18.7641 18.7642 21.0036 16.0017 21.0036H7.99833C5.23576 21.0036 2.99625 18.7641 2.99625 16.0015V7.99818C2.99625 5.2356 5.23576 2.99609 7.99833 2.99609H15.0012" stroke="black" stroke-width="1.5" stroke-linecap="round" stroke-linejoin="round"/>
</svg>
