<svg width="24" height="24" viewBox="0 0 24 24" fill="none" xmlns="http://www.w3.org/2000/svg">
<path d="M7.50159 8.72559C8.13979 9.30977 9.63827 10.6802 10.8777 11.8096C11.5135 12.39 12.487 12.3905 13.1234 11.8106C14.4068 10.6402 15.8732 9.29877 16.4994 8.72559" stroke="black" stroke-width="1.5" stroke-linecap="round" stroke-linejoin="round"/>
<path fill-rule="evenodd" clip-rule="evenodd" d="M6.99841 9.91655V14.0846C6.99841 15.0055 7.74503 15.7521 8.66594 15.7521H15.3341C16.255 15.7518 17.0016 15.0056 17.0026 14.0846V9.91655C17.0026 8.99564 16.256 8.24912 15.3351 8.24902H8.66594C7.74503 8.24912 6.99841 8.99564 6.99841 9.91655Z" stroke="black" stroke-width="1.5" stroke-linecap="round" stroke-linejoin="round"/>
<path d="M21.0625 9.20483C21.3509 10.1087 21.4997 11.0513 21.504 12.0001C21.504 17.2489 17.2489 21.504 12 21.504C6.7511 21.504 2.49603 17.2489 2.49603 12.0001C2.49603 6.75116 6.7511 2.49609 12 2.49609C12.9488 2.50031 13.8913 2.64916 14.7952 2.9375" stroke="black" stroke-width="1.5" stroke-linecap="round" stroke-linejoin="round"/>
<path d="M21.504 3.84277L19.4061 5.94065L18.0585 4.59509" stroke="black" stroke-width="1.5" stroke-linecap="round" stroke-linejoin="round"/>
<path d="M11.091 11.9746L7.49344 15.2683" stroke="black" stroke-width="1.5" stroke-linecap="round" stroke-linejoin="round"/>
<path d="M12.91 11.9746L16.5075 15.2683" stroke="black" stroke-width="1.5" stroke-linecap="round" stroke-linejoin="round"/>
</svg>
