<svg width="24" height="24" viewBox="0 0 24 24" fill="none" xmlns="http://www.w3.org/2000/svg">
<path fill-rule="evenodd" clip-rule="evenodd" d="M16.5663 9.45634L12.6758 6.47709C12.277 6.1717 11.723 6.1717 11.3242 6.47709L7.43367 9.45634C7.15901 9.66666 6.99792 9.99288 6.99792 10.3388V15.1406C6.99792 15.4354 7.11503 15.7181 7.32349 15.9266C7.53195 16.1351 7.81468 16.2522 8.10949 16.2522H15.8905C16.5044 16.2522 17.0021 15.7545 17.0021 15.1406V10.3388C17.0021 9.99288 16.841 9.66666 16.5663 9.45634Z" stroke="black" stroke-width="1.5" stroke-linecap="round" stroke-linejoin="round"/>
<path fill-rule="evenodd" clip-rule="evenodd" d="M12 21.0036C16.9726 21.0036 21.0038 16.9725 21.0038 11.9998C21.0038 7.02721 16.9726 2.99609 12 2.99609C7.02737 2.99609 2.99625 7.02721 2.99625 11.9998C2.99625 16.9725 7.02737 21.0036 12 21.0036V21.0036Z" stroke="black" stroke-width="1.5" stroke-linecap="round" stroke-linejoin="round"/>
<path d="M7.10218 9.86976L11.3242 13.1029C11.723 13.4082 12.277 13.4082 12.6758 13.1029L16.8986 9.86914" stroke="black" stroke-width="1.5" stroke-linecap="round" stroke-linejoin="round"/>
</svg>
