<svg width="24" height="24" viewBox="0 0 24 24" fill="none" xmlns="http://www.w3.org/2000/svg">
<path fill-rule="evenodd" clip-rule="evenodd" d="M20.2194 8.77101L13.2165 3.40837C12.4987 2.85867 11.5014 2.85867 10.7835 3.40837L3.78063 8.77101C3.28621 9.14961 2.99625 9.73684 2.99625 10.3596V19.0028C2.99625 20.1078 3.89205 21.0036 4.99708 21.0036H19.0029C20.1079 21.0036 21.0037 20.1078 21.0037 19.0028V10.3596C21.0037 9.73685 20.7138 9.14963 20.2194 8.77101Z" stroke="black" stroke-width="1.5" stroke-linecap="round" stroke-linejoin="round"/>
<path d="M3.18404 9.51626L8.50207 13.5887C8.85124 13.8561 9.27877 14.001 9.71856 14.001H14.2799C14.7197 14.001 15.1473 13.8561 15.4965 13.5887L20.8153 9.51562" stroke="black" stroke-width="1.5" stroke-linecap="round" stroke-linejoin="round"/>
<path d="M3.17004 19.8226L8.45793 14.5808C8.83264 14.2094 9.33891 14.001 9.86653 14.001H14.1365C14.6643 14.001 15.1708 14.2095 15.5455 14.5812L20.8288 19.8216" stroke="black" stroke-width="1.5" stroke-linecap="round" stroke-linejoin="round"/>
</svg>
