<svg width="24" height="24" viewBox="0 0 24 24" fill="none" xmlns="http://www.w3.org/2000/svg">
<path d="M13.86 13.8301H10.14" stroke="black" stroke-width="1.5" stroke-linecap="round" stroke-linejoin="round"/>
<path fill-rule="evenodd" clip-rule="evenodd" d="M9.965 13.6591C8.92 12.9211 8.294 11.6321 8.514 10.2131C8.753 8.67908 10.031 7.45508 11.573 7.27508C13.713 7.02408 15.529 8.69008 15.529 10.7791C15.529 11.9701 14.937 13.0211 14.033 13.6601C13.871 13.7751 13.764 13.9521 13.764 14.1511V15.7791C13.764 16.5911 13.106 17.2501 12.293 17.2501H11.705C10.893 17.2501 10.234 16.5921 10.234 15.7791V14.1541C10.235 13.9531 10.128 13.7751 9.965 13.6591Z" stroke="black" stroke-width="1.5" stroke-linecap="round" stroke-linejoin="round"/>
<path d="M18.364 5.63604C21.8787 9.15076 21.8787 14.8492 18.364 18.3639C14.8493 21.8787 9.1508 21.8787 5.6361 18.3639C2.12138 14.8492 2.12138 9.15074 5.6361 5.63604C9.15082 2.12132 14.8493 2.12132 18.364 5.63604" stroke="black" stroke-width="1.5" stroke-linecap="round" stroke-linejoin="round"/>
</svg>
