<svg width="24" height="24" viewBox="0 0 24 24" fill="none" xmlns="http://www.w3.org/2000/svg">
<path d="M13.8608 13.8313H10.1392" stroke="black" stroke-width="1.5" stroke-linecap="round" stroke-linejoin="round"/>
<path fill-rule="evenodd" clip-rule="evenodd" d="M9.96415 13.6597C8.7068 12.7729 8.16857 11.1739 8.63375 9.70724C9.09892 8.24061 10.4604 7.24414 11.999 7.24414C13.5376 7.24414 14.8991 8.24061 15.3643 9.70724C15.8294 11.1739 15.2912 12.7729 14.0338 13.6597C13.8695 13.7698 13.7691 13.9531 13.7647 14.1509V15.7796C13.7647 16.5923 13.1059 17.2512 12.2931 17.2512H11.7049C10.8921 17.2512 10.2333 16.5923 10.2333 15.7796V14.1549C10.2302 13.9557 10.1297 13.7706 9.96415 13.6597Z" stroke="black" stroke-width="1.5" stroke-linecap="round" stroke-linejoin="round"/>
<rect x="2.99625" y="2.99609" width="18.0075" height="18.0075" rx="5" stroke="black" stroke-width="1.5" stroke-linecap="round" stroke-linejoin="round"/>
</svg>
