<svg width="24" height="24" viewBox="0 0 24 24" fill="none" xmlns="http://www.w3.org/2000/svg">
<rect x="3" y="3" width="18" height="18" rx="5" stroke="black" stroke-width="1.5" stroke-linecap="round" stroke-linejoin="round"/>
<path d="M4.39029 4.54102L8.06219 8.21363" stroke="black" stroke-width="1.5" stroke-linecap="round" stroke-linejoin="round"/>
<path d="M15.7834 15.9375L19.4565 19.6116" stroke="black" stroke-width="1.5" stroke-linecap="round" stroke-linejoin="round"/>
<path fill-rule="evenodd" clip-rule="evenodd" d="M11.68 7.21883C11.8037 7.03782 12.031 6.95856 12.2405 7.02333C12.4499 7.0881 12.5928 7.28179 12.5928 7.50105V10.7454H15.4991C15.6846 10.7454 15.8548 10.8481 15.9414 11.0121C16.0279 11.1761 16.0166 11.3746 15.9119 11.5277L12.32 16.7813C12.1963 16.9624 11.969 17.0416 11.7595 16.9768C11.5501 16.9121 11.4072 16.7184 11.4072 16.4991V13.2548H8.50086C8.31539 13.2548 8.14516 13.1521 8.05861 12.9881C7.97206 12.8241 7.98341 12.6256 8.08811 12.4725L11.68 7.21883Z" stroke="black" stroke-width="1.5" stroke-linecap="round" stroke-linejoin="round"/>
</svg>
