<svg width="24" height="24" viewBox="0 0 24 24" fill="none" xmlns="http://www.w3.org/2000/svg">
<path d="M5.4973 12.0002H5.9975" stroke="black" stroke-width="1.5" stroke-linecap="round" stroke-linejoin="round"/>
<path d="M12 5.49717V5.99738" stroke="black" stroke-width="1.5" stroke-linecap="round" stroke-linejoin="round"/>
<path d="M7.39808 7.39826L7.75823 7.75841" stroke="black" stroke-width="1.5" stroke-linecap="round" stroke-linejoin="round"/>
<path d="M13.6747 14.924H10.3253" stroke="black" stroke-width="1.5" stroke-linecap="round" stroke-linejoin="round"/>
<path fill-rule="evenodd" clip-rule="evenodd" d="M10.1672 14.7698C9.03524 13.9715 8.55064 12.532 8.96939 11.2116C9.38815 9.89125 10.6138 8.99414 11.999 8.99414C13.3842 8.99414 14.6099 9.89125 15.0286 11.2116C15.4474 12.532 14.9628 13.9715 13.8308 14.7698C13.6825 14.8687 13.5921 15.0339 13.5887 15.212V16.6776C13.5887 17.0289 13.4491 17.3658 13.2007 17.6142C12.9523 17.8626 12.6154 18.0022 12.2641 18.0022H11.7339C11.3826 18.0022 11.0457 17.8626 10.7973 17.6142C10.5489 17.3658 10.4093 17.0289 10.4093 16.6776V15.215C10.4069 15.0358 10.3163 14.8693 10.1672 14.7698V14.7698Z" stroke="black" stroke-width="1.5" stroke-linecap="round" stroke-linejoin="round"/>
<circle cx="12" cy="11.9998" r="9.00375" stroke="black" stroke-width="1.5" stroke-linecap="round" stroke-linejoin="round"/>
<path d="M18.0025 12.0002H18.5027" stroke="black" stroke-width="1.5" stroke-linecap="round" stroke-linejoin="round"/>
<path d="M16.2418 7.75841L16.6019 7.39826" stroke="black" stroke-width="1.5" stroke-linecap="round" stroke-linejoin="round"/>
</svg>
