<svg width="24" height="24" viewBox="0 0 24 24" fill="none" xmlns="http://www.w3.org/2000/svg">
<path d="M8.99875 12.0004H6.99792C4.78786 12.0004 2.99625 10.2088 2.99625 7.99874V7.99874C2.99625 5.78868 4.78786 3.99707 6.99792 3.99707H8.99875" stroke="black" stroke-width="1.5" stroke-linecap="round" stroke-linejoin="round"/>
<path d="M14.0008 3.99707H16.0017C18.2117 3.99707 20.0033 5.78868 20.0033 7.99874" stroke="black" stroke-width="1.5" stroke-linecap="round" stroke-linejoin="round"/>
<path d="M6.99792 7.99826H15.0013" stroke="black" stroke-width="1.5" stroke-linecap="round" stroke-linejoin="round"/>
<path fill-rule="evenodd" clip-rule="evenodd" d="M12 20.0036L15.1504 19.6146C15.3718 19.5875 15.5777 19.4871 15.7355 19.3295L20.3699 14.7001C21.215 13.8546 21.215 12.4842 20.3699 11.6387V11.6387C19.5244 10.7936 18.154 10.7936 17.3085 11.6387L12.7451 16.2021C12.592 16.3552 12.4926 16.5538 12.4621 16.7682L12 20.0036Z" stroke="black" stroke-width="1.5" stroke-linecap="round" stroke-linejoin="round"/>
</svg>
