<svg width="24" height="24" viewBox="0 0 24 24" fill="none" xmlns="http://www.w3.org/2000/svg">
<path d="M11.8536 13.3981H12.4392C13.4095 13.3981 14.196 12.6115 14.196 11.6412V9.29879C14.196 8.32853 13.4094 7.54199 12.4392 7.54199H7.75433C6.78407 7.54199 5.9975 8.32853 5.9975 9.29879V11.6412C5.9975 12.1072 6.18259 12.554 6.51206 12.8835C6.84153 13.213 7.28839 13.3981 7.75433 13.3981" stroke="black" stroke-width="1.5" stroke-linecap="round" stroke-linejoin="round"/>
<path d="M12.1464 10.4707H11.5608C10.5905 10.4707 9.80399 11.2573 9.80399 12.2275V14.57C9.80399 15.5402 10.5905 16.3268 11.5608 16.3268H16.2457C17.2159 16.3268 18.0025 15.5402 18.0025 14.57V12.2275C18.0025 11.2573 17.2159 10.4707 16.2457 10.4707V10.4707" stroke="black" stroke-width="1.5" stroke-linecap="round" stroke-linejoin="round"/>
<path fill-rule="evenodd" clip-rule="evenodd" d="M7.99833 2.99609H16.0017C18.7642 2.99609 21.0037 5.2356 21.0037 7.99818V16.0015C21.0037 18.7641 18.7642 21.0036 16.0017 21.0036H7.99833C5.23576 21.0036 2.99625 18.7641 2.99625 16.0015V7.99818C2.99625 5.2356 5.23576 2.99609 7.99833 2.99609Z" stroke="black" stroke-width="1.5" stroke-linecap="round" stroke-linejoin="round"/>
</svg>
