<svg width="24" height="24" viewBox="0 0 24 24" fill="none" xmlns="http://www.w3.org/2000/svg">
<path d="M11.064 12.9359C12.1369 13.8726 13.7369 13.8726 14.8098 12.9359L15.7458 11.9999V11.9999C16.7615 10.9624 16.7528 9.30056 15.7261 8.27386C14.6994 7.24716 13.0375 7.23838 12 8.25417" stroke="black" stroke-width="1.5" stroke-linecap="round" stroke-linejoin="round"/>
<path fill-rule="evenodd" clip-rule="evenodd" d="M21.0037 11.9998V11.9998C21.0037 14.3878 20.0553 16.6781 18.3668 18.3666C16.6782 20.0552 14.388 21.0036 12 21.0036V21.0036C9.61201 21.0036 7.32178 20.0552 5.63322 18.3666C3.94466 16.6781 2.99625 14.3878 2.99625 11.9998V11.9998C2.99625 9.61186 3.94466 7.32163 5.63322 5.63307C7.32178 3.9445 9.61201 2.99609 12 2.99609V2.99609C14.388 2.99609 16.6782 3.9445 18.3668 5.63307C20.0553 7.32163 21.0037 9.61186 21.0037 11.9998Z" stroke="black" stroke-width="1.5" stroke-linecap="round" stroke-linejoin="round"/>
<path d="M12.936 11.0639C11.8631 10.1272 10.2631 10.1272 9.19022 11.0639L8.25423 11.9998V11.9998C7.23844 13.0373 7.24723 14.6992 8.27392 15.7259C9.30062 16.7526 10.9625 16.7614 12 15.7456" stroke="black" stroke-width="1.5" stroke-linecap="round" stroke-linejoin="round"/>
</svg>
