<svg width="24" height="24" viewBox="0 0 24 24" fill="none" xmlns="http://www.w3.org/2000/svg">
<path d="M12 10.666H10.9996C10.4471 10.666 9.99917 11.1139 9.99917 11.6664V15.0012C9.99917 15.5537 10.4471 16.0016 10.9996 16.0016H16.0017C16.5542 16.0016 17.0021 15.5537 17.0021 15.0012V11.6664C17.0021 11.1139 16.5542 10.666 16.0017 10.666" stroke="black" stroke-width="1.5" stroke-linecap="round" stroke-linejoin="round"/>
<circle cx="12" cy="11.9998" r="9.00375" stroke="black" stroke-width="1.5" stroke-linecap="round" stroke-linejoin="round"/>
<path d="M12 13.3336H13.0004C13.5529 13.3336 14.0008 12.8857 14.0008 12.3332V8.99846C14.0008 8.44595 13.5529 7.99805 13.0004 7.99805H7.99833C7.44582 7.99805 6.99792 8.44595 6.99792 8.99846V12.3332C6.99792 12.8857 7.44582 13.3336 7.99833 13.3336" stroke="black" stroke-width="1.5" stroke-linecap="round" stroke-linejoin="round"/>
</svg>
