<svg width="24" height="24" viewBox="0 0 24 24" fill="none" xmlns="http://www.w3.org/2000/svg">
<path d="M16.0017 22.0046L14.0008 20.0038L16.0017 18.0029" stroke="black" stroke-width="1.5" stroke-linecap="round" stroke-linejoin="round"/>
<path d="M20.0033 20.0031H14.0008" stroke="black" stroke-width="1.5" stroke-linecap="round" stroke-linejoin="round"/>
<path d="M20.0568 16.0021C21.7633 12.5672 21.1055 8.42809 18.4181 5.69147C15.7307 2.95484 11.6042 2.22202 8.13889 3.86597C4.67354 5.50991 2.63077 9.1694 3.05025 12.9819C3.46972 16.7944 6.25928 19.9222 9.99917 20.7734" stroke="black" stroke-width="1.5" stroke-linecap="round" stroke-linejoin="round"/>
<path d="M13.0005 15.0017L12.7314 15.2698C11.6118 16.2822 9.89511 16.2391 8.82779 15.1718C7.76047 14.1044 7.71734 12.3877 8.72972 11.2682L8.99888 11" stroke="black" stroke-width="1.5" stroke-linecap="round" stroke-linejoin="round"/>
<path d="M10.9996 13.0008L13.0004 11" stroke="black" stroke-width="1.5" stroke-linecap="round" stroke-linejoin="round"/>
<path d="M10.9995 8.99894L11.2687 8.73077C12.3882 7.71839 14.1049 7.76152 15.1723 8.82885C16.2396 9.89617 16.2827 11.6129 15.2703 12.7324L15.0012 13.0006" stroke="black" stroke-width="1.5" stroke-linecap="round" stroke-linejoin="round"/>
</svg>
