<svg width="24" height="24" viewBox="0 0 24 24" fill="none" xmlns="http://www.w3.org/2000/svg">
<path d="M10.0676 11.9417C11.1405 12.8784 12.7405 12.8784 13.8134 11.9417L14.7494 11.0057V11.0057C15.766 9.96837 15.7576 8.30578 14.7306 7.27873C13.7035 6.25168 12.0409 6.24332 11.0036 7.25998" stroke="black" stroke-width="1.5" stroke-linecap="round" stroke-linejoin="round"/>
<path d="M11.0308 20.0039C6.19138 19.9908 2.22799 16.1544 2.05719 11.318C1.88639 6.48153 5.56929 2.37517 10.3957 2.02065C15.2222 1.66613 19.4656 5.19027 20.0033 9.99976" stroke="black" stroke-width="1.5" stroke-linecap="round" stroke-linejoin="round"/>
<path fill-rule="evenodd" clip-rule="evenodd" d="M15.294 17.8414L18.8375 14.2951C19.0256 14.1069 19.2808 14.0011 19.5469 14.001C19.8131 14.0009 20.0683 14.1065 20.2566 14.2947L21.7103 15.7476C21.8985 15.9356 22.0041 16.1907 22.0041 16.4566C22.0041 16.7226 21.8985 16.9776 21.7103 17.1656L18.1626 20.7112C17.975 20.8987 17.7206 21.004 17.4554 21.004H15.0013V18.5485C15.0013 18.2833 15.1065 18.029 15.294 17.8414Z" stroke="black" stroke-width="1.5" stroke-linecap="round" stroke-linejoin="round"/>
<path d="M11.9396 10.0697C10.8667 9.13301 9.26674 9.13301 8.19384 10.0697L7.25785 11.0057V11.0057C6.24272 12.0433 6.2518 13.7046 7.27822 14.731C8.30464 15.7575 9.96598 15.7666 11.0036 14.7514" stroke="black" stroke-width="1.5" stroke-linecap="round" stroke-linejoin="round"/>
</svg>
