<svg width="24" height="24" viewBox="0 0 24 24" fill="none" xmlns="http://www.w3.org/2000/svg">
<path d="M10.8293 13.0993C10.5172 12.8269 10.0434 12.859 9.77103 13.171C9.49862 13.4831 9.53073 13.9569 9.84276 14.2293L10.8293 13.0993ZM16.9951 13.6643L17.4884 14.2293C17.5011 14.2181 17.5135 14.2066 17.5254 14.1946L16.9951 13.6643ZM11.4753 4.8053C11.1793 5.09508 11.1743 5.56993 11.4641 5.8659C11.7538 6.16188 12.2287 6.16691 12.5247 5.87714L11.4753 4.8053ZM13.1707 10.9013C13.4827 11.1737 13.9565 11.1416 14.2289 10.8296C14.5014 10.5175 14.4692 10.0437 14.1572 9.77132L13.1707 10.9013ZM7.00486 10.3363L6.51161 9.77132C6.49886 9.78245 6.48649 9.79401 6.47452 9.80598L7.00486 10.3363ZM12.5247 19.1953C12.8207 18.9056 12.8257 18.4307 12.5359 18.1347C12.2461 17.8388 11.7713 17.8337 11.4753 18.1235L12.5247 19.1953ZM9.84276 14.2293C12.0327 16.1412 15.2984 16.1412 17.4884 14.2293L16.5019 13.0993C14.877 14.5178 12.4541 14.5178 10.8293 13.0993L9.84276 14.2293ZM17.5254 14.1946L19.1894 12.5307L18.1288 11.47L16.4648 13.134L17.5254 14.1946ZM19.195 12.525C21.2884 10.3868 21.2703 6.96187 19.1543 4.84596L18.0937 5.90662C19.6282 7.44113 19.6413 9.92497 18.1232 11.4756L19.195 12.525ZM19.1543 4.84596C17.0384 2.73005 13.6135 2.71192 11.4753 4.8053L12.5247 5.87714C14.0753 4.35897 16.5592 4.37212 18.0937 5.90662L19.1543 4.84596ZM14.1572 9.77132C11.9673 7.8594 8.70156 7.8594 6.51161 9.77132L7.49811 10.9013C9.12293 9.48275 11.5459 9.48275 13.1707 10.9013L14.1572 9.77132ZM6.47452 9.80598L4.81055 11.47L5.87122 12.5306L7.5352 10.8666L6.47452 9.80598ZM4.80497 11.4756C2.71158 13.6138 2.72972 17.0388 4.84563 19.1547L5.90629 18.094C4.37178 16.5595 4.35863 14.0757 5.8768 12.525L4.80497 11.4756ZM4.84563 19.1547C6.96154 21.2706 10.3865 21.2887 12.5247 19.1953L11.4753 18.1235C9.92463 19.6417 7.44079 19.6285 5.90629 18.094L4.84563 19.1547Z" fill="black"/>
</svg>
