<svg width="24" height="24" viewBox="0 0 24 24" fill="none" xmlns="http://www.w3.org/2000/svg">
<path d="M3.99666 14.0012V17.0025C3.99666 19.2125 5.78831 21.0042 7.99832 21.0042H15.3444C16.406 21.0042 17.4241 20.5825 18.1746 19.8317L20.1254 17.8809C20.6879 17.318 21.0037 16.5548 21.0037 15.759V7.99874C21.0037 5.78872 19.2121 3.99707 17.0021 3.99707H14.0008" stroke="black" stroke-width="1.5" stroke-linecap="round" stroke-linejoin="round"/>
<circle cx="7.49812" cy="7.49797" r="4.50187" stroke="black" stroke-width="1.5" stroke-linecap="round" stroke-linejoin="round"/>
<path d="M8.49854 8.49888L6.49771 6.49805" stroke="black" stroke-width="1.5" stroke-linecap="round" stroke-linejoin="round"/>
<path d="M8.49854 6.49805L6.49771 8.49888" stroke="black" stroke-width="1.5" stroke-linecap="round" stroke-linejoin="round"/>
<path d="M15.0013 21.0035V17.0018C15.0011 16.4711 15.2119 15.9621 15.5871 15.5868C15.9624 15.2116 16.4714 15.0008 17.0021 15.001H21.0038" stroke="black" stroke-width="1.5" stroke-linecap="round" stroke-linejoin="round"/>
</svg>
