<svg width="24" height="24" viewBox="0 0 24 24" fill="none" xmlns="http://www.w3.org/2000/svg">
<path d="M10.1242 8.52267H17.0021" stroke="black" stroke-width="1.5" stroke-linecap="round" stroke-linejoin="round"/>
<path d="M17.0021 12.0002H10.9996" stroke="black" stroke-width="1.5" stroke-linecap="round" stroke-linejoin="round"/>
<path d="M17.0021 15.4777H11.8749" stroke="black" stroke-width="1.5" stroke-linecap="round" stroke-linejoin="round"/>
<rect x="2.99625" y="2.99609" width="18.0075" height="18.0075" rx="5" stroke="black" stroke-width="1.5" stroke-linecap="round" stroke-linejoin="round"/>
<path d="M7.30904 8.27257C7.17105 8.27312 7.05957 8.38534 7.05994 8.52334C7.06031 8.66134 7.17238 8.77296 7.31038 8.77278C7.44837 8.77259 7.56015 8.66067 7.56015 8.52267C7.56042 8.45609 7.53402 8.39216 7.48684 8.34517C7.43966 8.29818 7.37563 8.27203 7.30904 8.27257" stroke="black" stroke-width="1.5" stroke-linecap="round" stroke-linejoin="round"/>
<path d="M8.18441 11.7501C8.04641 11.7507 7.93494 11.8629 7.93531 12.0009C7.93568 12.1389 8.04774 12.2505 8.18574 12.2503C8.32374 12.2501 8.43551 12.1382 8.43552 12.0002C8.43578 11.9336 8.40938 11.8697 8.3622 11.8227C8.31503 11.7757 8.251 11.7496 8.18441 11.7501" stroke="black" stroke-width="1.5" stroke-linecap="round" stroke-linejoin="round"/>
<path d="M9.05978 15.2276C8.92178 15.2282 8.81031 15.3404 8.81067 15.4784C8.81104 15.6164 8.92311 15.728 9.06111 15.7279C9.19911 15.7277 9.31088 15.6158 9.31088 15.4777C9.31115 15.4112 9.28475 15.3472 9.23757 15.3002C9.19039 15.2533 9.12636 15.2271 9.05978 15.2276" stroke="black" stroke-width="1.5" stroke-linecap="round" stroke-linejoin="round"/>
</svg>
