<svg width="24" height="24" viewBox="0 0 24 24" fill="none" xmlns="http://www.w3.org/2000/svg">
<path d="M3.99667 14.0012V17.0025C3.99667 19.2125 5.78832 21.0042 7.99834 21.0042H15.3444C16.406 21.0042 17.4241 20.5825 18.1746 19.8317L20.1254 17.8809C20.688 17.318 21.0038 16.5548 21.0038 15.759V7.99874C21.0038 5.78872 19.2121 3.99707 17.0021 3.99707H14.0008" stroke="black" stroke-width="1.5" stroke-linecap="round" stroke-linejoin="round"/>
<path d="M15.0013 21.0035V17.0018C15.0011 16.4711 15.2119 15.9621 15.5871 15.5868C15.9624 15.2116 16.4714 15.0008 17.0021 15.001H21.0038" stroke="black" stroke-width="1.5" stroke-linecap="round" stroke-linejoin="round"/>
<path d="M12 7.49797C12 9.98429 9.98444 11.9998 7.49812 11.9998C5.0118 11.9998 2.99625 9.98429 2.99625 7.49797C2.99625 5.01165 5.0118 2.99609 7.49812 2.99609V2.99609C9.98444 2.99609 12 5.01165 12 7.49797" stroke="black" stroke-width="1.5" stroke-linecap="round" stroke-linejoin="round"/>
<path d="M9.24886 7.49826H8.99875" stroke="black" stroke-width="1.5" stroke-linecap="round" stroke-linejoin="round"/>
<path d="M5.99748 7.49826H5.74738" stroke="black" stroke-width="1.5" stroke-linecap="round" stroke-linejoin="round"/>
<path d="M7.49813 5.74723V5.99733" stroke="black" stroke-width="1.5" stroke-linecap="round" stroke-linejoin="round"/>
<path d="M7.49813 8.99918V9.24928" stroke="black" stroke-width="1.5" stroke-linecap="round" stroke-linejoin="round"/>
</svg>
