<svg width="24" height="24" viewBox="0 0 24 24" fill="none" xmlns="http://www.w3.org/2000/svg">
<path d="M7.49812 2.99609C9.98444 2.99609 12 5.01165 12 7.49797C12 9.98429 9.98444 11.9998 7.49812 11.9998C5.0118 11.9998 2.99625 9.98429 2.99625 7.49797C2.99625 5.01165 5.0118 2.99609 7.49812 2.99609" stroke="black" stroke-width="1.5" stroke-linecap="round" stroke-linejoin="round"/>
<path d="M15.0013 9.99923H21.0038" stroke="black" stroke-width="1.5" stroke-linecap="round" stroke-linejoin="round"/>
<path d="M15.0013 4.99728H21.0038" stroke="black" stroke-width="1.5" stroke-linecap="round" stroke-linejoin="round"/>
<path d="M21.0037 15.0012H8.99875" stroke="black" stroke-width="1.5" stroke-linecap="round" stroke-linejoin="round"/>
<path d="M21.0037 20.0031H8.99875" stroke="black" stroke-width="1.5" stroke-linecap="round" stroke-linejoin="round"/>
<path d="M4.99708 15.0012C4.99708 15.1393 4.8851 15.2513 4.74697 15.2513C4.60884 15.2513 4.49687 15.1393 4.49687 15.0012C4.49687 14.8631 4.60884 14.7511 4.74697 14.7511C4.8851 14.7511 4.99708 14.8631 4.99708 15.0012" stroke="black" stroke-width="1.5" stroke-linecap="round" stroke-linejoin="round"/>
<path d="M4.99708 20.0031C4.99708 20.1413 4.8851 20.2532 4.74697 20.2532C4.60884 20.2532 4.49687 20.1413 4.49687 20.0031C4.49687 19.865 4.60884 19.753 4.74697 19.753C4.8851 19.753 4.99708 19.865 4.99708 20.0031" stroke="black" stroke-width="1.5" stroke-linecap="round" stroke-linejoin="round"/>
<path d="M8.72064 7.44823C8.69301 7.44823 8.67062 7.47063 8.67062 7.49826C8.67062 7.52588 8.69301 7.54828 8.72064 7.54828C8.74826 7.54828 8.77066 7.52588 8.77066 7.49826C8.77066 7.47063 8.74826 7.44823 8.72064 7.44823" stroke="black" stroke-width="1.5" stroke-linecap="round" stroke-linejoin="round"/>
<path d="M6.2746 7.44823C6.26143 7.44823 6.2488 7.45353 6.23958 7.46294C6.23036 7.47235 6.22531 7.48508 6.22558 7.49826C6.22558 7.52588 6.24798 7.54828 6.2756 7.54828C6.29347 7.54828 6.30999 7.53874 6.31892 7.52327C6.32786 7.50779 6.32786 7.48872 6.31892 7.47324C6.30999 7.45777 6.29347 7.44823 6.2756 7.44823" stroke="black" stroke-width="1.5" stroke-linecap="round" stroke-linejoin="round"/>
</svg>
