<svg width="24" height="24" viewBox="0 0 24 24" fill="none" xmlns="http://www.w3.org/2000/svg">
<path d="M8.99875 6.43673H20.0033" stroke="black" stroke-width="1.5" stroke-linecap="round" stroke-linejoin="round"/>
<path d="M20.0033 12.0002H10.9996" stroke="black" stroke-width="1.5" stroke-linecap="round" stroke-linejoin="round"/>
<path d="M13.0004 17.5637H20.0033" stroke="black" stroke-width="1.5" stroke-linecap="round" stroke-linejoin="round"/>
<path d="M4.49688 5.93652C4.22062 5.93652 3.99667 6.16047 3.99667 6.43673C3.99667 6.71299 4.22062 6.93694 4.49688 6.93694C4.77314 6.93694 4.99709 6.71299 4.99709 6.43673C4.99709 6.16047 4.77314 5.93652 4.49688 5.93652" stroke="black" stroke-width="1.5" stroke-linecap="round" stroke-linejoin="round"/>
<path d="M6.49771 11.5C6.22145 11.5 5.9975 11.724 5.9975 12.0002C5.9975 12.2765 6.22145 12.5004 6.49771 12.5004C6.77396 12.5004 6.99791 12.2765 6.99791 12.0002C6.99791 11.724 6.77396 11.5 6.49771 11.5" stroke="black" stroke-width="1.5" stroke-linecap="round" stroke-linejoin="round"/>
<path d="M8.49853 17.0635C8.22227 17.0635 7.99832 17.2874 7.99832 17.5637C7.99832 17.8399 8.22227 18.0639 8.49853 18.0639C8.77479 18.0639 8.99874 17.8399 8.99874 17.5637C8.99874 17.2874 8.77479 17.0635 8.49853 17.0635" stroke="black" stroke-width="1.5" stroke-linecap="round" stroke-linejoin="round"/>
</svg>
