<svg width="24" height="24" viewBox="0 0 24 24" fill="none" xmlns="http://www.w3.org/2000/svg">
<circle cx="7.49813" cy="7.49797" r="4.50187" stroke="black" stroke-width="1.5" stroke-linecap="round" stroke-linejoin="round"/>
<path d="M15.0013 9.99923H21.0038" stroke="black" stroke-width="1.5" stroke-linecap="round" stroke-linejoin="round"/>
<path d="M15.0013 4.99728H21.0038" stroke="black" stroke-width="1.5" stroke-linecap="round" stroke-linejoin="round"/>
<path d="M21.0037 15.0012H8.99875" stroke="black" stroke-width="1.5" stroke-linecap="round" stroke-linejoin="round"/>
<path d="M21.0037 20.0031H8.99875" stroke="black" stroke-width="1.5" stroke-linecap="round" stroke-linejoin="round"/>
<path d="M4.99708 15.0012C4.99708 15.1393 4.88511 15.2513 4.74698 15.2513C4.60885 15.2513 4.49687 15.1393 4.49687 15.0012C4.49687 14.8631 4.60885 14.7511 4.74698 14.7511C4.88511 14.7511 4.99708 14.8631 4.99708 15.0012" stroke="black" stroke-width="1.5" stroke-linecap="round" stroke-linejoin="round"/>
<path d="M4.99708 20.0031C4.99708 20.1413 4.88511 20.2532 4.74698 20.2532C4.60885 20.2532 4.49687 20.1413 4.49687 20.0031C4.49687 19.865 4.60885 19.753 4.74698 19.753C4.88511 19.753 4.99708 19.865 4.99708 20.0031" stroke="black" stroke-width="1.5" stroke-linecap="round" stroke-linejoin="round"/>
<path d="M8.69162 6.30469L6.30463 8.69168" stroke="black" stroke-width="1.5" stroke-linecap="round" stroke-linejoin="round"/>
<path d="M8.69162 8.69168L6.30463 6.30469" stroke="black" stroke-width="1.5" stroke-linecap="round" stroke-linejoin="round"/>
</svg>
