<svg width="24" height="24" viewBox="0 0 24 24" fill="none" xmlns="http://www.w3.org/2000/svg">
<path d="M21.0037 9.99901V16.5017C21.0037 18.988 18.9882 21.0036 16.5019 21.0036H7.49812C5.0118 21.0036 2.99625 18.988 2.99625 16.5017V7.49797C2.99625 5.01165 5.0118 2.99609 7.49812 2.99609H14.0008" stroke="black" stroke-width="1.5" stroke-linecap="round" stroke-linejoin="round"/>
<path d="M14.0008 7.99826H10.9996" stroke="black" stroke-width="1.5" stroke-linecap="round" stroke-linejoin="round"/>
<path d="M10.9996 12.0002H17.0021" stroke="black" stroke-width="1.5" stroke-linecap="round" stroke-linejoin="round"/>
<path d="M10.9996 16.0022H17.0021" stroke="black" stroke-width="1.5" stroke-linecap="round" stroke-linejoin="round"/>
<path d="M6.99789 15.7521C6.93132 15.7513 6.86723 15.7773 6.82015 15.8244C6.77307 15.8715 6.74698 15.9356 6.74779 16.0022C6.74779 16.1403 6.85977 16.2523 6.99789 16.2523C7.13603 16.2523 7.248 16.1403 7.248 16.0022C7.248 15.864 7.13603 15.7521 6.99789 15.7521" stroke="black" stroke-width="1.5" stroke-linecap="round" stroke-linejoin="round"/>
<path d="M6.99789 7.74816C6.93132 7.74735 6.86723 7.77344 6.82015 7.82052C6.77307 7.8676 6.74698 7.93169 6.74779 7.99826C6.74779 8.13639 6.85977 8.24837 6.99789 8.24837C7.13603 8.24837 7.248 8.13639 7.248 7.99826C7.248 7.86014 7.13603 7.74816 6.99789 7.74816" stroke="black" stroke-width="1.5" stroke-linecap="round" stroke-linejoin="round"/>
<path d="M6.99789 11.7501C6.93132 11.7493 6.86723 11.7754 6.82015 11.8225C6.77307 11.8696 6.74698 11.9336 6.74779 12.0002C6.74779 12.1383 6.85977 12.2503 6.99789 12.2503C7.13603 12.2503 7.248 12.1383 7.248 12.0002C7.248 11.8621 7.13603 11.7501 6.99789 11.7501" stroke="black" stroke-width="1.5" stroke-linecap="round" stroke-linejoin="round"/>
<circle cx="19.5031" cy="4.49714" r="2.50104" stroke="black" stroke-width="1.5" stroke-linecap="round" stroke-linejoin="round"/>
</svg>
