<svg width="24" height="24" viewBox="0 0 24 24" fill="none" xmlns="http://www.w3.org/2000/svg">
<path d="M14.2189 15.219C13.5509 15.7238 12.7372 15.9983 11.8999 16.0013C9.74487 15.998 7.99712 14.2547 7.98832 12.0997L7.99832 10.499L6.66476 11.8336" stroke="black" stroke-width="1.5" stroke-linecap="round" stroke-linejoin="round"/>
<path d="M17.3352 12.1658L16.0017 13.5003L16.0157 11.8997C16.0063 9.74329 14.2565 7.99968 12.1 7.99805C11.2622 8.00108 10.4478 8.27556 9.77908 8.78037" stroke="black" stroke-width="1.5" stroke-linecap="round" stroke-linejoin="round"/>
<path fill-rule="evenodd" clip-rule="evenodd" d="M16.0017 21.0036H7.99833C5.23576 21.0036 2.99625 18.7641 2.99625 16.0015V7.99818C2.99625 5.2356 5.23576 2.99609 7.99833 2.99609H16.0017C18.7642 2.99609 21.0037 5.2356 21.0037 7.99818V16.0015C21.0037 18.7641 18.7642 21.0036 16.0017 21.0036Z" stroke="black" stroke-width="1.5" stroke-linecap="round" stroke-linejoin="round"/>
</svg>
