<svg width="24" height="24" viewBox="0 0 24 24" fill="none" xmlns="http://www.w3.org/2000/svg">
<path d="M12 2.99609C16.9726 2.99609 21.0037 7.02721 21.0037 11.9998C21.0037 16.9725 16.9726 21.0036 12 21.0036" stroke="black" stroke-width="1.5" stroke-linecap="round" stroke-linejoin="round"/>
<path d="M12 5.99805C15.3151 5.99805 18.0025 8.68546 18.0025 12.0005C18.0025 15.3156 15.3151 18.003 12 18.003C8.68491 18.003 5.9975 15.3156 5.9975 12.0005C5.9975 8.68546 8.68491 5.99805 12 5.99805" stroke="black" stroke-width="1.5" stroke-linecap="round" stroke-linejoin="round"/>
<path d="M14.0008 11L11.4998 13.501L9.99916 12.0004" stroke="black" stroke-width="1.5" stroke-linecap="round" stroke-linejoin="round"/>
<path d="M8.92372 20.4522C7.93678 20.0948 7.01993 19.5677 6.21459 18.8945" stroke="black" stroke-width="1.5" stroke-linecap="round" stroke-linejoin="round"/>
<path d="M6.21459 5.1055C7.01945 4.43165 7.93643 3.90442 8.92372 3.54785" stroke="black" stroke-width="1.5" stroke-linecap="round" stroke-linejoin="round"/>
<path d="M3.14031 10.4373C3.32108 9.40253 3.6824 8.40764 4.20775 7.49805" stroke="black" stroke-width="1.5" stroke-linecap="round" stroke-linejoin="round"/>
<path d="M3.14031 13.5615C3.32097 14.5966 3.68229 15.5918 4.20775 16.5017" stroke="black" stroke-width="1.5" stroke-linecap="round" stroke-linejoin="round"/>
</svg>
