<svg width="24" height="24" viewBox="0 0 24 24" fill="none" xmlns="http://www.w3.org/2000/svg">
<path d="M6.49121 15.5758C7.27226 16.3568 7.27226 17.6232 6.49121 18.4042C5.71016 19.1853 4.44383 19.1853 3.66278 18.4042C2.88173 17.6232 2.88173 16.3568 3.66278 15.5758C4.44383 14.7947 5.71016 14.7947 6.49121 15.5758" stroke="black" stroke-width="1.5" stroke-linecap="round" stroke-linejoin="round"/>
<path d="M13.4142 3.58481C14.1952 4.36586 14.1952 5.63219 13.4142 6.41324C12.6331 7.19429 11.3668 7.19429 10.5858 6.41324C9.80472 5.63219 9.80472 4.36586 10.5858 3.58481C11.3668 2.80376 12.6331 2.80376 13.4142 3.58481" stroke="black" stroke-width="1.5" stroke-linecap="round" stroke-linejoin="round"/>
<path d="M20.3372 15.5748C21.1182 16.3558 21.1182 17.6222 20.3372 18.4032C19.5561 19.1843 18.2898 19.1843 17.5088 18.4032C16.7277 17.6222 16.7277 16.3559 17.5088 15.5748C18.2898 14.7938 19.5561 14.7938 20.3372 15.5748" stroke="black" stroke-width="1.5" stroke-linecap="round" stroke-linejoin="round"/>
<path d="M17.717 18.575C16.266 20.064 14.244 20.993 12 20.993C10.855 20.993 9.77 20.747 8.787 20.313" stroke="black" stroke-width="1.5" stroke-linecap="round" stroke-linejoin="round"/>
<path d="M4.298 15.147C3.738 13.149 3.946 10.938 5.066 8.99805C5.64 8.00305 6.399 7.18505 7.27 6.55005" stroke="black" stroke-width="1.5" stroke-linecap="round" stroke-linejoin="round"/>
<path d="M13.974 5.25195C15.99 5.76395 17.805 7.04995 18.928 8.99395C19.497 9.97895 19.826 11.034 19.945 12.096" stroke="black" stroke-width="1.5" stroke-linecap="round" stroke-linejoin="round"/>
</svg>
