<svg width="24" height="24" viewBox="0 0 24 24" fill="none" xmlns="http://www.w3.org/2000/svg">
<path fill-rule="evenodd" clip-rule="evenodd" d="M15.5003 12.0001H8.49973C7.89225 12.0005 7.34474 12.3666 7.11231 12.9278C6.87988 13.4891 7.00826 14.1351 7.43763 14.5648L9.43987 16.567C9.87061 16.9937 10.5156 17.1197 11.0753 16.8866C11.6349 16.6534 11.9996 16.1067 12 15.5004V8.49985C12.0003 7.89237 12.3664 7.34486 12.9277 7.11243C13.489 6.88 14.1349 7.00838 14.5647 7.43775L16.5669 9.43999C16.9936 9.87073 17.1196 10.5157 16.8864 11.0754C16.6533 11.6351 16.1066 11.9998 15.5003 12.0001Z" stroke="black" stroke-width="1.5" stroke-linecap="round" stroke-linejoin="round"/>
<circle cx="12" cy="11.9998" r="9.00375" stroke="black" stroke-width="1.5" stroke-linecap="round" stroke-linejoin="round"/>
</svg>
