<svg width="24" height="24" viewBox="0 0 24 24" fill="none" xmlns="http://www.w3.org/2000/svg">
<circle cx="12" cy="12" r="9" stroke="black" stroke-width="1.5" stroke-linecap="round" stroke-linejoin="round"/>
<path d="M12 3V3C14.254 3 16.124 4.742 16.285 6.99V6.993C16.414 8.798 15.398 10.49 13.745 11.225L10.255 12.776C8.602 13.511 7.586 15.203 7.715 17.008V17.011C7.876 19.258 9.746 21 12 21V21" stroke="black" stroke-width="1.5" stroke-linecap="round" stroke-linejoin="round"/>
<path d="M4.20599 7.5V7.5C5.33299 5.548 7.77699 4.799 9.80399 5.784L9.80699 5.785C11.434 6.576 12.392 8.301 12.202 10.101L11.8 13.899C11.61 15.698 12.567 17.424 14.195 18.215L14.198 18.216C16.225 19.201 18.669 18.452 19.796 16.5V16.5" stroke="black" stroke-width="1.5" stroke-linecap="round" stroke-linejoin="round"/>
<path d="M4.20601 16.5V16.5C3.07901 14.548 3.65201 12.057 5.51901 10.794L5.52101 10.792C7.02001 9.77802 8.99301 9.81202 10.456 10.876L13.544 13.123C15.007 14.187 16.98 14.221 18.479 13.207L18.481 13.205C20.348 11.942 20.921 9.45102 19.794 7.49902V7.49902" stroke="black" stroke-width="1.5" stroke-linecap="round" stroke-linejoin="round"/>
</svg>
