<svg width="24" height="24" viewBox="0 0 24 24" fill="none" xmlns="http://www.w3.org/2000/svg">
<path d="M17.8845 5.19727C20.7316 7.65393 21.7502 11.6224 20.4382 15.1466C19.1262 18.6708 15.7605 21.0071 12 21.0039V21.0039C9.38625 21.0048 6.90207 19.8657 5.19717 17.8846" stroke="black" stroke-width="1.5" stroke-linecap="round" stroke-linejoin="round"/>
<path d="M3.31739 14.3509C2.46205 11.2389 3.34327 7.90733 5.62536 5.62524C7.90745 3.34315 11.239 2.46193 14.351 3.31727" stroke="black" stroke-width="1.5" stroke-linecap="round" stroke-linejoin="round"/>
<path d="M17.4683 14.4672C18.6654 11.8201 17.799 8.69575 15.4096 7.04327C13.0202 5.39079 9.79112 5.68274 7.73687 7.73699C5.68262 9.79124 5.39066 13.0203 7.04314 15.4097C8.69563 17.7991 11.82 18.6655 14.467 17.4684" stroke="black" stroke-width="1.5" stroke-linecap="round" stroke-linejoin="round"/>
</svg>
