<svg width="24" height="24" viewBox="0 0 24 24" fill="none" xmlns="http://www.w3.org/2000/svg">
<path fill-rule="evenodd" clip-rule="evenodd" d="M15.8476 12.0004H8.1524C7.48462 12.0008 6.88275 12.4032 6.62725 13.0202C6.37175 13.6371 6.5129 14.3472 6.98491 14.8196L9.18583 17.0205C9.65929 17.4896 10.3683 17.6282 10.9835 17.3718C11.5988 17.1155 11.9997 16.5145 12 15.848V8.15282C12.0003 7.48505 12.4028 6.88318 13.0197 6.62768C13.6367 6.37218 14.3468 6.51332 14.8192 6.98534L17.0201 9.18625C17.4892 9.65972 17.6277 10.3687 17.3714 10.984C17.1151 11.5992 16.5141 12.0001 15.8476 12.0004V12.0004Z" stroke="black" stroke-width="1.5" stroke-linecap="round" stroke-linejoin="round"/>
<rect x="2.99625" y="2.99609" width="18.0075" height="18.0075" rx="5" stroke="black" stroke-width="1.5" stroke-linecap="round" stroke-linejoin="round"/>
</svg>
