<svg width="24" height="24" viewBox="0 0 24 24" fill="none" xmlns="http://www.w3.org/2000/svg">
<path d="M14.0002 9.17039V7.03516" stroke="black" stroke-width="1.5" stroke-linecap="round" stroke-linejoin="round"/>
<path d="M16.1354 7.03516H14.0002" stroke="black" stroke-width="1.5" stroke-linecap="round" stroke-linejoin="round"/>
<path d="M14.1069 7.52148C16.2555 8.53978 17.3844 10.9351 16.802 13.2404C16.2196 15.5457 14.0886 17.1175 11.7142 16.9932C9.33972 16.8688 7.38451 15.083 7.0461 12.7295" stroke="black" stroke-width="1.5" stroke-linecap="round" stroke-linejoin="round"/>
<path d="M11.31 7.03522C11.31 7.06281 11.2876 7.08517 11.26 7.08516C11.2324 7.08515 11.21 7.06277 11.21 7.03518C11.21 7.00758 11.2323 6.98519 11.2599 6.98516C11.2732 6.98514 11.286 6.99041 11.2954 6.9998C11.3047 7.00919 11.31 7.02193 11.31 7.03522" stroke="black" stroke-width="1.5" stroke-linecap="round" stroke-linejoin="round"/>
<path d="M8.99679 7.92486C8.99676 7.95246 8.97437 7.97481 8.94677 7.9748C8.91917 7.9748 8.8968 7.95243 8.89679 7.92483C8.89677 7.89723 8.91912 7.87484 8.94672 7.8748C8.96 7.87479 8.97275 7.88005 8.98214 7.88945C8.99153 7.89884 8.9968 7.91158 8.99679 7.92486" stroke="black" stroke-width="1.5" stroke-linecap="round" stroke-linejoin="round"/>
<path d="M7.39536 9.88288C7.39532 9.91048 7.37293 9.93283 7.34533 9.93281C7.31774 9.9328 7.29537 9.91043 7.29536 9.88283C7.29535 9.85523 7.3177 9.83285 7.3453 9.83281C7.35858 9.8328 7.37133 9.83807 7.38072 9.84746C7.39011 9.85685 7.39538 9.8696 7.39536 9.88288" stroke="black" stroke-width="1.5" stroke-linecap="round" stroke-linejoin="round"/>
<circle cx="12" cy="12" r="9.5" stroke="black" stroke-width="1.5" stroke-linecap="round" stroke-linejoin="round"/>
</svg>
