<svg width="24" height="24" viewBox="0 0 24 24" fill="none" xmlns="http://www.w3.org/2000/svg">
<path d="M15.0147 3.73923C15.9004 4.62494 15.9004 6.06096 15.0147 6.94667C14.129 7.83238 12.693 7.83238 11.8073 6.94667C10.9215 6.06096 10.9215 4.62494 11.8073 3.73923C12.693 2.85352 14.129 2.85352 15.0147 3.73923" stroke="black" stroke-width="1.5123"/>
<path d="M20.2617 10.2953C21.3247 11.3583 21.3247 13.0818 20.2617 14.1448C19.1987 15.2078 17.4752 15.2078 16.4122 14.1448C15.3492 13.0818 15.3492 11.3583 16.4122 10.2953C17.4752 9.23229 19.1987 9.23229 20.2617 10.2953" stroke="black" stroke-width="1.5123"/>
<path d="M6.56336 15.3496C7.09486 15.8811 7.09486 16.7428 6.56336 17.2743C6.03185 17.8058 5.17012 17.8058 4.63862 17.2743C4.10711 16.7428 4.10711 15.8811 4.63862 15.3496C5.17012 14.8181 6.03186 14.8181 6.56336 15.3496" stroke="black" stroke-width="1.5123"/>
<path d="M6.99739 7.08849C7.70619 7.79729 7.70619 8.94649 6.99739 9.65529C6.28859 10.3641 5.13939 10.3641 4.43059 9.65529C3.72179 8.94648 3.72179 7.79729 4.43059 7.08849C5.13939 6.37968 6.28859 6.37968 6.99739 7.08849" stroke="black" stroke-width="1.5123"/>
<path d="M11.995 20.1669C11.745 20.1669 11.542 20.3699 11.543 20.6199C11.543 20.8699 11.746 21.0729 11.996 21.0729C12.246 21.0729 12.449 20.8699 12.449 20.6199C12.45 20.3699 12.247 20.1669 11.995 20.1669" stroke="black" stroke-width="1.5" stroke-linecap="round" stroke-linejoin="round"/>
</svg>
