<svg width="24" height="24" viewBox="0 0 24 24" fill="none" xmlns="http://www.w3.org/2000/svg">
<path d="M18.364 5.63601C21.879 9.15101 21.879 14.849 18.364 18.364C14.849 21.879 9.151 21.879 5.636 18.364C2.121 14.849 2.121 9.15101 5.636 5.63601C9.151 2.12101 14.849 2.12101 18.364 5.63601" stroke="black" stroke-width="1.5" stroke-linecap="round" stroke-linejoin="round"/>
<path d="M4.206 16.5V16.5C3.079 14.547 3.652 12.058 5.518 10.794L5.52 10.792C7.019 9.779 8.992 9.813 10.456 10.877L13.545 13.123C15.008 14.187 16.981 14.221 18.481 13.208L18.483 13.206C20.35 11.942 20.924 9.451 19.795 7.5V7.5" stroke="black" stroke-width="1.5" stroke-linecap="round" stroke-linejoin="round"/>
<path d="M16.502 19.794V19.794C14.549 20.921 12.06 20.348 10.796 18.482L10.794 18.48C9.781 16.981 9.815 15.008 10.879 13.544L13.125 10.455C14.189 8.99197 14.223 7.01897 13.21 5.51897L13.206 5.51697C11.942 3.65197 9.451 3.07697 7.5 4.20597V4.20597" stroke="black" stroke-width="1.5" stroke-linecap="round" stroke-linejoin="round"/>
</svg>
