<svg width="24" height="24" viewBox="0 0 24 24" fill="none" xmlns="http://www.w3.org/2000/svg">
<path fill-rule="evenodd" clip-rule="evenodd" d="M15.311 21.445C16.5 21.026 17.585 20.388 18.52 19.58C19.032 19.138 18.929 18.312 18.344 17.973L15.503 16.333C14.836 15.948 14.002 16.429 14.002 17.2V20.49C14.002 21.169 14.67 21.671 15.311 21.445Z" stroke="black" stroke-width="1.5" stroke-linecap="round" stroke-linejoin="round"/>
<path fill-rule="evenodd" clip-rule="evenodd" d="M8.69 2.55489C7.5 2.97289 6.415 3.61189 5.48 4.41989C4.968 4.86189 5.071 5.68789 5.657 6.02589L8.498 7.66589C9.164 8.05189 9.998 7.56989 9.998 6.79989V3.50989C9.998 2.83089 9.33 2.32889 8.69 2.55489Z" stroke="black" stroke-width="1.5" stroke-linecap="round" stroke-linejoin="round"/>
<path fill-rule="evenodd" clip-rule="evenodd" d="M21.835 13.8561C22.067 12.6171 22.056 11.3581 21.824 10.1441C21.697 9.47911 20.93 9.15511 20.344 9.49411L17.503 11.1341C16.836 11.5191 16.836 12.4821 17.503 12.8671L20.352 14.5121C20.941 14.8511 21.71 14.5231 21.835 13.8561Z" stroke="black" stroke-width="1.5" stroke-linecap="round" stroke-linejoin="round"/>
<path fill-rule="evenodd" clip-rule="evenodd" d="M2.165 10.144C1.933 11.383 1.944 12.642 2.176 13.856C2.303 14.521 3.07 14.845 3.656 14.506L6.497 12.866C7.164 12.481 7.164 11.518 6.497 11.133L3.647 9.48797C3.059 9.14897 2.29 9.47697 2.165 10.144Z" stroke="black" stroke-width="1.5" stroke-linecap="round" stroke-linejoin="round"/>
<path fill-rule="evenodd" clip-rule="evenodd" d="M18.525 4.41C17.568 3.589 16.472 2.969 15.305 2.563C14.666 2.341 14.002 2.843 14.002 3.519V6.799C14.002 7.569 14.836 8.051 15.503 7.666L18.352 6.021C18.94 5.682 19.04 4.852 18.525 4.41V4.41Z" stroke="black" stroke-width="1.5" stroke-linecap="round" stroke-linejoin="round"/>
<path fill-rule="evenodd" clip-rule="evenodd" d="M5.475 19.5901C6.432 20.4111 7.528 21.0311 8.695 21.4371C9.334 21.6591 9.998 21.1571 9.998 20.4811V17.2011C9.998 16.4311 9.164 15.9491 8.497 16.3341L5.648 17.9791C5.06 18.3181 4.96 19.1481 5.475 19.5901V19.5901Z" stroke="black" stroke-width="1.5" stroke-linecap="round" stroke-linejoin="round"/>
</svg>
