<svg width="24" height="24" viewBox="0 0 24 24" fill="none" xmlns="http://www.w3.org/2000/svg">
<rect x="8.74863" y="11" width="6.50271" height="4.50187" rx="1" stroke="black" stroke-width="1.5" stroke-linecap="round" stroke-linejoin="round"/>
<path d="M10.2493 10.9995V9.24878C10.2493 8.28188 11.0331 7.49805 12 7.49805V7.49805C12.9669 7.49805 13.7507 8.28188 13.7507 9.24878V10.9995" stroke="black" stroke-width="1.5" stroke-linecap="round" stroke-linejoin="round"/>
<path d="M16.0016 2.99609C18.7642 2.99609 21.0037 5.2356 21.0037 7.99818" stroke="black" stroke-width="1.5" stroke-linecap="round" stroke-linejoin="round"/>
<path d="M16.0016 5.99805C17.1067 5.99805 18.0025 6.89385 18.0025 7.99888" stroke="black" stroke-width="1.5" stroke-linecap="round" stroke-linejoin="round"/>
<path d="M12 2.99609H7.99833C5.23576 2.99609 2.99625 5.2356 2.99625 7.99818V16.0015C2.99625 18.7641 5.23576 21.0036 7.99833 21.0036H16.0017C18.7642 21.0036 21.0037 18.7641 21.0037 16.0015V11.9998" stroke="black" stroke-width="1.5" stroke-linecap="round" stroke-linejoin="round"/>
</svg>
