<svg width="24" height="24" viewBox="0 0 24 24" fill="none" xmlns="http://www.w3.org/2000/svg">
<path d="M10.316 10.75V9.434C10.316 8.504 11.07 7.75 12 7.75C12.93 7.75 13.684 8.504 13.684 9.434V10.75" stroke="black" stroke-width="1.5" stroke-linecap="round" stroke-linejoin="round"/>
<path fill-rule="evenodd" clip-rule="evenodd" d="M14 15.75H10C9.448 15.75 9 15.302 9 14.75V11.75C9 11.198 9.448 10.75 10 10.75H14C14.552 10.75 15 11.198 15 11.75V14.75C15 15.302 14.552 15.75 14 15.75Z" stroke="black" stroke-width="1.5" stroke-linecap="round" stroke-linejoin="round"/>
<path d="M3.839 4.76489V7.49789H6.573" stroke="black" stroke-width="1.5" stroke-linecap="round" stroke-linejoin="round"/>
<path d="M19.794 7.505C18.237 4.814 15.334 3 12.002 3C8.673 3 5.773 4.812 4.215 7.499" stroke="black" stroke-width="1.5" stroke-linecap="round" stroke-linejoin="round"/>
<path d="M20.925 10.874C21.168 12.758 20.824 14.732 19.8 16.505C18.134 19.391 15.111 20.997 12.002 21L11.996 20.995C8.887 20.992 5.864 19.386 4.198 16.5C3.175 14.729 2.832 12.756 3.073 10.874" stroke="black" stroke-width="1.5" stroke-linecap="round" stroke-linejoin="round"/>
</svg>
