<svg width="24" height="24" viewBox="0 0 24 24" fill="none" xmlns="http://www.w3.org/2000/svg">
<path fill-rule="evenodd" clip-rule="evenodd" d="M10 10.697H14C14.55 10.697 15 11.147 15 11.697V14.75C15 15.302 14.552 15.75 14 15.75H10C9.448 15.75 9 15.302 9 14.75V11.697C9 11.145 9.448 10.697 10 10.697Z" stroke="black" stroke-width="1.5" stroke-linecap="round" stroke-linejoin="round"/>
<path d="M10.316 10.697V9.434C10.316 8.504 11.07 7.75 12 7.75C12.93 7.75 13.684 8.504 13.684 9.434V10.695" stroke="black" stroke-width="1.5" stroke-linecap="round" stroke-linejoin="round"/>
<path fill-rule="evenodd" clip-rule="evenodd" d="M10.476 20.8749C16.635 21.8849 21.885 16.6359 20.875 10.4759C20.263 6.7459 17.255 3.7369 13.525 3.1249C7.36501 2.1139 2.11501 7.3649 3.12601 13.5239C3.73701 17.2549 6.74601 20.2629 10.476 20.8749Z" stroke="black" stroke-width="1.5" stroke-linecap="round" stroke-linejoin="round"/>
</svg>
