<svg width="24" height="24" viewBox="0 0 24 24" fill="none" xmlns="http://www.w3.org/2000/svg">
<path d="M13.0004 20.9416C12.6685 20.9827 12.3344 21.0036 12 21.0036C7.02737 21.0036 2.99625 16.9725 2.99625 11.9998C2.99625 7.02721 7.02737 2.99609 12 2.99609C16.9726 2.99609 21.0037 7.02721 21.0037 11.9998C21.0037 12.3343 20.9829 12.6684 20.9417 13.0003" stroke="black" stroke-width="1.5" stroke-linecap="round" stroke-linejoin="round"/>
<path d="M20.0033 17.002L17.5023 19.503L16.0017 18.0024" stroke="black" stroke-width="1.5" stroke-linecap="round" stroke-linejoin="round"/>
<rect x="8.99875" y="11.3701" width="6.0025" height="4.20175" rx="1.2" stroke="black" stroke-width="1.5" stroke-linecap="round" stroke-linejoin="round"/>
<path d="M10.1993 11.3699V10.2295C10.1993 9.23493 11.0055 8.42871 12 8.42871V8.42871C12.9945 8.42871 13.8008 9.23493 13.8008 10.2295V10.2295V11.3699" stroke="black" stroke-width="1.5" stroke-linecap="round" stroke-linejoin="round"/>
</svg>
