<svg width="24" height="24" viewBox="0 0 24 24" fill="none" xmlns="http://www.w3.org/2000/svg">
<path d="M13.723 13V11.723C13.723 10.819 12.952 10 12 10C11.048 10 10.277 10.771 10.277 11.723V13" stroke="black" stroke-width="1.5" stroke-linecap="round" stroke-linejoin="round"/>
<path fill-rule="evenodd" clip-rule="evenodd" d="M14.026 17H9.974C9.436 17 9 16.564 9 16.026V13.974C9 13.436 9.436 13 9.974 13H14.026C14.564 13 15 13.436 15 13.974V16.026C15 16.564 14.564 17 14.026 17Z" stroke="black" stroke-width="1.5" stroke-linecap="round" stroke-linejoin="round"/>
<path fill-rule="evenodd" clip-rule="evenodd" d="M15.106 5.42591L20.536 15.0779C21.873 17.4539 20.156 20.3919 17.429 20.3919H6.571C3.843 20.3919 2.127 17.4559 3.464 15.0779L8.894 5.42591C10.254 3.00191 13.743 3.00191 15.106 5.42591Z" stroke="black" stroke-width="1.5" stroke-linecap="round" stroke-linejoin="round"/>
</svg>
