<svg width="24" height="24" viewBox="0 0 24 24" fill="none" xmlns="http://www.w3.org/2000/svg">
<path fill-rule="evenodd" clip-rule="evenodd" d="M18 20.9861H6C4.343 20.9861 3 19.6431 3 17.9861V5.98608C3 4.32908 4.343 2.98608 6 2.98608H18C19.657 2.98608 21 4.32908 21 5.98608V17.9861C21 19.6431 19.657 20.9861 18 20.9861Z" stroke="black" stroke-width="1.5" stroke-linecap="round" stroke-linejoin="round"/>
<path d="M13.4142 9.08579C14.1953 9.86684 14.1953 11.1332 13.4142 11.9142C12.6332 12.6953 11.3668 12.6953 10.5858 11.9142C9.80472 11.1332 9.80472 9.86684 10.5858 9.08579C11.3668 8.30474 12.6332 8.30474 13.4142 9.08579" stroke="black" stroke-width="1.5" stroke-linecap="round" stroke-linejoin="round"/>
<path d="M12 15.5V12.5" stroke="black" stroke-width="1.5" stroke-linecap="round" stroke-linejoin="round"/>
</svg>
