<svg width="24" height="24" viewBox="0 0 24 24" fill="none" xmlns="http://www.w3.org/2000/svg">
<path fill-rule="evenodd" clip-rule="evenodd" d="M17.0021 21.004H6.9979C5.89244 21.004 4.99707 20.1087 4.99707 19.0032V10.9999C4.99707 9.8944 5.89244 8.99902 6.9979 8.99902H17.0021C18.1075 8.99902 19.0029 9.8944 19.0029 10.9999V19.0032C19.0029 20.1087 18.1075 21.004 17.0021 21.004Z" stroke="black" stroke-width="1.5" stroke-linecap="round" stroke-linejoin="round"/>
<path d="M16.0017 8.99908V6.99825C16.0017 4.78833 14.2099 2.99658 12 2.99658C10.1292 2.99658 8.57057 4.28612 8.13239 6.02084" stroke="black" stroke-width="1.5" stroke-linecap="round" stroke-linejoin="round"/>
<path d="M11.997 14.5015C11.7219 14.5015 11.4968 14.7266 11.4998 15.0017C11.4998 15.2768 11.7249 15.5019 12 15.5019C12.2751 15.5019 12.5002 15.2768 12.5002 15.0017C12.5002 14.7266 12.2751 14.5015 11.997 14.5015" stroke="black" stroke-width="1.5" stroke-linecap="round" stroke-linejoin="round"/>
</svg>
