<svg width="24" height="24" viewBox="0 0 24 24" fill="none" xmlns="http://www.w3.org/2000/svg">
<path fill-rule="evenodd" clip-rule="evenodd" d="M10 10.697H14C14.55 10.697 15 11.147 15 11.697V14.75C15 15.302 14.552 15.75 14 15.75H10C9.448 15.75 9 15.302 9 14.75V11.697C9 11.145 9.448 10.697 10 10.697Z" stroke="black" stroke-width="1.5" stroke-linecap="round" stroke-linejoin="round"/>
<path d="M10.316 10.697V9.434C10.316 8.504 11.07 7.75 12 7.75C12.93 7.75 13.684 8.504 13.684 9.434V10.695" stroke="black" stroke-width="1.5" stroke-linecap="round" stroke-linejoin="round"/>
<path fill-rule="evenodd" clip-rule="evenodd" d="M18 21H6C4.343 21 3 19.657 3 18V6C3 4.343 4.343 3 6 3H18C19.657 3 21 4.343 21 6V18C21 19.657 19.657 21 18 21Z" stroke="black" stroke-width="1.5" stroke-linecap="round" stroke-linejoin="round"/>
</svg>
