<svg width="24" height="24" viewBox="0 0 24 24" fill="none" xmlns="http://www.w3.org/2000/svg">
<path d="M13.0004 21.0036H6.99792C5.89289 21.0036 4.99709 20.1078 4.99709 19.0028V11.9999C4.99709 10.8948 5.89289 9.99902 6.99792 9.99902H17.0021C18.1071 9.99902 19.0029 10.8948 19.0029 11.9999V13.0003" stroke="black" stroke-width="1.5" stroke-linecap="round" stroke-linejoin="round"/>
<path fill-rule="evenodd" clip-rule="evenodd" d="M15.0013 17.9211V16.5884C15.0013 16.3149 15.179 16.0732 15.44 15.9916L17.3158 15.4054C17.4372 15.3675 17.5674 15.3675 17.6888 15.4054L19.5646 15.9916C19.8256 16.0732 20.0033 16.3149 20.0033 16.5884V17.9211C20.0033 19.2243 19.1949 20.3908 17.9747 20.8484L17.6121 20.9844C17.5413 21.0109 17.4633 21.0109 17.3925 20.9844L17.0298 20.8484C15.8096 20.3908 15.0013 19.2243 15.0013 17.9211Z" stroke="black" stroke-width="1.5" stroke-linecap="round" stroke-linejoin="round"/>
<path d="M7.99834 9.99901V6.99776V6.99776C7.99834 4.7877 9.78994 2.99609 12 2.99609V2.99609C14.2101 2.99609 16.0017 4.7877 16.0017 6.99776V6.99776V9.99901" stroke="black" stroke-width="1.5" stroke-linecap="round" stroke-linejoin="round"/>
</svg>
