<svg width="24" height="24" viewBox="0 0 24 24" fill="none" xmlns="http://www.w3.org/2000/svg">
<path fill-rule="evenodd" clip-rule="evenodd" d="M17.0021 21.0036H6.9979C5.89287 21.0036 4.99707 20.1078 4.99707 19.0028V11.9999C4.99707 10.8948 5.89287 9.99902 6.9979 9.99902H17.0021C18.1071 9.99902 19.0029 10.8948 19.0029 11.9999V19.0028C19.0029 20.1078 18.1071 21.0036 17.0021 21.0036Z" stroke="black" stroke-width="1.5" stroke-linecap="round" stroke-linejoin="round"/>
<path d="M7.99832 9.99901V6.99776V6.99776C7.99832 4.7877 9.78993 2.99609 12 2.99609V2.99609C14.21 2.99609 16.0017 4.7877 16.0017 6.99776V6.99776V9.99901" stroke="black" stroke-width="1.5" stroke-linecap="round" stroke-linejoin="round"/>
<path d="M10.3153 15.4322C10.2772 15.4322 10.2463 15.4631 10.2463 15.5012C10.2463 15.5393 10.2772 15.5702 10.3153 15.5702C10.3534 15.5702 10.3843 15.5393 10.3843 15.5012C10.3843 15.4829 10.3771 15.4653 10.3641 15.4524C10.3512 15.4394 10.3336 15.4322 10.3153 15.4322" stroke="black" stroke-width="1.5" stroke-linecap="round" stroke-linejoin="round"/>
<path d="M13.6157 15.5012C13.6157 15.5393 13.6466 15.5702 13.6847 15.5702C13.7228 15.5702 13.7537 15.5393 13.7537 15.5012C13.7537 15.4631 13.7228 15.4322 13.6847 15.4322C13.6664 15.4322 13.6488 15.4394 13.6359 15.4524C13.6229 15.4653 13.6157 15.4829 13.6157 15.5012" stroke="black" stroke-width="1.5" stroke-linecap="round" stroke-linejoin="round"/>
</svg>
