<svg width="24" height="24" viewBox="0 0 24 24" fill="none" xmlns="http://www.w3.org/2000/svg">
<path d="M17.925 5.23706C19.388 6.52006 20.435 8.26506 20.827 10.2501" stroke="black" stroke-width="1.5" stroke-linecap="round" stroke-linejoin="round"/>
<path d="M6.075 18.763C4.612 17.48 3.565 15.735 3.173 13.75" stroke="black" stroke-width="1.5" stroke-linecap="round" stroke-linejoin="round"/>
<path d="M14.896 20.5151C13.986 20.8251 13.014 21.0001 12 21.0001C10.986 21.0001 10.014 20.8251 9.104 20.5151" stroke="black" stroke-width="1.5" stroke-linecap="round" stroke-linejoin="round"/>
<path d="M14.896 3.48493C13.986 3.17493 13.014 2.99993 12 2.99993C10.986 2.99993 10.014 3.17493 9.104 3.48493" stroke="black" stroke-width="1.5" stroke-linecap="round" stroke-linejoin="round"/>
<path d="M17.925 18.763C19.388 17.48 20.435 15.735 20.827 13.75" stroke="black" stroke-width="1.5" stroke-linecap="round" stroke-linejoin="round"/>
<path d="M3.173 10.2501C3.564 8.26506 4.611 6.52106 6.075 5.23706" stroke="black" stroke-width="1.5" stroke-linecap="round" stroke-linejoin="round"/>
<path d="M10.316 10.75V9.434C10.316 8.504 11.07 7.75 12 7.75C12.93 7.75 13.684 8.504 13.684 9.434V10.75" stroke="black" stroke-width="1.5" stroke-linecap="round" stroke-linejoin="round"/>
<path fill-rule="evenodd" clip-rule="evenodd" d="M14 15.75H10C9.448 15.75 9 15.302 9 14.75V11.75C9 11.198 9.448 10.75 10 10.75H14C14.552 10.75 15 11.198 15 11.75V14.75C15 15.302 14.552 15.75 14 15.75Z" stroke="black" stroke-width="1.5" stroke-linecap="round" stroke-linejoin="round"/>
</svg>
