<svg width="24" height="24" viewBox="0 0 24 24" fill="none" xmlns="http://www.w3.org/2000/svg">
<path d="M17.5023 4.99728H20.5035" stroke="black" stroke-width="1.5" stroke-linecap="round" stroke-linejoin="round"/>
<path d="M19.0029 6.49783V3.49658" stroke="black" stroke-width="1.5" stroke-linecap="round" stroke-linejoin="round"/>
<path d="M19.0029 8.99894C16.793 8.99894 15.0013 7.20719 15.0013 4.99727C15.0013 2.78735 16.793 0.995605 19.0029 0.995605C21.2128 0.995605 23.0046 2.78735 23.0046 4.99727C23.0046 7.20719 21.2128 8.99894 19.0029 8.99894" stroke="black" stroke-width="1.5" stroke-linecap="round" stroke-linejoin="round"/>
<path d="M15.0072 4.76239C13.9368 4.27619 12.7523 3.99707 11.4998 3.99707C6.80383 3.99707 2.99625 7.80466 2.99625 12.5006C2.99625 17.1966 6.80383 21.0042 11.4998 21.0042C16.1957 21.0042 20.0033 17.1966 20.0033 12.5006C20.0033 11.2481 19.7242 10.0636 19.238 8.99315" stroke="black" stroke-width="1.5" stroke-linecap="round" stroke-linejoin="round"/>
<path fill-rule="evenodd" clip-rule="evenodd" d="M9.61 11.269H13.3896C13.9088 11.269 14.334 11.6942 14.334 12.2134V15.0976C14.334 15.6189 13.9108 16.042 13.3896 16.042H9.61C9.08878 16.042 8.66561 15.6189 8.66561 15.0976V12.2134C8.66461 11.6932 9.08778 11.269 9.61 11.269Z" stroke="black" stroke-width="1.5" stroke-linecap="round" stroke-linejoin="round"/>
<path d="M9.90813 11.269V10.0755C9.90813 9.19716 10.6204 8.48486 11.4988 8.48486C12.3772 8.48486 13.0895 9.19716 13.0895 10.0755V11.267" stroke="black" stroke-width="1.5" stroke-linecap="round" stroke-linejoin="round"/>
</svg>
