<svg width="24" height="24" viewBox="0 0 24 24" fill="none" xmlns="http://www.w3.org/2000/svg">
<path d="M13.969 6.429V4.969C13.969 3.936 13.088 3 12 3C10.912 3 10.031 3.881 10.031 4.969V6.428" stroke="black" stroke-width="1.5" stroke-linecap="round" stroke-linejoin="round"/>
<path fill-rule="evenodd" clip-rule="evenodd" d="M14.315 11H9.685C9.07 11 8.572 10.502 8.572 9.88696V7.54196C8.572 6.92696 9.07 6.42896 9.685 6.42896H14.316C14.931 6.42896 15.429 6.92696 15.429 7.54196V9.88696C15.429 10.502 14.93 11 14.315 11V11Z" stroke="black" stroke-width="1.5" stroke-linecap="round" stroke-linejoin="round"/>
<path fill-rule="evenodd" clip-rule="evenodd" d="M18.5 21H5.5C3.567 21 2 19.433 2 17.5V17.5C2 15.567 3.567 14 5.5 14H18.5C20.433 14 22 15.567 22 17.5V17.5C22 19.433 20.433 21 18.5 21Z" stroke="black" stroke-width="1.5" stroke-linecap="round" stroke-linejoin="round"/>
<path d="M18.244 17.499C18.244 17.364 18.135 17.255 18 17.256C17.865 17.256 17.756 17.365 17.756 17.5C17.756 17.635 17.865 17.744 18 17.744C18.135 17.744 18.244 17.635 18.244 17.499" stroke="black" stroke-width="1.625" stroke-linecap="round" stroke-linejoin="round"/>
<path d="M14.244 17.499C14.244 17.364 14.135 17.255 14 17.256C13.865 17.256 13.756 17.365 13.756 17.5C13.756 17.635 13.865 17.744 14 17.744C14.134 17.744 14.244 17.635 14.244 17.499" stroke="black" stroke-width="1.625" stroke-linecap="round" stroke-linejoin="round"/>
<path d="M10.244 17.499C10.244 17.364 10.135 17.255 10 17.256C9.865 17.256 9.756 17.365 9.756 17.5C9.756 17.635 9.865 17.744 10 17.744C10.134 17.744 10.244 17.635 10.244 17.499" stroke="black" stroke-width="1.625" stroke-linecap="round" stroke-linejoin="round"/>
<path d="M6.244 17.499C6.244 17.364 6.135 17.255 6 17.256C5.865 17.256 5.756 17.365 5.756 17.5C5.756 17.635 5.865 17.744 6 17.744C6.134 17.744 6.244 17.635 6.244 17.499" stroke="black" stroke-width="1.625" stroke-linecap="round" stroke-linejoin="round"/>
</svg>
