<svg width="24" height="24" viewBox="0 0 24 24" fill="none" xmlns="http://www.w3.org/2000/svg">
<rect x="2.99625" y="2.99658" width="18.0075" height="18.0075" rx="5" stroke="black" stroke-width="1.5" stroke-linecap="round" stroke-linejoin="round"/>
<path fill-rule="evenodd" clip-rule="evenodd" d="M10.6114 13.1454C9.38605 12.5059 8.75589 11.1122 9.08511 9.76978C9.41433 8.42738 10.6178 7.4834 12 7.4834C13.3822 7.4834 14.5856 8.42738 14.9149 9.76978C15.2441 11.1122 14.6139 12.5059 13.3886 13.1454L14.2889 15.8465C14.3406 15.9994 14.3153 16.1678 14.221 16.2987C14.1268 16.4297 13.9751 16.5072 13.8137 16.5068H10.1882C10.0269 16.5072 9.8752 16.4297 9.78094 16.2987C9.68668 16.1678 9.66139 15.9994 9.71303 15.8465L10.6114 13.1454Z" stroke="black" stroke-width="1.5" stroke-linecap="round" stroke-linejoin="round"/>
</svg>
