<svg width="24" height="24" viewBox="0 0 24 24" fill="none" xmlns="http://www.w3.org/2000/svg">
<path fill-rule="evenodd" clip-rule="evenodd" d="M10 10.697H14C14.55 10.697 15 11.147 15 11.697V14.75C15 15.302 14.552 15.75 14 15.75H10C9.448 15.75 9 15.302 9 14.75V11.697C9 11.145 9.448 10.697 10 10.697Z" stroke="black" stroke-width="1.5" stroke-linecap="round" stroke-linejoin="round"/>
<path d="M10.316 10.697V9.434C10.316 8.504 11.07 7.75 12 7.75C12.93 7.75 13.684 8.504 13.684 9.434V10.695" stroke="black" stroke-width="1.5" stroke-linecap="round" stroke-linejoin="round"/>
<path fill-rule="evenodd" clip-rule="evenodd" d="M3.11099 14.469V9.531C3.11099 7.949 3.95199 6.486 5.31999 5.69L9.76399 3.103C11.146 2.299 12.853 2.299 14.235 3.103L18.68 5.69C20.048 6.486 20.889 7.949 20.889 9.531V14.469C20.889 16.051 20.048 17.514 18.68 18.31L14.236 20.897C12.854 21.701 11.147 21.701 9.76499 20.897L5.31999 18.31C3.95199 17.514 3.11099 16.051 3.11099 14.469Z" stroke="black" stroke-width="1.5" stroke-linecap="round" stroke-linejoin="round"/>
</svg>
