<svg width="24" height="24" viewBox="0 0 24 24" fill="none" xmlns="http://www.w3.org/2000/svg">
<path d="M8.211 9.21906V7.00306C8.211 4.95106 9.748 3.11206 11.797 3.00506C13.982 2.89106 15.79 4.62906 15.79 6.78906V9.21906" stroke="black" stroke-width="1.5" stroke-linecap="round" stroke-linejoin="round"/>
<path d="M16.5962 9.90381C19.1346 12.4422 19.1346 16.5578 16.5962 19.0962C14.0578 21.6346 9.94222 21.6346 7.40381 19.0962C4.8654 16.5578 4.8654 12.4422 7.40381 9.90381C9.94222 7.3654 14.0578 7.3654 16.5962 9.90381" stroke="black" stroke-width="1.5" stroke-linecap="round" stroke-linejoin="round"/>
<path d="M12 16.5V13.95" stroke="black" stroke-width="1.5" stroke-linecap="round" stroke-linejoin="round"/>
<path d="M11.997 12.4309C11.583 12.4309 11.247 12.7669 11.25 13.1809C11.25 13.5949 11.586 13.9309 12 13.9309C12.414 13.9309 12.75 13.5949 12.75 13.1809C12.75 12.7669 12.414 12.4309 11.997 12.4309" stroke="black" stroke-width="1.5" stroke-linecap="round" stroke-linejoin="round"/>
</svg>
