<svg width="24" height="24" viewBox="0 0 24 24" fill="none" xmlns="http://www.w3.org/2000/svg">
<path fill-rule="evenodd" clip-rule="evenodd" d="M17.0021 21.0036H6.99792C6.46722 21.0038 5.95822 20.793 5.58296 20.4177C5.20769 20.0425 4.99694 19.5335 4.99709 19.0028V11.9999C4.99694 11.4692 5.20769 10.9602 5.58296 10.5849C5.95822 10.2096 6.46722 9.99888 6.99792 9.99902H17.0021C17.5328 9.99888 18.0418 10.2096 18.417 10.5849C18.7923 10.9602 19.0031 11.4692 19.0029 11.9999V19.0028C19.0031 19.5335 18.7923 20.0425 18.417 20.4177C18.0418 20.793 17.5328 21.0038 17.0021 21.0036V21.0036Z" stroke="black" stroke-width="1.5" stroke-linecap="round" stroke-linejoin="round"/>
<path d="M12.0366 15.4645C12.0515 15.4793 12.0559 15.5016 12.0479 15.521C12.0399 15.5404 12.0209 15.553 12 15.553C11.979 15.553 11.9601 15.5404 11.952 15.521C11.944 15.5016 11.9485 15.4793 11.9633 15.4645V15.4645C11.9835 15.4443 12.0163 15.4443 12.0366 15.4645" stroke="black" stroke-width="1.5" stroke-linecap="round" stroke-linejoin="round"/>
<path d="M15.4384 17.0022V14.001" stroke="black" stroke-width="1.5" stroke-linecap="round" stroke-linejoin="round"/>
<path d="M7.99832 9.99901V6.99776V6.99776C7.99842 4.78774 9.78997 2.99619 12 2.99609V2.99609C14.21 2.99619 16.0016 4.78774 16.0017 6.99776V6.99776V9.99901" stroke="black" stroke-width="1.5" stroke-linecap="round" stroke-linejoin="round"/>
<path d="M8.5982 15.4645C8.61304 15.4793 8.61747 15.5016 8.60945 15.521C8.60142 15.5404 8.58251 15.553 8.56153 15.553C8.54056 15.553 8.52165 15.5404 8.51362 15.521C8.50559 15.5016 8.51003 15.4793 8.52486 15.4645V15.4645C8.54511 15.4443 8.57791 15.4443 8.59815 15.4645" stroke="black" stroke-width="1.5" stroke-linecap="round" stroke-linejoin="round"/>
</svg>
