<svg width="24" height="24" viewBox="0 0 24 24" fill="none" xmlns="http://www.w3.org/2000/svg">
<circle cx="12" cy="12.0001" r="9.50396" stroke="black" stroke-width="1.5" stroke-linecap="round" stroke-linejoin="round"/>
<path fill-rule="evenodd" clip-rule="evenodd" d="M13.3926 13.1495C14.5509 12.5485 15.1855 11.2656 14.9602 9.9802C14.7201 8.59385 13.5491 7.56044 12.1436 7.49454C10.7382 7.42863 9.47559 8.34792 9.10674 9.70571C8.7379 11.0635 9.3618 12.4953 10.6074 13.1495L9.70704 15.8416C9.65535 15.9947 9.68075 16.1633 9.77525 16.2943C9.86974 16.4253 10.0217 16.5027 10.1832 16.5019H13.8088C13.9703 16.5027 14.1223 16.4253 14.2167 16.2943C14.3112 16.1633 14.3366 15.9947 14.285 15.8416L13.3926 13.1495Z" stroke="black" stroke-width="1.5" stroke-linecap="round" stroke-linejoin="round"/>
</svg>
