<svg width="24" height="24" viewBox="0 0 24 24" fill="none" xmlns="http://www.w3.org/2000/svg">
<path fill-rule="evenodd" clip-rule="evenodd" d="M10.018 11H13.982C14.544 11 15 11.443 15 11.99V15.011C15 15.558 14.544 16.001 13.982 16.001H10.018C9.456 16 9 15.557 9 15.01V11.99C9 11.443 9.456 11 10.018 11V11Z" stroke="black" stroke-width="1.5" stroke-linecap="round" stroke-linejoin="round"/>
<path d="M10.316 11V9.684C10.316 8.754 11.07 8 12 8C12.93 8 13.684 8.754 13.684 9.684V11" stroke="black" stroke-width="1.5" stroke-linecap="round" stroke-linejoin="round"/>
<path d="M6.332 19.1949C7.892 20.4259 9.858 21.1659 12 21.1659C17.063 21.1659 21.167 17.0619 21.167 11.9989C21.167 10.6549 20.871 9.38193 20.351 8.23193L18.417 10.1659" stroke="black" stroke-width="1.5" stroke-linecap="round" stroke-linejoin="round"/>
<path d="M17.668 4.80501C16.107 3.57401 14.142 2.83301 12 2.83301C6.937 2.83301 2.833 6.93701 2.833 12C2.833 13.344 3.129 14.617 3.649 15.767L5.583 13.833" stroke="black" stroke-width="1.5" stroke-linecap="round" stroke-linejoin="round"/>
</svg>
