<svg width="24" height="24" viewBox="0 0 24 24" fill="none" xmlns="http://www.w3.org/2000/svg">
<path d="M16.0017 21.5036L14.0008 19.5028L16.0017 17.502" stroke="black" stroke-width="1.5" stroke-linecap="round" stroke-linejoin="round"/>
<path d="M20.0033 19.5031H14.0008" stroke="black" stroke-width="1.5" stroke-linecap="round" stroke-linejoin="round"/>
<path d="M20.0616 15.5052C21.7684 12.0697 21.1105 7.93005 18.4228 5.19298C15.735 2.45591 11.608 1.72288 8.14202 3.36696C4.67609 5.01103 2.63285 8.67096 3.05218 12.4841C3.47151 16.2972 6.26127 19.4256 10.0017 20.2772" stroke="black" stroke-width="1.5" stroke-linecap="round" stroke-linejoin="round"/>
<rect x="8.99875" y="10.6895" width="6.0025" height="4.20175" rx="1.2" stroke="black" stroke-width="1.5" stroke-linecap="round" stroke-linejoin="round"/>
<path d="M10.1992 10.6893V9.5488C10.1992 9.07121 10.389 8.61318 10.7267 8.27547C11.0644 7.93777 11.5224 7.74805 12 7.74805V7.74805C12.4776 7.74805 12.9356 7.93777 13.2733 8.27547C13.611 8.61318 13.8007 9.07121 13.8007 9.5488V9.5488V10.6893" stroke="black" stroke-width="1.5" stroke-linecap="round" stroke-linejoin="round"/>
</svg>
