<svg width="24" height="24" viewBox="0 0 24 24" fill="none" xmlns="http://www.w3.org/2000/svg">
<path fill-rule="evenodd" clip-rule="evenodd" d="M12 19.0002C11.9998 19.7274 11.605 20.3973 10.9688 20.7497C10.3326 21.102 9.55535 21.0814 8.93873 20.6959L4.93707 18.1948C4.35182 17.8294 3.99635 17.1881 3.99667 16.4981V4.99974C3.99677 4.27243 4.3915 3.60244 5.02764 3.24986C5.66378 2.89728 6.44114 2.91764 7.05795 3.30304L11.0596 5.80408C11.6449 6.16948 12.0003 6.81083 12 7.50078V19.0002Z" stroke="black" stroke-width="1.5" stroke-linecap="round" stroke-linejoin="round"/>
<path d="M20.0033 9.54199L17.0881 12.4572" stroke="black" stroke-width="1.5" stroke-linecap="round" stroke-linejoin="round"/>
<path d="M20.0033 12.4572L17.0881 9.54199" stroke="black" stroke-width="1.5" stroke-linecap="round" stroke-linejoin="round"/>
<path d="M19.0029 5.99734V4.99693C19.0031 4.46623 18.7923 3.95722 18.417 3.58196C18.0418 3.2067 17.5328 2.99595 17.0021 2.99609H5.9975" stroke="black" stroke-width="1.5" stroke-linecap="round" stroke-linejoin="round"/>
<path d="M12 19.0032H17.0021C17.5328 19.0033 18.0418 18.7926 18.417 18.4173C18.7923 18.0421 19.0031 17.5331 19.0029 17.0024V16.002" stroke="black" stroke-width="1.5" stroke-linecap="round" stroke-linejoin="round"/>
</svg>
