<svg width="24" height="24" viewBox="0 0 24 24" fill="none" xmlns="http://www.w3.org/2000/svg">
<path d="M11.617 14.408L13.117 15.908L11.617 17.408" stroke="black" stroke-width="1.5" stroke-linecap="round" stroke-linejoin="round"/>
<path d="M9.59801 11.6169L8.09801 13.1169L6.59801 11.6169" stroke="black" stroke-width="1.5" stroke-linecap="round" stroke-linejoin="round"/>
<path d="M8.36901 15.643C8.93801 19.362 10.35 22 12.005 22C14.163 22 15.913 17.523 15.913 12C15.913 6.477 14.163 2 12.005 2C9.84701 2 8.09801 6.477 8.09801 12V13.117" stroke="black" stroke-width="1.5" stroke-linecap="round" stroke-linejoin="round"/>
<path d="M13.117 15.908H12C6.477 15.908 2 14.158 2 12C2 9.84204 6.477 8.09204 12 8.09204C17.523 8.09204 22 9.84204 22 12C22 13.655 19.362 15.067 15.643 15.636" stroke="black" stroke-width="1.5" stroke-linecap="round" stroke-linejoin="round"/>
</svg>
