<svg width="24" height="24" viewBox="0 0 24 24" fill="none" xmlns="http://www.w3.org/2000/svg">
<path d="M10 9.056C9.094 7.818 7.652 7 6 7V7C3.239 7 1 9.239 1 12V12C1 14.761 3.239 17 6 17V17V17C7.861 17 9.586 16.023 10.543 14.428L12 12L13.457 9.572C14.414 7.977 16.139 7 18 7V7V7C20.761 7 23 9.239 23 12V12C23 14.761 20.761 17 18 17V17C16.348 17 14.906 16.182 14 14.944" stroke="black" stroke-width="1.5" stroke-linecap="round" stroke-linejoin="round"/>
<path d="M9.92999 6.02808L10.451 8.98208L7.49699 9.50308" stroke="black" stroke-width="1.5" stroke-linecap="round" stroke-linejoin="round"/>
</svg>
