<svg width="24" height="24" viewBox="0 0 24 24" fill="none" xmlns="http://www.w3.org/2000/svg">
<path d="M13.579 10.4211C14.451 11.2932 14.451 12.707 13.579 13.5791C12.707 14.4511 11.2931 14.4511 10.4211 13.5791C9.54902 12.707 9.54902 11.2932 10.4211 10.4211C11.2931 9.54908 12.707 9.54908 13.579 10.4211" stroke="black" stroke-width="1.5" stroke-linecap="round" stroke-linejoin="round"/>
<path d="M14.609 16.842C16.33 15.913 17.5 14.093 17.5 12C17.5 9.90696 16.33 8.08696 14.609 7.15796" stroke="black" stroke-width="1.5" stroke-linecap="round" stroke-linejoin="round"/>
<path d="M9.391 7.15796C7.67 8.08696 6.5 9.90696 6.5 12C6.5 14.093 7.67 15.913 9.391 16.842" stroke="black" stroke-width="1.5" stroke-linecap="round" stroke-linejoin="round"/>
<path d="M17.145 19.3781C19.474 17.7511 21 15.0561 21 12.0001C21 8.94407 19.474 6.24907 17.145 4.62207" stroke="black" stroke-width="1.5" stroke-linecap="round" stroke-linejoin="round"/>
<path d="M6.855 4.62207C4.526 6.24907 3 8.94407 3 12.0001C3 15.0561 4.526 17.7511 6.855 19.3781" stroke="black" stroke-width="1.5" stroke-linecap="round" stroke-linejoin="round"/>
</svg>
