<svg width="24" height="24" viewBox="0 0 24 24" fill="none" xmlns="http://www.w3.org/2000/svg">
<path fill-rule="evenodd" clip-rule="evenodd" d="M10.9996 5.99742C11.5523 5.44533 12.4477 5.44533 13.0004 5.99742C12.4483 5.44472 12.4483 4.54928 13.0004 3.99658C12.4477 4.54866 11.5523 4.54866 10.9996 3.99658C11.5517 4.54928 11.5517 5.44472 10.9996 5.99742Z" stroke="black" stroke-width="1.5" stroke-linecap="round" stroke-linejoin="round"/>
<path fill-rule="evenodd" clip-rule="evenodd" d="M18.0025 5.99742C18.5552 5.44533 19.4506 5.44533 20.0033 5.99742C19.4513 5.44472 19.4513 4.54928 20.0033 3.99658C19.4506 4.54866 18.5552 4.54866 18.0025 3.99658C18.5546 4.54928 18.5546 5.44472 18.0025 5.99742Z" stroke="black" stroke-width="1.5" stroke-linecap="round" stroke-linejoin="round"/>
<path fill-rule="evenodd" clip-rule="evenodd" d="M12.001 9.87658C12.5868 9.29079 13.537 9.29123 14.1228 9.87702C14.7086 10.4628 14.709 11.413 14.1232 11.9988L6.55881 19.5632C5.97302 20.149 5.02283 20.1485 4.43705 19.5628C3.85126 18.977 3.85082 18.0268 4.4366 17.441L12.001 9.87658Z" stroke="black" stroke-width="1.5" stroke-linecap="round" stroke-linejoin="round"/>
<path fill-rule="evenodd" clip-rule="evenodd" d="M18.0025 13.0003C18.5552 12.4483 19.4506 12.4483 20.0033 13.0003C19.4513 12.4477 19.4513 11.5522 20.0033 10.9995C19.4506 11.5516 18.5552 11.5516 18.0025 10.9995C18.5546 11.5522 18.5546 12.4477 18.0025 13.0003Z" stroke="black" stroke-width="1.5" stroke-linecap="round" stroke-linejoin="round"/>
</svg>
