<svg width="24" height="24" viewBox="0 0 24 24" fill="none" xmlns="http://www.w3.org/2000/svg">
<path fill-rule="evenodd" clip-rule="evenodd" d="M14.0008 12.0001V7.99846C14.0008 7.44595 14.4487 6.99805 15.0013 6.99805H16.0017C16.5542 6.99805 17.0021 7.44595 17.0021 7.99846V12.0001C17.0021 14.7627 14.7626 17.0022 12 17.0022V17.0022C9.23743 17.0022 6.99792 14.7627 6.99792 12.0001V7.99846C6.99792 7.44595 7.44583 6.99805 7.99834 6.99805H8.99876C9.55127 6.99805 9.99917 7.44595 9.99917 7.99846V12.0001C9.99917 13.1052 10.895 14.001 12 14.001V14.001C13.105 14.001 14.0008 13.1052 14.0008 12.0001Z" stroke="black" stroke-width="1.5" stroke-linecap="round" stroke-linejoin="round"/>
<path d="M17.0021 10.4997H14.0008" stroke="black" stroke-width="1.5" stroke-linecap="round" stroke-linejoin="round"/>
<path d="M9.99917 10.4997H6.99792" stroke="black" stroke-width="1.5" stroke-linecap="round" stroke-linejoin="round"/>
<rect x="2.99625" y="2.99658" width="18.0075" height="18.0075" rx="4" stroke="black" stroke-width="1.5" stroke-linecap="round" stroke-linejoin="round"/>
</svg>
