<svg width="24" height="24" viewBox="0 0 24 24" fill="none" xmlns="http://www.w3.org/2000/svg">
<circle cx="17.5023" cy="6.49776" r="4.00167" stroke="black" stroke-width="1.5" stroke-linecap="round" stroke-linejoin="round"/>
<path d="M18.8362 5.83105L17.1697 7.49838L16.1684 6.49796" stroke="black" stroke-width="1.5" stroke-linecap="round" stroke-linejoin="round"/>
<path d="M20.5035 12.4998V18.5023C20.5035 20.1599 19.1598 21.5036 17.5023 21.5036H5.49728C3.83974 21.5036 2.49603 20.1599 2.49603 18.5023V6.49734C2.49603 4.8398 3.83974 3.49609 5.49728 3.49609H11.4998" stroke="black" stroke-width="1.5" stroke-linecap="round" stroke-linejoin="round"/>
<path d="M2.49603 15.502H6.87986C7.25846 15.502 7.60462 15.7157 7.77423 16.0542L8.22142 16.9496C8.39091 17.2887 8.73761 17.503 9.11679 17.5028H13.8818C14.261 17.503 14.6077 17.2887 14.7771 16.9496L15.2243 16.0552C15.3938 15.716 15.7405 15.5018 16.1197 15.502H20.5035" stroke="black" stroke-width="1.5" stroke-linecap="round" stroke-linejoin="round"/>
</svg>
