<svg width="24" height="24" viewBox="0 0 24 24" fill="none" xmlns="http://www.w3.org/2000/svg">
<path d="M12 11.0001V3.31836" stroke="black" stroke-width="1.5" stroke-linecap="round" stroke-linejoin="round"/>
<path fill-rule="evenodd" clip-rule="evenodd" d="M12 10.9993L15.0013 7.99805L12 10.9993Z" stroke="black" stroke-width="1.5" stroke-linecap="round" stroke-linejoin="round"/>
<path d="M2.99625 15.001H7.38008C7.75868 15.001 8.10484 15.2147 8.27445 15.5532L8.72164 16.4486C8.89113 16.7878 9.23783 17.002 9.61701 17.0018H14.382C14.7612 17.002 15.1079 16.7878 15.2774 16.4486L15.7246 15.5542C15.8941 15.215 16.2407 15.0008 16.6199 15.001H21.0038" stroke="black" stroke-width="1.5" stroke-linecap="round" stroke-linejoin="round"/>
<path d="M15.0013 2.99609H18.0025C19.66 2.99609 21.0038 4.3398 21.0038 5.99734V18.0023C21.0038 19.6599 19.66 21.0036 18.0025 21.0036H5.9975C4.33996 21.0036 2.99625 19.6599 2.99625 18.0023V5.99734C2.99625 4.3398 4.33996 2.99609 5.9975 2.99609H8.99875" stroke="black" stroke-width="1.5" stroke-linecap="round" stroke-linejoin="round"/>
<path fill-rule="evenodd" clip-rule="evenodd" d="M8.99875 7.99805L12 10.9993L8.99875 7.99805Z" stroke="black" stroke-width="1.5" stroke-linecap="round" stroke-linejoin="round"/>
</svg>
