<svg width="24" height="24" viewBox="0 0 24 24" fill="none" xmlns="http://www.w3.org/2000/svg">
<path d="M21.0038 12.0003V19.0032C21.0038 20.1087 20.1084 21.0041 19.0029 21.0041H4.99709C3.89163 21.0041 2.99625 20.1087 2.99625 19.0032V4.99742C2.99625 3.89195 3.89163 2.99658 4.99709 2.99658H12" stroke="black" stroke-width="1.5" stroke-linecap="round" stroke-linejoin="round"/>
<path d="M2.99625 15.0015H7.38008C7.75924 15.0015 8.10538 15.2156 8.27445 15.5547L8.72164 16.4491C8.89171 16.7882 9.23785 17.0023 9.61701 17.0023H14.383C14.7622 17.0023 15.1083 16.7882 15.2774 16.4491L15.7246 15.5547C15.8946 15.2156 16.2408 15.0015 16.6199 15.0015H21.0038" stroke="black" stroke-width="1.5" stroke-linecap="round" stroke-linejoin="round"/>
<path fill-rule="evenodd" clip-rule="evenodd" d="M22.0042 5.49755C22.0042 7.43536 20.4405 8.99901 18.5027 8.99901C16.5649 8.99901 15.0013 7.43536 15.0013 5.49755C15.0013 3.55975 16.5649 1.99609 18.5027 1.99609C20.4405 1.99609 22.0042 3.55975 22.0042 5.49755Z" stroke="black" stroke-width="1.5" stroke-linecap="round" stroke-linejoin="round"/>
<path d="M16.0277 7.97252L20.9777 3.02246" stroke="black" stroke-width="1.5" stroke-linecap="round" stroke-linejoin="round"/>
</svg>
