<svg width="24" height="24" viewBox="0 0 24 24" fill="none" xmlns="http://www.w3.org/2000/svg">
<path d="M14.88 10.5734L12.96 8.6534L14.88 6.7334" stroke="black" stroke-width="1.5" stroke-linecap="round" stroke-linejoin="round"/>
<path d="M20.64 11.5333V18.2533C20.64 19.3141 19.7808 20.1733 18.72 20.1733H5.28C4.2192 20.1733 3.36 19.3141 3.36 18.2533V4.81331C3.36 3.75251 4.2192 2.89331 5.28 2.89331H17.76C19.3507 2.89331 20.64 4.18259 20.64 5.77331V5.77331C20.64 7.36403 19.3507 8.65331 17.76 8.65331H12.96" stroke="black" stroke-width="1.5" stroke-linecap="round" stroke-linejoin="round"/>
<path d="M3.36 14.4133H7.56672C7.93056 14.4133 8.26272 14.6188 8.42496 14.9442L8.85408 15.8025C9.01728 16.1279 9.34944 16.3333 9.71328 16.3333H14.2867C14.6506 16.3333 14.9827 16.1279 15.145 15.8025L15.5741 14.9442C15.7373 14.6188 16.0694 14.4133 16.4333 14.4133H20.64" stroke="black" stroke-width="1.5" stroke-linecap="round" stroke-linejoin="round"/>
</svg>
