<svg width="24" height="24" viewBox="0 0 24 24" fill="none" xmlns="http://www.w3.org/2000/svg">
<path d="M21.0037 11.9998V18.0023C21.0037 19.6599 19.66 21.0036 18.0025 21.0036H5.9975C4.33995 21.0036 2.99625 19.6599 2.99625 18.0023V5.99734C2.99625 4.3398 4.33995 2.99609 5.9975 2.99609H12" stroke="black" stroke-width="1.5" stroke-linecap="round" stroke-linejoin="round"/>
<path d="M2.99625 15.001H7.38007C7.75867 15.001 8.10483 15.2147 8.27444 15.5532L8.72163 16.4486C8.89113 16.7878 9.23782 17.002 9.617 17.0018H14.382C14.7612 17.002 15.1079 16.7878 15.2774 16.4486L15.7245 15.5542C15.894 15.215 16.2407 15.0008 16.6199 15.001H21.0037" stroke="black" stroke-width="1.5" stroke-linecap="round" stroke-linejoin="round"/>
<path d="M18.0025 1.99609C20.2125 1.99609 22.0042 3.7877 22.0042 5.99776C22.0042 8.20782 20.2125 9.99943 18.0025 9.99943C15.7924 9.99943 14.0008 8.20782 14.0008 5.99776C14.0008 3.7877 15.7924 1.99609 18.0025 1.99609" stroke="black" stroke-width="1.5" stroke-linecap="round" stroke-linejoin="round"/>
<path d="M16.752 5.99728H19.253" stroke="black" stroke-width="1.5" stroke-linecap="round" stroke-linejoin="round"/>
<path d="M18.0025 4.74707V7.24811" stroke="black" stroke-width="1.5" stroke-linecap="round" stroke-linejoin="round"/>
</svg>
