<svg width="24" height="24" viewBox="0 0 24 24" fill="none" xmlns="http://www.w3.org/2000/svg">
<path d="M21.0037 10.9994V18.0023C21.0037 19.6599 19.66 21.0036 18.0025 21.0036H5.9975C4.33995 21.0036 2.99625 19.6599 2.99625 18.0023V5.99734C2.99625 4.3398 4.33995 2.99609 5.9975 2.99609H12" stroke="black" stroke-width="1.5" stroke-linecap="round" stroke-linejoin="round"/>
<path d="M2.99625 15.001H7.38007C7.75867 15.001 8.10483 15.2147 8.27444 15.5532L8.72163 16.4486C8.89113 16.7878 9.23782 17.002 9.617 17.0018H14.382C14.7612 17.002 15.1079 16.7878 15.2774 16.4486L15.7245 15.5542C15.894 15.215 16.2407 15.0008 16.6199 15.001H21.0037" stroke="black" stroke-width="1.5" stroke-linecap="round" stroke-linejoin="round"/>
<path fill-rule="evenodd" clip-rule="evenodd" d="M16.1397 5.07422C13.8582 5.33262 12.1337 7.26195 12.132 9.55808V9.8432C13.1237 8.6486 14.5874 7.94636 16.1397 7.9204V9.42703C16.1396 9.6458 16.2645 9.84539 16.4613 9.94101C16.6581 10.0366 16.8921 10.0115 17.0641 9.87622L20.7937 6.92999C20.9085 6.83972 20.9828 6.70748 21 6.56241C21.0173 6.41735 20.9762 6.27138 20.8857 6.15667C20.8586 6.12259 20.8277 6.09171 20.7937 6.06463L17.0641 3.1194C16.8925 2.98342 16.6582 2.95771 16.4612 3.05323C16.2642 3.14875 16.1392 3.34864 16.1397 3.56759V5.07422Z" stroke="black" stroke-width="1.5" stroke-linecap="round" stroke-linejoin="round"/>
</svg>
