<svg width="24" height="24" viewBox="0 0 24 24" fill="none" xmlns="http://www.w3.org/2000/svg">
<path d="M21.0037 11.9998V18.0023C21.0037 19.6599 19.66 21.0036 18.0025 21.0036H5.9975C4.33996 21.0036 2.99625 19.6599 2.99625 18.0023V5.99734C2.99625 4.3398 4.33996 2.99609 5.9975 2.99609H12" stroke="black" stroke-width="1.5" stroke-linecap="round" stroke-linejoin="round"/>
<path d="M2.99625 15.001H7.38008C7.75868 15.001 8.10484 15.2147 8.27445 15.5532L8.72163 16.4486C8.89113 16.7878 9.23782 17.002 9.61701 17.0018H14.382C14.7612 17.002 15.1079 16.7878 15.2774 16.4486L15.7246 15.5542C15.894 15.215 16.2407 15.0008 16.6199 15.001H21.0037" stroke="black" stroke-width="1.5" stroke-linecap="round" stroke-linejoin="round"/>
<path d="M18.0025 1.99609C20.2126 1.99609 22.0042 3.7877 22.0042 5.99776C22.0042 8.20782 20.2126 9.99943 18.0025 9.99943C15.7924 9.99943 14.0008 8.20782 14.0008 5.99776C14.0008 3.7877 15.7924 1.99609 18.0025 1.99609" stroke="black" stroke-width="1.5" stroke-linecap="round" stroke-linejoin="round"/>
<path d="M19.336 5.95327C19.3243 5.95299 19.3129 5.95754 19.3046 5.96585C19.2963 5.97417 19.2918 5.98553 19.292 5.99728V5.99728C19.292 6.0216 19.3117 6.0413 19.336 6.0413C19.3604 6.0413 19.3801 6.0216 19.3801 5.99728C19.3801 5.97297 19.3604 5.95327 19.336 5.95327V5.95327" stroke="black" stroke-width="1.5" stroke-linecap="round" stroke-linejoin="round"/>
<path d="M16.6689 5.95327C16.6572 5.95299 16.6458 5.95754 16.6375 5.96585C16.6292 5.97417 16.6247 5.98553 16.6249 5.99728V5.99728C16.6249 6.0216 16.6446 6.0413 16.6689 6.0413C16.6933 6.0413 16.713 6.0216 16.713 5.99728C16.713 5.97297 16.6933 5.95327 16.6689 5.95327" stroke="black" stroke-width="1.5" stroke-linecap="round" stroke-linejoin="round"/>
</svg>
