<svg width="24" height="24" viewBox="0 0 24 24" fill="none" xmlns="http://www.w3.org/2000/svg">
<path d="M21.0037 12.0003V19.0032C21.0037 20.1087 20.1084 21.0041 19.0029 21.0041H4.99708C3.89162 21.0041 2.99625 20.1087 2.99625 19.0032V4.99742C2.99625 3.89195 3.89162 2.99658 4.99708 2.99658H12" stroke="black" stroke-width="1.5" stroke-linecap="round" stroke-linejoin="round"/>
<path d="M2.99625 15.0015H7.38008C7.75923 15.0015 8.10538 15.2156 8.27445 15.5547L8.72163 16.4491C8.89171 16.7882 9.23785 17.0023 9.61701 17.0023H14.383C14.7622 17.0023 15.1083 16.7882 15.2774 16.4491L15.7246 15.5547C15.8946 15.2156 16.2408 15.0015 16.6199 15.0015H21.0037" stroke="black" stroke-width="1.5" stroke-linecap="round" stroke-linejoin="round"/>
<path d="M14.5691 5.56543L12 8.1345L14.5691 10.7036" stroke="black" stroke-width="1.5" stroke-linecap="round" stroke-linejoin="round"/>
<path d="M17.1501 2.99658H18.4347C19.8543 2.99658 21.0037 4.14606 21.0037 5.56565V5.56565C21.0037 6.98524 19.8543 8.13472 18.4347 8.13472H12.013" stroke="black" stroke-width="1.5" stroke-linecap="round" stroke-linejoin="round"/>
</svg>
