<svg width="24" height="24" viewBox="0 0 24 24" fill="none" xmlns="http://www.w3.org/2000/svg">
<path d="M2.99625 11.9998V7.99818C2.99625 5.2356 5.23576 2.99609 7.99833 2.99609H16.0017C18.7642 2.99609 21.0037 5.2356 21.0037 7.99818V16.0015C21.0037 18.7641 18.7642 21.0036 16.0017 21.0036H12" stroke="black" stroke-width="1.5" stroke-linecap="round" stroke-linejoin="round"/>
<path d="M5.49729 22.0039C4.07997 22.0047 2.8018 21.1514 2.25906 19.8421C1.71631 18.5328 2.01593 17.0255 3.01813 16.0233C4.02033 15.0211 5.52766 14.7215 6.83695 15.2642C8.14624 15.807 8.99953 17.0851 8.99875 18.5025C8.99584 20.435 7.42989 22.001 5.49729 22.0039" stroke="black" stroke-width="1.5" stroke-linecap="round" stroke-linejoin="round"/>
<path d="M16.9649 7.98926L13.376 11.5782V11.5782C12.6163 12.3379 11.3846 12.3379 10.6249 11.5782V11.5782L7.03592 7.98926" stroke="black" stroke-width="1.5" stroke-linecap="round" stroke-linejoin="round"/>
<path d="M6.49771 11.8549V9.35337C6.49771 8.24834 7.39351 7.35254 8.49854 7.35254H15.5015C16.6065 7.35254 17.5023 8.24834 17.5023 9.35337V14.3555C17.5023 15.4605 16.6065 16.3563 15.5015 16.3563H12" stroke="black" stroke-width="1.5" stroke-linecap="round" stroke-linejoin="round"/>
</svg>
