<svg width="24" height="24" viewBox="0 0 24 24" fill="none" xmlns="http://www.w3.org/2000/svg">
<path fill-rule="evenodd" clip-rule="evenodd" d="M13.6087 13.6011L14.1249 13.0859C14.3581 12.852 14.6749 12.7206 15.0053 12.7207H16.6239C16.9676 12.7207 17.2462 12.9993 17.2462 13.343V15.755C17.247 16.0856 17.1162 16.4029 16.8827 16.6369C16.6493 16.871 16.3323 17.0025 16.0017 17.0025H7.99833C7.311 17.0025 6.75381 16.4453 6.75381 15.758V13.346C6.75381 13.0023 7.03241 12.7237 7.37607 12.7237H8.99875C9.32908 12.7236 9.64587 12.855 9.87912 13.0889L10.3953 13.6041C10.6285 13.8375 10.9448 13.9689 11.2747 13.9692H12.7333C13.0623 13.967 13.377 13.8347 13.6087 13.6011Z" stroke="black" stroke-width="1.5" stroke-linecap="round" stroke-linejoin="round"/>
<path d="M17.0021 6.99826H7.04494" stroke="black" stroke-width="1.5" stroke-linecap="round" stroke-linejoin="round"/>
<path d="M16.9551 9.99923H6.99791" stroke="black" stroke-width="1.5" stroke-linecap="round" stroke-linejoin="round"/>
<rect x="2.99625" y="2.99609" width="18.0075" height="18.0075" rx="5" stroke="black" stroke-width="1.5" stroke-linecap="round" stroke-linejoin="round"/>
</svg>
