<svg width="24" height="24" viewBox="0 0 24 24" fill="none" xmlns="http://www.w3.org/2000/svg">
<path d="M12.9724 6.49805L11.0276 8.44286" stroke="black" stroke-width="1.5" stroke-linecap="round" stroke-linejoin="round"/>
<path d="M11.0276 6.49805L12.9724 8.44286" stroke="black" stroke-width="1.5" stroke-linecap="round" stroke-linejoin="round"/>
<path d="M8.99875 11.5002H15.0012" stroke="black" stroke-width="1.5" stroke-linecap="round" stroke-linejoin="round"/>
<path d="M4.99707 14.0007V4.99693C4.99707 3.8919 5.89287 2.99609 6.9979 2.99609H17.0021C18.1071 2.99609 19.0029 3.8919 19.0029 4.99693V14.0007" stroke="black" stroke-width="1.5" stroke-linecap="round" stroke-linejoin="round"/>
<path fill-rule="evenodd" clip-rule="evenodd" d="M2.99625 19.0031V15.5016C2.99625 14.6728 3.6681 14.001 4.49687 14.001H6.37665C6.77437 14.0011 7.15578 14.159 7.4371 14.4402L8.4135 15.4166C8.78856 15.7912 9.29697 16.0017 9.82709 16.0018H14.1719C14.7029 16.002 15.2121 15.7911 15.5875 15.4156L16.4168 14.5862C16.7919 14.2116 17.3003 14.0011 17.8304 14.001H19.5031C20.3319 14.001 21.0037 14.6728 21.0037 15.5016V19.0031C21.0037 20.1081 20.1079 21.0039 19.0029 21.0039H4.99708C3.89205 21.0039 2.99625 20.1081 2.99625 19.0031Z" stroke="black" stroke-width="1.5" stroke-linecap="round" stroke-linejoin="round"/>
</svg>
