<svg width="24" height="24" viewBox="0 0 24 24" fill="none" xmlns="http://www.w3.org/2000/svg">
<path fill-rule="evenodd" clip-rule="evenodd" d="M13.2685 12.2911L13.7027 11.8569C13.8992 11.6602 14.1659 11.5497 14.444 11.5498H15.9777C16.1168 11.5495 16.2503 11.6047 16.3486 11.7031C16.447 11.8014 16.5021 11.9349 16.5019 12.074V14.1009C16.5019 14.6794 16.0329 15.1483 15.4544 15.1483H8.54556C7.96708 15.1483 7.49812 14.6794 7.49812 14.1009V12.074C7.49786 11.9349 7.553 11.8014 7.65137 11.7031C7.74974 11.6047 7.88323 11.5495 8.02234 11.5498H9.38491C9.66299 11.5497 9.92968 11.6602 10.1262 11.8569L10.5594 12.2911C10.7563 12.4872 11.0228 12.5973 11.3007 12.5972H12.5282C12.8058 12.5974 13.0721 12.4873 13.2685 12.2911V12.2911Z" stroke="black" stroke-width="1.5" stroke-linecap="round" stroke-linejoin="round"/>
<circle cx="12" cy="11.9998" r="9.00375" stroke="black" stroke-width="1.5" stroke-linecap="round" stroke-linejoin="round"/>
<path d="M16.5019 8.84884H7.49812" stroke="black" stroke-width="1.5" stroke-linecap="round" stroke-linejoin="round"/>
</svg>
