<svg width="24" height="24" viewBox="0 0 24 24" fill="none" xmlns="http://www.w3.org/2000/svg">
<path d="M9.99916 2.99609H5.9975C4.33995 2.99609 2.99625 4.3398 2.99625 5.99734V18.0023C2.99625 19.6599 4.33995 21.0036 5.9975 21.0036H18.0025C19.66 21.0036 21.0037 19.6599 21.0037 18.0023V10.9994" stroke="black" stroke-width="1.5" stroke-linecap="round" stroke-linejoin="round"/>
<path d="M2.99625 15.001H7.38007C7.75867 15.001 8.10483 15.2147 8.27444 15.5532L8.72163 16.4486C8.89113 16.7878 9.23782 17.002 9.617 17.0018H14.382C14.7612 17.002 15.1079 16.7878 15.2774 16.4486L15.7245 15.5542C15.894 15.215 16.2407 15.0008 16.6199 15.001H21.0037" stroke="black" stroke-width="1.5" stroke-linecap="round" stroke-linejoin="round"/>
<path fill-rule="evenodd" clip-rule="evenodd" d="M16.7759 3.65385L17.0021 3.88353L17.2283 3.65382C17.6399 3.23318 18.2036 2.99609 18.7921 2.99609C19.3806 2.99609 19.9443 3.23318 20.356 3.65382V3.65382C21.2196 4.53625 21.2196 5.94719 20.356 6.82963L18.24 8.97813C17.9142 9.31111 17.4679 9.4988 17.0021 9.4988C16.5362 9.4988 16.0899 9.31111 15.7641 8.97813L13.6482 6.82969C12.7845 5.94724 12.7845 4.5363 13.6482 3.65386V3.65386C14.0598 3.23321 14.6235 2.99609 15.212 2.99609C15.8005 2.99609 16.3643 3.2332 16.7759 3.65385V3.65385Z" stroke="black" stroke-width="1.5" stroke-linecap="round" stroke-linejoin="round"/>
</svg>
