<svg width="24" height="24" viewBox="0 0 24 24" fill="none" xmlns="http://www.w3.org/2000/svg">
<path d="M6.32664 9.49775L4.92605 9.49876" stroke="black" stroke-width="1.5" stroke-linecap="round" stroke-linejoin="round"/>
<path d="M16.831 4.5968L15.8406 5.58721" stroke="black" stroke-width="1.5" stroke-linecap="round" stroke-linejoin="round"/>
<path d="M11.929 2.49609V3.89668" stroke="black" stroke-width="1.5" stroke-linecap="round" stroke-linejoin="round"/>
<path d="M7.02693 4.5968L8.01634 5.58721" stroke="black" stroke-width="1.5" stroke-linecap="round" stroke-linejoin="round"/>
<path d="M18.9319 9.49876L17.5313 9.49775" stroke="black" stroke-width="1.5" stroke-linecap="round" stroke-linejoin="round"/>
<path d="M21.0037 13.001V18.5033C21.0037 20.1608 19.66 21.5045 18.0025 21.5045H5.9975C4.33996 21.5045 2.99625 20.1608 2.99625 18.5033V13.001" stroke="black" stroke-width="1.5" stroke-linecap="round" stroke-linejoin="round"/>
<path d="M2.99625 15.502H7.38008C7.75868 15.502 8.10484 15.7157 8.27445 16.0542L8.72163 16.9496C8.89113 17.2887 9.23782 17.503 9.61701 17.5028H14.382C14.7612 17.503 15.1079 17.2887 15.2774 16.9496L15.7246 16.0552C15.894 15.716 16.2407 15.5018 16.6199 15.502H21.0037" stroke="black" stroke-width="1.5" stroke-linecap="round" stroke-linejoin="round"/>
<path d="M10.8335 9.33255L12 8.16406V12.834" stroke="black" stroke-width="1.5" stroke-linecap="round" stroke-linejoin="round"/>
<path d="M10.8365 12.8371H13.1635" stroke="black" stroke-width="1.5" stroke-linecap="round" stroke-linejoin="round"/>
</svg>
