<svg width="24" height="24" viewBox="0 0 24 24" fill="none" xmlns="http://www.w3.org/2000/svg">
<path d="M21.0037 13.0003V18.0023C21.0037 19.6599 19.66 21.0036 18.0025 21.0036H5.9975C4.33996 21.0036 2.99625 19.6599 2.99625 18.0023V5.99734C2.99625 4.3398 4.33996 2.99609 5.9975 2.99609H13.0004" stroke="black" stroke-width="1.5" stroke-linecap="round" stroke-linejoin="round"/>
<rect x="15.0013" y="5.9375" width="6.0025" height="4.20175" rx="1.2" stroke="black" stroke-width="1.5" stroke-linecap="round" stroke-linejoin="round"/>
<path d="M16.2018 5.93732V4.79684C16.2018 3.80232 17.008 2.99609 18.0025 2.99609V2.99609C18.997 2.99609 19.8033 3.80232 19.8033 4.79684V4.79684V5.93732" stroke="black" stroke-width="1.5" stroke-linecap="round" stroke-linejoin="round"/>
<path d="M2.99625 15.001H7.38008C7.75868 15.001 8.10484 15.2147 8.27445 15.5532L8.72163 16.4486C8.89113 16.7878 9.23782 17.002 9.61701 17.0018H14.382C14.7612 17.002 15.1079 16.7878 15.2774 16.4486L15.7246 15.5542C15.894 15.215 16.2407 15.0008 16.6199 15.001H21.0037" stroke="black" stroke-width="1.5" stroke-linecap="round" stroke-linejoin="round"/>
</svg>
