<svg width="24" height="24" viewBox="0 0 24 24" fill="none" xmlns="http://www.w3.org/2000/svg">
<path d="M20.5035 5.49714L18.0025 2.99609" stroke="black" stroke-width="1.5" stroke-linecap="round" stroke-linejoin="round"/>
<path d="M18.0025 7.99811L20.5035 5.49707" stroke="black" stroke-width="1.5" stroke-linecap="round" stroke-linejoin="round"/>
<path d="M20.5035 5.49728H15.5015" stroke="black" stroke-width="1.5" stroke-linecap="round" stroke-linejoin="round"/>
<path d="M21.0037 10.9994V17.0019C21.0037 19.212 19.2121 21.0036 17.0021 21.0036H6.99791C4.78785 21.0036 2.99625 19.212 2.99625 17.0019V6.99776C2.99625 4.7877 4.78785 2.99609 6.99791 2.99609H12" stroke="black" stroke-width="1.5" stroke-linecap="round" stroke-linejoin="round"/>
<path d="M2.99625 15.001H7.38007C7.75867 15.001 8.10483 15.2147 8.27444 15.5532L8.72163 16.4486C8.89113 16.7878 9.23782 17.002 9.617 17.0018H14.382C14.7612 17.002 15.1079 16.7878 15.2774 16.4486L15.7245 15.5542C15.894 15.215 16.2407 15.0008 16.6199 15.001H21.0037" stroke="black" stroke-width="1.5" stroke-linecap="round" stroke-linejoin="round"/>
</svg>
