<svg width="24" height="24" viewBox="0 0 24 24" fill="none" xmlns="http://www.w3.org/2000/svg">
<path fill-rule="evenodd" clip-rule="evenodd" d="M17.2764 6.02225V6.02225C20.1906 8.93647 20.1906 13.6613 17.2764 16.5756L13.2432 20.6088C12.5565 21.2955 11.443 21.2955 10.7563 20.6088L6.7231 16.5756C3.80889 13.6613 3.80889 8.93647 6.7231 6.02225V6.02225C9.63731 3.10804 14.3622 3.10804 17.2764 6.02225Z" stroke="black" stroke-width="1.5" stroke-linecap="round" stroke-linejoin="round"/>
<path fill-rule="evenodd" clip-rule="evenodd" d="M12.2785 14.1199L15.5602 10.8382C15.9338 10.4634 15.9338 9.85697 15.5602 9.48215L14.038 7.95992C13.6632 7.58628 13.0567 7.58628 12.6819 7.95992L9.40019 11.2416C9.22031 11.4214 9.11911 11.6653 9.1188 11.9197V14.4013H11.6005C11.8548 14.401 12.0987 14.2998 12.2785 14.1199Z" stroke="black" stroke-width="1.5" stroke-linecap="round" stroke-linejoin="round"/>
</svg>
