<svg width="24" height="24" viewBox="0 0 24 24" fill="none" xmlns="http://www.w3.org/2000/svg">
<path d="M14.6301 9.99966L15.2303 9.39941C15.7341 10.5786 15.552 11.939 14.7558 12.9441C13.9595 13.9493 12.677 14.4379 11.4138 14.2174" stroke="black" stroke-width="1.5" stroke-linecap="round" stroke-linejoin="round"/>
<path d="M9.36991 11.5384L8.76966 12.1386C8.25107 10.9261 8.45909 9.52483 9.30759 8.51522C10.1561 7.50561 11.5006 7.0595 12.7843 7.36164" stroke="black" stroke-width="1.5" stroke-linecap="round" stroke-linejoin="round"/>
<path fill-rule="evenodd" clip-rule="evenodd" d="M10.7044 20.468L6.5027 16.2663C3.46724 13.2303 3.46724 8.30862 6.5027 5.27269V5.27269C9.53863 2.23723 14.4603 2.23723 17.4963 5.27269V5.27269C20.5317 8.30862 20.5317 13.2303 17.4963 16.2663L13.2945 20.468C12.5788 21.182 11.4202 21.182 10.7044 20.468Z" stroke="black" stroke-width="1.5" stroke-linecap="round" stroke-linejoin="round"/>
</svg>
