<svg width="24" height="24" viewBox="0 0 24 24" fill="none" xmlns="http://www.w3.org/2000/svg">
<path d="M13.0614 9.6694C13.6477 10.2556 13.6477 11.206 13.0614 11.7913C12.4752 12.3775 11.5248 12.3775 10.9396 11.7913C10.3533 11.205 10.3533 10.2546 10.9396 9.6694C11.5248 9.08416 12.4752 9.08416 13.0614 9.6694" stroke="black" stroke-width="1.5" stroke-linecap="round" stroke-linejoin="round"/>
<path d="M16.704 10.612V10.612C16.704 11.8895 16.1367 13.101 15.1553 13.9183L13.6137 15.2039C12.9984 15.7161 12.5392 16.3894 12.2861 17.1487L12 18.003L11.7149 17.1487C11.4618 16.3894 11.0016 15.7151 10.3873 15.2039L8.84469 13.9183C7.86328 13.101 7.29604 11.8895 7.29604 10.612V10.612V10.636C7.29604 7.70076 9.72705 5.99805 12 5.99805C14.2729 5.99805 16.704 7.70076 16.704 10.636" stroke="black" stroke-width="1.5" stroke-linecap="round" stroke-linejoin="round"/>
<path fill-rule="evenodd" clip-rule="evenodd" d="M17.0021 21.0041H6.99792C4.788 21.0041 2.99625 19.2123 2.99625 17.0024V6.99825C2.99625 4.78833 4.788 2.99658 6.99792 2.99658H17.0021C19.212 2.99658 21.0037 4.78833 21.0037 6.99825V17.0024C21.0037 19.2123 19.212 21.0041 17.0021 21.0041Z" stroke="black" stroke-width="1.5" stroke-linecap="round" stroke-linejoin="round"/>
</svg>
