<svg width="24" height="24" viewBox="0 0 24 24" fill="none" xmlns="http://www.w3.org/2000/svg">
<path fill-rule="evenodd" clip-rule="evenodd" d="M16.0017 21.0036H7.99833C5.23576 21.0036 2.99625 18.7641 2.99625 16.0015V7.99818C2.99625 5.2356 5.23576 2.99609 7.99833 2.99609H16.0017C18.7642 2.99609 21.0037 5.2356 21.0037 7.99818V16.0015C21.0037 18.7641 18.7642 21.0036 16.0017 21.0036Z" stroke="black" stroke-width="1.5" stroke-linecap="round" stroke-linejoin="round"/>
<path d="M19.5387 4.46191L4.46132 19.5393" stroke="black" stroke-width="1.5" stroke-linecap="round" stroke-linejoin="round"/>
<path d="M9.17271 14.8274C9.74493 15.6928 10.3644 16.5261 11.0283 17.3233C11.2652 17.6173 11.6224 17.7882 12 17.7882C12.3776 17.7882 12.7348 17.6173 12.9717 17.3233C14.2951 15.7307 16.5019 12.7673 16.5019 10.7139" stroke="black" stroke-width="1.5" stroke-linecap="round" stroke-linejoin="round"/>
<path d="M8.09449 12.9044C7.7467 12.2232 7.54365 11.4774 7.49812 10.7139" stroke="black" stroke-width="1.5" stroke-linecap="round" stroke-linejoin="round"/>
<path d="M15.7577 8.24219C16.2431 8.97506 16.5019 9.83464 16.5019 10.7137" stroke="black" stroke-width="1.5" stroke-linecap="round" stroke-linejoin="round"/>
<path d="M14.1935 6.80524C13.526 6.42109 12.7702 6.21666 12 6.21191C9.51368 6.21191 7.49812 8.22747 7.49812 10.7138" stroke="black" stroke-width="1.5" stroke-linecap="round" stroke-linejoin="round"/>
</svg>
