<svg width="24" height="24" viewBox="0 0 24 24" fill="none" xmlns="http://www.w3.org/2000/svg">
<path fill-rule="evenodd" clip-rule="evenodd" d="M17.2764 6.02225V6.02225C20.1906 8.93647 20.1906 13.6613 17.2764 16.5756L13.2432 20.6088C12.5565 21.2955 11.443 21.2955 10.7563 20.6088L6.7231 16.5756C3.80889 13.6613 3.80889 8.93647 6.7231 6.02225V6.02225C9.63732 3.10804 14.3622 3.10804 17.2764 6.02225Z" stroke="black" stroke-width="1.5" stroke-linecap="round" stroke-linejoin="round"/>
<path d="M12 14.1065C11.9735 14.1065 11.952 14.128 11.952 14.1545C11.952 14.181 11.9735 14.2025 12 14.2025C12.0265 14.2025 12.048 14.181 12.048 14.1545C12.0475 14.1282 12.0263 14.107 12 14.1065V14.1065" stroke="black" stroke-width="1.5" stroke-linecap="round" stroke-linejoin="round"/>
<path d="M12 12.1614C12.8219 12.1644 13.4934 11.5059 13.5064 10.6841C13.5195 9.86236 12.8692 9.18288 12.0477 9.15978C11.2261 9.13669 10.5388 9.77857 10.5056 10.5998" stroke="black" stroke-width="1.5" stroke-linecap="round" stroke-linejoin="round"/>
</svg>
