<svg width="24" height="24" viewBox="0 0 24 24" fill="none" xmlns="http://www.w3.org/2000/svg">
<path d="M19.0029 5.99728H4.99709" stroke="black" stroke-width="1.5" stroke-linecap="round" stroke-linejoin="round"/>
<path d="M6.99791 2.9963H17.0021" stroke="black" stroke-width="1.5" stroke-linecap="round" stroke-linejoin="round"/>
<path d="M18.0025 14.001C20.2125 14.001 22.0042 15.7926 22.0042 18.0026C22.0042 20.2127 20.2125 22.0043 18.0025 22.0043C15.7924 22.0043 14.0008 20.2127 14.0008 18.0026C14.0008 15.7926 15.7924 14.001 18.0025 14.001" stroke="black" stroke-width="1.5" stroke-linecap="round" stroke-linejoin="round"/>
<path d="M19.089 17.9522C19.0614 17.9522 19.039 17.9745 19.0389 18.0021C19.0389 18.0296 19.0612 18.052 19.0888 18.0521H19.089C19.1165 18.0521 19.1389 18.0298 19.139 18.0023C19.139 17.9747 19.1167 17.9523 19.0892 17.9522H19.089" stroke="black" stroke-width="1.5" stroke-linecap="round" stroke-linejoin="round"/>
<path d="M16.9149 17.9531C16.8879 17.9531 16.866 17.975 16.866 18.002V18.002C16.8654 18.0296 16.8873 18.0525 16.9149 18.0531C16.9425 18.0538 16.9654 18.0319 16.966 18.0042C16.9666 17.9766 16.9448 17.9537 16.9171 17.9531H16.916" stroke="black" stroke-width="1.5" stroke-linecap="round" stroke-linejoin="round"/>
<path d="M12 21.004H4.99708C3.89205 21.004 2.99625 20.1082 2.99625 19.0032V10.9999C2.99625 9.89483 3.89205 8.99902 4.99708 8.99902H19.0029C20.1079 8.99902 21.0037 9.89483 21.0037 10.9999V12.0003" stroke="black" stroke-width="1.5" stroke-linecap="round" stroke-linejoin="round"/>
</svg>
