<svg width="24" height="24" viewBox="0 0 24 24" fill="none" xmlns="http://www.w3.org/2000/svg">
<rect x="3.99667" y="8.99902" width="16.0067" height="12.005" rx="2" stroke="black" stroke-width="1.5" stroke-linecap="round" stroke-linejoin="round"/>
<path d="M6.49771 5.99728H17.5023" stroke="black" stroke-width="1.5" stroke-linecap="round" stroke-linejoin="round"/>
<path d="M7.99834 2.9963H16.0017" stroke="black" stroke-width="1.5" stroke-linecap="round" stroke-linejoin="round"/>
<path d="M15.3694 14.9322C15.3313 14.9322 15.3004 14.9631 15.3004 15.0012C15.3004 15.0393 15.3313 15.0702 15.3694 15.0702C15.4075 15.0702 15.4384 15.0393 15.4384 15.0012C15.4384 14.9631 15.4075 14.9322 15.3694 14.9322" stroke="black" stroke-width="1.5" stroke-linecap="round" stroke-linejoin="round"/>
<path d="M8.6296 14.9322C8.61138 14.9322 8.59392 14.9395 8.58114 14.9524C8.56835 14.9654 8.5613 14.983 8.56157 15.0012C8.56157 15.0292 8.5785 15.0544 8.60442 15.0651C8.63033 15.0757 8.6601 15.0696 8.67976 15.0496C8.69942 15.0297 8.70508 14.9998 8.69408 14.9741C8.68308 14.9483 8.6576 14.9318 8.6296 14.9322" stroke="black" stroke-width="1.5" stroke-linecap="round" stroke-linejoin="round"/>
<path d="M11.931 15.0012C11.931 15.0393 11.9619 15.0702 12 15.0702C12.0381 15.0702 12.069 15.0393 12.069 15.0012C12.069 14.9631 12.0381 14.9322 12 14.9322C11.9619 14.9322 11.931 14.9631 11.931 15.0012" stroke="black" stroke-width="1.5" stroke-linecap="round" stroke-linejoin="round"/>
</svg>
