<svg width="24" height="24" viewBox="0 0 24 24" fill="none" xmlns="http://www.w3.org/2000/svg">
<path d="M2.99625 12.0003V10.9999C2.99625 9.89483 3.89205 8.99902 4.99708 8.99902H19.0029C20.1079 8.99902 21.0037 9.89483 21.0037 10.9999V19.0032C21.0037 20.1082 20.1079 21.004 19.0029 21.004H12" stroke="black" stroke-width="1.5" stroke-linecap="round" stroke-linejoin="round"/>
<path d="M5.49728 5.99728H18.5027" stroke="black" stroke-width="1.5" stroke-linecap="round" stroke-linejoin="round"/>
<path d="M7.49811 2.9963H17.5023" stroke="black" stroke-width="1.5" stroke-linecap="round" stroke-linejoin="round"/>
<path fill-rule="evenodd" clip-rule="evenodd" d="M6.77171 15.1587L6.99791 15.3884L7.22414 15.1587C7.63575 14.7381 8.19945 14.501 8.78797 14.501C9.37649 14.501 9.94019 14.7381 10.3518 15.1587V15.1587C11.2155 16.0411 11.2155 17.4521 10.3518 18.3345L8.23586 20.483C7.91002 20.816 7.46379 21.0037 6.99791 21.0037C6.53203 21.0037 6.0858 20.816 5.75996 20.483L3.64402 18.3346C2.78032 17.4521 2.78032 16.0412 3.64402 15.1587V15.1587C4.05563 14.7381 4.61934 14.501 5.20786 14.501C5.79639 14.501 6.3601 14.7381 6.77171 15.1587Z" stroke="black" stroke-width="1.5" stroke-linecap="round" stroke-linejoin="round"/>
</svg>
