<svg width="24" height="24" viewBox="0 0 24 24" fill="none" xmlns="http://www.w3.org/2000/svg">
<path d="M3.99667 10.9999C3.99667 9.89483 4.89248 8.99902 5.99751 8.99902H18.0025C19.1075 8.99902 20.0033 9.89483 20.0033 10.9999V19.0032C20.0033 20.1082 19.1075 21.004 18.0025 21.004H13.0004" stroke="black" stroke-width="1.5" stroke-linecap="round" stroke-linejoin="round"/>
<path d="M6.99791 13.001C9.48422 13.001 11.4998 15.0165 11.4998 17.5029C11.4998 19.9892 9.48422 22.0047 6.99791 22.0047C4.51159 22.0047 2.49603 19.9892 2.49603 17.5029C2.49603 15.0165 4.51159 13.001 6.99791 13.001" stroke="black" stroke-width="1.5" stroke-linecap="round" stroke-linejoin="round"/>
<path d="M8.22042 17.4521C8.1928 17.4521 8.1704 17.4745 8.1704 17.5022C8.1704 17.5298 8.1928 17.5522 8.22042 17.5522C8.24805 17.5522 8.27044 17.5298 8.27044 17.5022C8.27044 17.4745 8.24805 17.4521 8.22042 17.4521" stroke="black" stroke-width="1.5" stroke-linecap="round" stroke-linejoin="round"/>
<path d="M5.77439 17.4521C5.76121 17.4521 5.74859 17.4574 5.73937 17.4669C5.73015 17.4763 5.7251 17.489 5.72537 17.5022C5.72537 17.5298 5.74776 17.5522 5.77539 17.5522C5.80302 17.5522 5.82541 17.5298 5.82541 17.5022C5.82541 17.4745 5.80302 17.4521 5.77539 17.4521" stroke="black" stroke-width="1.5" stroke-linecap="round" stroke-linejoin="round"/>
<path d="M6.49771 5.99728H17.5023" stroke="black" stroke-width="1.5" stroke-linecap="round" stroke-linejoin="round"/>
<path d="M8.49854 2.9963H16.5019" stroke="black" stroke-width="1.5" stroke-linecap="round" stroke-linejoin="round"/>
</svg>
