<svg width="24" height="24" viewBox="0 0 24 24" fill="none" xmlns="http://www.w3.org/2000/svg">
<path d="M2.99625 12.0003V10.9999C2.99625 9.89483 3.89205 8.99902 4.99708 8.99902H19.0029C20.1079 8.99902 21.0037 9.89483 21.0037 10.9999V19.0032C21.0037 20.1082 20.1079 21.004 19.0029 21.004H14.0008" stroke="black" stroke-width="1.5" stroke-linecap="round" stroke-linejoin="round"/>
<path d="M12 17.5029C12 19.9892 9.98444 22.0047 7.49813 22.0047C5.01181 22.0047 2.99625 19.9892 2.99625 17.5029C2.99625 15.0165 5.01181 13.001 7.49813 13.001C8.6921 13.001 9.83717 13.4753 10.6814 14.3195C11.5257 15.1638 12 16.3089 12 17.5029" stroke="black" stroke-width="1.5" stroke-linecap="round" stroke-linejoin="round"/>
<path d="M5.49729 5.99728H18.5027" stroke="black" stroke-width="1.5" stroke-linecap="round" stroke-linejoin="round"/>
<path d="M7.49812 2.9963H17.5023" stroke="black" stroke-width="1.5" stroke-linecap="round" stroke-linejoin="round"/>
<path d="M7.197 15.9082V17.804H9.09279" stroke="black" stroke-width="1.5" stroke-linecap="round" stroke-linejoin="round"/>
</svg>
