<svg width="24" height="24" viewBox="0 0 24 24" fill="none" xmlns="http://www.w3.org/2000/svg">
<path d="M16.0017 12.0002H10.7495" stroke="black" stroke-width="1.5" stroke-linecap="round" stroke-linejoin="round"/>
<path d="M16.0017 15.5012H10.7495" stroke="black" stroke-width="1.5" stroke-linecap="round" stroke-linejoin="round"/>
<path d="M16.0017 8.49826H10.7495" stroke="black" stroke-width="1.5" stroke-linecap="round" stroke-linejoin="round"/>
<rect x="2.99625" y="2.99609" width="18.0075" height="18.0075" rx="5" stroke="black" stroke-width="1.5" stroke-linecap="round" stroke-linejoin="round"/>
<path d="M7.99833 11.8771C7.92983 11.8777 7.87474 11.9337 7.87529 12.0022C7.87584 12.0707 7.93183 12.1258 8.00034 12.1252C8.06885 12.1247 8.12394 12.0687 8.12339 12.0002C8.12028 11.9328 8.06578 11.8792 7.99833 11.8771" stroke="black" stroke-width="1.5" stroke-linecap="round" stroke-linejoin="round"/>
<path d="M7.99833 15.3781C7.93037 15.3798 7.87639 15.4358 7.8773 15.5038C7.87821 15.5718 7.93366 15.6264 8.00165 15.6262C8.06964 15.626 8.12482 15.5712 8.12539 15.5032C8.12326 15.4342 8.0673 15.3792 7.99833 15.3781" stroke="black" stroke-width="1.5" stroke-linecap="round" stroke-linejoin="round"/>
<path d="M7.99833 8.3752C7.93037 8.37685 7.87639 8.43289 7.8773 8.50087C7.87821 8.56885 7.93366 8.62344 8.00165 8.62326C8.06964 8.62309 8.12482 8.56823 8.12539 8.50025C8.12326 8.43131 8.0673 8.37623 7.99833 8.3752" stroke="black" stroke-width="1.5" stroke-linecap="round" stroke-linejoin="round"/>
</svg>
