<svg width="24" height="24" viewBox="0 0 24 24" fill="none" xmlns="http://www.w3.org/2000/svg">
<path fill-rule="evenodd" clip-rule="evenodd" d="M15.5 10.75H14.25C13.6977 10.75 13.25 10.3023 13.25 9.75V8.5C13.25 7.94772 13.6977 7.5 14.25 7.5H15.5C16.0523 7.5 16.5 7.94772 16.5 8.5V9.75C16.5 10.3023 16.0523 10.75 15.5 10.75Z" stroke="black" stroke-width="1.5" stroke-linecap="round" stroke-linejoin="round"/>
<path fill-rule="evenodd" clip-rule="evenodd" d="M9.75 16.5H8.5C7.94772 16.5 7.5 16.0523 7.5 15.5V14.25C7.5 13.6977 7.94772 13.25 8.5 13.25H9.75C10.3023 13.25 10.75 13.6977 10.75 14.25V15.5C10.75 16.0523 10.3023 16.5 9.75 16.5Z" stroke="black" stroke-width="1.5" stroke-linecap="round" stroke-linejoin="round"/>
<path fill-rule="evenodd" clip-rule="evenodd" d="M12 21C16.9706 21 21 16.9706 21 12C21 7.02944 16.9706 3 12 3C7.02944 3 3 7.02944 3 12C3 16.9706 7.02944 21 12 21V21Z" stroke="black" stroke-width="1.5" stroke-linecap="round" stroke-linejoin="round"/>
<path fill-rule="evenodd" clip-rule="evenodd" d="M10.75 8.5V9.75C10.75 10.3023 10.3023 10.75 9.75 10.75H8.5C7.94772 10.75 7.5 10.3023 7.5 9.75V8.5C7.5 7.94772 7.94772 7.5 8.5 7.5H9.75C10.3023 7.5 10.75 7.94772 10.75 8.5Z" stroke="black" stroke-width="1.5" stroke-linecap="round" stroke-linejoin="round"/>
<path fill-rule="evenodd" clip-rule="evenodd" d="M16.5 14.25V15.5C16.5 16.0523 16.0523 16.5 15.5 16.5H14.25C13.6977 16.5 13.25 16.0523 13.25 15.5V14.25C13.25 13.6977 13.6977 13.25 14.25 13.25H15.5C16.0523 13.25 16.5 13.6977 16.5 14.25Z" stroke="black" stroke-width="1.5" stroke-linecap="round" stroke-linejoin="round"/>
</svg>
