<svg width="24" height="24" viewBox="0 0 24 24" fill="none" xmlns="http://www.w3.org/2000/svg">
<path fill-rule="evenodd" clip-rule="evenodd" d="M12 21V21C7.029 21 3 16.971 3 12V12C3 7.029 7.029 3 12 3V3C16.971 3 21 7.029 21 12V12C21 16.971 16.971 21 12 21Z" stroke="black" stroke-width="1.5" stroke-linecap="round" stroke-linejoin="round"/>
<path d="M11.999 11.625C11.792 11.625 11.624 11.793 11.626 12C11.626 12.207 11.794 12.375 12.001 12.375C12.208 12.375 12.376 12.207 12.376 12C12.375 11.793 12.207 11.625 11.999 11.625" stroke="black" stroke-width="1.5" stroke-linecap="round" stroke-linejoin="round"/>
<path d="M15.999 11.625C15.792 11.625 15.624 11.793 15.626 12C15.626 12.207 15.794 12.375 16.001 12.375C16.208 12.375 16.376 12.207 16.376 12C16.375 11.793 16.207 11.625 15.999 11.625" stroke="black" stroke-width="1.5" stroke-linecap="round" stroke-linejoin="round"/>
<path d="M7.999 11.625C7.792 11.625 7.624 11.793 7.626 12C7.626 12.207 7.794 12.375 8.001 12.375C8.208 12.375 8.376 12.207 8.376 12C8.375 11.793 8.207 11.625 7.999 11.625" stroke="black" stroke-width="1.5" stroke-linecap="round" stroke-linejoin="round"/>
</svg>
