<svg width="24" height="24" viewBox="0 0 24 24" fill="none" xmlns="http://www.w3.org/2000/svg">
<path d="M3 5H20" stroke="black" stroke-width="1.5" stroke-linecap="round" stroke-linejoin="round"/>
<path d="M3 11H9" stroke="black" stroke-width="1.5" stroke-linecap="round" stroke-linejoin="round"/>
<path d="M3 17H9" stroke="black" stroke-width="1.5" stroke-linecap="round" stroke-linejoin="round"/>
<path d="M17 19V16" stroke="black" stroke-width="1.5" stroke-linecap="round" stroke-linejoin="round"/>
<path fill-rule="evenodd" clip-rule="evenodd" d="M20.4992 16H13.5008C13.3206 16 13.1544 15.9031 13.0657 15.7463C12.9769 15.5896 12.9794 15.3972 13.072 15.2428L14.5188 12.8315C14.6468 12.6182 14.6906 12.3648 14.6419 12.1209L14.2569 10.1961C14.1981 9.90234 14.2742 9.59769 14.4641 9.366C14.6541 9.13431 14.9379 8.99999 15.2375 9H18.7625C19.0621 9 19.3459 9.13432 19.5358 9.36601C19.7258 9.5977 19.8018 9.90234 19.7431 10.1961L19.3581 12.1209C19.3093 12.3648 19.3532 12.6182 19.4812 12.8315L20.928 15.2428C21.0207 15.3972 21.0231 15.5896 20.9343 15.7464C20.8456 15.9031 20.6794 16 20.4992 16Z" stroke="black" stroke-width="1.5" stroke-linecap="round" stroke-linejoin="round"/>
</svg>
