<svg width="24" height="24" viewBox="0 0 24 24" fill="none" xmlns="http://www.w3.org/2000/svg">
<path d="M12 20.9995C7.15365 21.0234 3.1586 17.2055 2.96285 12.363C2.7671 7.52058 6.44096 3.39265 11.2734 3.0253C16.1059 2.65796 20.3615 6.18312 20.9 10.9995" stroke="black" stroke-width="1.5" stroke-linecap="round" stroke-linejoin="round"/>
<path fill-rule="evenodd" clip-rule="evenodd" d="M18.1929 20.7071L21.7071 17.1929C22.0976 16.8024 22.0976 16.1692 21.7071 15.7787L20.2213 14.2929C19.8307 13.9024 19.1976 13.9024 18.8071 14.2929L15.2929 17.8071C15.1054 17.9946 15 18.249 15 18.5142V21H17.4858C17.751 21 18.0054 20.8947 18.1929 20.7071Z" stroke="black" stroke-width="1.5" stroke-linecap="round" stroke-linejoin="round"/>
<path d="M13.5 10.5L10.5 13.5" stroke="black" stroke-width="1.5" stroke-linecap="round" stroke-linejoin="round"/>
<path d="M10.5 10.5L13.5 13.5" stroke="black" stroke-width="1.5" stroke-linecap="round" stroke-linejoin="round"/>
</svg>
