<svg width="24" height="24" viewBox="0 0 24 24" fill="none" xmlns="http://www.w3.org/2000/svg">
<path d="M10.9996 4.99728H21.0038" stroke="black" stroke-width="1.5" stroke-linecap="round" stroke-linejoin="round"/>
<path d="M3.49646 3.49658L6.49771 6.49783" stroke="black" stroke-width="1.5" stroke-linecap="round" stroke-linejoin="round"/>
<path d="M3.49646 6.49783L6.49771 3.49658" stroke="black" stroke-width="1.5" stroke-linecap="round" stroke-linejoin="round"/>
<path d="M10.9996 12.0002H21.0038" stroke="black" stroke-width="1.5" stroke-linecap="round" stroke-linejoin="round"/>
<path d="M10.9996 19.0031H21.0038" stroke="black" stroke-width="1.5" stroke-linecap="round" stroke-linejoin="round"/>
<path fill-rule="evenodd" clip-rule="evenodd" d="M5.9975 14.0012H3.99667C3.44416 14.0012 2.99625 13.5533 2.99625 13.0008V10.9999C2.99625 10.4474 3.44416 9.99951 3.99667 9.99951H5.9975C6.55002 9.99951 6.99792 10.4474 6.99792 10.9999V13.0008C6.99792 13.5533 6.55002 14.0012 5.9975 14.0012Z" stroke="black" stroke-width="1.5" stroke-linecap="round" stroke-linejoin="round"/>
<path fill-rule="evenodd" clip-rule="evenodd" d="M5.9975 21.0041H3.99667C3.44416 21.0041 2.99625 20.5562 2.99625 20.0037V18.0029C2.99625 17.4503 3.44416 17.0024 3.99667 17.0024H5.9975C6.55002 17.0024 6.99792 17.4503 6.99792 18.0029V20.0037C6.99792 20.5562 6.55002 21.0041 5.9975 21.0041Z" stroke="black" stroke-width="1.5" stroke-linecap="round" stroke-linejoin="round"/>
</svg>
