<svg width="24" height="24" viewBox="0 0 24 24" fill="none" xmlns="http://www.w3.org/2000/svg">
<path d="M18.7487 16.5V21" stroke="black" stroke-width="1.5" stroke-linecap="round" stroke-linejoin="round"/>
<path d="M16.5 18.749H21" stroke="black" stroke-width="1.5" stroke-linecap="round" stroke-linejoin="round"/>
<path d="M13 21H9C5.68629 21 3 18.3137 3 15V9C3 5.68629 5.68629 3 9 3H15C16.5913 3 18.1174 3.63214 19.2426 4.75736C20.3679 5.88258 21 7.4087 21 9V13" stroke="black" stroke-width="1.5" stroke-linecap="round" stroke-linejoin="round"/>
<path fill-rule="evenodd" clip-rule="evenodd" d="M11.2929 8.29305C11.6834 7.90252 12.3166 7.90252 12.7071 8.29305L15.7071 11.293C16.0976 11.6836 16.0976 12.3167 15.7071 12.7073L12.7071 15.7073C12.3166 16.0978 11.6834 16.0978 11.2929 15.7073L8.29289 12.7073C7.90237 12.3167 7.90237 11.6836 8.29289 11.293L11.2929 8.29305Z" stroke="black" stroke-width="1.5" stroke-linecap="round" stroke-linejoin="round"/>
</svg>
