<svg width="24" height="24" viewBox="0 0 24 24" fill="none" xmlns="http://www.w3.org/2000/svg">
<path d="M3 5H20" stroke="black" stroke-width="1.5" stroke-linecap="round" stroke-linejoin="round"/>
<path d="M3 11H6" stroke="black" stroke-width="1.5" stroke-linecap="round" stroke-linejoin="round"/>
<path d="M3 17H6" stroke="black" stroke-width="1.5" stroke-linecap="round" stroke-linejoin="round"/>
<path fill-rule="evenodd" clip-rule="evenodd" d="M15.8139 11.898C15.6229 12.0916 15.5 12.2164 15.5 12.2164L15.1629 11.8804C14.5937 11.3151 13.8231 10.9996 13.0209 11.0033C12.2188 11.0071 11.4511 11.3298 10.8872 11.9004V11.9004C9.70427 13.116 9.70427 15.0526 10.8872 16.2682L13.9042 19.3316C14.3251 19.7592 14.9001 20 15.5001 20C16.1001 20 16.675 19.7592 17.0959 19.3316L20.1129 16.2683C21.2958 15.0526 21.2958 13.1161 20.1129 11.9004V11.9004C19.5459 11.3248 18.7719 11.0005 17.9639 11C17.156 10.9995 16.3815 11.323 15.8139 11.898Z" stroke="black" stroke-width="1.5" stroke-linecap="round" stroke-linejoin="round"/>
</svg>
