<svg width="24" height="24" viewBox="0 0 24 24" fill="none" xmlns="http://www.w3.org/2000/svg">
<path d="M8.585 8.96499C8.605 8.98499 8.605 9.01599 8.585 9.03599C8.565 9.05599 8.534 9.05599 8.514 9.03599C8.494 9.01599 8.494 8.98499 8.514 8.96499C8.534 8.94499 8.566 8.94499 8.585 8.96499" stroke="black" stroke-width="1.5" stroke-linecap="round" stroke-linejoin="round"/>
<path d="M8.585 11.965C8.605 11.985 8.605 12.016 8.585 12.036C8.565 12.056 8.534 12.056 8.514 12.036C8.494 12.016 8.494 11.985 8.514 11.965C8.534 11.945 8.566 11.945 8.585 11.965" stroke="black" stroke-width="1.5" stroke-linecap="round" stroke-linejoin="round"/>
<path d="M11 12H15.5" stroke="black" stroke-width="1.5" stroke-linecap="round" stroke-linejoin="round"/>
<path d="M8.585 14.965C8.605 14.985 8.605 15.016 8.585 15.036C8.565 15.056 8.534 15.056 8.514 15.036C8.494 15.016 8.494 14.985 8.514 14.965C8.534 14.945 8.566 14.945 8.585 14.965" stroke="black" stroke-width="1.5" stroke-linecap="round" stroke-linejoin="round"/>
<path d="M11 15H15.5" stroke="black" stroke-width="1.5" stroke-linecap="round" stroke-linejoin="round"/>
<path d="M18.364 5.63601C21.879 9.15101 21.879 14.849 18.364 18.364C14.849 21.879 9.15101 21.879 5.63601 18.364C2.12101 14.849 2.12101 9.15101 5.63601 5.63601C9.15101 2.12101 14.849 2.12101 18.364 5.63601" stroke="black" stroke-width="1.5" stroke-linecap="round" stroke-linejoin="round"/>
<path d="M11 9H15.5" stroke="black" stroke-width="1.5" stroke-linecap="round" stroke-linejoin="round"/>
</svg>
