<svg width="24" height="24" viewBox="0 0 24 24" fill="none" xmlns="http://www.w3.org/2000/svg">
<path d="M18.364 5.63604C21.8787 9.15076 21.8787 14.8492 18.364 18.3639C14.8493 21.8787 9.1508 21.8787 5.6361 18.3639C2.12138 14.8492 2.12138 9.15074 5.6361 5.63604C9.15082 2.12132 14.8493 2.12132 18.364 5.63604" stroke="black" stroke-width="1.5" stroke-linecap="round" stroke-linejoin="round"/>
<path fill-rule="evenodd" clip-rule="evenodd" d="M10.1 10.75H8.15C7.791 10.75 7.5 10.459 7.5 10.1V8.15C7.5 7.791 7.791 7.5 8.15 7.5H10.1C10.459 7.5 10.75 7.791 10.75 8.15V10.1C10.75 10.459 10.459 10.75 10.1 10.75Z" stroke="black" stroke-width="1.5" stroke-linecap="round" stroke-linejoin="round"/>
<path fill-rule="evenodd" clip-rule="evenodd" d="M15.85 10.75H13.9C13.541 10.75 13.25 10.459 13.25 10.1V8.15C13.25 7.791 13.541 7.5 13.9 7.5H15.85C16.209 7.5 16.5 7.791 16.5 8.15V10.1C16.5 10.459 16.209 10.75 15.85 10.75Z" stroke="black" stroke-width="1.5" stroke-linecap="round" stroke-linejoin="round"/>
<path fill-rule="evenodd" clip-rule="evenodd" d="M10.1 16.5H8.15C7.791 16.5 7.5 16.209 7.5 15.85V13.9C7.5 13.541 7.791 13.25 8.15 13.25H10.1C10.459 13.25 10.75 13.541 10.75 13.9V15.85C10.75 16.209 10.459 16.5 10.1 16.5Z" stroke="black" stroke-width="1.5" stroke-linecap="round" stroke-linejoin="round"/>
<path fill-rule="evenodd" clip-rule="evenodd" d="M15.85 16.5H13.9C13.541 16.5 13.25 16.209 13.25 15.85V13.9C13.25 13.541 13.541 13.25 13.9 13.25H15.85C16.209 13.25 16.5 13.541 16.5 13.9V15.85C16.5 16.209 16.209 16.5 15.85 16.5Z" stroke="black" stroke-width="1.5" stroke-linecap="round" stroke-linejoin="round"/>
</svg>
