<svg width="24" height="24" viewBox="0 0 24 24" fill="none" xmlns="http://www.w3.org/2000/svg">
<rect x="2.99625" y="2.99609" width="18.0075" height="18.0075" rx="5" stroke="black" stroke-width="1.5" stroke-linecap="round" stroke-linejoin="round"/>
<path d="M16.2518 12.0002C16.2518 12.1383 16.1398 12.2503 16.0017 12.2503C15.8635 12.2503 15.7516 12.1383 15.7516 12.0002C15.7516 11.8621 15.8635 11.7501 16.0017 11.7501V11.7501C16.1398 11.7501 16.2518 11.8621 16.2518 12.0002" stroke="black" stroke-width="1.5" stroke-linecap="round" stroke-linejoin="round"/>
<path d="M8.24844 12.0002C8.24844 12.1383 8.13647 12.2503 7.99834 12.2503C7.86021 12.2503 7.74823 12.1383 7.74823 12.0002C7.74823 11.8621 7.86021 11.7501 7.99834 11.7501V11.7501C8.13647 11.7501 8.24844 11.8621 8.24844 12.0002" stroke="black" stroke-width="1.5" stroke-linecap="round" stroke-linejoin="round"/>
<path d="M12.2501 12.0002C12.2501 12.1383 12.1381 12.2503 12 12.2503C11.8619 12.2503 11.7499 12.1383 11.7499 12.0002C11.7499 11.8621 11.8619 11.7501 12 11.7501V11.7501C12.1381 11.7501 12.2501 11.8621 12.2501 12.0002" stroke="black" stroke-width="1.5" stroke-linecap="round" stroke-linejoin="round"/>
</svg>
