<svg width="24" height="24" viewBox="0 0 24 24" fill="none" xmlns="http://www.w3.org/2000/svg">
<rect x="2.99625" y="2.99658" width="18.0075" height="18.0075" rx="5" stroke="black" stroke-width="1.5" stroke-linecap="round" stroke-linejoin="round"/>
<path d="M9.49895 8.99874C9.49895 8.72249 9.275 8.49854 8.99874 8.49854C8.72249 8.49854 8.49854 8.72249 8.49854 8.99874C8.49854 9.275 8.72249 9.49895 8.99874 9.49895C9.275 9.49895 9.49895 9.275 9.49895 8.99874" stroke="black" stroke-width="1.5" stroke-linecap="round" stroke-linejoin="round"/>
<path d="M15.5015 8.99874C15.5015 8.72249 15.2775 8.49854 15.0012 8.49854C14.725 8.49854 14.501 8.72249 14.501 8.99874C14.501 9.275 14.725 9.49895 15.0012 9.49895C15.2775 9.49895 15.5015 9.275 15.5015 8.99874" stroke="black" stroke-width="1.5" stroke-linecap="round" stroke-linejoin="round"/>
<path d="M9.49895 15.0012C9.49895 14.7249 9.275 14.501 8.99874 14.501C8.72249 14.501 8.49854 14.7249 8.49854 15.0012C8.49854 15.2774 8.72249 15.5014 8.99874 15.5014C9.275 15.5014 9.49895 15.2774 9.49895 15.0012" stroke="black" stroke-width="1.5" stroke-linecap="round" stroke-linejoin="round"/>
<path d="M15.5015 15.0012C15.5015 14.7249 15.2775 14.501 15.0012 14.501C14.725 14.501 14.501 14.7249 14.501 15.0012C14.501 15.2774 14.725 15.5014 15.0012 15.5014C15.2775 15.5014 15.5015 15.2774 15.5015 15.0012" stroke="black" stroke-width="1.5" stroke-linecap="round" stroke-linejoin="round"/>
</svg>
