<svg width="24" height="24" viewBox="0 0 24 24" fill="none" xmlns="http://www.w3.org/2000/svg">
<path d="M18.0025 6.99825V4.99742C18.0025 3.89195 17.1071 2.99658 16.0017 2.99658H4.99708C3.89162 2.99658 2.99625 3.89195 2.99625 4.99742V16.002C2.99625 17.1075 3.89162 18.0028 4.99708 18.0028H6.99792" stroke="black" stroke-width="1.5" stroke-linecap="round" stroke-linejoin="round"/>
<path fill-rule="evenodd" clip-rule="evenodd" d="M19.4471 21.0039H8.55457C7.69421 21.0039 6.99792 20.3076 6.99792 19.4472V8.5547C6.99792 7.69434 7.69421 6.99805 8.55457 6.99805H19.4481C20.3075 6.99805 21.0038 7.69434 21.0038 8.5547V19.4482C21.0038 20.3076 20.3075 21.0039 19.4471 21.0039Z" stroke="black" stroke-width="1.5" stroke-linecap="round" stroke-linejoin="round"/>
<path d="M17.8915 10.8889H13.2225" stroke="black" stroke-width="1.5" stroke-linecap="round" stroke-linejoin="round"/>
<path d="M13.2225 14.0012H17.8915" stroke="black" stroke-width="1.5" stroke-linecap="round" stroke-linejoin="round"/>
<path d="M13.2225 17.1135H17.8915" stroke="black" stroke-width="1.5" stroke-linecap="round" stroke-linejoin="round"/>
<path d="M10.1092 13.8071C10.0022 13.8071 9.91513 13.8941 9.91613 14.0012C9.91613 14.1082 10.0032 14.1953 10.1102 14.1953C10.2173 14.1953 10.3043 14.1082 10.3043 14.0012C10.3043 13.8941 10.2173 13.8071 10.1092 13.8071" stroke="black" stroke-width="1.5" stroke-linecap="round" stroke-linejoin="round"/>
<path d="M10.1092 16.9194C10.0022 16.9194 9.91513 17.0064 9.91613 17.1135C9.91613 17.2205 10.0032 17.3076 10.1102 17.3076C10.2173 17.3076 10.3043 17.2205 10.3043 17.1135C10.3043 17.0064 10.2173 16.9194 10.1092 16.9194" stroke="black" stroke-width="1.5" stroke-linecap="round" stroke-linejoin="round"/>
<path d="M10.1092 10.6938C10.0022 10.6938 9.91513 10.7809 9.91613 10.8879C9.91613 10.9949 10.0032 11.082 10.1102 11.082C10.2173 11.082 10.3043 10.9949 10.3043 10.8879C10.3053 10.7819 10.2173 10.6938 10.1092 10.6938" stroke="black" stroke-width="1.5" stroke-linecap="round" stroke-linejoin="round"/>
</svg>
