<svg width="24" height="24" viewBox="0 0 24 24" fill="none" xmlns="http://www.w3.org/2000/svg">
<path d="M12 20.9995C7.15365 21.0234 3.1586 17.2055 2.96285 12.363C2.76711 7.52058 6.44097 3.39265 11.2734 3.0253C16.1059 2.65796 20.3615 6.18312 20.9 10.9995" stroke="black" stroke-width="1.5" stroke-linecap="round" stroke-linejoin="round"/>
<path fill-rule="evenodd" clip-rule="evenodd" d="M18.1929 20.7071L21.7071 17.1929C22.0976 16.8024 22.0976 16.1692 21.7071 15.7787L20.2213 14.2929C19.8307 13.9024 19.1976 13.9024 18.8071 14.2929L15.2929 17.8071C15.1054 17.9946 15 18.249 15 18.5142V21H17.4858C17.751 21 18.0054 20.8947 18.1929 20.7071Z" stroke="black" stroke-width="1.5" stroke-linecap="round" stroke-linejoin="round"/>
<path d="M11.55 12.0001C11.55 12.0277 11.5276 12.05 11.5 12.05C11.4724 12.05 11.45 12.0276 11.45 12C11.45 11.9724 11.4723 11.95 11.4999 11.95C11.5132 11.95 11.526 11.9553 11.5354 11.9646C11.5447 11.974 11.55 11.9868 11.55 12.0001" stroke="black" stroke-width="1.5" stroke-linecap="round" stroke-linejoin="round"/>
<path d="M15.05 12.0001C15.05 12.0277 15.0276 12.05 15 12.05C14.9724 12.05 14.95 12.0276 14.95 12C14.95 11.9724 14.9723 11.95 14.9999 11.95C15.0132 11.95 15.026 11.9553 15.0354 11.9646C15.0447 11.974 15.05 11.9868 15.05 12.0001" stroke="black" stroke-width="1.5" stroke-linecap="round" stroke-linejoin="round"/>
<path d="M8.05 12.0001C8.04997 12.0277 8.02758 12.05 7.99998 12.05C7.97238 12.05 7.95001 12.0276 7.95 12C7.94999 11.9724 7.97234 11.95 7.99994 11.95C8.01322 11.95 8.02596 11.9553 8.03536 11.9646C8.04475 11.974 8.05002 11.9868 8.05 12.0001" stroke="black" stroke-width="1.5" stroke-linecap="round" stroke-linejoin="round"/>
</svg>
