<svg width="24" height="24" viewBox="0 0 24 24" fill="none" xmlns="http://www.w3.org/2000/svg">
<path d="M11 5H21" stroke="black" stroke-width="1.5" stroke-linecap="round" stroke-linejoin="round"/>
<path d="M11 12H21" stroke="black" stroke-width="1.5" stroke-linecap="round" stroke-linejoin="round"/>
<path d="M2.879 5H7.122" stroke="black" stroke-width="1.5" stroke-linecap="round" stroke-linejoin="round"/>
<path d="M5 7.12091V2.87891" stroke="black" stroke-width="1.5" stroke-linecap="round" stroke-linejoin="round"/>
<path d="M11 19H21" stroke="black" stroke-width="1.5" stroke-linecap="round" stroke-linejoin="round"/>
<path d="M6.414 10.586C7.195 11.367 7.195 12.633 6.414 13.414C5.633 14.195 4.367 14.195 3.586 13.414C2.805 12.633 2.805 11.367 3.586 10.586C4.367 9.80499 5.633 9.80499 6.414 10.586" stroke="black" stroke-width="1.5" stroke-linecap="round" stroke-linejoin="round"/>
<path d="M6.414 17.586C7.195 18.367 7.195 19.633 6.414 20.414C5.633 21.195 4.367 21.195 3.586 20.414C2.805 19.633 2.805 18.367 3.586 17.586C4.367 16.805 5.633 16.805 6.414 17.586" stroke="black" stroke-width="1.5" stroke-linecap="round" stroke-linejoin="round"/>
</svg>
