<svg width="24" height="24" viewBox="0 0 24 24" fill="none" xmlns="http://www.w3.org/2000/svg">
<path d="M13.0004 12.7502C13.4146 12.7502 13.7504 12.4144 13.7504 12.0002C13.7504 11.586 13.4146 11.2502 13.0004 11.2502V12.7502ZM7.99834 11.2502C7.58412 11.2502 7.24834 11.586 7.24834 12.0002C7.24834 12.4144 7.58412 12.7502 7.99834 12.7502V11.2502ZM15.0013 16.7519C15.4155 16.7519 15.7513 16.4161 15.7513 16.0019C15.7513 15.5877 15.4155 15.2519 15.0013 15.2519V16.7519ZM7.99834 15.2519C7.58412 15.2519 7.24834 15.5877 7.24834 16.0019C7.24834 16.4161 7.58412 16.7519 7.99834 16.7519V15.2519ZM16.0017 8.74854C16.4159 8.74854 16.7517 8.41275 16.7517 7.99854C16.7517 7.58432 16.4159 7.24854 16.0017 7.24854V8.74854ZM7.99834 7.24854C7.58412 7.24854 7.24834 7.58432 7.24834 7.99854C7.24834 8.41275 7.58412 8.74854 7.99834 8.74854V7.24854ZM13.0004 11.2502H7.99834V12.7502H13.0004V11.2502ZM15.0013 15.2519H7.99834V16.7519H15.0013V15.2519ZM16.0017 7.24854H7.99834V8.74854H16.0017V7.24854Z" fill="black"/>
<circle cx="12" cy="12.0003" r="9.00375" stroke="black" stroke-width="1.5" stroke-linecap="round" stroke-linejoin="round"/>
</svg>
