<svg width="24" height="24" viewBox="0 0 24 24" fill="none" xmlns="http://www.w3.org/2000/svg">
<path d="M10.9996 8.52267H16.0017" stroke="black" stroke-width="1.5" stroke-linecap="round" stroke-linejoin="round"/>
<path d="M16.0017 12.0002H10.9996" stroke="black" stroke-width="1.5" stroke-linecap="round" stroke-linejoin="round"/>
<path d="M10.9996 15.4777H16.0017" stroke="black" stroke-width="1.5" stroke-linecap="round" stroke-linejoin="round"/>
<circle cx="12" cy="11.9998" r="9.00375" stroke="black" stroke-width="1.5" stroke-linecap="round" stroke-linejoin="round"/>
<path d="M8.1844 8.27257C8.04641 8.27312 7.93493 8.38534 7.9353 8.52334C7.93567 8.66134 8.04774 8.77296 8.18574 8.77278C8.32373 8.77259 8.43551 8.66067 8.43551 8.52267C8.43578 8.45609 8.40938 8.39216 8.3622 8.34517C8.31502 8.29818 8.25099 8.27203 8.1844 8.27257" stroke="black" stroke-width="1.5" stroke-linecap="round" stroke-linejoin="round"/>
<path d="M8.1844 11.7501C8.04641 11.7507 7.93493 11.8629 7.9353 12.0009C7.93567 12.1389 8.04774 12.2505 8.18574 12.2503C8.32373 12.2501 8.43551 12.1382 8.43551 12.0002C8.43578 11.9336 8.40938 11.8697 8.3622 11.8227C8.31502 11.7757 8.25099 11.7496 8.1844 11.7501" stroke="black" stroke-width="1.5" stroke-linecap="round" stroke-linejoin="round"/>
<path d="M8.1844 15.2276C8.04641 15.2282 7.93493 15.3404 7.9353 15.4784C7.93567 15.6164 8.04774 15.728 8.18574 15.7279C8.32373 15.7277 8.43551 15.6158 8.43551 15.4777C8.43578 15.4112 8.40938 15.3472 8.3622 15.3002C8.31502 15.2533 8.25099 15.2271 8.1844 15.2276" stroke="black" stroke-width="1.5" stroke-linecap="round" stroke-linejoin="round"/>
</svg>
