<svg width="24" height="24" viewBox="0 0 24 24" fill="none" xmlns="http://www.w3.org/2000/svg">
<rect x="2.99625" y="3.78857" width="18.0075" height="16.0067" rx="3.6" stroke="black" stroke-width="1.5" stroke-linecap="round" stroke-linejoin="round"/>
<path d="M12.2501 11.8C12.2501 11.9381 12.1381 12.0501 12 12.0501C11.8619 12.0501 11.7499 11.9381 11.7499 11.8C11.7499 11.6619 11.8619 11.5499 12 11.5499C12.1381 11.5499 12.2501 11.6619 12.2501 11.8" stroke="black" stroke-width="1.5" stroke-linecap="round" stroke-linejoin="round"/>
<path d="M8.24844 11.7922C8.24844 11.9303 8.13646 12.0423 7.99833 12.0423C7.8602 12.0423 7.74823 11.9303 7.74823 11.7922C7.74823 11.6541 7.8602 11.5421 7.99833 11.5421C8.13646 11.5421 8.24844 11.6541 8.24844 11.7922" stroke="black" stroke-width="1.5" stroke-linecap="round" stroke-linejoin="round"/>
<path d="M16.2518 11.7819C16.2518 11.9201 16.1398 12.0321 16.0017 12.0321C15.8635 12.0321 15.7516 11.9201 15.7516 11.7819C15.7516 11.6438 15.8635 11.5318 16.0017 11.5318C16.1398 11.5318 16.2518 11.6438 16.2518 11.7819" stroke="black" stroke-width="1.5" stroke-linecap="round" stroke-linejoin="round"/>
</svg>
