<svg width="24" height="24" viewBox="0 0 24 24" fill="none" xmlns="http://www.w3.org/2000/svg">
<path d="M12 12.7503C12.4142 12.7503 12.75 12.4145 12.75 12.0003C12.75 11.5861 12.4142 11.2503 12 11.2503V12.7503ZM6.99791 11.2503C6.5837 11.2503 6.24791 11.5861 6.24791 12.0003C6.24791 12.4145 6.5837 12.7503 6.99791 12.7503V11.2503ZM15.0012 16.752C15.4155 16.752 15.7512 16.4162 15.7512 16.002C15.7512 15.5878 15.4155 15.252 15.0012 15.252V16.752ZM6.99791 15.252C6.5837 15.252 6.24791 15.5878 6.24791 16.002C6.24791 16.4162 6.5837 16.752 6.99791 16.752V15.252ZM17.0021 8.74867C17.4163 8.74867 17.7521 8.41288 17.7521 7.99867C17.7521 7.58445 17.4163 7.24867 17.0021 7.24867V8.74867ZM6.99791 7.24867C6.5837 7.24867 6.24791 7.58445 6.24791 7.99867C6.24791 8.41288 6.5837 8.74867 6.99791 8.74867V7.24867ZM12 11.2503H6.99791V12.7503H12V11.2503ZM15.0012 15.252H6.99791V16.752H15.0012V15.252ZM16.0017 20.2541H7.99833V21.7541H16.0017V20.2541ZM7.99833 20.2541C5.64997 20.2541 3.74625 18.3504 3.74625 16.002H2.24625C2.24625 19.1788 4.82154 21.7541 7.99833 21.7541V20.2541ZM3.74625 16.002V7.99867H2.24625V16.002H3.74625ZM3.74625 7.99867C3.74625 5.6503 5.64997 3.74658 7.99833 3.74658V2.24658C4.82154 2.24658 2.24625 4.82188 2.24625 7.99867H3.74625ZM7.99833 3.74658H16.0017V2.24658H7.99833V3.74658ZM16.0017 3.74658C18.35 3.74658 20.2537 5.6503 20.2537 7.99867H21.7537C21.7537 4.82188 19.1785 2.24658 16.0017 2.24658V3.74658ZM20.2537 7.99867V16.002H21.7537V7.99867H20.2537ZM20.2537 16.002C20.2537 18.3504 18.35 20.2541 16.0017 20.2541V21.7541C19.1785 21.7541 21.7537 19.1788 21.7537 16.002H20.2537ZM17.0021 7.24867H6.99791V8.74867H17.0021V7.24867Z" fill="black"/>
</svg>
