<svg width="24" height="24" viewBox="0 0 24 24" fill="none" xmlns="http://www.w3.org/2000/svg">
<path d="M10.1242 8.52267H17.0021" stroke="black" stroke-width="1.5" stroke-linecap="round" stroke-linejoin="round"/>
<path d="M17.0021 12.0002H10.1242" stroke="black" stroke-width="1.5" stroke-linecap="round" stroke-linejoin="round"/>
<path d="M10.1242 15.4777H17.0021" stroke="black" stroke-width="1.5" stroke-linecap="round" stroke-linejoin="round"/>
<rect x="2.99625" y="2.99609" width="18.0075" height="18.0075" rx="5" stroke="black" stroke-width="1.5" stroke-linecap="round" stroke-linejoin="round"/>
<path d="M7.30905 8.27257C7.17092 8.27257 7.05894 8.38454 7.05894 8.52267C7.05894 8.6608 7.17092 8.77277 7.30905 8.77277C7.44717 8.77277 7.55915 8.6608 7.55915 8.52267C7.55915 8.38454 7.44717 8.27257 7.30905 8.27257" stroke="black" stroke-width="1.5" stroke-linecap="round" stroke-linejoin="round"/>
<path d="M7.30905 11.7501C7.17092 11.7501 7.05894 11.8621 7.05894 12.0002C7.05894 12.1383 7.17092 12.2503 7.30905 12.2503C7.44717 12.2503 7.55915 12.1383 7.55915 12.0002C7.55915 11.8621 7.44717 11.7501 7.30905 11.7501" stroke="black" stroke-width="1.5" stroke-linecap="round" stroke-linejoin="round"/>
<path d="M7.30905 15.2276C7.17092 15.2276 7.05894 15.3396 7.05894 15.4777C7.05894 15.6159 7.17092 15.7279 7.30905 15.7279C7.44717 15.7279 7.55915 15.6159 7.55915 15.4777C7.55915 15.3396 7.44717 15.2276 7.30905 15.2276" stroke="black" stroke-width="1.5" stroke-linecap="round" stroke-linejoin="round"/>
</svg>
