<svg width="24" height="24" viewBox="0 0 24 24" fill="none" xmlns="http://www.w3.org/2000/svg">
<path d="M11.1246 12.0051H15.3024" stroke="black" stroke-width="1.5" stroke-linecap="round" stroke-linejoin="round"/>
<path d="M11.1246 15.9967L17.1271 16.0017" stroke="black" stroke-width="1.5" stroke-linecap="round" stroke-linejoin="round"/>
<rect x="2.99625" y="2.99609" width="18.0075" height="18.0075" rx="2" stroke="black" stroke-width="1.5" stroke-linecap="round" stroke-linejoin="round"/>
<path d="M11.1246 7.99337H17.1271" stroke="black" stroke-width="1.5" stroke-linecap="round" stroke-linejoin="round"/>
<path d="M7.12195 7.74816C6.98395 7.74871 6.87248 7.86093 6.87285 7.99892C6.87321 8.13692 6.98528 8.24855 7.12328 8.24836C7.26128 8.24818 7.37305 8.13626 7.37305 7.99826C7.37332 7.93167 7.34692 7.86775 7.29974 7.82076C7.25256 7.77377 7.18853 7.74762 7.12195 7.74816" stroke="black" stroke-width="1.5" stroke-linecap="round" stroke-linejoin="round"/>
<path d="M7.12195 11.7501C6.98395 11.7507 6.87248 11.8629 6.87285 12.0009C6.87321 12.1389 6.98528 12.2505 7.12328 12.2503C7.26128 12.2501 7.37305 12.1382 7.37305 12.0002C7.37332 11.9336 7.34692 11.8697 7.29974 11.8227C7.25256 11.7757 7.18853 11.7496 7.12195 11.7501" stroke="black" stroke-width="1.5" stroke-linecap="round" stroke-linejoin="round"/>
<path d="M7.12195 15.7521C6.98395 15.7526 6.87248 15.8648 6.87285 16.0028C6.87321 16.1408 6.98528 16.2525 7.12328 16.2523C7.26128 16.2521 7.37305 16.1402 7.37305 16.0022C7.37332 15.9356 7.34692 15.8717 7.29974 15.8247C7.25256 15.7777 7.18853 15.7515 7.12195 15.7521" stroke="black" stroke-width="1.5" stroke-linecap="round" stroke-linejoin="round"/>
</svg>
