<svg width="24" height="24" viewBox="0 0 24 24" fill="none" xmlns="http://www.w3.org/2000/svg">
<path fill-rule="evenodd" clip-rule="evenodd" d="M20.0497 14.2929C19.6592 13.9024 19.0261 13.9024 18.6356 14.2929L15.7929 17.1355C15.6054 17.3231 15.5 17.5775 15.5 17.8427V20H17.6573C17.9225 20 18.1769 19.8946 18.3644 19.7071L21.2071 16.8644C21.3946 16.6768 21.5 16.4225 21.5 16.1573C21.5 15.8921 21.3946 15.6377 21.2071 15.4502L20.0497 14.2929Z" stroke="black" stroke-width="1.5" stroke-linecap="round" stroke-linejoin="round"/>
<path d="M12 21H8C5.23858 21 3 18.7614 3 16V8C3 5.23858 5.23858 3 8 3H16C18.7614 3 21 5.23858 21 8V11" stroke="black" stroke-width="1.5" stroke-linecap="round" stroke-linejoin="round"/>
<path d="M11.55 12C11.55 12.0276 11.5276 12.05 11.5 12.05C11.4724 12.05 11.45 12.0276 11.45 12C11.45 11.9724 11.4724 11.95 11.5 11.95C11.5276 11.95 11.55 11.9724 11.55 12V12.0001" stroke="black" stroke-width="1.5" stroke-linecap="round" stroke-linejoin="round"/>
<path d="M15.05 12C15.05 12.0276 15.0276 12.05 15 12.05C14.9724 12.05 14.95 12.0276 14.95 12C14.95 11.9724 14.9724 11.95 15 11.95C15.0276 11.95 15.05 11.9724 15.05 12V12.0001" stroke="black" stroke-width="1.5" stroke-linecap="round" stroke-linejoin="round"/>
<path d="M8.05 12C8.04998 12.0276 8.02759 12.05 7.99998 12.05C7.97238 12.05 7.95 12.0276 7.95 12C7.95 11.9724 7.97238 11.95 7.99998 11.95C8.02759 11.95 8.04998 11.9724 8.05 12V12.0001" stroke="black" stroke-width="1.5" stroke-linecap="round" stroke-linejoin="round"/>
</svg>
