<svg width="24" height="24" viewBox="0 0 24 24" fill="none" xmlns="http://www.w3.org/2000/svg">
<path d="M17.5 9.50002C15.7684 9.5044 14.1653 8.58692 13.2919 7.09166V7.09166C12.9027 6.41594 12.9027 5.58409 13.2919 4.90838V4.90838C14.1653 3.41312 15.7684 2.49563 17.5 2.50002" stroke="black" stroke-width="1.5" stroke-linecap="round" stroke-linejoin="round"/>
<path d="M17.5 2.50002C19.2316 2.49563 20.8347 3.41312 21.7081 4.90838V4.90838C22.0973 5.58409 22.0973 6.41594 21.7081 7.09166V7.09166C20.8347 8.58692 19.2316 9.5044 17.5 9.50002" stroke="black" stroke-width="1.5" stroke-linecap="round" stroke-linejoin="round"/>
<path d="M10 3H6C4.34315 3 3 4.34315 3 6V15C3 16.6569 4.34315 18 6 18H8.007V20.4429C8.007 20.6567 8.12953 20.8515 8.3222 20.9441C8.51487 21.0367 8.74356 21.0107 8.91049 20.8771L12.507 18H18C19.6569 18 21 16.6569 21 15V12" stroke="black" stroke-width="1.5" stroke-linecap="round" stroke-linejoin="round"/>
<path d="M17.4646 5.96469L17.4647 5.9646C17.4842 5.94511 17.5159 5.94514 17.5354 5.96467C17.5549 5.9842 17.5549 6.01584 17.5354 6.03536C17.5158 6.05487 17.4842 6.05488 17.4647 6.03538C17.4451 6.01587 17.4451 5.98423 17.4646 5.96469" stroke="black" stroke-width="1.5" stroke-linecap="round" stroke-linejoin="round"/>
</svg>
