<svg width="24" height="24" viewBox="0 0 24 24" fill="none" xmlns="http://www.w3.org/2000/svg">
<path fill-rule="evenodd" clip-rule="evenodd" d="M11.3861 13.7305H8.99875V11.3432C8.99875 11.0983 9.0961 10.8636 9.26923 10.6905L12.9619 6.99783C13.3224 6.63744 13.9067 6.63744 14.2672 6.99783L15.7314 8.46197C16.0918 8.82246 16.0918 9.40683 15.7314 9.76732L12.0387 13.46C11.8656 13.6331 11.6309 13.7305 11.3861 13.7305V13.7305Z" stroke="black" stroke-width="1.5" stroke-linecap="round" stroke-linejoin="round"/>
<path fill-rule="evenodd" clip-rule="evenodd" d="M12.5002 18.0023H17.9955C19.653 18.0023 20.9967 16.6586 20.9967 15.0011V5.99734C20.9967 4.3398 19.653 2.99609 17.9955 2.99609H5.9905C4.33296 2.99609 2.98925 4.3398 2.98925 5.99734V15.0011C2.98925 16.6586 4.33296 18.0023 5.9905 18.0023H7.99834V20.4463C7.99834 20.6601 8.12092 20.855 8.31367 20.9477C8.50642 21.0403 8.73521 21.0143 8.9022 20.8807L12.5002 18.0023Z" stroke="black" stroke-width="1.5" stroke-linecap="round" stroke-linejoin="round"/>
</svg>
