<svg width="24" height="24" viewBox="0 0 24 24" fill="none" xmlns="http://www.w3.org/2000/svg">
<path d="M18.5027 18.5674V20.503C18.5027 20.7053 18.3808 20.8877 18.1939 20.9651C18.007 21.0425 17.7919 20.9997 17.6488 20.8567L15.3595 18.5674" stroke="black" stroke-width="1.5" stroke-linecap="round" stroke-linejoin="round"/>
<path d="M18.0025 9.49902H18.5063C19.8856 9.49902 21.0038 10.6172 21.0038 11.9965V16.0695C21.0038 17.4488 19.8856 18.567 18.5063 18.567V18.567" stroke="black" stroke-width="1.5" stroke-linecap="round" stroke-linejoin="round"/>
<path d="M15.363 18.5667H12.4967C11.1173 18.5667 9.99917 17.4485 9.99917 16.0692V15.001" stroke="black" stroke-width="1.5" stroke-linecap="round" stroke-linejoin="round"/>
<path fill-rule="evenodd" clip-rule="evenodd" d="M8.70468 11.9998L6.3512 14.3534C6.20814 14.4965 5.99299 14.5392 5.80607 14.4618C5.61916 14.3844 5.4973 14.202 5.4973 13.9997V11.9998H5.49375C4.83137 11.9998 4.19612 11.7367 3.72775 11.2683C3.25938 10.8 2.99625 10.1647 2.99625 9.50232V5.49359C2.99625 4.11426 4.11442 2.99609 5.49375 2.99609H12.5038C13.8831 2.99609 15.0013 4.11426 15.0013 5.49359V9.50232C15.0013 10.1647 14.7381 10.8 14.2698 11.2683C13.8014 11.7367 13.1661 11.9998 12.5038 11.9998H8.70468Z" stroke="black" stroke-width="1.5" stroke-linecap="round" stroke-linejoin="round"/>
</svg>
