<svg width="24" height="24" viewBox="0 0 24 24" fill="none" xmlns="http://www.w3.org/2000/svg">
<path d="M14.0008 2.99609H5.9975C4.33996 2.99609 2.99625 4.3398 2.99625 5.99734V15.0011C2.99625 16.6586 4.33996 18.0023 5.9975 18.0023H8.00534V20.4463C8.00534 20.6601 8.12792 20.855 8.32067 20.9477C8.51342 21.0403 8.74221 21.0143 8.9092 20.8807L12.5072 18.0023H18.0025C19.66 18.0023 21.0037 16.6586 21.0037 15.0011V9.99901" stroke="black" stroke-width="1.5" stroke-linecap="round" stroke-linejoin="round"/>
<path d="M6.99792 13.0002H16.0017" stroke="black" stroke-width="1.5" stroke-linecap="round" stroke-linejoin="round"/>
<path d="M6.99792 8.99923H10.9996" stroke="black" stroke-width="1.5" stroke-linecap="round" stroke-linejoin="round"/>
<path fill-rule="evenodd" clip-rule="evenodd" d="M20.7107 4.21807L19.7818 3.28912C19.5942 3.1015 19.3397 2.99609 19.0744 2.99609C18.8091 2.99609 18.5546 3.1015 18.367 3.28912L15.2943 6.36182C15.1066 6.54943 15.0013 6.80389 15.0013 7.06922V8.49839C15.0013 8.77464 15.2252 8.99859 15.5015 8.99859H16.9306C17.1959 8.99859 17.4504 8.89319 17.638 8.70557L20.7107 5.63284C21.1014 5.24216 21.1014 4.60876 20.7107 4.21807Z" stroke="black" stroke-width="1.5" stroke-linecap="round" stroke-linejoin="round"/>
</svg>
