<svg width="24" height="24" viewBox="0 0 24 24" fill="none" xmlns="http://www.w3.org/2000/svg">
<path d="M10.8885 14.7231H10.6104C8.61529 14.7231 6.99792 13.1057 6.99792 11.1106V11.1106C6.99792 9.11542 8.61529 7.49805 10.6104 7.49805H13.0004C15.2105 7.49805 17.0021 9.28965 17.0021 11.4997V11.4997C17.0037 12.8895 16.2841 14.1805 15.1013 14.9101L10.8885 17.5022V14.7231" stroke="black" stroke-width="1.5" stroke-linecap="round" stroke-linejoin="round"/>
<path fill-rule="evenodd" clip-rule="evenodd" d="M21.0037 11.9998V11.9998C21.0037 14.3878 20.0553 16.6781 18.3668 18.3666C16.6782 20.0552 14.388 21.0036 12 21.0036V21.0036C9.61201 21.0036 7.32179 20.0552 5.63322 18.3666C3.94466 16.6781 2.99625 14.3878 2.99625 11.9998V11.9998C2.99625 9.61186 3.94466 7.32163 5.63322 5.63307C7.32179 3.9445 9.61201 2.99609 12 2.99609V2.99609C14.388 2.99609 16.6782 3.9445 18.3668 5.63307C20.0553 7.32163 21.0037 9.61186 21.0037 11.9998Z" stroke="black" stroke-width="1.5" stroke-linecap="round" stroke-linejoin="round"/>
</svg>
