<svg width="24" height="24" viewBox="0 0 24 24" fill="none" xmlns="http://www.w3.org/2000/svg">
<path d="M12 13V9" stroke="black" stroke-width="1.5" stroke-linecap="round" stroke-linejoin="round"/>
<path d="M10 11H14" stroke="black" stroke-width="1.5" stroke-linecap="round" stroke-linejoin="round"/>
<path fill-rule="evenodd" clip-rule="evenodd" d="M10.5409 3.5H14.0364C15.8832 3.5 17.6545 4.23367 18.9604 5.53961C20.2663 6.84554 21 8.61677 21 10.4636V10.5359C21 14.3818 17.8823 17.4995 14.0364 17.4995H13.0131C13.0059 17.4995 13 17.5054 13 17.5126V19.775C13 20.031 12.8648 20.2679 12.6445 20.3982C12.4242 20.5285 12.1514 20.5327 11.9271 20.4094L6.90686 17.6483C4.49715 16.323 3 13.791 3 11.0409V11.0409C2.99999 9.04091 3.79447 7.12286 5.20865 5.70867C6.62284 4.29448 8.54089 3.5 10.5409 3.5V3.5Z" stroke="black" stroke-width="1.5" stroke-linecap="round" stroke-linejoin="round"/>
</svg>
