<svg width="24" height="24" viewBox="0 0 24 24" fill="none" xmlns="http://www.w3.org/2000/svg">
<path fill-rule="evenodd" clip-rule="evenodd" d="M9.58582 19L11.2929 20.7071C11.6834 21.0976 12.3166 21.0976 12.7071 20.7071L14.4142 19H18C19.6569 19 21 17.6569 21 16V6C21 4.34315 19.6569 3 18 3H6C4.34315 3 3 4.34315 3 6V16C3 17.6569 4.34315 19 6 19H9.58582Z" stroke="black" stroke-width="1.5" stroke-linecap="round" stroke-linejoin="round"/>
<path d="M7.5 14V8" stroke="black" stroke-width="1.5" stroke-linecap="round" stroke-linejoin="round"/>
<path fill-rule="evenodd" clip-rule="evenodd" d="M11.2929 11.3664L14.3664 8.29288C14.7569 7.90237 15.3901 7.90237 15.7806 8.29288L16.7071 9.21938C17.0976 9.60991 17.0976 10.2431 16.7071 10.6336L13.6336 13.7071C13.4461 13.8946 13.1917 14 12.9265 14H11.5C11.2239 14 11 13.7761 11 13.5V12.0735C11 11.8083 11.1054 11.5539 11.2929 11.3664V11.3664Z" stroke="black" stroke-width="1.5" stroke-linecap="round" stroke-linejoin="round"/>
</svg>
