<svg width="24" height="24" viewBox="0 0 24 24" fill="none" xmlns="http://www.w3.org/2000/svg">
<path fill-rule="evenodd" clip-rule="evenodd" d="M9.30048 17.2857L11.136 19.7337C11.568 20.3097 12.432 20.3097 12.864 19.7337L14.6995 17.2857H17.76C19.3507 17.2857 20.64 15.9965 20.64 14.4057V5.76574C20.64 4.17502 19.3507 2.88574 17.76 2.88574H6.24C4.64928 2.88574 3.36 4.17502 3.36 5.76574V14.4057C3.36 15.9965 4.64928 17.2857 6.24 17.2857H9.30048Z" stroke="black" stroke-width="1.5" stroke-linecap="round" stroke-linejoin="round"/>
<path fill-rule="evenodd" clip-rule="evenodd" d="M12 7.54759C12.3427 7.16071 12.936 6.72583 13.8393 6.72583C15.4205 6.72583 16.4803 8.15527 16.4803 9.48775C16.4803 12.2717 12.8861 14.4058 12 14.4058C11.1139 14.4058 7.51967 12.2717 7.51967 9.48775C7.51967 8.15527 8.57951 6.72583 10.1606 6.72583C11.064 6.72583 11.6573 7.16071 12 7.54759Z" stroke="black" stroke-width="1.5" stroke-linecap="round" stroke-linejoin="round"/>
</svg>
