<svg width="24" height="24" viewBox="0 0 24 24" fill="none" xmlns="http://www.w3.org/2000/svg">
<path fill-rule="evenodd" clip-rule="evenodd" d="M21 7.542C21 5.034 18.966 3 16.458 3C13.95 3 11.918 5.034 11.916 7.54L16.458 12.082C18.966 12.082 21 10.05 21 7.542Z" stroke="black" stroke-width="1.5" stroke-linecap="round" stroke-linejoin="round"/>
<path d="M19 20L3 4" stroke="black" stroke-width="1.5" stroke-linecap="round" stroke-linejoin="round"/>
<path d="M7.91199 13.4551L6.50899 15.3111C6.19699 15.7241 6.23799 16.3021 6.60299 16.6681L7.33399 17.3991C7.69899 17.7651 8.27799 17.8041 8.69099 17.4931L10.547 16.0901" stroke="black" stroke-width="1.5" stroke-linecap="round" stroke-linejoin="round"/>
<path d="M16.19 11.8201L13.13 14.1301" stroke="black" stroke-width="1.5" stroke-linecap="round" stroke-linejoin="round"/>
<path d="M12.18 7.81006L9.87 10.8701" stroke="black" stroke-width="1.5" stroke-linecap="round" stroke-linejoin="round"/>
<path d="M6.96801 17.032L4.55701 19.443" stroke="black" stroke-width="1.5" stroke-linecap="round" stroke-linejoin="round"/>
</svg>
