<svg width="24" height="24" viewBox="0 0 24 24" fill="none" xmlns="http://www.w3.org/2000/svg">
<path fill-rule="evenodd" clip-rule="evenodd" d="M16.9076 9.59645C16.5187 7.96805 14.9972 6.86899 13.3291 7.01142C11.6609 7.15384 10.3478 8.49492 10.2405 10.1657C10.2342 10.3099 10.2896 10.4499 10.3928 10.5508L13.4557 13.6146C13.5567 13.7182 13.6973 13.7733 13.8417 13.7659C14.8374 13.7001 15.7533 13.1981 16.3444 12.3942C16.9355 11.5903 17.1416 10.5665 16.9076 9.59645V9.59645Z" stroke="black" stroke-width="1.5" stroke-linecap="round" stroke-linejoin="round"/>
<path d="M10.4272 10.585L7.19919 14.8555C6.89972 15.2517 6.93821 15.808 7.28938 16.1592L7.84071 16.7105C8.19195 17.0618 8.74845 17.1002 9.14464 16.8005L13.414 13.5711" stroke="black" stroke-width="1.5" stroke-linecap="round" stroke-linejoin="round"/>
<circle cx="12" cy="11.9998" r="9.00375" stroke="black" stroke-width="1.5" stroke-linecap="round" stroke-linejoin="round"/>
</svg>
