<svg width="24" height="24" viewBox="0 0 24 24" fill="none" xmlns="http://www.w3.org/2000/svg">
<path d="M12.0009 15.5015C10.0671 15.5015 8.49946 13.9338 8.49946 12" stroke="black" stroke-width="1.5" stroke-linecap="round" stroke-linejoin="round"/>
<path d="M8.49946 9.50017V9.50024" stroke="black" stroke-width="1.5" stroke-linecap="round" stroke-linejoin="round"/>
<path d="M8.49946 12.0005V8.5" stroke="black" stroke-width="1.5" stroke-linecap="round" stroke-linejoin="round"/>
<path d="M17.0435 17.0437C14.8495 19.0466 11.6795 19.5645 8.96215 18.3638C6.24482 17.1632 4.49326 14.4708 4.49687 11.5" stroke="black" stroke-width="1.5" stroke-linecap="round" stroke-linejoin="round"/>
<path d="M12 19.0029V21.0038" stroke="black" stroke-width="1.5" stroke-linecap="round" stroke-linejoin="round"/>
<path d="M20.0033 20.0037L3.99667 3.99707" stroke="black" stroke-width="1.5" stroke-linecap="round" stroke-linejoin="round"/>
<path d="M15.5024 10.9998V6.49793C15.5094 4.88202 14.4051 3.47305 12.8344 3.09381C11.2636 2.71457 9.63804 3.46446 8.90704 4.90559" stroke="black" stroke-width="1.5" stroke-linecap="round" stroke-linejoin="round"/>
<path d="M19.5031 11.5C19.4999 12.6247 19.2406 13.7339 18.7449 14.7435" stroke="black" stroke-width="1.5" stroke-linecap="round" stroke-linejoin="round"/>
<path d="M14.4763 14.4766C13.8204 15.134 12.9296 15.5029 12.0009 15.5017" stroke="black" stroke-width="1.5" stroke-linecap="round" stroke-linejoin="round"/>
</svg>
