<svg width="24" height="24" viewBox="0 0 24 24" fill="none" xmlns="http://www.w3.org/2000/svg">
<path fill-rule="evenodd" clip-rule="evenodd" d="M8.99875 15.0016V15.0016C7.34106 15.0016 5.9975 13.658 5.9975 12.0003V5.99783C5.9975 4.34014 7.34106 2.99658 8.99875 2.99658V2.99658C10.6564 2.99658 12 4.34014 12 5.99783V12.0003C12 13.658 10.6564 15.0016 8.99875 15.0016Z" stroke="black" stroke-width="1.5" stroke-linecap="round" stroke-linejoin="round"/>
<path d="M15.0013 11V12.0004C15.0013 15.3158 12.3141 18.0029 8.99875 18.0029V18.0029C5.68337 18.0029 2.99625 15.3158 2.99625 12.0004V11" stroke="black" stroke-width="1.5" stroke-linecap="round" stroke-linejoin="round"/>
<path d="M8.99875 18.0029V21.0042" stroke="black" stroke-width="1.5" stroke-linecap="round" stroke-linejoin="round"/>
<path d="M5.9975 21.0041H12" stroke="black" stroke-width="1.5" stroke-linecap="round" stroke-linejoin="round"/>
<path d="M20.9177 5.9117L18.0885 3.08252" stroke="black" stroke-width="1.5" stroke-linecap="round" stroke-linejoin="round"/>
<path d="M21.0037 2.99658L18.0025 5.99783" stroke="black" stroke-width="1.5" stroke-linecap="round" stroke-linejoin="round"/>
</svg>
