<svg width="24" height="24" viewBox="0 0 24 24" fill="none" xmlns="http://www.w3.org/2000/svg">
<path fill-rule="evenodd" clip-rule="evenodd" d="M8.99875 15.0016V15.0016C7.3412 15.0016 5.9975 13.6579 5.9975 12.0003V5.99783C5.9975 4.34029 7.3412 2.99658 8.99875 2.99658V2.99658C10.6563 2.99658 12 4.34029 12 5.99783V12.0003C12 13.6579 10.6563 15.0016 8.99875 15.0016Z" stroke="black" stroke-width="1.5" stroke-linecap="round" stroke-linejoin="round"/>
<path d="M21.0038 2.99658L18.0025 5.99783L16.2018 4.19708" stroke="black" stroke-width="1.5" stroke-linecap="round" stroke-linejoin="round"/>
<path d="M15.0013 10.9995V11.9999C15.0013 15.315 12.3138 18.0024 8.99875 18.0024V18.0024C5.68366 18.0024 2.99625 15.315 2.99625 11.9999V10.9995" stroke="black" stroke-width="1.5" stroke-linecap="round" stroke-linejoin="round"/>
<path d="M8.99875 18.0024V21.0037" stroke="black" stroke-width="1.5" stroke-linecap="round" stroke-linejoin="round"/>
<path d="M5.9975 21.0036H12" stroke="black" stroke-width="1.5" stroke-linecap="round" stroke-linejoin="round"/>
</svg>
