<svg width="24" height="24" viewBox="0 0 24 24" fill="none" xmlns="http://www.w3.org/2000/svg">
<path fill-rule="evenodd" clip-rule="evenodd" d="M17.3922 9.11626C17.0012 7.47912 15.4716 6.37416 13.7945 6.51734C12.1175 6.66052 10.7973 8.00877 10.6895 9.6885C10.6831 9.83344 10.7388 9.97424 10.8425 10.0757L13.9218 13.1559C14.0233 13.26 14.1647 13.3154 14.31 13.308C15.311 13.2419 16.2317 12.7372 16.826 11.929C17.4203 11.1208 17.6275 10.0915 17.3922 9.11626V9.11626Z" stroke="black" stroke-width="1.5" stroke-linecap="round" stroke-linejoin="round"/>
<path d="M7.47912 16.521L6.51672 17.4834" stroke="black" stroke-width="1.5" stroke-linecap="round" stroke-linejoin="round"/>
<path d="M10.8805 10.1172L7.18499 15.0062C6.8835 15.4048 6.92236 15.9647 7.27603 16.3178L7.6832 16.7249C8.03684 17.0809 8.59945 17.1198 8.99875 16.816L13.8858 13.1194" stroke="black" stroke-width="1.5" stroke-linecap="round" stroke-linejoin="round"/>
<rect x="21.0038" y="21.0039" width="18.0075" height="18.0075" rx="5" transform="rotate(180 21.0038 21.0039)" stroke="black" stroke-width="1.5" stroke-linecap="round" stroke-linejoin="round"/>
</svg>
