<svg width="24" height="24" viewBox="0 0 24 24" fill="none" xmlns="http://www.w3.org/2000/svg">
<path fill-rule="evenodd" clip-rule="evenodd" d="M18 21H6C4.343 21 3 19.657 3 18V6C3 4.343 4.343 3 6 3H18C19.657 3 21 4.343 21 6V18C21 19.657 19.657 21 18 21Z" stroke="black" stroke-width="1.5" stroke-linecap="round" stroke-linejoin="round"/>
<path d="M16.25 11.9971C16.25 14.3441 14.347 16.2471 12 16.2471V16.2471C9.653 16.2471 7.75 14.3441 7.75 11.9971" stroke="black" stroke-width="1.5" stroke-linecap="round" stroke-linejoin="round"/>
<path fill-rule="evenodd" clip-rule="evenodd" d="M10.5 12.034C10.5 12.862 11.172 13.534 12 13.534V13.534C12.828 13.534 13.5 12.862 13.5 12.034V8.00098C13.5 7.17298 12.828 6.50098 12 6.50098V6.50098C11.172 6.50098 10.5 7.17298 10.5 8.00098V12.034V12.034Z" stroke="black" stroke-width="1.5" stroke-linecap="round" stroke-linejoin="round"/>
<path d="M12 16.25V17.68" stroke="black" stroke-width="1.5" stroke-linecap="round" stroke-linejoin="round"/>
</svg>
