<svg width="24" height="24" viewBox="0 0 24 24" fill="none" xmlns="http://www.w3.org/2000/svg">
<path fill-rule="evenodd" clip-rule="evenodd" d="M13.877 12.9029L11.097 10.1229C11.098 8.42295 12.624 7.07895 14.381 7.38795C15.499 7.58395 16.417 8.50195 16.613 9.61995C16.921 11.3759 15.577 12.9029 13.877 12.9029V12.9029Z" stroke="black" stroke-width="1.5" stroke-linecap="round" stroke-linejoin="round"/>
<path d="M11.259 10.2849L7.637 14.2949C7.28 14.6899 7.295 15.2959 7.672 15.6719L8.328 16.3279C8.705 16.7049 9.31 16.7199 9.705 16.3629L13.715 12.7409" stroke="black" stroke-width="1.5" stroke-linecap="round" stroke-linejoin="round"/>
<path d="M18.364 5.63604C21.8787 9.15076 21.8787 14.8492 18.364 18.3639C14.8493 21.8787 9.1508 21.8787 5.6361 18.3639C2.12138 14.8492 2.12138 9.15074 5.6361 5.63604C9.15082 2.12132 14.8493 2.12132 18.364 5.63604" stroke="black" stroke-width="1.5" stroke-linecap="round" stroke-linejoin="round"/>
</svg>
