<svg width="24" height="24" viewBox="0 0 24 24" fill="none" xmlns="http://www.w3.org/2000/svg">
<path fill-rule="evenodd" clip-rule="evenodd" d="M6.051 13.101L10.102 9.05C10.101 6.814 8.288 5 6.051 5C3.814 5 2 6.814 2 9.051C2 11.288 3.814 13.101 6.051 13.101Z" stroke="black" stroke-width="1.5" stroke-linecap="round" stroke-linejoin="round"/>
<path d="M9.865 9.28711L14.926 15.9811C15.204 16.3491 15.168 16.8651 14.842 17.1911L14.19 17.8431C13.864 18.1691 13.348 18.2041 12.98 17.9271L6.286 12.8661" stroke="black" stroke-width="1.5" stroke-linecap="round" stroke-linejoin="round"/>
<path d="M22 11L20.254 9.25402C19.303 8.30302 17.762 8.30302 16.811 9.25402V9.25402C15.86 10.205 15.86 11.746 16.811 12.697L18.073 13.959L19.278 15.164C20.26 16.146 20.26 17.739 19.278 18.721V18.721C18.296 19.703 16.703 19.703 15.721 18.721L14.516 17.516" stroke="black" stroke-width="1.5" stroke-linecap="round" stroke-linejoin="round"/>
</svg>
