<svg width="24" height="24" viewBox="0 0 24 24" fill="none" xmlns="http://www.w3.org/2000/svg">
<path fill-rule="evenodd" clip-rule="evenodd" d="M10.5 12.604C10.5 13.432 11.172 14.104 12 14.104V14.104C12.828 14.104 13.5 13.432 13.5 12.604V8.57104C13.5 7.74304 12.828 7.07104 12 7.07104V7.07104C11.172 7.07104 10.5 7.74304 10.5 8.57104V12.604Z" stroke="black" stroke-width="1.5" stroke-linecap="round" stroke-linejoin="round"/>
<path d="M18.364 5.63604C21.8787 9.15076 21.8787 14.8492 18.364 18.3639C14.8493 21.8787 9.1508 21.8787 5.6361 18.3639C2.12138 14.8492 2.12138 9.15074 5.6361 5.63604C9.15082 2.12132 14.8493 2.12132 18.364 5.63604" stroke="black" stroke-width="1.5" stroke-linecap="round" stroke-linejoin="round"/>
<path d="M16.25 12.0349V12.5669C16.25 14.9139 14.347 16.8169 12 16.8169V16.8169C9.653 16.8169 7.75 14.9139 7.75 12.5669V12.0349" stroke="black" stroke-width="1.5" stroke-linecap="round" stroke-linejoin="round"/>
</svg>
