<svg width="24" height="24" viewBox="0 0 24 24" fill="none" xmlns="http://www.w3.org/2000/svg">
<path fill-rule="evenodd" clip-rule="evenodd" d="M12 13.6551V13.6551C10.9033 13.6551 10.0142 12.766 10.0142 11.6693V8.35887C10.0142 7.26213 10.9033 6.37305 12 6.37305V6.37305C13.0967 6.37305 13.9858 7.26213 13.9858 8.35887V11.6693C13.9858 12.766 13.0967 13.6551 12 13.6551Z" stroke="black" stroke-width="1.5" stroke-linecap="round" stroke-linejoin="round"/>
<path d="M16.5019 11.7754C16.5019 14.2617 14.4863 16.2773 12 16.2773V16.2773C9.51369 16.2773 7.49813 14.2617 7.49813 11.7754" stroke="black" stroke-width="1.5" stroke-linecap="round" stroke-linejoin="round"/>
<path d="M12 17.6279V16.2773" stroke="black" stroke-width="1.5" stroke-linecap="round" stroke-linejoin="round"/>
<path d="M17.0021 17.002L20.0033 20.0032" stroke="black" stroke-width="1.5" stroke-linecap="round" stroke-linejoin="round"/>
<path d="M17.0021 20.0032L20.0033 17.002" stroke="black" stroke-width="1.5" stroke-linecap="round" stroke-linejoin="round"/>
<path d="M13.0004 20.9416C12.6685 20.9825 12.3344 21.0032 12 21.0036C7.02737 21.0036 2.99625 16.9725 2.99625 11.9998C2.99625 7.02721 7.02737 2.99609 12 2.99609C16.9726 2.99609 21.0038 7.02721 21.0038 11.9998C21.0034 12.3343 20.9827 12.6684 20.9417 13.0003" stroke="black" stroke-width="1.5" stroke-linecap="round" stroke-linejoin="round"/>
</svg>
