<svg width="24" height="24" viewBox="0 0 24 24" fill="none" xmlns="http://www.w3.org/2000/svg">
<path fill-rule="evenodd" clip-rule="evenodd" d="M6.79784 19.8035L4.09671 17.1024C3.37271 16.3517 2.97682 15.344 2.99625 14.3013V9.69933C2.96645 8.63478 3.40531 7.61076 4.19675 6.89817L6.89788 4.19704C7.61047 3.4056 8.63449 2.96674 9.69904 2.99654H14.401C15.4656 2.96674 16.4896 3.4056 17.2022 4.19704L19.9033 6.89817C20.6273 7.64886 21.0232 8.65657 21.0038 9.69933V14.4013C21.0336 15.4658 20.5947 16.4899 19.8033 17.2025L17.1021 19.9036C16.3665 20.6623 15.3577 21.0947 14.301 21.1041H9.69904C8.6074 21.0321 7.57787 20.5706 6.79784 19.8035Z" stroke="black" stroke-width="1.5" stroke-linecap="round" stroke-linejoin="round"/>
<path d="M8.99875 12.0002H15.0012" stroke="black" stroke-width="1.5" stroke-linecap="round" stroke-linejoin="round"/>
</svg>
