<svg width="24" height="24" viewBox="0 0 24 24" fill="none" xmlns="http://www.w3.org/2000/svg">
<path d="M9.5 17H14.5" stroke="black" stroke-width="1.3944" stroke-linecap="round" stroke-linejoin="round"/>
<path fill-rule="evenodd" clip-rule="evenodd" d="M16 14.5H8C7.44772 14.5 7 14.0523 7 13.5V9.5C7 8.94772 7.44772 8.5 8 8.5H16C16.5523 8.5 17 8.94772 17 9.5V13.5C16.9984 14.0516 16.5516 14.4984 16 14.5Z" stroke="black" stroke-width="1.5275" stroke-linecap="round" stroke-linejoin="round"/>
<path d="M20.582 9.353C20.8551 10.209 20.996 11.1016 21 12C21 16.9706 16.9706 21 12 21C7.02944 21 3 16.9706 3 12C3 7.02944 7.02944 3 12 3C12.8984 3.00399 13.791 3.14495 14.647 3.418" stroke="black" stroke-width="1.5" stroke-linecap="round" stroke-linejoin="round"/>
<path d="M17.7989 5.06172L19 6.26172L20.9989 4.26172" stroke="black" stroke-width="1.5" stroke-linecap="round" stroke-linejoin="round"/>
</svg>
