<svg width="24" height="24" viewBox="0 0 24 24" fill="none" xmlns="http://www.w3.org/2000/svg">
<path d="M18.3666 5.63379L5.63379 18.3666" stroke="black" stroke-width="1.5" stroke-linecap="round" stroke-linejoin="round"/>
<path d="M8.38961 15.6107C8.39675 15.6179 8.40121 15.6267 8.40841 15.6339C10.4242 17.5964 13.6491 17.554 15.6125 15.5391C16.2626 14.8881 16.7266 14.075 16.9565 13.1843C16.9893 13.0687 16.9529 12.9446 16.863 12.8651C16.773 12.7855 16.6454 12.7646 16.5347 12.8112C15.0087 13.5559 13.1795 13.2628 11.9624 12.0786C11.9555 12.0716 11.9506 12.0636 11.9437 12.0566" stroke="black" stroke-width="1.5" stroke-linecap="round" stroke-linejoin="round"/>
<path d="M8.38961 15.6107L11.9437 12.0566" stroke="black" stroke-width="1.5" stroke-linecap="round" stroke-linejoin="round"/>
<path d="M10.914 10.0853C10.7437 9.21423 10.8547 8.31158 11.2312 7.50783C11.2778 7.39715 11.2568 7.26955 11.1772 7.17961C11.0976 7.08967 10.9735 7.05331 10.858 7.08609C9.46714 7.44676 8.28868 8.36917 7.60451 9.63271C6.92034 10.8962 6.79198 12.3873 7.25013 13.7491" stroke="black" stroke-width="1.5" stroke-linecap="round" stroke-linejoin="round"/>
<circle cx="12" cy="11.9998" r="9.00375" stroke="black" stroke-width="1.5" stroke-linecap="round" stroke-linejoin="round"/>
</svg>
