<svg width="24" height="24" viewBox="0 0 24 24" fill="none" xmlns="http://www.w3.org/2000/svg">
<path fill-rule="evenodd" clip-rule="evenodd" d="M16.0017 2.99609H7.99833C5.23576 2.99609 2.99625 5.2356 2.99625 7.99818V16.0015C2.99625 18.7641 5.23576 21.0036 7.99833 21.0036H16.0017C18.7642 21.0036 21.0037 18.7641 21.0037 16.0015V7.99818C21.0037 5.2356 18.7642 2.99609 16.0017 2.99609Z" stroke="black" stroke-width="1.5" stroke-linecap="round" stroke-linejoin="round"/>
<path fill-rule="evenodd" clip-rule="evenodd" d="M7.43018 12.7342C7.31944 12.6878 7.19192 12.7089 7.10205 12.7886C7.01218 12.8682 6.97583 12.9922 7.00853 13.1077C7.23803 13.9987 7.70205 14.8119 8.35234 15.4627C9.61067 16.7893 11.4898 17.3284 13.2601 16.8708C15.0303 16.4131 16.4127 15.0307 16.8704 13.2605C17.328 11.4902 16.7889 9.61107 15.4623 8.35275C14.8115 7.70246 13.9984 7.23842 13.1074 7.0089C12.9919 6.9762 12.8679 7.01254 12.7883 7.10241C12.7086 7.19228 12.6875 7.3198 12.7339 7.43054C13.5031 8.95259 13.208 10.7965 12.0021 12.0024C10.7962 13.2083 8.95223 13.5034 7.43018 12.7342V12.7342Z" stroke="black" stroke-width="1.5" stroke-linecap="round" stroke-linejoin="round"/>
</svg>
