<svg width="24" height="24" viewBox="0 0 24 24" fill="none" xmlns="http://www.w3.org/2000/svg">
<path fill-rule="evenodd" clip-rule="evenodd" d="M19.7149 7.19452L18.1987 8.71069C17.8141 9.09531 17.1905 9.09531 16.8059 8.71069L15.2897 7.19452C14.9051 6.8099 14.9051 6.18632 15.2897 5.8017L16.8059 4.28553C17.1905 3.90092 17.8141 3.90092 18.1987 4.28553L19.7149 5.8017C20.0995 6.18632 20.0995 6.8099 19.7149 7.19452Z" stroke="black" stroke-width="1.5" stroke-linecap="round" stroke-linejoin="round"/>
<path fill-rule="evenodd" clip-rule="evenodd" d="M10.8131 4.71637C10.8973 4.54262 10.8739 4.33587 10.7528 4.18542C10.6318 4.03496 10.4349 3.96776 10.2471 4.01284C8.81401 4.37791 7.50568 5.12217 6.45954 6.16745C3.23638 9.30831 3.16879 14.4671 6.30854 17.6913C9.53277 20.8311 14.6916 20.7635 17.8324 17.5403C18.8777 16.4942 19.622 15.1859 19.9871 13.7528C20.0321 13.5651 19.965 13.3682 19.8145 13.2471C19.664 13.1261 19.4573 13.1026 19.2836 13.1869C16.8472 14.3653 13.9339 13.8931 11.9945 12.0054C10.1068 10.066 9.63459 7.15269 10.8131 4.71637Z" stroke="black" stroke-width="1.5" stroke-linecap="round" stroke-linejoin="round"/>
</svg>
