<svg width="24" height="24" viewBox="0 0 24 24" fill="none" xmlns="http://www.w3.org/2000/svg">
<path fill-rule="evenodd" clip-rule="evenodd" d="M17.0099 12.8148C17.1293 12.7569 17.2715 12.773 17.3749 12.8562C17.4783 12.9395 17.5245 13.0749 17.4934 13.2039C17.242 14.1892 16.7302 15.0887 16.0117 15.8082C14.6277 17.2666 12.5614 17.859 10.6149 17.3554C8.66853 16.8519 7.14868 15.3318 6.64554 13.3853C6.1424 11.4387 6.73523 9.3725 8.19384 7.98884C8.90968 7.27357 9.80408 6.76317 10.784 6.51072C10.9157 6.47902 11.0538 6.52606 11.1387 6.63151C11.2236 6.73696 11.2401 6.88193 11.1811 7.00379C10.3516 8.67505 10.683 10.6895 12.0044 12.0068C13.3257 13.3241 15.3412 13.6495 17.0099 12.8148V12.8148Z" stroke="black" stroke-width="1.5" stroke-linecap="round" stroke-linejoin="round"/>
<rect x="2.99625" y="2.99609" width="18.0075" height="18.0075" rx="5" stroke="black" stroke-width="1.5" stroke-linecap="round" stroke-linejoin="round"/>
<path fill-rule="evenodd" clip-rule="evenodd" d="M17.2768 8.7921L16.293 9.77584C15.9935 10.0754 15.5079 10.0754 15.2083 9.77584L14.2246 8.7921C13.9251 8.49257 13.9251 8.00694 14.2246 7.70742L15.2083 6.72367C15.5079 6.42414 15.9935 6.42414 16.293 6.72367L17.2768 7.70742C17.5763 8.00694 17.5763 8.49257 17.2768 8.7921Z" stroke="black" stroke-width="1.5" stroke-linecap="round" stroke-linejoin="round"/>
</svg>
