<svg width="24" height="24" viewBox="0 0 24 24" fill="none" xmlns="http://www.w3.org/2000/svg">
<path d="M6.075 18.763C4.612 17.48 3.565 15.735 3.173 13.75" stroke="black" stroke-width="1.5" stroke-linecap="round" stroke-linejoin="round"/>
<path d="M3.173 10.2501C3.564 8.26506 4.611 6.52106 6.075 5.23706" stroke="black" stroke-width="1.5" stroke-linecap="round" stroke-linejoin="round"/>
<path d="M20.827 13.75C20.435 15.735 19.388 17.48 17.925 18.763" stroke="black" stroke-width="1.5" stroke-linecap="round" stroke-linejoin="round"/>
<path d="M14.896 20.5151C13.986 20.8251 13.014 21.0001 12 21.0001C10.986 21.0001 10.014 20.8251 9.104 20.5151" stroke="black" stroke-width="1.5" stroke-linecap="round" stroke-linejoin="round"/>
<path d="M14.896 3.48493C13.986 3.17493 13.014 2.99993 12 2.99993C10.986 2.99993 10.014 3.17493 9.104 3.48493" stroke="black" stroke-width="1.5" stroke-linecap="round" stroke-linejoin="round"/>
<path d="M17.925 5.23706C19.389 6.52106 20.436 8.26506 20.827 10.2501" stroke="black" stroke-width="1.5" stroke-linecap="round" stroke-linejoin="round"/>
<path fill-rule="evenodd" clip-rule="evenodd" d="M15.627 12.6649C15.816 12.5759 16.018 12.7619 15.965 12.9639C15.785 13.6519 15.432 14.3069 14.888 14.8509C13.273 16.4659 10.689 16.4999 9.11499 14.9269C7.54099 13.3539 7.57599 10.7689 9.19099 9.15395C9.73499 8.60995 10.389 8.25695 11.078 8.07695C11.28 8.02395 11.466 8.22595 11.377 8.41495C10.804 9.63995 10.992 11.1069 11.963 12.0779C12.935 13.0499 14.403 13.2379 15.627 12.6649Z" stroke="black" stroke-width="1.5" stroke-linecap="round" stroke-linejoin="round"/>
</svg>
