<svg width="24" height="24" viewBox="0 0 24 24" fill="none" xmlns="http://www.w3.org/2000/svg">
<path d="M3.99667 3.99707L21.0037 21.0042" stroke="black" stroke-width="1.5" stroke-linecap="round" stroke-linejoin="round"/>
<path d="M11.5038 11.502C9.4355 13.5161 6.32511 14.0143 3.73121 12.7469C3.5429 12.6681 3.32608 12.704 3.17329 12.8394C3.0205 12.9748 2.95873 13.1857 3.01433 13.3822C3.40505 14.8968 4.1942 16.2791 5.29979 17.3856C8.63887 20.8112 14.1222 20.883 17.5498 17.5459" stroke="black" stroke-width="1.5" stroke-linecap="round" stroke-linejoin="round"/>
<path d="M12.9756 9.19397C13.6414 7.41703 13.5593 5.4462 12.7479 3.73083C12.6694 3.5425 12.7055 3.32584 12.8409 3.17316C12.9762 3.02049 13.187 2.95872 13.3834 3.01418C15.9306 3.67509 18.0494 5.43938 19.1606 7.82482C20.2718 10.2103 20.2592 12.9674 19.1263 15.3426" stroke="black" stroke-width="1.5" stroke-linecap="round" stroke-linejoin="round"/>
</svg>
