<svg width="24" height="24" viewBox="0 0 24 24" fill="none" xmlns="http://www.w3.org/2000/svg">
<path d="M18.364 5.63604C21.8787 9.15076 21.8787 14.8492 18.364 18.3639C14.8493 21.8787 9.1508 21.8787 5.6361 18.3639C2.12138 14.8492 2.12138 9.15074 5.6361 5.63604C9.15082 2.12132 14.8493 2.12132 18.364 5.63604" stroke="black" stroke-width="1.5" stroke-linecap="round" stroke-linejoin="round"/>
<path fill-rule="evenodd" clip-rule="evenodd" d="M15.627 12.6649C15.816 12.5759 16.018 12.7619 15.965 12.9639C15.785 13.6519 15.432 14.3069 14.888 14.8509C13.273 16.4659 10.689 16.4999 9.115 14.9269C7.541 13.3539 7.576 10.7689 9.191 9.15395C9.735 8.60995 10.389 8.25695 11.078 8.07695C11.28 8.02395 11.466 8.22595 11.377 8.41495C10.804 9.63995 10.992 11.1069 11.963 12.0779C12.935 13.0499 14.403 13.2379 15.627 12.6649Z" stroke="black" stroke-width="1.5" stroke-linecap="round" stroke-linejoin="round"/>
</svg>
