<svg width="24" height="24" viewBox="0 0 24 24" fill="none" xmlns="http://www.w3.org/2000/svg">
<path fill-rule="evenodd" clip-rule="evenodd" d="M17.2768 8.79209L16.293 9.77584C15.9935 10.0754 15.5079 10.0754 15.2083 9.77584L14.2246 8.79209C13.9251 8.49256 13.9251 8.00693 14.2246 7.70741L15.2083 6.72367C15.5079 6.42414 15.9935 6.42414 16.293 6.72367L17.2768 7.70741C17.5763 8.00693 17.5763 8.49256 17.2768 8.79209Z" stroke="black" stroke-width="1.5" stroke-linecap="round" stroke-linejoin="round"/>
<circle cx="12" cy="12.0001" r="9.50396" stroke="black" stroke-width="1.5" stroke-linecap="round" stroke-linejoin="round"/>
<path fill-rule="evenodd" clip-rule="evenodd" d="M11.2942 7.37497C11.3424 7.29099 11.3377 7.18668 11.2821 7.10736C11.2266 7.02804 11.1301 6.98803 11.0347 7.00472C10.0873 7.21822 9.2197 7.69572 8.53244 8.38194C7.21133 9.63625 6.67477 11.5086 7.13103 13.2723C7.5873 15.0359 8.96454 16.4131 10.7282 16.8694C12.4918 17.3257 14.3642 16.7891 15.6185 15.468C16.3047 14.7808 16.7823 13.9132 16.9958 12.9658C17.0125 12.8704 16.9725 12.7739 16.8931 12.7183C16.8138 12.6628 16.7095 12.6581 16.6255 12.7063C15.0952 13.526 13.2087 13.2469 11.9811 12.0194C10.7536 10.7918 10.4746 8.90531 11.2942 7.37497H11.2942Z" stroke="black" stroke-width="1.5" stroke-linecap="round" stroke-linejoin="round"/>
</svg>
