<svg width="24" height="24" viewBox="0 0 24 24" fill="none" xmlns="http://www.w3.org/2000/svg">
<path d="M14.0008 3.22669C10.0749 2.32162 6.02434 4.1262 4.07165 7.65024C2.11897 11.1743 2.73646 15.5655 5.5853 18.4143C8.43413 21.2632 12.8253 21.8807 16.3494 19.928C19.8734 17.9753 21.678 13.9247 20.7729 9.9988" stroke="black" stroke-width="1.5" stroke-linecap="round" stroke-linejoin="round"/>
<path d="M17.2522 5.24826H20.2534" stroke="black" stroke-width="1.5" stroke-linecap="round" stroke-linejoin="round"/>
<path d="M18.7519 6.74832V3.74707" stroke="black" stroke-width="1.5" stroke-linecap="round" stroke-linejoin="round"/>
<path fill-rule="evenodd" clip-rule="evenodd" d="M11.2942 7.37497C11.3424 7.29099 11.3377 7.18668 11.2822 7.10736C11.2266 7.02804 11.1301 6.98803 11.0347 7.00472C10.0873 7.21822 9.21971 7.69572 8.53245 8.38194C7.21133 9.63625 6.67477 11.5086 7.13104 13.2723C7.5873 15.0359 8.96455 16.4131 10.7282 16.8694C12.4918 17.3257 14.3642 16.7891 15.6185 15.468C16.3047 14.7808 16.7823 13.9132 16.9958 12.9658C17.0125 12.8704 16.9725 12.7739 16.8931 12.7183C16.8138 12.6628 16.7095 12.6581 16.6255 12.7063C15.0952 13.526 13.2087 13.2469 11.9811 12.0194C10.7536 10.7918 10.4746 8.90531 11.2942 7.37497H11.2942Z" stroke="black" stroke-width="1.5" stroke-linecap="round" stroke-linejoin="round"/>
</svg>
