<svg width="24" height="24" viewBox="0 0 24 24" fill="none" xmlns="http://www.w3.org/2000/svg">
<path d="M17.5023 2.99609H21.0038L17.5023 6.99776H21.0038" stroke="black" stroke-width="1.5" stroke-linecap="round" stroke-linejoin="round"/>
<path d="M21.0038 10.9994V16.0015C21.0038 18.7641 18.7642 21.0036 16.0017 21.0036H7.99834C5.23576 21.0036 2.99625 18.7641 2.99625 16.0015V7.99818C2.99625 5.2356 5.23576 2.99609 7.99834 2.99609H14.0008" stroke="black" stroke-width="1.5" stroke-linecap="round" stroke-linejoin="round"/>
<path fill-rule="evenodd" clip-rule="evenodd" d="M11.2942 7.37497C11.3424 7.29099 11.3377 7.18668 11.2822 7.10736C11.2266 7.02804 11.1301 6.98803 11.0347 7.00472C10.0873 7.21822 9.21971 7.69572 8.53245 8.38194C7.21133 9.63625 6.67477 11.5086 7.13104 13.2723C7.5873 15.0359 8.96455 16.4131 10.7282 16.8694C12.4918 17.3257 14.3642 16.7891 15.6185 15.468C16.3047 14.7808 16.7823 13.9132 16.9958 12.9658C17.0125 12.8704 16.9725 12.7739 16.8931 12.7183C16.8138 12.6628 16.7095 12.6581 16.6255 12.7063C15.0952 13.526 13.2087 13.2469 11.9811 12.0194C10.7536 10.7918 10.4746 8.90531 11.2942 7.37497H11.2942Z" stroke="black" stroke-width="1.5" stroke-linecap="round" stroke-linejoin="round"/>
</svg>
