<svg width="24" height="24" viewBox="0 0 24 24" fill="none" xmlns="http://www.w3.org/2000/svg">
<path d="M16.0017 2.99609H19.5031L16.0017 6.99776H19.5031" stroke="black" stroke-width="1.5" stroke-linecap="round" stroke-linejoin="round"/>
<path d="M12 2.99609C7.02737 2.99609 2.99625 7.02721 2.99625 11.9998C2.99625 16.9725 7.02737 21.0036 12 21.0036C16.9726 21.0036 21.0037 16.9725 21.0037 11.9998C21.0011 11.326 20.9211 10.6547 20.7654 9.99901" stroke="black" stroke-width="1.5" stroke-linecap="round" stroke-linejoin="round"/>
<path fill-rule="evenodd" clip-rule="evenodd" d="M16.5347 12.8114C16.6454 12.7648 16.773 12.7858 16.863 12.8654C16.9529 12.9449 16.9893 13.0691 16.9565 13.1846C16.7266 14.0754 16.2626 14.8884 15.6125 15.5394C13.7009 17.5541 10.5179 17.6376 8.50325 15.7259C6.48857 13.8142 6.40507 10.6313 8.31674 8.61659C8.37729 8.5528 8.43947 8.49062 8.50328 8.43006C9.15406 7.77978 9.96717 7.3157 10.8581 7.08608C10.9736 7.05331 11.0977 7.08968 11.1773 7.17963C11.2568 7.26958 11.2778 7.39718 11.2312 7.50787C10.4621 9.02988 10.7573 10.8737 11.9631 12.0795C13.1689 13.2854 15.0128 13.5805 16.5348 12.8114L16.5347 12.8114Z" stroke="black" stroke-width="1.5" stroke-linecap="round" stroke-linejoin="round"/>
</svg>
