<svg width="24" height="24" viewBox="0 0 24 24" fill="none" xmlns="http://www.w3.org/2000/svg">
<path d="M7.38976 15C6.20341 13.1759 6.20341 10.8241 7.38976 9" stroke="black" stroke-width="1.5" stroke-linecap="round" stroke-linejoin="round"/>
<path d="M16.6102 15C17.7966 13.1759 17.7966 10.8241 16.6102 9" stroke="black" stroke-width="1.5" stroke-linecap="round" stroke-linejoin="round"/>
<rect x="3" y="3" width="18" height="18" rx="5" stroke="black" stroke-width="1.5" stroke-linecap="round" stroke-linejoin="round"/>
<path d="M13.75 12C13.75 12.0276 13.7276 12.05 13.7 12.05C13.6724 12.05 13.65 12.0276 13.65 12C13.65 11.9724 13.6724 11.95 13.7 11.95C13.7276 11.95 13.75 11.9724 13.75 12V12.0001" stroke="black" stroke-width="1.5" stroke-linecap="round" stroke-linejoin="round"/>
<path d="M10.35 12C10.35 12.0276 10.3276 12.05 10.3 12.05C10.2724 12.05 10.25 12.0276 10.25 12C10.25 11.9724 10.2724 11.95 10.3 11.95C10.3276 11.95 10.35 11.9724 10.35 12V12.0001" stroke="black" stroke-width="1.5" stroke-linecap="round" stroke-linejoin="round"/>
</svg>
