<svg width="24" height="24" viewBox="0 0 24 24" fill="none" xmlns="http://www.w3.org/2000/svg">
<path d="M3.61551 8.72461C2.14558 12.4788 3.35048 16.7525 6.56492 19.186C9.77935 21.6194 14.2197 21.6194 17.4341 19.186C20.6485 16.7525 21.8534 12.4788 20.3835 8.72461" stroke="black" stroke-width="1.5" stroke-linecap="round" stroke-linejoin="round"/>
<path d="M5.63335 5.63377C7.32193 3.94491 9.6123 2.99609 12.0005 2.99609C14.3887 2.99609 16.6791 3.94491 18.3677 5.63377" stroke="black" stroke-width="1.5" stroke-linecap="round" stroke-linejoin="round"/>
<path fill-rule="evenodd" clip-rule="evenodd" d="M12 17.0022V17.0022C10.0295 16.9962 8.43356 15.4002 8.42751 13.4297V10.5715C8.43301 8.60062 10.0291 7.00409 12 6.99805V6.99805C13.9705 7.00409 15.5664 8.60001 15.5725 10.5705V13.4287C15.567 15.3996 13.9709 16.9962 12 17.0022V17.0022Z" stroke="black" stroke-width="1.5" stroke-linecap="round" stroke-linejoin="round"/>
<path d="M12 9.85645V11.286" stroke="black" stroke-width="1.5" stroke-linecap="round" stroke-linejoin="round"/>
</svg>
