<svg width="24" height="24" viewBox="0 0 24 24" fill="none" xmlns="http://www.w3.org/2000/svg">
<path fill-rule="evenodd" clip-rule="evenodd" d="M12 22.004V22.004C9.63512 21.9963 7.71991 20.0811 7.71222 17.7162V14.2868C7.71991 11.9219 9.63512 10.0067 12 9.99902V9.99902C14.3649 10.0067 16.2801 11.9219 16.2878 14.2868V17.7162C16.2801 20.0811 14.3649 21.9963 12 22.004V22.004Z" stroke="black" stroke-width="1.5" stroke-linecap="round" stroke-linejoin="round"/>
<path d="M17.5453 8.92817C16.1755 7.27973 14.1433 6.32617 12 6.32617C9.85669 6.32617 7.82449 7.27973 6.45468 8.92817" stroke="black" stroke-width="1.5" stroke-linecap="round" stroke-linejoin="round"/>
<path d="M4.46286 6.32054C6.39627 4.20211 9.13193 2.99512 12 2.99512C14.8681 2.99512 17.6037 4.20211 19.5371 6.32054" stroke="black" stroke-width="1.5" stroke-linecap="round" stroke-linejoin="round"/>
<path d="M12 13.6928V14.6162" stroke="black" stroke-width="1.5" stroke-linecap="round" stroke-linejoin="round"/>
</svg>
