<svg width="24" height="24" viewBox="0 0 24 24" fill="none" xmlns="http://www.w3.org/2000/svg">
<path fill-rule="evenodd" clip-rule="evenodd" d="M17.0021 21.0036H6.99791C4.78785 21.0036 2.99625 19.212 2.99625 17.0019V6.99776C2.99625 4.7877 4.78785 2.99609 6.99791 2.99609H17.0021C19.2121 2.99609 21.0037 4.7877 21.0037 6.99776V17.0019C21.0037 19.212 19.2121 21.0036 17.0021 21.0036Z" stroke="black" stroke-width="1.5" stroke-linecap="round" stroke-linejoin="round"/>
<path fill-rule="evenodd" clip-rule="evenodd" d="M12 17.0022V17.0022C10.0295 16.9962 8.43356 15.4002 8.42752 13.4297V10.5715C8.43301 8.60062 10.0291 7.00409 12 6.99805V6.99805C13.9705 7.00409 15.5665 8.60001 15.5725 10.5705V13.4287C15.567 15.3996 13.9709 16.9962 12 17.0022V17.0022Z" stroke="black" stroke-width="1.5" stroke-linecap="round" stroke-linejoin="round"/>
<path d="M12 10.4492C11.9724 10.4492 11.95 10.4716 11.95 10.4992C11.95 10.5269 11.9724 10.5493 12 10.5493C12.0274 10.5487 12.0495 10.5266 12.05 10.4992C12.049 10.472 12.0272 10.4502 12 10.4492" stroke="black" stroke-width="1.5" stroke-linecap="round" stroke-linejoin="round"/>
</svg>
