<svg width="24" height="24" viewBox="0 0 24 24" fill="none" xmlns="http://www.w3.org/2000/svg">
<path d="M12 10.9992H17.0021" stroke="black" stroke-width="1.5" stroke-linecap="round" stroke-linejoin="round"/>
<path d="M12 14.0012H17.0021" stroke="black" stroke-width="1.5" stroke-linecap="round" stroke-linejoin="round"/>
<path d="M12 17.0022H17.0021" stroke="black" stroke-width="1.5" stroke-linecap="round" stroke-linejoin="round"/>
<path d="M7.99833 5.99734H19.0029C20.1079 5.99734 21.0037 6.89315 21.0037 7.99818V19.0028C21.0037 20.1078 20.1079 21.0036 19.0029 21.0036H4.99708C3.89205 21.0036 2.99625 20.1078 2.99625 19.0028V19.0028C2.99625 17.8977 3.89205 17.0019 4.99708 17.0019H5.9975C7.10253 17.0019 7.99833 16.1061 7.99833 15.0011V5.49714C7.99833 4.11585 6.87858 2.99609 5.49729 2.99609V2.99609C4.116 2.99609 2.99625 4.11585 2.99625 5.49714V19.0028" stroke="black" stroke-width="1.5" stroke-linecap="round" stroke-linejoin="round"/>
</svg>
