<svg width="24" height="24" viewBox="0 0 24 24" fill="none" xmlns="http://www.w3.org/2000/svg">
<path fill-rule="evenodd" clip-rule="evenodd" d="M15.627 12.6649C15.816 12.5759 16.018 12.7619 15.965 12.9639C15.785 13.6519 15.432 14.3069 14.888 14.8509C13.273 16.4659 10.689 16.4999 9.11499 14.9269C7.54099 13.3539 7.57599 10.7689 9.19099 9.15395C9.73499 8.60995 10.389 8.25695 11.078 8.07695C11.28 8.02395 11.466 8.22595 11.377 8.41495C10.804 9.63995 10.992 11.1069 11.963 12.0779C12.935 13.0499 14.403 13.2379 15.627 12.6649Z" stroke="black" stroke-width="1.5" stroke-linecap="round" stroke-linejoin="round"/>
<path fill-rule="evenodd" clip-rule="evenodd" d="M18 21H6C4.343 21 3 19.657 3 18V6C3 4.343 4.343 3 6 3H18C19.657 3 21 4.343 21 6V18C21 19.657 19.657 21 18 21Z" stroke="black" stroke-width="1.5" stroke-linecap="round" stroke-linejoin="round"/>
</svg>
