<svg width="24" height="24" viewBox="0 0 24 24" fill="none" xmlns="http://www.w3.org/2000/svg">
<path fill-rule="evenodd" clip-rule="evenodd" d="M13.2295 12.5822C13.3074 12.5472 13.3986 12.5606 13.4631 12.6167C13.5275 12.6728 13.5535 12.7612 13.5296 12.8433C13.3682 13.4668 13.0432 14.036 12.5882 14.492C11.7012 15.3918 10.4 15.7472 9.17876 15.4234C7.95747 15.0995 7.00339 14.146 6.6788 12.9249C6.35421 11.7038 6.70889 10.4024 7.60816 9.51488C8.06347 9.05979 8.63244 8.73506 9.25585 8.57449C9.33676 8.55112 9.4239 8.57643 9.4797 8.6395C9.53551 8.70258 9.55001 8.79215 9.51696 8.86961C8.97838 9.93504 9.18495 11.2259 10.0291 12.07C10.8733 12.9142 12.1641 13.1207 13.2295 12.5822V12.5822Z" stroke="black" stroke-width="1.5" stroke-linecap="round" stroke-linejoin="round"/>
<path fill-rule="evenodd" clip-rule="evenodd" d="M14.0008 19.0029C17.8684 19.0029 21.0037 15.8676 21.0037 12C21.0037 8.13238 17.8684 4.99707 14.0008 4.99707H9.99916C6.13156 4.99707 2.99625 8.13238 2.99625 12C2.99625 15.8676 6.13156 19.0029 9.99916 19.0029H14.0008Z" stroke="black" stroke-width="1.5" stroke-linecap="round" stroke-linejoin="round"/>
</svg>
