<svg width="24" height="24" viewBox="0 0 24 24" fill="none" xmlns="http://www.w3.org/2000/svg">
<path d="M19.4901 17.0146L17.0141 19.4907" stroke="black" stroke-width="1.5" stroke-linecap="round" stroke-linejoin="round"/>
<path d="M17.0151 17.0146L19.4911 19.4907" stroke="black" stroke-width="1.5" stroke-linecap="round" stroke-linejoin="round"/>
<path d="M13.0004 21.0036H7.99833C5.23576 21.0036 2.99625 18.7641 2.99625 16.0015V7.99818C2.99625 5.2356 5.23576 2.99609 7.99833 2.99609H16.0017C18.7642 2.99609 21.0037 5.2356 21.0037 7.99818V13.0003" stroke="black" stroke-width="1.5" stroke-linecap="round" stroke-linejoin="round"/>
<path fill-rule="evenodd" clip-rule="evenodd" d="M15.6285 12.6654C15.7175 12.6275 15.8203 12.6443 15.8926 12.7084C15.9649 12.7726 15.9937 12.8727 15.9667 12.9655C15.7824 13.6797 15.4104 14.3315 14.8892 14.8533C13.3076 16.3863 10.7885 16.3666 9.231 14.8091C7.6735 13.2516 7.65384 10.7326 9.18683 9.15094C9.70865 8.62974 10.3605 8.25772 11.0746 8.07349C11.1674 8.04642 11.2675 8.07526 11.3317 8.14757C11.3959 8.21987 11.4126 8.32269 11.3747 8.41163C10.7577 9.63181 10.9942 11.1103 11.961 12.0771C12.9279 13.044 14.4063 13.2804 15.6265 12.6634L15.6285 12.6654Z" stroke="black" stroke-width="1.5" stroke-linecap="round" stroke-linejoin="round"/>
</svg>
