<svg width="24" height="24" viewBox="0 0 24 24" fill="none" xmlns="http://www.w3.org/2000/svg">
<path d="M18.2516 16.502V20.0034" stroke="black" stroke-width="1.5" stroke-linecap="round" stroke-linejoin="round"/>
<path d="M16.5019 18.2522H20.0033" stroke="black" stroke-width="1.5" stroke-linecap="round" stroke-linejoin="round"/>
<path d="M13.0004 20.9416C12.6685 20.9827 12.3344 21.0036 12 21.0036C7.02736 21.0036 2.99625 16.9725 2.99625 11.9998C2.99625 7.02721 7.02736 2.99609 12 2.99609C16.9726 2.99609 21.0037 7.02721 21.0037 11.9998C21.0037 12.3343 20.9829 12.6684 20.9417 13.0003" stroke="black" stroke-width="1.5" stroke-linecap="round" stroke-linejoin="round"/>
<path fill-rule="evenodd" clip-rule="evenodd" d="M15.6285 12.6654C15.7175 12.6275 15.8203 12.6443 15.8926 12.7084C15.9649 12.7726 15.9937 12.8727 15.9667 12.9655C15.7823 13.6796 15.4103 14.3314 14.8892 14.8533C13.3145 16.428 10.7615 16.428 9.18683 14.8533C7.61216 13.2786 7.61216 10.7256 9.18683 9.15094C9.70856 8.62962 10.3604 8.25758 11.0746 8.07349C11.1674 8.04642 11.2675 8.07526 11.3317 8.14757C11.3959 8.21987 11.4126 8.32269 11.3747 8.41163C10.7577 9.63181 10.9942 11.1103 11.961 12.0771C12.9279 13.044 14.4063 13.2804 15.6265 12.6634L15.6285 12.6654Z" stroke="black" stroke-width="1.5" stroke-linecap="round" stroke-linejoin="round"/>
</svg>
