<svg width="24" height="24" viewBox="0 0 24 24" fill="none" xmlns="http://www.w3.org/2000/svg">
<path d="M22 17C22 19.761 19.761 22 17 22C14.239 22 12 19.761 12 17C12 14.239 14.239 12 17 12C19.761 12 22 14.239 22 17" stroke="black" stroke-width="1.5" stroke-linecap="round" stroke-linejoin="round"/>
<path d="M17 19.65C16.973 19.65 16.95 19.673 16.95 19.7C16.95 19.727 16.973 19.75 17 19.75C17.027 19.75 17.05 19.727 17.05 19.7C17.05 19.673 17.027 19.65 17 19.65V19.65" stroke="black" stroke-width="1.5" stroke-linecap="round" stroke-linejoin="round"/>
<path d="M17 17.625C17.863 17.625 18.563 16.925 18.563 16.062C18.563 15.199 17.864 14.499 17 14.499C16.158 14.499 15.477 15.165 15.444 15.999" stroke="black" stroke-width="1.5" stroke-linecap="round" stroke-linejoin="round"/>
<path d="M9 15H6" stroke="black" stroke-width="1.5" stroke-linecap="round" stroke-linejoin="round"/>
<path d="M11 11H6" stroke="black" stroke-width="1.5" stroke-linecap="round" stroke-linejoin="round"/>
<path d="M16 7H6" stroke="black" stroke-width="1.5" stroke-linecap="round" stroke-linejoin="round"/>
<path d="M13 20H5.125C3.951 20 3 19.049 3 17.875V5.125C3 3.951 3.951 3 5.125 3H17.875C19.049 3 20 3.951 20 5.125V13" stroke="black" stroke-width="1.5" stroke-linecap="round" stroke-linejoin="round"/>
</svg>
