<svg width="24" height="24" viewBox="0 0 24 24" fill="none" xmlns="http://www.w3.org/2000/svg">
<path d="M8.99874 21.0041H5.99749C4.89203 21.0041 3.99666 20.1087 3.99666 19.0032V4.99742C3.99666 3.89195 4.89203 2.99658 5.99749 2.99658H17.0021C18.1075 2.99658 19.0029 3.89195 19.0029 4.99742V8.99908" stroke="black" stroke-width="1.5" stroke-linecap="round" stroke-linejoin="round"/>
<path d="M21.0037 17.0024C20.8957 17.9818 20.4885 18.9342 19.7372 19.6856C17.9795 21.4433 15.1283 21.4433 13.3706 19.6856C13.0574 19.3724 12.8033 19.0243 12.6022 18.6551" stroke="black" stroke-width="1.5" stroke-linecap="round" stroke-linejoin="round"/>
<path d="M20.5055 14.3492C20.3044 13.9801 20.0493 13.6319 19.7372 13.3188C17.9795 11.5611 15.1283 11.5611 13.3706 13.3188C12.6192 14.0701 12.2101 15.0225 12.101 16.0019" stroke="black" stroke-width="1.5" stroke-linecap="round" stroke-linejoin="round"/>
<path d="M18.7788 14.3492H20.7676V12.3594" stroke="black" stroke-width="1.5" stroke-linecap="round" stroke-linejoin="round"/>
<path d="M14.329 18.6553H12.3401V20.6451" stroke="black" stroke-width="1.5" stroke-linecap="round" stroke-linejoin="round"/>
<path d="M2.49603 6.99826H5.49728" stroke="black" stroke-width="1.5" stroke-linecap="round" stroke-linejoin="round"/>
<path d="M2.49603 17.0026H5.2972" stroke="black" stroke-width="1.5" stroke-linecap="round" stroke-linejoin="round"/>
<path d="M2.49603 12.0002H5.2972" stroke="black" stroke-width="1.5" stroke-linecap="round" stroke-linejoin="round"/>
</svg>
