<svg width="24" height="24" viewBox="0 0 24 24" fill="none" xmlns="http://www.w3.org/2000/svg">
<path d="M5 9V3.5C5 2.672 5.672 2 6.5 2V2C7.328 2 8 2.672 8 3.5V10C8 11.657 6.657 13 5 13V13C3.343 13 2 11.657 2 10V5" stroke="black" stroke-width="1.5" stroke-linecap="round" stroke-linejoin="round"/>
<path d="M11 8H16" stroke="black" stroke-width="1.5" stroke-linecap="round" stroke-linejoin="round"/>
<path d="M11 12H16" stroke="black" stroke-width="1.5" stroke-linecap="round" stroke-linejoin="round"/>
<path d="M9 16H16" stroke="black" stroke-width="1.5" stroke-linecap="round" stroke-linejoin="round"/>
<path d="M5 13V19C5 20.105 5.895 21 7 21H18C19.105 21 20 20.105 20 19V5C20 3.895 19.105 3 18 3H8" stroke="black" stroke-width="1.5" stroke-linecap="round" stroke-linejoin="round"/>
</svg>
