<svg width="24" height="24" viewBox="0 0 24 24" fill="none" xmlns="http://www.w3.org/2000/svg">
<circle cx="5.74738" cy="17.2525" r="3.75156" stroke="black" stroke-width="1.5" stroke-linecap="round" stroke-linejoin="round"/>
<path d="M5.24732 13.5482C4.27176 9.61623 6.20572 5.54205 9.86893 3.81205C13.5321 2.08205 17.9072 3.17672 20.324 6.42801C22.7408 9.6793 22.5282 14.1842 19.8159 17.1934C17.1036 20.2026 12.6449 20.8804 9.16095 18.8131" stroke="black" stroke-width="1.5" stroke-linecap="round" stroke-linejoin="round"/>
<path d="M17.6514 15.508H9.06934" stroke="black" stroke-width="1.5" stroke-linecap="round" stroke-linejoin="round"/>
<path fill-rule="evenodd" clip-rule="evenodd" d="M10.8521 7.48047H16.1404C16.441 7.48047 16.7292 7.59986 16.9417 7.81237C17.1542 8.02489 17.2736 8.31313 17.2736 8.61367V8.61367V12.391C17.2736 12.8083 16.9354 13.1465 16.5181 13.1465H10.4743C10.0571 13.1465 9.71887 12.8083 9.71887 12.391V12.391V8.61367C9.71887 8.31312 9.83827 8.02488 10.0508 7.81236C10.2633 7.59984 10.5516 7.48047 10.8521 7.48047V7.48047Z" stroke="black" stroke-width="1.5" stroke-linecap="round" stroke-linejoin="round"/>
<path d="M6.91487 16.6689L5.45626 18.1276L4.5799 17.2519" stroke="black" stroke-width="1.5" stroke-linecap="round" stroke-linejoin="round"/>
</svg>
