<svg width="24" height="24" viewBox="0 0 24 24" fill="none" xmlns="http://www.w3.org/2000/svg">
<path d="M9.99917 20.0037H4.99708C3.89205 20.0037 2.99625 19.1079 2.99625 18.0029V5.9979C2.99625 4.89287 3.89205 3.99707 4.99708 3.99707H19.0029C20.1079 3.99707 21.0037 4.89287 21.0037 5.9979V7.99874" stroke="black" stroke-width="1.5" stroke-linecap="round" stroke-linejoin="round"/>
<circle cx="16.5019" cy="14.5009" r="4.50187" stroke="black" stroke-width="1.5" stroke-linecap="round" stroke-linejoin="round"/>
<path d="M22.0042 20.0035L19.6852 17.6846" stroke="black" stroke-width="1.5" stroke-linecap="round" stroke-linejoin="round"/>
<path d="M17.7244 14.4512C17.6968 14.4512 17.6744 14.4736 17.6744 14.5012C17.6744 14.5288 17.6968 14.5512 17.7244 14.5512C17.752 14.5512 17.7744 14.5288 17.7744 14.5012C17.7744 14.4736 17.752 14.4512 17.7244 14.4512" stroke="black" stroke-width="1.5" stroke-linecap="round" stroke-linejoin="round"/>
<path d="M15.2784 14.4512C15.2652 14.4512 15.2526 14.4565 15.2433 14.4659C15.2341 14.4753 15.2291 14.488 15.2293 14.5012C15.2293 14.5288 15.2517 14.5512 15.2794 14.5512C15.307 14.5512 15.3294 14.5288 15.3294 14.5012C15.3294 14.4736 15.307 14.4512 15.2794 14.4512" stroke="black" stroke-width="1.5" stroke-linecap="round" stroke-linejoin="round"/>
</svg>
