<svg width="24" height="24" viewBox="0 0 24 24" fill="none" xmlns="http://www.w3.org/2000/svg">
<path d="M20.7787 20.5534C20.6875 20.553 20.6051 20.6076 20.57 20.6917C20.5348 20.7758 20.5538 20.8728 20.6181 20.9373C20.6824 21.0019 20.7793 21.0214 20.8636 20.9866C20.9478 20.9518 21.0028 20.8697 21.0028 20.7785C21.0033 20.7188 20.9799 20.6614 20.9378 20.6191C20.8957 20.5768 20.8383 20.5532 20.7787 20.5534" stroke="black" stroke-width="1.5" stroke-linecap="round" stroke-linejoin="round"/>
<path d="M21.0038 18.0029C20.2016 17.9824 19.4263 18.292 18.8589 18.8593C18.2915 19.4267 17.9819 20.2021 18.0025 21.0042" stroke="black" stroke-width="1.5" stroke-linecap="round" stroke-linejoin="round"/>
<path d="M15.0013 21.0035C15.0063 20.2808 15.1304 19.5639 15.3684 18.8816C15.9392 17.2333 17.2346 15.9379 18.8829 15.3671C19.565 15.1299 20.2815 15.0062 21.0038 15.001" stroke="black" stroke-width="1.5" stroke-linecap="round" stroke-linejoin="round"/>
<path d="M12 11.9312C11.9818 11.9312 11.9643 11.9385 11.9515 11.9515C11.9388 11.9644 11.9317 11.982 11.932 12.0002C11.932 12.0282 11.9489 12.0535 11.9748 12.0641C12.0007 12.0747 12.0305 12.0686 12.0502 12.0487C12.0698 12.0287 12.0755 11.9989 12.0645 11.9731C12.0535 11.9473 12.028 11.9308 12 11.9312" stroke="black" stroke-width="1.5" stroke-linecap="round" stroke-linejoin="round"/>
<path d="M15.3694 11.9312C15.3313 11.9312 15.3004 11.9621 15.3004 12.0002C15.3004 12.0383 15.3313 12.0692 15.3694 12.0692C15.4075 12.0692 15.4384 12.0383 15.4384 12.0002C15.4384 11.9621 15.4075 11.9312 15.3694 11.9312" stroke="black" stroke-width="1.5" stroke-linecap="round" stroke-linejoin="round"/>
<path d="M8.6296 11.9312C8.61138 11.9312 8.59392 11.9385 8.58114 11.9515C8.56835 11.9644 8.5613 11.982 8.56157 12.0002C8.56157 12.0282 8.5785 12.0535 8.60442 12.0641C8.63033 12.0747 8.6601 12.0686 8.67976 12.0487C8.69942 12.0287 8.70508 11.9989 8.69408 11.9731C8.68308 11.9473 8.6576 11.9308 8.6296 11.9312" stroke="black" stroke-width="1.5" stroke-linecap="round" stroke-linejoin="round"/>
<path d="M10.9996 21.0036H5.9975C4.33996 21.0036 2.99625 19.6599 2.99625 18.0023V5.99734C2.99625 4.3398 4.33996 2.99609 5.9975 2.99609H18.0025C19.66 2.99609 21.0037 4.3398 21.0037 5.99734V10.9994" stroke="black" stroke-width="1.5" stroke-linecap="round" stroke-linejoin="round"/>
</svg>
