<svg width="24" height="24" viewBox="0 0 24 24" fill="none" xmlns="http://www.w3.org/2000/svg">
<path d="M21.0037 14.0007V16.0015C21.0037 18.7641 18.7642 21.0036 16.0017 21.0036H7.99833C5.23576 21.0036 2.99625 18.7641 2.99625 16.0015V7.99818C2.99625 5.2356 5.23576 2.99609 7.99833 2.99609H9.99916" stroke="black" stroke-width="1.5" stroke-linecap="round" stroke-linejoin="round"/>
<path d="M16.0017 2.99609C18.7642 2.99609 21.0037 5.2356 21.0037 7.99818C21.0037 10.7608 18.7642 13.0003 16.0017 13.0003C13.2391 13.0003 10.9996 10.7608 10.9996 7.99818C10.9996 5.2356 13.2391 2.99609 16.0017 2.99609" stroke="black" stroke-width="1.5" stroke-linecap="round" stroke-linejoin="round"/>
<path d="M17.3602 7.94231C17.3449 7.94116 17.3297 7.94662 17.3187 7.95732C17.3076 7.96802 17.3016 7.98294 17.3022 7.99833C17.3022 8.02108 17.316 8.04157 17.337 8.05018C17.3581 8.05879 17.3823 8.05381 17.3982 8.03758C17.4141 8.02135 17.4187 7.99709 17.4097 7.97619C17.4007 7.95529 17.38 7.94191 17.3572 7.94231" stroke="black" stroke-width="1.5" stroke-linecap="round" stroke-linejoin="round"/>
<path d="M14.6431 7.94225C14.6124 7.94335 14.5884 7.96889 14.5891 7.99956C14.5898 8.03023 14.6151 8.05461 14.6457 8.05426C14.6764 8.0539 14.7011 8.02895 14.7011 7.99827C14.7011 7.96772 14.6767 7.9428 14.6461 7.94225" stroke="black" stroke-width="1.5" stroke-linecap="round" stroke-linejoin="round"/>
</svg>
