<svg width="24" height="24" viewBox="0 0 24 24" fill="none" xmlns="http://www.w3.org/2000/svg">
<rect x="6.99792" y="6.99805" width="14.0058" height="14.0058" rx="3" stroke="black" stroke-width="1.5" stroke-linecap="round" stroke-linejoin="round"/>
<path d="M6.99792 17.0019H5.9975C4.33996 17.0019 2.99625 15.6582 2.99625 14.0007V5.99734C2.99625 4.3398 4.33996 2.99609 5.9975 2.99609H14.0008C15.6584 2.99609 17.0021 4.3398 17.0021 5.99734V6.99776" stroke="black" stroke-width="1.5" stroke-linecap="round" stroke-linejoin="round"/>
<path d="M17.3702 13.9322C17.3321 13.9322 17.3012 13.9631 17.3012 14.0012C17.3012 14.0393 17.3321 14.0702 17.3702 14.0702C17.4084 14.0702 17.4393 14.0393 17.4393 14.0012C17.4393 13.9631 17.4084 13.9322 17.3702 13.9322" stroke="black" stroke-width="1.5" stroke-linecap="round" stroke-linejoin="round"/>
<path d="M10.6304 13.9322C10.6122 13.9322 10.5948 13.9395 10.582 13.9524C10.5692 13.9654 10.5621 13.983 10.5624 14.0012C10.5624 14.0292 10.5793 14.0544 10.6052 14.0651C10.6312 14.0757 10.6609 14.0696 10.6806 14.0496C10.7003 14.0297 10.7059 13.9998 10.6949 13.9741C10.6839 13.9483 10.6584 13.9318 10.6304 13.9322" stroke="black" stroke-width="1.5" stroke-linecap="round" stroke-linejoin="round"/>
<path d="M13.9318 14.0012C13.9318 14.0194 13.9391 14.0369 13.9521 14.0497C13.9651 14.0625 13.9826 14.0695 14.0008 14.0692C14.0288 14.0692 14.0541 14.0523 14.0647 14.0264C14.0753 14.0005 14.0692 13.9707 14.0493 13.951C14.0293 13.9314 13.9995 13.9257 13.9737 13.9367C13.948 13.9477 13.9314 13.9732 13.9318 14.0012" stroke="black" stroke-width="1.5" stroke-linecap="round" stroke-linejoin="round"/>
<path d="M13.9318 10.6311C13.9318 10.659 13.9486 10.6842 13.9744 10.6948C14.0002 10.7055 14.0299 10.6996 14.0496 10.6799C14.0694 10.6601 14.0753 10.6304 14.0646 10.6047C14.0539 10.5789 14.0288 10.562 14.0008 10.562C13.9627 10.562 13.9318 10.5929 13.9318 10.6311" stroke="black" stroke-width="1.5" stroke-linecap="round" stroke-linejoin="round"/>
<path d="M13.9318 17.3713C13.9318 17.3895 13.9391 17.407 13.9521 17.4198C13.9651 17.4326 13.9826 17.4396 14.0008 17.4394C14.0288 17.4393 14.0541 17.4224 14.0647 17.3965C14.0753 17.3706 14.0692 17.3408 14.0493 17.3212C14.0293 17.3015 13.9995 17.2958 13.9737 17.3068C13.948 17.3178 13.9314 17.3433 13.9318 17.3713" stroke="black" stroke-width="1.5" stroke-linecap="round" stroke-linejoin="round"/>
</svg>
