<svg width="24" height="24" viewBox="0 0 24 24" fill="none" xmlns="http://www.w3.org/2000/svg">
<path d="M17.0881 5.95327C17.0639 5.95382 17.0447 5.97377 17.0451 5.99794C17.0455 6.02212 17.0653 6.04147 17.0894 6.0413C17.1136 6.04112 17.1331 6.02147 17.1331 5.99729C17.1331 5.98544 17.1284 5.97409 17.1199 5.96581C17.1114 5.95752 17.1 5.953 17.0881 5.95327" stroke="black" stroke-width="1.5" stroke-linecap="round" stroke-linejoin="round"/>
<circle cx="16.0017" cy="5.99776" r="4.00167" stroke="black" stroke-width="1.5" stroke-linecap="round" stroke-linejoin="round"/>
<path d="M21.0038 11.0001L18.8308 8.82715" stroke="black" stroke-width="1.5" stroke-linecap="round" stroke-linejoin="round"/>
<path d="M19.0029 14.0008V17.0021C19.0029 19.2121 17.2113 21.0037 15.0013 21.0037H6.99792C4.78786 21.0037 2.99625 19.2121 2.99625 17.0021V8.99874C2.99625 6.78868 4.78786 4.99707 6.99792 4.99707H7.99833" stroke="black" stroke-width="1.5" stroke-linecap="round" stroke-linejoin="round"/>
<path d="M14.9142 5.95327C14.89 5.95382 14.8708 5.97377 14.8712 5.99794C14.8716 6.02212 14.8914 6.04147 14.9155 6.0413C14.9397 6.04112 14.9592 6.02147 14.9592 5.99729C14.9592 5.98544 14.9545 5.97409 14.946 5.96581C14.9375 5.95752 14.9261 5.953 14.9142 5.95327" stroke="black" stroke-width="1.5" stroke-linecap="round" stroke-linejoin="round"/>
</svg>
