<svg width="24" height="24" viewBox="0 0 24 24" fill="none" xmlns="http://www.w3.org/2000/svg">
<path d="M16.0017 1.99609L14.0008 3.99693L16.0017 5.99776" stroke="black" stroke-width="1.5" stroke-linecap="round" stroke-linejoin="round"/>
<path d="M20.0033 3.9963H14.0008" stroke="black" stroke-width="1.5" stroke-linecap="round" stroke-linejoin="round"/>
<path d="M20.0616 7.99464C21.7684 11.4301 21.1105 15.5698 18.4228 18.3069C15.735 21.044 11.608 21.777 8.14202 20.1329C4.6761 18.4888 2.63286 14.8289 3.05219 11.0158C3.47152 7.20269 6.26128 4.07425 10.0017 3.22266" stroke="black" stroke-width="1.5" stroke-linecap="round" stroke-linejoin="round"/>
<path fill-rule="evenodd" clip-rule="evenodd" d="M15.9242 13.3945L13.3946 15.9241C12.6244 16.6943 11.3756 16.6943 10.6054 15.9241L8.07579 13.3945C7.30559 12.6243 7.30559 11.3755 8.07579 10.6053L10.6054 8.07569C11.3756 7.3055 12.6244 7.3055 13.3946 8.07569L15.9242 10.6053C16.6944 11.3755 16.6944 12.6243 15.9242 13.3945V13.3945Z" stroke="black" stroke-width="1.5" stroke-linecap="round" stroke-linejoin="round"/>
</svg>
