<svg width="24" height="24" viewBox="0 0 24 24" fill="none" xmlns="http://www.w3.org/2000/svg">
<path d="M20.3925 12.6115C21.9662 14.1851 22.437 16.5518 21.5854 18.6079C20.7337 20.664 18.7274 22.0046 16.5019 22.0046C14.2764 22.0046 12.27 20.664 11.4184 18.6079C10.5668 16.5518 11.0376 14.1851 12.6113 12.6115C14.76 10.4628 18.2437 10.4628 20.3925 12.6115" stroke="black" stroke-width="1.5" stroke-linecap="round" stroke-linejoin="round"/>
<path d="M16.5019 16.4521C16.4742 16.4521 16.4519 16.4745 16.4519 16.5022C16.4519 16.5298 16.4742 16.5522 16.5019 16.5522C16.5295 16.5522 16.5519 16.5298 16.5519 16.5022C16.5514 16.4748 16.5293 16.4527 16.5019 16.4521" stroke="black" stroke-width="1.5" stroke-linecap="round" stroke-linejoin="round"/>
<path d="M18.9479 16.452C18.9203 16.452 18.8979 16.4744 18.8979 16.502C18.8979 16.5297 18.9203 16.5521 18.9479 16.5521C18.962 16.5535 18.9761 16.5488 18.9865 16.5393C18.997 16.5298 19.003 16.5162 19.0029 16.502C19.0024 16.4746 18.9803 16.4525 18.9529 16.452" stroke="black" stroke-width="1.5" stroke-linecap="round" stroke-linejoin="round"/>
<path d="M14.0569 16.4521C14.0292 16.4521 14.0068 16.4745 14.0068 16.5022C14.0068 16.5298 14.0292 16.5522 14.0569 16.5522C14.0701 16.5522 14.0828 16.5469 14.0922 16.5375C14.1016 16.5282 14.1069 16.5154 14.1069 16.5022C14.1069 16.4745 14.0845 16.4521 14.0569 16.4521" stroke="black" stroke-width="1.5" stroke-linecap="round" stroke-linejoin="round"/>
<path d="M20.4805 8.99911C19.0875 5.04018 15.1441 2.5687 10.9739 3.04101C6.80376 3.51331 3.51295 6.80411 3.04065 10.9743C2.56834 15.1445 5.03982 19.0879 8.99875 20.4809" stroke="black" stroke-width="1.5" stroke-linecap="round" stroke-linejoin="round"/>
</svg>
