<svg width="24" height="24" viewBox="0 0 24 24" fill="none" xmlns="http://www.w3.org/2000/svg">
<rect x="6.99792" y="6.99805" width="14.0058" height="14.0058" rx="3" stroke="black" stroke-width="1.5" stroke-linecap="round" stroke-linejoin="round"/>
<path d="M6.99792 17.0019H5.9975C4.33996 17.0019 2.99625 15.6582 2.99625 14.0007V5.99734C2.99625 4.3398 4.33996 2.99609 5.9975 2.99609H14.0008C15.6584 2.99609 17.0021 4.3398 17.0021 5.99734V6.99776" stroke="black" stroke-width="1.5" stroke-linecap="round" stroke-linejoin="round"/>
<path d="M14.0008 13.9322C13.9826 13.9322 13.9652 13.9395 13.9524 13.9524C13.9396 13.9654 13.9325 13.983 13.9328 14.0012C13.9328 14.0292 13.9497 14.0544 13.9756 14.0651C14.0016 14.0757 14.0313 14.0696 14.051 14.0496C14.0707 14.0297 14.0763 13.9998 14.0653 13.9741C14.0543 13.9483 14.0288 13.9318 14.0008 13.9322" stroke="black" stroke-width="1.5" stroke-linecap="round" stroke-linejoin="round"/>
<path d="M17.3702 13.9322C17.3321 13.9322 17.3012 13.9631 17.3012 14.0012C17.3012 14.0393 17.3321 14.0702 17.3702 14.0702C17.4084 14.0702 17.4393 14.0393 17.4393 14.0012C17.4393 13.9631 17.4084 13.9322 17.3702 13.9322" stroke="black" stroke-width="1.5" stroke-linecap="round" stroke-linejoin="round"/>
<path d="M10.6304 13.9322C10.6122 13.9322 10.5948 13.9395 10.582 13.9524C10.5692 13.9654 10.5621 13.983 10.5624 14.0012C10.5624 14.0292 10.5793 14.0544 10.6052 14.0651C10.6312 14.0757 10.6609 14.0696 10.6806 14.0496C10.7003 14.0297 10.7059 13.9998 10.6949 13.9741C10.6839 13.9483 10.6584 13.9318 10.6304 13.9322" stroke="black" stroke-width="1.5" stroke-linecap="round" stroke-linejoin="round"/>
</svg>
