<svg width="24" height="24" viewBox="0 0 24 24" fill="none" xmlns="http://www.w3.org/2000/svg">
<path fill-rule="evenodd" clip-rule="evenodd" d="M9.45 15H8.25C7.587 15 7.05 14.463 7.05 13.8V10.2C7.05 9.537 7.587 9 8.25 9H9.45C10.113 9 10.65 9.537 10.65 10.2V13.8C10.65 14.463 10.113 15 9.45 15Z" stroke="black" stroke-width="1.5" stroke-linecap="round" stroke-linejoin="round"/>
<path d="M16.95 10.2V10.2C16.95 9.537 16.413 9 15.75 9H14.55C13.887 9 13.35 9.537 13.35 10.2V10.535C13.35 11.052 13.681 11.51 14.171 11.673L16.13 12.326C16.62 12.489 16.951 12.948 16.951 13.464V13.8C16.951 14.463 16.414 15 15.751 15H14.551C13.888 15 13.351 14.463 13.351 13.8V13.8" stroke="black" stroke-width="1.5" stroke-linecap="round" stroke-linejoin="round"/>
<path fill-rule="evenodd" clip-rule="evenodd" d="M14 21H10C6.134 21 3 17.866 3 14V10C3 6.134 6.134 3 10 3H14C17.866 3 21 6.134 21 10V14C21 17.866 17.866 21 14 21Z" stroke="black" stroke-width="1.5" stroke-linecap="round" stroke-linejoin="round"/>
</svg>
