<svg width="24" height="24" viewBox="0 0 24 24" fill="none" xmlns="http://www.w3.org/2000/svg">
<path d="M4.87203 2.99658V5.99783C4.87203 6.55035 5.31993 6.99825 5.87245 6.99825H17.8774C18.43 6.99825 18.8779 6.55035 18.8779 5.99783V2.99658" stroke="black" stroke-width="1.5" stroke-linecap="round" stroke-linejoin="round"/>
<path d="M18.8779 21.0041V18.0029C18.8779 17.4503 18.43 17.0024 17.8774 17.0024H5.87245C5.31993 17.0024 4.87203 17.4503 4.87203 18.0029V21.0041" stroke="black" stroke-width="1.5" stroke-linecap="round" stroke-linejoin="round"/>
<path fill-rule="evenodd" clip-rule="evenodd" d="M1.99583 10.5356V13.4648C1.99583 13.8437 2.20993 14.1901 2.54885 14.3596C2.88778 14.5291 3.29336 14.4925 3.5965 14.2651L5.54931 12.8005C5.80123 12.6116 5.94948 12.3151 5.94948 12.0002C5.94948 11.6853 5.80123 11.3888 5.54931 11.1999L3.5965 9.73525C3.29336 9.50789 2.88778 9.47132 2.54885 9.64078C2.20993 9.81024 1.99583 10.1566 1.99583 10.5356Z" stroke="black" stroke-width="1.5" stroke-linecap="round" stroke-linejoin="round"/>
<path fill-rule="evenodd" clip-rule="evenodd" d="M22.0042 13.4648V10.5356C22.0042 10.1566 21.7901 9.81024 21.4512 9.64078C21.1122 9.47132 20.7066 9.50789 20.4035 9.73525L18.4507 11.1999C18.1988 11.3888 18.0505 11.6853 18.0505 12.0002C18.0505 12.3151 18.1988 12.6116 18.4507 12.8005L20.4035 14.2651C20.7066 14.4925 21.1122 14.5291 21.4512 14.3596C21.7901 14.1901 22.0042 13.8437 22.0042 13.4648Z" stroke="black" stroke-width="1.5" stroke-linecap="round" stroke-linejoin="round"/>
</svg>
