<svg width="24" height="24" viewBox="0 0 24 24" fill="none" xmlns="http://www.w3.org/2000/svg">
<path d="M3.99667 12.0004V17.0025C3.99667 19.2125 5.78831 21.0042 7.99833 21.0042H15.3444C16.406 21.0042 17.4241 20.5825 18.1746 19.8317L20.1254 17.8809C20.6879 17.318 21.0037 16.5548 21.0037 15.759V7.99874C21.0037 5.78872 19.2121 3.99707 17.0021 3.99707H15.0012" stroke="black" stroke-width="1.5" stroke-linecap="round" stroke-linejoin="round"/>
<path d="M15.0013 21.0035V17.0018C15.0011 16.4711 15.2119 15.9621 15.5871 15.5868C15.9624 15.2116 16.4714 15.0008 17.0021 15.001H21.0038" stroke="black" stroke-width="1.5" stroke-linecap="round" stroke-linejoin="round"/>
<path d="M8.99875 2.99609C10.6559 2.99711 11.999 4.34022 12 5.99734V5.99734C11.999 7.65447 10.6559 8.99757 8.99875 8.99859" stroke="black" stroke-width="1.5" stroke-linecap="round" stroke-linejoin="round"/>
<path d="M5.9975 8.99859C4.34038 8.99757 2.99727 7.65447 2.99625 5.99734V5.99734C2.99727 4.34022 4.34038 2.99711 5.9975 2.99609" stroke="black" stroke-width="1.5" stroke-linecap="round" stroke-linejoin="round"/>
<path d="M5.9975 5.99728H8.99875" stroke="black" stroke-width="1.5" stroke-linecap="round" stroke-linejoin="round"/>
</svg>
