<svg width="24" height="24" viewBox="0 0 24 24" fill="none" xmlns="http://www.w3.org/2000/svg">
<path d="M8.99875 8.01583H15.0012" stroke="black" stroke-width="1.5" stroke-linecap="round" stroke-linejoin="round"/>
<path d="M8.99875 12.0002H12" stroke="black" stroke-width="1.5" stroke-linecap="round" stroke-linejoin="round"/>
<path d="M4.49686 3.99707H16.0016C17.1067 3.99707 18.0025 4.89287 18.0025 5.9979V16.0021" stroke="black" stroke-width="1.5" stroke-linecap="round" stroke-linejoin="round"/>
<path d="M7.49812 20.0037H19.0029C20.1079 20.0037 21.0037 19.1079 21.0037 18.0029V17.0025C21.0037 16.45 20.5558 16.0021 20.0033 16.0021H9.99916C9.44665 16.0021 8.99875 16.45 8.99875 17.0025V18.5031C8.99875 19.3319 8.32689 20.0037 7.49812 20.0037V20.0037C6.66935 20.0037 5.9975 19.3319 5.9975 18.5031V5.4977C5.9975 4.66892 5.32564 3.99707 4.49687 3.99707V3.99707C3.6681 3.99707 2.99625 4.66892 2.99625 5.4977V7.99874C2.99625 8.55125 3.44415 8.99915 3.99666 8.99915H5.9975" stroke="black" stroke-width="1.5" stroke-linecap="round" stroke-linejoin="round"/>
</svg>
