<svg width="24" height="24" viewBox="0 0 24 24" fill="none" xmlns="http://www.w3.org/2000/svg">
<path d="M3.33299 3.875H20.666" stroke="black" stroke-width="1.5" stroke-linecap="round" stroke-linejoin="round"/>
<path d="M3.33299 9.29199H20.666" stroke="black" stroke-width="1.5" stroke-linecap="round" stroke-linejoin="round"/>
<path d="M3.33299 14.708H7.66599" stroke="black" stroke-width="1.5" stroke-linecap="round" stroke-linejoin="round"/>
<path d="M3.33299 20.125H7.66599" stroke="black" stroke-width="1.5" stroke-linecap="round" stroke-linejoin="round"/>
<path d="M17.417 16.875H20.125C20.424 16.875 20.667 17.118 20.667 17.417V19.584C20.667 19.883 20.424 20.126 20.125 20.126H17.958C17.659 20.126 17.416 19.883 17.416 19.584V16.875" stroke="black" stroke-width="1.5" stroke-linecap="round" stroke-linejoin="round"/>
<path d="M17.417 16.875C17.417 14.708 17.823 14.348 19.042 13.625" stroke="black" stroke-width="1.5" stroke-linecap="round" stroke-linejoin="round"/>
<path d="M11.458 16.875H14.166C14.465 16.875 14.708 17.118 14.708 17.417V19.584C14.708 19.883 14.465 20.126 14.166 20.126H12C11.701 20.126 11.458 19.883 11.458 19.584V16.875" stroke="black" stroke-width="1.5" stroke-linecap="round" stroke-linejoin="round"/>
<path d="M11.458 16.875C11.458 14.708 11.864 14.348 13.083 13.625" stroke="black" stroke-width="1.5" stroke-linecap="round" stroke-linejoin="round"/>
</svg>
