<svg width="24" height="24" viewBox="0 0 24 24" fill="none" xmlns="http://www.w3.org/2000/svg">
<path d="M7.84727 11.7348C7.95466 11.842 7.98685 12.0034 7.92881 12.1437C7.87077 12.2839 7.73394 12.3754 7.58216 12.3754C7.43038 12.3754 7.29356 12.2839 7.23552 12.1437C7.17748 12.0034 7.20966 11.842 7.31705 11.7348C7.46352 11.5885 7.7008 11.5885 7.84727 11.7348" stroke="black" stroke-width="1.5" stroke-linecap="round" stroke-linejoin="round"/>
<path d="M12.2651 11.7348C12.3725 11.842 12.4047 12.0034 12.3466 12.1437C12.2886 12.2839 12.1518 12.3754 12 12.3754C11.8482 12.3754 11.7114 12.2839 11.6534 12.1437C11.5953 12.0034 11.6275 11.842 11.7349 11.7348C11.8814 11.5885 12.1186 11.5885 12.2651 11.7348" stroke="black" stroke-width="1.5" stroke-linecap="round" stroke-linejoin="round"/>
<path d="M17.0021 15.0012H15.0013" stroke="black" stroke-width="1.5" stroke-linecap="round" stroke-linejoin="round"/>
<path fill-rule="evenodd" clip-rule="evenodd" d="M16.0017 21.0036H7.99834C5.23576 21.0036 2.99625 18.7641 2.99625 16.0015V7.99818C2.99625 5.2356 5.23576 2.99609 7.99834 2.99609H16.0017C18.7642 2.99609 21.0038 5.2356 21.0038 7.99818V16.0015C21.0038 18.7641 18.7642 21.0036 16.0017 21.0036Z" stroke="black" stroke-width="1.5" stroke-linecap="round" stroke-linejoin="round"/>
</svg>
