<svg width="24" height="24" viewBox="0 0 24 24" fill="none" xmlns="http://www.w3.org/2000/svg">
<path d="M13.0004 13.0008L10.9996 11" stroke="black" stroke-width="1.5" stroke-linecap="round" stroke-linejoin="round"/>
<path d="M13.0004 11L10.9996 13.0008" stroke="black" stroke-width="1.5" stroke-linecap="round" stroke-linejoin="round"/>
<path d="M17.4183 13.0002H15.4174" stroke="black" stroke-width="1.5" stroke-linecap="round" stroke-linejoin="round"/>
<path d="M8.58257 13.0008L6.58174 11" stroke="black" stroke-width="1.5" stroke-linecap="round" stroke-linejoin="round"/>
<path d="M8.58257 11L6.58174 13.0008" stroke="black" stroke-width="1.5" stroke-linecap="round" stroke-linejoin="round"/>
<path d="M19.0029 19.0029H4.99708C4.46638 19.003 3.95738 18.7923 3.58212 18.417C3.20686 18.0418 2.99625 17.5328 2.99625 17.0021V6.9979C2.99625 6.46721 3.20686 5.9582 3.58212 5.58294C3.95738 5.20768 4.46638 4.99692 4.99708 4.99707H19.0029" stroke="black" stroke-width="1.5" stroke-linecap="round" stroke-linejoin="round"/>
<path d="M19.0029 19.0029C19.5336 19.003 20.0426 18.7923 20.4179 18.417C20.7931 18.0418 21.0039 17.5328 21.0037 17.0021V6.9979C21.0039 6.46721 20.7931 5.9582 20.4179 5.58294C20.0426 5.20768 19.5336 4.99692 19.0029 4.99707" stroke="black" stroke-width="1.5" stroke-linecap="round" stroke-linejoin="round"/>
</svg>
