<svg width="24" height="24" viewBox="0 0 24 24" fill="none" xmlns="http://www.w3.org/2000/svg">
<path fill-rule="evenodd" clip-rule="evenodd" d="M17 17H7C4.239 17 2 14.761 2 12V12C2 9.239 4.239 7 7 7H17C19.761 7 22 9.239 22 12V12C22 14.761 19.761 17 17 17Z" stroke="black" stroke-width="1.5" stroke-linecap="round" stroke-linejoin="round"/>
<path d="M18.244 11.999C18.244 11.864 18.135 11.755 18 11.756C17.865 11.756 17.756 11.865 17.756 12C17.756 12.135 17.865 12.244 18 12.244C18.135 12.244 18.244 12.135 18.244 11.999" stroke="black" stroke-width="1.625" stroke-linecap="round" stroke-linejoin="round"/>
<path d="M14.244 11.999C14.244 11.864 14.135 11.755 14 11.756C13.865 11.756 13.756 11.865 13.756 12C13.756 12.135 13.865 12.244 14 12.244C14.134 12.244 14.244 12.135 14.244 11.999" stroke="black" stroke-width="1.625" stroke-linecap="round" stroke-linejoin="round"/>
<path d="M10.244 11.999C10.244 11.864 10.135 11.755 10 11.756C9.865 11.756 9.756 11.865 9.756 12C9.756 12.135 9.865 12.244 10 12.244C10.134 12.244 10.244 12.135 10.244 11.999" stroke="black" stroke-width="1.625" stroke-linecap="round" stroke-linejoin="round"/>
<path d="M6.244 11.999C6.244 11.864 6.135 11.755 6 11.756C5.865 11.756 5.756 11.865 5.756 12C5.756 12.135 5.865 12.244 6 12.244C6.134 12.244 6.244 12.135 6.244 11.999" stroke="black" stroke-width="1.625" stroke-linecap="round" stroke-linejoin="round"/>
</svg>
