<svg width="24" height="24" viewBox="0 0 24 24" fill="none" xmlns="http://www.w3.org/2000/svg">
<path d="M7.84727 11.735C7.99333 11.881 7.99333 12.1191 7.84727 12.2652C7.70121 12.4113 7.46311 12.4113 7.31705 12.2652C7.17099 12.1191 7.17099 11.881 7.31705 11.735C7.46311 11.5879 7.70021 11.5879 7.84727 11.735" stroke="black" stroke-width="1.5" stroke-linecap="round" stroke-linejoin="round"/>
<path d="M12.2651 11.735C12.4112 11.881 12.4112 12.1191 12.2651 12.2652C12.1191 12.4113 11.881 12.4113 11.7349 12.2652C11.5888 12.1191 11.5888 11.881 11.7349 11.735C11.881 11.5879 12.1191 11.5879 12.2651 11.735" stroke="black" stroke-width="1.5" stroke-linecap="round" stroke-linejoin="round"/>
<path d="M16.0017 14.5016V9.49951" stroke="black" stroke-width="1.5" stroke-linecap="round" stroke-linejoin="round"/>
<path fill-rule="evenodd" clip-rule="evenodd" d="M16.0017 21.0041H7.99834C5.23619 21.0041 2.99625 18.7641 2.99625 16.002V7.99867C2.99625 5.23651 5.23619 2.99658 7.99834 2.99658H16.0017C18.7638 2.99658 21.0038 5.23651 21.0038 7.99867V16.002C21.0038 18.7641 18.7638 21.0041 16.0017 21.0041Z" stroke="black" stroke-width="1.5" stroke-linecap="round" stroke-linejoin="round"/>
</svg>
