<svg width="24" height="24" viewBox="0 0 24 24" fill="none" xmlns="http://www.w3.org/2000/svg">
<path d="M3.99666 21.0042C2.8912 21.0042 1.99583 20.1089 1.99583 19.0034V14.0013C1.99583 12.8959 2.8912 12.0005 3.99666 12.0005H20.0033C21.1088 12.0005 22.0042 12.8959 22.0042 14.0013V19.0034C22.0042 20.1089 21.1088 21.0042 20.0033 21.0042H3.99666" stroke="black" stroke-width="1.5" stroke-linecap="round" stroke-linejoin="round"/>
<path d="M18.2466 16.5012C18.2466 16.3661 18.1376 16.2571 18.0025 16.2581C17.8674 16.2581 17.7584 16.3671 17.7584 16.5022C17.7584 16.6372 17.8674 16.7463 18.0025 16.7463C18.1376 16.7463 18.2466 16.6372 18.2466 16.5012" stroke="black" stroke-width="1.5" stroke-linecap="round" stroke-linejoin="round"/>
<path d="M14.2449 16.5012C14.2449 16.3661 14.1359 16.2571 14.0008 16.2581C13.8658 16.2581 13.7567 16.3671 13.7567 16.5022C13.7567 16.6372 13.8658 16.7463 14.0008 16.7463C14.1349 16.7463 14.2449 16.6372 14.2449 16.5012" stroke="black" stroke-width="1.5" stroke-linecap="round" stroke-linejoin="round"/>
<path d="M10.2433 16.5012C10.2433 16.3661 10.1342 16.2571 9.99916 16.2581C9.86411 16.2581 9.75506 16.3671 9.75506 16.5022C9.75506 16.6372 9.86411 16.7463 9.99916 16.7463C10.1332 16.7463 10.2433 16.6372 10.2433 16.5012" stroke="black" stroke-width="1.5" stroke-linecap="round" stroke-linejoin="round"/>
<path d="M6.2416 16.5012C6.2416 16.3661 6.13255 16.2571 5.9975 16.2581C5.86244 16.2581 5.75339 16.3671 5.75339 16.5022C5.75339 16.6372 5.86244 16.7463 5.9975 16.7463C6.13155 16.7463 6.2416 16.6372 6.2416 16.5012" stroke="black" stroke-width="1.5" stroke-linecap="round" stroke-linejoin="round"/>
<path d="M14.0008 3.7749L9.77707 7.99866" stroke="black" stroke-width="1.5" stroke-linecap="round" stroke-linejoin="round"/>
<path d="M14.0008 7.99866L9.77707 3.7749" stroke="black" stroke-width="1.5" stroke-linecap="round" stroke-linejoin="round"/>
</svg>
