<svg width="24" height="24" viewBox="0 0 24 24" fill="none" xmlns="http://www.w3.org/2000/svg">
<path fill-rule="evenodd" clip-rule="evenodd" d="M4.575 19.8961L4.104 19.4251C2.542 17.8631 2.542 15.3301 4.104 13.7681L13.768 4.10412C15.33 2.54212 17.863 2.54212 19.425 4.10412L19.896 4.57512C21.458 6.13712 21.458 8.67012 19.896 10.2321L10.232 19.8961C8.67 21.4581 6.137 21.4581 4.575 19.8961Z" stroke="black" stroke-width="1.5" stroke-linecap="round" stroke-linejoin="round"/>
<path d="M12 5.87012L18.13 12.0001" stroke="black" stroke-width="1.5" stroke-linecap="round" stroke-linejoin="round"/>
<path d="M10.088 11.912C10.039 11.863 9.96 11.863 9.912 11.912C9.863 11.961 9.863 12.04 9.912 12.089C9.961 12.138 10.04 12.138 10.089 12.089C10.137 12.04 10.137 11.961 10.088 11.912" stroke="black" stroke-width="1.5" stroke-linecap="round" stroke-linejoin="round"/>
<path d="M12.088 13.912C12.039 13.863 11.96 13.863 11.912 13.912C11.863 13.961 11.863 14.04 11.912 14.089C11.961 14.138 12.04 14.138 12.089 14.089C12.137 14.04 12.137 13.961 12.088 13.912" stroke="black" stroke-width="1.5" stroke-linecap="round" stroke-linejoin="round"/>
<path d="M12.088 9.91199C12.039 9.86299 11.96 9.86299 11.912 9.91199C11.863 9.96099 11.863 10.04 11.912 10.089C11.961 10.138 12.04 10.138 12.089 10.089C12.137 10.04 12.137 9.96099 12.088 9.91199" stroke="black" stroke-width="1.5" stroke-linecap="round" stroke-linejoin="round"/>
<path d="M14.088 11.912C14.039 11.863 13.96 11.863 13.912 11.912C13.863 11.961 13.863 12.04 13.912 12.089C13.961 12.138 14.04 12.138 14.089 12.089C14.137 12.04 14.137 11.961 14.088 11.912" stroke="black" stroke-width="1.5" stroke-linecap="round" stroke-linejoin="round"/>
<path d="M12 18.13L5.87 12" stroke="black" stroke-width="1.5" stroke-linecap="round" stroke-linejoin="round"/>
</svg>
