<svg width="24" height="24" viewBox="0 0 24 24" fill="none" xmlns="http://www.w3.org/2000/svg">
<path fill-rule="evenodd" clip-rule="evenodd" d="M10.293 16.707L16.707 10.293C17.098 9.90201 17.098 9.26901 16.707 8.87901L15.121 7.29301C14.73 6.90201 14.097 6.90201 13.707 7.29301L7.293 13.707C7.105 13.895 7 14.149 7 14.414V17H9.586C9.851 17 10.105 16.895 10.293 16.707Z" stroke="black" stroke-width="1.5" stroke-linecap="round" stroke-linejoin="round"/>
<path d="M14 17H17" stroke="black" stroke-width="1.5" stroke-linecap="round" stroke-linejoin="round"/>
<path fill-rule="evenodd" clip-rule="evenodd" d="M3 18V6C3 4.343 4.343 3 6 3H18C19.657 3 21 4.343 21 6V18C21 19.657 19.657 21 18 21H6C4.343 21 3 19.657 3 18Z" stroke="black" stroke-width="1.5" stroke-linecap="round" stroke-linejoin="round"/>
</svg>
