<svg width="24" height="24" viewBox="0 0 24 24" fill="none" xmlns="http://www.w3.org/2000/svg">
<path fill-rule="evenodd" clip-rule="evenodd" d="M18.571 2.60111L10.086 11.0861V13.9141H12.914L21.399 5.42911C21.79 5.03811 21.79 4.40511 21.399 4.01511L19.985 2.60111C19.595 2.21011 18.962 2.21011 18.571 2.60111V2.60111Z" stroke="black" stroke-width="1.5" stroke-linecap="round" stroke-linejoin="round"/>
<path d="M14.328 16.7429L15.035 17.4499C15.426 17.8409 15.426 18.4739 15.035 18.8639L12.914 20.9849C12.523 21.3759 11.89 21.3759 11.5 20.9849L3.01499 12.4999C2.62399 12.1089 2.62399 11.4759 3.01499 11.0859L5.13599 8.96488C5.52699 8.57388 6.15999 8.57388 6.54999 8.96488L7.25699 9.67188" stroke="black" stroke-width="1.5" stroke-linecap="round" stroke-linejoin="round"/>
<path d="M16.45 4.71997L19.28 7.54997" stroke="black" stroke-width="1.5" stroke-linecap="round" stroke-linejoin="round"/>
</svg>
