<svg width="24" height="24" viewBox="0 0 24 24" fill="none" xmlns="http://www.w3.org/2000/svg">
<path fill-rule="evenodd" clip-rule="evenodd" d="M7.415 20.415L3.586 16.586C3.211 16.211 3 15.702 3 15.172V8.828C3 8.298 3.211 7.789 3.585 7.415L7.414 3.586C7.789 3.211 8.298 3 8.828 3H15.17C15.701 3 16.21 3.211 16.585 3.586L20.413 7.414C20.789 7.79 21 8.3 21 8.831V15.171C21 15.701 20.789 16.209 20.415 16.584L16.586 20.414C16.211 20.789 15.702 21 15.171 21H8.828C8.298 21 7.789 20.789 7.415 20.415V20.415Z" stroke="black" stroke-width="1.5" stroke-linecap="round" stroke-linejoin="round"/>
<path fill-rule="evenodd" clip-rule="evenodd" d="M11.159 15.4271H8.573V12.8411C8.573 12.5761 8.678 12.3211 8.866 12.1341L12.866 8.13407C13.257 7.74307 13.89 7.74307 14.28 8.13407L15.866 9.72007C16.257 10.1111 16.257 10.7441 15.866 11.1341L11.866 15.1341C11.679 15.3211 11.424 15.4271 11.159 15.4271V15.4271Z" stroke="black" stroke-width="1.5" stroke-linecap="round" stroke-linejoin="round"/>
</svg>
