<svg width="24" height="24" viewBox="0 0 24 24" fill="none" xmlns="http://www.w3.org/2000/svg">
<path fill-rule="evenodd" clip-rule="evenodd" d="M11.159 15.4271H8.573V12.8411C8.573 12.5761 8.678 12.3211 8.866 12.1341L12.866 8.13407C13.257 7.74307 13.89 7.74307 14.28 8.13407L15.866 9.72007C16.257 10.1111 16.257 10.7441 15.866 11.1341L11.866 15.1341C11.679 15.3211 11.424 15.4271 11.159 15.4271V15.4271Z" stroke="black" stroke-width="1.5" stroke-linecap="round" stroke-linejoin="round"/>
<path d="M18.364 5.63604C21.8787 9.15076 21.8787 14.8492 18.364 18.3639C14.8493 21.8787 9.1508 21.8787 5.6361 18.3639C2.12138 14.8492 2.12138 9.15074 5.6361 5.63604C9.15082 2.12132 14.8493 2.12132 18.364 5.63604" stroke="black" stroke-width="1.5" stroke-linecap="round" stroke-linejoin="round"/>
</svg>
