<svg width="24" height="24" viewBox="0 0 24 24" fill="none" xmlns="http://www.w3.org/2000/svg">
<path d="M5.636 18.364C7.265 19.993 9.515 21 12 21C16.971 21 21 16.971 21 12V12C21 7.029 16.971 3 12 3V3C7.029 3 3 7.029 3 12" stroke="black" stroke-width="1.5" stroke-linecap="round" stroke-linejoin="round"/>
<path d="M11 10L14 13" stroke="black" stroke-width="1.5" stroke-linecap="round" stroke-linejoin="round"/>
<path fill-rule="evenodd" clip-rule="evenodd" d="M6.16299 14.8371L11.914 9.08609C12.742 8.25809 14.086 8.25809 14.914 9.08609V9.08609C15.742 9.91409 15.742 11.2581 14.914 12.0861L9.16299 17.8371C8.99499 18.0051 8.77399 18.1071 8.53799 18.1271L5.63599 18.3651L5.87399 15.4631C5.89299 15.2261 5.99599 15.0041 6.16299 14.8371Z" stroke="black" stroke-width="1.5" stroke-linecap="round" stroke-linejoin="round"/>
</svg>
