<svg width="24" height="24" viewBox="0 0 24 24" fill="none" xmlns="http://www.w3.org/2000/svg">
<path d="M13.5 13.5L11.0289 15.9711C10.5699 16.4301 9.9744 16.7279 9.33179 16.8197L8.14168 16.9897C7.83009 17.0342 7.51573 16.9294 7.29316 16.7068C7.0706 16.4843 6.96581 16.1699 7.01032 15.8583L7.18032 14.6682C7.27211 14.0256 7.56986 13.4301 8.02887 12.9711L10.5 10.5" stroke="black" stroke-width="1.5" stroke-linecap="round" stroke-linejoin="round"/>
<path d="M4.5 4.5L19.5 19.5" stroke="black" stroke-width="1.5" stroke-linecap="round" stroke-linejoin="round"/>
<path d="M15.5 11.5L16.3787 10.6213C17.2071 9.7929 17.2071 8.44974 16.3786 7.62131C15.5502 6.79288 14.207 6.7929 13.3786 7.62134L12.5 8.49999" stroke="black" stroke-width="1.5" stroke-linecap="round" stroke-linejoin="round"/>
<rect x="3" y="3" width="18" height="18" rx="5" stroke="black" stroke-width="1.5" stroke-linecap="round" stroke-linejoin="round"/>
</svg>
