<svg width="24" height="24" viewBox="0 0 24 24" fill="none" xmlns="http://www.w3.org/2000/svg">
<path d="M12 2.99609C8.3797 2.99578 5.11113 5.1633 3.70266 8.49839" stroke="black" stroke-width="1.5" stroke-linecap="round" stroke-linejoin="round"/>
<path d="M21.0037 11.9998C21.0037 7.02721 16.9726 2.99609 12 2.99609" stroke="black" stroke-width="1.5" stroke-linecap="round" stroke-linejoin="round"/>
<path d="M12 21.0037C16.9726 21.0037 21.0037 16.9726 21.0037 12" stroke="black" stroke-width="1.5" stroke-linecap="round" stroke-linejoin="round"/>
<path d="M3.05492 13.001C3.56383 17.5572 7.41543 21.0033 12 21.0043" stroke="black" stroke-width="1.5" stroke-linecap="round" stroke-linejoin="round"/>
<path d="M5.9975 8.49832H2.99625V5.49707" stroke="black" stroke-width="1.5" stroke-linecap="round" stroke-linejoin="round"/>
<path fill-rule="evenodd" clip-rule="evenodd" d="M11.1586 15.4288H8.57157V12.8417C8.57157 12.5764 8.67707 12.322 8.86469 12.1344L12.8664 8.13275C13.257 7.74221 13.8903 7.74221 14.281 8.13275L15.8676 9.71941C16.2582 10.1101 16.2582 10.7433 15.8676 11.134L11.8659 15.1357C11.6784 15.3233 11.424 15.4288 11.1586 15.4288Z" stroke="black" stroke-width="1.5" stroke-linecap="round" stroke-linejoin="round"/>
</svg>
