<svg width="24" height="24" viewBox="0 0 24 24" fill="none" xmlns="http://www.w3.org/2000/svg">
<circle cx="12" cy="12" r="9" stroke="black" stroke-width="1.5" stroke-linecap="round" stroke-linejoin="round"/>
<path d="M13.5 13.5L12.0289 14.9711C11.5699 15.4301 10.9744 15.7279 10.3318 15.8197L9.14168 15.9897C8.83009 16.0342 8.51573 15.9294 8.29316 15.7068C8.0706 15.4843 7.96581 15.1699 8.01032 14.8583L8.18032 13.6682C8.27211 13.0256 8.56986 12.4301 9.02887 11.9711L10.5 10.5" stroke="black" stroke-width="1.5" stroke-linecap="round" stroke-linejoin="round"/>
<path d="M15.5 11.5L15.8787 11.1213C16.7071 10.2929 16.7071 8.94974 15.8786 8.12131C15.0502 7.29288 13.707 7.2929 12.8786 8.12134L12.5 8.49994" stroke="black" stroke-width="1.5" stroke-linecap="round" stroke-linejoin="round"/>
<path d="M5.63605 5.63574L18.3627 18.3624" stroke="black" stroke-width="1.5" stroke-linecap="round" stroke-linejoin="round"/>
</svg>
