<svg width="24" height="24" viewBox="0 0 24 24" fill="none" xmlns="http://www.w3.org/2000/svg">
<path fill-rule="evenodd" clip-rule="evenodd" d="M8.99875 15.0012L12.1501 14.612C12.3715 14.5849 12.5775 14.4845 12.7353 14.3269L20.3695 6.69773C21.2148 5.85198 21.2148 4.48121 20.3695 3.63546V3.63546C19.5237 2.79013 18.153 2.79013 17.3072 3.63546L9.74406 11.1986C9.59088 11.3517 9.49153 11.5504 9.46094 11.7648L8.99875 15.0012Z" stroke="black" stroke-width="1.5" stroke-linecap="round" stroke-linejoin="round"/>
<path d="M13.0004 3.99658H6.99791C4.78785 3.99658 2.99625 5.78819 2.99625 7.99825V17.002C2.99625 19.2121 4.78785 21.0037 6.99791 21.0037H16.0017C18.2117 21.0037 20.0033 19.2121 20.0033 17.002V10.9995" stroke="black" stroke-width="1.5" stroke-linecap="round" stroke-linejoin="round"/>
</svg>
