<svg width="24" height="24" viewBox="0 0 24 24" fill="none" xmlns="http://www.w3.org/2000/svg">
<path d="M15.2322 5.23242L18.7678 8.76796" stroke="black" stroke-width="1.5" stroke-linecap="round" stroke-linejoin="round"/>
<path d="M4 4L20 20" stroke="black" stroke-width="1.5" stroke-linecap="round" stroke-linejoin="round"/>
<path d="M10.2322 10.2324L5.22638 15.2382C4.7164 15.7482 4.38558 16.4098 4.28357 17.1238L4.00857 19.0487C3.97147 19.3084 4.05879 19.5704 4.24427 19.7558C4.42974 19.9413 4.69172 20.0286 4.95138 19.9915L6.87624 19.7165C7.59021 19.6145 8.25185 19.2837 8.76186 18.7737L13.7677 13.7679" stroke="black" stroke-width="1.5" stroke-linecap="round" stroke-linejoin="round"/>
<path d="M15.7678 11.7677L20.2678 7.26768C21.2394 6.29058 21.2372 4.71149 20.2628 3.73712C19.2884 2.76274 17.7093 2.76053 16.7322 3.73216L12.2322 8.23216" stroke="black" stroke-width="1.5" stroke-linecap="round" stroke-linejoin="round"/>
</svg>
