<svg width="24" height="24" viewBox="0 0 24 24" fill="none" xmlns="http://www.w3.org/2000/svg">
<path d="M5.62534 18.3575C8.50403 21.2443 12.9632 21.8366 16.4957 19.8014C20.0282 17.7662 21.7524 13.6113 20.6988 9.673C19.6452 5.73466 16.0768 2.99568 12 2.99609" stroke="black" stroke-width="1.5" stroke-linecap="round" stroke-linejoin="round"/>
<path fill-rule="evenodd" clip-rule="evenodd" d="M11.1586 15.4288H8.57156V12.8417C8.57156 12.5764 8.67706 12.322 8.86469 12.1344L12.8664 8.13275C13.257 7.74221 13.8903 7.74221 14.2809 8.13275L15.8676 9.71941C16.2581 10.1101 16.2581 10.7433 15.8676 11.134L11.8659 15.1357C11.6784 15.3233 11.4239 15.4288 11.1586 15.4288Z" stroke="black" stroke-width="1.5" stroke-linecap="round" stroke-linejoin="round"/>
<path d="M8.52355 3.72775C8.52355 3.75537 8.54595 3.77777 8.57357 3.77777C8.6012 3.77777 8.62359 3.75537 8.62359 3.72775C8.62359 3.70012 8.6012 3.67773 8.57357 3.67773C8.54595 3.67773 8.52355 3.70012 8.52355 3.72775" stroke="black" stroke-width="1.5" stroke-linecap="round" stroke-linejoin="round"/>
<path d="M5.61834 5.66915C5.61834 5.69678 5.64073 5.71917 5.66836 5.71917C5.69599 5.71917 5.71838 5.69678 5.71838 5.66915C5.71838 5.64153 5.69599 5.61913 5.66836 5.61913C5.64057 5.61968 5.61833 5.64236 5.61834 5.67015" stroke="black" stroke-width="1.5" stroke-linecap="round" stroke-linejoin="round"/>
<path d="M3.67754 8.57345C3.67754 8.60108 3.69994 8.62347 3.72756 8.62347C3.75519 8.62347 3.77759 8.60108 3.77759 8.57345C3.77759 8.54582 3.75519 8.52343 3.72756 8.52343C3.7143 8.52343 3.70157 8.5287 3.69219 8.53808C3.68281 8.54746 3.67754 8.56018 3.67754 8.57345" stroke="black" stroke-width="1.5" stroke-linecap="round" stroke-linejoin="round"/>
<path d="M2.99624 12.0002C2.99624 12.0278 3.01863 12.0502 3.04626 12.0502C3.07389 12.0502 3.09628 12.0278 3.09628 12.0002C3.09628 11.9726 3.07389 11.9502 3.04626 11.9502C3.03299 11.9502 3.02027 11.9555 3.01089 11.9648C3.00151 11.9742 2.99624 11.9869 2.99624 12.0002" stroke="black" stroke-width="1.5" stroke-linecap="round" stroke-linejoin="round"/>
<path d="M3.67754 15.427C3.67754 15.4546 3.69994 15.477 3.72756 15.477C3.74543 15.477 3.76195 15.4675 3.77088 15.452C3.77982 15.4365 3.77982 15.4174 3.77088 15.402C3.76195 15.3865 3.74543 15.3769 3.72756 15.3769C3.69994 15.3769 3.67754 15.3993 3.67754 15.427" stroke="black" stroke-width="1.5" stroke-linecap="round" stroke-linejoin="round"/>
</svg>
