<svg width="24" height="24" viewBox="0 0 24 24" fill="none" xmlns="http://www.w3.org/2000/svg">
<path d="M16.0017 21.5036L14.0008 19.5028L16.0017 17.502" stroke="black" stroke-width="1.5" stroke-linecap="round" stroke-linejoin="round"/>
<path d="M20.0033 19.5031H14.0008" stroke="black" stroke-width="1.5" stroke-linecap="round" stroke-linejoin="round"/>
<path fill-rule="evenodd" clip-rule="evenodd" d="M11.1586 14.8155H8.57156V12.2284C8.57156 11.9631 8.67706 11.7087 8.86469 11.5211L12.8664 7.51947C13.257 7.12893 13.8903 7.12893 14.2809 7.51947L15.8676 9.10613C16.2581 9.49679 16.2581 10.1301 15.8676 10.5207L11.8659 14.5224C11.6784 14.71 11.4239 14.8155 11.1586 14.8155Z" stroke="black" stroke-width="1.5" stroke-linecap="round" stroke-linejoin="round"/>
<path d="M20.0616 15.5052C21.7684 12.0697 21.1105 7.93005 18.4228 5.19298C15.735 2.45591 11.6079 1.72288 8.14201 3.36696C4.67608 5.01103 2.63284 8.67096 3.05217 12.4841C3.4715 16.2972 6.26126 19.4256 10.0016 20.2772" stroke="black" stroke-width="1.5" stroke-linecap="round" stroke-linejoin="round"/>
</svg>
