<svg width="24" height="24" viewBox="0 0 24 24" fill="none" xmlns="http://www.w3.org/2000/svg">
<path fill-rule="evenodd" clip-rule="evenodd" d="M10.9996 13.0003L14.151 12.6109C14.3724 12.5838 14.5784 12.4834 14.7362 12.3257L20.3697 6.69431C21.2151 5.84794 21.2151 4.47678 20.3697 3.63042V3.63042C19.9637 3.22427 19.4129 2.99609 18.8385 2.99609C18.2642 2.99609 17.7134 3.22427 17.3074 3.63042L11.7449 9.19571C11.5917 9.34895 11.4924 9.54774 11.4618 9.76225L10.9996 13.0003Z" stroke="black" stroke-width="1.5" stroke-linecap="round" stroke-linejoin="round"/>
<path d="M21.0037 11.9998C21.0037 16.9725 16.9726 21.0036 12 21.0036C7.02737 21.0036 2.99625 16.9725 2.99625 11.9998C2.99625 7.02721 7.02737 2.99609 12 2.99609" stroke="black" stroke-width="1.5" stroke-linecap="round" stroke-linejoin="round"/>
</svg>
