<svg width="24" height="24" viewBox="0 0 24 24" fill="none" xmlns="http://www.w3.org/2000/svg">
<path d="M21.0037 13.0007V17.0024C21.0037 19.2125 19.2121 21.0041 17.0021 21.0041H6.99791C4.78785 21.0041 2.99625 19.2125 2.99625 17.0024V6.99825C2.99625 4.78819 4.78785 2.99658 6.99791 2.99658H14.0008" stroke="black" stroke-width="1.5" stroke-linecap="round" stroke-linejoin="round"/>
<path fill-rule="evenodd" clip-rule="evenodd" d="M13.0004 13.1114L16.1537 12.7222C16.3744 12.6947 16.5797 12.5943 16.737 12.4371L21.3699 7.80418C22.2152 6.95843 22.2152 5.58765 21.3699 4.7419V4.7419C20.5241 3.89658 19.1534 3.89658 18.3076 4.7419L13.7457 9.3038C13.5925 9.45692 13.4932 9.65562 13.4626 9.87004L13.0004 13.1114Z" stroke="black" stroke-width="1.5" stroke-linecap="round" stroke-linejoin="round"/>
<path d="M2.99625 12.5561L6.88987 8.66148C7.62691 7.92534 8.82094 7.92534 9.55798 8.66148V8.66148C10.2941 9.39852 10.2941 10.5926 9.55798 11.3296L8.33147 12.5561L8.43951 12.4481L7.10596 13.7816C6.75194 14.1353 6.55302 14.6152 6.55302 15.1157C6.55302 15.6161 6.75194 16.096 7.10596 16.4497V16.4497C7.843 17.1859 9.03703 17.1859 9.77407 16.4497L10.9996 15.2232" stroke="black" stroke-width="1.5" stroke-linecap="round" stroke-linejoin="round"/>
</svg>
