<svg width="24" height="24" viewBox="0 0 24 24" fill="none" xmlns="http://www.w3.org/2000/svg">
<path d="M21.0037 11.9998C21.0037 14.4321 20.0197 16.7608 18.2757 18.4561C16.5317 20.1514 14.176 21.069 11.7447 21C6.99306 20.8167 3.18316 17.0068 2.99981 12.2551C2.93089 9.82386 3.84849 7.46816 5.54377 5.72413C7.23905 3.9801 9.56779 2.99609 12 2.99609" stroke="black" stroke-width="1.5" stroke-linecap="round" stroke-linejoin="round"/>
<path d="M12 17.0021C9.23743 17.0021 6.99792 14.7626 6.99792 12" stroke="black" stroke-width="1.5" stroke-linecap="round" stroke-linejoin="round"/>
<path fill-rule="evenodd" clip-rule="evenodd" d="M17.381 3.61768C17.7789 3.21969 18.3187 2.99609 18.8816 2.99609C19.4444 2.99609 19.9842 3.21969 20.3822 3.61768V3.61768C20.7802 4.01567 21.0038 4.55546 21.0038 5.11831C21.0038 5.68115 20.7802 6.22094 20.3822 6.61893L14.8358 12.1654C14.5205 12.4807 14.1089 12.6817 13.6663 12.7363L11.5612 12.9964C11.4067 13.0155 11.252 12.9615 11.1429 12.8504C11.0338 12.7392 10.9827 12.5835 11.0047 12.4293L11.316 10.2489C11.3771 9.82015 11.5757 9.42287 11.882 9.11666L17.381 3.61768Z" stroke="black" stroke-width="1.5" stroke-linecap="round" stroke-linejoin="round"/>
</svg>
