<svg width="24" height="24" viewBox="0 0 24 24" fill="none" xmlns="http://www.w3.org/2000/svg">
<path d="M10.9 9L8.5 15" stroke="black" stroke-width="1.5" stroke-linecap="round" stroke-linejoin="round"/>
<rect x="3" y="3" width="18" height="18" rx="5" stroke="black" stroke-width="1.5" stroke-linecap="round" stroke-linejoin="round"/>
<path d="M12.5501 15.0001C12.55 15.0277 12.5276 15.05 12.5 15.05C12.4724 15.05 12.4501 15.0276 12.4501 15C12.4501 14.9724 12.4724 14.95 12.5 14.95C12.5133 14.95 12.526 14.9553 12.5354 14.9646C12.5448 14.974 12.5501 14.9868 12.5501 15.0001" stroke="black" stroke-width="1.5" stroke-linecap="round" stroke-linejoin="round"/>
<path d="M15.55 15.0001C15.55 15.0277 15.5276 15.05 15.5 15.05C15.4724 15.05 15.45 15.0276 15.45 15C15.45 14.9724 15.4723 14.95 15.4999 14.95C15.5132 14.95 15.526 14.9553 15.5354 14.9646C15.5447 14.974 15.55 14.9868 15.55 15.0001" stroke="black" stroke-width="1.5" stroke-linecap="round" stroke-linejoin="round"/>
</svg>
