<svg width="24" height="24" viewBox="0 0 24 24" fill="none" xmlns="http://www.w3.org/2000/svg">
<path d="M18.2516 16.502V20.0034" stroke="black" stroke-width="1.5" stroke-linecap="round" stroke-linejoin="round"/>
<path d="M16.5019 18.2522H20.0033" stroke="black" stroke-width="1.5" stroke-linecap="round" stroke-linejoin="round"/>
<path d="M13.0004 20.9416C12.6685 20.9827 12.3344 21.0036 12 21.0036C7.02737 21.0036 2.99625 16.9725 2.99625 11.9998C2.99625 7.02721 7.02737 2.99609 12 2.99609C16.9726 2.99609 21.0038 7.02721 21.0038 11.9998C21.0038 12.3343 20.9829 12.6684 20.9417 13.0003" stroke="black" stroke-width="1.5" stroke-linecap="round" stroke-linejoin="round"/>
<path fill-rule="evenodd" clip-rule="evenodd" d="M11.1587 15.4288H8.57158V12.8417C8.57158 12.5764 8.67707 12.322 8.8647 12.1344L12.8664 8.13275C13.257 7.74221 13.8903 7.74221 14.281 8.13275L15.8676 9.71941C16.2582 10.1101 16.2582 10.7433 15.8676 11.134L11.866 15.1357C11.6784 15.3233 11.424 15.4288 11.1587 15.4288Z" stroke="black" stroke-width="1.5" stroke-linecap="round" stroke-linejoin="round"/>
</svg>
