<svg width="24" height="24" viewBox="0 0 24 24" fill="none" xmlns="http://www.w3.org/2000/svg">
<rect x="2" y="3" width="20" height="18" rx="5" stroke="black" stroke-width="1.5" stroke-linecap="round" stroke-linejoin="round"/>
<path fill-rule="evenodd" clip-rule="evenodd" d="M14.6204 14.7071L17.7351 11.5923C18.0279 11.2994 18.0279 10.8246 17.7351 10.5317L16.4231 9.21967C16.2824 9.07902 16.0916 9 15.8927 9C15.6938 9 15.503 9.07902 15.3624 9.21967L12.2476 12.3343C12.0601 12.5218 11.9547 12.7762 11.9547 13.0414V15H13.9133C14.1785 15 14.4329 14.8946 14.6204 14.7071Z" stroke="black" stroke-width="1.5" stroke-linecap="round" stroke-linejoin="round"/>
<path d="M9.05 15.0001C9.04997 15.0277 9.02758 15.05 8.99998 15.05C8.97238 15.05 8.95001 15.0276 8.95 15C8.94999 14.9724 8.97234 14.95 8.99994 14.95C9.01322 14.95 9.02596 14.9553 9.03536 14.9646C9.04475 14.974 9.05002 14.9868 9.05 15.0001" stroke="black" stroke-width="1.5" stroke-linecap="round" stroke-linejoin="round"/>
<path d="M6.05 15.0001C6.04997 15.0277 6.02758 15.05 5.99998 15.05C5.97238 15.05 5.95001 15.0276 5.95 15C5.94999 14.9724 5.97234 14.95 5.99994 14.95C6.01322 14.95 6.02596 14.9553 6.03536 14.9646C6.04475 14.974 6.05002 14.9868 6.05 15.0001" stroke="black" stroke-width="1.5" stroke-linecap="round" stroke-linejoin="round"/>
</svg>
