<svg width="24" height="24" viewBox="0 0 24 24" fill="none" xmlns="http://www.w3.org/2000/svg">
<path fill-rule="evenodd" clip-rule="evenodd" d="M13.7111 8.23455L12.7655 7.28895C12.5805 7.10394 12.3296 7 12.0679 7C11.8063 7 11.5553 7.10394 11.3703 7.28895L8.22842 10.4309C8.08217 10.5771 8 10.7755 8 10.9823V12.75C8 12.8881 8.11193 13 8.25 13H10.0174C10.2244 13.0001 10.423 12.9178 10.5694 12.7714L13.7111 9.6297C13.8961 9.44469 14 9.19376 14 8.93212C14 8.67048 13.8961 8.41955 13.7111 8.23455V8.23455Z" stroke="black" stroke-width="1.5" stroke-linecap="round" stroke-linejoin="round"/>
<path d="M16 16H8" stroke="black" stroke-width="1.5" stroke-linecap="round" stroke-linejoin="round"/>
<circle cx="12" cy="12" r="9" stroke="black" stroke-width="1.5" stroke-linecap="round" stroke-linejoin="round"/>
</svg>
