<svg width="24" height="24" viewBox="0 0 24 24" fill="none" xmlns="http://www.w3.org/2000/svg">
<circle cx="18.0025" cy="18.0026" r="4.00167" stroke="black" stroke-width="1.5" stroke-linecap="round" stroke-linejoin="round"/>
<path d="M19.3631 17.3022L17.6624 19.003L16.6399 17.9835" stroke="black" stroke-width="1.5" stroke-linecap="round" stroke-linejoin="round"/>
<path fill-rule="evenodd" clip-rule="evenodd" d="M10.7055 14.7382H8.26144V12.2942C8.26144 12.0438 8.3612 11.8037 8.53856 11.6269L12.3181 7.84733C12.4951 7.66998 12.7354 7.57031 12.9859 7.57031C13.2365 7.57031 13.4767 7.66998 13.6537 7.84733L15.1543 9.34795C15.3317 9.52493 15.4313 9.76518 15.4313 10.0157C15.4313 10.2663 15.3317 10.5065 15.1543 10.6835L11.3727 14.4611C11.196 14.6384 10.9559 14.7382 10.7055 14.7382V14.7382Z" stroke="black" stroke-width="1.5" stroke-linecap="round" stroke-linejoin="round"/>
<path d="M19.5201 14.3009C20.8406 10.544 19.3861 6.37329 16.0158 4.25228C12.6455 2.13127 8.25606 2.62428 5.44022 5.44012C2.62439 8.25595 2.13137 12.6454 4.25238 16.0157C6.3734 19.386 10.5441 20.8405 14.301 19.52" stroke="black" stroke-width="1.5" stroke-linecap="round" stroke-linejoin="round"/>
</svg>
