<svg width="24" height="24" viewBox="0 0 24 24" fill="none" xmlns="http://www.w3.org/2000/svg">
<path fill-rule="evenodd" clip-rule="evenodd" d="M2.99625 16.002V7.99867C2.99625 5.23609 5.23576 2.99658 7.99833 2.99658H16.0017C18.7642 2.99658 21.0037 5.23609 21.0037 7.99867V16.002C21.0037 18.7646 18.7642 21.0041 16.0017 21.0041H7.99833C5.23576 21.0041 2.99625 18.7646 2.99625 16.002Z" stroke="black" stroke-width="1.5" stroke-linecap="round" stroke-linejoin="round"/>
<path d="M15.8556 8.85289C15.6601 9.04787 15.3436 9.0476 15.1485 8.8523C14.9534 8.65699 14.9534 8.3405 15.1485 8.14519C15.3436 7.94988 15.6601 7.94962 15.8556 8.1446C15.9497 8.23844 16.0026 8.36586 16.0026 8.49874C16.0026 8.63163 15.9497 8.75905 15.8556 8.85289" stroke="black" stroke-width="1.5" stroke-linecap="round" stroke-linejoin="round"/>
<path d="M13.8908 21.0041C13.96 20.5484 13.9968 20.0884 14.0008 19.6275C14.0008 14.3101 9.69022 9.99951 4.37282 9.99951C3.9119 10.0027 3.45182 10.0395 2.99625 10.1096" stroke="black" stroke-width="1.5" stroke-linecap="round" stroke-linejoin="round"/>
</svg>
