<svg width="24" height="24" viewBox="0 0 24 24" fill="none" xmlns="http://www.w3.org/2000/svg">
<path d="M16.0017 11.9997V13.3333C16.0017 14.8068 14.8071 16.0014 13.3336 16.0014H10.6664C9.19289 16.0014 7.99833 14.8068 7.99833 13.3333V10.6662C7.99833 9.1926 9.19289 7.99805 10.6664 7.99805H12" stroke="black" stroke-width="1.5" stroke-linecap="round" stroke-linejoin="round"/>
<circle cx="12" cy="11.9998" r="9.00375" stroke="black" stroke-width="1.5" stroke-linecap="round" stroke-linejoin="round"/>
<path d="M12.3541 11.646C12.5491 11.8415 12.5489 12.1579 12.3536 12.3531C12.1582 12.5482 11.8418 12.5482 11.6464 12.3531C11.4511 12.1579 11.4509 11.8415 11.6459 11.646C11.7397 11.5519 11.8671 11.499 12 11.499C12.1329 11.499 12.2603 11.5519 12.3541 11.646" stroke="black" stroke-width="1.5" stroke-linecap="round" stroke-linejoin="round"/>
<path d="M14.6261 8.37326H16.6269" stroke="black" stroke-width="1.5" stroke-linecap="round" stroke-linejoin="round"/>
<path d="M15.6265 9.37388V7.37305" stroke="black" stroke-width="1.5" stroke-linecap="round" stroke-linejoin="round"/>
</svg>
