<svg width="24" height="24" viewBox="0 0 24 24" fill="none" xmlns="http://www.w3.org/2000/svg">
<path d="M21.0038 14.0007V17.0019C21.0038 19.212 19.2121 21.0036 17.0021 21.0036H6.99792C4.78786 21.0036 2.99625 19.212 2.99625 17.0019V6.99776C2.99625 4.7877 4.78786 2.99609 6.99792 2.99609H9.99917" stroke="black" stroke-width="1.5" stroke-linecap="round" stroke-linejoin="round"/>
<path d="M2.99625 13.0022L4.29195 11.7065C4.74429 11.2541 5.3578 11 5.9975 11C6.6372 11 7.25071 11.2541 7.70304 11.7065V11.7065L12 16.0034" stroke="black" stroke-width="1.5" stroke-linecap="round" stroke-linejoin="round"/>
<path d="M7.00225 21.0039L13.2987 14.7074C14.2407 13.7655 15.7678 13.7655 16.7098 14.7074L20.6506 18.6482" stroke="black" stroke-width="1.5" stroke-linecap="round" stroke-linejoin="round"/>
<path d="M19.478 3.52166C20.8454 4.88907 20.8454 7.10607 19.478 8.47346C18.1106 9.84086 15.8936 9.84086 14.5262 8.47346C13.1588 7.10607 13.1588 4.88907 14.5262 3.52166C15.1828 2.865 16.0734 2.49609 17.0021 2.49609C17.9307 2.49609 18.8214 2.865 19.478 3.52166V3.52166V3.52166" stroke="black" stroke-width="1.5" stroke-linecap="round" stroke-linejoin="round"/>
<path d="M19.5031 8.49902L21.0038 9.99965" stroke="black" stroke-width="1.5" stroke-linecap="round" stroke-linejoin="round"/>
</svg>
