<svg width="24" height="24" viewBox="0 0 24 24" fill="none" xmlns="http://www.w3.org/2000/svg">
<path d="M21.0037 10.9994V17.0019C21.0037 19.212 19.2121 21.0036 17.0021 21.0036H6.99792C4.78786 21.0036 2.99625 19.212 2.99625 17.0019V6.99776C2.99625 4.7877 4.78786 2.99609 6.99792 2.99609H9.99917" stroke="black" stroke-width="1.5" stroke-linecap="round" stroke-linejoin="round"/>
<path d="M2.99625 13.0022L4.29195 11.7065C4.74429 11.2541 5.35779 11 5.9975 11C6.6372 11 7.2507 11.2541 7.70304 11.7065V11.7065L12 16.0034" stroke="black" stroke-width="1.5" stroke-linecap="round" stroke-linejoin="round"/>
<path d="M7.00225 21.0039L13.2987 14.7074C14.2407 13.7655 15.7678 13.7655 16.7098 14.7074L20.6506 18.6482" stroke="black" stroke-width="1.5" stroke-linecap="round" stroke-linejoin="round"/>
<path fill-rule="evenodd" clip-rule="evenodd" d="M16.7759 3.65385L17.0021 3.88353L17.2283 3.65382C17.6399 3.23318 18.2036 2.99609 18.7921 2.99609C19.3807 2.99609 19.9444 3.23318 20.356 3.65382V3.65382C21.2197 4.53625 21.2197 5.94719 20.356 6.82963L18.24 8.97813C17.9142 9.31111 17.468 9.4988 17.0021 9.4988C16.5362 9.4988 16.09 9.31111 15.7641 8.97813L13.6482 6.82969C12.7845 5.94724 12.7845 4.5363 13.6482 3.65386V3.65386C14.0598 3.23321 14.6235 2.99609 15.212 2.99609C15.8006 2.99609 16.3643 3.2332 16.7759 3.65385V3.65385Z" stroke="black" stroke-width="1.5" stroke-linecap="round" stroke-linejoin="round"/>
</svg>
