<svg width="24" height="24" viewBox="0 0 24 24" fill="none" xmlns="http://www.w3.org/2000/svg">
<path d="M21.0037 13.0003V17.0019C21.0037 19.212 19.2121 21.0036 17.0021 21.0036H6.99792C4.78786 21.0036 2.99625 19.212 2.99625 17.0019V6.99776C2.99625 4.7877 4.78786 2.99609 6.99792 2.99609H10.9996" stroke="black" stroke-width="1.5" stroke-linecap="round" stroke-linejoin="round"/>
<path d="M2.99625 13.0022L4.29195 11.7065C4.74429 11.2541 5.35779 11 5.9975 11C6.6372 11 7.2507 11.2541 7.70304 11.7065V11.7065L12 16.0034" stroke="black" stroke-width="1.5" stroke-linecap="round" stroke-linejoin="round"/>
<path d="M7.00225 21.0039L13.2987 14.7074C14.2407 13.7655 15.7678 13.7655 16.7098 14.7074L20.6506 18.6482" stroke="black" stroke-width="1.5" stroke-linecap="round" stroke-linejoin="round"/>
<path d="M22.0042 5.99776C22.0042 8.20782 20.2126 9.99943 18.0025 9.99943C15.7924 9.99943 14.0008 8.20782 14.0008 5.99776C14.0008 3.7877 15.7924 1.99609 18.0025 1.99609C20.2126 1.99609 22.0042 3.7877 22.0042 5.99776V5.99776V5.99776" stroke="black" stroke-width="1.5" stroke-linecap="round" stroke-linejoin="round"/>
<path d="M16.9587 4.87228H18.9571" stroke="black" stroke-width="1.5" stroke-linecap="round" stroke-linejoin="round"/>
<path d="M16.9563 7.12326H18.9547" stroke="black" stroke-width="1.5" stroke-linecap="round" stroke-linejoin="round"/>
</svg>
