<svg width="24" height="24" viewBox="0 0 24 24" fill="none" xmlns="http://www.w3.org/2000/svg">
<path d="M16.0017 21.0036C17.1067 21.0036 18.0025 20.1078 18.0025 19.0028V17.002" stroke="black" stroke-width="1.5" stroke-linecap="round" stroke-linejoin="round"/>
<path d="M2.99625 19.0029C2.99625 20.108 3.89205 21.0038 4.99708 21.0038" stroke="black" stroke-width="1.5" stroke-linecap="round" stroke-linejoin="round"/>
<path d="M6.99792 5.99805H4.99708C3.89205 5.99805 2.99625 6.89385 2.99625 7.99888" stroke="black" stroke-width="1.5" stroke-linecap="round" stroke-linejoin="round"/>
<path d="M2.99625 12V15.0013" stroke="black" stroke-width="1.5" stroke-linecap="round" stroke-linejoin="round"/>
<path d="M8.99875 21.0041H12" stroke="black" stroke-width="1.5" stroke-linecap="round" stroke-linejoin="round"/>
<path fill-rule="evenodd" clip-rule="evenodd" d="M17.8917 2.99609H10.11C8.39125 2.99609 6.99792 4.38943 6.99792 6.10819V6.10819V13.8898C6.99792 15.6086 8.39125 17.0019 10.11 17.0019H17.8917C19.6104 17.0019 21.0038 15.6086 21.0038 13.8898V13.8898V6.10679C21.003 4.38857 19.6099 2.99609 17.8917 2.99609Z" stroke="black" stroke-width="1.5" stroke-linecap="round" stroke-linejoin="round"/>
<path d="M11.6766 7.32115C11.7481 7.39265 11.7696 7.50022 11.7309 7.59369C11.6922 7.68716 11.6011 7.74814 11.4999 7.74818C11.3987 7.74822 11.3075 7.68732 11.2688 7.59387C11.23 7.50043 11.2514 7.39285 11.3229 7.32129L11.323 7.32115C11.4209 7.22406 11.5787 7.22406 11.6766 7.32115" stroke="black" stroke-width="1.5" stroke-linecap="round" stroke-linejoin="round"/>
<path d="M21.0037 9.29931C20.6792 9.25004 20.3516 9.22383 20.0233 9.22087C18.0443 9.20682 16.1587 10.0615 14.8649 11.5591C13.571 13.0568 12.9992 15.0465 13.3005 17.0025" stroke="black" stroke-width="1.5" stroke-linecap="round" stroke-linejoin="round"/>
</svg>
