<svg width="24" height="24" viewBox="0 0 24 24" fill="none" xmlns="http://www.w3.org/2000/svg">
<path d="M13.85 10.1499C14.872 11.1719 14.872 12.8289 13.85 13.8499C12.828 14.8709 11.171 14.8719 10.15 13.8499C9.12901 12.8279 9.12801 11.1709 10.15 10.1499C11.172 9.12891 12.828 9.12791 13.85 10.1499" stroke="black" stroke-width="1.5" stroke-linecap="round" stroke-linejoin="round"/>
<path d="M12 14.616V21" stroke="black" stroke-width="1.5" stroke-linecap="round" stroke-linejoin="round"/>
<path d="M8.00001 20.05C7.14801 19.63 6.34601 19.074 5.63601 18.364C2.12101 14.849 2.12101 9.15101 5.63601 5.63601C9.15101 2.12101 14.849 2.12101 18.364 5.63601C21.879 9.15101 21.879 14.849 18.364 18.364C17.654 19.074 16.852 19.63 16 20.05" stroke="black" stroke-width="1.5" stroke-linecap="round" stroke-linejoin="round"/>
</svg>
