<svg width="24" height="24" viewBox="0 0 24 24" fill="none" xmlns="http://www.w3.org/2000/svg">
<path d="M13 20.938C12.6683 20.9791 12.3343 20.9998 12 21C7.02944 21 3 16.9706 3 12C3 7.02944 7.02944 3 12 3C16.9706 3 21 7.02944 21 12C20.9998 12.3343 20.9791 12.6683 20.938 13" stroke="black" stroke-width="1.5" stroke-linecap="round" stroke-linejoin="round"/>
<path d="M8 16.0001L10.5382 13.4619" stroke="black" stroke-width="1.5" stroke-linecap="round" stroke-linejoin="round"/>
<path fill-rule="evenodd" clip-rule="evenodd" d="M14.4028 7.2899L16.7101 9.59718C16.9197 9.80684 17.0244 10.0995 16.9951 10.3945C16.9659 10.6896 16.806 10.956 16.5592 11.1205L14.8712 12.2459C14.6663 12.3824 14.5197 12.5905 14.46 12.8293L13.7611 15.6248C13.7179 15.7978 13.585 15.9341 13.4131 15.9817C13.2413 16.0293 13.0572 15.9808 12.9311 15.8547L8.14527 11.0688C8.0192 10.9428 7.97069 10.7586 8.01828 10.5868C8.06587 10.415 8.20221 10.2821 8.37517 10.2388L11.1706 9.53997C11.4095 9.48025 11.6175 9.33365 11.7541 9.1288L12.8795 7.44071C13.044 7.194 13.3104 7.03403 13.6054 7.00482C13.9005 6.97561 14.1931 7.08023 14.4028 7.2899Z" stroke="black" stroke-width="1.5" stroke-linecap="round" stroke-linejoin="round"/>
<path d="M20 17L17.5 19.5L16 18" stroke="black" stroke-width="1.5" stroke-linecap="round" stroke-linejoin="round"/>
</svg>
