<svg width="24" height="24" viewBox="0 0 24 24" fill="none" xmlns="http://www.w3.org/2000/svg">
<path d="M16.0016 2.99609C18.7641 2.99639 21.0034 5.23573 21.0037 7.99818" stroke="black" stroke-width="1.5" stroke-linecap="round" stroke-linejoin="round"/>
<path d="M16.0016 5.99805C16.5323 5.9979 17.0414 6.20866 17.4166 6.58392C17.7919 6.95918 18.0026 7.46818 18.0025 7.99888" stroke="black" stroke-width="1.5" stroke-linecap="round" stroke-linejoin="round"/>
<path fill-rule="evenodd" clip-rule="evenodd" d="M14.4429 9.00993V9.00993C15.0908 9.65782 15.4548 10.5366 15.4548 11.4528C15.4548 12.3691 15.0908 13.2478 14.4429 13.8957V13.8957L12.5757 15.7629C12.423 15.9156 12.2159 16.0014 12 16.0014C11.7841 16.0014 11.577 15.9156 11.4243 15.7629L9.55711 13.8957C8.90921 13.2478 8.54523 12.3691 8.54523 11.4528C8.54523 10.5366 8.90921 9.65782 9.55711 9.00993V9.00993C10.205 8.36203 11.0837 7.99805 12 7.99805C12.9163 7.99805 13.795 8.36203 14.4429 9.00993V9.00993Z" stroke="black" stroke-width="1.5" stroke-linecap="round" stroke-linejoin="round"/>
<path d="M12 2.99609H6.99791C4.78789 2.99609 2.99625 4.78774 2.99625 6.99776V16.0015C2.99654 18.764 5.23588 21.0033 7.99833 21.0036H17.0021C19.2121 21.0036 21.0037 19.2119 21.0037 17.0019V11.9998" stroke="black" stroke-width="1.5" stroke-linecap="round" stroke-linejoin="round"/>
</svg>
