<svg width="24" height="24" viewBox="0 0 24 24" fill="none" xmlns="http://www.w3.org/2000/svg">
<path d="M20.7693 13.9999C21.674 10.0756 19.8701 6.02672 16.3476 4.07485C12.825 2.12298 8.43564 2.74022 5.58798 5.58788C2.74033 8.43553 2.12309 12.8249 4.07496 16.3475C6.02683 19.87 10.0757 21.6739 14 20.7692" stroke="black" stroke-width="1.5" stroke-linecap="round" stroke-linejoin="round"/>
<path d="M8 16.0001L10.5382 13.4619" stroke="black" stroke-width="1.5" stroke-linecap="round" stroke-linejoin="round"/>
<path fill-rule="evenodd" clip-rule="evenodd" d="M14.4028 7.2899L16.7101 9.59718C16.9197 9.80684 17.0243 10.0995 16.9951 10.3945C16.9659 10.6896 16.8059 10.956 16.5592 11.1205L14.8711 12.2459C14.6663 12.3824 14.5197 12.5905 14.46 12.8293L13.7611 15.6248C13.7179 15.7978 13.5849 15.9341 13.4131 15.9817C13.2413 16.0293 13.0572 15.9808 12.9311 15.8547L8.14526 11.0688C8.01919 10.9428 7.97068 10.7586 8.01827 10.5868C8.06586 10.415 8.2022 10.2821 8.37516 10.2388L11.1706 9.53997C11.4095 9.48025 11.6175 9.33365 11.7541 9.1288L12.8795 7.44071C13.044 7.194 13.3104 7.03403 13.6054 7.00482C13.9005 6.97561 14.1931 7.08023 14.4028 7.2899Z" stroke="black" stroke-width="1.5" stroke-linecap="round" stroke-linejoin="round"/>
<path d="M17.5 17.501L20 20" stroke="black" stroke-width="1.5" stroke-linecap="round" stroke-linejoin="round"/>
<path d="M17.5 19.999L20 17.5" stroke="black" stroke-width="1.5" stroke-linecap="round" stroke-linejoin="round"/>
</svg>
