<svg width="24" height="24" viewBox="0 0 24 24" fill="none" xmlns="http://www.w3.org/2000/svg">
<path fill-rule="evenodd" clip-rule="evenodd" d="M15.4122 4.02074L19.4796 8.08812C19.8583 8.46688 20.0473 8.9955 19.9945 9.52853C19.9418 10.0616 19.6528 10.5429 19.2071 10.84L16.2331 12.8226C15.863 13.0694 15.5982 13.4451 15.4903 13.8766L14.253 18.8259C14.1749 19.1384 13.9348 19.3846 13.6244 19.4706C13.314 19.5566 12.9814 19.469 12.7536 19.2412L4.2591 10.7467C4.03137 10.519 3.94374 10.1863 4.02971 9.87595C4.11568 9.56557 4.36196 9.32543 4.67441 9.24732L9.62369 8.00998C10.0552 7.90211 10.431 7.63728 10.6777 7.26722L12.6603 4.29324C12.9575 3.84755 13.4388 3.55856 13.9718 3.50578C14.5048 3.453 15.0334 3.64199 15.4122 4.02074Z" stroke="black" stroke-width="1.5" stroke-linecap="round" stroke-linejoin="round"/>
<path d="M3.99667 19.5029L8.50638 14.9932" stroke="black" stroke-width="1.5" stroke-linecap="round" stroke-linejoin="round"/>
</svg>
