<svg width="24" height="24" viewBox="0 0 24 24" fill="none" xmlns="http://www.w3.org/2000/svg">
<path d="M15.0012 7.49854C15.2774 7.49854 15.5015 7.72463 15.5015 8.00275V8.62701C15.5015 8.79708 15.4184 8.95314 15.2784 9.04718L13.6407 10.1486V11.9204L15.2784 13.0218C15.4174 13.1149 15.5015 13.2739 15.5015 13.442V14.0663C15.5015 14.3454 15.2784 14.5705 15.0022 14.5705H8.99774C8.72163 14.5705 8.49854 14.3444 8.49854 14.0663V13.442C8.49854 13.2719 8.58157 13.1159 8.72163 13.0218L10.3593 11.9204V10.1486L8.72163 9.04718C8.58257 8.95414 8.49854 8.79508 8.49854 8.62701V8.00275C8.49854 7.72463 8.72163 7.49854 8.99874 7.49854H15.0012" stroke="black" stroke-width="1.5" stroke-linecap="round" stroke-linejoin="round"/>
<path d="M12 17.5025V14.5723" stroke="black" stroke-width="1.5" stroke-linecap="round" stroke-linejoin="round"/>
<path fill-rule="evenodd" clip-rule="evenodd" d="M18.0025 21.0041H5.9975C4.33981 21.0041 2.99625 19.6605 2.99625 18.0028V5.99783C2.99625 4.34014 4.33981 2.99658 5.9975 2.99658H18.0025C19.6602 2.99658 21.0037 4.34014 21.0037 5.99783V18.0028C21.0037 19.6605 19.6602 21.0041 18.0025 21.0041Z" stroke="black" stroke-width="1.5" stroke-linecap="round" stroke-linejoin="round"/>
</svg>
