<svg width="24" height="24" viewBox="0 0 24 24" fill="none" xmlns="http://www.w3.org/2000/svg">
<rect x="2.99625" y="2.99609" width="18.0075" height="18.0075" rx="5" stroke="black" stroke-width="1.5" stroke-linecap="round" stroke-linejoin="round"/>
<path d="M12 18.003V14.7256" stroke="black" stroke-width="1.5" stroke-linecap="round" stroke-linejoin="round"/>
<path fill-rule="evenodd" clip-rule="evenodd" d="M15.0723 14.7248H8.92772C8.54384 14.725 8.18115 14.5488 7.94395 14.247C7.70675 13.9452 7.62131 13.5511 7.71221 13.1782L7.75123 13.0201C8.0247 11.9001 9.02834 11.1121 10.1812 11.1123H13.8188C14.9717 11.1121 15.9753 11.9001 16.2488 13.0201L16.2878 13.1782C16.3787 13.5511 16.2933 13.9452 16.0561 14.247C15.8188 14.5488 15.4562 14.725 15.0723 14.7248V14.7248Z" stroke="black" stroke-width="1.5" stroke-linecap="round" stroke-linejoin="round"/>
<path d="M13.8528 11.116L13.4446 8.66595L14.6011 7.79859C14.8501 7.61217 14.9518 7.28724 14.8535 6.9921C14.7552 6.69695 14.479 6.49791 14.1679 6.49805H9.83309C9.52182 6.49747 9.24519 6.69637 9.14662 6.99162C9.04806 7.28687 9.14972 7.61206 9.39891 7.79859L10.5544 8.66595L10.1462 11.116" stroke="black" stroke-width="1.5" stroke-linecap="round" stroke-linejoin="round"/>
</svg>
