<svg width="24" height="24" viewBox="0 0 24 24" fill="none" xmlns="http://www.w3.org/2000/svg">
<path d="M5.9975 14.001C8.20756 14.001 9.99917 15.7926 9.99917 18.0026C9.99917 20.2127 8.20756 22.0043 5.9975 22.0043C3.78744 22.0043 1.99583 20.2127 1.99583 18.0026C1.99583 15.7926 3.78744 14.001 5.9975 14.001" stroke="black" stroke-width="1.5" stroke-linecap="round" stroke-linejoin="round"/>
<path d="M4.81901 18.0022H7.17599" stroke="black" stroke-width="1.5" stroke-linecap="round" stroke-linejoin="round"/>
<path d="M5.9975 19.1812V16.8242" stroke="black" stroke-width="1.5" stroke-linecap="round" stroke-linejoin="round"/>
<path d="M5.7574 14.0113C5.25411 12.9092 4.99476 11.7115 4.99707 10.4999C4.99707 7.06052 7.0689 3.95982 10.2465 2.64364C13.424 1.32745 17.0815 2.05498 19.5135 4.48697C21.9455 6.91897 22.6731 10.5765 21.3569 13.754C20.0407 16.9316 16.94 19.0034 13.5006 19.0034C12.289 19.0057 11.0913 18.7464 9.98916 18.2431" stroke="black" stroke-width="1.5" stroke-linecap="round" stroke-linejoin="round"/>
<path fill-rule="evenodd" clip-rule="evenodd" d="M14.455 14.601L16.9561 7.84214C17.0406 7.61535 16.9851 7.36007 16.814 7.18891C16.6428 7.01776 16.3875 6.96222 16.1607 7.04681L9.39892 9.55085C9.14472 9.64491 8.98143 9.89356 8.99612 10.1642C9.01081 10.4348 9.20006 10.6644 9.46294 10.7303L12.5092 11.4967L13.2695 14.5329C13.3323 14.7999 13.5631 14.9938 13.8369 15.0095C14.1107 15.0252 14.3622 14.859 14.455 14.601V14.601Z" stroke="black" stroke-width="1.5" stroke-linecap="round" stroke-linejoin="round"/>
</svg>
