<svg width="24" height="24" viewBox="0 0 24 24" fill="none" xmlns="http://www.w3.org/2000/svg">
<path d="M12 20.0038V15.502" stroke="black" stroke-width="1.5" stroke-linecap="round" stroke-linejoin="round"/>
<path fill-rule="evenodd" clip-rule="evenodd" d="M6.49925 15.5019C6.13883 15.5019 5.80626 15.308 5.62869 14.9943C5.45111 14.6807 5.45596 14.2958 5.6414 13.9867L7.76338 10.4501C7.95545 10.13 8.02131 9.74978 7.94809 9.38369L7.34938 6.39032C7.23182 5.80252 7.38399 5.19298 7.76402 4.7294C8.14406 4.26583 8.71192 3.99707 9.31136 3.99707H14.6886C15.288 3.99707 15.8559 4.26583 16.2359 4.7294C16.616 5.19298 16.7681 5.80252 16.6506 6.39032L16.0519 9.38369C15.9787 9.74978 16.0445 10.13 16.2366 10.4501L18.3586 13.9867C18.5441 14.2958 18.5489 14.6807 18.3714 14.9944C18.1938 15.308 17.8612 15.5019 17.5008 15.5019H6.49925Z" stroke="black" stroke-width="1.5" stroke-linecap="round" stroke-linejoin="round"/>
</svg>
