<svg width="24" height="24" viewBox="0 0 24 24" fill="none" xmlns="http://www.w3.org/2000/svg">
<circle cx="12" cy="12.0003" r="9.00375" stroke="black" stroke-width="1.5" stroke-linecap="round" stroke-linejoin="round"/>
<path d="M15.0012 7.49854C15.2774 7.49854 15.5015 7.72163 15.5015 7.99774V8.616C15.5015 8.78407 15.4184 8.93914 15.2784 9.03217L13.6407 10.1236V11.8794L15.2784 12.9708C15.4174 13.0629 15.5015 13.2199 15.5015 13.387V14.0052C15.5015 14.2814 15.2784 14.5045 15.0022 14.5045H8.99774C8.72163 14.5045 8.49854 14.2814 8.49854 14.0052V13.387C8.49854 13.2189 8.58157 13.0639 8.72163 12.9708L10.3593 11.8794V10.1236L8.72163 9.03317C8.58257 8.94014 8.49854 8.78307 8.49854 8.616V7.99874C8.49854 7.72163 8.72163 7.49854 8.99874 7.49854H15.0012" stroke="black" stroke-width="1.5" stroke-linecap="round" stroke-linejoin="round"/>
<path d="M12 17.5026V14.5073" stroke="black" stroke-width="1.5" stroke-linecap="round" stroke-linejoin="round"/>
</svg>
