<svg width="24" height="24" viewBox="0 0 24 24" fill="none" xmlns="http://www.w3.org/2000/svg">
<path d="M20.7729 14.0006C21.678 10.0747 19.8734 6.0241 16.3494 4.07142C12.8253 2.11874 8.43414 2.73623 5.5853 5.58507C2.73646 8.43391 2.11897 12.8251 4.07165 16.3492C6.02433 19.8732 10.0749 21.6778 14.0008 20.7727" stroke="black" stroke-width="1.5" stroke-linecap="round" stroke-linejoin="round"/>
<path d="M18.7519 17.252V20.2532" stroke="black" stroke-width="1.5" stroke-linecap="round" stroke-linejoin="round"/>
<path d="M17.2522 18.7522H20.2534" stroke="black" stroke-width="1.5" stroke-linecap="round" stroke-linejoin="round"/>
<path d="M7.99833 16.0021L10.5376 13.4629" stroke="black" stroke-width="1.5" stroke-linecap="round" stroke-linejoin="round"/>
<path fill-rule="evenodd" clip-rule="evenodd" d="M14.4038 7.28806L16.712 9.59631C16.9218 9.80605 17.0264 10.0988 16.9972 10.394C16.968 10.6892 16.808 10.9557 16.5611 11.1203L14.8723 12.2461C14.6674 12.3827 14.5207 12.5908 14.461 12.8298L13.7619 15.6264C13.7186 15.7995 13.5856 15.9359 13.4137 15.9835C13.2418 16.0311 13.0576 15.9826 12.9315 15.8564L8.14366 11.0686C8.01754 10.9425 7.96901 10.7583 8.01662 10.5864C8.06423 10.4145 8.20062 10.2815 8.37366 10.2382L11.1703 9.53907C11.4092 9.47933 11.6174 9.33267 11.754 9.12773L12.8798 7.43894C13.0444 7.19213 13.3109 7.03209 13.6061 7.00287C13.9013 6.97364 14.194 7.07831 14.4038 7.28806Z" stroke="black" stroke-width="1.5" stroke-linecap="round" stroke-linejoin="round"/>
</svg>
