<svg width="24" height="24" viewBox="0 0 24 24" fill="none" xmlns="http://www.w3.org/2000/svg">
<path fill-rule="evenodd" clip-rule="evenodd" d="M17.0285 6.58408L20.4176 9.97321C20.8415 10.3971 21.053 10.9886 20.9939 11.5851C20.9348 12.1816 20.6114 12.7202 20.1127 13.0527L17.6565 14.6902C17.2424 14.9663 16.946 15.3868 16.8253 15.8697L15.7313 20.2457C15.6439 20.5954 15.3751 20.871 15.0278 20.9672C14.6805 21.0634 14.3082 20.9653 14.0534 20.7105L6.29119 12.9483C6.03635 12.6935 5.93829 12.3213 6.03449 11.9739C6.1307 11.6266 6.40629 11.3579 6.75594 11.2704L11.132 10.1764C11.6149 10.0557 12.0354 9.75932 12.3115 9.34519L13.9489 6.88901C14.2814 6.39026 14.8201 6.06686 15.4166 6.0078C16.0131 5.94873 16.6046 6.16022 17.0285 6.58408Z" stroke="black" stroke-width="1.5" stroke-linecap="round" stroke-linejoin="round"/>
<path d="M2.99625 2.99609L5.9975 5.99734" stroke="black" stroke-width="1.5" stroke-linecap="round" stroke-linejoin="round"/>
<path d="M2.99625 5.99734L5.9975 2.99609" stroke="black" stroke-width="1.5" stroke-linecap="round" stroke-linejoin="round"/>
<path d="M10.17 16.8311L6.05363 20.9474" stroke="black" stroke-width="1.5" stroke-linecap="round" stroke-linejoin="round"/>
</svg>
