<svg width="24" height="24" viewBox="0 0 24 24" fill="none" xmlns="http://www.w3.org/2000/svg">
<path d="M12 18.003V14.7256" stroke="black" stroke-width="1.5" stroke-linecap="round" stroke-linejoin="round"/>
<path fill-rule="evenodd" clip-rule="evenodd" d="M15.0723 14.7248H8.92772C8.54384 14.725 8.18115 14.5488 7.94395 14.247C7.70675 13.9452 7.62131 13.5511 7.71221 13.1782L7.79825 12.83C8.04409 11.8218 8.94738 11.1123 9.98516 11.1123H14.0168C15.0539 11.1132 15.9561 11.8225 16.2017 12.83L16.2868 13.1782C16.3776 13.551 16.2923 13.9448 16.0554 14.2466C15.8184 14.5484 15.456 14.7247 15.0723 14.7248V14.7248Z" stroke="black" stroke-width="1.5" stroke-linecap="round" stroke-linejoin="round"/>
<path d="M13.8528 11.116L13.4446 8.66595L14.6011 7.79859C14.8501 7.61217 14.9518 7.28724 14.8535 6.9921C14.7552 6.69695 14.479 6.49791 14.1679 6.49805H9.8331C9.52184 6.49747 9.24521 6.69637 9.14664 6.99162C9.04807 7.28687 9.14974 7.61206 9.39892 7.79859L10.5544 8.66595L10.1462 11.116" stroke="black" stroke-width="1.5" stroke-linecap="round" stroke-linejoin="round"/>
<circle cx="12" cy="11.9998" r="9.00375" stroke="black" stroke-width="1.5" stroke-linecap="round" stroke-linejoin="round"/>
</svg>
