<svg width="24" height="24" viewBox="0 0 24 24" fill="none" xmlns="http://www.w3.org/2000/svg">
<path d="M15.0303 7.49805C15.3065 7.49805 15.5305 7.722 15.5305 7.99826V8.62252C15.5313 8.79162 15.4466 8.94968 15.3054 9.04269L13.6517 10.1431V11.9199L15.3054 13.0203C15.4458 13.1141 15.5302 13.2717 15.5305 13.4405V14.0648C15.5305 14.341 15.3065 14.565 15.0303 14.565H8.96973C8.69348 14.565 8.46952 14.341 8.46952 14.0648V13.4405C8.46871 13.2714 8.55339 13.1134 8.69462 13.0203L10.3483 11.9199V10.1482L8.69462 9.04769C8.55421 8.95393 8.46979 8.79635 8.46952 8.62752V7.99826C8.46952 7.722 8.69348 7.49805 8.96973 7.49805H15.0303" stroke="black" stroke-width="1.5" stroke-linecap="round" stroke-linejoin="round"/>
<path d="M12 17.5025V14.5723" stroke="black" stroke-width="1.5" stroke-linecap="round" stroke-linejoin="round"/>
<rect x="2.99625" y="2.99658" width="18.0075" height="18.0075" rx="5" stroke="black" stroke-width="1.5" stroke-linecap="round" stroke-linejoin="round"/>
</svg>
