<svg width="24" height="24" viewBox="0 0 24 24" fill="none" xmlns="http://www.w3.org/2000/svg">
<path fill-rule="evenodd" clip-rule="evenodd" d="M17.4963 5.27286V5.27286C18.9541 6.73063 19.773 8.70778 19.773 10.7694C19.773 12.831 18.9541 14.8081 17.4963 16.2659V16.2659L13.295 20.4671C12.5797 21.1825 11.4199 21.1825 10.7045 20.4671L6.50323 16.2658C5.04547 14.8081 4.2265 12.8309 4.2265 10.7693C4.2265 8.70774 5.04547 6.73059 6.50323 5.27282V5.27282C7.961 3.81505 9.93817 2.99609 11.9998 2.99609C14.0614 2.99609 16.0385 3.81508 17.4963 5.27286Z" stroke="black" stroke-width="1.5" stroke-linecap="round" stroke-linejoin="round"/>
<path fill-rule="evenodd" clip-rule="evenodd" d="M9.07088 12.3826C8.30732 11.619 8.30732 10.381 9.07088 9.61745L10.6175 8.07088C11.381 7.30731 12.619 7.30731 13.3826 8.07087L14.9291 9.61745C15.6927 10.381 15.6927 11.619 14.9291 12.3825L13.3826 13.9291C12.619 14.6927 11.381 14.6927 10.6175 13.9291L9.07088 12.3826Z" stroke="black" stroke-width="1.5" stroke-linecap="round" stroke-linejoin="round"/>
</svg>
