<svg width="24" height="24" viewBox="0 0 24 24" fill="none" xmlns="http://www.w3.org/2000/svg">
<path d="M12 17.0022V14.001" stroke="black" stroke-width="1.5" stroke-linecap="round" stroke-linejoin="round"/>
<rect x="2.99625" y="2.99609" width="18.0075" height="18.0075" rx="5" stroke="black" stroke-width="1.5" stroke-linecap="round" stroke-linejoin="round"/>
<path fill-rule="evenodd" clip-rule="evenodd" d="M14.5042 6.99805H9.49577C9.34591 6.99805 9.20395 7.06524 9.10894 7.18113C9.01393 7.29702 8.97589 7.44941 9.00528 7.59636L9.54278 10.2838C9.59159 10.5278 9.54769 10.7813 9.41964 10.9947L8.07037 13.2434C7.97765 13.3979 7.97522 13.5904 8.06402 13.7472C8.15281 13.904 8.3191 14.001 8.49932 14.001H15.5007C15.6809 14.001 15.8472 13.904 15.936 13.7472C16.0248 13.5904 16.0223 13.3979 15.9296 13.2434L14.5804 10.9947C14.4523 10.7813 14.4084 10.5278 14.4572 10.2838L14.9947 7.59639C15.0241 7.44943 14.9861 7.29704 14.8911 7.18114C14.7961 7.06524 14.6541 6.99805 14.5042 6.99805Z" stroke="black" stroke-width="1.5" stroke-linecap="round" stroke-linejoin="round"/>
</svg>
