<svg width="24" height="24" viewBox="0 0 24 24" fill="none" xmlns="http://www.w3.org/2000/svg">
<path d="M20.0033 19.0031L5.49729 4.49707" stroke="black" stroke-width="1.5" stroke-linecap="round" stroke-linejoin="round"/>
<path d="M8.49854 15.502L3.99667 20.0038" stroke="black" stroke-width="1.5" stroke-linecap="round" stroke-linejoin="round"/>
<path d="M9.46 8.45996L4.97813 9.58043C4.62845 9.66784 4.35283 9.9366 4.25662 10.284C4.16042 10.6313 4.25851 11.0036 4.5134 11.2584L12.742 19.487C12.9968 19.7419 13.3691 19.8399 13.7164 19.7437C14.0638 19.6475 14.3325 19.3719 14.4199 19.0223L15.5404 14.5403" stroke="black" stroke-width="1.5" stroke-linecap="round" stroke-linejoin="round"/>
<path d="M17.4636 12.4619L19.1123 11.3627C19.6111 11.0302 19.9345 10.4916 19.9935 9.89509C20.0526 9.29857 19.8411 8.707 19.4173 8.28313L15.7171 4.58311C15.2933 4.15925 14.7017 3.94775 14.1052 4.00682C13.5087 4.06588 12.97 4.38929 12.6375 4.88805L11.5384 6.53668" stroke="black" stroke-width="1.5" stroke-linecap="round" stroke-linejoin="round"/>
</svg>
