<svg width="24" height="24" viewBox="0 0 24 24" fill="none" xmlns="http://www.w3.org/2000/svg">
<path d="M12 11.0683C12.0182 11.0683 12.0357 11.061 12.0485 11.048C12.0612 11.035 12.0683 11.0174 12.068 10.9992C12.068 10.9712 12.0511 10.946 12.0252 10.9354C11.9993 10.9247 11.9695 10.9308 11.9498 10.9508C11.9302 10.9707 11.9245 11.0006 11.9355 11.0263C11.9465 11.0521 11.972 11.0687 12 11.0683" stroke="black" stroke-width="1.5" stroke-linecap="round" stroke-linejoin="round"/>
<path fill-rule="evenodd" clip-rule="evenodd" d="M17.4963 5.27296V5.27296C20.5316 8.30854 20.5316 13.2299 17.4963 16.2655V16.2655L13.2945 20.4673C12.5792 21.1823 11.4198 21.1823 10.7045 20.4673L6.50271 16.2655C5.04459 14.808 4.22537 12.8309 4.22537 10.7692C4.22537 8.7076 5.04459 6.73044 6.50271 5.27296V5.27296C7.96024 3.81453 9.93761 2.99512 11.9995 2.99512C14.0614 2.99512 16.0388 3.81453 17.4963 5.27296Z" stroke="black" stroke-width="1.5" stroke-linecap="round" stroke-linejoin="round"/>
<path d="M8.6306 11.0683C8.65852 11.0683 8.68369 11.0514 8.69438 11.0256C8.70506 10.9999 8.69915 10.9702 8.67941 10.9504C8.65967 10.9307 8.62998 10.9248 8.60419 10.9355C8.57839 10.9461 8.56157 10.9713 8.56157 10.9992C8.56157 11.0175 8.56885 11.0351 8.58179 11.048C8.59474 11.061 8.61229 11.0683 8.6306 11.0683" stroke="black" stroke-width="1.5" stroke-linecap="round" stroke-linejoin="round"/>
<path d="M15.3704 11.0683C15.3886 11.0683 15.4061 11.061 15.4189 11.048C15.4317 11.035 15.4387 11.0174 15.4384 10.9992C15.4384 10.9712 15.4215 10.946 15.3956 10.9354C15.3697 10.9247 15.3399 10.9308 15.3202 10.9508C15.3006 10.9707 15.2949 11.0006 15.3059 11.0263C15.3169 11.0521 15.3424 11.0687 15.3704 11.0683" stroke="black" stroke-width="1.5" stroke-linecap="round" stroke-linejoin="round"/>
</svg>
