<svg width="24" height="24" viewBox="0 0 24 24" fill="none" xmlns="http://www.w3.org/2000/svg">
<path fill-rule="evenodd" clip-rule="evenodd" d="M14.4331 7.29104L16.709 9.56693C16.921 9.77887 17.0267 10.0747 16.9972 10.3729C16.9676 10.6712 16.8059 10.9405 16.5565 11.1067L14.8925 12.2162C14.6854 12.3542 14.5372 12.5645 14.4769 12.8059L13.7845 15.5753C13.7408 15.7501 13.6064 15.8879 13.4328 15.936C13.2591 15.9841 13.073 15.9351 12.9455 15.8077L8.19241 11.0545C8.06499 10.9271 8.01596 10.741 8.06406 10.5673C8.11217 10.3936 8.24997 10.2593 8.4248 10.2156L11.1942 9.52321C11.4356 9.46285 11.6459 9.31466 11.7839 9.10759L12.8934 7.44352C13.0596 7.19415 13.3289 7.03246 13.6272 7.00292C13.9254 6.97339 14.2212 7.07913 14.4331 7.29104Z" stroke="black" stroke-width="1.5" stroke-linecap="round" stroke-linejoin="round"/>
<path fill-rule="evenodd" clip-rule="evenodd" d="M16.0017 2.99609H7.99833C5.23576 2.99609 2.99625 5.2356 2.99625 7.99818V16.0015C2.99625 18.7641 5.23576 21.0036 7.99833 21.0036H16.0017C18.7642 21.0036 21.0037 18.7641 21.0037 16.0015V7.99818C21.0037 5.2356 18.7642 2.99609 16.0017 2.99609Z" stroke="black" stroke-width="1.5" stroke-linecap="round" stroke-linejoin="round"/>
<path d="M7.99832 16.0013L10.569 13.4307" stroke="black" stroke-width="1.5" stroke-linecap="round" stroke-linejoin="round"/>
</svg>
