<svg width="24" height="24" viewBox="0 0 24 24" fill="none" xmlns="http://www.w3.org/2000/svg">
<path fill-rule="evenodd" clip-rule="evenodd" d="M18.0025 21.0041H5.9975C4.33981 21.0041 2.99625 19.6605 2.99625 18.0028V5.99783C2.99625 4.34014 4.33981 2.99658 5.9975 2.99658H18.0025C19.6602 2.99658 21.0037 4.34014 21.0037 5.99783V18.0028C21.0037 19.6605 19.6602 21.0041 18.0025 21.0041Z" stroke="black" stroke-width="1.5" stroke-linecap="round" stroke-linejoin="round"/>
<path d="M17.3542 10.9306C17.5513 11.1277 17.5513 11.4469 17.3542 11.6439L16.913 12.0851C16.793 12.2052 16.6229 12.2562 16.4569 12.2232L14.509 11.833L12.9024 13.4397L13.2925 15.3875C13.3256 15.5526 13.2735 15.7246 13.1545 15.8437L12.7133 16.2849C12.5162 16.482 12.1971 16.482 12 16.2849L7.71522 12.0001C7.51813 11.803 7.51813 11.4839 7.71522 11.2868L8.1564 10.8456C8.27645 10.7256 8.44652 10.6745 8.61259 10.7076L10.5604 11.0977L12.1671 9.49104L11.7769 7.54323C11.7439 7.37816 11.7959 7.20609 11.915 7.08704L12.3561 6.64586C12.5532 6.44878 12.8724 6.44878 13.0694 6.64586L17.3542 10.9306" stroke="black" stroke-width="1.5" stroke-linecap="round" stroke-linejoin="round"/>
<path d="M7.49812 16.502L9.85611 14.144" stroke="black" stroke-width="1.5" stroke-linecap="round" stroke-linejoin="round"/>
</svg>
