<svg width="24" height="24" viewBox="0 0 24 24" fill="none" xmlns="http://www.w3.org/2000/svg">
<path fill-rule="evenodd" clip-rule="evenodd" d="M15.628 4.58312L19.4172 8.37235C19.8411 8.79622 20.0526 9.38779 19.9935 9.98431C19.9344 10.5808 19.611 11.1194 19.1123 11.4519L16.356 13.2895C15.9419 13.5655 15.6455 13.9861 15.5248 14.4689L14.3307 19.2452C14.2433 19.5948 13.9746 19.8704 13.6272 19.9666C13.2799 20.0628 12.9077 19.9648 12.6528 19.7099L4.29035 11.3474C4.03552 11.0926 3.93747 10.7204 4.03368 10.373C4.12988 10.0257 4.40547 9.75697 4.75511 9.66954L9.53137 8.47555C10.0142 8.35482 10.4348 8.05846 10.7109 7.64432L12.5484 4.88807C12.8809 4.3893 13.4195 4.06589 14.016 4.00682C14.6125 3.94775 15.2041 4.15925 15.628 4.58312Z" stroke="black" stroke-width="1.5" stroke-linecap="round" stroke-linejoin="round"/>
<path d="M8.47161 15.5283L3.99667 20.0033" stroke="black" stroke-width="1.5" stroke-linecap="round" stroke-linejoin="round"/>
<path d="M15.9153 13.69L10.3103 8.08496" stroke="black" stroke-width="1.5" stroke-linecap="round" stroke-linejoin="round"/>
</svg>
