<svg width="24" height="24" viewBox="0 0 24 24" fill="none" xmlns="http://www.w3.org/2000/svg">
<path fill-rule="evenodd" clip-rule="evenodd" d="M11.7915 9.86705L13.1285 8.53012C13.2707 8.38788 13.3406 8.1887 13.3184 7.98878L13.2236 7.13618C13.2081 6.99645 13.2825 6.86215 13.4092 6.80125C13.536 6.74034 13.6873 6.7661 13.7867 6.8655L17.1341 10.2129C17.2336 10.3123 17.2593 10.4637 17.1984 10.5904C17.1375 10.7172 17.0032 10.7916 16.8635 10.7761L16.0109 10.6813C15.8109 10.6591 15.6118 10.729 15.4695 10.8712L14.1326 12.2081C14.0084 12.3323 13.9387 12.5007 13.9386 12.6763V15.0174C13.9386 15.2852 13.7773 15.5266 13.5299 15.6291C13.2825 15.7316 12.9976 15.675 12.8083 15.4856L8.51403 11.1914C8.32466 11.002 8.268 10.7172 8.37049 10.4698C8.47297 10.2223 8.71441 10.061 8.98222 10.061H11.3233C11.4989 10.061 11.6673 9.99123 11.7915 9.86705Z" stroke="black" stroke-width="1.5" stroke-linecap="round" stroke-linejoin="round"/>
<path d="M8.22834 15.7717L10.6612 13.3389" stroke="black" stroke-width="1.5" stroke-linecap="round" stroke-linejoin="round"/>
<circle cx="12" cy="11.9998" r="9.00375" stroke="black" stroke-width="1.5" stroke-linecap="round" stroke-linejoin="round"/>
</svg>
