<svg width="24" height="24" viewBox="0 0 24 24" fill="none" xmlns="http://www.w3.org/2000/svg">
<path d="M7.99833 16.0021L10.5376 13.4629" stroke="black" stroke-width="1.5" stroke-linecap="round" stroke-linejoin="round"/>
<path fill-rule="evenodd" clip-rule="evenodd" d="M14.4038 7.28806L16.712 9.59631C16.9218 9.80605 17.0264 10.0988 16.9972 10.394C16.968 10.6892 16.808 10.9557 16.5611 11.1203L14.8723 12.2461C14.6674 12.3827 14.5207 12.5908 14.461 12.8298L13.7619 15.6264C13.7186 15.7995 13.5856 15.9359 13.4137 15.9835C13.2418 16.0311 13.0576 15.9826 12.9315 15.8564L8.14366 11.0686C8.01754 10.9425 7.96901 10.7583 8.01662 10.5864C8.06423 10.4145 8.20062 10.2815 8.37366 10.2382L11.1703 9.53907C11.4092 9.47933 11.6174 9.33267 11.754 9.12773L12.8798 7.43894C13.0444 7.19213 13.3109 7.03209 13.6061 7.00287C13.9013 6.97364 14.194 7.07831 14.4038 7.28806Z" stroke="black" stroke-width="1.5" stroke-linecap="round" stroke-linejoin="round"/>
<path d="M13.0004 21.0036H8.99875C5.68366 21.0036 2.99625 18.3162 2.99625 15.0011V8.99859C2.99625 5.6835 5.68366 2.99609 8.99875 2.99609H15.0013C16.5932 2.99609 18.12 3.6285 19.2457 4.75419C20.3713 5.87987 21.0037 7.40663 21.0037 8.99859V13.0003" stroke="black" stroke-width="1.5" stroke-linecap="round" stroke-linejoin="round"/>
<path d="M18.7515 16.502V21.0038" stroke="black" stroke-width="1.5" stroke-linecap="round" stroke-linejoin="round"/>
<path d="M16.5019 18.7512H21.0038" stroke="black" stroke-width="1.5" stroke-linecap="round" stroke-linejoin="round"/>
</svg>
