<svg width="24" height="24" viewBox="0 0 24 24" fill="none" xmlns="http://www.w3.org/2000/svg">
<path d="M5.9975 13.1533C4.15973 13.9777 2.99625 15.1702 2.99625 16.5017C2.99625 18.9878 7.02693 21.0036 12 21.0036C16.9731 21.0036 21.0037 18.9878 21.0037 16.5017C21.0037 15.1702 19.8403 13.9777 18.0025 13.1533" stroke="black" stroke-width="1.5" stroke-linecap="round" stroke-linejoin="round"/>
<path d="M15.6535 17.002C14.5694 17.7074 13.2923 18.0571 12 18.0024C10.7077 18.0571 9.43059 17.7074 8.34648 17.002" stroke="black" stroke-width="1.5" stroke-linecap="round" stroke-linejoin="round"/>
<path d="M14.2009 3.90979C15.0928 4.8016 15.3596 6.14285 14.8769 7.30809C14.3943 8.47334 13.2572 9.23311 11.996 9.23311C10.7348 9.23311 9.5977 8.47334 9.11505 7.30809C8.63241 6.14285 8.89922 4.8016 9.79108 3.90979C10.3757 3.32478 11.1689 2.99609 11.996 2.99609C12.8231 2.99609 13.6163 3.32478 14.2009 3.90979" stroke="black" stroke-width="1.5" stroke-linecap="round" stroke-linejoin="round"/>
<path d="M12 9.23145V15.0018" stroke="black" stroke-width="1.5" stroke-linecap="round" stroke-linejoin="round"/>
</svg>
