<svg width="24" height="24" viewBox="0 0 24 24" fill="none" xmlns="http://www.w3.org/2000/svg">
<path d="M12 21.0042V15.502" stroke="black" stroke-width="1.5" stroke-linecap="round" stroke-linejoin="round"/>
<path fill-rule="evenodd" clip-rule="evenodd" d="M14.9012 10.499H9.09877C7.71541 10.4993 6.51142 11.445 6.18356 12.789L6.05051 13.3352C5.92307 13.8573 6.04245 14.4089 6.37433 14.8316C6.70621 15.2543 7.21382 15.5011 7.75121 15.5011H16.2548C16.7921 15.5011 17.2998 15.2543 17.6316 14.8316C17.9635 14.4089 18.0829 13.8573 17.9555 13.3352L17.8224 12.789C17.494 11.4429 16.2868 10.4965 14.9012 10.499V10.499Z" stroke="black" stroke-width="1.5" stroke-linecap="round" stroke-linejoin="round"/>
<path d="M14.7511 10.4992L14.1009 6.59759C14.0391 6.22892 14.1881 5.85657 14.487 5.63219L15.6015 4.79684C15.946 4.53848 16.0865 4.08866 15.9503 3.68015C15.8141 3.27164 15.4319 2.99609 15.0012 2.99609H8.99874C8.56813 2.99609 8.18583 3.27164 8.04966 3.68015C7.91349 4.08866 8.054 4.53848 8.39849 4.79684L9.51296 5.63219C9.81193 5.85657 9.96087 6.22892 9.89912 6.59759L9.24885 10.4992" stroke="black" stroke-width="1.5" stroke-linecap="round" stroke-linejoin="round"/>
</svg>
