<svg width="24" height="24" viewBox="0 0 24 24" fill="none" xmlns="http://www.w3.org/2000/svg">
<path d="M18.1095 5.42391C21.4836 8.79804 21.4836 14.2686 18.1095 17.6427C14.7353 21.0168 9.26479 21.0168 5.89068 17.6427C2.51654 14.2686 2.51654 8.79802 5.89068 5.42391C9.26481 2.04978 14.7353 2.04978 18.1095 5.42391" stroke="black" stroke-width="1.5" stroke-linecap="round" stroke-linejoin="round"/>
<path d="M17.0842 10.5687C17.2627 10.7473 17.2627 11.0362 17.0842 11.2148L16.6848 11.6141C16.5763 11.7226 16.4218 11.7687 16.272 11.7389L14.5085 11.3857L13.0541 12.8401L13.4074 14.6036C13.4371 14.7533 13.3901 14.9089 13.2826 15.0164L12.8832 15.4157C12.7046 15.5943 12.4157 15.5943 12.2371 15.4157L8.35777 11.5364C8.17921 11.3578 8.17921 11.0689 8.35777 10.8903L8.75713 10.4909C8.86561 10.3825 9.02017 10.3364 9.16993 10.3661L10.9334 10.7194L12.3878 9.26502L12.0346 7.5015C12.0048 7.35174 12.0518 7.19622 12.1594 7.0887L12.5587 6.68934C12.7373 6.51078 13.0262 6.51078 13.2048 6.68934L17.0842 10.5687" stroke="black" stroke-width="1.5" stroke-linecap="round" stroke-linejoin="round"/>
<path d="M8.35587 15.4175L10.2951 13.4783" stroke="black" stroke-width="1.5" stroke-linecap="round" stroke-linejoin="round"/>
</svg>
