<svg width="24" height="24" viewBox="0 0 24 24" fill="none" xmlns="http://www.w3.org/2000/svg">
<path d="M5.29 18.96L9.53 14.72" stroke="black" stroke-width="1.5" stroke-linecap="round" stroke-linejoin="round"/>
<path fill-rule="evenodd" clip-rule="evenodd" d="M17.487 9.41391L19.559 9.52391C19.842 9.53891 20.119 9.43291 20.319 9.23291L20.756 8.79591C21.147 8.40491 21.147 7.77191 20.756 7.38191L16.869 3.49491C16.478 3.10391 15.845 3.10391 15.455 3.49491L15.129 3.81991C14.941 4.00791 14.836 4.26191 14.836 4.52691V6.76291L12.185 9.41391H8.624C8.359 9.41391 8.104 9.51891 7.917 9.70691L6.929 10.6949C6.538 11.0859 6.538 11.7189 6.929 12.1089L9.535 14.7149L12.141 17.3209C12.532 17.7119 13.165 17.7119 13.555 17.3209L14.543 16.3329C14.731 16.1449 14.836 15.8909 14.836 15.6259V12.0639L17.487 9.41391Z" stroke="black" stroke-width="1.5" stroke-linecap="round" stroke-linejoin="round"/>
<path d="M17.49 9.41001L14.84 6.76001" stroke="black" stroke-width="1.5" stroke-linecap="round" stroke-linejoin="round"/>
<path d="M7.54 21.21L3.04 16.71" stroke="black" stroke-width="1.5" stroke-linecap="round" stroke-linejoin="round"/>
</svg>
