<svg width="24" height="24" viewBox="0 0 24 24" fill="none" xmlns="http://www.w3.org/2000/svg">
<rect x="2.99625" y="2.99609" width="18.0075" height="18.0075" rx="5" stroke="black" stroke-width="1.5"/>
<path d="M8.93854 11.2344L7.79048 12.3824C7.28301 12.8899 6.99792 13.5781 6.99792 14.2958C6.99792 15.0135 7.28301 15.7017 7.79048 16.2092V16.2092C8.29795 16.7167 8.98622 17.0018 9.70389 17.0018C10.4216 17.0018 11.1098 16.7167 11.6173 16.2092L12.7654 15.0611" stroke="black" stroke-width="1.5" stroke-linecap="round" stroke-linejoin="round"/>
<path d="M10.4693 13.5313L13.1481 10.8525" stroke="black" stroke-width="1.5" stroke-linecap="round" stroke-linejoin="round"/>
<path fill-rule="evenodd" clip-rule="evenodd" d="M15.0615 12.7655L11.2347 8.93867L12.3827 7.79061C12.8902 7.28314 13.5785 6.99805 14.2962 6.99805C15.0138 6.99805 15.7021 7.28314 16.2096 7.79061V7.79061C16.717 8.29808 17.0021 8.98635 17.0021 9.70402C17.0021 10.4217 16.717 11.11 16.2096 11.6174L15.0615 12.7655Z" stroke="black" stroke-width="1.5" stroke-linecap="round" stroke-linejoin="round"/>
</svg>
