<svg width="24" height="24" viewBox="0 0 24 24" fill="none" xmlns="http://www.w3.org/2000/svg">
<path fill-rule="evenodd" clip-rule="evenodd" d="M14.198 10.791C14.198 9.57702 13.214 8.59302 12 8.59302C10.786 8.59302 9.802 9.57702 9.802 10.791C9.802 12.005 10.786 12.989 12 12.989C13.214 12.989 14.198 12.005 14.198 10.791Z" stroke="black" stroke-width="1.5" stroke-linecap="round" stroke-linejoin="round"/>
<path fill-rule="evenodd" clip-rule="evenodd" d="M12 22V22C11.033 22 10.25 21.216 10.25 20.25V17.552C10.25 16.586 11.034 15.802 12 15.802V15.802C12.966 15.802 13.75 16.586 13.75 17.552V20.25C13.75 21.216 12.966 22 12 22Z" stroke="black" stroke-width="1.5" stroke-linecap="round" stroke-linejoin="round"/>
<path d="M17 18.011C19.289 16.425 20.791 13.786 20.791 10.791C20.791 5.936 16.855 2 12 2C7.14502 2 3.20901 5.936 3.20901 10.791C3.20901 13.786 4.71101 16.425 7.00002 18.011" stroke="black" stroke-width="1.5" stroke-linecap="round" stroke-linejoin="round"/>
<path d="M8.00001 14.5491C7.07601 13.5661 6.50601 12.2461 6.50601 10.7911C6.50601 7.75712 8.96601 5.29712 12 5.29712C15.034 5.29712 17.494 7.75712 17.494 10.7911C17.494 12.2471 16.924 13.5661 16 14.5491" stroke="black" stroke-width="1.5" stroke-linecap="round" stroke-linejoin="round"/>
</svg>
