<svg width="24" height="24" viewBox="0 0 24 24" fill="none" xmlns="http://www.w3.org/2000/svg">
<path fill-rule="evenodd" clip-rule="evenodd" d="M14.0008 10.9999C14.0008 9.89483 13.105 8.99902 12 8.99902C10.895 8.99902 9.99916 9.89483 9.99916 10.9999C9.99916 12.1049 10.895 13.0007 12 13.0007C12.5307 13.0007 13.0396 12.7899 13.4148 12.4147C13.7901 12.0395 14.0008 11.5305 14.0008 10.9999V10.9999Z" stroke="black" stroke-width="1.5" stroke-linecap="round" stroke-linejoin="round"/>
<path fill-rule="evenodd" clip-rule="evenodd" d="M14.0008 10.9999C14.0008 9.89483 13.105 8.99902 12 8.99902C10.895 8.99902 9.99916 9.89483 9.99916 10.9999C9.99916 12.1049 10.895 13.0007 12 13.0007C12.5307 13.0007 13.0396 12.7899 13.4148 12.4147C13.7901 12.0395 14.0008 11.5305 14.0008 10.9999Z" stroke="black" stroke-width="1.5" stroke-linecap="round" stroke-linejoin="round"/>
<path d="M17.0021 18.4853C20.2997 16.282 21.7673 12.1805 20.6161 8.38529C19.4648 4.59011 15.9659 1.99512 12 1.99512C8.03405 1.99512 4.53514 4.59011 3.38392 8.38529C2.2327 12.1805 3.70031 16.282 6.99791 18.4853" stroke="black" stroke-width="1.5" stroke-linecap="round" stroke-linejoin="round"/>
<path d="M7.99832 14.768C5.94103 12.5881 6.00713 9.16246 8.147 7.06349C10.2869 4.96451 13.7131 4.96451 15.853 7.06349C17.9929 9.16246 18.059 12.5881 16.0017 14.768" stroke="black" stroke-width="1.5" stroke-linecap="round" stroke-linejoin="round"/>
<path fill-rule="evenodd" clip-rule="evenodd" d="M12.35 16.002C12.8116 16.002 13.2522 16.1952 13.5647 16.5349C13.8773 16.8746 14.0333 17.3297 13.995 17.7897L13.7803 20.3663C13.7032 21.2922 12.9291 22.0045 12 22.0045V22.0045C11.0709 22.0045 10.2969 21.2922 10.2197 20.3663L10.005 17.7897C9.96666 17.3297 10.1227 16.8746 10.4353 16.5349C10.7478 16.1952 11.1884 16.002 11.65 16.002H12.35Z" stroke="black" stroke-width="1.5" stroke-linecap="round" stroke-linejoin="round"/>
</svg>
