<svg width="24" height="24" viewBox="0 0 24 24" fill="none" xmlns="http://www.w3.org/2000/svg">
<path d="M18.763 17.925C17.48 19.388 15.735 20.435 13.75 20.827" stroke="black" stroke-width="1.5" stroke-linecap="round" stroke-linejoin="round"/>
<path d="M5.237 6.0751C6.52 4.6121 8.265 3.5651 10.25 3.1731" stroke="black" stroke-width="1.5" stroke-linecap="round" stroke-linejoin="round"/>
<path d="M12 11.909C11.95 11.909 11.909 11.95 11.91 12C11.91 12.05 11.951 12.091 12.001 12.091C12.051 12.091 12.091 12.05 12.091 12C12.091 11.95 12.051 11.909 12 11.909" stroke="black" stroke-width="1.5" stroke-linecap="round" stroke-linejoin="round"/>
<path d="M12 6V9" stroke="black" stroke-width="1.5" stroke-linecap="round" stroke-linejoin="round"/>
<path d="M12 15V18" stroke="black" stroke-width="1.5" stroke-linecap="round" stroke-linejoin="round"/>
<path d="M18 12H15" stroke="black" stroke-width="1.5" stroke-linecap="round" stroke-linejoin="round"/>
<path d="M9 12H6" stroke="black" stroke-width="1.5" stroke-linecap="round" stroke-linejoin="round"/>
<path d="M3.485 14.896C3.175 13.986 3 13.014 3 12C3 10.986 3.175 10.014 3.485 9.104" stroke="black" stroke-width="1.5" stroke-linecap="round" stroke-linejoin="round"/>
<path d="M20.515 14.896C20.825 13.986 21 13.014 21 12C21 10.986 20.825 10.014 20.515 9.104" stroke="black" stroke-width="1.5" stroke-linecap="round" stroke-linejoin="round"/>
<path d="M5.237 17.925C6.52 19.388 8.265 20.435 10.25 20.827" stroke="black" stroke-width="1.5" stroke-linecap="round" stroke-linejoin="round"/>
<path d="M13.75 3.1731C15.735 3.5641 17.479 4.6111 18.763 6.0751" stroke="black" stroke-width="1.5" stroke-linecap="round" stroke-linejoin="round"/>
</svg>
