<svg width="24" height="24" viewBox="0 0 24 24" fill="none" xmlns="http://www.w3.org/2000/svg">
<path d="M11.999 20.75C11.93 20.75 11.874 20.806 11.874 20.875C11.875 20.944 11.931 21 12 21C12.069 21 12.125 20.944 12.125 20.875C12.125 20.806 12.069 20.75 11.999 20.75" stroke="black" stroke-width="1.5" stroke-linecap="round" stroke-linejoin="round"/>
<path d="M16.088 20.787C16.137 20.836 16.137 20.915 16.088 20.964C16.039 21.013 15.96 21.013 15.911 20.964C15.862 20.915 15.862 20.836 15.911 20.787C15.96 20.738 16.04 20.738 16.088 20.787Z" fill="black"/>
<path d="M16.088 20.787C16.137 20.836 16.137 20.915 16.088 20.964C16.039 21.013 15.96 21.013 15.911 20.964C15.862 20.915 15.862 20.836 15.911 20.787C15.96 20.738 16.04 20.738 16.088 20.787" stroke="black" stroke-width="1.5" stroke-linecap="round" stroke-linejoin="round"/>
<path d="M8.08798 20.787C8.13698 20.836 8.13698 20.915 8.08798 20.964C8.03898 21.013 7.95998 21.013 7.91098 20.964C7.86198 20.915 7.86198 20.836 7.91098 20.787C7.95998 20.738 8.03998 20.738 8.08798 20.787Z" fill="black"/>
<path d="M8.08798 20.787C8.13698 20.836 8.13698 20.915 8.08798 20.964C8.03898 21.013 7.95998 21.013 7.91098 20.964C7.86198 20.915 7.86198 20.836 7.91098 20.787C7.95998 20.738 8.03998 20.738 8.08798 20.787" stroke="black" stroke-width="1.5" stroke-linecap="round" stroke-linejoin="round"/>
<path d="M12 4V10" stroke="black" stroke-width="1.5" stroke-linecap="round" stroke-linejoin="round"/>
<path d="M16.244 5.75488C18.587 8.09888 18.587 11.8989 16.244 14.2429C13.901 16.5869 10.102 16.5869 7.75899 14.2429C5.41599 11.8989 5.41599 8.09888 7.75899 5.75488" stroke="black" stroke-width="1.5" stroke-linecap="round" stroke-linejoin="round"/>
</svg>
