<svg width="24" height="24" viewBox="0 0 24 24" fill="none" xmlns="http://www.w3.org/2000/svg">
<path fill-rule="evenodd" clip-rule="evenodd" d="M12 16V16C11.172 16 10.5 15.328 10.5 14.5V9.5C10.5 8.672 11.172 8 12 8V8C12.828 8 13.5 8.672 13.5 9.5V14.5C13.5 15.328 12.828 16 12 16Z" stroke="black" stroke-width="1.5" stroke-linecap="round" stroke-linejoin="round"/>
<path fill-rule="evenodd" clip-rule="evenodd" d="M12 3V3C7.029 3 3 7.029 3 12V12C3 16.971 7.029 21 12 21V21C16.971 21 21 16.971 21 12V12C21 7.029 16.971 3 12 3Z" stroke="black" stroke-width="1.5" stroke-linecap="round" stroke-linejoin="round"/>
</svg>
