<svg width="24" height="24" viewBox="0 0 24 24" fill="none" xmlns="http://www.w3.org/2000/svg">
<path d="M6.99792 7.99818V3.99651C6.99792 3.444 7.44582 2.99609 7.99833 2.99609H16.0017C16.5542 2.99609 17.0021 3.444 17.0021 3.99651V7.99818" stroke="black" stroke-width="1.5" stroke-linecap="round" stroke-linejoin="round"/>
<path d="M6.99792 17.0018H4.99709C3.89206 17.0018 2.99625 16.106 2.99625 15.001V9.99888C2.99625 8.89385 3.89206 7.99805 4.99709 7.99805H19.0029C20.1079 7.99805 21.0038 8.89385 21.0038 9.99888V10.9993" stroke="black" stroke-width="1.5" stroke-linecap="round" stroke-linejoin="round"/>
<path d="M6.99792 10.9992H7.99833" stroke="black" stroke-width="1.5" stroke-linecap="round" stroke-linejoin="round"/>
<path d="M10.9996 21.0039H7.99833C7.44582 21.0039 6.99792 20.556 6.99792 20.0035V14.001H10.9996" stroke="black" stroke-width="1.5" stroke-linecap="round" stroke-linejoin="round"/>
<path d="M20.6856 20.6862C18.9275 22.4443 16.0771 22.4442 14.319 20.6862C12.5609 18.9281 12.5609 16.0776 14.319 14.3196C16.0771 12.5615 18.9275 12.5615 20.6856 14.3195C21.5299 15.1638 22.0042 16.3089 22.0042 17.5029C22.0042 18.6968 21.5299 19.8419 20.6856 20.6862V20.6862" stroke="black" stroke-width="1.5" stroke-linecap="round" stroke-linejoin="round"/>
<path d="M16.2018 16.216H18.7028" stroke="black" stroke-width="1.5" stroke-linecap="round" stroke-linejoin="round"/>
<path d="M16.1987 18.7893H18.6998" stroke="black" stroke-width="1.5" stroke-linecap="round" stroke-linejoin="round"/>
</svg>
