<svg width="24" height="24" viewBox="0 0 24 24" fill="none" xmlns="http://www.w3.org/2000/svg">
<path d="M7 8V4C7 3.448 7.448 3 8 3H16C16.552 3 17 3.448 17 4V8" stroke="black" stroke-width="1.5" stroke-linecap="round" stroke-linejoin="round"/>
<path d="M7 17H5C3.895 17 3 16.105 3 15V10C3 8.895 3.895 8 5 8H19C20.105 8 21 8.895 21 10V11" stroke="black" stroke-width="1.5" stroke-linecap="round" stroke-linejoin="round"/>
<path d="M7 11H8" stroke="black" stroke-width="1.5" stroke-linecap="round" stroke-linejoin="round"/>
<path d="M11 21H8C7.448 21 7 20.564 7 20.028V14H11" stroke="black" stroke-width="1.5" stroke-linecap="round" stroke-linejoin="round"/>
<path d="M20.738 20.475C20.593 20.475 20.476 20.594 20.476 20.738C20.476 20.882 20.594 21 20.738 21C20.882 21 21 20.882 20.999 20.737C21 20.593 20.883 20.475 20.738 20.475" stroke="black" stroke-width="1.5" stroke-linecap="round" stroke-linejoin="round"/>
<path d="M21 17.5C18.951 17.545 17.545 18.951 17.5 21" stroke="black" stroke-width="1.5" stroke-linecap="round" stroke-linejoin="round"/>
<path d="M14 21C14.01 20.115 14.16 19.285 14.428 18.526C15.114 16.583 16.583 15.115 18.526 14.428C19.285 14.16 20.115 14.01 21 14" stroke="black" stroke-width="1.5" stroke-linecap="round" stroke-linejoin="round"/>
</svg>
