<svg width="24" height="24" viewBox="0 0 24 24" fill="none" xmlns="http://www.w3.org/2000/svg">
<path d="M6.99792 7.99818V3.99651C6.99792 3.444 7.44582 2.99609 7.99833 2.99609H16.0017C16.5542 2.99609 17.0021 3.444 17.0021 3.99651V7.99818" stroke="black" stroke-width="1.5" stroke-linecap="round" stroke-linejoin="round"/>
<path d="M6.99792 17.0018H4.99709C3.89206 17.0018 2.99625 16.106 2.99625 15.001V9.99888C2.99625 8.89385 3.89206 7.99805 4.99709 7.99805H19.0029C20.1079 7.99805 21.0038 8.89385 21.0038 9.99888V10.9993" stroke="black" stroke-width="1.5" stroke-linecap="round" stroke-linejoin="round"/>
<path d="M6.99792 10.9992H7.99833" stroke="black" stroke-width="1.5" stroke-linecap="round" stroke-linejoin="round"/>
<path d="M10.9996 21.0039H7.99833C7.44582 21.0039 6.99792 20.556 6.99792 20.0035V14.001H10.9996" stroke="black" stroke-width="1.5" stroke-linecap="round" stroke-linejoin="round"/>
<path d="M14.319 20.6861C12.5609 18.928 12.5609 16.0776 14.319 14.3195C16.0771 12.5615 18.9275 12.5615 20.6856 14.3195C22.4437 16.0776 22.4437 18.928 20.6856 20.6861C19.8414 21.5304 18.6963 22.0047 17.5023 22.0047C16.3083 22.0047 15.1632 21.5304 14.319 20.6861" stroke="black" stroke-width="1.5" stroke-linecap="round" stroke-linejoin="round"/>
<path d="M19.0029 17.4521C18.9897 17.4521 18.9771 17.4574 18.9679 17.4669C18.9587 17.4763 18.9536 17.489 18.9539 17.5022C18.9539 17.5154 18.9592 17.5282 18.9686 17.5375C18.9779 17.5469 18.9907 17.5522 19.0039 17.5522C19.0315 17.5522 19.0539 17.5298 19.0539 17.5022C19.0534 17.4744 19.0307 17.4521 19.0029 17.4521" stroke="black" stroke-width="1.5" stroke-linecap="round" stroke-linejoin="round"/>
<path d="M16.0017 17.4521C15.974 17.4521 15.9517 17.4745 15.9517 17.5022C15.9517 17.5298 15.974 17.5522 16.0017 17.5522C16.0293 17.5522 16.0517 17.5298 16.0517 17.5022C16.0517 17.4745 16.0293 17.4521 16.0017 17.4521" stroke="black" stroke-width="1.5" stroke-linecap="round" stroke-linejoin="round"/>
</svg>
