<svg width="24" height="24" viewBox="0 0 24 24" fill="none" xmlns="http://www.w3.org/2000/svg">
<path d="M6.99792 7.99818V3.99651C6.99792 3.444 7.44582 2.99609 7.99833 2.99609H16.0017C16.5542 2.99609 17.0021 3.444 17.0021 3.99651V7.99818" stroke="black" stroke-width="1.5" stroke-linecap="round" stroke-linejoin="round"/>
<path d="M6.99792 17.0018H4.99708C3.89205 17.0018 2.99625 16.106 2.99625 15.001V9.99888C2.99625 8.89385 3.89205 7.99805 4.99708 7.99805H19.0029C20.1079 7.99805 21.0037 8.89385 21.0037 9.99888V10.9993" stroke="black" stroke-width="1.5" stroke-linecap="round" stroke-linejoin="round"/>
<path d="M6.99792 10.9992H7.99833" stroke="black" stroke-width="1.5" stroke-linecap="round" stroke-linejoin="round"/>
<path d="M10.9996 21.0039H7.99833C7.44582 21.0039 6.99792 20.556 6.99792 20.0035V14.001H10.9996" stroke="black" stroke-width="1.5" stroke-linecap="round" stroke-linejoin="round"/>
<path d="M14.319 20.6861C12.5609 18.928 12.5609 16.0776 14.319 14.3195C16.0771 12.5615 18.9275 12.5615 20.6856 14.3195C22.4437 16.0776 22.4437 18.928 20.6856 20.6861C19.8414 21.5304 18.6963 22.0047 17.5023 22.0047C16.3083 22.0047 15.1632 21.5304 14.319 20.6861" stroke="black" stroke-width="1.5" stroke-linecap="round" stroke-linejoin="round"/>
<path d="M17.5023 17.1842V15.6836" stroke="black" stroke-width="1.5" stroke-linecap="round" stroke-linejoin="round"/>
<path d="M17.5023 19.1584C17.4575 19.1584 17.4213 19.1947 17.4213 19.2395V19.2395C17.4213 19.2848 17.458 19.3215 17.5033 19.3215C17.5486 19.3215 17.5853 19.2848 17.5853 19.2395C17.5853 19.1942 17.5486 19.1574 17.5033 19.1574V19.1574" stroke="black" stroke-width="1.5" stroke-linecap="round" stroke-linejoin="round"/>
</svg>
