<svg width="24" height="24" viewBox="0 0 24 24" fill="none" xmlns="http://www.w3.org/2000/svg">
<path d="M20.5856 9.35174C20.8587 10.2081 20.9997 11.101 21.0037 11.9998C21.0037 16.9725 16.9726 21.0036 12 21.0036C7.02737 21.0036 2.99625 16.9725 2.99625 11.9998C2.99625 7.02721 7.02737 2.99609 12 2.99609C12.8988 3.00016 13.7918 3.14117 14.6481 3.41427" stroke="black" stroke-width="1.5" stroke-linecap="round" stroke-linejoin="round"/>
<path d="M21.0037 4.27051L19.0149 6.25934L17.7394 4.9838" stroke="black" stroke-width="1.5" stroke-linecap="round" stroke-linejoin="round"/>
<path d="M9.49896 9.9993V7.99846C9.49916 7.44603 9.94694 6.99825 10.4994 6.99805H13.5006C14.0531 6.99825 14.5008 7.44603 14.501 7.99846V9.9993" stroke="black" stroke-width="1.5" stroke-linecap="round" stroke-linejoin="round"/>
<path d="M9.49896 15.0011H7.99833C7.44582 15.0011 6.99792 14.5532 6.99792 14.0007V10.9994C6.99792 10.4469 7.44582 9.99902 7.99833 9.99902H16.0017C16.5542 9.99902 17.0021 10.4469 17.0021 10.9994V14.0007C17.0021 14.5532 16.5542 15.0011 16.0017 15.0011H14.501" stroke="black" stroke-width="1.5" stroke-linecap="round" stroke-linejoin="round"/>
<path fill-rule="evenodd" clip-rule="evenodd" d="M9.49896 13.001H14.501V16.0022C14.5008 16.5547 14.0531 17.0024 13.5006 17.0026H10.4994C9.94694 17.0024 9.49916 16.5547 9.49896 16.0022V13.001Z" stroke="black" stroke-width="1.5" stroke-linecap="round" stroke-linejoin="round"/>
</svg>
