<svg width="24" height="24" viewBox="0 0 24 24" fill="none" xmlns="http://www.w3.org/2000/svg">
<path d="M9.60001 9.6134V6.7334H14.4V9.6134" stroke="black" stroke-width="1.5" stroke-linecap="round" stroke-linejoin="round"/>
<path d="M9.60001 14.2002H8.19553C7.64545 14.2002 7.20001 13.7547 7.20001 13.2046V10.6088C7.20001 10.0587 7.64545 9.61328 8.19553 9.61328H15.8045C16.3546 9.61328 16.8 10.0587 16.8 10.6088V13.2046C16.8 13.7547 16.3546 14.2002 15.8045 14.2002H14.3751" stroke="black" stroke-width="1.5" stroke-linecap="round" stroke-linejoin="round"/>
<path fill-rule="evenodd" clip-rule="evenodd" d="M9.60001 12.4934H14.4V16.3334H9.60001V12.4934Z" stroke="black" stroke-width="1.5" stroke-linecap="round" stroke-linejoin="round"/>
<path d="M18.1095 5.42391C21.4836 8.79804 21.4836 14.2686 18.1095 17.6427C14.7353 21.0168 9.26479 21.0168 5.89068 17.6427C2.51654 14.2686 2.51654 8.79802 5.89068 5.42391C9.26481 2.04978 14.7353 2.04978 18.1095 5.42391" stroke="black" stroke-width="1.5" stroke-linecap="round" stroke-linejoin="round"/>
</svg>
