<svg width="24" height="24" viewBox="0 0 24 24" fill="none" xmlns="http://www.w3.org/2000/svg">
<path fill-rule="evenodd" clip-rule="evenodd" d="M13 3H3C2.448 3 2 3.448 2 4V20C2 20.552 2.448 21 3 21H13C13.552 21 14 20.552 14 20V4C14 3.448 13.552 3 13 3Z" stroke="black" stroke-width="1.5" stroke-linecap="round" stroke-linejoin="round"/>
<path fill-rule="evenodd" clip-rule="evenodd" d="M18 18L19.991 20.982C19.999 20.982 20.001 20.982 20.009 20.982L22 18V5C22 3.895 21.105 3 20 3V3C18.895 3 18 3.895 18 5V18Z" stroke="black" stroke-width="1.5" stroke-linecap="round" stroke-linejoin="round"/>
<path d="M18 7H22" stroke="black" stroke-width="1.5" stroke-linecap="round" stroke-linejoin="round"/>
</svg>
