<svg width="24" height="24" viewBox="0 0 24 24" fill="none" xmlns="http://www.w3.org/2000/svg">
<path d="M21.0037 15.6709V18.8922" stroke="black" stroke-width="1.5" stroke-linecap="round" stroke-linejoin="round"/>
<path d="M21.0027 7.27476V10.4961H21.0037C20.5371 10.4019 20.0537 10.4333 19.6032 10.5871C18.7658 10.8734 18.1305 11.5645 17.9155 12.4229C17.7132 13.214 17.8877 14.0541 18.3882 14.6993C18.8886 15.3445 19.659 15.7224 20.4755 15.7233C20.6529 15.723 20.8298 15.7052 21.0037 15.6703V18.8916C21.0037 19.4517 20.7813 19.9889 20.3852 20.385C19.9892 20.781 19.452 21.0035 18.8919 21.0035H15.6705V21.0045C15.7647 20.5378 15.7333 20.0545 15.5795 19.6039C15.2932 18.7665 14.6022 18.1312 13.7437 17.9162C12.9526 17.714 12.1125 17.8884 11.4673 18.3889C10.8221 18.8894 10.4442 19.6597 10.4433 20.4763C10.4436 20.6536 10.4614 20.8306 10.4964 21.0045L7.27603 21.0035C6.10998 21.0037 5.16449 20.0586 5.16415 18.8926V15.6713C4.99024 15.7062 4.81332 15.724 4.63593 15.7243C3.8194 15.7234 3.04903 15.3455 2.54857 14.7003C2.04811 14.0551 1.87365 13.215 2.07586 12.4239C2.29089 11.5655 2.9262 10.8744 3.76357 10.5881C4.21413 10.4343 4.69746 10.4029 5.16415 10.4971H5.16315V7.27576C5.16311 6.71564 5.3856 6.17845 5.78166 5.78238C6.17772 5.38632 6.71491 5.16383 7.27503 5.16388H10.4964C10.4614 4.98997 10.4436 4.81304 10.4433 4.63566C10.4442 3.81913 10.8221 3.04876 11.4673 2.5483C12.1125 2.04783 12.9526 1.87338 13.7437 2.07559C14.6018 2.29123 15.2926 2.9263 15.5795 3.76329C15.7333 4.21386 15.7647 4.69719 15.6705 5.16388H18.8919C19.452 5.16383 19.9892 5.38632 20.3852 5.78238C20.7813 6.17845 21.0037 6.71564 21.0037 7.27576" stroke="black" stroke-width="1.5" stroke-linecap="round" stroke-linejoin="round"/>
</svg>
