<svg width="24" height="24" viewBox="0 0 24 24" fill="none" xmlns="http://www.w3.org/2000/svg">
<path fill-rule="evenodd" clip-rule="evenodd" d="M5.16415 10.4975C4.72697 10.4084 4.25277 10.4254 3.76357 10.5885C2.93623 10.8646 2.28095 11.5759 2.07587 12.4243C1.65369 14.168 2.96324 15.7246 4.63593 15.7246C4.81701 15.7246 4.99308 15.7056 5.16415 15.6716V18.893C5.16415 20.0585 6.10955 21.0038 7.27603 21.0038H18.8919C20.0584 21.0038 21.0037 20.0585 21.0037 18.892V7.27613C21.0037 6.10964 20.0584 5.16425 18.8919 5.16425H15.6705C15.7596 4.72707 15.7426 4.25287 15.5795 3.76367C15.3024 2.93632 14.5911 2.28105 13.7437 2.07596C12 1.65379 10.4434 2.96333 10.4434 4.63603C10.4434 4.8171 10.4624 4.99318 10.4964 5.16425H7.27503C6.10855 5.16425 5.16315 6.10964 5.16315 7.27613V10.4975H5.16415Z" stroke="black" stroke-width="1.5" stroke-linecap="round" stroke-linejoin="round"/>
<path d="M14.415 11.0859L11.5858 13.9151" stroke="black" stroke-width="1.5" stroke-linecap="round" stroke-linejoin="round"/>
<path d="M14.415 13.9151L11.5858 11.0859" stroke="black" stroke-width="1.5" stroke-linecap="round" stroke-linejoin="round"/>
</svg>
