<svg width="24" height="24" viewBox="0 0 24 24" fill="none" xmlns="http://www.w3.org/2000/svg">
<path fill-rule="evenodd" clip-rule="evenodd" d="M21.0037 19.0028V14.3143C21.0037 14.1409 20.914 13.9799 20.7665 13.8888C20.619 13.7976 20.4349 13.7894 20.2798 13.8669L19.515 14.2493C19.1782 14.4177 18.8069 14.5053 18.4304 14.5053H18.427C17.0875 14.5053 16.0017 13.4195 16.0017 12.08V11.9269C16.0017 11.2824 16.2582 10.6644 16.7146 10.2094C17.171 9.75433 17.7897 9.49966 18.4342 9.50157V9.50157C18.8083 9.50269 19.177 9.59032 19.5116 9.75761L20.4246 10.2141C20.5487 10.2761 20.696 10.2695 20.814 10.1966C20.9319 10.1237 21.0037 9.99488 21.0037 9.8562V4.99693C21.0037 3.8919 20.1079 2.99609 19.0029 2.99609H14.3144C14.1411 2.99609 13.9801 3.08586 13.8889 3.23333C13.7978 3.3808 13.7895 3.56495 13.867 3.72001L14.2495 4.48483C14.4178 4.8216 14.5055 5.19295 14.5055 5.56947V5.57288C14.5055 6.91233 13.4197 7.99818 12.0802 7.99818H11.927C11.2825 7.99818 10.6646 7.74166 10.2095 7.28527C9.75448 6.82887 9.49981 6.21013 9.50173 5.56565V5.56565C9.50283 5.19156 9.59046 4.8228 9.75776 4.48821L10.2143 3.57518C10.2763 3.45114 10.2696 3.30384 10.1967 3.18587C10.1238 3.06791 9.99503 2.99609 9.85635 2.99609H4.99708C3.89205 2.99609 2.99625 3.8919 2.99625 4.99693V9.6854C2.99625 9.85876 3.08601 10.0198 3.23348 10.1109C3.38095 10.202 3.5651 10.2103 3.72016 10.1328L4.48499 9.75039C4.82175 9.582 5.1931 9.49434 5.56962 9.49434H5.57303C6.91249 9.49434 7.99833 10.5802 7.99833 11.9196V12.0728C7.99833 12.7173 7.74182 13.3353 7.28542 13.7903C6.82903 14.2454 6.21029 14.5 5.56581 14.4981V14.4981C5.19172 14.497 4.82296 14.4094 4.48836 14.2421L3.57538 13.7856C3.45133 13.7236 3.30402 13.7302 3.18604 13.8031C3.06807 13.876 2.99625 14.0048 2.99625 14.1435V19.0028C2.99625 20.1078 3.89205 21.0036 4.99708 21.0036H9.68555C9.85891 21.0036 10.0199 20.9138 10.1111 20.7664C10.2022 20.6189 10.2105 20.4347 10.1329 20.2797L9.75054 19.5149C9.58215 19.1781 9.49449 18.8067 9.49449 18.4302V18.4268C9.49449 17.7836 9.75001 17.1667 10.2048 16.7119C10.6597 16.257 11.2766 16.0015 11.9198 16.0015H12.073C12.7174 16.0015 13.3354 16.258 13.7905 16.7144C14.2455 17.1708 14.5002 17.7896 14.4983 18.434V18.434C14.4972 18.8081 14.4095 19.1769 14.2422 19.5115L13.7857 20.4245C13.7237 20.5485 13.7304 20.6959 13.8033 20.8138C13.8762 20.9318 14.005 21.0036 14.1436 21.0036H19.0029C20.1079 21.0036 21.0037 20.1078 21.0037 19.0028Z" stroke="black" stroke-width="1.5" stroke-linecap="round" stroke-linejoin="round"/>
</svg>
