<svg width="24" height="24" viewBox="0 0 24 24" fill="none" xmlns="http://www.w3.org/2000/svg">
<path d="M15.9253 8.46772L12.5377 11.8555C11.5768 12.8164 11.5768 14.3742 12.5377 15.3351L12.5907 15.3881C13.0521 15.8495 13.6779 16.1088 14.3304 16.1088C14.9829 16.1088 15.6087 15.8495 16.0701 15.3881L19.4597 11.9984C21.5185 9.93946 21.5185 6.60138 19.4597 4.54243L19.4581 4.5409C18.4691 3.55178 17.1276 2.99609 15.7288 2.99609C14.33 2.99609 12.9886 3.55178 11.9995 4.5409L4.54097 11.9999C2.48134 14.0596 2.48134 17.399 4.54097 19.4588C5.53001 20.4479 6.87148 21.0036 8.27025 21.0036C9.66902 21.0036 11.0105 20.4479 11.9995 19.4588" stroke="black" stroke-width="1.5" stroke-linecap="round" stroke-linejoin="round"/>
</svg>
