<svg width="24" height="24" viewBox="0 0 24 24" fill="none" xmlns="http://www.w3.org/2000/svg">
<rect x="2.99625" y="2.99609" width="18.0075" height="18.0075" rx="4" stroke="black" stroke-width="1.5" stroke-linecap="round" stroke-linejoin="round"/>
<path fill-rule="evenodd" clip-rule="evenodd" d="M10.7495 16.0022H8.99875C8.44624 16.0022 7.99833 15.5543 7.99833 15.0018V13.7513H7.74823C6.78133 13.7513 5.9975 12.9674 5.9975 12.0005V12.0005C5.9975 11.0336 6.78133 10.2498 7.74823 10.2498H7.99833V8.9993C7.99833 8.44678 8.44624 7.99888 8.99875 7.99888H10.7495V7.74878C10.7495 6.78188 11.5333 5.99805 12.5002 5.99805V5.99805C13.4671 5.99805 14.2509 6.78188 14.2509 7.74878V7.99888H16.0017C16.5542 7.99888 17.0021 8.44678 17.0021 8.9993V10.4999H16.5019C15.6731 10.4999 15.0012 11.1718 15.0012 12.0005V12.0005C15.0012 12.8293 15.6731 13.5012 16.5019 13.5012H17.0021V15.0018C17.0021 15.5543 16.5542 16.0022 16.0017 16.0022H14.2509V16.2523C14.2509 17.2192 13.4671 18.003 12.5002 18.003V18.003C11.5333 18.003 10.7495 17.2192 10.7495 16.2523V16.0022Z" stroke="black" stroke-width="1.5" stroke-linecap="round" stroke-linejoin="round"/>
</svg>
