<svg width="24" height="24" viewBox="0 0 24 24" fill="none" xmlns="http://www.w3.org/2000/svg">
<path fill-rule="evenodd" clip-rule="evenodd" d="M5.16414 10.4975C4.72696 10.4084 4.25276 10.4254 3.76356 10.5885C2.93621 10.8646 2.28094 11.5759 2.07586 12.4243C1.65368 14.168 2.96323 15.7246 4.63592 15.7246C4.817 15.7246 4.99307 15.7056 5.16414 15.6716V18.893C5.16414 20.0585 6.10954 21.0038 7.27602 21.0038H18.8919C20.0583 21.0038 21.0037 20.0585 21.0037 18.892V7.27613C21.0037 6.10964 20.0583 5.16425 18.8919 5.16425H15.6705C15.7596 4.72707 15.7425 4.25287 15.5795 3.76367C15.3024 2.93632 14.5911 2.28105 13.7437 2.07596C12 1.65379 10.4433 2.96333 10.4433 4.63603C10.4433 4.8171 10.4623 4.99318 10.4964 5.16425H7.27502C6.10854 5.16425 5.16314 6.10964 5.16314 7.27613V10.4975H5.16414Z" stroke="black" stroke-width="1.5" stroke-linecap="round" stroke-linejoin="round"/>
<path d="M15.5024 11.0928L12.6883 13.9069L10.9996 12.2192" stroke="black" stroke-width="1.5" stroke-linecap="round" stroke-linejoin="round"/>
</svg>
