<svg width="24" height="24" viewBox="0 0 24 24" fill="none" xmlns="http://www.w3.org/2000/svg">
<path fill-rule="evenodd" clip-rule="evenodd" d="M21.0037 9.49434H20.2534C18.8721 9.49434 17.7524 10.6141 17.7524 11.9954V11.9954C17.7524 12.6587 18.0159 13.2948 18.4849 13.7639C18.954 14.2329 19.5901 14.4964 20.2534 14.4964H21.0037V16.9975C21.0037 18.1025 20.1079 18.9983 19.0029 18.9983H16.0017V19.4985C16.0017 20.8798 14.8819 21.9995 13.5006 21.9995V21.9995C12.1193 21.9995 10.9996 20.8798 10.9996 19.4985V18.9983H7.99833C6.8933 18.9983 5.9975 18.1025 5.9975 16.9975V14.4964H5.49729C4.116 14.4964 2.99625 13.3767 2.99625 11.9954V11.9954C2.99625 10.6141 4.116 9.49434 5.49729 9.49434H5.9975V6.99329C5.9975 5.88826 6.8933 4.99246 7.99833 4.99246H10.9996V4.49225C10.9996 3.11097 12.1193 1.99121 13.5006 1.99121V1.99121C14.8819 1.99121 16.0017 3.11097 16.0017 4.49225V4.99246H19.0029C20.1079 4.99246 21.0037 5.88826 21.0037 6.99329V9.49434Z" stroke="black" stroke-width="1.5" stroke-linecap="round" stroke-linejoin="round"/>
</svg>
