<svg width="24" height="24" viewBox="0 0 24 24" fill="none" xmlns="http://www.w3.org/2000/svg">
<path fill-rule="evenodd" clip-rule="evenodd" d="M16.0017 21.0036H7.99833C5.23576 21.0036 2.99625 18.7641 2.99625 16.0015V7.99818C2.99625 5.2356 5.23576 2.99609 7.99833 2.99609H16.0017C18.7642 2.99609 21.0037 5.2356 21.0037 7.99818V16.0015C21.0037 18.7641 18.7642 21.0036 16.0017 21.0036Z" stroke="black" stroke-width="1.5" stroke-linecap="round" stroke-linejoin="round"/>
<path d="M12 12.7117L13.3276 11.9742C13.9901 11.6062 14.401 10.9079 14.401 10.15C14.3225 8.88966 13.2417 7.92889 11.9808 7.99869C10.8543 7.95192 9.85385 8.71348 9.599 9.81186" stroke="black" stroke-width="1.5" stroke-linecap="round" stroke-linejoin="round"/>
<path d="M12.1002 15.9017C12.1001 15.9569 12.0553 16.0016 12.0001 16.0016C11.9449 16.0016 11.9001 15.9568 11.9001 15.9016C11.9001 15.8464 11.9448 15.8016 12 15.8015C12.0266 15.8015 12.0521 15.812 12.0709 15.8308C12.0897 15.8496 12.1002 15.8751 12.1002 15.9017" stroke="black" stroke-width="1.5" stroke-linecap="round" stroke-linejoin="round"/>
</svg>
