<svg width="24" height="24" viewBox="0 0 24 24" fill="none" xmlns="http://www.w3.org/2000/svg">
<path d="M20.2174 13.2145C21.6222 10.5073 21.1113 7.20199 18.9546 5.04534C16.798 2.88868 13.4927 2.37775 10.7855 3.78255" stroke="black" stroke-width="1.5" stroke-linecap="round" stroke-linejoin="round"/>
<path d="M9.99917 16.8691C9.97154 16.8691 9.94915 16.8915 9.94915 16.9192C9.94915 16.9468 9.97154 16.9692 9.99917 16.9692C10.0268 16.9692 10.0492 16.9468 10.0492 16.9192C10.0492 16.8915 10.0268 16.8691 9.99917 16.8691" stroke="black" stroke-width="1.5" stroke-linecap="round" stroke-linejoin="round"/>
<path d="M8.19865 12.2002C8.3825 11.4054 9.1063 10.8542 9.92136 10.8883C10.8334 10.8378 11.6153 11.5328 11.6721 12.4445C11.6721 13.6117 9.99917 14.0007 9.99917 14.7788" stroke="black" stroke-width="1.5" stroke-linecap="round" stroke-linejoin="round"/>
<rect x="2.99626" y="6.99805" width="14.0058" height="14.0058" rx="6.99999" stroke="black" stroke-width="1.5" stroke-linecap="round" stroke-linejoin="round"/>
</svg>
