<svg width="24" height="24" viewBox="0 0 24 24" fill="none" xmlns="http://www.w3.org/2000/svg">
<path d="M9.99916 21.0041H14.0008" stroke="black" stroke-width="1.5" stroke-linecap="round" stroke-linejoin="round"/>
<path d="M9.99916 2.9963H14.0008" stroke="black" stroke-width="1.5" stroke-linecap="round" stroke-linejoin="round"/>
<path d="M2.99624 9.99902V14.0007" stroke="black" stroke-width="1.5" stroke-linecap="round" stroke-linejoin="round"/>
<path d="M21.0037 9.99902V14.0007" stroke="black" stroke-width="1.5" stroke-linecap="round" stroke-linejoin="round"/>
<path d="M6.99791 21.0036V21.0036C4.78785 21.0036 2.99625 19.212 2.99625 17.002V17.002" stroke="black" stroke-width="1.5" stroke-linecap="round" stroke-linejoin="round"/>
<path d="M6.99791 21.0036C4.78785 21.0036 2.99625 19.212 2.99625 17.002" stroke="black" stroke-width="1.5" stroke-linecap="round" stroke-linejoin="round"/>
<path d="M17.0021 2.99609C19.2121 2.99609 21.0038 4.7877 21.0038 6.99776" stroke="black" stroke-width="1.5" stroke-linecap="round" stroke-linejoin="round"/>
<path d="M2.99625 6.99776C2.99625 4.7877 4.78785 2.99609 6.99791 2.99609" stroke="black" stroke-width="1.5" stroke-linecap="round" stroke-linejoin="round"/>
<path d="M21.0038 17.002C21.0038 19.212 19.2121 21.0036 17.0021 21.0036" stroke="black" stroke-width="1.5" stroke-linecap="round" stroke-linejoin="round"/>
<path d="M12 13.5003V11.9997C13.105 11.9997 14.0008 11.1039 14.0008 9.99888C14.0008 8.89385 13.105 7.99805 12 7.99805C10.895 7.99805 9.99916 8.89385 9.99916 9.99888" stroke="black" stroke-width="1.5" stroke-linecap="round" stroke-linejoin="round"/>
<path d="M12 15.9517C11.9735 15.9511 11.9516 15.9721 11.951 15.9986V16.0017C11.951 16.0215 11.9629 16.0394 11.9812 16.047C11.9996 16.0546 12.0206 16.0504 12.0347 16.0364C12.0487 16.0223 12.0529 16.0012 12.0453 15.9829C12.0377 15.9646 12.0198 15.9527 12 15.9527H11.999" stroke="black" stroke-width="1.5" stroke-linecap="round" stroke-linejoin="round"/>
<path d="M12.05 16.0022C12.05 16.0298 12.0276 16.0522 12 16.0522C11.9724 16.0522 11.95 16.0298 11.95 16.0022C11.95 15.9745 11.9724 15.9521 12 15.9521" stroke="black" stroke-width="1.5" stroke-linecap="round" stroke-linejoin="round"/>
<path d="M12 15.9518C12.0276 15.9518 12.05 15.9742 12.05 16.0018" stroke="black" stroke-width="1.5" stroke-linecap="round" stroke-linejoin="round"/>
</svg>
