<svg width="24" height="24" viewBox="0 0 24 24" fill="none" xmlns="http://www.w3.org/2000/svg">
<path fill-rule="evenodd" clip-rule="evenodd" d="M16 18H5C3.895 18 3 17.105 3 16V5C3 3.895 3.895 3 5 3H16C17.105 3 18 3.895 18 5V16C18 17.105 17.105 18 16 18Z" stroke="black" stroke-width="1.5" stroke-linecap="round" stroke-linejoin="round"/>
<path d="M10.467 11.504V11.297C10.467 10.619 10.886 10.252 11.306 9.96999C11.716 9.69399 12.127 9.33399 12.127 8.66999C12.127 7.75299 11.384 7.01099 10.468 7.01099C9.552 7.01099 8.808 7.75199 8.808 8.66899" stroke="black" stroke-width="1.5" stroke-linecap="round" stroke-linejoin="round"/>
<path d="M10.466 13.8429C10.383 13.8429 10.316 13.9099 10.317 13.9929C10.317 14.0759 10.384 14.1429 10.467 14.1429C10.55 14.1429 10.617 14.0759 10.617 13.9929C10.617 13.9099 10.55 13.8429 10.466 13.8429" stroke="black" stroke-width="1.5" stroke-linecap="round" stroke-linejoin="round"/>
<path d="M18 6H19C20.105 6 21 6.895 21 8V19C21 20.105 20.105 21 19 21H8C6.895 21 6 20.105 6 19V18" stroke="black" stroke-width="1.5" stroke-linecap="round" stroke-linejoin="round"/>
</svg>
