<svg width="24" height="24" viewBox="0 0 24 24" fill="none" xmlns="http://www.w3.org/2000/svg">
<path d="M17.799 5.06172L19 6.26172L20.9989 4.26172" stroke="black" stroke-width="1.5" stroke-linecap="round" stroke-linejoin="round"/>
<path d="M12 12.7107L13.327 11.9735C13.9893 11.6056 14.4 10.9076 14.4 10.15C14.3215 8.89027 13.2412 7.9299 11.9809 7.99967C10.8547 7.95291 9.85474 8.71415 9.6 9.81208" stroke="black" stroke-width="1.5" stroke-linecap="round" stroke-linejoin="round"/>
<path d="M20.582 9.353C20.8551 10.209 20.996 11.1016 21 12C21 16.9706 16.9706 21 12 21C7.02944 21 3 16.9706 3 12C3 7.02944 7.02944 3 12 3C12.8984 3.00399 13.791 3.14495 14.647 3.418" stroke="black" stroke-width="1.5" stroke-linecap="round" stroke-linejoin="round"/>
<path d="M12.1001 15.9005C12.1001 15.9557 12.0553 16.0004 12.0001 16.0004C11.9449 16.0004 11.9002 15.9556 11.9001 15.9004C11.9001 15.8452 11.9448 15.8005 12 15.8004C12.0266 15.8004 12.0521 15.8109 12.0708 15.8297C12.0896 15.8485 12.1002 15.874 12.1001 15.9005" stroke="black" stroke-width="1.5" stroke-linecap="round" stroke-linejoin="round"/>
</svg>
