<svg width="24" height="24" viewBox="0 0 24 24" fill="none" xmlns="http://www.w3.org/2000/svg">
<path d="M12 13.042V12.84C12 12.18 12.408 11.822 12.817 11.548C13.216 11.279 13.616 10.929 13.616 10.282C13.616 9.38999 12.893 8.66699 12.001 8.66699C11.109 8.66699 10.386 9.38999 10.386 10.282" stroke="black" stroke-width="1.5" stroke-linecap="round" stroke-linejoin="round"/>
<path d="M11.999 15.3148C11.916 15.3148 11.849 15.3818 11.85 15.4648C11.85 15.5478 11.917 15.6148 12 15.6148C12.083 15.6148 12.15 15.5478 12.15 15.4648C12.15 15.3818 12.083 15.3148 11.999 15.3148" stroke="black" stroke-width="1.5" stroke-linecap="round" stroke-linejoin="round"/>
<path fill-rule="evenodd" clip-rule="evenodd" d="M10.586 20.8699L3.13 13.4139C2.349 12.6329 2.349 11.3669 3.13 10.5859L10.585 3.13092C11.366 2.34992 12.632 2.34992 13.413 3.13092L20.868 10.5859C21.649 11.3669 21.649 12.6329 20.868 13.4139L13.413 20.8689C12.633 21.6509 11.367 21.6509 10.586 20.8699Z" stroke="black" stroke-width="1.5" stroke-linecap="round" stroke-linejoin="round"/>
</svg>
