<svg width="24" height="24" viewBox="0 0 24 24" fill="none" xmlns="http://www.w3.org/2000/svg">
<path fill-rule="evenodd" clip-rule="evenodd" d="M7.11896 20.1242L3.87461 16.8799C3.3121 16.317 2.99625 15.5538 2.99625 14.758V9.24169C2.99625 8.44578 3.31273 7.68252 3.87561 7.11981L7.11996 3.87546C7.68268 3.31258 8.44593 2.99609 9.24185 2.99609H14.7581C15.5541 2.99609 16.3173 3.31258 16.88 3.87546L20.1254 7.12081C20.6879 7.68369 21.0037 8.44692 21.0037 9.2427V14.758C21.0037 15.5538 20.6879 16.317 20.1254 16.8799L16.881 20.1252C16.3179 20.688 15.5543 21.004 14.7581 21.0036H9.24185C8.44558 21.0036 7.68192 20.6874 7.11896 20.1242V20.1242Z" stroke="black" stroke-width="1.5" stroke-linecap="round" stroke-linejoin="round"/>
<path d="M12 12.7117L13.3276 11.9742C13.9901 11.6062 14.401 10.9079 14.401 10.15C14.3225 8.88966 13.2417 7.92889 11.9808 7.99869C10.8543 7.95192 9.85385 8.71348 9.599 9.81186" stroke="black" stroke-width="1.5" stroke-linecap="round" stroke-linejoin="round"/>
<path d="M12.1002 15.9017C12.1001 15.9569 12.0553 16.0016 12.0001 16.0016C11.9449 16.0016 11.9001 15.9568 11.9001 15.9016C11.9001 15.8464 11.9448 15.8016 12 15.8015C12.0266 15.8015 12.0521 15.812 12.0709 15.8308C12.0897 15.8496 12.1002 15.8751 12.1002 15.9017" stroke="black" stroke-width="1.5" stroke-linecap="round" stroke-linejoin="round"/>
</svg>
