<svg width="24" height="24" viewBox="0 0 24 24" fill="none" xmlns="http://www.w3.org/2000/svg">
<path d="M9.99917 9.99888C9.99917 8.89385 10.895 7.99805 12 7.99805C13.105 7.99805 14.0008 8.89385 14.0008 9.99888C14.0008 11.1039 13.105 11.9997 12 11.9997" stroke="black" stroke-width="1.5" stroke-linecap="round" stroke-linejoin="round"/>
<path d="M12 13.5006V12" stroke="black" stroke-width="1.5" stroke-linecap="round" stroke-linejoin="round"/>
<path fill-rule="evenodd" clip-rule="evenodd" d="M2.99625 16.0015V7.99818C2.99625 5.2356 5.23576 2.99609 7.99833 2.99609H16.0017C18.7642 2.99609 21.0037 5.2356 21.0037 7.99818V16.0015C21.0037 18.7641 18.7642 21.0036 16.0017 21.0036H7.99833C5.23576 21.0036 2.99625 18.7641 2.99625 16.0015Z" stroke="black" stroke-width="1.5" stroke-linecap="round" stroke-linejoin="round"/>
<path d="M12 15.9521C11.9724 15.9521 11.95 15.9745 11.95 16.0022C11.95 16.0298 11.9724 16.0522 12 16.0522C12.0276 16.0522 12.05 16.0298 12.05 16.0022C12.05 15.9745 12.0276 15.9521 12 15.9521" stroke="black" stroke-width="1.5" stroke-linecap="round" stroke-linejoin="round"/>
</svg>
