<svg width="24" height="24" viewBox="0 0 24 24" fill="none" xmlns="http://www.w3.org/2000/svg">
<path d="M12 13.5003V11.9997C13.105 11.9997 14.0008 11.1039 14.0008 9.99888C14.0008 8.89385 13.105 7.99805 12 7.99805C10.895 7.99805 9.99918 8.89385 9.99918 9.99888" stroke="black" stroke-width="1.5" stroke-linecap="round" stroke-linejoin="round"/>
<path d="M13.0004 20.9416C12.6685 20.9825 12.3344 21.0032 12 21.0036C7.02736 21.0036 2.99625 16.9725 2.99625 11.9998C2.99625 7.02721 7.02736 2.99609 12 2.99609C16.9726 2.99609 21.0037 7.02721 21.0037 11.9998C21.0034 12.3343 20.9827 12.6684 20.9417 13.0003" stroke="black" stroke-width="1.5" stroke-linecap="round" stroke-linejoin="round"/>
<path d="M20.0033 17.002L17.5023 19.503L16.0016 18.0024" stroke="black" stroke-width="1.5" stroke-linecap="round" stroke-linejoin="round"/>
<path d="M12 15.9521C11.9724 15.9521 11.95 15.9745 11.95 16.0022C11.95 16.0298 11.9724 16.0522 12 16.0522C12.0276 16.0522 12.05 16.0298 12.05 16.0022C12.05 15.9745 12.0276 15.9521 12 15.9521" stroke="black" stroke-width="1.5" stroke-linecap="round" stroke-linejoin="round"/>
</svg>
