<svg width="24" height="24" viewBox="0 0 24 24" fill="none" xmlns="http://www.w3.org/2000/svg">
<path d="M13.0004 20.9416C12.6685 20.9827 12.3344 21.0036 12 21.0036C7.02737 21.0036 2.99625 16.9725 2.99625 11.9998C2.99625 7.02721 7.02737 2.99609 12 2.99609C16.9726 2.99609 21.0038 7.02721 21.0038 11.9998C21.0038 12.3343 20.9829 12.6684 20.9417 13.0003" stroke="black" stroke-width="1.5" stroke-linecap="round" stroke-linejoin="round"/>
<path d="M12 12.7117L13.3276 11.9742C13.9901 11.6062 14.401 10.9079 14.401 10.15C14.3225 8.88966 13.2417 7.92889 11.9808 7.99869C10.8543 7.95192 9.85385 8.71348 9.599 9.81186" stroke="black" stroke-width="1.5" stroke-linecap="round" stroke-linejoin="round"/>
<path d="M12.1002 15.9017C12.1001 15.9569 12.0553 16.0016 12.0001 16.0016C11.9449 16.0016 11.9001 15.9568 11.9001 15.9016C11.9001 15.8464 11.9448 15.8016 12 15.8015C12.0266 15.8015 12.0521 15.812 12.0709 15.8308C12.0897 15.8496 12.1002 15.8751 12.1002 15.9017" stroke="black" stroke-width="1.5" stroke-linecap="round" stroke-linejoin="round"/>
<path d="M17.0021 17.0029L19.5031 19.503" stroke="black" stroke-width="1.5" stroke-linecap="round" stroke-linejoin="round"/>
<path d="M17.0021 19.502L19.5031 17.002" stroke="black" stroke-width="1.5" stroke-linecap="round" stroke-linejoin="round"/>
</svg>
