<svg width="24" height="24" viewBox="0 0 24 24" fill="none" xmlns="http://www.w3.org/2000/svg">
<path d="M14.4 10.15C14.3215 8.89027 13.2412 7.9299 11.9809 7.99967C10.8547 7.95291 9.85474 8.71415 9.6 9.81208" stroke="black" stroke-width="1.5" stroke-linecap="round" stroke-linejoin="round"/>
<path d="M14.4 10.1504V10.1504C14.4 10.9079 13.9893 11.6058 13.3272 11.9737L12 12.7111" stroke="black" stroke-width="1.5" stroke-linecap="round" stroke-linejoin="round"/>
<path d="M12.1001 15.9005C12.1001 15.9557 12.0553 16.0004 12.0001 16.0004C11.9449 16.0004 11.9002 15.9556 11.9001 15.9004C11.9001 15.8452 11.9448 15.8005 12 15.8004C12.0266 15.8004 12.0521 15.8109 12.0708 15.8297C12.0896 15.8485 12.1002 15.874 12.1001 15.9005" stroke="black" stroke-width="1.5" stroke-linecap="round" stroke-linejoin="round"/>
<path d="M14 3.2305C10.0757 2.3258 6.02682 4.12964 4.07495 7.65221C2.12308 11.1748 2.74031 15.5642 5.58797 18.4118C8.43562 21.2595 12.825 21.8767 16.3476 19.9248C19.8701 17.973 21.674 13.924 20.7693 9.99978" stroke="black" stroke-width="1.5" stroke-linecap="round" stroke-linejoin="round"/>
<path d="M17 5.50098H20" stroke="black" stroke-width="1.5" stroke-linecap="round" stroke-linejoin="round"/>
<path d="M18.4991 7V4" stroke="black" stroke-width="1.5" stroke-linecap="round" stroke-linejoin="round"/>
</svg>
