<svg width="24" height="24" viewBox="0 0 24 24" fill="none" xmlns="http://www.w3.org/2000/svg">
<path d="M17.0141 17.0156L19.4901 19.4917" stroke="black" stroke-width="1.5" stroke-linecap="round" stroke-linejoin="round"/>
<path d="M17.0141 19.4907L19.4901 17.0146" stroke="black" stroke-width="1.5" stroke-linecap="round" stroke-linejoin="round"/>
<path d="M13.0004 20.9416C12.6685 20.9827 12.3344 21.0036 12 21.0036C7.02736 21.0036 2.99625 16.9725 2.99625 11.9998C2.99625 7.02721 7.02736 2.99609 12 2.99609C16.9726 2.99609 21.0037 7.02721 21.0037 11.9998C21.0037 12.3343 20.9829 12.6684 20.9417 13.0003" stroke="black" stroke-width="1.5" stroke-linecap="round" stroke-linejoin="round"/>
<path d="M11.9995 15.6271C11.9305 15.6274 11.8748 15.6835 11.8749 15.7525C11.8751 15.8215 11.9312 15.8773 12.0002 15.8772C12.0692 15.8771 12.125 15.8212 12.125 15.7522C12.1252 15.7189 12.1121 15.6869 12.0885 15.6634C12.0648 15.6398 12.0328 15.6268 11.9995 15.6271" stroke="black" stroke-width="1.5" stroke-linecap="round" stroke-linejoin="round"/>
<path d="M9.68469 9.68482C9.92172 8.66326 10.8522 7.95496 11.8999 7.99844C13.0726 7.93349 14.0779 8.82709 14.1509 9.99928C14.1509 11.5038 12 12.0001 12 13.0005" stroke="black" stroke-width="1.5" stroke-linecap="round" stroke-linejoin="round"/>
</svg>
