<svg width="24" height="24" viewBox="0 0 24 24" fill="none" xmlns="http://www.w3.org/2000/svg">
<path d="M13.0004 20.9416C12.6685 20.9825 12.3344 21.0032 12 21.0036C7.02737 21.0036 2.99625 16.9725 2.99625 11.9998C2.99625 7.02721 7.02737 2.99609 12 2.99609C16.9726 2.99609 21.0038 7.02721 21.0038 11.9998C21.0034 12.3343 20.9827 12.6684 20.9417 13.0003" stroke="black" stroke-width="1.5" stroke-linecap="round" stroke-linejoin="round"/>
<path d="M20.0033 17.002L17.5023 19.503L16.0017 18.0024" stroke="black" stroke-width="1.5" stroke-linecap="round" stroke-linejoin="round"/>
<path d="M11.9995 15.6271C11.9305 15.6274 11.8748 15.6835 11.8749 15.7525C11.8751 15.8215 11.9312 15.8773 12.0002 15.8772C12.0692 15.8771 12.1251 15.8212 12.1251 15.7522C12.1252 15.7189 12.1121 15.6869 12.0885 15.6634C12.0649 15.6398 12.0328 15.6268 11.9995 15.6271" stroke="black" stroke-width="1.5" stroke-linecap="round" stroke-linejoin="round"/>
<path d="M9.68471 9.68482C9.92173 8.66326 10.8522 7.95496 11.9 7.99844C13.0726 7.93349 14.0779 8.82709 14.1509 9.99928C14.1509 11.5038 12 12.0001 12 13.0005" stroke="black" stroke-width="1.5" stroke-linecap="round" stroke-linejoin="round"/>
</svg>
