<svg width="24" height="24" viewBox="0 0 24 24" fill="none" xmlns="http://www.w3.org/2000/svg">
<path d="M17.5023 4.99728H20.5035" stroke="black" stroke-width="1.5" stroke-linecap="round" stroke-linejoin="round"/>
<path d="M19.0029 6.49783V3.49658" stroke="black" stroke-width="1.5" stroke-linecap="round" stroke-linejoin="round"/>
<path d="M19.0029 8.99894C16.793 8.99894 15.0013 7.20719 15.0013 4.99727C15.0013 2.78735 16.793 0.995605 19.0029 0.995605C21.2128 0.995605 23.0046 2.78735 23.0046 4.99727C23.0046 7.20719 21.2128 8.99894 19.0029 8.99894" stroke="black" stroke-width="1.5" stroke-linecap="round" stroke-linejoin="round"/>
<path d="M15.0073 4.76239C13.9368 4.27619 12.7523 3.99707 11.4998 3.99707C6.80384 3.99707 2.99625 7.80466 2.99625 12.5006C2.99625 17.1966 6.80384 21.0042 11.4998 21.0042C16.1958 21.0042 20.0033 17.1966 20.0033 12.5006C20.0033 11.2481 19.7242 10.0636 19.238 8.99315" stroke="black" stroke-width="1.5" stroke-linecap="round" stroke-linejoin="round"/>
<path d="M11.4988 15.9469C11.4638 15.9469 11.4338 15.9769 11.4338 16.0119C11.4338 16.0469 11.4638 16.077 11.4988 16.077C11.5338 16.077 11.5638 16.0469 11.5638 16.0119C11.5638 15.9769 11.5348 15.9469 11.4988 15.9469V15.9469" stroke="black" stroke-width="1.5" stroke-linecap="round" stroke-linejoin="round"/>
<path d="M11.4988 13.3137C12.6213 13.3137 13.5316 12.4034 13.5316 11.2809C13.5316 10.1584 12.6223 9.24805 11.4988 9.24805C10.4033 9.24805 9.51797 10.1134 9.47595 11.1989" stroke="black" stroke-width="1.5" stroke-linecap="round" stroke-linejoin="round"/>
</svg>
