<svg width="24" height="24" viewBox="0 0 24 24" fill="none" xmlns="http://www.w3.org/2000/svg">
<path d="M9.91422 10.5858C10.6953 11.3668 10.6953 12.6332 9.91422 13.4142C9.13317 14.1953 7.86684 14.1953 7.08579 13.4142C6.30474 12.6332 6.30474 11.3668 7.08579 10.5858C7.86684 9.80474 9.13317 9.80474 9.91422 10.5858" stroke="black" stroke-width="1.5" stroke-linecap="round" stroke-linejoin="round"/>
<path d="M16.9142 10.5858C17.6953 11.3668 17.6953 12.6332 16.9142 13.4142C16.1332 14.1953 14.8668 14.1953 14.0858 13.4142C13.3047 12.6332 13.3047 11.3668 14.0858 10.5858C14.8668 9.80474 16.1332 9.80474 16.9142 10.5858" stroke="black" stroke-width="1.5" stroke-linecap="round" stroke-linejoin="round"/>
<path d="M8.5 14H15.5" stroke="black" stroke-width="1.5" stroke-linecap="round" stroke-linejoin="round"/>
<path fill-rule="evenodd" clip-rule="evenodd" d="M12 21V21C7.029 21 3 16.971 3 12V12C3 7.029 7.029 3 12 3V3C16.971 3 21 7.029 21 12V12C21 16.971 16.971 21 12 21Z" stroke="black" stroke-width="1.5" stroke-linecap="round" stroke-linejoin="round"/>
</svg>
