<svg width="24" height="24" viewBox="0 0 24 24" fill="none" xmlns="http://www.w3.org/2000/svg">
<path d="M9.84099 10.409C10.7197 11.2877 10.7197 12.7123 9.84099 13.591C8.96231 14.4697 7.53769 14.4697 6.65901 13.591C5.78033 12.7123 5.78033 11.2877 6.65901 10.409C7.53769 9.53033 8.96231 9.53033 9.84099 10.409" stroke="black" stroke-width="1.5" stroke-linecap="round" stroke-linejoin="round"/>
<path d="M17.341 10.409C18.2197 11.2877 18.2197 12.7123 17.341 13.591C16.4623 14.4697 15.0377 14.4697 14.159 13.591C13.2803 12.7123 13.2803 11.2877 14.159 10.409C15.0377 9.53033 16.4623 9.53033 17.341 10.409" stroke="black" stroke-width="1.5" stroke-linecap="round" stroke-linejoin="round"/>
<path d="M8.25 14.25H15.75" stroke="black" stroke-width="1.5" stroke-linecap="round" stroke-linejoin="round"/>
<path fill-rule="evenodd" clip-rule="evenodd" d="M18 21H6C4.343 21 3 19.657 3 18V6C3 4.343 4.343 3 6 3H18C19.657 3 21 4.343 21 6V18C21 19.657 19.657 21 18 21Z" stroke="black" stroke-width="1.5" stroke-linecap="round" stroke-linejoin="round"/>
</svg>
