<svg width="24" height="24" viewBox="0 0 24 24" fill="none" xmlns="http://www.w3.org/2000/svg">
<path d="M15.607 12.1641L16.651 13.9731C17.068 14.6951 16.547 15.5981 15.713 15.5981H13.624" stroke="black" stroke-width="1.5" stroke-linecap="round" stroke-linejoin="round"/>
<path d="M8.393 12.1641L7.349 13.9731C6.932 14.6951 7.453 15.5981 8.287 15.5981H10.376" stroke="black" stroke-width="1.5" stroke-linecap="round" stroke-linejoin="round"/>
<path d="M10.018 9.35001L11.062 7.54101C11.479 6.81901 12.521 6.81901 12.938 7.54101L13.982 9.35001" stroke="black" stroke-width="1.5" stroke-linecap="round" stroke-linejoin="round"/>
<path d="M18.7606 5.23931C22.4944 8.97311 22.4944 15.0268 18.7606 18.7606C15.0268 22.4944 8.97311 22.4944 5.2393 18.7606C1.5055 15.0268 1.5055 8.97312 5.2393 5.23931C8.9731 1.50551 15.0268 1.50551 18.7606 5.23931" stroke="black" stroke-width="1.5" stroke-linecap="round" stroke-linejoin="round"/>
</svg>
