<svg width="24" height="24" viewBox="0 0 24 24" fill="none" xmlns="http://www.w3.org/2000/svg">
<path d="M8.008 14.506C8.539 15.353 9.294 16.085 10.674 16.465C12.067 16.848 13.607 16.672 14.775 15.821C15.882 15.015 16.488 13.866 16.658 12.668" stroke="black" stroke-width="1.5" stroke-linecap="round" stroke-linejoin="round"/>
<path d="M7.34201 11.3318C7.51301 10.1298 8.12301 8.97981 9.23101 8.17481C10.397 7.32781 11.933 7.15681 13.323 7.53881C14.709 7.91881 15.465 8.64881 15.992 9.49381" stroke="black" stroke-width="1.5" stroke-linecap="round" stroke-linejoin="round"/>
<path d="M7.82401 16.5059V14.5059H9.82401" stroke="black" stroke-width="1.5" stroke-linecap="round" stroke-linejoin="round"/>
<path d="M16.176 7.49414V9.49414H14.176" stroke="black" stroke-width="1.5" stroke-linecap="round" stroke-linejoin="round"/>
<path fill-rule="evenodd" clip-rule="evenodd" d="M18 21H6C4.343 21 3 19.657 3 18V6C3 4.343 4.343 3 6 3H18C19.657 3 21 4.343 21 6V18C21 19.657 19.657 21 18 21Z" stroke="black" stroke-width="1.5" stroke-linecap="round" stroke-linejoin="round"/>
</svg>
