<svg width="24" height="24" viewBox="0 0 24 24" fill="none" xmlns="http://www.w3.org/2000/svg">
<path d="M19.139 4.82907C19.761 5.45107 19.761 6.46107 19.139 7.08307C18.517 7.70507 17.507 7.70507 16.885 7.08307C16.263 6.46107 16.263 5.45107 16.885 4.82907C17.507 4.20607 18.517 4.20607 19.139 4.82907" stroke="black" stroke-width="1.5" stroke-linecap="round" stroke-linejoin="round"/>
<path d="M19.139 4.82907C19.761 5.45107 19.761 6.46107 19.139 7.08307C18.517 7.70507 17.507 7.70507 16.885 7.08307C16.263 6.46107 16.263 5.45107 16.885 4.82907C17.507 4.20607 18.517 4.20607 19.139 4.82907" stroke="black" stroke-width="1.5" stroke-linecap="round" stroke-linejoin="round"/>
<path d="M9.523 20.133C10.306 20.371 11.136 20.501 11.997 20.501H11.999C14.175 20.501 16.351 19.671 18.011 18.011C20.055 15.968 20.835 13.144 20.363 10.499" stroke="black" stroke-width="1.5" stroke-linecap="round" stroke-linejoin="round"/>
<path d="M5.538 6.48593C5.973 5.97593 6.469 5.52193 7.013 5.12793" stroke="black" stroke-width="1.5" stroke-linecap="round" stroke-linejoin="round"/>
<path d="M3.992 9.16797C3.678 10.056 3.498 11.006 3.498 12.001" stroke="black" stroke-width="1.5" stroke-linecap="round" stroke-linejoin="round"/>
<path d="M7.013 18.876C5.634 17.875 4.574 16.469 3.994 14.835" stroke="black" stroke-width="1.5" stroke-linecap="round" stroke-linejoin="round"/>
<path d="M14.121 9.879C15.293 11.051 15.293 12.95 14.121 14.122C12.949 15.294 11.05 15.294 9.878 14.122C8.706 12.95 8.706 11.051 9.878 9.879C11.05 8.707 12.95 8.707 14.121 9.879" stroke="black" stroke-width="1.5" stroke-linecap="round" stroke-linejoin="round"/>
<path d="M9.523 3.86995C10.306 3.63195 11.136 3.50195 11.997 3.50195L12 3.50295C13.667 3.50395 15.335 3.99095 16.77 4.96695" stroke="black" stroke-width="1.5" stroke-linecap="round" stroke-linejoin="round"/>
</svg>
