<svg width="24" height="24" viewBox="0 0 24 24" fill="none" xmlns="http://www.w3.org/2000/svg">
<path d="M18.364 5.63604C21.8787 9.15076 21.8787 14.8492 18.364 18.3639C14.8493 21.8787 9.1508 21.8787 5.6361 18.3639C2.12138 14.8492 2.12138 9.15074 5.6361 5.63604C9.15082 2.12132 14.8493 2.12132 18.364 5.63604" stroke="black" stroke-width="1.5" stroke-linecap="round" stroke-linejoin="round"/>
<path d="M8.008 14.506C8.193 14.801 8.405 15.082 8.661 15.339C10.505 17.183 13.495 17.183 15.339 15.339C16.091 14.587 16.519 13.644 16.658 12.668" stroke="black" stroke-width="1.5" stroke-linecap="round" stroke-linejoin="round"/>
<path d="M7.342 11.3318C7.481 10.3548 7.91 9.41183 8.661 8.66083C10.505 6.81683 13.495 6.81683 15.339 8.66083C15.596 8.91783 15.808 9.19883 15.992 9.49383" stroke="black" stroke-width="1.5" stroke-linecap="round" stroke-linejoin="round"/>
<path d="M7.824 16.1759V14.5059H9.494" stroke="black" stroke-width="1.5" stroke-linecap="round" stroke-linejoin="round"/>
<path d="M16.176 7.82422V9.49422H14.506" stroke="black" stroke-width="1.5" stroke-linecap="round" stroke-linejoin="round"/>
</svg>
