<svg width="24" height="24" viewBox="0 0 24 24" fill="none" xmlns="http://www.w3.org/2000/svg">
<path fill-rule="evenodd" clip-rule="evenodd" d="M12.833 18.0001H8.658L5.984 20.6511C5.249 21.3801 4 20.8591 4 19.8241V9.16708C4 8.13008 5.254 7.61008 5.988 8.34408L13.657 16.0131C14.39 16.7461 13.871 18.0001 12.833 18.0001Z" stroke="black" stroke-width="1.5" stroke-linecap="round" stroke-linejoin="round"/>
<path d="M20.5355 3.46447C22.4881 5.41709 22.4881 8.58291 20.5355 10.5355C18.5829 12.4882 15.417 12.4882 13.4644 10.5355C11.5118 8.58291 11.5118 5.41709 13.4644 3.46447C15.417 1.51184 18.5829 1.51184 20.5355 3.46447" stroke="black" stroke-width="1.5" stroke-linecap="round" stroke-linejoin="round"/>
<path d="M12.67 9.5V9.5C12.044 8.415 12.362 7.032 13.399 6.33L13.4 6.329C14.233 5.766 15.329 5.785 16.142 6.376L17.858 7.624C18.671 8.215 19.767 8.234 20.6 7.671L20.601 7.67C21.638 6.968 21.957 5.584 21.33 4.5V4.5" stroke="black" stroke-width="1.5" stroke-linecap="round" stroke-linejoin="round"/>
<path d="M19.501 11.3301V11.3301C18.416 11.9561 17.033 11.6381 16.331 10.6011L16.33 10.6001C15.767 9.76713 15.786 8.67113 16.377 7.85813L17.625 6.14213C18.216 5.32913 18.235 4.23313 17.672 3.40013L17.67 3.39913C16.968 2.36213 15.584 2.04313 14.5 2.67013V2.67013" stroke="black" stroke-width="1.5" stroke-linecap="round" stroke-linejoin="round"/>
</svg>
