<svg width="24" height="24" viewBox="0 0 24 24" fill="none" xmlns="http://www.w3.org/2000/svg">
<path d="M14.531 9.46865C15.929 10.8666 15.929 13.1326 14.531 14.5296C13.133 15.9266 10.867 15.9276 9.47 14.5296C8.073 13.1316 8.072 10.8656 9.47 9.46865C10.868 8.07165 13.133 8.07165 14.531 9.46865" stroke="black" stroke-width="1.5" stroke-linecap="round" stroke-linejoin="round"/>
<path d="M20.523 9.13379C21.575 12.2698 20.861 15.8668 18.364 18.3638C14.849 21.8788 9.151 21.8788 5.636 18.3638L7.757 17.6568" stroke="black" stroke-width="1.5" stroke-linecap="round" stroke-linejoin="round"/>
<path d="M16.243 6.34276L18.364 5.63576C14.849 2.12076 9.151 2.12076 5.636 5.63576C3.139 8.13276 2.425 11.7308 3.477 14.8658" stroke="black" stroke-width="1.5" stroke-linecap="round" stroke-linejoin="round"/>
</svg>
