<svg width="24" height="24" viewBox="0 0 24 24" fill="none" xmlns="http://www.w3.org/2000/svg">
<path d="M8.008 14.506C8.539 15.353 9.294 16.085 10.674 16.465C12.067 16.848 13.607 16.672 14.775 15.821C15.882 15.015 16.488 13.866 16.658 12.668" stroke="black" stroke-width="1.5" stroke-linecap="round" stroke-linejoin="round"/>
<path d="M7.342 11.3318C7.513 10.1298 8.123 8.97981 9.231 8.17481C10.397 7.32781 11.933 7.15681 13.323 7.53881C14.709 7.91881 15.465 8.64881 15.992 9.49381" stroke="black" stroke-width="1.5" stroke-linecap="round" stroke-linejoin="round"/>
<path d="M7.82401 16.5059V14.5059H9.82401" stroke="black" stroke-width="1.5" stroke-linecap="round" stroke-linejoin="round"/>
<path d="M16.176 7.49414V9.49414H14.176" stroke="black" stroke-width="1.5" stroke-linecap="round" stroke-linejoin="round"/>
<path fill-rule="evenodd" clip-rule="evenodd" d="M12 21V21C7.029 21 3 16.971 3 12V12C3 7.029 7.029 3 12 3V3C16.971 3 21 7.029 21 12V12C21 16.971 16.971 21 12 21Z" stroke="black" stroke-width="1.5" stroke-linecap="round" stroke-linejoin="round"/>
</svg>
