<svg width="24" height="24" viewBox="0 0 24 24" fill="none" xmlns="http://www.w3.org/2000/svg">
<path d="M18.5 15.5L16 18L14.5 16.5" stroke="black" stroke-width="1.5" stroke-linecap="round" stroke-linejoin="round"/>
<path fill-rule="evenodd" clip-rule="evenodd" d="M18.75 21H14.25C13.007 21 12 19.993 12 18.75V14.25C12 13.007 13.007 12 14.25 12H18.75C19.993 12 21 13.007 21 14.25V18.75C21 19.993 19.993 21 18.75 21Z" stroke="black" stroke-width="1.5" stroke-linecap="round" stroke-linejoin="round"/>
<path d="M20.424 4.80298V7.69598H17.531H20.424" stroke="black" stroke-width="1.5" stroke-linecap="round" stroke-linejoin="round"/>
<path d="M9 20.477C5.507 19.24 3 15.917 3 12C3 7.03 7.029 3 12 3C15.412 3 18.379 4.899 19.905 7.696" stroke="black" stroke-width="1.5" stroke-linecap="round" stroke-linejoin="round"/>
</svg>
