<svg width="24" height="24" viewBox="0 0 24 24" fill="none" xmlns="http://www.w3.org/2000/svg">
<path d="M11.46 4.271C10.494 4.315 9.52101 4.524 8.58001 4.932C5.06301 6.458 3.16601 10.152 3.75601 13.771" stroke="black" stroke-width="1.5" stroke-linecap="round" stroke-linejoin="round"/>
<path d="M19.125 16.2164C19.569 15.3574 19.875 14.4104 19.992 13.3924C20.43 9.58341 18.178 6.09441 14.749 4.79541" stroke="black" stroke-width="1.5" stroke-linecap="round" stroke-linejoin="round"/>
<path d="M8.88501 2.84424L11.726 3.81124L10.344 6.20724" stroke="black" stroke-width="1.5" stroke-linecap="round" stroke-linejoin="round"/>
<path d="M21.65 14.7022L19.392 16.6792L18.008 14.2842" stroke="black" stroke-width="1.5" stroke-linecap="round" stroke-linejoin="round"/>
<path d="M4.99801 19.8273L4.41501 16.8833L7.18101 16.8823" stroke="black" stroke-width="1.5" stroke-linecap="round" stroke-linejoin="round"/>
<path d="M4.94701 16.8843C5.46901 17.6993 6.13601 18.4373 6.95901 19.0473C10.039 21.3303 14.187 21.1263 17.026 18.8053" stroke="black" stroke-width="1.5" stroke-linecap="round" stroke-linejoin="round"/>
</svg>
