<svg width="24" height="24" viewBox="0 0 24 24" fill="none" xmlns="http://www.w3.org/2000/svg">
<path d="M12 8.45624L10.819 7.27524L12 6.09424" stroke="black" stroke-width="1.5" stroke-linecap="round" stroke-linejoin="round"/>
<path d="M18.364 5.63604C21.8787 9.15076 21.8787 14.8492 18.364 18.3639C14.8493 21.8787 9.1508 21.8787 5.6361 18.3639C2.12138 14.8492 2.12138 9.15074 5.6361 5.63604C9.15082 2.12132 14.8493 2.12132 18.364 5.63604" stroke="black" stroke-width="1.5" stroke-linecap="round" stroke-linejoin="round"/>
<path d="M13.051 16.5952C12.712 16.6732 12.363 16.7222 12 16.7222C9.39202 16.7222 7.27802 14.6082 7.27802 12.0002C7.27802 10.9372 7.64202 9.96722 8.23402 9.17822" stroke="black" stroke-width="1.5" stroke-linecap="round" stroke-linejoin="round"/>
<path d="M15.766 14.8218C16.358 14.0328 16.722 13.0628 16.722 11.9998C16.722 9.39183 14.608 7.27783 12 7.27783C11.637 7.27783 11.288 7.32683 10.949 7.40483" stroke="black" stroke-width="1.5" stroke-linecap="round" stroke-linejoin="round"/>
<path d="M12 15.5439L13.181 16.7249L12 17.9059" stroke="black" stroke-width="1.5" stroke-linecap="round" stroke-linejoin="round"/>
</svg>
