<svg width="24" height="24" viewBox="0 0 24 24" fill="none" xmlns="http://www.w3.org/2000/svg">
<path d="M8 3.94702C5.039 5.42002 3 8.46802 3 12C3 16.971 7.029 21 12 21L11 19" stroke="black" stroke-width="1.5" stroke-linecap="round" stroke-linejoin="round"/>
<path d="M13 5L12 3C16.971 3 21 7.029 21 12C21 15.532 18.961 18.58 16 20.053" stroke="black" stroke-width="1.5" stroke-linecap="round" stroke-linejoin="round"/>
<path fill-rule="evenodd" clip-rule="evenodd" d="M9.128 10.267C7.894 10.435 6.94 11.482 6.94 12.762C6.94 14.159 8.073 15.292 9.47 15.292H15.035C16.153 15.292 17.059 14.386 17.059 13.268C17.059 12.15 16.153 11.244 15.035 11.244C15.035 9.56701 13.676 8.20801 11.999 8.20801C10.666 8.20801 9.535 9.07001 9.128 10.267Z" stroke="black" stroke-width="1.5" stroke-linecap="round" stroke-linejoin="round"/>
</svg>
