<svg width="24" height="24" viewBox="0 0 24 24" fill="none" xmlns="http://www.w3.org/2000/svg">
<path d="M16.5 9.99292L13.128 12.2759C12.445 12.7379 11.549 12.7379 10.867 12.2749L7.5 9.99292" stroke="black" stroke-width="1.5" stroke-linecap="round" stroke-linejoin="round"/>
<path d="M8 3.94702C5.039 5.42002 3 8.46802 3 12C3 16.971 7.029 21 12 21L11 19" stroke="black" stroke-width="1.5" stroke-linecap="round" stroke-linejoin="round"/>
<path d="M13 5L12 3C16.971 3 21 7.029 21 12C21 15.531 18.961 18.579 16 20.053" stroke="black" stroke-width="1.5" stroke-linecap="round" stroke-linejoin="round"/>
<path fill-rule="evenodd" clip-rule="evenodd" d="M15.15 15.375H8.85C8.104 15.375 7.5 14.771 7.5 14.025V9.975C7.5 9.229 8.104 8.625 8.85 8.625H15.15C15.896 8.625 16.5 9.229 16.5 9.975V14.025C16.5 14.771 15.896 15.375 15.15 15.375V15.375Z" stroke="black" stroke-width="1.5" stroke-linecap="round" stroke-linejoin="round"/>
</svg>
