<svg width="24" height="24" viewBox="0 0 24 24" fill="none" xmlns="http://www.w3.org/2000/svg">
<path d="M6.722 19.2778C6.146 18.8608 5.621 18.3798 5.16 17.8398" stroke="black" stroke-width="1.5" stroke-linecap="round" stroke-linejoin="round"/>
<path d="M3.52299 9C4.08399 7.417 5.06799 6.035 6.34899 5" stroke="black" stroke-width="1.5" stroke-linecap="round" stroke-linejoin="round"/>
<path d="M3.00001 12C3.00001 13.054 3.19001 14.06 3.52301 15" stroke="black" stroke-width="1.5" stroke-linecap="round" stroke-linejoin="round"/>
<path d="M14.828 9.17188C16.39 10.7339 16.39 13.2669 14.828 14.8289C13.266 16.3909 10.733 16.3909 9.171 14.8289C7.609 13.2669 7.609 10.7339 9.171 9.17188C10.733 7.60987 13.266 7.60888 14.828 9.17188" stroke="black" stroke-width="1.5" stroke-linecap="round" stroke-linejoin="round"/>
<path d="M20.424 4.80322V7.69622H17.531H20.424" stroke="black" stroke-width="1.5" stroke-linecap="round" stroke-linejoin="round"/>
<path d="M19.905 7.696C18.379 4.899 15.412 3 12 3C11.088 3 10.209 3.138 9.38 3.39" stroke="black" stroke-width="1.5" stroke-linecap="round" stroke-linejoin="round"/>
<path d="M21 12C21 16.97 16.971 21 12 21C11.221 21 10.473 20.881 9.75301 20.694" stroke="black" stroke-width="1.5" stroke-linecap="round" stroke-linejoin="round"/>
</svg>
