<svg width="24" height="24" viewBox="0 0 24 24" fill="none" xmlns="http://www.w3.org/2000/svg">
<path d="M14.2189 15.219C13.5509 15.7238 12.7372 15.9983 11.9 16.0013C9.74489 15.998 7.99713 14.2547 7.98833 12.0997L7.99834 10.499L6.66478 11.8336" stroke="black" stroke-width="1.5" stroke-linecap="round" stroke-linejoin="round"/>
<path d="M12 21.0036C7.02736 21.0036 2.99625 16.9725 2.99625 11.9998C2.99625 7.02721 7.02736 2.99609 12 2.99609C16.9726 2.99609 21.0037 7.02721 21.0037 11.9998C21.0037 16.9725 16.9726 21.0036 12 21.0036" stroke="black" stroke-width="1.5" stroke-linecap="round" stroke-linejoin="round"/>
<path d="M17.3352 12.1658L16.0017 13.5003L16.0157 11.8997C16.0063 9.74329 14.2564 7.99968 12.1 7.99805C11.2622 8.00108 10.4478 8.27556 9.77907 8.78037" stroke="black" stroke-width="1.5" stroke-linecap="round" stroke-linejoin="round"/>
</svg>
