<svg width="24" height="24" viewBox="0 0 24 24" fill="none" xmlns="http://www.w3.org/2000/svg">
<path d="M12 21C7.03 21 3 16.97 3 12C3 7.03 7.03 3 12 3C16.972 3 21 7.03 21 12C21 16.97 16.972 21 12 21" stroke="black" stroke-width="1.5" stroke-linecap="round" stroke-linejoin="round"/>
<path d="M15.188 11.0688L15.917 10.3398C16.574 11.8898 16.272 13.7468 15.008 15.0088C13.995 16.0218 12.601 16.4038 11.291 16.1788" stroke="black" stroke-width="1.5" stroke-linecap="round" stroke-linejoin="round"/>
<path d="M8.812 12.9309L8.083 13.6599C7.426 12.1099 7.728 10.2529 8.992 8.99086C10.067 7.91586 11.571 7.55486 12.95 7.86986" stroke="black" stroke-width="1.5" stroke-linecap="round" stroke-linejoin="round"/>
</svg>
