<svg width="24" height="24" viewBox="0 0 24 24" fill="none" xmlns="http://www.w3.org/2000/svg">
<path d="M8 3.94678C5.039 5.41978 3 8.46778 3 11.9998C3 16.9708 7.029 20.9998 12 20.9998L11 18.9998" stroke="black" stroke-width="1.5" stroke-linecap="round" stroke-linejoin="round"/>
<path d="M13 5L12 3C16.971 3 21 7.029 21 12C21 15.532 18.961 18.58 16 20.053" stroke="black" stroke-width="1.5" stroke-linecap="round" stroke-linejoin="round"/>
<path fill-rule="evenodd" clip-rule="evenodd" d="M15.5 9.47H12L11.298 8.437C11.111 8.164 10.802 8 10.471 8H8.5C7.948 8 7.5 8.448 7.5 9V15C7.5 15.552 7.948 16 8.5 16H15.5C16.052 16 16.5 15.552 16.5 15V10.47C16.5 9.918 16.052 9.47 15.5 9.47V9.47Z" stroke="black" stroke-width="1.5" stroke-linecap="round" stroke-linejoin="round"/>
</svg>
