<svg width="24" height="24" viewBox="0 0 24 24" fill="none" xmlns="http://www.w3.org/2000/svg">
<path d="M18.364 5.63604C21.8787 9.15076 21.8787 14.8492 18.364 18.3639C14.8493 21.8787 9.1508 21.8787 5.6361 18.3639C2.12138 14.8492 2.12138 9.15074 5.6361 5.63604C9.15082 2.12132 14.8493 2.12132 18.364 5.63604" stroke="black" stroke-width="1.5" stroke-linecap="round" stroke-linejoin="round"/>
<path d="M15.15 11.8982L16.025 12.8352L16.9 11.8982" stroke="black" stroke-width="1.5" stroke-linecap="round" stroke-linejoin="round"/>
<path d="M9.69901 8.60804C10.356 8.16004 11.145 7.89404 12 7.89404C14.268 7.89404 16.106 9.73204 16.106 12C16.106 12.275 16.077 12.543 16.025 12.804" stroke="black" stroke-width="1.5" stroke-linecap="round" stroke-linejoin="round"/>
<path d="M8.85001 12.0168L7.97501 11.0808L7.10001 12.0168" stroke="black" stroke-width="1.5" stroke-linecap="round" stroke-linejoin="round"/>
<path d="M14.301 15.3078C13.645 15.7558 12.855 16.0208 12 16.0208C9.73201 16.0208 7.89401 14.1828 7.89401 11.9148C7.89401 11.6398 7.92301 11.3718 7.97501 11.1108" stroke="black" stroke-width="1.5" stroke-linecap="round" stroke-linejoin="round"/>
</svg>
