<svg width="24" height="24" viewBox="0 0 24 24" fill="none" xmlns="http://www.w3.org/2000/svg">
<path fill-rule="evenodd" clip-rule="evenodd" d="M12.4832 9.89945C15.0548 10.1899 16.9991 12.3636 17.0021 14.9516V15.2737C15.884 13.9267 14.2336 13.1349 12.4832 13.1058V14.8065C12.4808 15.052 12.3391 15.2749 12.1177 15.3811C11.8963 15.4873 11.6338 15.4585 11.4408 15.3067L7.23401 11.9873C7.08474 11.8697 6.99762 11.6902 6.99762 11.5001C6.99762 11.3101 7.08474 11.1305 7.23401 11.0129L11.4408 7.69053C11.6338 7.53877 11.8963 7.50992 12.1177 7.61615C12.3391 7.72238 12.4808 7.9452 12.4832 8.19074V9.89945Z" stroke="black" stroke-width="1.5" stroke-linecap="round" stroke-linejoin="round"/>
<circle cx="12" cy="11.9998" r="9.00375" stroke="black" stroke-width="1.5" stroke-linecap="round" stroke-linejoin="round"/>
</svg>
