<svg width="24" height="24" viewBox="0 0 24 24" fill="none" xmlns="http://www.w3.org/2000/svg">
<path fill-rule="evenodd" clip-rule="evenodd" d="M15.52 10.4519L16.829 9.14293C17.077 8.89593 17.5 9.07093 17.5 9.42093V14.5789C17.5 14.7959 17.324 14.9719 17.107 14.9719H11.949C11.599 14.9719 11.424 14.5489 11.671 14.3009L13.111 12.8609C12.417 12.0719 11.402 11.5709 10.269 11.5709C8.308 11.5709 6.695 13.0609 6.501 14.9709C6.701 11.9189 9.233 9.50393 12.336 9.50393C13.51 9.50593 14.603 9.85593 15.52 10.4519Z" stroke="black" stroke-width="1.5" stroke-linecap="round" stroke-linejoin="round"/>
<path fill-rule="evenodd" clip-rule="evenodd" d="M17 21H7C4.791 21 3 19.209 3 17V7C3 4.791 4.791 3 7 3H17C19.209 3 21 4.791 21 7V17C21 19.209 19.209 21 17 21Z" stroke="black" stroke-width="1.5" stroke-linecap="round" stroke-linejoin="round"/>
</svg>
