<svg width="24" height="24" viewBox="0 0 24 24" fill="none" xmlns="http://www.w3.org/2000/svg">
<path d="M5.15714 6.15735C5.61913 5.61755 6.1437 5.13462 6.71979 4.71875" stroke="black" stroke-width="1.5" stroke-linecap="round" stroke-linejoin="round"/>
<path d="M17.0021 19.4854C14.7588 20.9857 11.9606 21.3999 9.37891 20.6138" stroke="black" stroke-width="1.5" stroke-linecap="round" stroke-linejoin="round"/>
<path fill-rule="evenodd" clip-rule="evenodd" d="M12.4832 9.89938C15.055 10.1894 16.9996 12.3634 17.0021 14.9515V15.2736C15.884 13.9266 14.2336 13.1348 12.4832 13.1057V14.8064C12.4808 15.052 12.3391 15.2748 12.1177 15.381C11.8963 15.4872 11.6338 15.4584 11.4408 15.3066L7.23401 11.9872C6.9658 11.7742 6.92101 11.3841 7.13397 11.1159C7.16344 11.0789 7.197 11.0453 7.23401 11.0158L11.4408 7.69346C11.6338 7.5417 11.8963 7.51285 12.1177 7.61908C12.3391 7.72531 12.4808 7.94813 12.4832 8.19367V9.89938Z" stroke="black" stroke-width="1.5" stroke-linecap="round" stroke-linejoin="round"/>
<path d="M3.51948 8.99902C3.17502 9.96224 2.99806 10.9773 2.99626 12.0003" stroke="black" stroke-width="1.5" stroke-linecap="round" stroke-linejoin="round"/>
<path d="M9.37891 3.38691C13.0198 2.26849 16.9703 3.56701 19.2376 6.62745C21.505 9.68788 21.5965 13.8453 19.4661 17.0026" stroke="black" stroke-width="1.5" stroke-linecap="round" stroke-linejoin="round"/>
<path d="M6.71979 19.2818C5.24612 18.2103 4.13115 16.718 3.52145 15.001" stroke="black" stroke-width="1.5" stroke-linecap="round" stroke-linejoin="round"/>
</svg>
