<svg width="24" height="24" viewBox="0 0 24 24" fill="none" xmlns="http://www.w3.org/2000/svg">
<path fill-rule="evenodd" clip-rule="evenodd" d="M16.75 14.8608C16.75 11.4128 14.453 9.93683 11.686 9.93683V8.04982C11.686 7.52582 11.073 7.24182 10.673 7.58082L6.741 10.9178C6.46 11.1558 6.453 11.5878 6.726 11.8348L10.658 15.3988C11.053 15.7568 11.686 15.4768 11.686 14.9428V13.0578C13.871 13.0578 15.814 13.2888 16.75 15.5528V14.8608Z" stroke="black" stroke-width="1.5" stroke-linecap="round" stroke-linejoin="round"/>
<path fill-rule="evenodd" clip-rule="evenodd" d="M18 21.0142H6C4.343 21.0142 3 19.6712 3 18.0142V6.01416C3 4.35716 4.343 3.01416 6 3.01416H18C19.657 3.01416 21 4.35716 21 6.01416V18.0142C21 19.6712 19.657 21.0142 18 21.0142Z" stroke="black" stroke-width="1.5" stroke-linecap="round" stroke-linejoin="round"/>
</svg>
