<svg width="24" height="24" viewBox="0 0 24 24" fill="none" xmlns="http://www.w3.org/2000/svg">
<path d="M18.4 5.6001C21.9 9.1001 21.9 14.8001 18.4 18.3001C14.9 21.8001 9.2 21.8001 5.7 18.3001C2.2 14.8001 2.2 9.1001 5.7 5.6001C9.2 2.1001 14.8 2.1001 18.4 5.6001" stroke="black" stroke-width="1.5" stroke-linecap="round" stroke-linejoin="round"/>
<path fill-rule="evenodd" clip-rule="evenodd" d="M12.3 12.6001C10.1 12.6001 8.2 13.4001 7.2 15.7001V15.0001C7.2 11.6001 9.5 9.50006 12.3 9.50006V8.00006C12.3 7.50006 12.9 7.20006 13.3 7.50006L17 10.6001C17.3 10.8001 17.3 11.3001 17 11.5001L13.3 14.9001C12.9 15.3001 12.3 15.0001 12.3 14.4001V12.6001Z" stroke="black" stroke-width="1.5" stroke-linecap="round" stroke-linejoin="round"/>
</svg>
