<svg width="24" height="24" viewBox="0 0 24 24" fill="none" xmlns="http://www.w3.org/2000/svg">
<path fill-rule="evenodd" clip-rule="evenodd" d="M7.99833 13.0001C7.44625 12.4474 7.44625 11.552 7.99833 10.9993L10.9996 7.99804C11.5523 7.44596 12.4477 7.44596 13.0004 7.99804L16.0017 10.9993C16.5537 11.552 16.5537 12.4474 16.0017 13.0001L13.0004 16.0014C12.4477 16.5535 11.5523 16.5535 10.9996 16.0014L7.99833 13.0001Z" stroke="black" stroke-width="1.5" stroke-linecap="round" stroke-linejoin="round"/>
<path fill-rule="evenodd" clip-rule="evenodd" d="M2.99625 6.99776C2.99625 4.7877 4.78786 2.99609 6.99792 2.99609H17.0021C19.2121 2.99609 21.0037 4.7877 21.0037 6.99776V17.0019C21.0037 19.212 19.2121 21.0036 17.0021 21.0036H6.99792C4.78786 21.0036 2.99625 19.212 2.99625 17.0019V6.99776Z" stroke="black" stroke-width="1.5" stroke-linecap="round" stroke-linejoin="round"/>
</svg>
