<svg width="24" height="24" viewBox="0 0 24 24" fill="none" xmlns="http://www.w3.org/2000/svg">
<path d="M11.1687 16.5022L12.6693 15.0016L11.1687 13.501" stroke="black" stroke-width="1.5" stroke-linecap="round" stroke-linejoin="round"/>
<rect x="2.99625" y="2.99609" width="18.0075" height="18.0075" rx="5" stroke="black" stroke-width="1.5" stroke-linecap="round" stroke-linejoin="round"/>
<path d="M12.8313 7.49805L11.3327 8.99867L12.8334 10.4993" stroke="black" stroke-width="1.5" stroke-linecap="round" stroke-linejoin="round"/>
<path d="M18.0025 12.0003C18.0025 10.3426 15.3154 8.99902 12 8.99902C15.3154 8.99902 18.0025 10.3426 18.0025 12.0003C18.0025 13.0407 16.9431 13.9571 15.3344 14.4953C16.9431 13.9571 18.0025 13.0407 18.0025 12.0003" stroke="black" stroke-width="1.5" stroke-linecap="round" stroke-linejoin="round"/>
<path d="M11.3327 8.99923H12H11.3327" stroke="black" stroke-width="1.5" stroke-linecap="round" stroke-linejoin="round"/>
<path fill-rule="evenodd" clip-rule="evenodd" d="M5.99751 11.9999C5.99751 13.6576 8.68462 15.0012 12 15.0012C8.68462 15.0012 5.99751 13.6576 5.99751 11.9999C5.99751 10.9595 7.05695 10.0431 8.66562 9.50488C7.05695 10.0431 5.99751 10.9595 5.99751 11.9999Z" stroke="black" stroke-width="1.5" stroke-linecap="round" stroke-linejoin="round"/>
<path d="M12.6673 15.0012H12H12.6673" stroke="black" stroke-width="1.5" stroke-linecap="round" stroke-linejoin="round"/>
</svg>
