<svg width="24" height="24" viewBox="0 0 24 24" fill="none" xmlns="http://www.w3.org/2000/svg">
<path d="M15.222 9.86084L11.333 13.7498L9 11.4168" stroke="black" stroke-width="1.5" stroke-linecap="round" stroke-linejoin="round"/>
<path d="M13.09 5.5L14.59 4L13.09 2.5" stroke="black" stroke-width="1.5" stroke-linecap="round" stroke-linejoin="round"/>
<path d="M10.91 18.5L9.41 20L10.91 21.5" stroke="black" stroke-width="1.5" stroke-linecap="round" stroke-linejoin="round"/>
<path d="M17.674 6.37109C19.109 7.81709 20 9.80209 20 12.0001C20 16.4181 16.418 20.0001 12 20.0001C11.214 20.0001 10.457 19.8821 9.73901 19.6711" stroke="black" stroke-width="1.5" stroke-linecap="round" stroke-linejoin="round"/>
<path d="M6.254 17.562C4.86 16.122 4 14.162 4 12C4 7.582 7.582 4 12 4C12.786 4 13.543 4.118 14.261 4.329" stroke="black" stroke-width="1.5" stroke-linecap="round" stroke-linejoin="round"/>
</svg>
