<svg width="24" height="24" viewBox="0 0 24 24" fill="none" xmlns="http://www.w3.org/2000/svg">
<path d="M20.991 12.0361C20.982 14.3281 20.112 16.6161 18.364 18.3641C14.849 21.8791 9.15 21.8791 5.636 18.3641C5.011 17.7391 4.502 17.0421 4.099 16.3041" stroke="black" stroke-width="1.5" stroke-linecap="round" stroke-linejoin="round"/>
<path d="M3.005 11.854C3.041 9.59899 3.916 7.35599 5.636 5.63599C9.151 2.12199 14.85 2.12199 18.364 5.63599C18.989 6.26199 19.498 6.95799 19.901 7.69599" stroke="black" stroke-width="1.5" stroke-linecap="round" stroke-linejoin="round"/>
<path d="M17.612 7.69679H20.424V4.88379" stroke="black" stroke-width="1.5" stroke-linecap="round" stroke-linejoin="round"/>
<path d="M6.388 16.3032H3.576V19.1152" stroke="black" stroke-width="1.5" stroke-linecap="round" stroke-linejoin="round"/>
<path d="M14.475 9.52476C15.842 10.8918 15.842 13.1078 14.475 14.4748C13.108 15.8418 10.892 15.8418 9.525 14.4748C8.158 13.1078 8.158 10.8918 9.525 9.52476C10.892 8.15776 13.108 8.15776 14.475 9.52476" stroke="black" stroke-width="1.5" stroke-linecap="round" stroke-linejoin="round"/>
</svg>
