<svg width="24" height="24" viewBox="0 0 24 24" fill="none" xmlns="http://www.w3.org/2000/svg">
<path d="M5.87001 5.87201C7.43901 4.30301 9.60701 3.33301 12.002 3.33301C16.791 3.33301 20.674 7.21401 20.674 12.001C20.674 12.669 20.591 13.317 20.448 13.942" stroke="black" stroke-width="1.5" stroke-linecap="round" stroke-linejoin="round"/>
<path d="M19.424 12.9189L20.674 14.1689L21.924 12.9189" stroke="black" stroke-width="1.5" stroke-linecap="round" stroke-linejoin="round"/>
<path d="M18.13 18.1281C16.561 19.6971 14.393 20.6671 11.998 20.6671C7.209 20.6671 3.326 16.7861 3.326 11.9991C3.326 11.3311 3.409 10.6831 3.552 10.0581" stroke="black" stroke-width="1.5" stroke-linecap="round" stroke-linejoin="round"/>
<path d="M4.576 11.0811L3.326 9.83105L2.076 11.0811" stroke="black" stroke-width="1.5" stroke-linecap="round" stroke-linejoin="round"/>
<path d="M14 12H10" stroke="black" stroke-width="1.5" stroke-linecap="round" stroke-linejoin="round"/>
<path d="M12 14V10" stroke="black" stroke-width="1.5" stroke-linecap="round" stroke-linejoin="round"/>
<path d="M15.5355 8.46447C17.4881 10.4171 17.4881 13.5829 15.5355 15.5355C13.5829 17.4882 10.4171 17.4882 8.46443 15.5355C6.51181 13.5829 6.51181 10.4171 8.46443 8.46447C10.4171 6.51184 13.5829 6.51184 15.5355 8.46447" stroke="black" stroke-width="1.5" stroke-linecap="round" stroke-linejoin="round"/>
</svg>
