<svg width="24" height="24" viewBox="0 0 24 24" fill="none" xmlns="http://www.w3.org/2000/svg">
<path fill-rule="evenodd" clip-rule="evenodd" d="M8.49966 12L11.9998 8.49986L15.5007 12.0007L12.0005 15.5009L8.49966 12Z" stroke="black" stroke-width="1.49999" stroke-linecap="round" stroke-linejoin="round"/>
<path d="M5 12.25L3 14.25L1 12.25" stroke="black" stroke-width="1.5" stroke-linecap="round" stroke-linejoin="round"/>
<path d="M19 11.75L21 9.75L23 11.75" stroke="black" stroke-width="1.5" stroke-linecap="round" stroke-linejoin="round"/>
<path d="M19.371 6.845C17.744 4.522 15.052 3 12 3C7.029 3 3 7.029 3 12C3 12.694 3.086 13.366 3.235 14.015" stroke="black" stroke-width="1.5" stroke-linecap="round" stroke-linejoin="round"/>
<path d="M4.629 17.1549C6.256 19.4779 8.948 20.9999 12 20.9999C16.971 20.9999 21 16.9709 21 11.9999C21 11.3059 20.914 10.6339 20.765 9.98486" stroke="black" stroke-width="1.5" stroke-linecap="round" stroke-linejoin="round"/>
</svg>
