<svg width="24" height="24" viewBox="0 0 24 24" fill="none" xmlns="http://www.w3.org/2000/svg">
<path d="M2 11.471L3.578 9.89404L5.155 11.471" stroke="black" stroke-width="1.5" stroke-linecap="round" stroke-linejoin="round"/>
<path d="M22 12.5288L20.422 14.1058L18.845 12.5288" stroke="black" stroke-width="1.5" stroke-linecap="round" stroke-linejoin="round"/>
<path d="M17.957 6.04688C19.48 7.57088 20.423 9.67587 20.423 12.0019C20.423 12.6419 20.345 13.2619 20.211 13.8609" stroke="black" stroke-width="1.5" stroke-linecap="round" stroke-linejoin="round"/>
<path d="M11.471 22.0002L9.894 20.4222L11.471 18.8452" stroke="black" stroke-width="1.5" stroke-linecap="round" stroke-linejoin="round"/>
<path d="M10.139 20.2101C10.738 20.3451 11.358 20.4221 11.998 20.4221C14.324 20.4221 16.429 19.4791 17.953 17.9561" stroke="black" stroke-width="1.5" stroke-linecap="round" stroke-linejoin="round"/>
<path d="M12.529 2L14.106 3.578L12.529 5.155" stroke="black" stroke-width="1.5" stroke-linecap="round" stroke-linejoin="round"/>
<path d="M13.861 3.79012C13.262 3.65512 12.642 3.57812 12.002 3.57812C9.676 3.57812 7.571 4.52113 6.047 6.04413" stroke="black" stroke-width="1.5" stroke-linecap="round" stroke-linejoin="round"/>
<path d="M6.043 17.9572C4.52 16.4332 3.577 14.3282 3.577 12.0022V11.9982C3.577 11.3582 3.655 10.7382 3.789 10.1392" stroke="black" stroke-width="1.5" stroke-linecap="round" stroke-linejoin="round"/>
</svg>
