<svg width="24" height="24" viewBox="0 0 24 24" fill="none" xmlns="http://www.w3.org/2000/svg">
<path d="M21.0038 7.49805L19.203 9.2988L17.4023 7.49805" stroke="black" stroke-width="1.5" stroke-linecap="round" stroke-linejoin="round"/>
<path d="M19.203 9.29922V6.14791C19.203 5.55092 18.9658 4.97839 18.5437 4.55626C18.1216 4.13412 17.549 3.89697 16.9521 3.89697H14.7011" stroke="black" stroke-width="1.5" stroke-linecap="round" stroke-linejoin="round"/>
<path d="M2.99625 16.5019L4.797 14.7012L6.59775 16.5019" stroke="black" stroke-width="1.5" stroke-linecap="round" stroke-linejoin="round"/>
<path d="M4.797 14.7012V17.8525C4.797 18.4495 5.03415 19.022 5.45628 19.4441C5.87841 19.8663 6.45095 20.1034 7.04793 20.1034H9.29887" stroke="black" stroke-width="1.5" stroke-linecap="round" stroke-linejoin="round"/>
<path d="M16.5019 21.0038L14.7011 19.2031L16.5019 17.4023" stroke="black" stroke-width="1.5" stroke-linecap="round" stroke-linejoin="round"/>
<path d="M14.7011 19.203H17.8524C18.4494 19.203 19.022 18.9659 19.4441 18.5438C19.8662 18.1216 20.1034 17.5491 20.1034 16.9521V14.7012" stroke="black" stroke-width="1.5" stroke-linecap="round" stroke-linejoin="round"/>
<path d="M7.49812 2.99658L9.29887 4.79733L7.49812 6.59808" stroke="black" stroke-width="1.5" stroke-linecap="round" stroke-linejoin="round"/>
<path d="M9.29887 4.79688H6.14756C4.9044 4.79688 3.89662 5.80465 3.89662 7.04781V9.29875" stroke="black" stroke-width="1.5" stroke-linecap="round" stroke-linejoin="round"/>
<path d="M12 14.7011C10.5082 14.7011 9.29887 13.4917 9.29887 12C9.29887 10.5082 10.5082 9.29883 12 9.29883C13.4918 9.29883 14.7011 10.5082 14.7011 12C14.7011 13.4917 13.4918 14.7011 12 14.7011" stroke="black" stroke-width="1.5" stroke-linecap="round" stroke-linejoin="round"/>
</svg>
