<svg width="24" height="24" viewBox="0 0 24 24" fill="none" xmlns="http://www.w3.org/2000/svg">
<path d="M3.125 4C3.125 3.93 3.07 3.875 3 3.875C2.93 3.875 2.875 3.93 2.875 4C2.875 4.07 2.93 4.125 3 4.125C3.07 4.125 3.125 4.07 3.125 4" stroke="black" stroke-width="1.5" stroke-linecap="round" stroke-linejoin="round"/>
<path d="M7.125 4C7.125 3.93 7.07 3.875 7 3.875C6.93 3.875 6.875 3.93 6.875 4C6.875 4.07 6.93 4.125 7 4.125C7.07 4.125 7.125 4.07 7.125 4" stroke="black" stroke-width="1.5" stroke-linecap="round" stroke-linejoin="round"/>
<path d="M5 9V12C5 16.418 8.582 20 13 20C17.418 20 21 16.418 21 12C21 7.582 17.418 4 13 4H11" stroke="black" stroke-width="1.5" stroke-linecap="round" stroke-linejoin="round"/>
<path d="M3 11L5 9L7 11" stroke="black" stroke-width="1.5" stroke-linecap="round" stroke-linejoin="round"/>
</svg>
