<svg width="24" height="24" viewBox="0 0 24 24" fill="none" xmlns="http://www.w3.org/2000/svg">
<path d="M7.40499 13.051L8.45599 12L7.27499 13.181L6.09399 12" stroke="black" stroke-width="1.5" stroke-linecap="round" stroke-linejoin="round"/>
<path d="M16.595 10.9493L15.544 12.0003L16.725 10.8193L17.906 12.0003" stroke="black" stroke-width="1.5" stroke-linecap="round" stroke-linejoin="round"/>
<path d="M16.595 10.9492C16.6771 11.2936 16.7197 11.6462 16.722 12.0002C16.7316 13.8314 15.6762 15.5013 14.0179 16.2784C12.3597 17.0555 10.4011 16.798 9 15.6189" stroke="black" stroke-width="1.5" stroke-linecap="round" stroke-linejoin="round"/>
<path d="M7.405 13.0514C7.32294 12.707 7.28033 12.3544 7.278 12.0004C7.26839 10.1692 8.32385 8.49932 9.98207 7.72225C11.6403 6.94519 13.5989 7.20262 15 8.38178" stroke="black" stroke-width="1.5" stroke-linecap="round" stroke-linejoin="round"/>
<rect x="3.00002" y="3" width="18" height="18" rx="5" stroke="black" stroke-width="1.5" stroke-linecap="round" stroke-linejoin="round"/>
</svg>
