<svg width="24" height="24" viewBox="0 0 24 24" fill="none" xmlns="http://www.w3.org/2000/svg">
<path d="M10.836 5.35414L8.952 3.95614C9.902 3.59614 10.928 3.39014 12.003 3.39014C16.03 3.39014 19.401 6.15714 20.346 9.89014" stroke="black" stroke-width="1.5" stroke-linecap="round" stroke-linejoin="round"/>
<path d="M6.82699 16.3389L6.55799 18.6699C5.77199 18.0279 5.07999 17.2429 4.54199 16.3109C2.52899 12.8239 3.23999 8.52094 5.99999 5.83594" stroke="black" stroke-width="1.5" stroke-linecap="round" stroke-linejoin="round"/>
<path d="M18.345 14.3192L20.498 13.3862C20.335 14.3882 20.001 15.3792 19.463 16.3112C17.449 19.7982 13.367 21.3352 9.66199 20.2852" stroke="black" stroke-width="1.5" stroke-linecap="round" stroke-linejoin="round"/>
<path d="M14.5307 9.46917C15.9284 10.8669 15.9284 13.1329 14.5307 14.5306C13.133 15.9283 10.8669 15.9283 9.46923 14.5306C8.07154 13.1329 8.07154 10.8669 9.46923 9.46917C10.8669 8.07148 13.133 8.07148 14.5307 9.46917" stroke="black" stroke-width="1.5" stroke-linecap="round" stroke-linejoin="round"/>
</svg>
