<svg width="24" height="24" viewBox="0 0 24 24" fill="none" xmlns="http://www.w3.org/2000/svg">
<path d="M17.5542 6.44437L20.1666 3.83203" stroke="black" stroke-width="1.5" stroke-linecap="round" stroke-linejoin="round"/>
<path d="M17.5542 3.83301L20.1666 6.44538" stroke="black" stroke-width="1.5" stroke-linecap="round" stroke-linejoin="round"/>
<path fill-rule="evenodd" clip-rule="evenodd" d="M11.1032 8.2285C11.2716 7.88707 11.6193 7.6709 12 7.6709C12.3807 7.6709 12.7284 7.88707 12.8968 8.2285L13.5126 9.47667C13.6582 9.77189 13.9398 9.97653 14.2656 10.0239L15.6427 10.224C16.0194 10.2788 16.3323 10.5426 16.4499 10.9045C16.5676 11.2664 16.4696 11.6638 16.1972 11.9295L15.2003 12.9018C14.9647 13.1316 14.8573 13.4625 14.9129 13.7868L15.1482 15.1581C15.2125 15.5333 15.0583 15.9124 14.7504 16.1362C14.4425 16.36 14.0343 16.3895 13.6973 16.2124L12.4653 15.5649C12.174 15.4118 11.8261 15.4118 11.5348 15.5649L10.3027 16.2124C9.9658 16.3895 9.55755 16.36 9.24963 16.1362C8.94171 15.9125 8.78751 15.5333 8.85186 15.1582L9.08712 13.7868C9.14275 13.4625 9.0353 13.1316 8.79975 12.9018L7.80289 11.9295C7.53045 11.6638 7.43246 11.2665 7.55011 10.9045C7.66777 10.5426 7.98067 10.2788 8.35729 10.2241L9.73449 10.0239C10.0603 9.97655 10.3419 9.77191 10.4875 9.47669L11.1032 8.2285Z" stroke="black" stroke-width="1.5" stroke-linecap="round" stroke-linejoin="round"/>
<path d="M14.1111 2.75146C13.4193 2.58722 12.711 2.50285 12 2.5C6.75329 2.5 2.5 6.75329 2.5 12C2.5 17.2467 6.75329 21.5 12 21.5C17.2467 21.5 21.5 17.2467 21.5 12C21.4972 11.289 21.4128 10.5807 21.2485 9.88889" stroke="black" stroke-width="1.5" stroke-linecap="round" stroke-linejoin="round"/>
</svg>
