<svg width="24" height="24" viewBox="0 0 24 24" fill="none" xmlns="http://www.w3.org/2000/svg">
<path d="M6.19266 14.8072C7.15178 15.7664 7.15178 17.3214 6.19266 18.2805C5.23353 19.2397 3.67848 19.2397 2.71935 18.2805C1.76022 17.3214 1.76022 15.7664 2.71935 14.8072C3.67847 13.8481 5.23353 13.8481 6.19266 14.8072" stroke="black" stroke-width="1.4441" stroke-linecap="round" stroke-linejoin="round"/>
<path d="M16 7.54004L3.23001 14.42" stroke="black" stroke-width="1.4441" stroke-linecap="round" stroke-linejoin="round"/>
<path d="M6.19266 5.71935C7.15178 6.67847 7.15178 8.23353 6.19266 9.19266C5.23353 10.1518 3.67848 10.1518 2.71935 9.19266C1.76022 8.23353 1.76022 6.67848 2.71935 5.71935C3.67847 4.76022 5.23353 4.76022 6.19266 5.71935" stroke="black" stroke-width="1.4441" stroke-linecap="round" stroke-linejoin="round"/>
<path d="M16 16.4601L3.23001 9.58008" stroke="black" stroke-width="1.4441" stroke-linecap="round" stroke-linejoin="round"/>
<path d="M21.833 11.8369C21.741 11.8369 21.666 11.9119 21.667 12.0039C21.667 12.0959 21.742 12.1709 21.834 12.1709C21.926 12.1709 22.001 12.0959 22.001 12.0039C22.001 11.9119 21.925 11.8369 21.833 11.8369" stroke="black" stroke-width="1.5" stroke-linecap="round" stroke-linejoin="round"/>
<path d="M18.333 11.8369C18.241 11.8369 18.166 11.9119 18.167 12.0039C18.167 12.0959 18.242 12.1709 18.334 12.1709C18.426 12.1709 18.501 12.0959 18.501 12.0039C18.501 11.9119 18.425 11.8369 18.333 11.8369" stroke="black" stroke-width="1.5" stroke-linecap="round" stroke-linejoin="round"/>
<path d="M14.833 11.8369C14.741 11.8369 14.666 11.9119 14.667 12.0039C14.667 12.0959 14.742 12.1709 14.834 12.1709C14.926 12.1709 15.001 12.0959 15.001 12.0039C15.001 11.9119 14.925 11.8369 14.833 11.8369" stroke="black" stroke-width="1.5" stroke-linecap="round" stroke-linejoin="round"/>
</svg>
