<svg width="24" height="24" viewBox="0 0 24 24" fill="none" xmlns="http://www.w3.org/2000/svg">
<path d="M8.79185 15.4413C9.88805 16.5375 9.88805 18.3148 8.79185 19.411C7.69565 20.5072 5.91835 20.5072 4.82215 19.411C3.72595 18.3148 3.72595 16.5375 4.82215 15.4413C5.91835 14.3451 7.69565 14.3451 8.79185 15.4413" stroke="black" stroke-width="1.5" stroke-linecap="round" stroke-linejoin="round"/>
<path d="M8.79185 4.58924C9.88805 5.68544 9.88805 7.46274 8.79185 8.55894C7.69565 9.65514 5.91835 9.65514 4.82215 8.55894C3.72595 7.46274 3.72595 5.68544 4.82215 4.58924C5.91835 3.49304 7.69565 3.49304 8.79185 4.58924" stroke="black" stroke-width="1.5" stroke-linecap="round" stroke-linejoin="round"/>
<path d="M20 16.8603L5.39999 9.01025" stroke="black" stroke-width="1.5" stroke-linecap="round" stroke-linejoin="round"/>
<path d="M20 7.14014L5.39999 14.9901" stroke="black" stroke-width="1.5" stroke-linecap="round" stroke-linejoin="round"/>
</svg>
