<svg width="24" height="24" viewBox="0 0 24 24" fill="none" xmlns="http://www.w3.org/2000/svg">
<path d="M18.1094 5.42415C21.4836 8.79828 21.4836 14.2688 18.1094 17.6429C14.7353 21.0171 9.26476 21.0171 5.89064 17.6429C2.51651 14.2688 2.51651 8.79827 5.89064 5.42415C9.26478 2.05002 14.7353 2.05002 18.1094 5.42415" stroke="black" stroke-width="1.5" stroke-linecap="round" stroke-linejoin="round"/>
<path d="M9.08927 9.78462C8.43071 9.40446 8.20511 8.56158 8.58527 7.90302C8.96543 7.24446 9.80831 7.01886 10.4669 7.39902C11.1254 7.77918 11.351 8.62206 10.9709 9.28062C10.5907 9.93918 9.74783 10.1648 9.08927 9.78462" stroke="black" stroke-width="1.5" stroke-linecap="round" stroke-linejoin="round"/>
<path d="M10.9709 13.7868C10.5907 13.1283 9.74783 12.9027 9.08927 13.2828C8.43071 13.663 8.20511 14.5059 8.58527 15.1644C8.96543 15.823 9.80831 16.0486 10.4669 15.6684C11.1254 15.2883 11.351 14.4463 10.9709 13.7868" stroke="black" stroke-width="1.5" stroke-linecap="round" stroke-linejoin="round"/>
<path d="M16.08 9.24512L9.0912 13.2867" stroke="black" stroke-width="1.5" stroke-linecap="round" stroke-linejoin="round"/>
<path d="M16.08 13.8243L9.0912 9.78271" stroke="black" stroke-width="1.5" stroke-linecap="round" stroke-linejoin="round"/>
</svg>
