<svg width="24" height="24" viewBox="0 0 24 24" fill="none" xmlns="http://www.w3.org/2000/svg">
<path d="M8.968 10.1779C8.282 9.78185 8.047 8.90385 8.443 8.21785C8.839 7.53185 9.717 7.29685 10.403 7.69285C11.089 8.08885 11.324 8.96685 10.928 9.65285C10.532 10.3389 9.654 10.5739 8.968 10.1779" stroke="black" stroke-width="1.5" stroke-linecap="round" stroke-linejoin="round"/>
<path d="M10.928 14.3468C10.532 13.6608 9.654 13.4258 8.968 13.8218C8.282 14.2178 8.047 15.0958 8.443 15.7818C8.839 16.4678 9.717 16.7028 10.403 16.3068C11.089 15.9108 11.324 15.0338 10.928 14.3468" stroke="black" stroke-width="1.5" stroke-linecap="round" stroke-linejoin="round"/>
<path d="M16.25 9.61621L8.97 13.8262" stroke="black" stroke-width="1.5" stroke-linecap="round" stroke-linejoin="round"/>
<path d="M16.25 14.3858L8.97 10.1758" stroke="black" stroke-width="1.5" stroke-linecap="round" stroke-linejoin="round"/>
<path fill-rule="evenodd" clip-rule="evenodd" d="M19 20.9858H5C3.895 20.9858 3 20.0908 3 18.9858V4.98584C3 3.88084 3.895 2.98584 5 2.98584H19C20.105 2.98584 21 3.88084 21 4.98584V18.9858C21 20.0908 20.105 20.9858 19 20.9858Z" stroke="black" stroke-width="1.5" stroke-linecap="round" stroke-linejoin="round"/>
</svg>
