<svg width="24" height="24" viewBox="0 0 24 24" fill="none" xmlns="http://www.w3.org/2000/svg">
<path d="M16.747 6.187C19.663 9.103 19.663 13.831 16.747 16.747C13.831 19.663 9.103 19.663 6.187 16.747C3.271 13.831 3.271 9.103 6.187 6.187C9.103 3.271 13.831 3.271 16.747 6.187" stroke="black" stroke-width="1.5" stroke-linecap="round" stroke-linejoin="round"/>
<path d="M20 20L16.75 16.75" stroke="black" stroke-width="1.5" stroke-linecap="round" stroke-linejoin="round"/>
<path d="M11.467 11.2168C11.329 11.2168 11.217 11.3288 11.218 11.4668C11.218 11.6048 11.33 11.7168 11.468 11.7168C11.606 11.7168 11.718 11.6048 11.718 11.4668C11.717 11.3288 11.605 11.2168 11.467 11.2168" stroke="black" stroke-width="1.5" stroke-linecap="round" stroke-linejoin="round"/>
<path d="M14.785 11.2168C14.647 11.2168 14.535 11.3288 14.536 11.4668C14.536 11.6048 14.648 11.7168 14.786 11.7168C14.924 11.7168 15.036 11.6048 15.036 11.4668C15.036 11.3288 14.924 11.2168 14.785 11.2168" stroke="black" stroke-width="1.5" stroke-linecap="round" stroke-linejoin="round"/>
<path d="M8.148 11.2168C8.01 11.2168 7.898 11.3288 7.899 11.4668C7.899 11.6048 8.011 11.7168 8.149 11.7168C8.287 11.7168 8.399 11.6048 8.399 11.4668C8.399 11.3288 8.287 11.2168 8.148 11.2168" stroke="black" stroke-width="1.5" stroke-linecap="round" stroke-linejoin="round"/>
</svg>
