<svg width="24" height="24" viewBox="0 0 24 24" fill="none" xmlns="http://www.w3.org/2000/svg">
<path d="M7.59817 11.4002C7.59817 10.3998 7.99833 9.39938 8.69863 8.69909V8.69909C9.39892 7.9988 10.3993 7.59863 11.3998 7.59863" stroke="black" stroke-width="1.5" stroke-linecap="round" stroke-linejoin="round"/>
<path fill-rule="evenodd" clip-rule="evenodd" d="M7.99833 2.99609H16.0017C18.8028 2.99609 21.0037 5.19701 21.0037 7.99818V16.0015C21.0037 18.8027 18.8028 21.0036 16.0017 21.0036H7.99833C5.19717 21.0036 2.99625 18.8027 2.99625 16.0015V7.99818C2.99625 5.19701 5.19717 2.99609 7.99833 2.99609Z" stroke="black" stroke-width="1.5" stroke-linecap="round" stroke-linejoin="round"/>
<path d="M16.3018 16.3016L14.301 14.3008" stroke="black" stroke-width="1.5" stroke-linecap="round" stroke-linejoin="round"/>
<path d="M8.69862 14.2015C10.1992 15.8022 12.7003 15.8022 14.2009 14.3016C15.7015 12.8009 15.8016 10.2999 14.301 8.79926L14.2009 8.69922" stroke="black" stroke-width="1.5" stroke-linecap="round" stroke-linejoin="round"/>
<path d="M3.99667 18.9033L18.9029 3.99707" stroke="black" stroke-width="1.5" stroke-linecap="round" stroke-linejoin="round"/>
</svg>
