<svg width="24" height="24" viewBox="0 0 24 24" fill="none" xmlns="http://www.w3.org/2000/svg">
<path d="M10 18V19C10 20.105 9.105 21 8 21H5C3.895 21 3 20.105 3 19V16C3 14.895 3.895 14 5 14H6" stroke="black" stroke-width="1.5" stroke-linecap="round" stroke-linejoin="round"/>
<path d="M14.8284 9.17157C16.3905 10.7337 16.3905 13.2663 14.8284 14.8284C13.2663 16.3905 10.7336 16.3905 9.17155 14.8284C7.60945 13.2663 7.60945 10.7337 9.17155 9.17157C10.7337 7.60947 13.2663 7.60947 14.8284 9.17157" stroke="black" stroke-width="1.5" stroke-linecap="round" stroke-linejoin="round"/>
<path d="M14.83 14.8301L19 19.0001" stroke="black" stroke-width="1.5" stroke-linecap="round" stroke-linejoin="round"/>
<path d="M6 10H5C3.895 10 3 9.105 3 8V5C3 3.895 3.895 3 5 3H8C9.105 3 10 3.895 10 5V6" stroke="black" stroke-width="1.5" stroke-linecap="round" stroke-linejoin="round"/>
<path d="M14 6V5C14 3.895 14.895 3 16 3H19C20.105 3 21 3.895 21 5V8C21 9.105 20.105 10 19 10H18" stroke="black" stroke-width="1.5" stroke-linecap="round" stroke-linejoin="round"/>
</svg>
