<svg width="24" height="24" viewBox="0 0 24 24" fill="none" xmlns="http://www.w3.org/2000/svg">
<path d="M12 7H5C3.9 7 3 7.9 3 9V19C3 20.1 3.9 21 5 21H15C16.1 21 17 20.1 17 19V12" stroke="black" stroke-width="1.5" stroke-linecap="round" stroke-linejoin="round"/>
<path fill-rule="evenodd" clip-rule="evenodd" d="M16.5 12V12C14 12 12 10 12 7.5V7.5C12 5 14 3 16.5 3V3C19 3 21 5 21 7.5V7.5C21 10 19 12 16.5 12Z" stroke="black" stroke-width="1.5" stroke-linecap="round" stroke-linejoin="round"/>
<path d="M15 7.1001H15.1C16.2 7.1001 17 8.0001 17 9.0001" stroke="black" stroke-width="1.5" stroke-linecap="round" stroke-linejoin="round"/>
<path d="M22 13.0002L19.7 10.7002" stroke="black" stroke-width="1.5" stroke-linecap="round" stroke-linejoin="round"/>
</svg>
