<svg width="24" height="24" viewBox="0 0 24 24" fill="none" xmlns="http://www.w3.org/2000/svg">
<path d="M14 8.97411C15.388 10.3621 15.388 12.6121 14 14.0001C12.612 15.3881 10.362 15.3881 8.974 14.0001C7.586 12.6121 7.586 10.3621 8.974 8.97411C10.362 7.58611 12.612 7.58611 14 8.97411" stroke="black" stroke-width="1.5" stroke-linecap="round" stroke-linejoin="round"/>
<path fill-rule="evenodd" clip-rule="evenodd" d="M16 16L14 14L16 16Z" stroke="black" stroke-width="1.5" stroke-linecap="round" stroke-linejoin="round"/>
<path fill-rule="evenodd" clip-rule="evenodd" d="M16 21H8C5.239 21 3 18.761 3 16V8C3 5.239 5.239 3 8 3H16C18.761 3 21 5.239 21 8V16C21 18.761 18.761 21 16 21Z" stroke="black" stroke-width="1.5" stroke-linecap="round" stroke-linejoin="round"/>
</svg>
