<svg width="24" height="24" viewBox="0 0 24 24" fill="none" xmlns="http://www.w3.org/2000/svg">
<path d="M15.36 13.4535L13.4275 11.521" stroke="black" stroke-width="1.5" stroke-linecap="round" stroke-linejoin="round"/>
<path d="M13.4237 8.34928C14.2982 9.22384 14.2982 10.6427 13.4237 11.5173C12.5491 12.3918 11.1302 12.3918 10.2557 11.5173C9.38112 10.6427 9.38112 9.22384 10.2557 8.34928C11.1312 7.47472 12.5491 7.47472 13.4237 8.34928" stroke="black" stroke-width="1.5" stroke-linecap="round" stroke-linejoin="round"/>
<path d="M9.12 15.3696H12" stroke="black" stroke-width="1.5" stroke-linecap="round" stroke-linejoin="round"/>
<path d="M18.1094 5.42415C21.4836 8.79828 21.4836 14.2688 18.1094 17.6429C14.7353 21.0171 9.26477 21.0171 5.89066 17.6429C2.51653 14.2688 2.51653 8.79827 5.89066 5.42415C9.26479 2.05002 14.7353 2.05002 18.1094 5.42415" stroke="black" stroke-width="1.5" stroke-linecap="round" stroke-linejoin="round"/>
</svg>
