<svg width="24" height="24" viewBox="0 0 24 24" fill="none" xmlns="http://www.w3.org/2000/svg">
<path d="M12 2.99658C16.9731 2.99658 21.0037 7.02726 21.0037 12.0003" stroke="black" stroke-width="1.5" stroke-linecap="round" stroke-linejoin="round"/>
<path d="M8.99875 3.5249C5.50429 4.76142 2.99625 8.0828 2.99625 12.0004C2.99625 16.9735 7.02693 21.0042 12 21.0042C15.9176 21.0042 19.238 18.4961 20.4745 15.0017" stroke="black" stroke-width="1.5" stroke-linecap="round" stroke-linejoin="round"/>
<path d="M12 5.99805C15.3154 5.99805 18.0025 8.68517 18.0025 12.0005" stroke="black" stroke-width="1.5" stroke-linecap="round" stroke-linejoin="round"/>
<path d="M12 8.99902C13.6577 8.99902 15.0013 10.3426 15.0013 12.0003" stroke="black" stroke-width="1.5" stroke-linecap="round" stroke-linejoin="round"/>
<path d="M12 11.9502C11.972 11.9502 11.95 11.9732 11.95 12.0002C11.95 12.0282 11.973 12.0502 12 12.0502C12.028 12.0502 12.05 12.0272 12.05 12.0002C12.05 11.9722 12.028 11.9502 12 11.9502" stroke="black" stroke-width="1.5" stroke-linecap="round" stroke-linejoin="round"/>
</svg>
