<svg width="24" height="24" viewBox="0 0 24 24" fill="none" xmlns="http://www.w3.org/2000/svg">
<path d="M14.0008 8.97308C15.0177 9.98991 15.3218 11.5192 14.7715 12.8477C14.2212 14.1763 12.9248 15.0425 11.4868 15.0425C10.0488 15.0425 8.75233 14.1763 8.20202 12.8477C7.65171 11.5192 7.95589 9.98991 8.97273 8.97308C9.63947 8.30626 10.5438 7.93164 11.4868 7.93164C12.4297 7.93164 13.3341 8.30626 14.0008 8.97308" stroke="black" stroke-width="1.5" stroke-linecap="round" stroke-linejoin="round"/>
<path fill-rule="evenodd" clip-rule="evenodd" d="M16.0017 16.0018L14.0008 14.001L16.0017 16.0018Z" stroke="black" stroke-width="1.5" stroke-linecap="round" stroke-linejoin="round"/>
<path fill-rule="evenodd" clip-rule="evenodd" d="M5.32752 16.7694L5.49729 16.9418L5.67277 16.7563C5.97059 16.4386 6.38534 16.2564 6.82081 16.252C7.25627 16.2477 7.6746 16.4215 7.97873 16.7332L8.01441 16.7694C8.65993 17.4328 8.65993 18.4895 8.01441 19.1529L6.25939 20.9349C6.05838 21.1391 5.78382 21.2541 5.49728 21.2541C5.21074 21.2541 4.93619 21.1391 4.73518 20.9349L2.98024 19.1529C2.33471 18.4895 2.33471 17.4328 2.98024 16.7694V16.7694C3.2898 16.455 3.71261 16.2779 4.15388 16.2779C4.59515 16.2779 5.01796 16.455 5.32752 16.7694V16.7694Z" stroke="black" stroke-width="1.5" stroke-linecap="round" stroke-linejoin="round"/>
<path d="M2.99624 12C2.99706 12.6373 3.06535 13.2726 3.19998 13.8955" stroke="black" stroke-width="1.5" stroke-linecap="round" stroke-linejoin="round"/>
<path d="M12 2.99609C7.02736 2.99609 2.99625 7.02721 2.99625 11.9998" stroke="black" stroke-width="1.5" stroke-linecap="round" stroke-linejoin="round"/>
<path d="M21.0037 11.9998C21.0037 7.02721 16.9726 2.99609 12 2.99609" stroke="black" stroke-width="1.5" stroke-linecap="round" stroke-linejoin="round"/>
<path d="M10.1045 20.8C12.7642 21.3759 15.5417 20.7168 17.6591 19.0072C19.7766 17.2976 21.0062 14.7214 21.0037 12" stroke="black" stroke-width="1.5" stroke-linecap="round" stroke-linejoin="round"/>
</svg>
