<svg width="24" height="24" viewBox="0 0 24 24" fill="none" xmlns="http://www.w3.org/2000/svg">
<path d="M7.99832 17.002L5.49728 19.503L3.99666 18.0024" stroke="black" stroke-width="1.5" stroke-linecap="round" stroke-linejoin="round"/>
<path d="M14.0679 9.03948C15.0847 10.0563 15.3889 11.5856 14.8386 12.9141C14.2883 14.2427 12.9918 15.1089 11.5538 15.1089C10.1158 15.1089 8.81936 14.2427 8.26905 12.9141C7.71874 11.5856 8.02293 10.0563 9.03976 9.03948C9.7065 8.37267 10.6108 7.99805 11.5538 7.99805C12.4968 7.99805 13.4011 8.37267 14.0679 9.03948" stroke="black" stroke-width="1.5" stroke-linecap="round" stroke-linejoin="round"/>
<path fill-rule="evenodd" clip-rule="evenodd" d="M16.0017 16.0022L14.0679 14.0684L16.0017 16.0022Z" stroke="black" stroke-width="1.5" stroke-linecap="round" stroke-linejoin="round"/>
<path d="M2.99625 14.0007V7.99818C2.99625 5.2356 5.23576 2.99609 7.99833 2.99609H16.0017C18.7642 2.99609 21.0037 5.2356 21.0037 7.99818V16.0015C21.0037 18.7641 18.7642 21.0036 16.0017 21.0036H9.99916" stroke="black" stroke-width="1.5" stroke-linecap="round" stroke-linejoin="round"/>
</svg>
