<svg width="24" height="24" viewBox="0 0 24 24" fill="none" xmlns="http://www.w3.org/2000/svg">
<path d="M12 2.99609C16.9726 2.99609 21.0037 7.02721 21.0037 11.9998C21.0037 16.9725 16.9726 21.0036 12 21.0036V21.0036" stroke="black" stroke-width="1.5" stroke-linecap="round" stroke-linejoin="round"/>
<path d="M14.0008 8.97296C15.0177 9.98981 15.3219 11.5191 14.7716 12.8477C14.2213 14.1763 12.9249 15.0426 11.4868 15.0426C10.0487 15.0426 8.75225 14.1763 8.20193 12.8477C7.65162 11.5191 7.95584 9.98981 8.97274 8.97296C10.3612 7.58453 12.6123 7.58453 14.0008 8.97296" stroke="black" stroke-width="1.5" stroke-linecap="round" stroke-linejoin="round"/>
<path fill-rule="evenodd" clip-rule="evenodd" d="M16.0017 16.0018L14.0008 14.001L16.0017 16.0018Z" stroke="black" stroke-width="1.5" stroke-linecap="round" stroke-linejoin="round"/>
<path d="M8.92372 20.4522C7.93668 20.0951 7.01979 19.5679 6.21459 18.8945" stroke="black" stroke-width="1.5" stroke-linecap="round" stroke-linejoin="round"/>
<path d="M6.21459 5.1055C7.0193 4.43142 7.93631 3.90417 8.92372 3.54785" stroke="black" stroke-width="1.5" stroke-linecap="round" stroke-linejoin="round"/>
<path d="M3.14031 10.4373C3.3213 9.40259 3.68261 8.40774 4.20775 7.49805" stroke="black" stroke-width="1.5" stroke-linecap="round" stroke-linejoin="round"/>
<path d="M3.14031 13.5615C3.32129 14.5965 3.68259 15.5917 4.20775 16.5017" stroke="black" stroke-width="1.5" stroke-linecap="round" stroke-linejoin="round"/>
</svg>
