<svg width="24" height="24" viewBox="0 0 24 24" fill="none" xmlns="http://www.w3.org/2000/svg">
<path d="M9.99917 8.9731C11.016 7.95626 12.5452 7.65207 13.8738 8.20238C15.2024 8.75269 16.0686 10.0491 16.0686 11.4871C16.0686 12.9252 15.2024 14.2216 13.8738 14.7719C12.5452 15.3222 11.016 15.018 9.99917 14.0012C9.33235 13.3345 8.95773 12.4301 8.95773 11.4871C8.95773 10.5442 9.33235 9.63984 9.99917 8.9731" stroke="black" stroke-width="1.5" stroke-linecap="round" stroke-linejoin="round"/>
<path fill-rule="evenodd" clip-rule="evenodd" d="M9.99917 14.001L7.99833 16.0018L9.99917 14.001Z" stroke="black" stroke-width="1.5" stroke-linecap="round" stroke-linejoin="round"/>
<path fill-rule="evenodd" clip-rule="evenodd" d="M2.99625 16.0015V7.99818C2.99655 5.23573 5.23588 2.99639 7.99833 2.99609H16.0017C18.7641 2.99639 21.0035 5.23573 21.0037 7.99818V16.0015C21.0035 18.764 18.7641 21.0033 16.0017 21.0036H7.99833C5.23588 21.0033 2.99655 18.764 2.99625 16.0015Z" stroke="black" stroke-width="1.5" stroke-linecap="round" stroke-linejoin="round"/>
<path d="M4.46126 4.46191L7.71261 7.71268" stroke="black" stroke-width="1.5" stroke-linecap="round" stroke-linejoin="round"/>
<path d="M16.2888 16.2861L19.5402 19.5369" stroke="black" stroke-width="1.5" stroke-linecap="round" stroke-linejoin="round"/>
</svg>
