<svg width="24" height="24" viewBox="0 0 24 24" fill="none" xmlns="http://www.w3.org/2000/svg">
<path d="M3.22705 14.0006C2.32198 10.0747 4.12658 6.0241 7.65061 4.07142C11.1746 2.11874 15.5658 2.73623 18.4147 5.58507C21.2635 8.43391 21.881 12.8251 19.9283 16.3492C17.9757 19.8732 13.9251 21.6778 9.99916 20.7727" stroke="black" stroke-width="1.5" stroke-linecap="round" stroke-linejoin="round"/>
<path d="M14.0008 8.97308C15.0177 9.98991 15.3218 11.5192 14.7715 12.8477C14.2212 14.1763 12.9248 15.0425 11.4868 15.0425C10.0488 15.0425 8.75233 14.1763 8.20202 12.8477C7.65171 11.5192 7.95589 9.98991 8.97273 8.97308C9.63947 8.30626 10.5438 7.93164 11.4868 7.93164C12.4297 7.93164 13.3341 8.30626 14.0008 8.97308" stroke="black" stroke-width="1.5" stroke-linecap="round" stroke-linejoin="round"/>
<path fill-rule="evenodd" clip-rule="evenodd" d="M16.0017 16.0018L14.0008 14.001L16.0017 16.0018Z" stroke="black" stroke-width="1.5" stroke-linecap="round" stroke-linejoin="round"/>
<path d="M4.99708 17.502V20.5032" stroke="black" stroke-width="1.5" stroke-linecap="round" stroke-linejoin="round"/>
<path d="M6.49771 19.0031H3.49646" stroke="black" stroke-width="1.5" stroke-linecap="round" stroke-linejoin="round"/>
</svg>
