<svg width="24" height="24" viewBox="0 0 24 24" fill="none" xmlns="http://www.w3.org/2000/svg">
<path d="M18.223 10.1689C18.309 10.6029 18.356 11.0519 18.356 11.5119C18.356 15.2929 15.292 18.3569 11.511 18.3569C9.636 18.3569 7.939 17.6019 6.703 16.3809" stroke="black" stroke-width="1.5" stroke-linecap="round" stroke-linejoin="round"/>
<path d="M16.38 6.70299C15.139 5.44599 13.417 4.66699 11.511 4.66699C7.72998 4.66699 4.66599 7.73099 4.66599 11.512C4.66599 12.006 4.72099 12.487 4.81999 12.951" stroke="black" stroke-width="1.5" stroke-linecap="round" stroke-linejoin="round"/>
<path d="M16.334 12.1892L18.292 10.0942L20.25 12.1892" stroke="black" stroke-width="1.5" stroke-linecap="round" stroke-linejoin="round"/>
<path d="M4.72999 13.0502L2.76999 10.9502" stroke="black" stroke-width="1.5" stroke-linecap="round" stroke-linejoin="round"/>
<path d="M19.33 19.3301L16.35 16.3501" stroke="black" stroke-width="1.5" stroke-linecap="round" stroke-linejoin="round"/>
<path d="M6.69001 10.9502L4.73001 13.0502" stroke="black" stroke-width="1.5" stroke-linecap="round" stroke-linejoin="round"/>
</svg>
