<svg width="24" height="24" viewBox="0 0 24 24" fill="none" xmlns="http://www.w3.org/2000/svg">
<path d="M15.5015 14.0011L13.4876 11.9873" stroke="black" stroke-width="1.5" stroke-linecap="round" stroke-linejoin="round"/>
<path d="M13.4836 8.68207C14.395 9.59345 14.395 11.0721 13.4836 11.9834C12.5722 12.8948 11.0936 12.8948 10.1822 11.9834C9.27087 11.0721 9.27087 9.59345 10.1822 8.68207C11.0946 7.77069 12.5722 7.77069 13.4836 8.68207" stroke="black" stroke-width="1.5" stroke-linecap="round" stroke-linejoin="round"/>
<path d="M8.99876 15.9978H12" stroke="black" stroke-width="1.5" stroke-linecap="round" stroke-linejoin="round"/>
<path fill-rule="evenodd" clip-rule="evenodd" d="M18.0025 21.0041H5.9975C4.33981 21.0041 2.99625 19.6605 2.99625 18.0028V5.99783C2.99625 4.34014 4.33981 2.99658 5.9975 2.99658H18.0025C19.6602 2.99658 21.0038 4.34014 21.0038 5.99783V18.0028C21.0038 19.6605 19.6602 21.0041 18.0025 21.0041Z" stroke="black" stroke-width="1.5" stroke-linecap="round" stroke-linejoin="round"/>
</svg>
