<svg width="24" height="24" viewBox="0 0 24 24" fill="none" xmlns="http://www.w3.org/2000/svg">
<path d="M14.0008 6.99826H17.0021" stroke="black" stroke-width="1.5" stroke-linecap="round" stroke-linejoin="round"/>
<path d="M16.0017 9.49923H14.0008" stroke="black" stroke-width="1.5" stroke-linecap="round" stroke-linejoin="round"/>
<path fill-rule="evenodd" clip-rule="evenodd" d="M17.0021 17.0025L14.7319 14.7324L17.0021 17.0025Z" stroke="black" stroke-width="1.5" stroke-linecap="round" stroke-linejoin="round"/>
<path fill-rule="evenodd" clip-rule="evenodd" d="M16.0017 21.0036H7.99833C5.23588 21.0033 2.99654 18.764 2.99625 16.0015V7.99818C2.99654 5.23573 5.23588 2.99639 7.99833 2.99609H16.0017C18.7641 2.99639 21.0034 5.23573 21.0037 7.99818V16.0015C21.0034 18.764 18.7641 21.0033 16.0017 21.0036Z" stroke="black" stroke-width="1.5" stroke-linecap="round" stroke-linejoin="round"/>
<path d="M16.0017 12.1875C15.6479 14.5762 13.4813 16.2665 11.0783 16.0287C8.67538 15.7908 6.88225 13.7085 7.00362 11.2969C7.12498 8.88521 9.11809 6.99348 11.5328 6.99806" stroke="black" stroke-width="1.5" stroke-linecap="round" stroke-linejoin="round"/>
</svg>
