<svg width="24" height="24" viewBox="0 0 24 24" fill="none" xmlns="http://www.w3.org/2000/svg">
<path d="M12 21.0038V19.0029V21.0038" stroke="black" stroke-width="1.5" stroke-linecap="round" stroke-linejoin="round"/>
<path d="M12 4.99693V2.99609V4.99693" stroke="black" stroke-width="1.5" stroke-linecap="round" stroke-linejoin="round"/>
<path fill-rule="evenodd" clip-rule="evenodd" d="M12.0192 15.9799C14.2292 15.9799 16.0209 14.1883 16.0209 11.9782C16.0209 9.76817 14.2292 7.97656 12.0192 7.97656C9.80913 7.97656 8.01752 9.76817 8.01752 11.9782C8.01752 14.1883 9.80913 15.9799 12.0192 15.9799Z" stroke="black" stroke-width="1.5" stroke-linecap="round" stroke-linejoin="round"/>
<path d="M18.3667 18.3666L14.8282 14.8281L18.3667 18.3666" stroke="black" stroke-width="1.5" stroke-linecap="round" stroke-linejoin="round"/>
<path d="M7.04794 7.04838L5.63335 5.63379L7.04794 7.04838" stroke="black" stroke-width="1.5" stroke-linecap="round" stroke-linejoin="round"/>
<path d="M21.0038 12.0002H19.0029H21.0038" stroke="black" stroke-width="1.5" stroke-linecap="round" stroke-linejoin="round"/>
<path d="M4.99708 12.0002H2.99625H4.99708" stroke="black" stroke-width="1.5" stroke-linecap="round" stroke-linejoin="round"/>
<path d="M18.3667 5.63379L16.9521 7.04838L18.3667 5.63379" stroke="black" stroke-width="1.5" stroke-linecap="round" stroke-linejoin="round"/>
<path d="M7.04794 16.9521L5.63335 18.3667L7.04794 16.9521" stroke="black" stroke-width="1.5" stroke-linecap="round" stroke-linejoin="round"/>
</svg>
