<svg width="24" height="24" viewBox="0 0 24 24" fill="none" xmlns="http://www.w3.org/2000/svg">
<path d="M14 8.97411C15.388 10.3621 15.388 12.6121 14 14.0001C12.612 15.3881 10.362 15.3881 8.974 14.0001C7.586 12.6121 7.586 10.3621 8.974 8.97411C10.362 7.58611 12.612 7.58611 14 8.97411" stroke="black" stroke-width="1.5" stroke-linecap="round" stroke-linejoin="round"/>
<path d="M20.424 4.80322V7.69622H17.531H20.424" stroke="black" stroke-width="1.5" stroke-linecap="round" stroke-linejoin="round"/>
<path d="M21 12C21 16.97 16.971 21 12 21C7.03 21 3 16.971 3 12C3 7.03 7.029 3 12 3C15.412 3 18.379 4.899 19.905 7.696" stroke="black" stroke-width="1.5" stroke-linecap="round" stroke-linejoin="round"/>
<path fill-rule="evenodd" clip-rule="evenodd" d="M16 16L14 14L16 16Z" stroke="black" stroke-width="1.5" stroke-linecap="round" stroke-linejoin="round"/>
</svg>
