<svg width="24" height="24" viewBox="0 0 24 24" fill="none" xmlns="http://www.w3.org/2000/svg">
<path d="M2.99625 16.002V18.0028C2.99625 19.6603 4.33995 21.004 5.9975 21.004H7.99833" stroke="black" stroke-width="1.5" stroke-linecap="round" stroke-linejoin="round"/>
<path d="M16.0016 2.99609H18.0025C19.66 2.99609 21.0037 4.3398 21.0037 5.99734V7.99818" stroke="black" stroke-width="1.5" stroke-linecap="round" stroke-linejoin="round"/>
<path d="M16.0016 21.004H18.0025C19.66 21.004 21.0037 19.6603 21.0037 18.0028V16.002" stroke="black" stroke-width="1.5" stroke-linecap="round" stroke-linejoin="round"/>
<path d="M2.99625 7.99818V5.99734C2.99625 4.3398 4.33995 2.99609 5.9975 2.99609H7.99833" stroke="black" stroke-width="1.5" stroke-linecap="round" stroke-linejoin="round"/>
<path fill-rule="evenodd" clip-rule="evenodd" d="M16.9686 16.9691L14.6831 14.6836L16.9686 16.9691Z" stroke="black" stroke-width="1.5" stroke-linecap="round" stroke-linejoin="round"/>
<path d="M11.4998 6.99805C13.9861 6.99805 16.0017 9.0136 16.0017 11.4999C16.0017 13.9862 13.9861 16.0018 11.4998 16.0018C9.01348 16.0018 6.99792 13.9862 6.99792 11.4999V11.4999C6.99792 9.0136 9.01348 6.99805 11.4998 6.99805" stroke="black" stroke-width="1.5" stroke-linecap="round" stroke-linejoin="round"/>
</svg>
