<svg width="24" height="24" viewBox="0 0 24 24" fill="none" xmlns="http://www.w3.org/2000/svg">
<path fill-rule="evenodd" clip-rule="evenodd" d="M19.3303 3.01726L19.5 3.18957L19.6754 3.00416C19.9731 2.68656 20.3877 2.50445 20.823 2.50008C21.2583 2.49571 21.6764 2.66946 21.9804 2.98102L22.0161 3.01723C22.6613 3.68031 22.6613 4.73661 22.0161 5.39969L20.2618 7.18096C20.0609 7.38508 19.7864 7.50003 19.5 7.50003C19.2136 7.50003 18.9392 7.38508 18.7382 7.18096L16.984 5.39973C16.3387 4.73664 16.3387 3.68035 16.984 3.01726V3.01726C17.2934 2.70292 17.7161 2.5259 18.1572 2.5259C18.5982 2.5259 19.0209 2.70292 19.3303 3.01726Z" stroke="black" stroke-width="1.5" stroke-linecap="round" stroke-linejoin="round"/>
<path d="M13.8947 3.21218C9.97301 2.36015 5.96 4.20152 4.04837 7.73021C2.13673 11.2589 2.78626 15.6262 5.64207 18.4458C8.49787 21.2654 12.8731 21.8593 16.3771 19.9028C19.8811 17.9464 21.6712 13.9102 20.7693 9.99968" stroke="black" stroke-width="1.5" stroke-linecap="round" stroke-linejoin="round"/>
<circle cx="11.5" cy="11.5" r="3.5" stroke="black" stroke-width="1.5" stroke-linecap="round" stroke-linejoin="round"/>
<path d="M16 15.9997L13.9749 13.9746" stroke="black" stroke-width="1.5" stroke-linecap="round" stroke-linejoin="round"/>
</svg>
