<svg width="24" height="24" viewBox="0 0 24 24" fill="none" xmlns="http://www.w3.org/2000/svg">
<path d="M9.99916 4.08496C6.28169 4.65129 3.661 8.0327 4.04001 11.7739C4.41902 15.5151 7.66462 18.3022 11.4201 18.1115C15.1756 17.9208 18.1222 14.8191 18.1202 11.0588" stroke="black" stroke-width="1.5" stroke-linecap="round" stroke-linejoin="round"/>
<path fill-rule="evenodd" clip-rule="evenodd" d="M15.4196 4.53029L15.6019 4.71543L15.8001 4.51767C16.1365 4.18317 16.5922 3.99633 17.0665 3.99839C17.5409 4.00046 17.995 4.19126 18.3284 4.52867V4.52867C19.0276 5.24705 19.0276 6.39159 18.3284 7.10997L16.6561 8.80779C16.378 9.09022 15.9982 9.24925 15.6019 9.24925C15.2055 9.24925 14.8257 9.09022 14.5477 8.80779L12.874 7.10877C12.1755 6.39111 12.1755 5.2477 12.874 4.53004V4.53004C13.2098 4.18903 13.6683 3.99707 14.1469 3.99707C14.6254 3.99707 15.0839 4.18922 15.4196 4.53029V4.53029Z" stroke="black" stroke-width="1.5" stroke-linecap="round" stroke-linejoin="round"/>
<path d="M20.0033 20.0035L16.0516 16.0518" stroke="black" stroke-width="1.5" stroke-linecap="round" stroke-linejoin="round"/>
</svg>
