<svg width="24" height="24" viewBox="0 0 24 24" fill="none" xmlns="http://www.w3.org/2000/svg">
<path d="M14.0001 8.97405C15.388 10.362 15.388 12.6122 14.0001 14.0002C12.6122 15.3881 10.3619 15.3881 8.97399 14.0002C7.58607 12.6122 7.58607 10.362 8.97399 8.97405C10.3619 7.58613 12.6122 7.58613 14.0001 8.97405" stroke="black" stroke-width="1.5" stroke-linecap="round" stroke-linejoin="round"/>
<path fill-rule="evenodd" clip-rule="evenodd" d="M16 16L14 14L16 16Z" stroke="black" stroke-width="1.5" stroke-linecap="round" stroke-linejoin="round"/>
<path d="M18.2855 5.71437C21.7569 9.18574 21.7569 14.8139 18.2855 18.2853C14.8141 21.7566 9.18593 21.7566 5.7146 18.2853C2.24323 14.8139 2.24323 9.1857 5.7146 5.71437C9.18597 2.243 14.8142 2.243 18.2855 5.71437" stroke="black" stroke-width="1.5" stroke-linecap="round" stroke-linejoin="round"/>
</svg>
