<svg width="24" height="24" viewBox="0 0 24 24" fill="none" xmlns="http://www.w3.org/2000/svg">
<path d="M5.15715 6.15735C5.61914 5.61755 6.14371 5.13462 6.7198 4.71875" stroke="black" stroke-width="1.5" stroke-linecap="round" stroke-linejoin="round"/>
<path d="M14.0008 8.97882C15.0177 9.99567 15.322 11.525 14.7716 12.8536C14.2213 14.1822 12.9249 15.0485 11.4868 15.0485C10.0487 15.0485 8.75225 14.1822 8.20194 12.8536C7.65163 11.525 7.95585 9.99567 8.97274 8.97882C10.3612 7.59039 12.6123 7.59039 14.0008 8.97882" stroke="black" stroke-width="1.5" stroke-linecap="round" stroke-linejoin="round"/>
<path fill-rule="evenodd" clip-rule="evenodd" d="M16.0017 16.0077L14.0008 14.0068L16.0017 16.0077Z" stroke="black" stroke-width="1.5" stroke-linecap="round" stroke-linejoin="round"/>
<path d="M17.0021 19.4854C14.7588 20.9857 11.9606 21.3999 9.37891 20.6138" stroke="black" stroke-width="1.5" stroke-linecap="round" stroke-linejoin="round"/>
<path d="M3.51947 8.99902C3.17501 9.96224 2.99805 10.9773 2.99625 12.0003" stroke="black" stroke-width="1.5" stroke-linecap="round" stroke-linejoin="round"/>
<path d="M9.37891 3.38691C13.0198 2.26849 16.9703 3.56701 19.2376 6.62745C21.505 9.68788 21.5965 13.8453 19.4661 17.0026" stroke="black" stroke-width="1.5" stroke-linecap="round" stroke-linejoin="round"/>
<path d="M6.7198 19.2818C5.24613 18.2103 4.13117 16.718 3.52147 15.001" stroke="black" stroke-width="1.5" stroke-linecap="round" stroke-linejoin="round"/>
</svg>
