<svg width="24" height="24" viewBox="0 0 24 24" fill="none" xmlns="http://www.w3.org/2000/svg">
<path fill-rule="evenodd" clip-rule="evenodd" d="M11.467 18.934V18.934C7.343 18.934 4 15.591 4 11.467V11.467C4 7.343 7.343 4 11.467 4V4C15.591 4 18.934 7.343 18.934 11.467V11.467C18.934 15.591 15.591 18.934 11.467 18.934Z" stroke="black" stroke-width="1.5" stroke-linecap="round" stroke-linejoin="round"/>
<path d="M11.467 12.5042V12.2972C11.467 11.6192 11.886 11.2522 12.306 10.9702C12.716 10.6942 13.127 10.3342 13.127 9.67023C13.127 8.75323 12.384 8.01123 11.468 8.01123C10.552 8.01123 9.80801 8.75223 9.80801 9.66923" stroke="black" stroke-width="1.5" stroke-linecap="round" stroke-linejoin="round"/>
<path d="M11.466 14.8432C11.383 14.8432 11.316 14.9102 11.317 14.9932C11.317 15.0762 11.384 15.1432 11.467 15.1432C11.55 15.1432 11.617 15.0762 11.617 14.9932C11.617 14.9102 11.55 14.8432 11.466 14.8432" stroke="black" stroke-width="1.5" stroke-linecap="round" stroke-linejoin="round"/>
<path d="M20 20L16.75 16.75" stroke="black" stroke-width="1.5" stroke-linecap="round" stroke-linejoin="round"/>
</svg>
