<svg width="24" height="24" viewBox="0 0 24 24" fill="none" xmlns="http://www.w3.org/2000/svg">
<path fill-rule="evenodd" clip-rule="evenodd" d="M18.934 11.467V11.467C18.934 15.591 15.591 18.934 11.467 18.934V18.934C7.343 18.934 4 15.591 4 11.467V11.467C4 7.343 7.343 4 11.467 4V4C15.591 4 18.934 7.343 18.934 11.467Z" stroke="black" stroke-width="1.5" stroke-linecap="round" stroke-linejoin="round"/>
<path d="M11.467 7.4668V8.8028" stroke="black" stroke-width="1.5" stroke-linecap="round" stroke-linejoin="round"/>
<path d="M11.467 14.1309V15.4669" stroke="black" stroke-width="1.5" stroke-linecap="round" stroke-linejoin="round"/>
<path d="M9.57899 13.3551L8.63499 14.2991" stroke="black" stroke-width="1.5" stroke-linecap="round" stroke-linejoin="round"/>
<path d="M14.299 8.63493L13.355 9.57893" stroke="black" stroke-width="1.5" stroke-linecap="round" stroke-linejoin="round"/>
<path d="M8.80301 11.4668H7.46701" stroke="black" stroke-width="1.5" stroke-linecap="round" stroke-linejoin="round"/>
<path d="M15.467 11.4668H14.131" stroke="black" stroke-width="1.5" stroke-linecap="round" stroke-linejoin="round"/>
<path d="M8.63499 8.63493L9.57899 9.57893" stroke="black" stroke-width="1.5" stroke-linecap="round" stroke-linejoin="round"/>
<path d="M13.355 13.3551L14.299 14.2991" stroke="black" stroke-width="1.5" stroke-linecap="round" stroke-linejoin="round"/>
<path d="M13.352 9.58179C14.393 10.6228 14.393 12.3118 13.352 13.3528C12.311 14.3938 10.622 14.3938 9.58101 13.3528C8.54001 12.3118 8.54001 10.6228 9.58101 9.58179C10.623 8.53979 12.311 8.53979 13.352 9.58179" stroke="black" stroke-width="1.5" stroke-linecap="round" stroke-linejoin="round"/>
<path d="M20 20L16.75 16.75" stroke="black" stroke-width="1.5" stroke-linecap="round" stroke-linejoin="round"/>
</svg>
