<svg width="24" height="24" viewBox="0 0 24 24" fill="none" xmlns="http://www.w3.org/2000/svg">
<path d="M18.934 11.467C18.934 15.59 15.59 18.934 11.467 18.934C7.344 18.934 4 15.59 4 11.467C4 7.344 7.344 4 11.467 4C15.59 4 18.934 7.344 18.934 11.467" stroke="black" stroke-width="1.5" stroke-linecap="round" stroke-linejoin="round"/>
<path d="M20 20L16.75 16.75" stroke="black" stroke-width="1.5" stroke-linecap="round" stroke-linejoin="round"/>
<path d="M11.467 15.425C11.427 15.425 11.392 15.459 11.392 15.5C11.392 15.54 11.426 15.575 11.467 15.575C11.507 15.575 11.542 15.541 11.542 15.5C11.542 15.459 11.507 15.425 11.467 15.425V15.425" stroke="black" stroke-width="1.5" stroke-linecap="round" stroke-linejoin="round"/>
<path d="M11.467 12.3999C12.756 12.3999 13.801 11.3549 13.801 10.0659C13.801 8.77693 12.757 7.73193 11.467 7.73193C10.21 7.73193 9.19301 8.72693 9.14301 9.97193" stroke="black" stroke-width="1.5" stroke-linecap="round" stroke-linejoin="round"/>
</svg>
