<svg width="24" height="24" viewBox="0 0 24 24" fill="none" xmlns="http://www.w3.org/2000/svg">
<path d="M13.4142 10.5858C14.1953 11.3668 14.1953 12.6332 13.4142 13.4142C12.6332 14.1953 11.3668 14.1953 10.5858 13.4142C9.80472 12.6332 9.80472 11.3668 10.5858 10.5858C11.3668 9.80474 12.6332 9.80474 13.4142 10.5858" stroke="black" stroke-width="1.5" stroke-linecap="round" stroke-linejoin="round"/>
<path d="M18.364 5.63576C14.849 2.12076 9.151 2.12076 5.636 5.63576C2.121 9.15076 2.121 14.8488 5.636 18.3638C9.151 21.8788 14.849 21.8788 18.364 18.3638C20.121 16.6068 20.98 14.3028 20.978 11.9998" stroke="black" stroke-width="1.5" stroke-linecap="round" stroke-linejoin="round"/>
<path d="M18.36 5.63965L13.41 10.5896" stroke="black" stroke-width="1.5" stroke-linecap="round" stroke-linejoin="round"/>
<path d="M15.889 8.111C14.894 7.116 13.519 6.5 12 6.5C8.962 6.5 6.5 8.962 6.5 12C6.5 15.038 8.962 17.5 12 17.5C15.038 17.5 17.5 15.038 17.5 12" stroke="black" stroke-width="1.5" stroke-linecap="round" stroke-linejoin="round"/>
</svg>
