<svg width="24" height="24" viewBox="0 0 24 24" fill="none" xmlns="http://www.w3.org/2000/svg">
<path d="M19.9497 4.05025C22.6834 6.78392 22.6834 11.2161 19.9497 13.9497C17.216 16.6834 12.7839 16.6834 10.0502 13.9497C7.31654 11.2161 7.31654 6.78392 10.0502 4.05025C12.7839 1.31658 17.216 1.31658 19.9497 4.05025" stroke="black" stroke-width="1.5" stroke-linecap="round" stroke-linejoin="round"/>
<path d="M15 16.583V19.719C15 20.979 13.979 22 12.719 22H4.281C3.021 22 2 20.979 2 19.719V11.28C2 10.021 3.021 9 4.281 9H7.417" stroke="black" stroke-width="1.5" stroke-linecap="round" stroke-linejoin="round"/>
<path d="M11.421 7H15.26C16.221 7 17 7.779 17 8.739V12.578" stroke="black" stroke-width="1.5" stroke-linecap="round" stroke-linejoin="round"/>
</svg>
