<svg width="24" height="24" viewBox="0 0 24 24" fill="none" xmlns="http://www.w3.org/2000/svg">
<path d="M16.3018 16.3016L14.3009 14.3008" stroke="black" stroke-width="1.5" stroke-linecap="round" stroke-linejoin="round"/>
<path fill-rule="evenodd" clip-rule="evenodd" d="M12 2.99609V2.99609C17.0021 2.99609 21.0037 6.99776 21.0037 11.9998V11.9998C21.0037 17.0019 17.0021 21.0036 12 21.0036V21.0036C6.99791 21.0036 2.99625 17.0019 2.99625 11.9998V11.9998C2.99625 6.99776 6.99791 2.99609 12 2.99609Z" stroke="black" stroke-width="1.5" stroke-linecap="round" stroke-linejoin="round"/>
<path d="M5.09712 17.802L17.8024 5.09668" stroke="black" stroke-width="1.5" stroke-linecap="round" stroke-linejoin="round"/>
<path d="M8.69862 14.2005C10.1992 15.8012 12.7003 15.8012 14.2009 14.3006C15.7015 12.8 15.8016 10.2989 14.301 8.79828L14.2009 8.69824" stroke="black" stroke-width="1.5" stroke-linecap="round" stroke-linejoin="round"/>
<path d="M7.59816 11.3992C7.59816 10.3988 7.99833 9.39841 8.69862 8.69811V8.69811C9.39891 7.99782 10.3993 7.59766 11.3997 7.59766" stroke="black" stroke-width="1.5" stroke-linecap="round" stroke-linejoin="round"/>
</svg>
