<svg width="24" height="24" viewBox="0 0 24 24" fill="none" xmlns="http://www.w3.org/2000/svg">
<path d="M7.99834 17.502L9.99917 19.5028L7.99834 21.5036" stroke="black" stroke-width="1.5" stroke-linecap="round" stroke-linejoin="round"/>
<path d="M9.99917 19.5031H3.99667" stroke="black" stroke-width="1.5" stroke-linecap="round" stroke-linejoin="round"/>
<path d="M14.0008 20.2743C17.7421 19.4225 20.5324 16.2934 20.9519 12.4794C21.3713 8.66547 19.3276 5.00473 15.8609 3.3603C12.3941 1.71587 8.26617 2.44908 5.57781 5.18678C2.88946 7.92448 2.23144 12.0651 3.93864 15.5013" stroke="black" stroke-width="1.5" stroke-linecap="round" stroke-linejoin="round"/>
<path d="M14.0368 8.38897C15.0537 9.40582 15.358 10.9351 14.8077 12.2637C14.2573 13.5923 12.9609 14.4586 11.5228 14.4586C10.0847 14.4586 8.78826 13.5923 8.23795 12.2637C7.68764 10.9351 7.99186 9.40582 9.00875 8.38897C10.3972 7.00055 12.6484 7.00055 14.0368 8.38897" stroke="black" stroke-width="1.5" stroke-linecap="round" stroke-linejoin="round"/>
<path fill-rule="evenodd" clip-rule="evenodd" d="M16.0377 15.4178L14.0368 13.417L16.0377 15.4178Z" stroke="black" stroke-width="1.5" stroke-linecap="round" stroke-linejoin="round"/>
</svg>
