<svg width="24" height="24" viewBox="0 0 24 24" fill="none" xmlns="http://www.w3.org/2000/svg">
<path d="M7.99834 17.002L5.4973 19.503L3.99667 18.0024" stroke="black" stroke-width="1.5" stroke-linecap="round" stroke-linejoin="round"/>
<path d="M3.05827 13.0003C3.01713 12.6684 2.99625 12.3343 2.99625 11.9998V11.9998C2.99625 7.02721 7.02736 2.99609 12 2.99609C16.9726 2.99609 21.0037 7.02721 21.0037 11.9998C21.0037 16.9725 16.9726 21.0036 12 21.0036C11.6656 21.0036 11.3315 20.9827 10.9996 20.9416" stroke="black" stroke-width="1.5" stroke-linecap="round" stroke-linejoin="round"/>
<path d="M14.0008 8.97308C15.0177 9.98991 15.3218 11.5192 14.7715 12.8477C14.2212 14.1763 12.9248 15.0425 11.4868 15.0425C10.0488 15.0425 8.75233 14.1763 8.20202 12.8477C7.65171 11.5192 7.95589 9.98991 8.97273 8.97308C9.63947 8.30626 10.5438 7.93164 11.4868 7.93164C12.4297 7.93164 13.3341 8.30626 14.0008 8.97308" stroke="black" stroke-width="1.5" stroke-linecap="round" stroke-linejoin="round"/>
<path fill-rule="evenodd" clip-rule="evenodd" d="M16.0017 16.0018L14.0008 14.001L16.0017 16.0018Z" stroke="black" stroke-width="1.5" stroke-linecap="round" stroke-linejoin="round"/>
</svg>
