<svg width="24" height="24" viewBox="0 0 24 24" fill="none" xmlns="http://www.w3.org/2000/svg">
<path d="M13.883 6.29395L11.53 8.64695L10.117 7.23595" stroke="black" stroke-width="1.5" stroke-linecap="round" stroke-linejoin="round"/>
<path fill-rule="evenodd" clip-rule="evenodd" d="M16.235 7.235C16.235 9.574 14.339 11.471 12 11.471C9.66 11.471 7.764 9.574 7.764 7.235C7.764 4.896 9.661 3 12 3C14.339 3 16.235 4.896 16.235 7.235V7.235V7.235Z" stroke="black" stroke-width="1.5" stroke-linecap="round" stroke-linejoin="round"/>
<path d="M18.678 15.5879L16.325 17.9409" stroke="black" stroke-width="1.5" stroke-linecap="round" stroke-linejoin="round"/>
<path d="M16.325 15.5879L18.678 17.9409" stroke="black" stroke-width="1.5" stroke-linecap="round" stroke-linejoin="round"/>
<path fill-rule="evenodd" clip-rule="evenodd" d="M17.502 12.5288C15.162 12.5288 13.266 14.4248 13.266 16.7638C13.266 19.1028 15.162 20.9998 17.502 20.9998C19.841 20.9998 21.737 19.1028 21.737 16.7638C21.737 14.4248 19.841 12.5288 17.502 12.5288Z" stroke="black" stroke-width="1.5" stroke-linecap="round" stroke-linejoin="round"/>
<path fill-rule="evenodd" clip-rule="evenodd" d="M6.498 12.5298C4.159 12.5298 2.263 14.4258 2.263 16.7648C2.263 19.1028 4.159 20.9998 6.498 20.9998C8.837 20.9998 10.733 19.1038 10.733 16.7648C10.734 14.4248 8.838 12.5298 6.498 12.5298V12.5298Z" stroke="black" stroke-width="1.5" stroke-linecap="round" stroke-linejoin="round"/>
<path d="M6.496 16.2642C6.22 16.2662 5.998 16.4902 5.998 16.7662C5.998 17.0422 6.222 17.2662 6.498 17.2642C6.774 17.2642 6.998 17.0402 6.998 16.7642C6.998 16.4882 6.774 16.2642 6.496 16.2642" stroke="black" stroke-width="1.5" stroke-linecap="round" stroke-linejoin="round"/>
</svg>
