<svg width="24" height="24" viewBox="0 0 24 24" fill="none" xmlns="http://www.w3.org/2000/svg">
<path d="M21.0037 13.7007C17.5023 13.2005 14.301 15.6015 13.7007 19.0029C13.6007 19.3031 13.6007 19.7032 13.6007 20.0033C13.6007 20.3035 13.6007 20.6036 13.7007 20.9037" stroke="black" stroke-width="1.5" stroke-linecap="round" stroke-linejoin="round"/>
<path fill-rule="evenodd" clip-rule="evenodd" d="M12.6002 8.99902H17.4022C19.4031 8.99902 21.0037 10.5997 21.0037 12.6005V17.4025C21.0037 19.4034 19.4031 21.004 17.4022 21.004H12.6002C10.5994 21.004 8.99875 19.4034 8.99875 17.4025V12.6005C8.99875 10.5997 10.5994 8.99902 12.6002 8.99902Z" stroke="black" stroke-width="1.5" stroke-linecap="round" stroke-linejoin="round"/>
<path d="M12.8003 12.7C12.7003 12.7 12.7003 12.8 12.7003 12.8C12.7003 12.9001 12.8003 12.9001 12.8003 12.9001C12.9004 12.9001 12.9004 12.8 12.9004 12.8C13.0004 12.8 12.9004 12.7 12.8003 12.7V12.7" stroke="black" stroke-width="1.5" stroke-linecap="round" stroke-linejoin="round"/>
<path d="M2.99624 5.99707V15.0008" stroke="black" stroke-width="1.5" stroke-linecap="round" stroke-linejoin="round"/>
<path d="M18.0025 5.99707V9.09836" stroke="black" stroke-width="1.5" stroke-linecap="round" stroke-linejoin="round"/>
<path d="M5.9975 18.0022H8.99875" stroke="black" stroke-width="1.5" stroke-linecap="round" stroke-linejoin="round"/>
<path d="M5.9975 2.9963H15.0012" stroke="black" stroke-width="1.5" stroke-linecap="round" stroke-linejoin="round"/>
</svg>
