<svg width="24" height="24" viewBox="0 0 24 24" fill="none" xmlns="http://www.w3.org/2000/svg">
<path d="M7.49812 2.99658H5.24718C4.00367 2.99658 2.99625 4.004 2.99625 5.24752V7.49846" stroke="black" stroke-width="1.5" stroke-linecap="round" stroke-linejoin="round"/>
<path d="M2.99625 16.5024V18.7534C2.99625 19.9969 4.00367 21.0043 5.24718 21.0043H7.49812" stroke="black" stroke-width="1.5" stroke-linecap="round" stroke-linejoin="round"/>
<path d="M21.0037 7.49846V5.24752C21.0037 4.004 19.9963 2.99658 18.7528 2.99658H16.5019" stroke="black" stroke-width="1.5" stroke-linecap="round" stroke-linejoin="round"/>
<path d="M15.5015 14.5015L18.5027 17.5027" stroke="black" stroke-width="1.5" stroke-linecap="round" stroke-linejoin="round"/>
<path d="M15.5015 17.5027L18.5027 14.5015" stroke="black" stroke-width="1.5" stroke-linecap="round" stroke-linejoin="round"/>
<path d="M12 16.0021C12 13.2399 14.2399 11 17.0021 11C19.7642 11 22.0042 13.2399 22.0042 16.0021C22.0042 18.7642 19.7642 21.0042 17.0021 21.0042C14.2399 21.0042 12 18.7642 12 16.0021" stroke="black" stroke-width="1.5" stroke-linecap="round" stroke-linejoin="round"/>
</svg>
