<svg width="24" height="24" viewBox="0 0 24 24" fill="none" xmlns="http://www.w3.org/2000/svg">
<path d="M2.99625 5.99805V15.0018" stroke="black" stroke-width="1.5" stroke-linecap="round" stroke-linejoin="round"/>
<path d="M18.0025 5.99805V8.9993" stroke="black" stroke-width="1.5" stroke-linecap="round" stroke-linejoin="round"/>
<path d="M5.9975 18.0022H8.99875" stroke="black" stroke-width="1.5" stroke-linecap="round" stroke-linejoin="round"/>
<path d="M5.9975 2.9963H15.0012" stroke="black" stroke-width="1.5" stroke-linecap="round" stroke-linejoin="round"/>
<path fill-rule="evenodd" clip-rule="evenodd" d="M19.289 21.004H10.7135C9.76691 21.0029 8.99985 20.2359 8.99875 19.2893V10.7147C8.99875 9.76757 9.76629 8.99958 10.7135 8.99902H19.289C20.2362 8.99958 21.0037 9.76757 21.0037 10.7147V19.2893C21.0026 20.2359 20.2356 21.0029 19.289 21.004V21.004Z" stroke="black" stroke-width="1.5" stroke-linecap="round" stroke-linejoin="round"/>
<rect x="12.5002" y="14.501" width="5.00208" height="3.50146" rx="1" stroke="black" stroke-width="1.5" stroke-linecap="round" stroke-linejoin="round"/>
<path d="M13.5006 14.501V13.5006C13.5006 12.6719 14.1725 12 15.0013 12V12C15.83 12 16.5019 12.6719 16.5019 13.5006V13.5006V14.501" stroke="black" stroke-width="1.5" stroke-linecap="round" stroke-linejoin="round"/>
</svg>
