<svg width="24" height="24" viewBox="0 0 24 24" fill="none" xmlns="http://www.w3.org/2000/svg">
<path d="M14.0008 16.0022H18.0025" stroke="black" stroke-width="1.5" stroke-linecap="round" stroke-linejoin="round"/>
<path d="M16.0017 18.0026V14.001" stroke="black" stroke-width="1.5" stroke-linecap="round" stroke-linejoin="round"/>
<path d="M16.0017 21.0042C13.2395 21.0042 10.9996 18.7642 10.9996 16.0021C10.9996 13.2399 13.2395 11 16.0017 11C18.7638 11 21.0037 13.2399 21.0037 16.0021C21.0037 18.7642 18.7638 21.0042 16.0017 21.0042" stroke="black" stroke-width="1.5" stroke-linecap="round" stroke-linejoin="round"/>
<path d="M7.49812 2.99658H5.24718C4.00367 2.99658 2.99625 4.004 2.99625 5.24752V7.49846" stroke="black" stroke-width="1.5" stroke-linecap="round" stroke-linejoin="round"/>
<path d="M2.99625 16.5024V18.7534C2.99625 19.9969 4.00367 21.0043 5.24718 21.0043H7.49812" stroke="black" stroke-width="1.5" stroke-linecap="round" stroke-linejoin="round"/>
<path d="M21.0037 7.49846V5.24752C21.0037 4.004 19.9963 2.99658 18.7528 2.99658H16.5019" stroke="black" stroke-width="1.5" stroke-linecap="round" stroke-linejoin="round"/>
</svg>
