<svg width="24" height="24" viewBox="0 0 24 24" fill="none" xmlns="http://www.w3.org/2000/svg">
<path d="M6.99792 21.0036V21.0036C4.78786 21.0036 2.99625 19.212 2.99625 17.002V17.002" stroke="black" stroke-width="1.5" stroke-linecap="round" stroke-linejoin="round"/>
<path d="M9.99916 2.9963H14.0008" stroke="black" stroke-width="1.5" stroke-linecap="round" stroke-linejoin="round"/>
<path d="M2.99625 9.99902V14.0007" stroke="black" stroke-width="1.5" stroke-linecap="round" stroke-linejoin="round"/>
<path d="M21.0037 15.5013C21.0037 18.5401 18.5403 21.0036 15.5015 21.0036C12.4626 21.0036 9.99916 18.5401 9.99916 15.5013C9.99916 12.4625 12.4626 9.99902 15.5015 9.99902C18.5403 9.99902 21.0037 12.4625 21.0037 15.5013" stroke="black" stroke-width="1.5" stroke-linecap="round" stroke-linejoin="round"/>
<path d="M15.5015 15.4512C15.4738 15.4512 15.4514 15.4736 15.4514 15.5012C15.4514 15.5288 15.4738 15.5512 15.5015 15.5512C15.5291 15.5512 15.5515 15.5288 15.5515 15.5012C15.5515 15.4736 15.5291 15.4512 15.5015 15.4512" stroke="black" stroke-width="1.5" stroke-linecap="round" stroke-linejoin="round"/>
<path d="M17.9475 15.4512C17.9198 15.4512 17.8975 15.4736 17.8975 15.5012C17.8975 15.5288 17.9198 15.5512 17.9475 15.5512C17.9751 15.5512 17.9975 15.5288 17.9975 15.5012C17.9975 15.4736 17.9751 15.4512 17.9475 15.4512" stroke="black" stroke-width="1.5" stroke-linecap="round" stroke-linejoin="round"/>
<path d="M13.0564 15.4512C13.0288 15.4512 13.0064 15.4736 13.0064 15.5012C13.0064 15.5288 13.0288 15.5512 13.0564 15.5512C13.0841 15.5512 13.1065 15.5288 13.1065 15.5012C13.1065 15.4736 13.0841 15.4512 13.0564 15.4512" stroke="black" stroke-width="1.5" stroke-linecap="round" stroke-linejoin="round"/>
<path d="M6.99792 21.0036C4.78786 21.0036 2.99625 19.212 2.99625 17.002" stroke="black" stroke-width="1.5" stroke-linecap="round" stroke-linejoin="round"/>
<path d="M17.0021 2.99609C19.2121 2.99609 21.0038 4.7877 21.0038 6.99776" stroke="black" stroke-width="1.5" stroke-linecap="round" stroke-linejoin="round"/>
<path d="M2.99625 6.99776C2.99625 4.7877 4.78786 2.99609 6.99792 2.99609" stroke="black" stroke-width="1.5" stroke-linecap="round" stroke-linejoin="round"/>
</svg>
