<svg width="24" height="24" viewBox="0 0 24 24" fill="none" xmlns="http://www.w3.org/2000/svg">
<path d="M21.0038 14.001V17.0022C21.0038 19.2123 19.2121 21.0039 17.0021 21.0039H15.0013" stroke="black" stroke-width="1.5" stroke-linecap="round" stroke-linejoin="round"/>
<path fill-rule="evenodd" clip-rule="evenodd" d="M6.99792 13.0005C9.20798 13.0005 10.9996 14.7921 10.9996 17.0022C10.9996 19.2122 9.20798 21.0038 6.99792 21.0038C4.78786 21.0038 2.99625 19.2122 2.99625 17.0022C2.99625 14.7921 4.78786 13.0005 6.99792 13.0005Z" stroke="black" stroke-width="1.5" stroke-linecap="round" stroke-linejoin="round"/>
<path d="M8.35548 16.0728L6.30863 18.1176L5.31421 17.1272" stroke="black" stroke-width="1.5" stroke-linecap="round" stroke-linejoin="round"/>
<path d="M21.0037 9.9995V6.99825C21.0037 4.78819 19.2121 2.99658 17.0021 2.99658H14.0008" stroke="black" stroke-width="1.5" stroke-linecap="round" stroke-linejoin="round"/>
<path d="M2.99625 9.9995V6.99825C2.99625 4.78819 4.78786 2.99658 6.99792 2.99658H9.99917" stroke="black" stroke-width="1.5" stroke-linecap="round" stroke-linejoin="round"/>
</svg>
