<svg width="24" height="24" viewBox="0 0 24 24" fill="none" xmlns="http://www.w3.org/2000/svg">
<path d="M7.49812 2.99609H5.24719C4.00403 2.99609 2.99625 4.00387 2.99625 5.24703V7.49797" stroke="black" stroke-width="1.5" stroke-linecap="round" stroke-linejoin="round"/>
<path d="M16.5019 12C18.9882 12 21.0037 14.0156 21.0037 16.5019C21.0037 18.9882 18.9882 21.0037 16.5019 21.0037C14.0156 21.0037 12 18.9882 12 16.5019C12 14.0156 14.0156 12 16.5019 12" stroke="black" stroke-width="1.5" stroke-linecap="round" stroke-linejoin="round"/>
<path d="M17.7244 16.4521C17.6968 16.4521 17.6744 16.4745 17.6744 16.5022C17.6744 16.5298 17.6968 16.5522 17.7244 16.5522C17.752 16.5522 17.7744 16.5298 17.7744 16.5022C17.7744 16.4745 17.752 16.4521 17.7244 16.4521" stroke="black" stroke-width="1.5" stroke-linecap="round" stroke-linejoin="round"/>
<path d="M15.2784 16.4521C15.2652 16.4521 15.2526 16.4574 15.2433 16.4669C15.2341 16.4763 15.2291 16.489 15.2293 16.5022C15.2293 16.5298 15.2517 16.5522 15.2794 16.5522C15.307 16.5522 15.3294 16.5298 15.3294 16.5022C15.3294 16.4745 15.307 16.4521 15.2794 16.4521" stroke="black" stroke-width="1.5" stroke-linecap="round" stroke-linejoin="round"/>
<path d="M2.99625 16.502V18.7529C2.99625 19.996 4.00403 21.0038 5.24719 21.0038H7.49812" stroke="black" stroke-width="1.5" stroke-linecap="round" stroke-linejoin="round"/>
<path d="M21.0037 7.49797V5.24703C21.0037 4.00387 19.996 2.99609 18.7528 2.99609H16.5019" stroke="black" stroke-width="1.5" stroke-linecap="round" stroke-linejoin="round"/>
</svg>
