<svg width="24" height="24" viewBox="0 0 24 24" fill="none" xmlns="http://www.w3.org/2000/svg">
<path d="M2.99625 5.99734C2.99625 4.3398 4.33996 2.99609 5.9975 2.99609" stroke="black" stroke-width="1.5" stroke-linecap="round" stroke-linejoin="round"/>
<path d="M5.9975 21.0042C4.33996 21.0042 2.99625 19.6605 2.99625 18.0029" stroke="black" stroke-width="1.5" stroke-linecap="round" stroke-linejoin="round"/>
<path d="M21.0038 18.0029C21.0038 19.6605 19.66 21.0042 18.0025 21.0042" stroke="black" stroke-width="1.5" stroke-linecap="round" stroke-linejoin="round"/>
<path d="M18.0025 2.99609C19.66 2.99609 21.0038 4.3398 21.0038 5.99734" stroke="black" stroke-width="1.5" stroke-linecap="round" stroke-linejoin="round"/>
<path d="M7.99834 21.0041H5.99751" stroke="black" stroke-width="1.5" stroke-linecap="round" stroke-linejoin="round"/>
<path d="M5.99751 2.9963H7.99834" stroke="black" stroke-width="1.5" stroke-linecap="round" stroke-linejoin="round"/>
<path d="M2.99626 16.002V18.0028" stroke="black" stroke-width="1.5" stroke-linecap="round" stroke-linejoin="round"/>
<path d="M2.99626 5.99805V7.99888" stroke="black" stroke-width="1.5" stroke-linecap="round" stroke-linejoin="round"/>
<path d="M21.0037 7.99888V5.99805" stroke="black" stroke-width="1.5" stroke-linecap="round" stroke-linejoin="round"/>
<path d="M21.0037 16.002V18.0028" stroke="black" stroke-width="1.5" stroke-linecap="round" stroke-linejoin="round"/>
<path d="M16.0017 21.0041H18.0025" stroke="black" stroke-width="1.5" stroke-linecap="round" stroke-linejoin="round"/>
<path d="M18.0025 2.9963H16.0017" stroke="black" stroke-width="1.5" stroke-linecap="round" stroke-linejoin="round"/>
<path fill-rule="evenodd" clip-rule="evenodd" d="M8.10796 12.1879L10.3381 13.1255C10.5792 13.2268 10.771 13.4186 10.8724 13.6597L11.8118 15.8933C11.976 16.2833 12.3678 16.5278 12.7903 16.504C13.2128 16.4802 13.5747 16.1931 13.694 15.7871L15.4621 9.77984C15.5655 9.42862 15.4688 9.04894 15.2099 8.79003C14.951 8.53113 14.5713 8.4344 14.2201 8.53785L8.21395 10.3056C7.80792 10.4249 7.52088 10.7868 7.49708 11.2094C7.47329 11.6319 7.71789 12.0237 8.10796 12.1879Z" stroke="black" stroke-width="1.5" stroke-linecap="round" stroke-linejoin="round"/>
</svg>
