<svg width="24" height="24" viewBox="0 0 24 24" fill="none" xmlns="http://www.w3.org/2000/svg">
<path d="M2.99625 11.9998C2.99625 7.02721 7.02736 2.99609 12 2.99609C16.9726 2.99609 21.0037 7.02721 21.0037 11.9998C21.0037 16.9725 16.9726 21.0036 12 21.0036" stroke="black" stroke-width="1.5" stroke-linecap="round" stroke-linejoin="round"/>
<path fill-rule="evenodd" clip-rule="evenodd" d="M9.84409 15.4928L9.03175 12.8177L6.70478 12.0914C6.58459 12.0545 6.50111 11.9454 6.49704 11.8197C6.49297 11.6941 6.56922 11.5797 6.68678 11.5352L15.5415 8.11975C15.692 8.06251 15.8618 8.09148 15.9849 8.19543C16.108 8.29938 16.165 8.46192 16.1337 8.61996L14.6461 15.6309C14.6057 15.8231 14.4702 15.9815 14.2865 16.0511C14.1029 16.1208 13.8964 16.0921 13.7387 15.975L11.6258 14.4144L10.3803 15.6269C10.2996 15.7053 10.1841 15.7364 10.0749 15.7091C9.96571 15.6818 9.87841 15.6 9.84409 15.4928V15.4928Z" stroke="black" stroke-width="1.5" stroke-linecap="round" stroke-linejoin="round"/>
<path d="M3.99666 20.0032L6.99791 17.002" stroke="black" stroke-width="1.5" stroke-linecap="round" stroke-linejoin="round"/>
<path d="M7.99832 21.0043L8.99874 20.0039" stroke="black" stroke-width="1.5" stroke-linecap="round" stroke-linejoin="round"/>
<path d="M2.99625 16.0014L3.99666 15.001" stroke="black" stroke-width="1.5" stroke-linecap="round" stroke-linejoin="round"/>
</svg>
