<svg width="24" height="24" viewBox="0 0 24 24" fill="none" xmlns="http://www.w3.org/2000/svg">
<path fill-rule="evenodd" clip-rule="evenodd" d="M10.3993 12L11.2997 16.1017C11.3997 16.4018 11.5998 16.5019 11.8999 16.5019C12 16.5019 12.1 16.4018 12.2001 16.3018L16.4018 9.29887C16.5019 9.09879 16.5019 8.79866 16.2017 8.59858C16.1017 8.59858 16.0016 8.49854 15.9016 8.49854H7.99832C7.69819 8.49854 7.49811 8.69862 7.49811 8.99874C7.49811 9.09879 7.59815 9.29887 7.59815 9.29887L10.3993 12Z" stroke="black" stroke-width="1.5" stroke-linecap="round" stroke-linejoin="round"/>
<path fill-rule="evenodd" clip-rule="evenodd" d="M21.0037 7.99867V16.002C21.0037 18.8032 18.8028 21.0041 16.0017 21.0041H7.99833C5.19716 21.0041 2.99625 18.8032 2.99625 16.002V7.99867C2.99625 5.1975 5.19716 2.99658 7.99833 2.99658H16.0017C18.8028 2.99658 21.0037 5.1975 21.0037 7.99867Z" stroke="black" stroke-width="1.5" stroke-linecap="round" stroke-linejoin="round"/>
</svg>
