<svg width="24" height="24" viewBox="0 0 24 24" fill="none" xmlns="http://www.w3.org/2000/svg">
<path d="M5.7474 8.99923H3.49646" stroke="black" stroke-width="1.5" stroke-linecap="round" stroke-linejoin="round"/>
<path d="M5.7474 15.0012H3.49646" stroke="black" stroke-width="1.5" stroke-linecap="round" stroke-linejoin="round"/>
<path d="M5.74738 12.0002H1.99582" stroke="black" stroke-width="1.5" stroke-linecap="round" stroke-linejoin="round"/>
<path d="M5.63333 5.6335C8.20839 3.05844 12.0811 2.28812 15.4455 3.68173C18.81 5.07534 21.0037 8.35843 21.0037 12.0001C21.0037 15.6418 18.81 18.9249 15.4455 20.3185C12.0811 21.7121 8.20839 20.9418 5.63333 18.3667" stroke="black" stroke-width="1.5" stroke-linecap="round" stroke-linejoin="round"/>
<path fill-rule="evenodd" clip-rule="evenodd" d="M9.57761 9.38041L10.4917 11.6202C10.5905 11.8623 10.5905 12.1334 10.4917 12.3756L9.57651 14.619C9.41668 15.0108 9.5206 15.4607 9.83604 15.7427C10.1515 16.0247 10.6102 16.0778 10.9817 15.8753L16.4805 12.8777C16.802 12.7025 17.002 12.3656 17.002 11.9994C17.002 11.6332 16.802 11.2963 16.4805 11.121L10.9827 8.12403C10.6112 7.92148 10.1525 7.97457 9.83704 8.25661C9.5216 8.53865 9.41772 8.98864 9.57761 9.38041Z" stroke="black" stroke-width="1.5" stroke-linecap="round" stroke-linejoin="round"/>
</svg>
