<svg width="24" height="24" viewBox="0 0 24 24" fill="none" xmlns="http://www.w3.org/2000/svg">
<path fill-rule="evenodd" clip-rule="evenodd" d="M5 3H19C20.105 3 21 3.895 21 5V19C21 20.105 20.105 21 19 21H5C3.895 21 3 20.105 3 19V5C3 3.895 3.895 3 5 3Z" stroke="black" stroke-width="1.5" stroke-linecap="round" stroke-linejoin="round"/>
<path d="M10 7H7V10" stroke="black" stroke-width="1.5" stroke-linecap="round" stroke-linejoin="round"/>
<path d="M12 12L7 7" stroke="black" stroke-width="1.5" stroke-linecap="round" stroke-linejoin="round"/>
<path d="M13 7.10107C15.282 7.56407 17 9.58107 17 12.0001C17 14.7611 14.761 17.0001 12 17.0001C9.581 17.0001 7.564 15.2821 7.101 13.0001" stroke="black" stroke-width="1.5" stroke-linecap="round" stroke-linejoin="round"/>
</svg>
