<svg width="24" height="24" viewBox="0 0 24 24" fill="none" xmlns="http://www.w3.org/2000/svg">
<path d="M3 5H13" stroke="black" stroke-width="1.5" stroke-linecap="round" stroke-linejoin="round"/>
<path d="M11 12H21" stroke="black" stroke-width="1.5" stroke-linecap="round" stroke-linejoin="round"/>
<path d="M3 19H13" stroke="black" stroke-width="1.5" stroke-linecap="round" stroke-linejoin="round"/>
<path d="M20.414 3.58624C21.195 4.36724 21.195 5.63324 20.414 6.41424C19.633 7.19524 18.367 7.19524 17.586 6.41424C16.805 5.63324 16.805 4.36724 17.586 3.58624C18.367 2.80524 19.633 2.80524 20.414 3.58624" stroke="black" stroke-width="1.5" stroke-linecap="round" stroke-linejoin="round"/>
<path d="M6.41399 10.5862C7.19499 11.3672 7.19499 12.6332 6.41399 13.4142C5.63299 14.1952 4.36699 14.1952 3.58599 13.4142C2.80499 12.6332 2.80499 11.3672 3.58599 10.5862C4.36699 9.80524 5.63299 9.80524 6.41399 10.5862" stroke="black" stroke-width="1.5" stroke-linecap="round" stroke-linejoin="round"/>
<path d="M20.414 17.5862C21.195 18.3672 21.195 19.6332 20.414 20.4142C19.633 21.1952 18.367 21.1952 17.586 20.4142C16.805 19.6332 16.805 18.3672 17.586 17.5862C18.367 16.8052 19.633 16.8052 20.414 17.5862" stroke="black" stroke-width="1.5" stroke-linecap="round" stroke-linejoin="round"/>
</svg>
