<svg width="24" height="24" viewBox="0 0 24 24" fill="none" xmlns="http://www.w3.org/2000/svg">
<path fill-rule="evenodd" clip-rule="evenodd" d="M10.5444 16.1171L10.8705 16.8514C11.069 17.2975 11.5117 17.5849 12 17.5847V17.5847C12.4883 17.5849 12.931 17.2975 13.1295 16.8514L13.4556 16.1171C13.5715 15.8565 13.7669 15.6394 14.0138 15.4968V15.4968C14.2622 15.353 14.5498 15.2917 14.8352 15.3217L15.6355 15.4068C16.1214 15.4585 16.5921 15.2189 16.836 14.7955V14.7955C17.0801 14.3727 17.0523 13.8457 16.765 13.4509L16.2918 12.8017C16.1238 12.5688 16.0341 12.2885 16.0357 12.0013V12.0013C16.0349 11.7138 16.1257 11.4335 16.2948 11.201L16.768 10.5517C17.0554 10.1569 17.0829 9.62971 16.838 9.20718V9.20718C16.5939 8.784 16.1233 8.54441 15.6375 8.59592L14.8372 8.68096C14.5522 8.71096 14.2651 8.65003 14.0168 8.50689V8.50689C13.7694 8.3631 13.574 8.14453 13.4586 7.88263L13.1295 7.14832C12.9307 6.70255 12.4881 6.41559 12 6.41602V6.41602C11.5117 6.41577 11.069 6.70316 10.8705 7.14932L10.5444 7.88363C10.4287 8.14531 10.2333 8.36377 9.98617 8.50789V8.50789C9.73753 8.65092 9.4501 8.71183 9.16483 8.68196L8.36449 8.59692C7.87867 8.54541 7.40811 8.785 7.16399 9.20818V9.20818C6.91911 9.63071 6.94657 10.1579 7.23402 10.5527L7.70722 11.202C7.87634 11.4345 7.96708 11.7148 7.96633 12.0023V12.0023C7.96708 12.2899 7.87634 12.5702 7.70722 12.8027L7.23402 13.4519C6.94657 13.8468 6.91911 14.374 7.16399 14.7965V14.7965C7.40811 15.2197 7.87867 15.4593 8.36449 15.4078L9.16483 15.3227C9.44979 15.2927 9.73694 15.3537 9.98517 15.4968V15.4968C10.232 15.6398 10.4277 15.8568 10.5444 16.1171Z" stroke="black" stroke-width="1.5" stroke-linecap="round" stroke-linejoin="round"/>
<rect x="2.99625" y="2.99609" width="18.0075" height="18.0075" rx="5" stroke="black" stroke-width="1.5" stroke-linecap="round" stroke-linejoin="round"/>
<path d="M11.7499 12.0002C11.7499 12.1383 11.8619 12.2503 12 12.2503C12.1381 12.2503 12.2501 12.1383 12.2501 12.0002C12.2501 11.8621 12.1381 11.7501 12 11.7501C11.9334 11.7498 11.8695 11.7762 11.8225 11.8234C11.7755 11.8706 11.7494 11.9346 11.7499 12.0012" stroke="black" stroke-width="1.5" stroke-linecap="round" stroke-linejoin="round"/>
</svg>
