<svg width="24" height="24" viewBox="0 0 24 24" fill="none" xmlns="http://www.w3.org/2000/svg">
<path d="M18.364 5.63604C21.8787 9.15076 21.8787 14.8492 18.364 18.3639C14.8493 21.8787 9.1508 21.8787 5.6361 18.3639C2.12138 14.8492 2.12138 9.15074 5.6361 5.63604C9.15082 2.12132 14.8493 2.12132 18.364 5.63604" stroke="black" stroke-width="1.5" stroke-linecap="round" stroke-linejoin="round"/>
<path fill-rule="evenodd" clip-rule="evenodd" d="M12.715 16.632L13.697 16.368C13.88 16.319 14.017 16.167 14.048 15.98L14.263 14.66C14.296 14.456 14.457 14.295 14.661 14.262L15.98 14.047C16.167 14.017 16.319 13.879 16.368 13.696L16.631 12.714C16.68 12.531 16.617 12.336 16.47 12.216L15.434 11.37C15.273 11.239 15.215 11.02 15.288 10.826L15.764 9.573C15.831 9.396 15.788 9.195 15.654 9.061L14.936 8.343C14.802 8.209 14.602 8.166 14.424 8.233L13.173 8.71C12.979 8.784 12.76 8.725 12.629 8.564L11.783 7.528C11.663 7.381 11.468 7.318 11.285 7.368L10.303 7.632C10.12 7.681 9.983 7.833 9.952 8.02L9.737 9.34C9.704 9.544 9.544 9.704 9.339 9.737L8.02 9.952C7.833 9.982 7.681 10.12 7.632 10.303L7.369 11.285C7.32 11.468 7.383 11.663 7.529 11.783L8.563 12.629C8.723 12.76 8.782 12.979 8.708 13.173L8.232 14.426C8.165 14.603 8.208 14.804 8.342 14.938L9.06 15.656C9.194 15.79 9.394 15.833 9.571 15.766L10.825 15.291C11.019 15.218 11.238 15.276 11.369 15.437L12.215 16.473C12.337 16.618 12.532 16.681 12.715 16.632V16.632Z" stroke="black" stroke-width="1.5" stroke-linecap="round" stroke-linejoin="round"/>
</svg>
