<svg width="24" height="24" viewBox="0 0 24 24" fill="none" xmlns="http://www.w3.org/2000/svg">
<path d="M7.85777 12.0004C9.00167 10.8567 10.8561 10.8567 12 12.0004V12.0004C13.1437 13.1443 13.1437 14.9987 12 16.1426" stroke="black" stroke-width="1.5" stroke-linecap="round" stroke-linejoin="round"/>
<path fill-rule="evenodd" clip-rule="evenodd" d="M7.85787 16.1424C6.71405 14.9985 6.71405 13.144 7.85787 12.0002L12 7.85808C13.1438 6.71427 14.9983 6.71427 16.1421 7.85808C17.286 9.0019 17.286 10.8564 16.1421 12.0002L12 16.1424C10.8562 17.2862 9.00169 17.2862 7.85787 16.1424Z" stroke="black" stroke-width="1.5" stroke-linecap="round" stroke-linejoin="round"/>
<path fill-rule="evenodd" clip-rule="evenodd" d="M12 21C16.9706 21 21 16.9706 21 12C21 7.02944 16.9706 3 12 3C7.02944 3 3 7.02944 3 12C3 16.9706 7.02944 21 12 21V21Z" stroke="black" stroke-width="1.5" stroke-linecap="round" stroke-linejoin="round"/>
</svg>
