<svg width="24" height="24" viewBox="0 0 24 24" fill="none" xmlns="http://www.w3.org/2000/svg">
<path d="M15.5345 9.46447C17.4871 11.4171 17.4871 14.5829 15.5345 16.5355C13.5819 18.4882 10.4161 18.4882 8.46343 16.5355C6.51081 14.5829 6.51081 11.4171 8.46343 9.46447C10.4161 7.51184 13.5819 7.51184 15.5345 9.46447" stroke="black" stroke-width="1.5093" stroke-linecap="round" stroke-linejoin="round"/>
<path d="M12 13L8.46 16.54" stroke="black" stroke-width="1.5093" stroke-linecap="round" stroke-linejoin="round"/>
<path d="M18.7172 6.28269C18.8636 6.42913 18.8636 6.66657 18.7172 6.81302C18.5708 6.95946 18.3333 6.95946 18.1869 6.81302C18.0404 6.66657 18.0404 6.42913 18.1869 6.28269C18.3333 6.13624 18.5708 6.13624 18.7172 6.28269Z" fill="black"/>
<path d="M18.7172 6.28269C18.8636 6.42913 18.8636 6.66657 18.7172 6.81302C18.5708 6.95946 18.3333 6.95946 18.1869 6.81302C18.0404 6.66657 18.0404 6.42913 18.1869 6.28269C18.3333 6.13624 18.5708 6.13624 18.7172 6.28269" stroke="black" stroke-width="1.5" stroke-linecap="round" stroke-linejoin="round"/>
<path d="M5.81316 19.187C5.95961 19.3334 5.95961 19.5709 5.81316 19.7173C5.66671 19.8638 5.42928 19.8638 5.28283 19.7173C5.13638 19.5709 5.13638 19.3334 5.28283 19.187C5.42928 19.0405 5.66671 19.0405 5.81316 19.187Z" fill="black"/>
<path d="M5.81316 19.187C5.95961 19.3334 5.95961 19.5709 5.81316 19.7173C5.66671 19.8638 5.42928 19.8638 5.28283 19.7173C5.13638 19.5709 5.13638 19.3334 5.28283 19.187C5.42928 19.0405 5.66671 19.0405 5.81316 19.187" stroke="black" stroke-width="1.5" stroke-linecap="round" stroke-linejoin="round"/>
<path d="M21.3902 12.7348C21.5366 12.8813 21.5366 13.1187 21.3902 13.2652C21.2438 13.4116 21.0063 13.4116 20.8599 13.2652C20.7134 13.1187 20.7134 12.8813 20.8599 12.7348C21.0063 12.5884 21.2438 12.5884 21.3902 12.7348Z" fill="black"/>
<path d="M21.3902 12.7348C21.5366 12.8813 21.5366 13.1187 21.3902 13.2652C21.2438 13.4116 21.0063 13.4116 20.8599 13.2652C20.7134 13.1187 20.7134 12.8813 20.8599 12.7348C21.0063 12.5884 21.2438 12.5884 21.3902 12.7348" stroke="black" stroke-width="1.5" stroke-linecap="round" stroke-linejoin="round"/>
<path d="M3.14017 12.7348C3.28662 12.8813 3.28662 13.1187 3.14017 13.2652C2.99372 13.4116 2.75629 13.4116 2.60984 13.2652C2.46339 13.1187 2.46339 12.8813 2.60984 12.7348C2.75629 12.5884 2.99372 12.5884 3.14017 12.7348Z" fill="black"/>
<path d="M3.14017 12.7348C3.28662 12.8813 3.28662 13.1187 3.14017 13.2652C2.99372 13.4116 2.75629 13.4116 2.60984 13.2652C2.46339 13.1187 2.46339 12.8813 2.60984 12.7348C2.75629 12.5884 2.99372 12.5884 3.14017 12.7348" stroke="black" stroke-width="1.5" stroke-linecap="round" stroke-linejoin="round"/>
<path d="M18.7172 19.187C18.8636 19.3334 18.8636 19.5709 18.7172 19.7173C18.5708 19.8638 18.3333 19.8638 18.1869 19.7173C18.0404 19.5709 18.0404 19.3334 18.1869 19.187C18.3333 19.0405 18.5708 19.0405 18.7172 19.187Z" fill="black"/>
<path d="M18.7172 19.187C18.8636 19.3334 18.8636 19.5709 18.7172 19.7173C18.5708 19.8638 18.3333 19.8638 18.1869 19.7173C18.0404 19.5709 18.0404 19.3334 18.1869 19.187C18.3333 19.0405 18.5708 19.0405 18.7172 19.187" stroke="black" stroke-width="1.5" stroke-linecap="round" stroke-linejoin="round"/>
<path d="M5.81316 6.28269C5.95961 6.42913 5.95961 6.66657 5.81316 6.81302C5.66671 6.95946 5.42928 6.95946 5.28283 6.81302C5.13638 6.66657 5.13638 6.42913 5.28283 6.28269C5.42928 6.13624 5.66671 6.13624 5.81316 6.28269Z" fill="black"/>
<path d="M5.81316 6.28269C5.95961 6.42913 5.95961 6.66657 5.81316 6.81302C5.66671 6.95946 5.42928 6.95946 5.28283 6.81302C5.13638 6.66657 5.13638 6.42913 5.28283 6.28269C5.42928 6.13624 5.66671 6.13624 5.81316 6.28269" stroke="black" stroke-width="1.5" stroke-linecap="round" stroke-linejoin="round"/>
<path d="M12.2652 3.60983C12.4116 3.75628 12.4116 3.99372 12.2652 4.14017C12.1188 4.28661 11.8813 4.28661 11.7349 4.14017C11.5884 3.99372 11.5884 3.75628 11.7349 3.60983C11.8813 3.46339 12.1188 3.46339 12.2652 3.60983Z" fill="black"/>
<path d="M12.2652 3.60983C12.4116 3.75628 12.4116 3.99372 12.2652 4.14017C12.1188 4.28661 11.8813 4.28661 11.7349 4.14017C11.5884 3.99372 11.5884 3.75628 11.7349 3.60983C11.8813 3.46339 12.1188 3.46339 12.2652 3.60983" stroke="black" stroke-width="1.5" stroke-linecap="round" stroke-linejoin="round"/>
</svg>
