<svg width="24" height="24" viewBox="0 0 24 24" fill="none" xmlns="http://www.w3.org/2000/svg">
<circle cx="12" cy="11.9996" r="1.50063" stroke="black" stroke-width="1.5" stroke-linecap="round" stroke-linejoin="round"/>
<path fill-rule="evenodd" clip-rule="evenodd" d="M17.2522 13.2993L16.5019 13.7325C16.0376 14.0006 15.7516 14.496 15.7516 15.0321V15.8984C15.7515 16.4345 15.4655 16.9299 15.0012 17.198C14.5369 17.466 13.9649 17.466 13.5006 17.198L12.7503 16.7648C12.286 16.4967 11.714 16.4967 11.2497 16.7648L10.4994 17.198C10.0351 17.466 9.46305 17.466 8.99876 17.198C8.53447 16.9299 8.24844 16.4345 8.24843 15.8984V15.0321C8.24842 14.496 7.9624 14.0006 7.49812 13.7325L6.74781 13.2993C6.28355 13.0313 5.99756 12.5359 5.99756 11.9998C5.99756 11.4637 6.28355 10.9683 6.74781 10.7003L7.49812 10.2671C7.9624 9.99902 8.24842 9.50364 8.24843 8.96753V8.10117C8.24844 7.56506 8.53447 7.06967 8.99876 6.80162C9.46305 6.53357 10.0351 6.53357 10.4994 6.80163L11.2497 7.23481C11.714 7.50287 12.286 7.50287 12.7503 7.23481L13.5006 6.80163C13.9649 6.53357 14.5369 6.53357 15.0012 6.80162C15.4655 7.06967 15.7515 7.56506 15.7516 8.10117V8.96753C15.7516 9.50364 16.0376 9.99902 16.5019 10.2671L17.2522 10.7003C17.7164 10.9683 18.0024 11.4637 18.0024 11.9998C18.0024 12.5359 17.7164 13.0313 17.2522 13.2993Z" stroke="black" stroke-width="1.5" stroke-linecap="round" stroke-linejoin="round"/>
<path fill-rule="evenodd" clip-rule="evenodd" d="M16.0017 21.0036H7.99833C5.23576 21.0036 2.99625 18.7641 2.99625 16.0015V7.99818C2.99625 5.2356 5.23576 2.99609 7.99833 2.99609H16.0017C18.7642 2.99609 21.0037 5.2356 21.0037 7.99818V16.0015C21.0037 18.7641 18.7642 21.0036 16.0017 21.0036Z" stroke="black" stroke-width="1.5" stroke-linecap="round" stroke-linejoin="round"/>
</svg>
