<svg width="24" height="24" viewBox="0 0 24 24" fill="none" xmlns="http://www.w3.org/2000/svg">
<path d="M7 14.5H6.5" stroke="black" stroke-width="1.5319" stroke-linecap="round" stroke-linejoin="round"/>
<path d="M12.5 14.5H12" stroke="black" stroke-width="1.5319" stroke-linecap="round" stroke-linejoin="round"/>
<path d="M11.62 16.6198L11.27 16.2698" stroke="black" stroke-width="1.5319" stroke-linecap="round" stroke-linejoin="round"/>
<path d="M7.37999 12.3797L7.72999 12.7297" stroke="black" stroke-width="1.5319" stroke-linecap="round" stroke-linejoin="round"/>
<path d="M9.5 11.5V12" stroke="black" stroke-width="1.5319" stroke-linecap="round" stroke-linejoin="round"/>
<path d="M9.5 17.5V17" stroke="black" stroke-width="1.5319" stroke-linecap="round" stroke-linejoin="round"/>
<path d="M7.37999 16.6198L7.72999 16.2698" stroke="black" stroke-width="1.5319" stroke-linecap="round" stroke-linejoin="round"/>
<path d="M11.62 12.3797L11.27 12.7297" stroke="black" stroke-width="1.5319" stroke-linecap="round" stroke-linejoin="round"/>
<path d="M11.2133 12.7863C12.1595 13.7326 12.1595 15.2667 11.2133 16.213C10.267 17.1592 8.73289 17.1592 7.78665 16.213C6.84041 15.2667 6.84041 13.7326 7.78665 12.7863C8.73289 11.8401 10.267 11.8401 11.2133 12.7863" stroke="black" stroke-width="1.5319" stroke-linecap="round" stroke-linejoin="round"/>
<path d="M15.87 10.8701L16.17 11.5001" stroke="black" stroke-width="1.5319" stroke-linecap="round" stroke-linejoin="round"/>
<path d="M13.83 6.49994L14.13 7.12994" stroke="black" stroke-width="1.5319" stroke-linecap="round" stroke-linejoin="round"/>
<path d="M16.17 6.49994L15.87 7.12994" stroke="black" stroke-width="1.5319" stroke-linecap="round" stroke-linejoin="round"/>
<path d="M14.13 10.8701L13.83 11.5001" stroke="black" stroke-width="1.5319" stroke-linecap="round" stroke-linejoin="round"/>
<path d="M17.5 7.82998L16.87 8.12998" stroke="black" stroke-width="1.5319" stroke-linecap="round" stroke-linejoin="round"/>
<path d="M12.5 10.17L13.13 9.87002" stroke="black" stroke-width="1.5319" stroke-linecap="round" stroke-linejoin="round"/>
<path d="M17.5 10.17L16.87 9.87002" stroke="black" stroke-width="1.5319" stroke-linecap="round" stroke-linejoin="round"/>
<path d="M13.13 8.12998L12.5 7.82998" stroke="black" stroke-width="1.5319" stroke-linecap="round" stroke-linejoin="round"/>
<path d="M16.463 7.53666C17.271 8.34466 17.271 9.65467 16.463 10.4627C15.655 11.2707 14.345 11.2707 13.537 10.4627C12.729 9.65468 12.729 8.34466 13.537 7.53666C14.345 6.72867 15.655 6.72867 16.463 7.53666" stroke="black" stroke-width="1.5319" stroke-linecap="round" stroke-linejoin="round"/>
<path fill-rule="evenodd" clip-rule="evenodd" d="M15.331 20.9858H8.669C5.538 20.9858 3 18.4478 3 15.3168V8.65484C3 5.52384 5.538 2.98584 8.669 2.98584H15.33C18.462 2.98584 21 5.52384 21 8.65484V15.3158C21 18.4478 18.462 20.9858 15.331 20.9858Z" stroke="black" stroke-width="1.5" stroke-linecap="round" stroke-linejoin="round"/>
</svg>
