<svg width="24" height="24" viewBox="0 0 24 24" fill="none" xmlns="http://www.w3.org/2000/svg">
<path d="M13.273 10.727C13.976 11.43 13.976 12.57 13.273 13.273C12.57 13.976 11.43 13.976 10.727 13.273C10.024 12.57 10.024 11.43 10.727 10.727C11.43 10.024 12.57 10.024 13.273 10.727" stroke="black" stroke-width="1.5" stroke-linecap="round" stroke-linejoin="round"/>
<path fill-rule="evenodd" clip-rule="evenodd" d="M7.50001 12C7.50001 12.198 7.51801 12.396 7.54201 12.588L6.75801 13.201C6.36501 13.508 6.25901 14.057 6.50801 14.489L7.10001 15.515C7.34901 15.946 7.87701 16.128 8.33901 15.943L8.96301 15.692C9.15001 15.617 9.35901 15.647 9.52701 15.758C9.67401 15.855 9.82601 15.945 9.98301 16.025C10.163 16.116 10.294 16.28 10.322 16.48L10.417 17.143C10.489 17.635 10.911 18 11.408 18H12.591C13.088 18 13.51 17.635 13.581 17.142L13.676 16.479C13.705 16.279 13.837 16.114 14.017 16.024C14.174 15.945 14.325 15.857 14.471 15.76C14.64 15.648 14.85 15.616 15.038 15.692L15.661 15.942C16.123 16.128 16.651 15.945 16.9 15.514L17.492 14.488C17.741 14.056 17.635 13.507 17.242 13.2L16.458 12.587C16.482 12.396 16.5 12.198 16.5 12C16.5 11.802 16.482 11.604 16.458 11.412L17.242 10.799C17.635 10.492 17.741 9.943 17.492 9.511L16.9 8.485C16.651 8.054 16.123 7.872 15.661 8.057L15.038 8.307C14.85 8.382 14.641 8.351 14.471 8.239C14.325 8.142 14.174 8.054 14.017 7.975C13.836 7.884 13.704 7.72 13.676 7.52L13.581 6.858C13.511 6.366 13.089 6 12.591 6H11.409C10.912 6 10.49 6.365 10.419 6.858L10.324 7.522C10.295 7.721 10.164 7.885 9.98501 7.977C9.82801 8.057 9.67601 8.147 9.52901 8.244C9.36001 8.355 9.15101 8.385 8.96401 8.309L8.33901 8.058C7.87801 7.873 7.35001 8.055 7.10101 8.486L6.50901 9.511C6.26001 9.943 6.36601 10.492 6.75901 10.799L7.54301 11.412C7.51801 11.604 7.50001 11.802 7.50001 12Z" stroke="black" stroke-width="1.5" stroke-linecap="round" stroke-linejoin="round"/>
<path fill-rule="evenodd" clip-rule="evenodd" d="M17 21H7C4.791 21 3 19.209 3 17V7C3 4.791 4.791 3 7 3H17C19.209 3 21 4.791 21 7V17C21 19.209 19.209 21 17 21Z" stroke="black" stroke-width="1.5" stroke-linecap="round" stroke-linejoin="round"/>
</svg>
