<svg width="24" height="24" viewBox="0 0 24 24" fill="none" xmlns="http://www.w3.org/2000/svg">
<path d="M8.46453 16.5381C7.03392 15.1076 6.60595 12.9561 7.38017 11.0869C8.15439 9.21775 9.97834 7.99902 12.0015 7.99902C14.0247 7.99902 15.8486 9.21775 16.6228 11.0869C17.3971 12.9561 16.9691 15.1076 15.5385 16.5381C13.585 18.4915 10.418 18.4915 8.46453 16.5381" stroke="black" stroke-width="1.5" stroke-linecap="round" stroke-linejoin="round"/>
<path d="M15.5425 9.45996L12 13.0004" stroke="black" stroke-width="1.5" stroke-linecap="round" stroke-linejoin="round"/>
<path d="M5.2802 6.281C5.38746 6.17361 5.54886 6.14142 5.6891 6.19946C5.82934 6.2575 5.9208 6.39433 5.9208 6.54611C5.9208 6.69789 5.82934 6.83471 5.6891 6.89275C5.54886 6.95079 5.38746 6.91861 5.2802 6.81122C5.2097 6.74101 5.17007 6.64561 5.17007 6.54611C5.17007 6.44661 5.2097 6.35121 5.2802 6.281" stroke="black" stroke-width="1.5" stroke-linecap="round" stroke-linejoin="round"/>
<path d="M18.1896 19.1902C18.2968 19.0828 18.4582 19.0506 18.5985 19.1086C18.7387 19.1667 18.8302 19.3035 18.8302 19.4553C18.8302 19.6071 18.7387 19.7439 18.5985 19.8019C18.4582 19.86 18.2968 19.8278 18.1896 19.7204C18.1191 19.6502 18.0794 19.5548 18.0794 19.4553C18.0794 19.3558 18.1191 19.2604 18.1896 19.1902" stroke="black" stroke-width="1.5" stroke-linecap="round" stroke-linejoin="round"/>
<path d="M2.60609 12.7351C2.71334 12.6277 2.87474 12.5955 3.01499 12.6536C3.15523 12.7116 3.24668 12.8484 3.24668 13.0002C3.24668 13.152 3.15523 13.2888 3.01499 13.3469C2.87474 13.4049 2.71334 13.3727 2.60609 13.2653C2.53559 13.1951 2.49596 13.0997 2.49596 13.0002C2.49596 12.9007 2.53559 12.8053 2.60609 12.7351" stroke="black" stroke-width="1.5" stroke-linecap="round" stroke-linejoin="round"/>
<path d="M20.8637 12.7351C20.9709 12.6277 21.1323 12.5955 21.2726 12.6536C21.4128 12.7116 21.5043 12.8484 21.5043 13.0002C21.5043 13.152 21.4128 13.2888 21.2726 13.3469C21.1323 13.4049 20.9709 13.3727 20.8637 13.2653C20.7932 13.1951 20.7536 13.0997 20.7536 13.0002C20.7536 12.9007 20.7932 12.8053 20.8637 12.7351" stroke="black" stroke-width="1.5" stroke-linecap="round" stroke-linejoin="round"/>
<path d="M5.2802 19.1902C5.38746 19.0828 5.54886 19.0506 5.6891 19.1086C5.82934 19.1667 5.9208 19.3035 5.9208 19.4553C5.9208 19.6071 5.82934 19.7439 5.6891 19.8019C5.54886 19.86 5.38746 19.8278 5.2802 19.7204C5.2097 19.6502 5.17007 19.5548 5.17007 19.4553C5.17007 19.3558 5.2097 19.2604 5.2802 19.1902" stroke="black" stroke-width="1.5" stroke-linecap="round" stroke-linejoin="round"/>
<path d="M18.1896 6.281C18.2968 6.17361 18.4582 6.14142 18.5985 6.19946C18.7387 6.2575 18.8302 6.39433 18.8302 6.54611C18.8302 6.69789 18.7387 6.83471 18.5985 6.89275C18.4582 6.95079 18.2968 6.91861 18.1896 6.81122C18.1191 6.74101 18.0794 6.64561 18.0794 6.54611C18.0794 6.44661 18.1191 6.35121 18.1896 6.281" stroke="black" stroke-width="1.5" stroke-linecap="round" stroke-linejoin="round"/>
<path d="M11.7349 3.60619C11.8421 3.4988 12.0035 3.46662 12.1438 3.52466C12.284 3.5827 12.3755 3.71952 12.3755 3.8713C12.3755 4.02308 12.284 4.15991 12.1438 4.21795C12.0035 4.27599 11.8421 4.2438 11.7349 4.13641C11.6644 4.0662 11.6248 3.9708 11.6248 3.8713C11.6248 3.7718 11.6644 3.6764 11.7349 3.60619" stroke="black" stroke-width="1.5" stroke-linecap="round" stroke-linejoin="round"/>
</svg>
