<svg width="24" height="24" viewBox="0 0 24 24" fill="none" xmlns="http://www.w3.org/2000/svg">
<path d="M12.9444 9.69653C13.9408 10.6929 13.9408 12.3076 12.9444 13.304C11.948 14.3004 10.3333 14.3004 9.33688 13.304C8.34047 12.3076 8.34047 10.6929 9.33688 9.69653C10.3323 8.70011 11.948 8.70011 12.9444 9.69653" stroke="black" stroke-width="1.5" stroke-linecap="round" stroke-linejoin="round"/>
<path d="M17.5183 11.5001C17.5183 11.219 17.4933 10.9389 17.4593 10.6668L18.9599 9.49329C19.292 9.23218 19.3831 8.76699 19.172 8.40083L17.8374 6.09287C17.6263 5.72772 17.1791 5.57366 16.787 5.72972L15.4464 6.26794C15.1803 6.37499 14.8832 6.32997 14.6431 6.1719C14.435 6.03485 14.2209 5.9098 13.9988 5.79775C13.7427 5.6697 13.5556 5.4356 13.5146 5.15248L13.3105 3.72388C13.2515 3.30671 12.8934 2.99658 12.4712 2.99658H9.81008C9.3889 2.99658 9.03075 3.30671 8.97073 3.72388L8.76464 5.15448C8.72463 5.4366 8.53855 5.6697 8.28444 5.79875C8.06135 5.9128 7.84526 6.03985 7.63817 6.17691C7.39907 6.33397 7.10295 6.37599 6.83784 6.26995L5.49528 5.72972C5.10312 5.57265 4.65493 5.72672 4.44484 6.09287L3.11029 8.40083C2.8982 8.76699 2.98924 9.23318 3.32138 9.49329L4.822 10.6668C4.78799 10.9389 4.76198 11.219 4.76198 11.5001C4.76198 11.7802 4.78699 12.0614 4.822 12.3335L3.32138 13.507C2.98924 13.7681 2.8982 14.2333 3.10929 14.5994L4.44384 16.9074C4.65493 17.2725 5.10212 17.4266 5.49428 17.2705L6.83784 16.7313C7.10295 16.6243 7.39907 16.6673 7.63717 16.8253C7.84526 16.9634 8.06035 17.0895 8.28344 17.2035C8.53855 17.3326 8.72363 17.5646 8.76464 17.8478L8.96973 19.2774C9.02975 19.6935 9.3879 20.0037 9.80908 20.0037H11.1406" stroke="black" stroke-width="1.5" stroke-linecap="round" stroke-linejoin="round"/>
<path d="M15.0012 16.0022H21.0037" stroke="black" stroke-width="1.5" stroke-linecap="round" stroke-linejoin="round"/>
<path d="M15.0012 18.5031H21.0037" stroke="black" stroke-width="1.5" stroke-linecap="round" stroke-linejoin="round"/>
<path d="M15.0012 21.0041H21.0037" stroke="black" stroke-width="1.5" stroke-linecap="round" stroke-linejoin="round"/>
</svg>
