<svg width="24" height="24" viewBox="0 0 24 24" fill="none" xmlns="http://www.w3.org/2000/svg">
<path d="M9.74875 6.99776C9.74875 6.58355 9.41296 6.24776 8.99875 6.24776C8.58453 6.24776 8.24875 6.58355 8.24875 6.99776H9.74875ZM8.24875 13.5005C8.24875 13.9147 8.58453 14.2505 8.99875 14.2505C9.41296 14.2505 9.74875 13.9147 9.74875 13.5005H8.24875ZM14.2512 17.0019C14.2512 17.4161 14.587 17.7519 15.0012 17.7519C15.4155 17.7519 15.7512 17.4161 15.7512 17.0019H14.2512ZM15.7512 10.4992C15.7512 10.085 15.4155 9.74922 15.0012 9.74922C14.587 9.74922 14.2512 10.085 14.2512 10.4992H15.7512ZM16.0017 20.2536H7.99833V21.7536H16.0017V20.2536ZM7.99833 20.2536C5.64997 20.2536 3.74625 18.3499 3.74625 16.0015H2.24625C2.24625 19.1783 4.82154 21.7536 7.99833 21.7536V20.2536ZM3.74625 16.0015V7.99818H2.24625V16.0015H3.74625ZM3.74625 7.99818C3.74625 5.64982 5.64997 3.74609 7.99833 3.74609V2.24609C4.82154 2.24609 2.24625 4.82139 2.24625 7.99818H3.74625ZM7.99833 3.74609H16.0017V2.24609H7.99833V3.74609ZM16.0017 3.74609C18.35 3.74609 20.2537 5.64982 20.2537 7.99818H21.7537C21.7537 4.82139 19.1785 2.24609 16.0017 2.24609V3.74609ZM20.2537 7.99818V16.0015H21.7537V7.99818H20.2537ZM20.2537 16.0015C20.2537 18.3499 18.35 20.2536 16.0017 20.2536V21.7536C19.1785 21.7536 21.7537 19.1783 21.7537 16.0015H20.2537ZM8.24875 6.99776V13.5005H9.74875V6.99776H8.24875ZM7.99802 16.0015V14.5009H6.49802V16.0015H7.99802ZM7.99802 14.5009C7.99802 14.3626 8.11013 14.2505 8.24843 14.2505V12.7505C7.28171 12.7505 6.49802 13.5342 6.49802 14.5009H7.99802ZM8.24843 14.2505H9.74906V12.7505H8.24843V14.2505ZM9.74906 14.2505C9.88736 14.2505 9.99948 14.3626 9.99948 14.5009H11.4995C11.4995 13.5342 10.7158 12.7505 9.74906 12.7505V14.2505ZM9.99948 14.5009V16.0015H11.4995V14.5009H9.99948ZM9.99948 16.0015C9.99948 16.1398 9.88736 16.2519 9.74906 16.2519V17.7519C10.7158 17.7519 11.4995 16.9682 11.4995 16.0015H9.99948ZM9.74906 16.2519H8.24843V17.7519H9.74906V16.2519ZM8.24843 16.2519C8.11013 16.2519 7.99802 16.1398 7.99802 16.0015H6.49802C6.49802 16.9682 7.28171 17.7519 8.24843 17.7519V16.2519ZM15.7512 17.0019V10.4992H14.2512V17.0019H15.7512ZM16.002 7.99818V9.4988H17.502V7.99818H16.002ZM16.002 9.4988C16.002 9.6371 15.8899 9.74922 15.7516 9.74922V11.2492C16.7183 11.2492 17.502 10.4655 17.502 9.4988H16.002ZM15.7516 9.74922H14.2509V11.2492H15.7516V9.74922ZM14.2509 9.74922C14.1126 9.74922 14.0005 9.6371 14.0005 9.4988H12.5005C12.5005 10.4655 13.2842 11.2492 14.2509 11.2492V9.74922ZM14.0005 9.4988V7.99818H12.5005V9.4988H14.0005ZM14.0005 7.99818C14.0005 7.85988 14.1126 7.74776 14.2509 7.74776V6.24776C13.2842 6.24776 12.5005 7.03145 12.5005 7.99818H14.0005ZM14.2509 7.74776H15.7516V6.24776H14.2509V7.74776ZM15.7516 7.74776C15.8899 7.74776 16.002 7.85988 16.002 7.99818H17.502C17.502 7.03145 16.7183 6.24776 15.7516 6.24776V7.74776Z" fill="black"/>
</svg>
