<svg width="24" height="24" viewBox="0 0 24 24" fill="none" xmlns="http://www.w3.org/2000/svg">
<path d="M9.24885 15.7516C9.66306 15.7516 9.99885 15.4158 9.99885 15.0016C9.99885 14.5874 9.66306 14.2516 9.24885 14.2516V15.7516ZM6.99791 14.2516C6.5837 14.2516 6.24791 14.5874 6.24791 15.0016C6.24791 15.4158 6.5837 15.7516 6.99791 15.7516V14.2516ZM9.99885 15.0016C9.99885 14.5874 9.66306 14.2516 9.24885 14.2516C8.83464 14.2516 8.49885 14.5874 8.49885 15.0016H9.99885ZM13.5003 15.0016C13.5003 14.5874 13.1645 14.2516 12.7503 14.2516C12.3361 14.2516 12.0003 14.5874 12.0003 15.0016H13.5003ZM8.49885 15.0016C8.49885 15.4158 8.83464 15.7516 9.24885 15.7516C9.66306 15.7516 9.99885 15.4158 9.99885 15.0016H8.49885ZM12.0003 15.0016C12.0003 15.4158 12.3361 15.7516 12.7503 15.7516C13.1645 15.7516 13.5003 15.4158 13.5003 15.0016H12.0003ZM17.0021 15.7516C17.4163 15.7516 17.7521 15.4158 17.7521 15.0016C17.7521 14.5874 17.4163 14.2516 17.0021 14.2516V15.7516ZM12.7503 14.2516C12.3361 14.2516 12.0003 14.5874 12.0003 15.0016C12.0003 15.4158 12.3361 15.7516 12.7503 15.7516V14.2516ZM11.2497 9.74908C11.6639 9.74908 11.9997 9.4133 11.9997 8.99908C11.9997 8.58487 11.6639 8.24908 11.2497 8.24908V9.74908ZM6.99791 8.24908C6.5837 8.24908 6.24791 8.58487 6.24791 8.99908C6.24791 9.4133 6.5837 9.74908 6.99791 9.74908V8.24908ZM11.9997 8.99908C11.9997 8.58487 11.6639 8.24908 11.2497 8.24908C10.8355 8.24908 10.4997 8.58487 10.4997 8.99908H11.9997ZM15.5011 8.99908C15.5011 8.58487 15.1654 8.24908 14.7511 8.24908C14.3369 8.24908 14.0011 8.58487 14.0011 8.99908H15.5011ZM10.4997 8.99908C10.4997 9.4133 10.8355 9.74908 11.2497 9.74908C11.6639 9.74908 11.9997 9.4133 11.9997 8.99908H10.4997ZM14.0011 8.99908C14.0011 9.4133 14.3369 9.74908 14.7511 9.74908C15.1654 9.74908 15.5011 9.4133 15.5011 8.99908H14.0011ZM17.0021 9.74908C17.4163 9.74908 17.7521 9.4133 17.7521 8.99908C17.7521 8.58487 17.4163 8.24908 17.0021 8.24908V9.74908ZM14.7511 8.24908C14.3369 8.24908 14.0011 8.58487 14.0011 8.99908C14.0011 9.4133 14.3369 9.74908 14.7511 9.74908V8.24908ZM9.24885 14.2516H6.99791V15.7516H9.24885V14.2516ZM8.49885 15.0016C8.49885 16.3827 9.61846 17.5023 10.9996 17.5023V16.0023C10.4469 16.0023 9.99885 15.5543 9.99885 15.0016H8.49885ZM10.9996 17.5023C12.3807 17.5023 13.5003 16.3827 13.5003 15.0016H12.0003C12.0003 15.5543 11.5523 16.0023 10.9996 16.0023V17.5023ZM9.99885 15.0016C9.99885 14.4489 10.4469 14.0009 10.9996 14.0009V12.5009C9.61846 12.5009 8.49885 13.6205 8.49885 15.0016H9.99885ZM10.9996 14.0009C11.5523 14.0009 12.0003 14.4489 12.0003 15.0016H13.5003C13.5003 13.6205 12.3807 12.5009 10.9996 12.5009V14.0009ZM17.0021 14.2516H12.7503V15.7516H17.0021V14.2516ZM20.2537 12.0003C20.2537 16.5588 16.5584 20.2541 12 20.2541V21.7541C17.3868 21.7541 21.7537 17.3872 21.7537 12.0003H20.2537ZM12 20.2541C7.44158 20.2541 3.74625 16.5588 3.74625 12.0003H2.24625C2.24625 17.3872 6.61315 21.7541 12 21.7541V20.2541ZM3.74625 12.0003C3.74625 7.44191 7.44158 3.74658 12 3.74658V2.24658C6.61315 2.24658 2.24625 6.61348 2.24625 12.0003H3.74625ZM12 3.74658C14.189 3.74658 16.2884 4.61617 17.8363 6.16405L18.8969 5.10339C17.0678 3.27421 14.5869 2.24658 12 2.24658V3.74658ZM17.8363 6.16405C19.3842 7.71193 20.2537 9.8113 20.2537 12.0003H21.7537C21.7537 9.41348 20.7261 6.93257 18.8969 5.10339L17.8363 6.16405ZM11.2497 8.24908H6.99791V9.74908H11.2497V8.24908ZM10.4997 8.99908C10.4997 10.3802 11.6193 11.4998 13.0004 11.4998V9.99981C12.4477 9.99981 11.9997 9.55177 11.9997 8.99908H10.4997ZM13.0004 11.4998C14.3815 11.4998 15.5011 10.3802 15.5011 8.99908H14.0011C14.0011 9.55177 13.5531 9.99981 13.0004 9.99981V11.4998ZM11.9997 8.99908C11.9997 8.44639 12.4477 7.99835 13.0004 7.99835V6.49835C11.6193 6.49835 10.4997 7.61797 10.4997 8.99908H11.9997ZM13.0004 7.99835C13.5531 7.99835 14.0011 8.44639 14.0011 8.99908H15.5011C15.5011 7.61797 14.3815 6.49835 13.0004 6.49835V7.99835ZM17.0021 8.24908H14.7511V9.74908H17.0021V8.24908Z" fill="black"/>
</svg>
