<svg width="24" height="24" viewBox="0 0 24 24" fill="none" xmlns="http://www.w3.org/2000/svg">
<path fill-rule="evenodd" clip-rule="evenodd" d="M11.2777 10.5356L14.2529 7.56032C14.2717 7.5415 14.2801 7.51466 14.2753 7.48851C14.2705 7.46236 14.2532 7.44022 14.2289 7.42927C12.4729 6.67436 10.4347 7.05757 9.07279 8.39867C7.76787 9.67426 7.34842 11.6046 8.00634 13.3067L3.54849 17.7676C2.81234 18.5046 2.81234 19.6986 3.54849 20.4357C4.28553 21.1718 5.47956 21.1718 6.2166 20.4357L10.7105 15.9418C12.4614 16.5933 14.4322 16.1342 15.7149 14.776C16.9976 13.4178 17.3434 11.424 16.5929 9.71322C16.5813 9.68987 16.5594 9.6734 16.5337 9.66886C16.508 9.66432 16.4817 9.67225 16.4629 9.69021L13.4126 12.6695L12.3461 11.6L11.2777 10.5356Z" stroke="black" stroke-width="1.5" stroke-linecap="round" stroke-linejoin="round"/>
<path d="M7.10296 19.5492C10.9739 22.0648 16.1191 21.253 19.0276 17.668C21.9361 14.0829 21.6698 8.88085 18.4103 5.61162C15.1509 2.34239 9.94962 2.06043 6.35587 4.95815C2.76211 7.85587 1.93496 12.9987 4.43885 16.8771" stroke="black" stroke-width="1.5" stroke-linecap="round" stroke-linejoin="round"/>
</svg>
