<svg width="24" height="24" viewBox="0 0 24 24" fill="none" xmlns="http://www.w3.org/2000/svg">
<path d="M13.273 10.727C13.976 11.43 13.976 12.57 13.273 13.273C12.57 13.976 11.43 13.976 10.727 13.273C10.024 12.57 10.024 11.43 10.727 10.727C11.43 10.024 12.57 10.024 13.273 10.727" stroke="black" stroke-width="1.5" stroke-linecap="round" stroke-linejoin="round"/>
<path fill-rule="evenodd" clip-rule="evenodd" d="M7.5 12C7.5 12.198 7.518 12.396 7.542 12.588L7.225 12.836C6.564 13.352 6.385 14.277 6.805 15.003V15.003C7.224 15.728 8.111 16.034 8.888 15.722L8.964 15.691C9.151 15.616 9.36 15.646 9.528 15.757C9.675 15.854 9.827 15.944 9.984 16.024C10.164 16.115 10.295 16.279 10.323 16.479L10.334 16.559C10.453 17.386 11.162 18 11.997 18H12C12.836 18 13.545 17.386 13.664 16.558L13.675 16.479C13.704 16.279 13.836 16.114 14.016 16.024C14.173 15.945 14.324 15.857 14.47 15.76C14.639 15.648 14.849 15.616 15.037 15.692L15.111 15.722C15.887 16.034 16.775 15.727 17.193 15.003L17.194 15.002C17.613 14.276 17.434 13.353 16.774 12.837L16.457 12.589C16.482 12.396 16.5 12.198 16.5 12C16.5 11.802 16.482 11.604 16.458 11.412L16.775 11.164C17.435 10.648 17.614 9.724 17.195 8.999L17.194 8.998C16.775 8.273 15.888 7.967 15.111 8.279L15.037 8.309C14.849 8.384 14.64 8.353 14.47 8.241C14.324 8.144 14.173 8.056 14.016 7.977C13.835 7.886 13.703 7.722 13.675 7.522L13.664 7.444C13.547 6.615 12.838 6 12.001 6H12C11.164 6 10.455 6.614 10.336 7.442L10.325 7.522C10.296 7.721 10.165 7.885 9.986 7.977C9.829 8.057 9.677 8.147 9.53 8.244C9.36 8.355 9.151 8.385 8.964 8.309L8.888 8.278C8.111 7.967 7.224 8.273 6.805 8.998V8.998C6.385 9.724 6.565 10.648 7.225 11.165L7.542 11.413C7.518 11.604 7.5 11.802 7.5 12V12Z" stroke="black" stroke-width="1.5" stroke-linecap="round" stroke-linejoin="round"/>
<path fill-rule="evenodd" clip-rule="evenodd" d="M19.2 21H4.8C3.806 21 3 20.194 3 19.2V4.8C3 3.806 3.806 3 4.8 3H19.2C20.194 3 21 3.806 21 4.8V19.2C21 20.194 20.194 21 19.2 21Z" stroke="black" stroke-width="1.5" stroke-linecap="round" stroke-linejoin="round"/>
</svg>
