<svg width="24" height="24" viewBox="0 0 24 24" fill="none" xmlns="http://www.w3.org/2000/svg">
<path fill-rule="evenodd" clip-rule="evenodd" d="M14.601 7.50519L17.159 4.94719C17.193 4.91319 17.182 4.85319 17.138 4.83419C15.686 4.21319 13.902 4.47319 12.705 5.67019C11.543 6.83219 11.237 8.48419 11.788 9.89019L7.955 13.7232C7.322 14.3562 7.322 15.3832 7.955 16.0172C8.588 16.6502 9.615 16.6502 10.249 16.0172L14.113 12.1532C15.52 12.7032 17.171 12.3982 18.333 11.2362C19.532 10.0372 19.85 8.25019 19.171 6.79819C19.151 6.75619 19.093 6.74519 19.059 6.77819L16.436 9.34019L14.601 7.50519Z" stroke="black" stroke-width="1.5" stroke-linecap="round" stroke-linejoin="round"/>
<path d="M11 2.55322C6.224 3.05322 2.5 7.09122 2.5 12.0002C2.5 17.2472 6.753 21.5002 12 21.5002C16.909 21.5002 20.947 17.7762 21.447 13.0002" stroke="black" stroke-width="1.5" stroke-linecap="round" stroke-linejoin="round"/>
</svg>
