<svg width="24" height="24" viewBox="0 0 24 24" fill="none" xmlns="http://www.w3.org/2000/svg">
<path fill-rule="evenodd" clip-rule="evenodd" d="M19 21H5C3.895 21 3 20.105 3 19V5C3 3.895 3.895 3 5 3H19C20.105 3 21 3.895 21 5V19C21 20.105 20.105 21 19 21Z" stroke="black" stroke-width="1.5" stroke-linecap="round" stroke-linejoin="round"/>
<path d="M15 7V11.5" stroke="black" stroke-width="1.5" stroke-linecap="round" stroke-linejoin="round"/>
<path d="M15 15.5V17" stroke="black" stroke-width="1.5" stroke-linecap="round" stroke-linejoin="round"/>
<path d="M16.4142 12.0858C17.1953 12.8668 17.1953 14.1332 16.4142 14.9142C15.6332 15.6953 14.3668 15.6953 13.5858 14.9142C12.8047 14.1332 12.8047 12.8668 13.5858 12.0858C14.3668 11.3047 15.6332 11.3047 16.4142 12.0858" stroke="black" stroke-width="1.5" stroke-linecap="round" stroke-linejoin="round"/>
<path d="M9 17V12.5" stroke="black" stroke-width="1.5" stroke-linecap="round" stroke-linejoin="round"/>
<path d="M9 8.5V7" stroke="black" stroke-width="1.5" stroke-linecap="round" stroke-linejoin="round"/>
<path d="M10.4142 9.08579C11.1953 9.86684 11.1953 11.1332 10.4142 11.9142C9.63315 12.6953 8.36682 12.6953 7.58577 11.9142C6.80472 11.1332 6.80472 9.86684 7.58577 9.08579C8.36682 8.30474 9.63315 8.30474 10.4142 9.08579" stroke="black" stroke-width="1.5" stroke-linecap="round" stroke-linejoin="round"/>
</svg>
