<svg width="24" height="24" viewBox="0 0 24 24" fill="none" xmlns="http://www.w3.org/2000/svg">
<path fill-rule="evenodd" clip-rule="evenodd" d="M8 7H16C18.761 7 21 9.239 21 12V12C21 14.761 18.761 17 16 17H8C5.239 17 3 14.761 3 12V12C3 9.239 5.239 7 8 7Z" stroke="black" stroke-width="1.5" stroke-linecap="round" stroke-linejoin="round"/>
<path d="M8 14V10" stroke="black" stroke-width="1.5" stroke-linecap="round" stroke-linejoin="round"/>
<path d="M14.586 13.4142C13.805 12.6332 13.805 11.3672 14.586 10.5862C15.367 9.80524 16.633 9.80524 17.414 10.5862C18.195 11.3672 18.195 12.6332 17.414 13.4142C16.633 14.1952 15.367 14.1952 14.586 13.4142" stroke="black" stroke-width="1.5" stroke-linecap="round" stroke-linejoin="round"/>
</svg>
