<svg width="24" height="24" viewBox="0 0 24 24" fill="none" xmlns="http://www.w3.org/2000/svg">
<path d="M14.2513 13.5005C14.2513 13.9147 14.587 14.2505 15.0013 14.2505C15.4155 14.2505 15.7513 13.9147 15.7513 13.5005H14.2513ZM15.7513 6.99776C15.7513 6.58355 15.4155 6.24776 15.0013 6.24776C14.587 6.24776 14.2513 6.58355 14.2513 6.99776H15.7513ZM9.74875 10.4992C9.74875 10.085 9.41297 9.74922 8.99875 9.74922C8.58454 9.74922 8.24875 10.085 8.24875 10.4992H9.74875ZM8.24875 17.0019C8.24875 17.4161 8.58454 17.7519 8.99875 17.7519C9.41297 17.7519 9.74875 17.4161 9.74875 17.0019H8.24875ZM3.74625 16.0015V7.99818H2.24625V16.0015H3.74625ZM3.74625 7.99818C3.74625 5.64982 5.64998 3.74609 7.99834 3.74609V2.24609C4.82155 2.24609 2.24625 4.82139 2.24625 7.99818H3.74625ZM7.99834 3.74609H16.0017V2.24609H7.99834V3.74609ZM16.0017 3.74609C18.35 3.74609 20.2538 5.64982 20.2538 7.99818H21.7538C21.7538 4.82139 19.1785 2.24609 16.0017 2.24609V3.74609ZM20.2538 7.99818V16.0015H21.7538V7.99818H20.2538ZM20.2538 16.0015C20.2538 18.3499 18.35 20.2536 16.0017 20.2536V21.7536C19.1785 21.7536 21.7538 19.1783 21.7538 16.0015H20.2538ZM16.0017 20.2536H7.99834V21.7536H16.0017V20.2536ZM7.99834 20.2536C5.64998 20.2536 3.74625 18.3499 3.74625 16.0015H2.24625C2.24625 19.1783 4.82155 21.7536 7.99834 21.7536V20.2536ZM15.7513 13.5005V6.99776H14.2513V13.5005H15.7513ZM14.0005 16.0015V14.5009H12.5005V16.0015H14.0005ZM14.0005 14.5009C14.0005 14.3626 14.1126 14.2505 14.2509 14.2505V12.7505C13.2842 12.7505 12.5005 13.5342 12.5005 14.5009H14.0005ZM14.2509 14.2505H15.7516V12.7505H14.2509V14.2505ZM15.7516 14.2505C15.8899 14.2505 16.002 14.3626 16.002 14.5009H17.502C17.502 13.5342 16.7183 12.7505 15.7516 12.7505V14.2505ZM16.002 14.5009V16.0015H17.502V14.5009H16.002ZM16.002 16.0015C16.002 16.1398 15.8899 16.2519 15.7516 16.2519V17.7519C16.7183 17.7519 17.502 16.9682 17.502 16.0015H16.002ZM15.7516 16.2519H14.2509V17.7519H15.7516V16.2519ZM14.2509 16.2519C14.1126 16.2519 14.0005 16.1398 14.0005 16.0015H12.5005C12.5005 16.9682 13.2842 17.7519 14.2509 17.7519V16.2519ZM8.24875 10.4992V17.0019H9.74875V10.4992H8.24875ZM9.99948 7.99818V9.4988H11.4995V7.99818H9.99948ZM9.99948 9.4988C9.99948 9.6371 9.88737 9.74922 9.74907 9.74922V11.2492C10.7158 11.2492 11.4995 10.4655 11.4995 9.4988H9.99948ZM9.74907 9.74922H8.24844V11.2492H9.74907V9.74922ZM8.24844 9.74922C8.11014 9.74922 7.99802 9.6371 7.99802 9.4988H6.49802C6.49802 10.4655 7.28171 11.2492 8.24844 11.2492V9.74922ZM7.99802 9.4988V7.99818H6.49802V9.4988H7.99802ZM7.99802 7.99818C7.99802 7.85988 8.11014 7.74776 8.24844 7.74776V6.24776C7.28171 6.24776 6.49802 7.03145 6.49802 7.99818H7.99802ZM8.24844 7.74776H9.74907V6.24776H8.24844V7.74776ZM9.74907 7.74776C9.88737 7.74776 9.99948 7.85988 9.99948 7.99818H11.4995C11.4995 7.03145 10.7158 6.24776 9.74907 6.24776V7.74776Z" fill="black"/>
</svg>
