<svg width="24" height="24" viewBox="0 0 24 24" fill="none" xmlns="http://www.w3.org/2000/svg">
<path fill-rule="evenodd" clip-rule="evenodd" d="M14.485 4H9.515C8.985 4 8.476 4.211 8.101 4.586L4.586 8.101C4.211 8.476 4 8.984 4 9.515V14.486C4 15.016 4.211 15.525 4.586 15.9L8.101 19.415C8.476 19.789 8.984 20 9.515 20H14.486C15.016 20 15.525 19.789 15.9 19.414L19.415 15.899C19.789 15.524 20 15.016 20 14.485V9.515C20 8.985 19.789 8.476 19.414 8.101L15.899 4.586C15.524 4.211 15.016 4 14.485 4Z" stroke="black" stroke-width="1.5" stroke-linecap="round" stroke-linejoin="round"/>
<path d="M14.8284 9.17157C16.3905 10.7337 16.3905 13.2663 14.8284 14.8284C13.2663 16.3905 10.7336 16.3905 9.17155 14.8284C7.60945 13.2663 7.60945 10.7337 9.17155 9.17157C10.7337 7.60947 13.2663 7.60947 14.8284 9.17157" stroke="black" stroke-width="1.5" stroke-linecap="round" stroke-linejoin="round"/>
</svg>
