<svg width="24" height="24" viewBox="0 0 24 24" fill="none" xmlns="http://www.w3.org/2000/svg">
<path d="M18.364 5.63576C21.879 9.15076 21.879 14.8488 18.364 18.3638C14.849 21.8788 9.15101 21.8788 5.63601 18.3638C2.12101 14.8488 2.12101 9.15076 5.63601 5.63576C9.15101 2.12076 14.849 2.12076 18.364 5.63576" stroke="black" stroke-width="1.5" stroke-linecap="round" stroke-linejoin="round"/>
<path d="M9.17199 14.828C7.60999 13.266 7.60999 10.733 9.17199 9.17101C10.734 7.60901 13.267 7.60901 14.829 9.17101C16.391 10.733 16.391 13.266 14.829 14.828C13.266 16.391 10.734 16.391 9.17199 14.828" stroke="black" stroke-width="1.5" stroke-linecap="round" stroke-linejoin="round"/>
<path d="M14.83 9.16992L12 11.9999" stroke="black" stroke-width="1.5" stroke-linecap="round" stroke-linejoin="round"/>
<path d="M12 3V4.5" stroke="black" stroke-width="1.5" stroke-linecap="round" stroke-linejoin="round"/>
<path d="M12 21V19.5" stroke="black" stroke-width="1.5" stroke-linecap="round" stroke-linejoin="round"/>
<path d="M18.364 5.63623L17.303 6.69723" stroke="black" stroke-width="1.5" stroke-linecap="round" stroke-linejoin="round"/>
<path d="M5.63599 18.3642L6.69699 17.3032" stroke="black" stroke-width="1.5" stroke-linecap="round" stroke-linejoin="round"/>
<path d="M21 12H19.5" stroke="black" stroke-width="1.5" stroke-linecap="round" stroke-linejoin="round"/>
<path d="M3 12H4.5" stroke="black" stroke-width="1.5" stroke-linecap="round" stroke-linejoin="round"/>
<path d="M18.364 18.3642L17.303 17.3032" stroke="black" stroke-width="1.5" stroke-linecap="round" stroke-linejoin="round"/>
<path d="M5.63599 5.63623L6.69699 6.69723" stroke="black" stroke-width="1.5" stroke-linecap="round" stroke-linejoin="round"/>
</svg>
