<svg width="24" height="24" viewBox="0 0 24 24" fill="none" xmlns="http://www.w3.org/2000/svg">
<path d="M10 21C6.133 21 3 17.865 3 14C3 10.135 6.133 7 10 7C13.865 7 17 10.135 17 14C17 17.865 13.865 21 10 21" stroke="black" stroke-width="1.5" stroke-linecap="round" stroke-linejoin="round"/>
<path d="M20.214 13.214C20.713 12.251 21 11.16 21 10C21 6.134 17.866 3 14 3C12.84 3 11.749 3.287 10.786 3.786" stroke="black" stroke-width="1.5" stroke-linecap="round" stroke-linejoin="round"/>
<path d="M10 11.9312V10.8892" stroke="black" stroke-width="1.5" stroke-linecap="round" stroke-linejoin="round"/>
<path d="M10 17.1108V16.0688" stroke="black" stroke-width="1.5" stroke-linecap="round" stroke-linejoin="round"/>
<path d="M11.789 12.9582L12.691 12.4442" stroke="black" stroke-width="1.5" stroke-linecap="round" stroke-linejoin="round"/>
<path d="M7.309 15.5549L8.195 15.0409" stroke="black" stroke-width="1.5" stroke-linecap="round" stroke-linejoin="round"/>
<path d="M11.789 15.0418L12.691 15.5558" stroke="black" stroke-width="1.5" stroke-linecap="round" stroke-linejoin="round"/>
<path d="M7.309 12.4451L8.195 12.9591" stroke="black" stroke-width="1.5" stroke-linecap="round" stroke-linejoin="round"/>
<path d="M10 11.9248C11.147 11.9248 12.075 12.8528 12.075 13.9998C12.075 15.1468 11.147 16.0748 10 16.0748C8.853 16.0748 7.925 15.1448 7.925 13.9998C7.925 12.8548 8.853 11.9248 10 11.9248" stroke="black" stroke-width="1.5" stroke-linecap="round" stroke-linejoin="round"/>
</svg>
