<svg width="24" height="24" viewBox="0 0 24 24" fill="none" xmlns="http://www.w3.org/2000/svg">
<path d="M2.99625 13.0007V5.99783C2.99625 4.34014 4.33981 2.99658 5.9975 2.99658H18.0025C19.6602 2.99658 21.0037 4.34014 21.0037 5.99783V18.0028C21.0037 19.6605 19.6602 21.0041 18.0025 21.0041H12" stroke="black" stroke-width="1.5" stroke-linecap="round" stroke-linejoin="round"/>
<path fill-rule="evenodd" clip-rule="evenodd" d="M10.6864 11.2819L12.6683 13.2637L15.5015 10.4966C15.5385 10.4606 15.6005 10.4726 15.6225 10.5186C16.3558 12.0863 16.0127 14.0171 14.7171 15.3116C13.4626 16.5661 11.6789 16.8963 10.1592 16.302L5.98649 20.4748C5.3022 21.158 4.19274 21.158 3.50946 20.4748C2.82617 19.7905 2.82617 18.681 3.50946 17.9977L7.64918 13.858C7.05393 12.3394 7.38507 10.5556 8.63959 9.3001C9.93213 8.00756 11.8589 7.72644 13.4276 8.39772C13.4746 8.41873 13.4866 8.48276 13.4506 8.51977L10.6864 11.2819Z" stroke="black" stroke-width="1.5" stroke-linecap="round" stroke-linejoin="round"/>
</svg>
