<svg width="24" height="24" viewBox="0 0 24 24" fill="none" xmlns="http://www.w3.org/2000/svg">
<path d="M8.5 14.5C8.5 12.567 10.067 11 12 11V11C13.933 11 15.5 12.567 15.5 14.5" stroke="black" stroke-width="1.5" stroke-linecap="round" stroke-linejoin="round"/>
<path fill-rule="evenodd" clip-rule="evenodd" d="M15.5 9.5V14.5C15.5 16.433 13.933 18 12 18V18C10.067 18 8.5 16.433 8.5 14.5V9.5C8.5 7.567 10.067 6 12 6V6C13.933 6 15.5 7.567 15.5 9.5Z" stroke="black" stroke-width="1.5" stroke-linecap="round" stroke-linejoin="round"/>
<path fill-rule="evenodd" clip-rule="evenodd" d="M21 8V16C21 18.761 18.761 21 16 21H8C5.239 21 3 18.761 3 16V8C3 5.239 5.239 3 8 3H16C18.761 3 21 5.239 21 8Z" stroke="black" stroke-width="1.5" stroke-linecap="round" stroke-linejoin="round"/>
</svg>
