<svg width="24" height="24" viewBox="0 0 24 24" fill="none" xmlns="http://www.w3.org/2000/svg">
<path fill-rule="evenodd" clip-rule="evenodd" d="M12.5262 6.05273C12.8051 6.05273 13.054 6.22757 13.1485 6.48992L13.4846 7.42531C13.5374 7.57239 13.6405 7.69606 13.7757 7.77445L14.7761 8.34869C14.9111 8.42732 15.0697 8.455 15.2233 8.42672L16.2017 8.25065C16.476 8.20118 16.7519 8.32928 16.891 8.57078L17.4182 9.48216C17.5575 9.7237 17.5303 10.0266 17.3502 10.2395L16.7019 10.9998C16.6011 11.1189 16.5457 11.2699 16.5459 11.426V12.5765C16.5462 12.7318 16.6015 12.8821 16.7019 13.0006L17.3442 13.7599C17.5243 13.9728 17.5515 14.2757 17.4122 14.5173L16.885 15.4286C16.7459 15.6701 16.47 15.7982 16.1957 15.7488L15.2173 15.5727C15.0637 15.5444 14.9051 15.5721 14.7701 15.6507L13.7697 16.225C13.6345 16.3034 13.5314 16.427 13.4786 16.5741L13.1425 17.5095C13.048 17.7719 12.7991 17.9467 12.5202 17.9467H11.4738C11.1949 17.9467 10.946 17.7719 10.8515 17.5095L10.5154 16.5741C10.4626 16.427 10.3594 16.3034 10.2243 16.225L9.22383 15.6507C9.08889 15.5721 8.93025 15.5444 8.77665 15.5727L7.79824 15.7488C7.52394 15.7982 7.24811 15.6701 7.10895 15.4286L6.58273 14.5173C6.44261 14.2761 6.46946 13.9728 6.64976 13.7599L7.29803 13.0006C7.39893 12.8816 7.45424 12.7305 7.4541 12.5745V11.424C7.45377 11.2686 7.39848 11.1183 7.29803 10.9998L6.65576 10.2405C6.47546 10.0276 6.44862 9.72436 6.58874 9.48316L7.11496 8.57178C7.25412 8.33028 7.52994 8.20218 7.80424 8.25165L8.78265 8.42772C8.93625 8.456 9.09489 8.42832 9.22984 8.34969L10.2303 7.77545C10.3654 7.69706 10.4686 7.57339 10.5214 7.42631L10.8575 6.49092C10.952 6.22857 11.2009 6.05369 11.4798 6.05373L12.5262 6.05273Z" stroke="black" stroke-width="1.5" stroke-linecap="round" stroke-linejoin="round"/>
<rect x="2.99625" y="2.99609" width="18.0075" height="18.0075" rx="9" stroke="black" stroke-width="1.5" stroke-linecap="round" stroke-linejoin="round"/>
<circle cx="12" cy="11.9996" r="1.50063" stroke="black" stroke-width="1.5" stroke-linecap="round" stroke-linejoin="round"/>
</svg>
