<svg width="24" height="24" viewBox="0 0 24 24" fill="none" xmlns="http://www.w3.org/2000/svg">
<path d="M9.524 14.4798C8.157 13.1128 8.157 10.8978 9.524 9.53084C10.861 8.19284 13.135 8.19284 14.474 9.53084C15.841 10.8978 15.841 13.1128 14.474 14.4798C13.107 15.8458 10.89 15.8458 9.524 14.4798" stroke="black" stroke-width="1.5" stroke-linecap="round" stroke-linejoin="round"/>
<path d="M11.998 12.0049L14.476 9.52686" stroke="black" stroke-width="1.5" stroke-linecap="round" stroke-linejoin="round"/>
<path fill-rule="evenodd" clip-rule="evenodd" d="M16 21H8C5.239 21 3 18.761 3 16V8C3 5.239 5.239 3 8 3H16C18.761 3 21 5.239 21 8V16C21 18.761 18.761 21 16 21Z" stroke="black" stroke-width="1.5" stroke-linecap="round" stroke-linejoin="round"/>
</svg>
