<svg width="24" height="24" viewBox="0 0 24 24" fill="none" xmlns="http://www.w3.org/2000/svg">
<path fill-rule="evenodd" clip-rule="evenodd" d="M17.2122 13.1976L17.2448 13.1895C17.6902 13.0781 18.0026 12.678 18.0026 12.2189V11.7799C18.0026 11.3209 17.6902 10.9207 17.2448 10.8094L17.2122 10.8013C16.8726 10.7162 16.5934 10.4753 16.4596 10.1519C16.3257 9.82844 16.353 9.46071 16.5331 9.16058L16.5469 9.13768C16.7861 8.74339 16.7253 8.23676 16.3996 7.91023L16.0892 7.59982C15.7646 7.27521 15.2608 7.21317 14.8671 7.44935L14.8382 7.46668C14.5381 7.64673 14.1705 7.67393 13.8471 7.54002C13.5238 7.4061 13.2831 7.12691 13.1982 6.7874L13.19 6.75481C13.0786 6.30947 12.6785 5.99707 12.2195 5.99707H11.7805C11.3214 5.99707 10.9213 6.30948 10.8099 6.75482L10.8017 6.78751C10.7167 7.12704 10.4758 7.4062 10.1524 7.54005C9.82897 7.67391 9.46126 7.64663 9.16114 7.46652L9.13825 7.45277C8.74394 7.21354 8.23727 7.27432 7.91074 7.60002L7.60034 7.91042C7.27572 8.23496 7.21365 8.73879 7.4498 9.13241L7.46689 9.16089C7.647 9.46101 7.67428 9.82872 7.54043 10.1521C7.40658 10.4756 7.12742 10.7164 6.78789 10.8015L6.7553 10.8097C6.30998 10.921 5.99756 11.3211 5.99756 11.7802V12.2192C5.99756 12.6782 6.30982 13.0783 6.75507 13.1896L6.78743 13.1977C7.12702 13.2826 7.40632 13.5233 7.54037 13.8466C7.67442 14.17 7.64736 14.5377 7.46742 14.8379L7.45012 14.8668C7.21396 15.2604 7.27599 15.7642 7.60057 16.0888L7.91101 16.3993C8.23548 16.7239 8.73924 16.786 9.1328 16.5498L9.16141 16.5326C9.46154 16.3525 9.82926 16.3252 10.1527 16.4591C10.4761 16.5929 10.717 16.8721 10.8021 17.2117L10.8102 17.2443C10.9216 17.6896 11.3217 18.002 11.7807 18.002H12.2198C12.6788 18.002 13.0789 17.6897 13.1902 17.2445L13.1983 17.2121C13.2831 16.8725 13.5239 16.5932 13.8472 16.4592C14.1705 16.3252 14.5383 16.3522 14.8385 16.5322L14.8673 16.5495C15.2609 16.7856 15.7648 16.7236 16.0894 16.399L16.3999 16.0886C16.7244 15.7641 16.7865 15.2603 16.5504 14.8668L16.5332 14.8382C16.3531 14.5381 16.3259 14.1704 16.4597 13.847C16.5936 13.5236 16.8727 13.2827 17.2122 13.1976Z" stroke="black" stroke-width="1.5" stroke-linecap="round" stroke-linejoin="round"/>
<circle cx="12" cy="11.9998" r="9.00375" stroke="black" stroke-width="1.5" stroke-linecap="round" stroke-linejoin="round"/>
<circle cx="12" cy="11.9996" r="1.50063" stroke="black" stroke-width="1.5" stroke-linecap="round" stroke-linejoin="round"/>
</svg>
