<svg width="24" height="24" viewBox="0 0 24 24" fill="none" xmlns="http://www.w3.org/2000/svg">
<path fill-rule="evenodd" clip-rule="evenodd" d="M3.9 15.6468L5.298 15.8608C6.33 16.0188 7.067 16.9428 6.991 17.9838L6.888 19.3948C6.858 19.8058 7.082 20.1928 7.453 20.3718L8.487 20.8698C8.858 21.0488 9.301 20.9818 9.604 20.7028L10.643 19.7428C11.409 19.0348 12.591 19.0348 13.358 19.7428L14.397 20.7028C14.7 20.9828 15.142 21.0488 15.514 20.8698L16.55 20.3708C16.92 20.1928 17.143 19.8068 17.113 19.3968L17.01 17.9838C16.934 16.9428 17.671 16.0188 18.703 15.8608L20.101 15.6468C20.508 15.5848 20.836 15.2798 20.928 14.8778L21.183 13.7598C21.275 13.3578 21.112 12.9408 20.772 12.7088L19.605 11.9098C18.744 11.3198 18.481 10.1678 19.001 9.26278L19.706 8.03678C19.911 7.67978 19.877 7.23278 19.62 6.91078L18.905 6.01378C18.648 5.69178 18.22 5.55878 17.826 5.67978L16.474 6.09378C15.475 6.39978 14.41 5.88678 14.026 4.91578L13.508 3.60278C13.356 3.21878 12.985 2.96678 12.572 2.96778L11.426 2.97078C11.013 2.97178 10.643 3.22578 10.493 3.61078L9.988 4.90878C9.608 5.88578 8.538 6.40278 7.536 6.09478L6.128 5.66278C5.733 5.54078 5.303 5.67478 5.046 5.99878L4.336 6.89678C4.079 7.22178 4.048 7.66978 4.257 8.02678L4.978 9.25578C5.509 10.1618 5.249 11.3248 4.383 11.9178L3.23 12.7078C2.89 12.9408 2.727 13.3578 2.819 13.7588L3.074 14.8768C3.165 15.2798 3.493 15.5848 3.9 15.6468V15.6468Z" stroke="black" stroke-width="1.5" stroke-linecap="round" stroke-linejoin="round"/>
<path d="M13.916 10.0835C14.974 11.1415 14.974 12.8575 13.916 13.9155C12.858 14.9735 11.142 14.9735 10.084 13.9155C9.026 12.8575 9.026 11.1415 10.084 10.0835C11.142 9.02554 12.858 9.02554 13.916 10.0835" stroke="black" stroke-width="1.5" stroke-linecap="round" stroke-linejoin="round"/>
</svg>
