<svg width="24" height="24" viewBox="0 0 24 24" fill="none" xmlns="http://www.w3.org/2000/svg">
<path fill-rule="evenodd" clip-rule="evenodd" d="M12.8003 2.99609C13.2224 2.99609 13.5991 3.26112 13.7417 3.65837L14.2499 5.07396C14.3306 5.29657 14.4872 5.4836 14.6921 5.60218L16.1998 6.47254C16.4045 6.59066 16.6444 6.63248 16.877 6.59059L18.3577 6.32348C18.7734 6.24788 19.1918 6.44168 19.4031 6.80768L20.2034 8.18826C20.4152 8.55326 20.3752 9.01193 20.1034 9.33473L19.132 10.4832C18.979 10.6638 18.895 10.8928 18.8949 11.1295V12.8702C18.895 13.1069 18.979 13.3359 19.132 13.5165L20.1034 14.665C20.3752 14.9878 20.4152 15.4464 20.2034 15.8114L19.4031 17.192C19.192 17.5576 18.7741 17.7514 18.3587 17.6762L16.878 17.4091C16.6454 17.3672 16.4055 17.409 16.2008 17.5271L14.6931 18.3975C14.4882 18.5161 14.3316 18.7031 14.2509 18.9257L13.7427 20.3413C13.5999 20.7389 13.2228 21.004 12.8003 21.0036H11.1997C10.7776 21.0036 10.4009 20.7386 10.2583 20.3413L9.75007 18.9257C9.66942 18.7034 9.51328 18.5165 9.30888 18.3975L7.80025 17.5271C7.59553 17.409 7.35559 17.3672 7.12297 17.4091L5.64235 17.6762C5.22659 17.7518 4.80816 17.558 4.59692 17.192L3.79659 15.8114C3.58478 15.4464 3.62481 14.9878 3.89663 14.665L4.86803 13.5165C5.02103 13.3359 5.10504 13.1069 5.10513 12.8702V11.1295C5.10504 10.8928 5.02103 10.6638 4.86803 10.4832L3.90663 9.33473C3.63481 9.01193 3.59479 8.55326 3.80659 8.18826L4.60692 6.80768C4.81803 6.44207 5.23592 6.24833 5.65136 6.32348L7.13197 6.59059C7.36459 6.63248 7.60453 6.59066 7.80926 6.47254L9.31789 5.60218C9.52228 5.48322 9.67843 5.29628 9.75907 5.07396L10.2673 3.65837C10.4088 3.26421 10.7809 2.99993 11.1997 2.99609H12.8003Z" stroke="black" stroke-width="1.5" stroke-linecap="round" stroke-linejoin="round"/>
<circle cx="12" cy="12.0002" r="2.75115" stroke="black" stroke-width="1.5" stroke-linecap="round" stroke-linejoin="round"/>
</svg>
