<svg width="24" height="24" viewBox="0 0 24 24" fill="none" xmlns="http://www.w3.org/2000/svg">
<path d="M12 21H9C5.68629 21 3 18.3137 3 15V9C3 5.68629 5.68629 3 9 3H15C16.5913 3 18.1174 3.63214 19.2426 4.75736C20.3679 5.88258 21 7.4087 21 9V13" stroke="black" stroke-width="1.5" stroke-linecap="round" stroke-linejoin="round"/>
<path fill-rule="evenodd" clip-rule="evenodd" d="M13.0592 8.44263L15.5636 10.9464C15.843 11.2257 16 11.6045 16 11.9996C16 12.3946 15.8431 12.7735 15.5638 13.0528L15.5574 13.0592L13.0536 15.5637C12.7743 15.843 12.3955 16 12.0005 16C11.6054 16 11.2266 15.8431 10.9472 15.5638L10.9408 15.5574L8.43637 13.0537C8.157 12.7744 8.00003 12.3955 8 12.0005C7.99997 11.6054 8.15689 11.2266 8.43622 10.9472L8.4426 10.9409L10.9464 8.43637C11.2268 8.15589 11.6075 7.99883 12.0041 8.00001C12.4007 8.00118 12.7804 8.16049 13.0592 8.44262L13.0592 8.44263Z" stroke="black" stroke-width="1.5" stroke-linecap="round" stroke-linejoin="round"/>
<path d="M20 17.5L17.5 20L16 18.5" stroke="black" stroke-width="1.5" stroke-linecap="round" stroke-linejoin="round"/>
</svg>
