<svg width="24" height="24" viewBox="0 0 24 24" fill="none" xmlns="http://www.w3.org/2000/svg">
<path d="M19 9C16.791 9 15 7.209 15 5C15 2.791 16.791 1 19 1C21.21 1 23 2.791 23 5C23 7.209 21.21 9 19 9" stroke="black" stroke-width="1.5" stroke-linecap="round" stroke-linejoin="round"/>
<path d="M20.778 4.11084L18.556 6.33284L17.222 4.99984" stroke="black" stroke-width="1.5" stroke-linecap="round" stroke-linejoin="round"/>
<path d="M15 4H7C4.791 4 3 5.791 3 8V17C3 19.209 4.791 21 7 21H16C18.209 21 20 19.209 20 17V9" stroke="black" stroke-width="1.5" stroke-linecap="round" stroke-linejoin="round"/>
<path d="M11.5 9V10.172" stroke="black" stroke-width="1.5" stroke-linecap="round" stroke-linejoin="round"/>
<path d="M11.5 14.8281V16.0001" stroke="black" stroke-width="1.5" stroke-linecap="round" stroke-linejoin="round"/>
<path d="M8.47299 10.7501L9.48699 11.3281" stroke="black" stroke-width="1.5" stroke-linecap="round" stroke-linejoin="round"/>
<path d="M13.53 13.6719L14.527 14.2499" stroke="black" stroke-width="1.5" stroke-linecap="round" stroke-linejoin="round"/>
<path d="M8.47299 14.2499L9.48699 13.6719" stroke="black" stroke-width="1.5" stroke-linecap="round" stroke-linejoin="round"/>
<path d="M13.53 11.3281L14.527 10.7501" stroke="black" stroke-width="1.5" stroke-linecap="round" stroke-linejoin="round"/>
<path d="M11.5 10.166C12.79 10.166 13.834 11.212 13.834 12.5C13.834 13.788 12.79 14.834 11.5 14.834C10.21 14.834 9.16602 13.79 9.16602 12.5C9.16602 11.21 10.21 10.166 11.5 10.166" stroke="black" stroke-width="1.5" stroke-linecap="round" stroke-linejoin="round"/>
</svg>
