<svg width="24" height="24" viewBox="0 0 24 24" fill="none" xmlns="http://www.w3.org/2000/svg">
<path fill-rule="evenodd" clip-rule="evenodd" d="M9.65303 18.6366L10.1792 19.8201C10.4988 20.5398 11.2125 21.0036 12 21.0036V21.0036C12.7875 21.0036 13.5012 20.5398 13.8208 19.8201L14.347 18.6366C14.5343 18.2167 14.8494 17.8666 15.2474 17.6362V17.6362C15.6478 17.4052 16.1111 17.3068 16.5709 17.3551L17.8584 17.4921C18.6415 17.575 19.3998 17.1887 19.7932 16.5067V16.5067C20.1872 15.8251 20.1425 14.9753 19.6792 14.3388L18.9169 13.2914C18.6454 12.9156 18.5004 12.4634 18.5027 11.9998V11.9998C18.5026 11.5376 18.649 11.0872 18.9209 10.7133L19.6832 9.66587C20.1465 9.02936 20.1912 8.17958 19.7972 7.49797V7.49797C19.4038 6.81595 18.6455 6.42974 17.8624 6.51256L16.5749 6.64962C16.1151 6.6979 15.6518 6.5995 15.2514 6.3685V6.3685C14.8526 6.13683 14.5374 5.78488 14.351 5.36308L13.8208 4.17959C13.5012 3.45984 12.7875 2.99609 12 2.99609V2.99609C11.2125 2.99609 10.4988 3.45984 10.1792 4.17959L9.65303 5.36308C9.46658 5.78488 9.1514 6.13683 8.75265 6.3685V6.3685C8.35218 6.5995 7.88889 6.6979 7.4291 6.64962L6.13756 6.51256C5.35455 6.42974 4.59623 6.81595 4.20276 7.49797V7.49797C3.80877 8.17958 3.85347 9.02936 4.3168 9.66587L5.07912 10.7133C5.35098 11.0872 5.49738 11.5376 5.49729 11.9998V11.9998C5.49738 12.4621 5.35098 12.9125 5.07912 13.2864L4.3168 14.3338C3.85347 14.9703 3.80877 15.8201 4.20276 16.5017V16.5017C4.5966 17.1833 5.35464 17.5694 6.13756 17.4871L7.4251 17.3501C7.88489 17.3018 8.34818 17.4002 8.74865 17.6312V17.6312C9.14889 17.8622 9.46553 18.2142 9.65303 18.6366V18.6366Z" stroke="black" stroke-width="1.5"/>
<circle cx="12" cy="11.9997" r="2.6481" stroke="black" stroke-width="1.5" stroke-linecap="round" stroke-linejoin="round"/>
</svg>
