<svg width="24" height="24" viewBox="0 0 24 24" fill="none" xmlns="http://www.w3.org/2000/svg">
<path fill-rule="evenodd" clip-rule="evenodd" d="M15.5503 3.11862H15.5503C16.3756 3.3937 16.9321 4.16609 16.9319 5.03597V5.09069C16.9316 6.18978 17.8099 7.08751 18.9087 7.11127L19.0269 7.11383C19.7763 7.13003 20.4552 7.55981 20.7904 8.23029V8.23029C21.1795 9.00835 21.0268 9.94807 20.4116 10.563L20.3729 10.6017C19.5955 11.3786 19.5817 12.6345 20.3419 13.4283L20.4237 13.5136C20.9421 14.055 21.1183 14.8389 20.8812 15.55V15.55C20.6062 16.3753 19.8338 16.9319 18.9639 16.9316H18.9092C17.8101 16.9313 16.9124 17.8096 16.8886 18.9084L16.8861 19.0266C16.8698 19.7761 16.4401 20.4549 15.7696 20.7902V20.7902C14.9915 21.1792 14.0518 21.0266 13.4369 20.4113L13.3982 20.3726C12.6213 19.5952 11.3654 19.5814 10.5716 20.3417L10.4863 20.4234C9.94489 20.9419 9.16097 21.118 8.44984 20.881V20.881C7.62458 20.6059 7.06803 19.8335 7.06826 18.9636V18.9089C7.06856 17.8098 6.19027 16.9121 5.09144 16.8883L4.97325 16.8858C4.22381 16.8696 3.54495 16.4398 3.20973 15.7693V15.7693C2.82069 14.9913 2.97327 14.0516 3.58849 13.4367L3.6272 13.398C4.40458 12.621 4.41834 11.3652 3.65816 10.5714L3.57637 10.486C3.05791 9.94459 2.88178 9.16068 3.11882 8.44955V8.44955C3.3939 7.6243 4.16629 7.06774 5.03619 7.06798H5.09088C6.18996 7.06828 7.0877 6.18998 7.11145 5.09116L7.11401 4.97297C7.13021 4.22355 7.55997 3.54469 8.23043 3.20946V3.20946C9.00848 2.82043 9.94819 2.97306 10.5631 3.58834L10.6018 3.627C11.3787 4.40441 12.6346 4.41815 13.4284 3.65792L13.5137 3.57621C14.0551 3.05769 14.8391 2.88154 15.5503 3.11862Z" stroke="black" stroke-width="1.5" stroke-linecap="round" stroke-linejoin="round"/>
<circle cx="12" cy="12.0001" r="2.50104" stroke="black" stroke-width="1.5" stroke-linecap="round" stroke-linejoin="round"/>
</svg>
