<svg width="24" height="24" viewBox="0 0 24 24" fill="none" xmlns="http://www.w3.org/2000/svg">
<path d="M20.0033 17.002L17.5023 19.503L16.0017 18.0024" stroke="black" stroke-width="1.5" stroke-linecap="round" stroke-linejoin="round"/>
<path d="M13.0004 21.0036H7.99833C5.23576 21.0036 2.99625 18.7641 2.99625 16.0015V7.99818C2.99625 5.2356 5.23576 2.99609 7.99833 2.99609H16.0017C18.7642 2.99609 21.0037 5.2356 21.0037 7.99818V13.0003" stroke="black" stroke-width="1.5" stroke-linecap="round" stroke-linejoin="round"/>
<path fill-rule="evenodd" clip-rule="evenodd" d="M15.9242 13.3945L13.3946 15.9241C12.6244 16.6943 11.3756 16.6943 10.6054 15.9241L8.07579 13.3945C7.30559 12.6243 7.30559 11.3755 8.07579 10.6053L10.6054 8.07569C11.3756 7.3055 12.6244 7.3055 13.3946 8.07569L15.9242 10.6053C16.6944 11.3755 16.6944 12.6243 15.9242 13.3945V13.3945Z" stroke="black" stroke-width="1.5" stroke-linecap="round" stroke-linejoin="round"/>
</svg>
