<svg width="24" height="24" viewBox="0 0 24 24" fill="none" xmlns="http://www.w3.org/2000/svg">
<path d="M8.27078 12.0002C9.29999 10.9704 10.9691 10.9699 11.9989 11.9991L12 12.0002V12.0002C13.0298 13.0294 13.0303 14.6986 12.0011 15.7283L12 15.7294" stroke="black" stroke-width="1.5" stroke-linecap="round" stroke-linejoin="round"/>
<path fill-rule="evenodd" clip-rule="evenodd" d="M15.7292 11.9999L12 15.7291C11.5058 16.2237 10.8353 16.5016 10.1361 16.5018C9.43698 16.502 8.76637 16.2244 8.27185 15.7302L8.27079 15.7291V15.7291C7.77626 15.2349 7.49832 14.5644 7.49812 13.8653C7.49792 13.1661 7.77547 12.4955 8.26971 12.001L8.27079 11.9999L12 8.27071C12.4942 7.77618 13.1647 7.49825 13.8639 7.49805C14.563 7.49785 15.2336 7.7754 15.7282 8.26964L15.7292 8.27071V8.27071C16.2237 8.76495 16.5017 9.4354 16.5019 10.1346C16.5021 10.8337 16.2245 11.5043 15.7303 11.9989L15.7292 11.9999Z" stroke="black" stroke-width="1.5" stroke-linecap="round" stroke-linejoin="round"/>
<circle cx="12" cy="11.9998" r="9.00375" stroke="black" stroke-width="1.5" stroke-linecap="round" stroke-linejoin="round"/>
</svg>
