<svg width="24" height="24" viewBox="0 0 24 24" fill="none" xmlns="http://www.w3.org/2000/svg">
<path d="M10.6051 13.4226C11.1146 13.9321 11.1146 14.7582 10.6051 15.2677C10.0956 15.7772 9.26957 15.7772 8.76006 15.2677C8.25057 14.7582 8.25057 13.9321 8.76006 13.4226C9.26956 12.9132 10.0956 12.9132 10.6051 13.4226" stroke="black" stroke-width="1.5" stroke-linecap="round" stroke-linejoin="round"/>
<path fill-rule="evenodd" clip-rule="evenodd" d="M11.3798 8.96256L12.2601 9.25632C12.4617 9.32352 12.5981 9.51264 12.5981 9.7248V10.5686C12.5981 11.0477 12.9811 11.4394 13.4601 11.4499L14.2589 11.4672C14.4422 11.471 14.6073 11.5757 14.6899 11.7398L15.1046 12.5693C15.1997 12.7594 15.1622 12.9888 15.0125 13.1395L14.4153 13.7357C14.0765 14.0746 14.0707 14.6227 14.4019 14.9683L14.9539 15.5453C15.0806 15.6778 15.1238 15.8688 15.0653 16.0426L14.7715 16.9229C14.7043 17.1245 14.5152 17.2608 14.303 17.2608H13.4592C12.9801 17.2608 12.5885 17.6438 12.5779 18.1229L12.5606 18.9216C12.5568 19.105 12.4521 19.2701 12.288 19.3526L11.4585 19.7674C11.2685 19.8624 11.039 19.825 10.8883 19.6752L10.2921 19.0781C9.95327 18.7392 9.40511 18.7334 9.05951 19.0646L8.48255 19.6166C8.35007 19.7434 8.15903 19.7866 7.98527 19.728L7.10495 19.4342C6.90335 19.367 6.76703 19.1779 6.76703 18.9658V18.1219C6.76703 17.6429 6.38399 17.2512 5.90495 17.2406L5.10719 17.2234C4.92383 17.2195 4.75871 17.1149 4.67615 16.9507L4.26143 16.1213C4.16639 15.9312 4.20383 15.7018 4.35359 15.551L4.95071 14.9549C5.28959 14.616 5.29535 14.0678 4.96415 13.7222L4.41215 13.1453C4.28543 13.0128 4.24223 12.8218 4.30079 12.648L4.59455 11.7677C4.66175 11.5661 4.85087 11.4298 5.06303 11.4298H5.90687C6.38591 11.4298 6.77759 11.0467 6.78815 10.5677L6.80543 9.76896C6.80927 9.5856 6.91391 9.42048 7.07807 9.33792L7.90751 8.9232C8.09759 8.82816 8.32703 8.8656 8.47775 9.01536L9.07391 9.61248C9.41279 9.95136 9.96095 9.95712 10.3065 9.62592L10.8835 9.07392C11.0141 8.94816 11.2061 8.90496 11.3798 8.96256Z" stroke="black" stroke-width="1.5" stroke-linecap="round" stroke-linejoin="round"/>
<path fill-rule="evenodd" clip-rule="evenodd" d="M18.3408 9.99181L19.105 9.78637C19.2595 9.74509 19.3757 9.61645 19.4016 9.45805L19.5466 8.56621C19.5888 8.30797 19.7914 8.10541 20.0496 8.06317L20.9405 7.91821C21.0989 7.89229 21.2275 7.77613 21.2688 7.62157L21.4742 6.85741C21.5155 6.70189 21.4627 6.53773 21.3379 6.43597L20.6381 5.86381C20.4355 5.69773 20.3616 5.42125 20.4538 5.17645L20.7754 4.32973C20.832 4.17997 20.7965 4.01005 20.6822 3.89677L20.1226 3.33805C20.0093 3.22477 19.8394 3.18829 19.6896 3.24493L18.4339 3.72109L17.5853 2.68237C17.4835 2.55757 17.3184 2.50477 17.1638 2.54605L16.3997 2.75149C16.2451 2.79277 16.129 2.92141 16.103 3.07981L15.9581 3.97165C15.9158 4.22989 15.7133 4.43245 15.455 4.47469L14.5642 4.61965C14.4058 4.64557 14.2771 4.76173 14.2358 4.91629L14.0304 5.68045C13.9891 5.83501 14.0419 6.00013 14.1658 6.10189L14.8646 6.67309C15.0672 6.83917 15.1411 7.11565 15.048 7.36045L14.7264 8.20717C14.6698 8.35693 14.7053 8.52685 14.8195 8.64013L15.3792 9.19981C15.4925 9.31309 15.6624 9.34957 15.8122 9.29293L16.6598 8.97133C16.9046 8.87821 17.1811 8.95309 17.3462 9.15565L17.9184 9.85549C18.0211 9.98029 18.1862 10.0331 18.3408 9.99181V9.99181Z" stroke="black" stroke-width="1.5" stroke-linecap="round" stroke-linejoin="round"/>
</svg>
