<svg width="24" height="24" viewBox="0 0 24 24" fill="none" xmlns="http://www.w3.org/2000/svg">
<path fill-rule="evenodd" clip-rule="evenodd" d="M3 16V8C3 5.239 5.239 3 8 3H16C18.761 3 21 5.239 21 8V16C21 18.761 18.761 21 16 21H8C5.239 21 3 18.761 3 16Z" stroke="black" stroke-width="1.5" stroke-linecap="round" stroke-linejoin="round"/>
<path d="M6.5 15.5C6.5 14.395 7.395 13.5 8.5 13.5C9.605 13.5 10.5 14.395 10.5 15.5" stroke="black" stroke-width="1.5" stroke-linecap="round" stroke-linejoin="round"/>
<path fill-rule="evenodd" clip-rule="evenodd" d="M6.5 15.5V8.5C6.5 7.395 7.395 6.5 8.5 6.5V6.5C9.605 6.5 10.5 7.395 10.5 8.5V15.5C10.5 16.605 9.605 17.5 8.5 17.5V17.5C7.395 17.5 6.5 16.605 6.5 15.5Z" stroke="black" stroke-width="1.5" stroke-linecap="round" stroke-linejoin="round"/>
<path d="M17.5 8.5C17.5 9.605 16.605 10.5 15.5 10.5C14.395 10.5 13.5 9.605 13.5 8.5" stroke="black" stroke-width="1.5" stroke-linecap="round" stroke-linejoin="round"/>
<path fill-rule="evenodd" clip-rule="evenodd" d="M17.5 8.5V15.5C17.5 16.605 16.605 17.5 15.5 17.5V17.5C14.395 17.5 13.5 16.605 13.5 15.5V8.5C13.5 7.395 14.395 6.5 15.5 6.5V6.5C16.605 6.5 17.5 7.395 17.5 8.5Z" stroke="black" stroke-width="1.5" stroke-linecap="round" stroke-linejoin="round"/>
</svg>
