<svg width="24" height="24" viewBox="0 0 24 24" fill="none" xmlns="http://www.w3.org/2000/svg">
<path fill-rule="evenodd" clip-rule="evenodd" d="M10.05 17.2961L11.4 16.5861C11.776 16.3881 12.225 16.3881 12.601 16.5861L13.951 17.2961C14.386 17.5251 14.913 17.4861 15.31 17.1981L15.813 16.8321C16.21 16.5431 16.409 16.0541 16.326 15.5701L16.068 14.0671C15.996 13.6481 16.135 13.2211 16.439 12.9251L17.531 11.8611C17.883 11.5181 18.009 11.0051 17.858 10.5381L17.666 9.94613C17.514 9.47913 17.11 9.13813 16.624 9.06813L15.115 8.84913C14.695 8.78813 14.331 8.52413 14.143 8.14313L13.468 6.77613C13.251 6.33613 12.802 6.05713 12.311 6.05713H11.689C11.198 6.05713 10.749 6.33613 10.532 6.77613L9.85699 8.14313C9.66899 8.52413 9.30599 8.78813 8.88599 8.84913L7.37699 9.06813C6.89099 9.13913 6.48699 9.47913 6.33499 9.94613L6.14299 10.5381C5.99099 11.0051 6.11799 11.5181 6.46999 11.8611L7.56199 12.9251C7.86599 13.2211 8.00499 13.6491 7.93299 14.0671L7.67399 15.5701C7.59099 16.0541 7.78999 16.5431 8.18699 16.8321L8.68999 17.1981C9.08799 17.4861 9.61499 17.5241 10.05 17.2961V17.2961Z" stroke="black" stroke-width="1.5" stroke-linecap="round" stroke-linejoin="round"/>
<path fill-rule="evenodd" clip-rule="evenodd" d="M12 21V21C7.029 21 3 16.971 3 12V12C3 7.029 7.029 3 12 3V3C16.971 3 21 7.029 21 12V12C21 16.971 16.971 21 12 21Z" stroke="black" stroke-width="1.5" stroke-linecap="round" stroke-linejoin="round"/>
<path d="M12.354 11.646C12.549 11.841 12.549 12.158 12.354 12.353C12.159 12.548 11.842 12.548 11.647 12.353C11.452 12.158 11.452 11.841 11.647 11.646C11.842 11.451 12.158 11.451 12.354 11.646" stroke="black" stroke-width="1.5" stroke-linecap="round" stroke-linejoin="round"/>
</svg>
