<svg width="24" height="24" viewBox="0 0 24 24" fill="none" xmlns="http://www.w3.org/2000/svg">
<path d="M9.24885 15.7516C9.66307 15.7516 9.99885 15.4158 9.99885 15.0016C9.99885 14.5874 9.66307 14.2516 9.24885 14.2516V15.7516ZM6.99792 14.2516C6.5837 14.2516 6.24792 14.5874 6.24792 15.0016C6.24792 15.4158 6.5837 15.7516 6.99792 15.7516V14.2516ZM9.99885 15.0016C9.99885 14.5874 9.66307 14.2516 9.24885 14.2516C8.83464 14.2516 8.49885 14.5874 8.49885 15.0016H9.99885ZM13.5003 15.0016C13.5003 14.5874 13.1645 14.2516 12.7503 14.2516C12.3361 14.2516 12.0003 14.5874 12.0003 15.0016H13.5003ZM8.49885 15.0016C8.49885 15.4158 8.83464 15.7516 9.24885 15.7516C9.66307 15.7516 9.99885 15.4158 9.99885 15.0016H8.49885ZM12.0003 15.0016C12.0003 15.4158 12.3361 15.7516 12.7503 15.7516C13.1645 15.7516 13.5003 15.4158 13.5003 15.0016H12.0003ZM17.0021 15.7516C17.4163 15.7516 17.7521 15.4158 17.7521 15.0016C17.7521 14.5874 17.4163 14.2516 17.0021 14.2516V15.7516ZM12.7503 14.2516C12.3361 14.2516 12.0003 14.5874 12.0003 15.0016C12.0003 15.4158 12.3361 15.7516 12.7503 15.7516V14.2516ZM11.2497 9.74908C11.6639 9.74908 11.9997 9.4133 11.9997 8.99908C11.9997 8.58487 11.6639 8.24908 11.2497 8.24908V9.74908ZM6.99792 8.24908C6.5837 8.24908 6.24792 8.58487 6.24792 8.99908C6.24792 9.4133 6.5837 9.74908 6.99792 9.74908V8.24908ZM11.9997 8.99908C11.9997 8.58487 11.6639 8.24908 11.2497 8.24908C10.8355 8.24908 10.4997 8.58487 10.4997 8.99908H11.9997ZM15.5011 8.99908C15.5011 8.58487 15.1654 8.24908 14.7511 8.24908C14.3369 8.24908 14.0011 8.58487 14.0011 8.99908H15.5011ZM10.4997 8.99908C10.4997 9.4133 10.8355 9.74908 11.2497 9.74908C11.6639 9.74908 11.9997 9.4133 11.9997 8.99908H10.4997ZM14.0011 8.99908C14.0011 9.4133 14.3369 9.74908 14.7511 9.74908C15.1654 9.74908 15.5011 9.4133 15.5011 8.99908H14.0011ZM17.0021 9.74908C17.4163 9.74908 17.7521 9.4133 17.7521 8.99908C17.7521 8.58487 17.4163 8.24908 17.0021 8.24908V9.74908ZM14.7511 8.24908C14.3369 8.24908 14.0011 8.58487 14.0011 8.99908C14.0011 9.4133 14.3369 9.74908 14.7511 9.74908V8.24908ZM9.24885 14.2516H6.99792V15.7516H9.24885V14.2516ZM8.49885 15.0016C8.49885 16.3827 9.61847 17.5023 10.9996 17.5023V16.0023C10.4469 16.0023 9.99885 15.5543 9.99885 15.0016H8.49885ZM10.9996 17.5023C12.3807 17.5023 13.5003 16.3827 13.5003 15.0016H12.0003C12.0003 15.5543 11.5523 16.0023 10.9996 16.0023V17.5023ZM9.99885 15.0016C9.99885 14.4489 10.4469 14.0009 10.9996 14.0009V12.5009C9.61847 12.5009 8.49885 13.6205 8.49885 15.0016H9.99885ZM10.9996 14.0009C11.5523 14.0009 12.0003 14.4489 12.0003 15.0016H13.5003C13.5003 13.6205 12.3807 12.5009 10.9996 12.5009V14.0009ZM17.0021 14.2516H12.7503V15.7516H17.0021V14.2516ZM16.0017 20.2541H7.99833V21.7541H16.0017V20.2541ZM7.99833 20.2541C5.64997 20.2541 3.74625 18.3504 3.74625 16.002H2.24625C2.24625 19.1788 4.82155 21.7541 7.99833 21.7541V20.2541ZM3.74625 16.002V7.99867H2.24625V16.002H3.74625ZM3.74625 7.99867C3.74625 5.6503 5.64997 3.74658 7.99833 3.74658V2.24658C4.82155 2.24658 2.24625 4.82188 2.24625 7.99867H3.74625ZM7.99833 3.74658H16.0017V2.24658H7.99833V3.74658ZM16.0017 3.74658C18.35 3.74658 20.2537 5.6503 20.2537 7.99867H21.7537C21.7537 4.82188 19.1785 2.24658 16.0017 2.24658V3.74658ZM20.2537 7.99867V16.002H21.7537V7.99867H20.2537ZM20.2537 16.002C20.2537 18.3504 18.35 20.2541 16.0017 20.2541V21.7541C19.1785 21.7541 21.7537 19.1788 21.7537 16.002H20.2537ZM11.2497 8.24908H6.99792V9.74908H11.2497V8.24908ZM10.4997 8.99908C10.4997 10.3802 11.6193 11.4998 13.0004 11.4998V9.99981C12.4477 9.99981 11.9997 9.55177 11.9997 8.99908H10.4997ZM13.0004 11.4998C14.3815 11.4998 15.5011 10.3802 15.5011 8.99908H14.0011C14.0011 9.55177 13.5531 9.99981 13.0004 9.99981V11.4998ZM11.9997 8.99908C11.9997 8.44639 12.4477 7.99835 13.0004 7.99835V6.49835C11.6193 6.49835 10.4997 7.61797 10.4997 8.99908H11.9997ZM13.0004 7.99835C13.5531 7.99835 14.0011 8.44639 14.0011 8.99908H15.5011C15.5011 7.61797 14.3815 6.49835 13.0004 6.49835V7.99835ZM17.0021 8.24908H14.7511V9.74908H17.0021V8.24908Z" fill="black"/>
</svg>
