<svg width="24" height="24" viewBox="0 0 24 24" fill="none" xmlns="http://www.w3.org/2000/svg">
<path d="M12.9444 14.304C13.9408 13.3076 13.9408 11.6929 12.9444 10.6965C11.948 9.70011 10.3333 9.70011 9.33689 10.6965C8.34047 11.6929 8.34047 13.3076 9.33689 14.304C10.3323 15.3004 11.948 15.3004 12.9444 14.304" stroke="black" stroke-width="1.5" stroke-linecap="round" stroke-linejoin="round"/>
<path d="M17.5183 12.5001C17.5183 12.7812 17.4933 13.0614 17.4593 13.3335L18.9599 14.507C19.292 14.7681 19.3831 15.2333 19.172 15.5994L17.8374 17.9074C17.6263 18.2725 17.1792 18.4266 16.787 18.2705L15.4464 17.7323C15.1803 17.6253 14.8832 17.6703 14.6431 17.8283C14.436 17.9654 14.2219 18.0915 13.9998 18.2025C13.7437 18.3306 13.5566 18.5646 13.5156 18.8478L13.3115 20.2764C13.2515 20.6935 12.8934 21.0037 12.4712 21.0037H9.81009C9.38891 21.0037 9.03076 20.6935 8.97074 20.2764L8.76465 18.8458C8.72363 18.5636 8.53756 18.3306 8.28345 18.2015C8.06036 18.0885 7.84527 17.9604 7.63718 17.8233C7.39808 17.6663 7.10196 17.6243 6.83685 17.7303L5.49429 18.2695C5.10212 18.4266 4.65394 18.2725 4.44385 17.9064L3.10929 15.5984C2.89721 15.2323 2.98824 14.7661 3.32138 14.506L4.82201 13.3325C4.78799 13.0604 4.76198 12.7802 4.76198 12.4991C4.76198 12.219 4.78699 11.9379 4.82201 11.6658L3.32138 10.4923C2.98924 10.2312 2.89821 9.76598 3.10929 9.39983L4.44385 7.09187C4.65494 6.72672 5.10212 6.57265 5.49429 6.72872L6.83785 7.26794C7.10396 7.37599 7.40008 7.33397 7.63818 7.17591C7.84527 7.03785 8.06136 6.9118 8.28445 6.79775C8.53956 6.6687 8.72463 6.4366 8.76565 6.15348L8.97074 4.72388C9.02976 4.30671 9.38791 3.99658 9.80908 3.99658H11.1406" stroke="black" stroke-width="1.5" stroke-linecap="round" stroke-linejoin="round"/>
<path d="M15.0012 2.49609V7.99839" stroke="black" stroke-width="1.5" stroke-linecap="round" stroke-linejoin="round"/>
<path d="M18.0025 2.49609V7.99839" stroke="black" stroke-width="1.5" stroke-linecap="round" stroke-linejoin="round"/>
<path d="M21.0037 2.49609V7.99839" stroke="black" stroke-width="1.5" stroke-linecap="round" stroke-linejoin="round"/>
</svg>
