<svg width="24" height="24" viewBox="0 0 24 24" fill="none" xmlns="http://www.w3.org/2000/svg">
<path fill-rule="evenodd" clip-rule="evenodd" d="M13.6799 9.01317L13.6803 11.7504C13.6803 11.8884 13.5684 12.0004 13.4303 12.0004H10.5697C10.4316 12.0004 10.3197 11.8884 10.3197 11.7504L10.3201 9.01321C10.3222 8.62351 10.0977 8.2681 9.74485 8.10257C9.39204 7.93704 8.97521 7.99154 8.67681 8.24221C7.60952 9.18231 6.99858 10.5364 7 11.9587V12.0004C7 14.7618 9.23858 17.0004 12 17.0004C14.7614 17.0004 17 14.7618 17 12.0004V11.9587C17.0014 10.5364 16.3905 9.18227 15.3232 8.24216C15.0248 7.99149 14.608 7.93699 14.2551 8.10252C13.9023 8.26805 13.6778 8.62346 13.6799 9.01317Z" stroke="black" stroke-width="1.5" stroke-linecap="round" stroke-linejoin="round"/>
<rect x="3" y="3" width="18" height="18" rx="5" stroke="black" stroke-width="1.5" stroke-linecap="round" stroke-linejoin="round"/>
</svg>
