<svg width="24" height="24" viewBox="0 0 24 24" fill="none" xmlns="http://www.w3.org/2000/svg">
<path d="M18.364 5.63604C21.8787 9.15076 21.8787 14.8492 18.364 18.3639C14.8493 21.8787 9.1508 21.8787 5.6361 18.3639C2.12138 14.8492 2.12138 9.15074 5.6361 5.63604C9.15082 2.12132 14.8493 2.12132 18.364 5.63604" stroke="black" stroke-width="1.5" stroke-linecap="round" stroke-linejoin="round"/>
<path d="M7.5 9.5H12.5" stroke="black" stroke-width="1.5" stroke-linecap="round" stroke-linejoin="round"/>
<path d="M15.0607 8.43934C15.6465 9.02513 15.6465 9.97487 15.0607 10.5607C14.4749 11.1464 13.5252 11.1464 12.9394 10.5607C12.3536 9.97487 12.3536 9.02513 12.9394 8.43934C13.5252 7.85355 14.4749 7.85355 15.0607 8.43934" stroke="black" stroke-width="1.5" stroke-linecap="round" stroke-linejoin="round"/>
<path d="M16.5 9.5H15.5" stroke="black" stroke-width="1.5" stroke-linecap="round" stroke-linejoin="round"/>
<path d="M16.5 14.5H11.5" stroke="black" stroke-width="1.5" stroke-linecap="round" stroke-linejoin="round"/>
<path d="M11.0607 13.4393C11.6465 14.0251 11.6465 14.9749 11.0607 15.5607C10.4749 16.1464 9.52516 16.1464 8.93937 15.5607C8.35358 14.9749 8.35358 14.0251 8.93937 13.4393C9.52516 12.8536 10.4749 12.8536 11.0607 13.4393" stroke="black" stroke-width="1.5" stroke-linecap="round" stroke-linejoin="round"/>
<path d="M7.5 14.5H8.5" stroke="black" stroke-width="1.5" stroke-linecap="round" stroke-linejoin="round"/>
</svg>
