<svg width="24" height="24" viewBox="0 0 24 24" fill="none" xmlns="http://www.w3.org/2000/svg">
<path d="M17.2521 6.7479C19.3763 8.87217 20.0118 12.0669 18.8622 14.8424C17.7125 17.6179 15.0042 19.4276 12 19.4276C8.99583 19.4276 6.28747 17.6179 5.13783 14.8424C3.98818 12.0669 4.62365 8.87217 6.74792 6.7479C8.14081 5.35487 10.0301 4.57227 12 4.57227C13.9699 4.57227 15.8592 5.35487 17.2521 6.7479" stroke="black" stroke-width="1.5" stroke-linecap="round" stroke-linejoin="round"/>
<path d="M21.0038 12.0002H19.4277" stroke="black" stroke-width="1.5" stroke-linecap="round" stroke-linejoin="round"/>
<path d="M4.5723 12.0002H2.99625" stroke="black" stroke-width="1.5" stroke-linecap="round" stroke-linejoin="round"/>
<path d="M12 21.0038V19.4277" stroke="black" stroke-width="1.5" stroke-linecap="round" stroke-linejoin="round"/>
<path d="M12 2.99609V4.57214" stroke="black" stroke-width="1.5" stroke-linecap="round" stroke-linejoin="round"/>
<path d="M20.3183 8.55404L18.8618 9.15732" stroke="black" stroke-width="1.5" stroke-linecap="round" stroke-linejoin="round"/>
<path d="M5.13814 14.8421L3.68166 15.4454" stroke="black" stroke-width="1.5" stroke-linecap="round" stroke-linejoin="round"/>
<path d="M8.5544 3.68164L9.15774 5.1382" stroke="black" stroke-width="1.5" stroke-linecap="round" stroke-linejoin="round"/>
<path d="M15.4456 20.3189L14.8423 18.8623" stroke="black" stroke-width="1.5" stroke-linecap="round" stroke-linejoin="round"/>
<path d="M3.68166 8.55404L5.1382 9.15732" stroke="black" stroke-width="1.5" stroke-linecap="round" stroke-linejoin="round"/>
<path d="M18.8619 14.8421L20.3183 15.4454" stroke="black" stroke-width="1.5" stroke-linecap="round" stroke-linejoin="round"/>
<path d="M8.5544 20.3189L9.15774 18.8623" stroke="black" stroke-width="1.5" stroke-linecap="round" stroke-linejoin="round"/>
<path d="M15.4456 3.68164L14.8423 5.1382" stroke="black" stroke-width="1.5" stroke-linecap="round" stroke-linejoin="round"/>
<path d="M18.3666 18.3669L13.819 13.8193" stroke="black" stroke-width="1.5" stroke-linecap="round" stroke-linejoin="round"/>
<path d="M10.181 10.1814L5.6334 5.63379" stroke="black" stroke-width="1.5" stroke-linecap="round" stroke-linejoin="round"/>
<path d="M18.3666 5.63379L13.819 10.1814" stroke="black" stroke-width="1.5" stroke-linecap="round" stroke-linejoin="round"/>
<path d="M10.181 13.8193L5.6334 18.3669" stroke="black" stroke-width="1.5" stroke-linecap="round" stroke-linejoin="round"/>
<path d="M13.819 10.1812C14.5547 10.917 14.7748 12.0234 14.3766 12.9847C13.9785 13.9459 13.0405 14.5727 12 14.5727C10.9595 14.5727 10.0215 13.9459 9.62336 12.9847C9.2252 12.0234 9.44528 10.917 10.181 10.1812C10.6634 9.69878 11.3177 9.42773 12 9.42773C12.6823 9.42773 13.3366 9.69878 13.819 10.1812" stroke="black" stroke-width="1.5" stroke-linecap="round" stroke-linejoin="round"/>
</svg>
