<svg width="24" height="24" viewBox="0 0 24 24" fill="none" xmlns="http://www.w3.org/2000/svg">
<path fill-rule="evenodd" clip-rule="evenodd" d="M17.196 5L20.66 11C21.017 11.619 21.017 12.381 20.66 13L17.196 19C16.839 19.619 16.178 20 15.464 20H8.536C7.821 20 7.161 19.619 6.804 19L3.34 13C2.983 12.381 2.983 11.619 3.34 11L6.804 5C7.161 4.381 7.822 4 8.536 4H15.465C16.179 4 16.839 4.381 17.196 5Z" stroke="black" stroke-width="1.5" stroke-linecap="round" stroke-linejoin="round"/>
<path d="M14.7994 9.20058C16.3455 10.7467 16.3455 13.2534 14.7994 14.7995C13.2533 16.3455 10.7466 16.3455 9.20054 14.7995C7.65445 13.2534 7.65445 10.7467 9.20054 9.20058C10.7466 7.65449 13.2533 7.65449 14.7994 9.20058" stroke="black" stroke-width="1.5" stroke-linecap="round" stroke-linejoin="round"/>
</svg>
