<svg width="24" height="24" viewBox="0 0 24 24" fill="none" xmlns="http://www.w3.org/2000/svg">
<path fill-rule="evenodd" clip-rule="evenodd" d="M10.5444 16.1171L10.8705 16.8514C11.069 17.2975 11.5117 17.5849 12 17.5847V17.5847C12.4883 17.5849 12.931 17.2975 13.1295 16.8514L13.4556 16.1171C13.5715 15.8565 13.7669 15.6394 14.0138 15.4968V15.4968C14.2622 15.353 14.5498 15.2917 14.8352 15.3217L15.6355 15.4068C16.1214 15.4585 16.5921 15.2189 16.836 14.7955V14.7955C17.0801 14.3727 17.0522 13.8457 16.765 13.4509L16.2918 12.8017C16.1238 12.5688 16.0341 12.2885 16.0357 12.0013V12.0013C16.0349 11.7138 16.1257 11.4335 16.2948 11.201L16.768 10.5517C17.0554 10.1569 17.0829 9.62971 16.838 9.20718V9.20718C16.5939 8.784 16.1233 8.54441 15.6375 8.59592L14.8372 8.68096C14.5522 8.71096 14.2651 8.65003 14.0168 8.50689V8.50689C13.7694 8.3631 13.574 8.14453 13.4586 7.88263L13.1295 7.14832C12.9307 6.70255 12.4881 6.41559 12 6.41602V6.41602C11.5117 6.41577 11.069 6.70316 10.8705 7.14932L10.5444 7.88363C10.4287 8.14531 10.2333 8.36377 9.98616 8.50789V8.50789C9.73753 8.65092 9.4501 8.71183 9.16482 8.68196L8.36449 8.59692C7.87866 8.54541 7.40811 8.785 7.16399 9.20818V9.20818C6.91911 9.63071 6.94656 10.1579 7.23401 10.5527L7.70721 11.202C7.87633 11.4345 7.96708 11.7148 7.96632 12.0023V12.0023C7.96708 12.2899 7.87633 12.5702 7.70721 12.8027L7.23401 13.4519C6.94656 13.8468 6.91911 14.374 7.16399 14.7965V14.7965C7.40811 15.2197 7.87866 15.4593 8.36449 15.4078L9.16482 15.3227C9.44978 15.2927 9.73694 15.3537 9.98516 15.4968V15.4968C10.232 15.6398 10.4277 15.8568 10.5444 16.1171Z" stroke="black" stroke-width="1.5" stroke-linecap="round" stroke-linejoin="round"/>
<path fill-rule="evenodd" clip-rule="evenodd" d="M6.53373 19.539L4.46086 17.4661C3.52309 16.5281 2.99625 15.256 2.99625 13.9296V10.07C2.99625 8.74366 3.52309 7.47159 4.46086 6.53357L6.53373 4.4607C7.47175 3.52293 8.74382 2.99609 10.0702 2.99609H13.9288C15.2552 2.99609 16.5273 3.52293 17.4653 4.4607L19.5391 6.53457C20.4769 7.47259 21.0038 8.74466 21.0038 10.071V13.9286C21.0038 15.255 20.4769 16.5271 19.5391 17.4651L17.4673 19.538C16.5292 20.4764 15.2567 21.0036 13.9298 21.0036H10.0702C8.74382 21.0036 7.47175 20.4768 6.53373 19.539Z" stroke="black" stroke-width="1.5" stroke-linecap="round" stroke-linejoin="round"/>
<path d="M12 11.7501C11.862 11.7507 11.7505 11.8629 11.7509 12.0009C11.7513 12.1389 11.8633 12.2505 12.0013 12.2503C12.1393 12.2501 12.2511 12.1382 12.2511 12.0002C12.2514 11.9336 12.225 11.8697 12.1778 11.8227C12.1306 11.7757 12.0666 11.7496 12 11.7501" stroke="black" stroke-width="1.5" stroke-linecap="round" stroke-linejoin="round"/>
</svg>
