<svg width="24" height="24" viewBox="0 0 24 24" fill="none" xmlns="http://www.w3.org/2000/svg">
<path d="M18 5H21" stroke="black" stroke-width="1.5" stroke-linecap="round" stroke-linejoin="round"/>
<path d="M3 5H11" stroke="black" stroke-width="1.5" stroke-linecap="round" stroke-linejoin="round"/>
<path d="M13 12H21" stroke="black" stroke-width="1.5" stroke-linecap="round" stroke-linejoin="round"/>
<path d="M3 12H6" stroke="black" stroke-width="1.5" stroke-linecap="round" stroke-linejoin="round"/>
<path d="M18 19H21" stroke="black" stroke-width="1.5" stroke-linecap="round" stroke-linejoin="round"/>
<path d="M3 19H11" stroke="black" stroke-width="1.5" stroke-linecap="round" stroke-linejoin="round"/>
<path d="M17.414 3.58624C18.195 4.36724 18.195 5.63324 17.414 6.41424C16.633 7.19524 15.367 7.19524 14.586 6.41424C13.805 5.63324 13.805 4.36724 14.586 3.58624C15.367 2.80524 16.633 2.80524 17.414 3.58624" stroke="black" stroke-width="1.5" stroke-linecap="round" stroke-linejoin="round"/>
<path d="M9.414 10.5862C10.195 11.3672 10.195 12.6332 9.414 13.4142C8.633 14.1952 7.367 14.1952 6.586 13.4142C5.805 12.6332 5.805 11.3672 6.586 10.5862C7.367 9.80524 8.633 9.80524 9.414 10.5862" stroke="black" stroke-width="1.5" stroke-linecap="round" stroke-linejoin="round"/>
<path d="M17.414 17.5862C18.195 18.3672 18.195 19.6332 17.414 20.4142C16.633 21.1952 15.367 21.1952 14.586 20.4142C13.805 19.6332 13.805 18.3672 14.586 17.5862C15.367 16.8052 16.633 16.8052 17.414 17.5862" stroke="black" stroke-width="1.5" stroke-linecap="round" stroke-linejoin="round"/>
</svg>
