<svg width="24" height="24" viewBox="0 0 24 24" fill="none" xmlns="http://www.w3.org/2000/svg">
<path fill-rule="evenodd" clip-rule="evenodd" d="M10.4354 16.4254L10.7865 17.2148C10.9996 17.6943 11.4752 18.0032 12 18.0031V18.0031C12.5248 18.0032 13.0004 17.6943 13.2135 17.2148L13.5647 16.4254C13.6888 16.1441 13.899 15.9095 14.1649 15.7552V15.7552C14.4314 15.6008 14.7401 15.5353 15.0463 15.5681L15.9056 15.6581C16.4299 15.7168 16.9391 15.4591 17.2022 15.0018V15.0018C17.4646 14.5473 17.4348 13.9808 17.1261 13.5562L16.6179 12.8559C16.4357 12.6078 16.3365 12.3084 16.3348 12.0006V12.0006C16.335 11.6925 16.4327 11.3924 16.6139 11.1432L17.1221 10.4429C17.4312 10.0197 17.4626 9.4542 17.2022 8.99934V8.99934C16.9402 8.54458 16.4345 8.28724 15.9126 8.34306L15.0543 8.4331C14.7477 8.46602 14.4387 8.4005 14.1719 8.24602V8.24602C13.906 8.0917 13.6958 7.85703 13.5717 7.57575L13.2205 6.78642C13.0063 6.30457 12.5273 5.99515 12 5.99807V5.99807C11.4752 5.99793 10.9996 6.3069 10.7865 6.78642L10.4354 7.57575C10.3112 7.85703 10.101 8.0917 9.8351 8.24602V8.24602C9.56831 8.4005 9.25926 8.46602 8.95273 8.4331L8.09438 8.34306C7.57011 8.28433 7.06092 8.54207 6.79784 8.99934V8.99934C6.53538 9.45391 6.56518 10.0204 6.87387 10.4449L7.38208 11.1452C7.56435 11.3933 7.66346 11.6927 7.6652 12.0006V12.0006C7.66504 12.3087 7.56733 12.6088 7.38608 12.8579L6.87787 13.5582C6.56877 13.9815 6.53742 14.547 6.79784 15.0018V15.0018C7.05985 15.4566 7.56551 15.7139 8.08737 15.6581L8.94673 15.5681C9.25293 15.5353 9.56161 15.6008 9.8281 15.7552V15.7552C10.0966 15.9083 10.3094 16.1431 10.4354 16.4254Z" stroke="black" stroke-width="1.5" stroke-linecap="round" stroke-linejoin="round"/>
<circle cx="12" cy="11.9998" r="9.00375" stroke="black" stroke-width="1.5" stroke-linecap="round" stroke-linejoin="round"/>
<path d="M12.2504 12.0005C12.2502 12.1386 12.1383 12.2504 12.0002 12.2503C11.8622 12.2503 11.7503 12.1384 11.7502 12.0003C11.7502 11.8623 11.862 11.7503 12 11.7501C12.0664 11.75 12.1302 11.7764 12.1772 11.8234C12.2242 11.8703 12.2505 11.9341 12.2504 12.0005" stroke="black" stroke-width="1.5" stroke-linecap="round" stroke-linejoin="round"/>
</svg>
