<svg width="24" height="24" viewBox="0 0 24 24" fill="none" xmlns="http://www.w3.org/2000/svg">
<path fill-rule="evenodd" clip-rule="evenodd" d="M3 17.5V7C3 5.067 4.567 3.5 6.5 3.5V3.5C8.433 3.5 10 5.067 10 7V17.5C10 19.433 8.433 21 6.5 21V21C4.567 21 3 19.433 3 17.5Z" stroke="black" stroke-width="1.5" stroke-linecap="round" stroke-linejoin="round"/>
<path fill-rule="evenodd" clip-rule="evenodd" d="M21 7V17.5C21 19.433 19.433 21 17.5 21V21C15.567 21 14 19.433 14 17.5V7C14 5.067 15.567 3.5 17.5 3.5V3.5C19.433 3.5 21 5.067 21 7Z" stroke="black" stroke-width="1.5" stroke-linecap="round" stroke-linejoin="round"/>
<path d="M17.25 7.001C17.2506 7.13894 17.3627 7.25037 17.5007 7.25C17.6386 7.24963 17.7502 7.13761 17.75 6.99967C17.7498 6.86173 17.6379 6.75 17.5 6.75C17.4334 6.74962 17.3695 6.77598 17.3225 6.82316C17.2755 6.87035 17.2494 6.93441 17.25 7.001" stroke="black" stroke-width="1.5" stroke-linecap="round" stroke-linejoin="round"/>
<path d="M6.25001 17.501C6.25056 17.6389 6.36273 17.7504 6.50067 17.75C6.63861 17.7496 6.75019 17.6376 6.75 17.4997C6.74982 17.3617 6.63795 17.25 6.50001 17.25C6.43341 17.2496 6.36945 17.276 6.32246 17.3232C6.27546 17.3703 6.24936 17.4344 6.25001 17.501" stroke="black" stroke-width="1.5" stroke-linecap="round" stroke-linejoin="round"/>
</svg>
