<svg width="24" height="24" viewBox="0 0 24 24" fill="none" xmlns="http://www.w3.org/2000/svg">
<path fill-rule="evenodd" clip-rule="evenodd" d="M19.8183 13.797L19.8672 13.7847C20.5352 13.6177 21.0037 13.0175 21.0037 12.3289V11.6704C21.0037 10.9819 20.5351 10.3816 19.8671 10.2146L19.8181 10.2023C19.3088 10.0747 18.8901 9.71341 18.6893 9.22829C18.4885 8.74318 18.5294 8.19162 18.7996 7.74143L18.8202 7.7071C19.179 7.11565 19.0878 6.3557 18.5993 5.86591L18.1337 5.4003C17.6468 4.91339 16.891 4.82034 16.3006 5.17459L16.2572 5.2006C15.8071 5.47068 15.2556 5.51149 14.7706 5.31059C14.2856 5.1097 13.9244 4.69087 13.7971 4.18159L13.7849 4.1327C13.6178 3.46469 13.0176 2.99609 12.329 2.99609H11.6706C10.982 2.99609 10.3818 3.4647 10.2147 4.13272L10.2025 4.18174C10.0749 4.69102 9.71355 5.10975 9.22844 5.31054C8.74332 5.51132 8.19176 5.47042 7.74156 5.20028L7.70721 5.17968C7.11577 4.82088 6.35582 4.91205 5.86603 5.40056L5.40043 5.86616C4.9135 6.35297 4.82041 7.10872 5.17463 7.69915L5.20025 7.74187C5.4704 8.19207 5.51131 8.74362 5.31053 9.22875C5.10975 9.71387 4.69103 10.0752 4.18174 10.2028L4.13288 10.215C3.46489 10.382 2.99625 10.9822 2.99625 11.6708V12.3294C2.99625 13.0178 3.46463 13.618 4.13251 13.785L4.18105 13.7971C4.69041 13.9244 5.10934 14.2855 5.3104 14.7705C5.51147 15.2555 5.47088 15.8071 5.20099 16.2574L5.17505 16.3006C4.82081 16.8911 4.91385 17.6468 5.40071 18.1337L5.86636 18.5994C6.35307 19.0863 7.10871 19.1794 7.69907 18.8252L7.74197 18.7995C8.19217 18.5293 8.74373 18.4884 9.22886 18.6892C9.71398 18.89 10.0753 19.3087 10.2029 19.818L10.2152 19.8669C10.3822 20.5349 10.9824 21.0036 11.6709 21.0036H12.3295C13.0179 21.0036 13.6181 20.5352 13.7851 19.8673L13.7972 19.8187C13.9245 19.3094 14.2856 18.8904 14.7706 18.6894C15.2556 18.4883 15.8072 18.5289 16.2575 18.7988L16.3008 18.8248C16.8912 19.179 17.647 19.086 18.1339 18.5991L18.5996 18.1335C19.0864 17.6467 19.1795 16.8911 18.8254 16.3008L18.7996 16.2579C18.5295 15.8077 18.4886 15.2561 18.6894 14.771C18.8902 14.2859 19.309 13.9245 19.8183 13.797Z" stroke="black" stroke-width="1.5" stroke-linecap="round" stroke-linejoin="round"/>
<path d="M14.0435 10.7236L11.4891 13.278L9.95782 11.7454" stroke="black" stroke-width="1.5" stroke-linecap="round" stroke-linejoin="round"/>
</svg>
