<svg width="24" height="24" viewBox="0 0 24 24" fill="none" xmlns="http://www.w3.org/2000/svg">
<path fill-rule="evenodd" clip-rule="evenodd" d="M12.2641 6.52344C12.6532 6.52357 13.0005 6.76763 13.1325 7.13369L13.3686 7.78997C13.4172 7.92448 13.5118 8.0375 13.6357 8.1091L14.5561 8.63732C14.6814 8.70913 14.828 8.73462 14.9702 8.70935L15.6525 8.5863C16.0348 8.51718 16.4193 8.69525 16.6139 9.03148L16.878 9.48867C17.0728 9.82764 17.0327 10.2525 16.778 10.5491L16.3258 11.0793C16.233 11.1878 16.182 11.3258 16.1817 11.4685V12.5289C16.1813 12.6727 16.2324 12.8118 16.3258 12.9211L16.775 13.4523C17.0264 13.7496 17.064 14.1728 16.869 14.5098L16.6049 14.968C16.4101 15.304 16.0257 15.4819 15.6435 15.4131L14.9592 15.2901C14.8181 15.265 14.6726 15.2901 14.5481 15.3611L13.6257 15.8903C13.5018 15.9619 13.4072 16.075 13.3586 16.2095L13.1225 16.8657C12.9914 17.232 12.6441 17.4763 12.2551 17.476H11.7309C11.342 17.4757 10.9951 17.2317 10.8635 16.8657L10.6274 16.2095C10.5788 16.075 10.4842 15.9619 10.3603 15.8903L9.43793 15.3611C9.31376 15.2901 9.16858 15.265 9.02776 15.2901L8.34348 15.4131C7.96102 15.4818 7.57657 15.3033 7.38207 14.967L7.11796 14.5098C6.92323 14.1708 6.96331 13.7459 7.21801 13.4493L7.66919 12.9211C7.76159 12.8125 7.81231 12.6745 7.81225 12.5319V11.4695C7.81259 11.327 7.76223 11.1891 7.67019 11.0803L7.22001 10.5481C6.9688 10.2511 6.93117 9.82837 7.12597 9.49167L7.39008 9.03348C7.58492 8.69694 7.96973 8.51853 8.35248 8.5873L9.03576 8.71035C9.17691 8.73546 9.32239 8.71033 9.44693 8.63932L10.3693 8.1101C10.4932 8.0385 10.5878 7.92548 10.6364 7.79097L10.8725 7.13369C11.0042 6.76831 11.3505 6.52441 11.7389 6.52344H12.2641Z" stroke="black" stroke-width="1.5" stroke-linecap="round" stroke-linejoin="round"/>
<path fill-rule="evenodd" clip-rule="evenodd" d="M12 2.99609V2.99609C16.9726 2.99609 21.0037 7.02721 21.0037 11.9998V11.9998C21.0037 16.9725 16.9726 21.0036 12 21.0036V21.0036C7.02736 21.0036 2.99625 16.9725 2.99625 11.9998V11.9998C2.99625 7.02721 7.02736 2.99609 12 2.99609V2.99609Z" stroke="black" stroke-width="1.5" stroke-linecap="round" stroke-linejoin="round"/>
<path d="M12 11.7501C11.862 11.7507 11.7505 11.8629 11.7509 12.0009C11.7513 12.1389 11.8633 12.2505 12.0013 12.2503C12.1393 12.2501 12.2511 12.1382 12.2511 12.0002C12.2514 11.9336 12.225 11.8697 12.1778 11.8227C12.1306 11.7757 12.0666 11.7496 12 11.7501" stroke="black" stroke-width="1.5" stroke-linecap="round" stroke-linejoin="round"/>
</svg>
