<svg width="24" height="24" viewBox="0 0 24 24" fill="none" xmlns="http://www.w3.org/2000/svg">
<path d="M13.5006 9.74859C13.9148 9.74859 14.2506 9.41281 14.2506 8.99859C14.2506 8.58438 13.9148 8.24859 13.5006 8.24859V9.74859ZM6.99791 8.24859C6.5837 8.24859 6.24791 8.58438 6.24791 8.99859C6.24791 9.41281 6.5837 9.74859 6.99791 9.74859V8.24859ZM10.4994 14.2511C10.0852 14.2511 9.74937 14.5869 9.74937 15.0011C9.74937 15.4153 10.0852 15.7511 10.4994 15.7511V14.2511ZM17.0021 15.7511C17.4163 15.7511 17.7521 15.4153 17.7521 15.0011C17.7521 14.5869 17.4163 14.2511 17.0021 14.2511V15.7511ZM16.0017 20.2536H7.99833V21.7536H16.0017V20.2536ZM7.99833 20.2536C5.64997 20.2536 3.74625 18.3499 3.74625 16.0015H2.24625C2.24625 19.1783 4.82154 21.7536 7.99833 21.7536V20.2536ZM3.74625 16.0015V7.99818H2.24625V16.0015H3.74625ZM3.74625 7.99818C3.74625 5.64982 5.64997 3.74609 7.99833 3.74609V2.24609C4.82154 2.24609 2.24625 4.82139 2.24625 7.99818H3.74625ZM7.99833 3.74609H16.0017V2.24609H7.99833V3.74609ZM16.0017 3.74609C18.35 3.74609 20.2537 5.64982 20.2537 7.99818H21.7537C21.7537 4.82139 19.1785 2.24609 16.0017 2.24609V3.74609ZM20.2537 7.99818V16.0015H21.7537V7.99818H20.2537ZM20.2537 16.0015C20.2537 18.3499 18.35 20.2536 16.0017 20.2536V21.7536C19.1785 21.7536 21.7537 19.1783 21.7537 16.0015H20.2537ZM13.5006 8.24859H6.99791V9.74859H13.5006V8.24859ZM16.0017 9.99932H14.501V11.4993H16.0017V9.99932ZM14.501 9.99932C14.3627 9.99932 14.2506 9.88721 14.2506 9.74891H12.7506C12.7506 10.7156 13.5343 11.4993 14.501 11.4993V9.99932ZM14.2506 9.74891V8.24828H12.7506V9.74891H14.2506ZM14.2506 8.24828C14.2506 8.10998 14.3627 7.99786 14.501 7.99786V6.49786C13.5343 6.49786 12.7506 7.28155 12.7506 8.24828H14.2506ZM14.501 7.99786H16.0017V6.49786H14.501V7.99786ZM16.0017 7.99786C16.14 7.99786 16.2521 8.10998 16.2521 8.24828H17.7521C17.7521 7.28155 16.9684 6.49786 16.0017 6.49786V7.99786ZM16.2521 8.24828V9.74891H17.7521V8.24828H16.2521ZM16.2521 9.74891C16.2521 9.88721 16.14 9.99932 16.0017 9.99932V11.4993C16.9684 11.4993 17.7521 10.7156 17.7521 9.74891H16.2521ZM10.4994 15.7511H17.0021V14.2511H10.4994V15.7511ZM7.99833 14.0004H9.49895V12.5004H7.99833V14.0004ZM9.49895 14.0004C9.63726 14.0004 9.74937 14.1125 9.74937 14.2508H11.2494C11.2494 13.2841 10.4657 12.5004 9.49895 12.5004V14.0004ZM9.74937 14.2508V15.7514H11.2494V14.2508H9.74937ZM9.74937 15.7514C9.74937 15.8897 9.63726 16.0018 9.49895 16.0018V17.5018C10.4657 17.5018 11.2494 16.7181 11.2494 15.7514H9.74937ZM9.49895 16.0018H7.99833V17.5018H9.49895V16.0018ZM7.99833 16.0018C7.86003 16.0018 7.74791 15.8897 7.74791 15.7514H6.24791C6.24791 16.7181 7.0316 17.5018 7.99833 17.5018V16.0018ZM7.74791 15.7514V14.2508H6.24791V15.7514H7.74791ZM7.74791 14.2508C7.74791 14.1125 7.86003 14.0004 7.99833 14.0004V12.5004C7.0316 12.5004 6.24791 13.2841 6.24791 14.2508H7.74791Z" fill="black"/>
</svg>
