<svg width="24" height="24" viewBox="0 0 24 24" fill="none" xmlns="http://www.w3.org/2000/svg">
<path d="M19.9453 15.2606C21.2582 16.5735 21.2582 18.7022 19.9453 20.0152C18.6324 21.3281 16.5037 21.3281 15.1907 20.0152C13.8778 18.7022 13.8778 16.5735 15.1907 15.2606C16.5037 13.9476 18.6324 13.9476 19.9453 15.2606" stroke="black" stroke-width="1.5" stroke-linecap="round" stroke-linejoin="round"/>
<path fill-rule="evenodd" clip-rule="evenodd" d="M21.253 7.15281L18.355 10.0508C17.917 10.4888 17.208 10.4888 16.77 10.0508L13.872 7.15281C13.434 6.71481 13.434 6.00581 13.872 5.56781L16.77 2.66981C17.208 2.23181 17.917 2.23181 18.355 2.66981L21.253 5.56781C21.69 6.00581 21.69 6.71481 21.253 7.15281V7.15281Z" stroke="black" stroke-width="1.5" stroke-linecap="round" stroke-linejoin="round"/>
<path d="M8.73929 4.05453C10.0522 5.36747 10.0522 7.49617 8.73929 8.80912C7.42635 10.1221 5.29765 10.1221 3.9847 8.80912C2.67176 7.49618 2.67176 5.36748 3.9847 4.05453C5.29764 2.74159 7.42634 2.74159 8.73929 4.05453" stroke="black" stroke-width="1.5" stroke-linecap="round" stroke-linejoin="round"/>
<path fill-rule="evenodd" clip-rule="evenodd" d="M4.318 14.541H8.416C9.035 14.541 9.537 15.043 9.537 15.662V19.76C9.537 20.379 9.035 20.881 8.416 20.881H4.318C3.699 20.881 3.197 20.379 3.197 19.76V15.662C3.197 15.042 3.699 14.541 4.318 14.541V14.541Z" stroke="black" stroke-width="1.5" stroke-linecap="round" stroke-linejoin="round"/>
</svg>
