<svg width="24" height="24" viewBox="0 0 24 24" fill="none" xmlns="http://www.w3.org/2000/svg">
<path d="M18.3667 5.63327C21.8828 9.14946 21.8828 14.8503 18.3666 18.3665C14.8504 21.8826 9.14958 21.8826 5.6334 18.3665C2.11722 14.8503 2.1172 9.14946 5.63335 5.63327C7.32188 3.94472 9.61204 2.99609 12 2.99609C14.388 2.99609 16.6781 3.94472 18.3667 5.63327" stroke="black" stroke-width="1.5" stroke-linecap="round" stroke-linejoin="round"/>
<rect x="7.32505" y="12.6855" width="3.27636" height="3.27636" rx="1" stroke="black" stroke-width="1.5" stroke-linecap="round" stroke-linejoin="round"/>
<circle cx="14.9782" cy="14.3249" r="1.83176" stroke="black" stroke-width="1.5" stroke-linecap="round" stroke-linejoin="round"/>
<path fill-rule="evenodd" clip-rule="evenodd" d="M11.8629 6.80571L10.0712 9.907C10.0265 9.98446 10.0265 10.0799 10.0713 10.1573C10.1161 10.2347 10.1988 10.2823 10.2883 10.2822H13.8698C13.9592 10.2823 14.0419 10.2347 14.0867 10.1573C14.1315 10.0799 14.1316 9.98446 14.0869 9.907L12.2961 6.80571C12.2514 6.72833 12.1689 6.68066 12.0795 6.68066C11.9902 6.68066 11.9076 6.72833 11.8629 6.80571Z" stroke="black" stroke-width="1.5" stroke-linecap="round" stroke-linejoin="round"/>
</svg>
