<svg width="24" height="24" viewBox="0 0 24 24" fill="none" xmlns="http://www.w3.org/2000/svg">
<path d="M19.9453 15.2606C21.2582 16.5735 21.2582 18.7022 19.9453 20.0152C18.6324 21.3281 16.5037 21.3281 15.1907 20.0152C13.8778 18.7022 13.8778 16.5735 15.1907 15.2606C16.5037 13.9476 18.6324 13.9476 19.9453 15.2606" stroke="black" stroke-width="1.5" stroke-linecap="round" stroke-linejoin="round"/>
<path fill-rule="evenodd" clip-rule="evenodd" d="M21.253 7.15281L18.355 10.0508C17.917 10.4888 17.208 10.4888 16.77 10.0508L13.872 7.15281C13.435 6.71581 13.435 6.00581 13.872 5.56881L16.77 2.66981C17.208 2.23181 17.917 2.23181 18.355 2.66981L21.253 5.56781C21.69 6.00581 21.69 6.71481 21.253 7.15281V7.15281Z" stroke="black" stroke-width="1.5" stroke-linecap="round" stroke-linejoin="round"/>
<path fill-rule="evenodd" clip-rule="evenodd" d="M4.318 9.52994H8.416C9.035 9.52994 9.537 9.02794 9.537 8.40894V4.31094C9.537 3.69194 9.035 3.18994 8.416 3.18994H4.318C3.699 3.18994 3.197 3.69194 3.197 4.31094V8.40894C3.197 9.02794 3.699 9.52994 4.318 9.52994Z" stroke="black" stroke-width="1.5" stroke-linecap="round" stroke-linejoin="round"/>
<path fill-rule="evenodd" clip-rule="evenodd" d="M5.364 15.1559L2.88 19.1319C2.388 19.9189 2.954 20.9399 3.882 20.9399H8.851C9.779 20.9399 10.345 19.9189 9.853 19.1319L7.369 15.1569C6.906 14.4159 5.827 14.4159 5.364 15.1559V15.1559Z" stroke="black" stroke-width="1.5" stroke-linecap="round" stroke-linejoin="round"/>
</svg>
