<svg width="24" height="24" viewBox="0 0 24 24" fill="none" xmlns="http://www.w3.org/2000/svg">
<path fill-rule="evenodd" clip-rule="evenodd" d="M5.839 14.1932L3.168 16.0882C2.793 16.3542 2.636 16.8342 2.781 17.2702L3.785 20.2852C3.926 20.7122 4.325 21.0002 4.775 21.0002H8.111C8.561 21.0002 8.96 20.7122 9.102 20.2852L10.106 17.2702C10.251 16.8342 10.094 16.3542 9.719 16.0882L7.048 14.1932C6.685 13.9362 6.201 13.9362 5.839 14.1932Z" stroke="black" stroke-width="1.5"/>
<path fill-rule="evenodd" clip-rule="evenodd" d="M4.193 3.5H8.693C9.245 3.5 9.693 3.948 9.693 4.5V9C9.693 9.552 9.245 10 8.693 10H4.193C3.641 10 3.193 9.552 3.193 9V4.5C3.193 3.948 3.641 3.5 4.193 3.5Z" stroke="black" stroke-width="1.5" stroke-linecap="round" stroke-linejoin="round"/>
<path fill-rule="evenodd" clip-rule="evenodd" d="M17.633 14V14C15.7 14 14.133 15.567 14.133 17.5V17.5C14.133 19.433 15.7 21 17.633 21V21C19.566 21 21.133 19.433 21.133 17.5V17.5C21.133 15.567 19.566 14 17.633 14Z" stroke="black" stroke-width="1.5" stroke-linecap="round" stroke-linejoin="round"/>
<path fill-rule="evenodd" clip-rule="evenodd" d="M16.605 4.07L14.058 8.146C13.553 8.953 14.134 10 15.085 10H20.18C21.132 10 21.712 8.953 21.207 8.146L18.661 4.07C18.186 3.31 17.08 3.31 16.605 4.07Z" stroke="black" stroke-width="1.5" stroke-linecap="round" stroke-linejoin="round"/>
</svg>
