<svg width="24" height="24" viewBox="0 0 24 24" fill="none" xmlns="http://www.w3.org/2000/svg">
<path d="M19.9453 15.2606C21.2583 16.5735 21.2583 18.7022 19.9453 20.0152C18.6324 21.3281 16.5037 21.3281 15.1907 20.0152C13.8778 18.7022 13.8778 16.5735 15.1907 15.2606C16.5037 13.9476 18.6324 13.9476 19.9453 15.2606" stroke="black" stroke-width="1.5" stroke-linecap="round" stroke-linejoin="round"/>
<path d="M6.36002 9.79004V14.28" stroke="black" stroke-width="1.5" stroke-linecap="round" stroke-linejoin="round"/>
<path fill-rule="evenodd" clip-rule="evenodd" d="M8.603 20.9999H4.121C3.502 20.9999 3 20.4979 3 19.8789V15.3969C3 14.7779 3.502 14.2759 4.121 14.2759H8.603C9.222 14.2759 9.724 14.7779 9.724 15.3969V19.8789C9.724 20.4979 9.222 20.9999 8.603 20.9999Z" stroke="black" stroke-width="1.5" stroke-linecap="round" stroke-linejoin="round"/>
<path d="M17.57 14.2799V10.3799" stroke="black" stroke-width="1.5" stroke-linecap="round" stroke-linejoin="round"/>
<path d="M8.7393 4.05453C10.0522 5.36747 10.0522 7.49617 8.7393 8.80912C7.42636 10.1221 5.29766 10.1221 3.98471 8.80912C2.67177 7.49618 2.67177 5.36748 3.98471 4.05453C5.29765 2.74159 7.42634 2.74159 8.7393 4.05453" stroke="black" stroke-width="1.5" stroke-linecap="round" stroke-linejoin="round"/>
<path fill-rule="evenodd" clip-rule="evenodd" d="M21.253 7.15281L18.355 10.0508C17.917 10.4888 17.208 10.4888 16.77 10.0508L13.872 7.15281C13.434 6.71481 13.434 6.00581 13.872 5.56781L16.77 2.66981C17.208 2.23181 17.917 2.23181 18.355 2.66981L21.253 5.56781C21.69 6.00581 21.69 6.71481 21.253 7.15281V7.15281Z" stroke="black" stroke-width="1.5" stroke-linecap="round" stroke-linejoin="round"/>
<path d="M13.55 6.42969H9.72" stroke="black" stroke-width="1.5" stroke-linecap="round" stroke-linejoin="round"/>
</svg>
