<svg width="24" height="24" viewBox="0 0 24 24" fill="none" xmlns="http://www.w3.org/2000/svg">
<path fill-rule="evenodd" clip-rule="evenodd" d="M17.633 14.3901V14.3901C15.838 14.3901 14.383 15.8451 14.383 17.6401V17.6401C14.383 19.4351 15.838 20.8901 17.633 20.8901V20.8901C19.428 20.8901 20.883 19.4351 20.883 17.6401V17.6401C20.883 15.8451 19.428 14.3901 17.633 14.3901Z" stroke="black" stroke-width="1.5" stroke-linecap="round" stroke-linejoin="round"/>
<path fill-rule="evenodd" clip-rule="evenodd" d="M16.631 3.61581L14.147 7.59081C13.655 8.37781 14.221 9.39881 15.149 9.39881H20.118C21.046 9.39881 21.612 8.37781 21.12 7.59081L18.636 3.61581C18.173 2.87481 17.094 2.87481 16.631 3.61581V3.61581Z" stroke="black" stroke-width="1.5" stroke-linecap="round" stroke-linejoin="round"/>
<path fill-rule="evenodd" clip-rule="evenodd" d="M6.362 20.8882V20.8882C4.567 20.8882 3.112 19.4332 3.112 17.6382V17.6382C3.112 15.8432 4.567 14.3882 6.362 14.3882V14.3882C8.157 14.3882 9.612 15.8432 9.612 17.6382V17.6382C9.612 19.4332 8.157 20.8882 6.362 20.8882Z" stroke="black" stroke-width="1.5" stroke-linecap="round" stroke-linejoin="round"/>
<path fill-rule="evenodd" clip-rule="evenodd" d="M6.43201 3.11182V3.11182C4.63701 3.11182 3.18201 4.56682 3.18201 6.36182V6.36182C3.18201 8.15682 4.63701 9.61182 6.43201 9.61182V9.61182C8.22701 9.61182 9.68201 8.15682 9.68201 6.36182V6.36182C9.68201 4.56682 8.22701 3.11182 6.43201 3.11182Z" stroke="black" stroke-width="1.5" stroke-linecap="round" stroke-linejoin="round"/>
</svg>
