<svg width="24" height="24" viewBox="0 0 24 24" fill="none" xmlns="http://www.w3.org/2000/svg">
<path fill-rule="evenodd" clip-rule="evenodd" d="M13.307 3.54124L15.734 5.96824C16.455 6.68924 16.455 7.86024 15.734 8.58224L13.307 11.0092C12.586 11.7302 11.415 11.7302 10.693 11.0092L8.266 8.58224C7.545 7.86124 7.545 6.69024 8.266 5.96824L10.693 3.54124C11.415 2.82024 12.585 2.82024 13.307 3.54124V3.54124Z" stroke="black" stroke-width="1.5" stroke-linecap="round" stroke-linejoin="round"/>
<path fill-rule="evenodd" clip-rule="evenodd" d="M21 15.6673V19.1343C21 20.1643 20.164 21.0003 19.133 21.0003H15.666C14.635 21.0003 13.799 20.1643 13.799 19.1333V15.6663C13.799 14.6363 14.635 13.7993 15.666 13.7993H19.133C20.164 13.8003 21 14.6363 21 15.6673Z" stroke="black" stroke-width="1.5" stroke-linecap="round" stroke-linejoin="round"/>
<path fill-rule="evenodd" clip-rule="evenodd" d="M3 17.4003V17.4003C3 15.4123 4.612 13.8003 6.6 13.8003V13.8003C8.588 13.8003 10.2 15.4123 10.2 17.4003V17.4003C10.2 19.3883 8.588 21.0003 6.6 21.0003V21.0003C4.612 21.0003 3 19.3883 3 17.4003Z" stroke="black" stroke-width="1.5" stroke-linecap="round" stroke-linejoin="round"/>
</svg>
