<svg width="24" height="24" viewBox="0 0 24 24" fill="none" xmlns="http://www.w3.org/2000/svg">
<path d="M9.84575 10.8213C10.4968 11.4723 10.4968 12.5278 9.84575 13.1788C9.19475 13.8298 8.13926 13.8298 7.48826 13.1788C6.83726 12.5277 6.83726 11.4723 7.48826 10.8213C8.13926 10.1703 9.19475 10.1703 9.84575 10.8213" stroke="black" stroke-width="1.5" stroke-linecap="round" stroke-linejoin="round"/>
<path d="M10.15 12.7402L13.85 14.5902" stroke="black" stroke-width="1.5" stroke-linecap="round" stroke-linejoin="round"/>
<path d="M13.85 9.41016L10.15 11.2602" stroke="black" stroke-width="1.5" stroke-linecap="round" stroke-linejoin="round"/>
<path d="M16.5117 7.48825C17.1627 8.13926 17.1627 9.19474 16.5117 9.84574C15.8607 10.4967 14.8052 10.4967 14.1542 9.84574C13.5032 9.19474 13.5032 8.13925 14.1542 7.48825C14.8052 6.83725 15.8607 6.83725 16.5117 7.48825" stroke="black" stroke-width="1.5" stroke-linecap="round" stroke-linejoin="round"/>
<path d="M16.5117 14.1543C17.1627 14.8053 17.1627 15.8608 16.5117 16.5118C15.8607 17.1628 14.8052 17.1628 14.1542 16.5118C13.5032 15.8608 13.5032 14.8053 14.1542 14.1543C14.8052 13.5033 15.8607 13.5033 16.5117 14.1543" stroke="black" stroke-width="1.5" stroke-linecap="round" stroke-linejoin="round"/>
<path fill-rule="evenodd" clip-rule="evenodd" d="M19 21H5C3.895 21 3 20.105 3 19V5C3 3.895 3.895 3 5 3H19C20.105 3 21 3.895 21 5V19C21 20.105 20.105 21 19 21Z" stroke="black" stroke-width="1.5" stroke-linecap="round" stroke-linejoin="round"/>
</svg>
