<svg width="24" height="24" viewBox="0 0 24 24" fill="none" xmlns="http://www.w3.org/2000/svg">
<path fill-rule="evenodd" clip-rule="evenodd" d="M11.4688 9.73405C8.63685 10.0552 6.49737 12.4513 6.49771 15.3014V15.6555C7.72763 14.1736 9.54323 13.3025 11.4688 13.2705V15.1393C11.4689 15.4105 11.6239 15.6579 11.8679 15.7763C12.1119 15.8947 12.4022 15.8633 12.6153 15.6955L17.2422 12.041C17.4066 11.9116 17.5026 11.714 17.5026 11.5048C17.5026 11.2956 17.4066 11.0979 17.2422 10.9686L12.6153 7.30904C12.4022 7.14124 12.1119 7.10988 11.8679 7.22827C11.6239 7.34667 11.4689 7.59403 11.4688 7.86527V9.73405Z" stroke="black" stroke-width="1.5" stroke-linecap="round" stroke-linejoin="round"/>
<rect x="2.99625" y="2.99609" width="18.0075" height="18.0075" rx="5" stroke="black" stroke-width="1.5" stroke-linecap="round" stroke-linejoin="round"/>
</svg>
