<svg width="24" height="24" viewBox="0 0 24 24" fill="none" xmlns="http://www.w3.org/2000/svg">
<path d="M14.0009 21.004H19.0029C20.1084 21.004 21.0038 20.1086 21.0038 19.0031V15.0015" stroke="black" stroke-width="1.5" stroke-linecap="round" stroke-linejoin="round"/>
<path d="M9.99916 2.99658H4.99708C3.89162 2.99658 2.99625 3.89195 2.99625 4.99742V9.9995" stroke="black" stroke-width="1.5" stroke-linecap="round" stroke-linejoin="round"/>
<path d="M18.7808 6.10889L16.5579 8.33181L15.2234 6.99826" stroke="black" stroke-width="1.5" stroke-linecap="round" stroke-linejoin="round"/>
<path fill-rule="evenodd" clip-rule="evenodd" d="M19.0029 10.9999H15.0013C13.8958 10.9999 13.0004 10.1045 13.0004 8.99908V4.99742C13.0004 3.89195 13.8958 2.99658 15.0013 2.99658H19.0029C20.1084 2.99658 21.0038 3.89195 21.0038 4.99742V8.99908C21.0038 10.1045 20.1084 10.9999 19.0029 10.9999Z" stroke="black" stroke-width="1.5" stroke-linecap="round" stroke-linejoin="round"/>
<path d="M3.25837 20.4788C3.40343 20.4788 3.52148 20.5979 3.52148 20.7419C3.52048 20.886 3.40243 21.004 3.25837 21.004C3.11431 21.004 2.99626 20.886 2.99726 20.7409C2.99626 20.5969 3.11331 20.4788 3.25837 20.4788" stroke="black" stroke-width="1.5" stroke-linecap="round" stroke-linejoin="round"/>
<path d="M2.99625 17.5024C5.0461 17.5475 6.45269 18.954 6.4977 21.0039" stroke="black" stroke-width="1.5" stroke-linecap="round" stroke-linejoin="round"/>
<path d="M9.99916 21.0039C9.98916 20.1175 9.8391 19.2882 9.57098 18.5279C8.8847 16.5851 7.41509 15.1154 5.47128 14.4272C4.71196 14.161 3.88262 14.011 2.99625 14.001" stroke="black" stroke-width="1.5" stroke-linecap="round" stroke-linejoin="round"/>
</svg>
