<svg width="24" height="24" viewBox="0 0 24 24" fill="none" xmlns="http://www.w3.org/2000/svg">
<path fill-rule="evenodd" clip-rule="evenodd" d="M7.96732 4.57396C5.13728 4.89489 2.99845 7.28811 2.99625 10.1363V10.4904C4.22616 9.00852 6.04177 8.13743 7.96732 8.10543V9.97421C7.96741 10.2454 8.1224 10.4928 8.36644 10.6112C8.61047 10.7296 8.90069 10.6982 9.11379 10.5304L13.7407 6.87592C13.9051 6.74656 14.0011 6.54891 14.0011 6.33969C14.0011 6.13048 13.9051 5.93283 13.7407 5.80347L9.11379 2.14995C8.90104 1.98142 8.6106 1.9495 8.36632 2.0678C8.12204 2.1861 7.96701 2.43376 7.96732 2.70518V4.57396Z" stroke="black" stroke-width="1.5" stroke-linecap="round" stroke-linejoin="round"/>
<path d="M15.0012 2.99609H16.0017C18.7642 2.99609 21.0037 5.2356 21.0037 7.99818V16.0015C21.0037 18.7641 18.7642 21.0036 16.0017 21.0036H7.99833C5.23576 21.0036 2.99625 18.7641 2.99625 16.0015V14.0007" stroke="black" stroke-width="1.5" stroke-linecap="round" stroke-linejoin="round"/>
</svg>
