<svg width="24" height="24" viewBox="0 0 24 24" fill="none" xmlns="http://www.w3.org/2000/svg">
<path d="M3.261 20.4748C3.116 20.4748 2.999 20.5928 3 20.7368C2.999 20.8818 3.117 20.9998 3.261 20.9998C3.405 20.9998 3.523 20.8818 3.523 20.7378C3.523 20.5938 3.406 20.4748 3.261 20.4748" stroke="black" stroke-width="1.5" stroke-linecap="round" stroke-linejoin="round"/>
<path d="M6.5 21C6.455 18.951 5.049 17.545 3 17.5" stroke="black" stroke-width="1.5" stroke-linecap="round" stroke-linejoin="round"/>
<path d="M3 14C3.885 14.01 4.715 14.16 5.474 14.428C7.417 15.115 8.886 16.583 9.572 18.526C9.84 19.285 9.99 20.115 10 21" stroke="black" stroke-width="1.5" stroke-linecap="round" stroke-linejoin="round"/>
<path d="M3 10V5C3 3.895 3.895 3 5 3H19C20.105 3 21 3.895 21 5V19C21 20.105 20.105 21 19 21H14" stroke="black" stroke-width="1.5" stroke-linecap="round" stroke-linejoin="round"/>
</svg>
