<svg width="24" height="24" viewBox="0 0 24 24" fill="none" xmlns="http://www.w3.org/2000/svg">
<path d="M17 3H18C19.657 3 21 4.343 21 6V18C21 19.657 19.657 21 18 21H6C4.343 21 3 19.657 3 18V16.986" stroke="black" stroke-width="1.5" stroke-linecap="round" stroke-linejoin="round"/>
<path fill-rule="evenodd" clip-rule="evenodd" d="M10 5.63701C6.175 5.63701 3 7.58901 3 12.148V13.063C4.294 10.069 6.98 9.76401 10 9.76401V11.65C10 12.301 10.772 12.643 11.254 12.206L15.754 8.12701C16.09 7.82301 16.081 7.29301 15.736 6.99901L11.236 3.18001C10.748 2.76601 10 3.11201 10 3.75101V5.63701Z" stroke="black" stroke-width="1.5" stroke-linecap="round" stroke-linejoin="round"/>
</svg>
