<svg width="24" height="24" viewBox="0 0 24 24" fill="none" xmlns="http://www.w3.org/2000/svg">
<path fill-rule="evenodd" clip-rule="evenodd" d="M12 3V3C16.971 3 21 7.029 21 12V12C21 16.971 16.971 21 12 21V21C7.029 21 3 16.971 3 12V12C3 7.029 7.029 3 12 3Z" stroke="black" stroke-width="1.5" stroke-linecap="round" stroke-linejoin="round"/>
<path d="M9.262 14.4748C9.117 14.4748 9 14.5928 9.001 14.7368C9 14.8818 9.118 14.9998 9.262 14.9998C9.406 14.9998 9.524 14.8818 9.524 14.7378C9.524 14.5938 9.407 14.4748 9.262 14.4748" stroke="black" stroke-width="1.5" stroke-linecap="round" stroke-linejoin="round"/>
<path d="M12.5 15C12.455 12.951 11.049 11.545 9 11.5" stroke="black" stroke-width="1.5" stroke-linecap="round" stroke-linejoin="round"/>
<path d="M9 8C9.885 8.01 10.715 8.16 11.474 8.428C13.417 9.115 14.886 10.583 15.572 12.526C15.84 13.285 15.99 14.115 16 15" stroke="black" stroke-width="1.5" stroke-linecap="round" stroke-linejoin="round"/>
</svg>
