<svg width="24" height="24" viewBox="0 0 24 24" fill="none" xmlns="http://www.w3.org/2000/svg">
<path d="M7.374 16.25C7.167 16.25 6.999 16.418 7.001 16.625C7 16.832 7.168 17 7.375 17C7.582 17 7.75 16.832 7.75 16.625C7.75 16.418 7.582 16.25 7.374 16.25" stroke="black" stroke-width="1.5" stroke-linecap="round" stroke-linejoin="round"/>
<path d="M12 17C11.936 14.073 9.927 12.064 7 12" stroke="black" stroke-width="1.5" stroke-linecap="round" stroke-linejoin="round"/>
<path d="M16.389 13.4658C15.408 10.6898 13.31 8.59184 10.534 7.61084" stroke="black" stroke-width="1.5" stroke-linecap="round" stroke-linejoin="round"/>
<path d="M17 16.9998C16.985 15.7358 16.772 14.5498 16.389 13.4658" stroke="black" stroke-width="1.5" stroke-linecap="round" stroke-linejoin="round"/>
<path d="M7 7.00016C8.264 7.01516 9.45 7.22816 10.534 7.61116" stroke="black" stroke-width="1.5" stroke-linecap="round" stroke-linejoin="round"/>
<path fill-rule="evenodd" clip-rule="evenodd" d="M5 3H19C20.105 3 21 3.895 21 5V19C21 20.105 20.105 21 19 21H5C3.895 21 3 20.105 3 19V5C3 3.895 3.895 3 5 3Z" stroke="black" stroke-width="1.5" stroke-linecap="round" stroke-linejoin="round"/>
</svg>
