<svg width="24" height="24" viewBox="0 0 24 24" fill="none" xmlns="http://www.w3.org/2000/svg">
<path d="M13.53 7.52002L9.47 10.56" stroke="black" stroke-width="1.5" stroke-linecap="round" stroke-linejoin="round"/>
<path d="M16.4048 4.64203C17.1983 5.43558 17.1983 6.72217 16.4048 7.51571C15.6113 8.30926 14.3247 8.30926 13.5311 7.51571C12.7376 6.72217 12.7376 5.43557 13.5311 4.64203C14.3247 3.84849 15.6113 3.84849 16.4048 4.64203" stroke="black" stroke-width="1.5" stroke-linecap="round" stroke-linejoin="round"/>
<path d="M13.53 16.4799L9.47 13.4399" stroke="black" stroke-width="1.5" stroke-linecap="round" stroke-linejoin="round"/>
<path d="M16.4048 16.4838C17.1983 17.2774 17.1983 18.564 16.4048 19.3575C15.6113 20.1511 14.3247 20.1511 13.5311 19.3575C12.7376 18.564 12.7376 17.2774 13.5311 16.4838C14.3247 15.6903 15.6113 15.6903 16.4048 16.4838" stroke="black" stroke-width="1.5" stroke-linecap="round" stroke-linejoin="round"/>
<path d="M9.46543 10.5643C10.2582 11.3571 10.2582 12.6424 9.46543 13.4351C8.67267 14.2279 7.38734 14.2279 6.59458 13.4351C5.80182 12.6424 5.80182 11.3571 6.59458 10.5643C7.38734 9.77154 8.67267 9.77154 9.46543 10.5643" stroke="black" stroke-width="1.5" stroke-linecap="round" stroke-linejoin="round"/>
</svg>
