<svg width="24" height="24" viewBox="0 0 24 24" fill="none" xmlns="http://www.w3.org/2000/svg">
<path d="M7.26003 16.4769C7.11499 16.4766 6.99719 16.5939 6.99692 16.739C6.99664 16.884 7.11399 17.0018 7.25903 17.0021C7.40406 17.0024 7.52186 16.885 7.52214 16.74C7.52274 16.6702 7.49535 16.6031 7.44609 16.5536C7.39683 16.5042 7.32982 16.4765 7.26003 16.4769" stroke="black" stroke-width="1.5" stroke-linecap="round" stroke-linejoin="round"/>
<path d="M10.4994 17.0026C10.5235 16.0668 10.1624 15.162 9.50045 14.5001C8.83848 13.8381 7.93376 13.477 6.99791 13.5011" stroke="black" stroke-width="1.5" stroke-linecap="round" stroke-linejoin="round"/>
<path d="M6.99791 9.99902C7.84084 10.0048 8.67705 10.1495 9.47294 10.4272C11.3958 11.093 12.9069 12.6041 13.5726 14.5269C13.8504 15.3228 13.995 16.159 14.0008 17.0019" stroke="black" stroke-width="1.5" stroke-linecap="round" stroke-linejoin="round"/>
<rect x="2.89621" y="2.99805" width="18.0075" height="18.0075" rx="5" stroke="black" stroke-width="1.5" stroke-linecap="round" stroke-linejoin="round"/>
</svg>
