<svg width="24" height="24" viewBox="0 0 24 24" fill="none" xmlns="http://www.w3.org/2000/svg">
<path d="M9.30988 10.9387C9.89613 11.525 9.89613 12.4753 9.30988 13.0616C8.72364 13.6478 7.77324 13.6478 7.187 13.0616C6.60075 12.4753 6.60075 11.525 7.187 10.9387C7.77324 10.3525 8.72364 10.3525 9.30988 10.9387" stroke="black" stroke-width="1.5" stroke-linecap="round" stroke-linejoin="round"/>
<path d="M9.584 12.6665L12.9154 14.3322" stroke="black" stroke-width="1.5" stroke-linecap="round" stroke-linejoin="round"/>
<path d="M12.9154 9.66846L9.584 11.3342" stroke="black" stroke-width="1.5" stroke-linecap="round" stroke-linejoin="round"/>
<path d="M15.3124 7.93747C15.8986 8.52371 15.8986 9.47411 15.3124 10.0604C14.7261 10.6466 13.7757 10.6466 13.1895 10.0604C12.6033 9.47411 12.6033 8.52371 13.1895 7.93747C13.7757 7.35222 14.7261 7.35222 15.3124 7.93747" stroke="black" stroke-width="1.5" stroke-linecap="round" stroke-linejoin="round"/>
<path d="M15.3124 13.9402C15.8986 14.5264 15.8986 15.4768 15.3124 16.0631C14.7261 16.6493 13.7757 16.6493 13.1895 16.0631C12.6033 15.4768 12.6033 14.5264 13.1895 13.9402C13.7757 13.3539 14.7261 13.3539 15.3124 13.9402" stroke="black" stroke-width="1.5" stroke-linecap="round" stroke-linejoin="round"/>
<circle cx="12" cy="12.0003" r="9.00375" stroke="black" stroke-width="1.5" stroke-linecap="round" stroke-linejoin="round"/>
</svg>
