<svg width="24" height="24" viewBox="0 0 24 24" fill="none" xmlns="http://www.w3.org/2000/svg">
<path d="M16.0017 9.99902H18.0025C19.1075 9.99902 20.0033 10.8948 20.0033 11.9999V19.0028C20.0033 20.1078 19.1075 21.0036 18.0025 21.0036H9.99915C8.89413 21.0036 7.99832 20.1078 7.99832 19.0028V17.0019" stroke="black" stroke-width="1.5" stroke-linecap="round" stroke-linejoin="round"/>
<path d="M12.5002 4.49714L9.99916 1.99609L7.49812 4.49714" stroke="black" stroke-width="1.5" stroke-linecap="round" stroke-linejoin="round"/>
<path d="M9.99916 10.9998V1.99609" stroke="black" stroke-width="1.5" stroke-linecap="round" stroke-linejoin="round"/>
<path d="M13.0004 6.99805H14.0008C15.1059 6.99805 16.0017 7.89385 16.0017 8.99888V15.0014C16.0017 16.1064 15.1059 17.0022 14.0008 17.0022H5.99749C4.89246 17.0022 3.99666 16.1064 3.99666 15.0014V8.99888C3.99666 7.89385 4.89246 6.99805 5.99749 6.99805H6.99791" stroke="black" stroke-width="1.5" stroke-linecap="round" stroke-linejoin="round"/>
</svg>
