<svg width="24" height="24" viewBox="0 0 24 24" fill="none" xmlns="http://www.w3.org/2000/svg">
<path fill-rule="evenodd" clip-rule="evenodd" d="M14.888 10.5441C11.444 10.5441 8.37901 11.7381 6.90401 15.0001V14.0001C6.90401 9.03206 10.526 6.04506 14.888 6.04506V3.88706C14.888 3.13206 15.771 2.72306 16.347 3.21206L21.687 7.74506C22.095 8.09006 22.106 8.71706 21.709 9.07606L16.369 13.9171C15.8 14.4321 14.888 14.0291 14.888 13.2611V10.5441Z" stroke="black" stroke-width="1.5" stroke-linecap="round" stroke-linejoin="round"/>
<path d="M10 3H5C3.895 3 3 3.895 3 5V19C3 20.105 3.895 21 5 21H19C20.105 21 21 20.105 21 19V15" stroke="black" stroke-width="1.5" stroke-linecap="round" stroke-linejoin="round"/>
</svg>
