<svg width="24" height="24" viewBox="0 0 24 24" fill="none" xmlns="http://www.w3.org/2000/svg">
<path fill-rule="evenodd" clip-rule="evenodd" d="M3.99667 11.1375V6.87275C3.99667 5.9976 4.56539 5.22399 5.4007 4.96295L11.4032 3.08717C11.7918 2.96573 12.2082 2.96573 12.5968 3.08717L18.5993 4.96295C19.4346 5.22399 20.0033 5.9976 20.0033 6.87275V11.1375C20.0033 15.3077 17.4165 19.0405 13.5119 20.5047L12.3513 20.9399C12.1248 21.0248 11.8752 21.0248 11.6487 20.9399L10.4881 20.5047C6.58347 19.0405 3.99667 15.3077 3.99667 11.1375Z" stroke="black" stroke-width="1.5" stroke-linecap="round" stroke-linejoin="round"/>
<path d="M12 7.97266V12.0005" stroke="black" stroke-width="1.5" stroke-linecap="round" stroke-linejoin="round"/>
<path d="M12.1251 15.1262C12.1251 15.1952 12.0691 15.2512 12 15.2512C11.9309 15.2512 11.875 15.1952 11.875 15.1262C11.875 15.0571 11.9309 15.0011 12 15.0011" stroke="black" stroke-width="1.5" stroke-linecap="round" stroke-linejoin="round"/>
<path d="M12 15.0012C12.0691 15.0012 12.1251 15.0571 12.1251 15.1262" stroke="black" stroke-width="1.5" stroke-linecap="round" stroke-linejoin="round"/>
</svg>
