<svg width="24" height="24" viewBox="0 0 24 24" fill="none" xmlns="http://www.w3.org/2000/svg">
<path fill-rule="evenodd" clip-rule="evenodd" d="M7 10.2198V13.0531C7 15.1715 9.96833 16.7448 11.3333 17.3565C11.7572 17.5478 12.2428 17.5478 12.6667 17.3565C14.0317 16.7448 17 15.1748 17 13.0531V10.2198C16.9994 9.51768 16.5589 8.89119 15.8983 8.65316L13.3533 7.73649C12.4775 7.42117 11.5191 7.42117 10.6433 7.73649L8.10167 8.65149C7.44052 8.88973 6.99985 9.51707 7 10.2198Z" stroke="black" stroke-width="1.5" stroke-linecap="round" stroke-linejoin="round"/>
<path fill-rule="evenodd" clip-rule="evenodd" d="M6.82843 19.8284L4.17157 17.1716C3.42143 16.4214 3 15.404 3 14.3432V9.65785C3 8.59699 3.42143 7.57957 4.17157 6.82943L6.82943 4.17157C7.57957 3.42143 8.59699 3 9.65785 3H14.3421C15.403 3 16.4204 3.42143 17.1706 4.17157L19.8284 6.82943C20.5786 7.57957 21 8.59699 21 9.65785V14.3432C21 15.4039 20.5787 16.4211 19.8289 17.1712L17.1729 19.828C16.4227 20.5784 15.4051 21 14.3441 21H9.65685C8.59599 21 7.57857 20.5786 6.82843 19.8284Z" stroke="black" stroke-width="1.5" stroke-linecap="round" stroke-linejoin="round"/>
<path d="M10.75 12.1533L11.75 13.1533L13.25 11.6533" stroke="black" stroke-width="1.5" stroke-linecap="round" stroke-linejoin="round"/>
</svg>
