<svg width="24" height="24" viewBox="0 0 24 24" fill="none" xmlns="http://www.w3.org/2000/svg">
<path fill-rule="evenodd" clip-rule="evenodd" d="M3.99664 11.2424V6.90957C3.99301 6.39495 4.38449 5.96346 4.89704 5.91716C7.28319 5.73031 9.54784 4.78843 11.3627 3.22804C11.7313 2.91878 12.2687 2.91878 12.6373 3.22804C14.4519 4.78885 16.7167 5.73079 19.103 5.91716C19.6157 5.96395 20.007 6.39575 20.0034 6.91057V11.2434C19.892 15.7593 16.864 19.6811 12.5232 20.9314C12.1814 21.0274 11.8196 21.0274 11.4778 20.9314C7.13624 19.6813 4.10769 15.7589 3.99664 11.2424Z" stroke="black" stroke-width="1.5" stroke-linecap="round" stroke-linejoin="round"/>
<path d="M9.99918 12.0002H14.0008" stroke="black" stroke-width="1.5" stroke-linecap="round" stroke-linejoin="round"/>
<path d="M12 14.0007V9.99902" stroke="black" stroke-width="1.5" stroke-linecap="round" stroke-linejoin="round"/>
</svg>
