<svg width="24" height="24" viewBox="0 0 24 24" fill="none" xmlns="http://www.w3.org/2000/svg">
<path d="M13.0004 20.9416C12.6685 20.9827 12.3344 21.0036 12 21.0036C7.02737 21.0036 2.99625 16.9725 2.99625 11.9998C2.99625 7.02721 7.02737 2.99609 12 2.99609C16.9726 2.99609 21.0037 7.02721 21.0037 11.9998C21.0037 12.3343 20.9829 12.6684 20.9417 13.0003" stroke="black" stroke-width="1.5" stroke-linecap="round" stroke-linejoin="round"/>
<path d="M20.0033 17.002L17.5023 19.503L16.0017 18.0024" stroke="black" stroke-width="1.5" stroke-linecap="round" stroke-linejoin="round"/>
<path fill-rule="evenodd" clip-rule="evenodd" d="M7.99627 12.0688V9.93637C7.99627 9.4988 8.28063 9.11199 8.69829 8.98147L11.6995 8.04358C11.8938 7.98287 12.102 7.98287 12.2963 8.04358L15.2976 8.98147C15.7152 9.11199 15.9996 9.49879 15.9996 9.93635V12.0688C15.9996 14.1538 14.7062 16.0202 12.7539 16.7524L12.1736 16.97C12.0604 17.0124 11.9356 17.0124 11.8224 16.97L11.2421 16.7524C9.28974 16.0203 7.99627 14.1539 7.99627 12.0688V12.0688Z" stroke="black" stroke-width="1.5" stroke-linecap="round" stroke-linejoin="round"/>
</svg>
