<svg width="24" height="24" viewBox="0 0 24 24" fill="none" xmlns="http://www.w3.org/2000/svg">
<path d="M18.364 5.63604C21.8787 9.15076 21.8787 14.8492 18.364 18.3639C14.8493 21.8787 9.1508 21.8787 5.6361 18.3639C2.12138 14.8492 2.12138 9.15074 5.6361 5.63604C9.15082 2.12132 14.8493 2.12132 18.364 5.63604" stroke="black" stroke-width="1.5" stroke-linecap="round" stroke-linejoin="round"/>
<path fill-rule="evenodd" clip-rule="evenodd" d="M16.538 11.8651C16.538 14.4411 14.602 16.8501 12 17.4351C9.39801 16.8501 7.46201 14.4411 7.46201 11.8651V9.84109C7.46201 9.38009 7.74101 8.96509 8.16701 8.79109L11.003 7.63009C11.642 7.36809 12.358 7.36809 12.996 7.63009L15.832 8.79109C16.259 8.96609 16.537 9.38009 16.537 9.84109V11.8651H16.538Z" stroke="black" stroke-width="1.5" stroke-linecap="round" stroke-linejoin="round"/>
</svg>
