<svg width="24" height="24" viewBox="0 0 24 24" fill="none" xmlns="http://www.w3.org/2000/svg">
<path d="M13.5227 7.59525C14.3698 8.44229 14.3698 9.81563 13.5227 10.6627C12.6757 11.5097 11.3023 11.5097 10.4553 10.6627C9.60825 9.81563 9.60825 8.4423 10.4553 7.59525C11.3023 6.7482 12.6757 6.7482 13.5227 7.59525" stroke="black" stroke-width="1.5" stroke-linecap="round" stroke-linejoin="round"/>
<path d="M8.188 12.8559C7.249 11.8929 6.668 10.5799 6.668 9.12886C6.668 7.67786 7.249 6.36386 8.188 5.40186" stroke="black" stroke-width="1.5" stroke-linecap="round" stroke-linejoin="round"/>
<path d="M5.78701 15.258C4.23201 13.681 3.26901 11.519 3.26901 9.129C3.26901 6.739 4.23101 4.577 5.78701 3" stroke="black" stroke-width="1.5" stroke-linecap="round" stroke-linejoin="round"/>
<path d="M11.99 20.9998V11.2998" stroke="black" stroke-width="1.5" stroke-linecap="round" stroke-linejoin="round"/>
<path d="M15.812 5.40186C16.751 6.36486 17.332 7.67786 17.332 9.12886C17.332 10.5799 16.751 11.8939 15.812 12.8559" stroke="black" stroke-width="1.5" stroke-linecap="round" stroke-linejoin="round"/>
<path d="M18.213 3C19.768 4.577 20.731 6.739 20.731 9.129C20.731 11.519 19.769 13.681 18.213 15.258" stroke="black" stroke-width="1.5" stroke-linecap="round" stroke-linejoin="round"/>
</svg>
