<svg width="24" height="24" viewBox="0 0 24 24" fill="none" xmlns="http://www.w3.org/2000/svg">
<path d="M10.4203 10.4201C11.2928 9.54778 12.7072 9.54778 13.5796 10.4201" stroke="black" stroke-width="1.5" stroke-linecap="round" stroke-linejoin="round"/>
<path d="M8.10949 8.10967C9.14128 7.07777 10.5408 6.49805 12 6.49805C13.4592 6.49805 14.8587 7.07777 15.8905 8.10967" stroke="black" stroke-width="1.5" stroke-linecap="round" stroke-linejoin="round"/>
<path d="M5.63353 5.63338C7.32196 3.94476 9.61207 2.99609 12 2.99609C14.3879 2.99609 16.678 3.94476 18.3665 5.63338" stroke="black" stroke-width="1.5" stroke-linecap="round" stroke-linejoin="round"/>
<path d="M20.0455 7.9541C21.9502 11.7421 20.9546 16.3457 17.6548 19.0081C14.355 21.6705 9.645 21.6705 6.34522 19.0081C3.04544 16.3457 2.0498 11.7421 3.95451 7.9541" stroke="black" stroke-width="1.5" stroke-linecap="round" stroke-linejoin="round"/>
<rect x="8.49854" y="14.001" width="7.00292" height="3.00125" rx="1.5" stroke="black" stroke-width="1.5" stroke-linecap="round" stroke-linejoin="round"/>
</svg>
