<svg width="24" height="24" viewBox="0 0 24 24" fill="none" xmlns="http://www.w3.org/2000/svg">
<path d="M12.5002 15.0016C12.5244 14.0658 12.1632 13.1611 11.5013 12.4991C10.8393 11.8371 9.9346 11.476 8.99875 11.5002" stroke="black" stroke-width="1.5" stroke-linecap="round" stroke-linejoin="round"/>
<path d="M8.99875 7.99805C9.84168 8.00384 10.6779 8.1485 11.4738 8.42623C13.3966 9.09202 14.9077 10.6031 15.5735 12.5259C15.8512 13.3218 15.9959 14.158 16.0017 15.001" stroke="black" stroke-width="1.5" stroke-linecap="round" stroke-linejoin="round"/>
<path fill-rule="evenodd" clip-rule="evenodd" d="M16.0017 21.0036H7.99833C5.23576 21.0036 2.99625 18.7641 2.99625 16.0015V7.99818C2.99625 5.2356 5.23576 2.99609 7.99833 2.99609H16.0017C18.7642 2.99609 21.0037 5.2356 21.0037 7.99818V16.0015C21.0037 18.7641 18.7642 21.0036 16.0017 21.0036Z" stroke="black" stroke-width="1.5" stroke-linecap="round" stroke-linejoin="round"/>
<path d="M9.3489 14.8264C9.3489 14.9231 9.27051 15.0015 9.17382 15.0015C9.07713 15.0015 8.99875 14.9231 8.99875 14.8264C8.99875 14.7297 9.07713 14.6513 9.17382 14.6513" stroke="black" stroke-width="1.5" stroke-linecap="round" stroke-linejoin="round"/>
<path d="M9.17381 14.651C9.2705 14.651 9.34888 14.7293 9.34888 14.826" stroke="black" stroke-width="1.5" stroke-linecap="round" stroke-linejoin="round"/>
</svg>
