<svg width="24" height="24" viewBox="0 0 24 24" fill="none" xmlns="http://www.w3.org/2000/svg">
<path d="M8.641 5.93896C7.636 6.83796 7 8.13996 7 9.59496C7 11.05 7.636 12.352 8.641 13.251" stroke="black" stroke-width="1.5" stroke-linecap="round" stroke-linejoin="round"/>
<path d="M15.359 13.251C16.364 12.352 17 11.049 17 9.59496C17 8.14096 16.364 6.83796 15.359 5.93896" stroke="black" stroke-width="1.5" stroke-linecap="round" stroke-linejoin="round"/>
<path d="M6.236 3C4.259 4.576 3 6.944 3 9.595C3 12.246 4.259 14.614 6.236 16.19" stroke="black" stroke-width="1.5" stroke-linecap="round" stroke-linejoin="round"/>
<path d="M17.764 16.19C19.741 14.614 21 12.245 21 9.595C21 6.945 19.741 4.576 17.764 3" stroke="black" stroke-width="1.5" stroke-linecap="round" stroke-linejoin="round"/>
<path d="M12 9.6001V21.0001" stroke="black" stroke-width="1.5" stroke-linecap="round" stroke-linejoin="round"/>
</svg>
