<svg width="24" height="24" viewBox="0 0 24 24" fill="none" xmlns="http://www.w3.org/2000/svg">
<path d="M12.0638 14.8707C12.0101 14.8707 11.9665 14.9143 11.9665 14.968C11.9665 15.0217 12.0101 15.0652 12.0638 15.0652C12.1175 15.0652 12.1611 15.0217 12.1611 14.968C12.1611 14.9143 12.1175 14.8707 12.0638 14.8707" stroke="black" stroke-width="1.5" stroke-linecap="round" stroke-linejoin="round"/>
<path d="M13.7367 10.4941C13.7367 11.6613 12.0638 12.0503 12.0638 12.8284" stroke="black" stroke-width="1.5" stroke-linecap="round" stroke-linejoin="round"/>
<path d="M10.2633 10.494C10.3158 9.58597 11.0917 8.89075 12 8.9378C12.9083 8.89075 13.6842 9.58597 13.7367 10.494" stroke="black" stroke-width="1.5" stroke-linecap="round" stroke-linejoin="round"/>
<path fill-rule="evenodd" clip-rule="evenodd" d="M4.50947 15.5355C2.55685 13.5829 2.55685 10.4171 4.50947 8.46447L8.46446 4.50947C10.4171 2.55685 13.5829 2.55685 15.5355 4.50947L19.4905 8.46447C21.4431 10.4171 21.4431 13.5829 19.4905 15.5355L15.5355 19.4905C13.5829 21.4431 10.4171 21.4431 8.46446 19.4905L4.50947 15.5355Z" stroke="black" stroke-width="1.5" stroke-linecap="round" stroke-linejoin="round"/>
<path fill-rule="evenodd" clip-rule="evenodd" d="M4.50947 15.5355C2.55685 13.5829 2.55685 10.4171 4.50947 8.46447L8.46446 4.50947C10.4171 2.55685 13.5829 2.55685 15.5355 4.50947L19.4905 8.46447C21.4431 10.4171 21.4431 13.5829 19.4905 15.5355L15.5355 19.4905C13.5829 21.4431 10.4171 21.4431 8.46446 19.4905L4.50947 15.5355Z" stroke="black" stroke-width="1.5" stroke-linecap="round" stroke-linejoin="round"/>
</svg>
