<svg width="24" height="24" viewBox="0 0 24 24" fill="none" xmlns="http://www.w3.org/2000/svg">
<path d="M21 12V12.045C21 14.386 19.448 16.444 17.197 17.087V17.087C15.245 17.645 13.147 17.026 11.81 15.498L8.36 11.555C7.496 10.567 6.247 10 4.934 10C4.323 10 3.718 10.125 3.155 10.363" stroke="black" stroke-width="1.5" stroke-linecap="round" stroke-linejoin="round"/>
<path d="M18.364 5.63604C21.8787 9.15076 21.8787 14.8492 18.364 18.3639C14.8493 21.8787 9.1508 21.8787 5.6361 18.3639C2.12138 14.8492 2.12138 9.15074 5.6361 5.63604C9.15082 2.12132 14.8493 2.12132 18.364 5.63604" stroke="black" stroke-width="1.5" stroke-linecap="round" stroke-linejoin="round"/>
<path d="M20.937 10.968L18.299 9.649C17.445 9.222 16.503 9 15.548 9V9C13.917 9 12.352 9.648 11.198 10.802L8.501 13.499C7.57 14.43 6.218 14.805 4.94 14.485V14.485C3.8 14.2 3 13.175 3 12V12" stroke="black" stroke-width="1.5" stroke-linecap="round" stroke-linejoin="round"/>
<path d="M20.558 14.779L17.974 13.487C17.334 13.167 16.627 13 15.911 13V13C14.687 13 13.514 13.486 12.649 14.351L10.556 16.444C9.138 17.862 6.687 18.008 5.151 16.718C3.789 15.575 3 13.886 3 12.103V12" stroke="black" stroke-width="1.5" stroke-linecap="round" stroke-linejoin="round"/>
</svg>
