<svg width="24" height="24" viewBox="0 0 24 24" fill="none" xmlns="http://www.w3.org/2000/svg">
<path d="M14.0008 8.76921L15.6075 8.08093C15.9164 7.9485 16.2712 7.98005 16.5519 8.1649C16.8326 8.34975 17.0017 8.66321 17.0021 8.99931V15.0018C17.0022 15.3159 16.8549 15.6118 16.6042 15.801C16.3535 15.9901 16.0285 16.0506 15.7265 15.9642L14.0008 15.47" stroke="black" stroke-width="1.5" stroke-linecap="round" stroke-linejoin="round"/>
<path fill-rule="evenodd" clip-rule="evenodd" d="M14.0008 16.0017V7.99836C14.0008 7.66208 13.8318 7.34831 13.5511 7.16322C13.2703 6.97813 12.9153 6.94648 12.6063 7.07897L7.60418 9.22287C7.23609 9.38066 6.99757 9.74276 6.99793 10.1432V14.5721C6.99768 15.0189 7.29369 15.4116 7.72323 15.5345L12.7253 16.9641C13.0273 17.0505 13.3523 16.99 13.603 16.8008C13.8537 16.6117 14.001 16.3158 14.0008 16.0017Z" stroke="black" stroke-width="1.5" stroke-linecap="round" stroke-linejoin="round"/>
<path d="M18.2876 5.69774C21.7599 9.17024 21.7597 14.8 18.2873 18.2724C14.8149 21.7447 9.18511 21.7447 5.7127 18.2724C2.2403 14.8 2.24016 9.17024 5.71239 5.69774C7.3798 4.02984 9.64159 3.09277 12 3.09277C14.3584 3.09277 16.6202 4.02984 18.2876 5.69774" stroke="black" stroke-width="1.5" stroke-linecap="round" stroke-linejoin="round"/>
</svg>
