<svg width="24" height="24" viewBox="0 0 24 24" fill="none" xmlns="http://www.w3.org/2000/svg">
<path fill-rule="evenodd" clip-rule="evenodd" d="M17.76 20.1736H6.24C4.64928 20.1736 3.36 18.8843 3.36 17.2936V5.77355C3.36 4.18283 4.64928 2.89355 6.24 2.89355H17.76C19.3507 2.89355 20.64 4.18283 20.64 5.77355V17.2936C20.64 18.8843 19.3507 20.1736 17.76 20.1736Z" stroke="black" stroke-width="1.5" stroke-linecap="round" stroke-linejoin="round"/>
<path d="M13.92 8.43259L15.4618 7.77211C16.0954 7.50043 16.8 7.96507 16.8 8.65435V14.4124C16.8 15.0499 16.1894 15.5107 15.576 15.3359L13.92 14.8627" stroke="black" stroke-width="1.5" stroke-linecap="round" stroke-linejoin="round"/>
<path fill-rule="evenodd" clip-rule="evenodd" d="M13.92 15.3725V7.69439C13.92 7.00511 13.2154 6.54047 12.5818 6.81215L7.78176 8.86943C7.42848 9.02015 7.2 9.36767 7.2 9.75167V14.0016C7.2 14.4297 7.48416 14.807 7.896 14.9251L12.696 16.2969C13.3094 16.4707 13.92 16.0109 13.92 15.3725V15.3725Z" stroke="black" stroke-width="1.5" stroke-linecap="round" stroke-linejoin="round"/>
</svg>
