<svg width="24" height="24" viewBox="0 0 24 24" fill="none" xmlns="http://www.w3.org/2000/svg">
<path d="M11.999 20.75C11.93 20.75 11.874 20.806 11.874 20.875C11.8748 20.9441 11.9309 20.9997 12 21C12.069 20.9997 12.1248 20.9435 12.1245 20.8745C12.1242 20.8055 12.068 20.7497 11.999 20.75" stroke="black" stroke-width="1.5" stroke-linecap="round" stroke-linejoin="round"/>
<rect x="3" y="3" width="18" height="14" rx="4" stroke="black" stroke-width="1.5" stroke-linecap="round" stroke-linejoin="round"/>
<path d="M16.088 20.7865C16.1238 20.8223 16.1345 20.8762 16.1151 20.9229C16.0958 20.9697 16.0501 21.0002 15.9995 21.0002C15.9489 21.0002 15.9033 20.9697 15.8839 20.9229C15.8645 20.8762 15.8752 20.8223 15.911 20.7865C15.9345 20.763 15.9663 20.7498 15.9995 20.7498C16.0327 20.7498 16.0646 20.763 16.088 20.7865" stroke="black" stroke-width="1.5" stroke-linecap="round" stroke-linejoin="round"/>
<path d="M8.08801 20.7865C8.12381 20.8223 8.13452 20.8762 8.11514 20.9229C8.09577 20.9697 8.05013 21.0002 7.99951 21.0002C7.94889 21.0002 7.90325 20.9697 7.88388 20.9229C7.86451 20.8762 7.87522 20.8223 7.91101 20.7865C7.93445 20.763 7.9663 20.7498 7.99951 20.7498C8.03272 20.7498 8.06457 20.763 8.08801 20.7865" stroke="black" stroke-width="1.5" stroke-linecap="round" stroke-linejoin="round"/>
</svg>
