<svg width="24" height="24" viewBox="0 0 24 24" fill="none" xmlns="http://www.w3.org/2000/svg">
<path fill-rule="evenodd" clip-rule="evenodd" d="M15.84 14.1671V13.4289C15.84 13.0622 15.6048 12.7348 15.2563 12.6196L13.2797 11.9611V10.2551L13.8739 9.87402C14.3117 9.59274 14.5162 9.05898 14.375 8.55786V8.55786C14.232 8.04618 13.7674 7.69482 13.2365 7.69482H10.7635C10.2336 7.69482 9.768 8.04714 9.624 8.55786V8.55786C9.48384 9.05898 9.68736 9.59274 10.1251 9.87402L10.7194 10.2551V11.962L8.74272 12.6206C8.3952 12.7348 8.16 13.0612 8.16 13.4289V14.1671C8.16 14.3927 8.24928 14.6107 8.41056 14.771L8.76384 15.1243C8.92416 15.2846 9.14112 15.3748 9.36768 15.3748H14.6342C14.8598 15.3748 15.0778 15.2855 15.2381 15.1243L15.5914 14.771C15.7507 14.6107 15.84 14.3937 15.84 14.1671V14.1671Z" stroke="black" stroke-width="1.5" stroke-linecap="round" stroke-linejoin="round"/>
<path d="M18.1094 5.42415C21.4836 8.79828 21.4836 14.2688 18.1094 17.6429C14.7353 21.0171 9.26477 21.0171 5.89066 17.6429C2.51652 14.2688 2.51652 8.79827 5.89066 5.42415C9.26479 2.05002 14.7353 2.05002 18.1094 5.42415" stroke="black" stroke-width="1.5" stroke-linecap="round" stroke-linejoin="round"/>
</svg>
