<svg width="24" height="24" viewBox="0 0 24 24" fill="none" xmlns="http://www.w3.org/2000/svg">
<path fill-rule="evenodd" clip-rule="evenodd" d="M16.0017 14.001C16.2956 13.9996 16.5753 14.1278 16.7662 14.3514C16.957 14.575 17.0396 14.8714 16.9921 15.1615L16.752 16.5821C16.7118 16.8223 16.5053 16.9993 16.2618 17.0022H7.69821C7.44817 17.0019 7.23574 16.8192 7.198 16.5721L7.00792 15.1315C6.97039 14.8462 7.05759 14.5585 7.24723 14.342C7.43687 14.1256 7.71056 14.0013 7.99833 14.001H16.0017V14.001Z" stroke="black" stroke-width="1.5" stroke-linecap="round" stroke-linejoin="round"/>
<path fill-rule="evenodd" clip-rule="evenodd" d="M7.99849 14.001C7.71012 14.001 7.43577 14.1254 7.2458 14.3424C7.05584 14.5594 6.96875 14.8478 7.00686 15.1336L7.19813 16.5681C7.23126 16.8166 7.44324 17.0022 7.69394 17.0022H16.2584C16.5029 17.0022 16.7116 16.8254 16.7518 16.5843L16.9882 15.1659C17.0366 14.8758 16.9548 14.5791 16.7648 14.3547C16.5747 14.1304 16.2955 14.001 16.0014 14.001H7.99849Z" stroke="black" stroke-width="1.5" stroke-linecap="round" stroke-linejoin="round"/>
<rect x="2.99625" y="2.99609" width="18.0075" height="18.0075" rx="5" stroke="black" stroke-width="1.5"/>
<path d="M13.4451 14.001L14.3502 9.92782C14.5642 8.96452 14.1688 7.96812 13.3524 7.41379C12.536 6.85946 11.464 6.85946 10.6476 7.41379C9.83122 7.96812 9.43576 8.96452 9.64984 9.92782L10.5549 14.001" stroke="black" stroke-width="1.5"/>
</svg>
