<svg width="24" height="24" viewBox="0 0 24 24" fill="none" xmlns="http://www.w3.org/2000/svg">
<path fill-rule="evenodd" clip-rule="evenodd" d="M7.99849 13.001C7.71012 13.001 7.43577 13.1254 7.2458 13.3424C7.05584 13.5594 6.96875 13.8478 7.00686 14.1336L7.19813 15.5681C7.23126 15.8166 7.44324 16.0022 7.69394 16.0022H16.2584C16.5029 16.0022 16.7116 15.8254 16.7518 15.5843L16.9882 14.1659C17.0366 13.8758 16.9548 13.5791 16.7648 13.3547C16.5747 13.1304 16.2955 13.001 16.0014 13.001H7.99849Z" stroke="black" stroke-width="1.5" stroke-linecap="round" stroke-linejoin="round"/>
<path d="M13.5562 13.0008L14.3502 9.42782C14.5642 8.46452 14.1688 7.46812 13.3524 6.91379C12.536 6.35946 11.464 6.35946 10.6476 6.91379C9.83122 7.46812 9.43576 8.46452 9.64984 9.42782L10.4438 13.0008" stroke="black" stroke-width="1.5" stroke-linecap="round" stroke-linejoin="round"/>
<path d="M20.5856 9.35174C20.8587 10.2081 20.9997 11.101 21.0037 11.9998C21.0037 16.9725 16.9726 21.0036 12 21.0036C7.02737 21.0036 2.99625 16.9725 2.99625 11.9998C2.99625 7.02721 7.02737 2.99609 12 2.99609C12.8988 3.00015 13.7918 3.14116 14.6481 3.41427" stroke="black" stroke-width="1.5" stroke-linecap="round" stroke-linejoin="round"/>
<path d="M21.0037 4.27051L19.0149 6.25934L17.7394 4.9838" stroke="black" stroke-width="1.5" stroke-linecap="round" stroke-linejoin="round"/>
</svg>
