<svg width="24" height="24" viewBox="0 0 24 24" fill="none" xmlns="http://www.w3.org/2000/svg">
<circle cx="12" cy="12.0003" r="9.00375" stroke="black" stroke-width="1.5" stroke-linecap="round" stroke-linejoin="round"/>
<path fill-rule="evenodd" clip-rule="evenodd" d="M17.3352 12.8336C16.5064 12.8336 15.8346 12.1618 15.8346 11.333C15.8346 12.1618 15.1627 12.8336 14.334 12.8336C15.1627 12.8336 15.8346 13.5055 15.8346 14.3343C15.8346 13.5055 16.5064 12.8336 17.3352 12.8336Z" stroke="black" stroke-width="1.5" stroke-linecap="round" stroke-linejoin="round"/>
<path fill-rule="evenodd" clip-rule="evenodd" d="M13.3336 8.16518C12.5048 8.16518 11.8329 7.49332 11.8329 6.66455C11.8329 7.49332 11.1611 8.16518 10.3323 8.16518C11.1611 8.16518 11.8329 8.83703 11.8329 9.6658C11.8329 8.83703 12.5048 8.16518 13.3336 8.16518Z" stroke="black" stroke-width="1.5" stroke-linecap="round" stroke-linejoin="round"/>
<path fill-rule="evenodd" clip-rule="evenodd" d="M10.6664 14.8341C9.83767 14.8341 9.16582 14.1623 9.16582 13.3335C9.16582 14.1623 8.49396 14.8341 7.66519 14.8341C8.49396 14.8341 9.16582 15.506 9.16582 16.3347C9.16582 15.506 9.83767 14.8341 10.6664 14.8341Z" stroke="black" stroke-width="1.5" stroke-linecap="round" stroke-linejoin="round"/>
</svg>
