<svg width="24" height="24" viewBox="0 0 24 24" fill="none" xmlns="http://www.w3.org/2000/svg">
<circle cx="12" cy="12.0001" r="9.50396" stroke="black" stroke-width="1.5" stroke-linecap="round" stroke-linejoin="round"/>
<path fill-rule="evenodd" clip-rule="evenodd" d="M11.1028 8.24045C11.2713 7.89888 11.6191 7.68262 12 7.68262C12.3809 7.68262 12.7287 7.89888 12.8972 8.24045L13.5132 9.48913C13.6589 9.78448 13.9406 9.9892 14.2665 10.0366L15.6443 10.2368C16.021 10.2916 16.3341 10.5555 16.4518 10.9176C16.5695 11.2796 16.4715 11.6772 16.1989 11.943L15.2016 12.9157C14.966 13.1456 14.8585 13.4766 14.9141 13.801L15.1495 15.173C15.2139 15.5483 15.0596 15.9276 14.7516 16.1514C14.4435 16.3753 14.0351 16.4048 13.698 16.2277L12.4654 15.5799C12.1741 15.4267 11.826 15.4267 11.5346 15.5799L10.302 16.2277C9.96494 16.4048 9.55653 16.3753 9.24849 16.1514C8.94044 15.9276 8.78618 15.5483 8.85056 15.173L9.08592 13.801C9.14157 13.4766 9.03407 13.1456 8.79843 12.9157L7.80116 11.943C7.5286 11.6772 7.43057 11.2796 7.54827 10.9176C7.66598 10.5555 7.97901 10.2916 8.35579 10.2368L9.73356 10.0366C10.0595 9.9892 10.3412 9.78448 10.4869 9.48913L11.1028 8.24045Z" stroke="black" stroke-width="1.5" stroke-linecap="round" stroke-linejoin="round"/>
</svg>
