<svg width="24" height="24" viewBox="0 0 24 24" fill="none" xmlns="http://www.w3.org/2000/svg">
<path fill-rule="evenodd" clip-rule="evenodd" d="M11.1717 8.18793C11.3276 7.87305 11.6486 7.67383 12 7.67383C12.3514 7.67383 12.6724 7.87305 12.8283 8.18793L13.5006 9.5575C13.6359 9.83152 13.8982 10.0207 14.2009 10.0627L15.7125 10.2828C16.0601 10.3336 16.3488 10.5772 16.4572 10.9113C16.5657 11.2455 16.4752 11.6122 16.2238 11.8575L15.1303 12.9239C14.9133 13.1364 14.8142 13.4418 14.8652 13.7412L15.1233 15.2419C15.1823 15.5882 15.0399 15.938 14.7558 16.1446C14.4717 16.3513 14.0951 16.379 13.7837 16.2163L12.4312 15.505C12.1624 15.3639 11.8416 15.3639 11.5728 15.505L10.2203 16.2163C9.90895 16.379 9.53228 16.3513 9.2482 16.1446C8.96411 15.938 8.82171 15.5882 8.8807 15.2419L9.13881 13.7412C9.18978 13.4418 9.09072 13.1364 8.8737 12.9239L7.77824 11.8575C7.52679 11.6122 7.43629 11.2455 7.54476 10.9113C7.65323 10.5772 7.94188 10.3336 8.28946 10.2828L9.80108 10.0627C10.1038 10.0207 10.3661 9.83152 10.5014 9.5575L11.1717 8.18793Z" stroke="black" stroke-width="1.5" stroke-linecap="round" stroke-linejoin="round"/>
<rect x="2.99625" y="2.99609" width="18.0075" height="18.0075" rx="5" stroke="black" stroke-width="1.5" stroke-linecap="round" stroke-linejoin="round"/>
</svg>
