<svg width="24" height="24" viewBox="0 0 24 24" fill="none" xmlns="http://www.w3.org/2000/svg">
<path fill-rule="evenodd" clip-rule="evenodd" d="M2.99625 16.7941C5.20631 16.7941 6.99792 18.5858 6.99792 20.7958C6.99792 18.5858 8.78952 16.7941 10.9996 16.7941C8.78952 16.7941 6.99792 15.0025 6.99792 12.7925C6.99792 15.0025 5.20631 16.7941 2.99625 16.7941Z" stroke="black" stroke-width="1.5" stroke-linecap="round" stroke-linejoin="round"/>
<path fill-rule="evenodd" clip-rule="evenodd" d="M13.0004 13.7927C15.2105 13.7927 17.0021 15.5843 17.0021 17.7943C17.0021 15.5843 18.7937 13.7927 21.0037 13.7927C18.7937 13.7927 17.0021 12.0011 17.0021 9.79102C17.0021 12.0011 15.2105 13.7927 13.0004 13.7927V13.7927Z" stroke="black" stroke-width="1.5" stroke-linecap="round" stroke-linejoin="round"/>
<path fill-rule="evenodd" clip-rule="evenodd" d="M6.99792 6.78975C9.20798 6.78975 10.9996 8.58136 10.9996 10.7914C10.9996 8.58136 12.7912 6.78975 15.0013 6.78975C12.7912 6.78975 10.9996 4.99815 10.9996 2.78809C10.9996 4.99815 9.20798 6.78975 6.99792 6.78975Z" stroke="black" stroke-width="1.5" stroke-linecap="round" stroke-linejoin="round"/>
</svg>
