<svg width="24" height="24" viewBox="0 0 24 24" fill="none" xmlns="http://www.w3.org/2000/svg">
<path fill-rule="evenodd" clip-rule="evenodd" d="M7.45609 20.8639C7.05187 21.0807 6.55944 21.0482 6.18719 20.7802C5.81494 20.5122 5.62795 20.0555 5.70537 19.6034L6.57373 14.5783L2.8962 11.0178C2.57118 10.6982 2.45523 10.222 2.59689 9.78875C2.73856 9.35547 3.11341 9.03981 3.56447 8.97394L8.64859 8.24064L10.9195 3.66473C11.1247 3.25491 11.5437 2.99609 12.002 2.99609C12.4603 2.99609 12.8793 3.25491 13.0844 3.66473L15.3554 8.24064L20.4395 8.97394C20.8906 9.03981 21.2654 9.35547 21.4071 9.78875C21.5488 10.222 21.4328 10.6982 21.1078 11.0178L17.4282 14.5763L18.2966 19.6014C18.3749 20.0538 18.1883 20.5113 17.8159 20.7799C17.4435 21.0485 16.9504 21.0811 16.5459 20.8639L12 18.4939L7.45609 20.8639Z" stroke="black" stroke-width="1.5" stroke-linecap="round" stroke-linejoin="round"/>
<path d="M13.6677 11.667L11.5838 13.7509L10.3323 12.5003" stroke="black" stroke-width="1.5" stroke-linecap="round" stroke-linejoin="round"/>
</svg>
