<svg width="24" height="24" viewBox="0 0 24 24" fill="none" xmlns="http://www.w3.org/2000/svg">
<path fill-rule="evenodd" clip-rule="evenodd" d="M10.5184 16.5701L11.2627 16.179C11.7245 15.9358 12.2765 15.9358 12.7383 16.179L13.4826 16.5701C14.017 16.851 14.6645 16.8045 15.1533 16.4501V16.4501C15.6413 16.0957 15.8857 15.4949 15.7836 14.9004L15.6415 14.0711C15.5545 13.5577 15.725 13.0342 16.0977 12.6705L16.698 12.0843C17.1297 11.663 17.2848 11.0332 17.0981 10.4596V10.4596C16.9116 9.88532 16.4151 9.46681 15.8176 9.38014L14.9852 9.25909C14.4685 9.18441 14.0217 8.85998 13.7907 8.39173L13.4166 7.63542C13.1517 7.09422 12.6026 6.75025 12 6.74805V6.74805C11.3969 6.74805 10.8461 7.09048 10.5794 7.63141L10.2072 8.38573C9.97626 8.85413 9.52956 9.17887 9.01275 9.25409L8.1804 9.37414C7.58229 9.46055 7.0851 9.87901 6.89787 10.4536V10.4536C6.71117 11.0272 6.8663 11.657 7.29804 12.0783L7.89829 12.6655C8.27113 13.0291 8.44164 13.5526 8.35448 14.0661L8.21242 14.8954C8.11017 15.4907 8.35493 16.0923 8.84368 16.4471V16.4471C9.3326 16.8046 9.98246 16.8523 10.5184 16.5701Z" stroke="black" stroke-width="1.5" stroke-linecap="round" stroke-linejoin="round"/>
<circle cx="12" cy="11.9998" r="9.00375" stroke="black" stroke-width="1.5" stroke-linecap="round" stroke-linejoin="round"/>
</svg>
