<svg width="24" height="24" viewBox="0 0 24 24" fill="none" xmlns="http://www.w3.org/2000/svg">
<path d="M21.0037 11.9998C21.0037 16.9725 16.9726 21.0036 12 21.0036C7.02736 21.0036 2.99625 16.9725 2.99625 11.9998C2.99625 7.02721 7.02736 2.99609 12 2.99609" stroke="black" stroke-width="1.5" stroke-linecap="round" stroke-linejoin="round"/>
<path fill-rule="evenodd" clip-rule="evenodd" d="M11.1186 8.52027C11.293 8.19567 11.6316 7.99316 12 7.99316C12.3684 7.99316 12.7071 8.19567 12.8814 8.52027L13.6587 9.94286C13.7508 10.112 13.8897 10.2509 14.0589 10.343L15.4815 11.1204C15.8061 11.2947 16.0086 11.6333 16.0086 12.0017C16.0086 12.3702 15.8061 12.7088 15.4815 12.8831L14.0589 13.6604C13.8897 13.7525 13.7508 13.8915 13.6587 14.0606L12.8814 15.4832C12.7071 15.8078 12.3684 16.0103 12 16.0103C11.6316 16.0103 11.293 15.8078 11.1186 15.4832L10.3413 14.0606C10.2492 13.8915 10.1103 13.7525 9.94115 13.6604L8.51856 12.8831C8.19397 12.7088 7.99146 12.3702 7.99146 12.0017C7.99146 11.6333 8.19397 11.2947 8.51856 11.1204L9.94115 10.343C10.1103 10.2509 10.2492 10.112 10.3413 9.94286L11.1186 8.52027Z" stroke="black" stroke-width="1.5"/>
<path fill-rule="evenodd" clip-rule="evenodd" d="M18.3416 2.38858C18.4737 2.14663 18.7273 1.99609 19.0029 1.99609C19.2785 1.99609 19.5322 2.14663 19.6642 2.38858L20.2474 3.45502C20.3165 3.58187 20.4207 3.68608 20.5475 3.75515L21.614 4.33839C21.8559 4.47042 22.0065 4.72404 22.0065 4.99967C22.0065 5.2753 21.8559 5.52892 21.614 5.66094L20.5475 6.24419C20.4207 6.31326 20.3165 6.41747 20.2474 6.54431L19.6642 7.61075C19.5322 7.85271 19.2785 8.00324 19.0029 8.00324C18.7273 8.00324 18.4737 7.85271 18.3416 7.61075L17.7584 6.54431C17.6893 6.41747 17.5851 6.31326 17.4583 6.24419L16.3918 5.66094C16.1499 5.52892 15.9993 5.2753 15.9993 4.99967C15.9993 4.72404 16.1499 4.47042 16.3918 4.33839L17.4583 3.75515C17.5851 3.68608 17.6893 3.58187 17.7584 3.45502L18.3416 2.38858Z" stroke="black" stroke-width="1.5"/>
</svg>
