<svg width="24" height="24" viewBox="0 0 24 24" fill="none" xmlns="http://www.w3.org/2000/svg">
<path fill-rule="evenodd" clip-rule="evenodd" d="M8.82567 18.6601H6.34364C5.78941 18.6601 5.34022 18.2109 5.34022 17.6567V15.1737C5.34022 14.9075 5.23418 14.6524 5.0461 14.4644L3.29037 12.7086C2.89821 12.3165 2.89821 11.6812 3.29037 11.29L5.06411 9.5163C5.24118 9.33922 5.34022 9.10012 5.34022 8.85002V6.34398C5.34022 5.78975 5.78941 5.34056 6.34364 5.34056H8.82667C9.09279 5.34056 9.34789 5.23451 9.53597 5.04644L11.2917 3.2907C11.6839 2.89854 12.3191 2.89854 12.7103 3.2907L14.466 5.04644C14.6541 5.23451 14.9092 5.34056 15.1753 5.34056H17.6584C18.2126 5.34056 18.6618 5.78975 18.6618 6.34398V8.82701C18.6618 9.09312 18.7678 9.34823 18.9559 9.53631L20.7116 11.292C21.1038 11.6842 21.1038 12.3195 20.7116 12.7106L18.9559 14.4664C18.7678 14.6544 18.6618 14.9095 18.6618 15.1757V17.6587C18.6618 18.2129 18.2126 18.6621 17.6584 18.6621H15.1753C14.9092 18.6621 14.6541 18.7682 14.466 18.9562L12.7103 20.712C12.3181 21.1041 11.6829 21.1041 11.2917 20.712L9.53597 18.9562C9.34689 18.7651 9.09178 18.6601 8.82567 18.6601Z" stroke="black" stroke-width="1.5" stroke-linecap="round" stroke-linejoin="round"/>
<path d="M13.4146 10.5859L10.5854 13.4151" stroke="black" stroke-width="1.5" stroke-linecap="round" stroke-linejoin="round"/>
<path d="M13.4146 13.4151L10.5854 10.5859" stroke="black" stroke-width="1.5" stroke-linecap="round" stroke-linejoin="round"/>
</svg>
