<svg width="24" height="24" viewBox="0 0 24 24" fill="none" xmlns="http://www.w3.org/2000/svg">
<path d="M21.0038 18.0026H14.472" stroke="black" stroke-width="1.5" stroke-linecap="round" stroke-linejoin="round"/>
<path d="M21.0038 15.0012H14.472" stroke="black" stroke-width="1.5" stroke-linecap="round" stroke-linejoin="round"/>
<path d="M18.8268 21.0036H14.472" stroke="black" stroke-width="1.5" stroke-linecap="round" stroke-linejoin="round"/>
<path d="M10.8345 17.0754L7.37707 18.8762C7.01728 19.0661 6.58091 19.0357 6.25098 18.7976C5.92105 18.5596 5.75459 18.155 5.82142 17.7537L6.59775 13.2899L3.32238 10.1265C3.02976 9.84384 2.92428 9.41885 3.05077 9.03214C3.17727 8.64542 3.51351 8.36491 3.91663 8.30979L8.43551 7.65852L10.4544 3.59082C10.6369 3.22658 11.0094 2.99658 11.4168 2.99658C11.8242 2.99658 12.1967 3.22658 12.3792 3.59082L14.401 7.65852L18.9199 8.30879C19.3226 8.3642 19.6583 8.64453 19.7848 9.03085C19.9112 9.41717 19.8061 9.84177 19.5141 10.1245L17.6684 11.9093" stroke="black" stroke-width="1.5" stroke-linecap="round" stroke-linejoin="round"/>
</svg>
