<svg width="24" height="24" viewBox="0 0 24 24" fill="none" xmlns="http://www.w3.org/2000/svg">
<rect x="2.99625" y="2.99658" width="18.0075" height="18.0075" rx="5" stroke="black" stroke-width="1.5" stroke-linecap="round" stroke-linejoin="round"/>
<path fill-rule="evenodd" clip-rule="evenodd" d="M16.835 13.3336C16.0062 13.3336 15.3344 12.6618 15.3344 11.833C15.3344 12.6618 14.6625 13.3336 13.8338 13.3336C14.6625 13.3336 15.3344 14.0055 15.3344 14.8343C15.3344 14.0055 16.0062 13.3336 16.835 13.3336Z" stroke="black" stroke-width="1.5" stroke-linecap="round" stroke-linejoin="round"/>
<path fill-rule="evenodd" clip-rule="evenodd" d="M12.8333 8.66566C12.0046 8.66566 11.3327 7.99381 11.3327 7.16504C11.3327 7.99381 10.6609 8.66566 9.83209 8.66566C10.6609 8.66566 11.3327 9.33752 11.3327 10.1663C11.3327 9.33752 12.0046 8.66566 12.8333 8.66566Z" stroke="black" stroke-width="1.5" stroke-linecap="round" stroke-linejoin="round"/>
<path fill-rule="evenodd" clip-rule="evenodd" d="M10.1662 15.3346C9.33746 15.3346 8.6656 14.6628 8.6656 13.834C8.6656 14.6628 7.99375 15.3346 7.16498 15.3346C7.99375 15.3346 8.6656 16.0065 8.6656 16.8352C8.6656 16.0065 9.33746 15.3346 10.1662 15.3346Z" stroke="black" stroke-width="1.5" stroke-linecap="round" stroke-linejoin="round"/>
</svg>
