<svg width="24" height="24" viewBox="0 0 24 24" fill="none" xmlns="http://www.w3.org/2000/svg">
<path d="M16.0017 22.0042C13.2395 22.0042 10.9996 19.7642 10.9996 17.0021C10.9996 14.2399 13.2395 12 16.0017 12C18.7648 12 21.0037 14.2399 21.0037 17.0021C21.0037 19.7642 18.7648 22.0042 16.0017 22.0042" stroke="black" stroke-width="1.5" stroke-linecap="round" stroke-linejoin="round"/>
<path d="M11.3437 18.8349L7.45411 20.8638C6.56974 21.325 5.53431 20.5807 5.70338 19.6013L6.57174 14.5762L2.89221 11.0177C2.17391 10.3244 2.57007 9.11589 3.56048 8.97383L8.6446 8.24053L10.9155 3.66462C11.3567 2.77325 12.6373 2.77325 13.0804 3.66462L15.3554 8.24053L20.4395 8.97183C21.4299 9.11389 21.8241 10.3224 21.1078 11.0157L19.0319 13.0235" stroke="black" stroke-width="1.5" stroke-linecap="round" stroke-linejoin="round"/>
<path d="M18.2246 15.8906L15.4454 18.6698L13.7787 17.0021" stroke="black" stroke-width="1.5" stroke-linecap="round" stroke-linejoin="round"/>
</svg>
