<svg width="24" height="24" viewBox="0 0 24 24" fill="none" xmlns="http://www.w3.org/2000/svg">
<path fill-rule="evenodd" clip-rule="evenodd" d="M5.9975 2.99609C5.9975 5.20615 4.20589 6.99776 1.99583 6.99776C4.20589 6.99776 5.9975 8.78937 5.9975 10.9994C5.9975 8.78937 7.78911 6.99776 9.99917 6.99776C7.78911 6.99776 5.9975 5.20615 5.9975 2.99609Z" stroke="black" stroke-width="1.5" stroke-linecap="round" stroke-linejoin="round"/>
<path fill-rule="evenodd" clip-rule="evenodd" d="M17.0021 15.0012C17.0021 12.2387 14.7626 9.99915 12 9.99915C14.7626 9.99915 17.0021 7.75964 17.0021 4.99707C17.0021 7.75964 19.2416 9.99915 22.0042 9.99915C19.2416 9.99915 17.0021 12.2387 17.0021 15.0012Z" stroke="black" stroke-width="1.5" stroke-linecap="round" stroke-linejoin="round"/>
<path d="M17.0021 15.001V16.0014" stroke="black" stroke-width="1.5" stroke-linecap="round" stroke-linejoin="round"/>
<path d="M17.0021 4.99749V3.99707" stroke="black" stroke-width="1.5" stroke-linecap="round" stroke-linejoin="round"/>
<path d="M9.99917 21.0039V22.0043" stroke="black" stroke-width="1.5" stroke-linecap="round" stroke-linejoin="round"/>
<path d="M9.99917 14.0014V13.001" stroke="black" stroke-width="1.5" stroke-linecap="round" stroke-linejoin="round"/>
<path d="M5.9975 11V12.0004" stroke="black" stroke-width="1.5" stroke-linecap="round" stroke-linejoin="round"/>
<path d="M5.9975 1.99609V2.99651" stroke="black" stroke-width="1.5" stroke-linecap="round" stroke-linejoin="round"/>
<path fill-rule="evenodd" clip-rule="evenodd" d="M9.99917 13.501C9.99917 15.711 8.20756 17.5026 5.9975 17.5026C8.20756 17.5026 9.99917 19.2943 9.99917 21.5043C9.99917 19.2943 11.7908 17.5026 14.0008 17.5026C11.7908 17.5026 9.99917 15.711 9.99917 13.501Z" stroke="black" stroke-width="1.5" stroke-linecap="round" stroke-linejoin="round"/>
</svg>
