<svg width="24" height="24" viewBox="0 0 24 24" fill="none" xmlns="http://www.w3.org/2000/svg">
<path fill-rule="evenodd" clip-rule="evenodd" d="M12 17.0022V17.0022C12.1588 17.0021 12.2931 16.8845 12.3141 16.7271L12.4622 15.6206C12.6815 13.9757 13.9756 12.6817 15.6205 12.4623L16.727 12.3143C16.8844 12.2932 17.002 12.159 17.0021 12.0001V12.0001C17.002 11.8413 16.8844 11.707 16.727 11.686L15.6205 11.5379C13.9756 11.3186 12.6815 10.0245 12.4622 8.37962L12.3141 7.27316C12.2931 7.11573 12.1588 6.99815 12 6.99805V6.99805C11.8412 6.99815 11.7069 7.11573 11.6859 7.27316L11.5378 8.37962C11.3185 10.0245 10.0244 11.3186 8.37949 11.5379L7.27303 11.686C7.1156 11.707 6.99802 11.8413 6.99792 12.0001V12.0001C6.99802 12.159 7.1156 12.2932 7.27303 12.3143L8.37949 12.4623C10.0244 12.6817 11.3185 13.9757 11.5378 15.6206L11.6859 16.7271C11.7069 16.8845 11.8412 17.0021 12 17.0022V17.0022Z" stroke="black" stroke-width="1.5" stroke-linecap="round" stroke-linejoin="round"/>
<rect x="2.99625" y="2.99609" width="18.0075" height="18.0075" rx="5" stroke="black" stroke-width="1.5" stroke-linecap="round" stroke-linejoin="round"/>
</svg>
