<svg width="24" height="24" viewBox="0 0 24 24" fill="none" xmlns="http://www.w3.org/2000/svg">
<path d="M21 10V16C21 18.7614 18.7614 21 16 21H8C5.23858 21 3 18.7614 3 16V8C3 5.23858 5.23858 3 8 3H14" stroke="black" stroke-width="1.5" stroke-linecap="round" stroke-linejoin="round"/>
<path fill-rule="evenodd" clip-rule="evenodd" d="M10.3431 9.94558L11.1226 8.52021C11.298 8.19947 11.6344 8 12 8C12.3656 8 12.702 8.19947 12.8774 8.52021L13.6569 9.94558C13.7486 10.1134 13.8866 10.2514 14.0544 10.3432L15.4798 11.1226C15.8005 11.298 16 11.6345 16 12C16 12.3656 15.8005 12.702 15.4798 12.8774L14.0544 13.6569C13.8866 13.7486 13.7486 13.8866 13.6569 14.0544L12.8774 15.4798C12.702 15.8006 12.3656 16 12 16C11.6344 16 11.298 15.8006 11.1226 15.4798L10.3431 14.0544C10.2514 13.8866 10.1134 13.7486 9.94556 13.6569L8.5202 12.8774C8.19947 12.702 8 12.3656 8 12C8 11.6345 8.19947 11.298 8.5202 11.1226L9.94556 10.3432C10.1134 10.2514 10.2514 10.1134 10.3431 9.94558Z" stroke="black" stroke-width="1.5" stroke-linecap="round" stroke-linejoin="round"/>
<path d="M17 5H21" stroke="black" stroke-width="1.5" stroke-linecap="round" stroke-linejoin="round"/>
<path d="M19 7V3" stroke="black" stroke-width="1.5" stroke-linecap="round" stroke-linejoin="round"/>
</svg>
