<svg width="24" height="24" viewBox="0 0 24 24" fill="none" xmlns="http://www.w3.org/2000/svg">
<path d="M19.0549 13.0256L21.1368 11.0117" stroke="black" stroke-width="1.5" stroke-linecap="round" stroke-linejoin="round"/>
<path d="M7.4401 20.8908L11.3417 18.856" stroke="black" stroke-width="1.5" stroke-linecap="round" stroke-linejoin="round"/>
<path d="M21.1368 11.0156C21.4619 10.6957 21.5776 10.2192 21.4355 9.78583C21.2934 9.35244 20.9179 9.03702 20.4665 8.97177L15.3644 8.24047L13.0835 3.66456C12.8769 3.25466 12.457 2.99609 11.998 2.99609C11.539 2.99609 11.1191 3.25466 10.9125 3.66456L8.6346 8.24047L3.53247 8.97377C3.0783 9.03468 2.69901 9.35003 2.55621 9.78545C2.41342 10.2209 2.5323 10.6996 2.86219 11.0176L6.55273 14.5761L5.68337 19.6032C5.61084 20.0553 5.80005 20.5096 6.17207 20.7765C6.5441 21.0435 7.03503 21.0772 7.4401 20.8637" stroke="black" stroke-width="1.5" stroke-linecap="round" stroke-linejoin="round"/>
<path d="M16.0137 17.0181L19.0249 20.0283" stroke="black" stroke-width="1.5" stroke-linecap="round" stroke-linejoin="round"/>
<path d="M16.0137 20.0283L19.0249 17.0181" stroke="black" stroke-width="1.5" stroke-linecap="round" stroke-linejoin="round"/>
</svg>
