<svg width="24" height="24" viewBox="0 0 24 24" fill="none" xmlns="http://www.w3.org/2000/svg">
<circle cx="12" cy="11.9998" r="9.00375" stroke="black" stroke-width="1.5" stroke-linecap="round" stroke-linejoin="round"/>
<path fill-rule="evenodd" clip-rule="evenodd" d="M11.1186 8.52027C11.2929 8.19567 11.6316 7.99316 12 7.99316C12.3684 7.99316 12.7071 8.19567 12.8814 8.52027L13.6587 9.94286C13.7508 10.112 13.8897 10.2509 14.0589 10.343L15.4814 11.1204C15.806 11.2947 16.0086 11.6333 16.0086 12.0017C16.0086 12.3702 15.806 12.7088 15.4814 12.8831L14.0589 13.6604C13.8897 13.7525 13.7508 13.8915 13.6587 14.0606L12.8814 15.4832C12.7071 15.8078 12.3684 16.0103 12 16.0103C11.6316 16.0103 11.2929 15.8078 11.1186 15.4832L10.3413 14.0606C10.2492 13.8915 10.1103 13.7525 9.94114 13.6604L8.51855 12.8831C8.19396 12.7088 7.99145 12.3702 7.99145 12.0017C7.99145 11.6333 8.19396 11.2947 8.51855 11.1204L9.94114 10.343C10.1103 10.2509 10.2492 10.112 10.3413 9.94286L11.1186 8.52027Z" stroke="black" stroke-width="1.5"/>
</svg>
