<svg width="24" height="24" viewBox="0 0 24 24" fill="none" xmlns="http://www.w3.org/2000/svg">
<path fill-rule="evenodd" clip-rule="evenodd" d="M12.6843 8.5499L12 6.49805L11.3157 8.5499C11.1166 9.14715 10.6474 9.61635 10.0502 9.81543L7.99832 10.4997L10.0502 11.184C10.6474 11.3831 11.1166 11.8523 11.3157 12.4495L12 14.5014L12.6843 12.4495C12.8834 11.8523 13.3526 11.3831 13.9498 11.184L16.0017 10.4997L13.9498 9.81543C13.3516 9.61635 12.8834 9.14815 12.6843 8.5499Z" stroke="black" stroke-width="1.5" stroke-linecap="round" stroke-linejoin="round"/>
<path d="M15.5015 14.5015V17.5027" stroke="black" stroke-width="1.5" stroke-linecap="round" stroke-linejoin="round"/>
<path d="M17.0021 16.0022H14.0008" stroke="black" stroke-width="1.5" stroke-linecap="round" stroke-linejoin="round"/>
<path d="M7.49813 14.001V16.0018" stroke="black" stroke-width="1.5" stroke-linecap="round" stroke-linejoin="round"/>
<path d="M8.49854 15.0017H6.49771" stroke="black" stroke-width="1.5" stroke-linecap="round" stroke-linejoin="round"/>
<path fill-rule="evenodd" clip-rule="evenodd" d="M17.0021 21.0041H6.99791C4.78799 21.0041 2.99625 19.2123 2.99625 17.0024V6.99825C2.99625 4.78833 4.78799 2.99658 6.99791 2.99658H17.0021C19.212 2.99658 21.0037 4.78833 21.0037 6.99825V17.0024C21.0037 19.2123 19.212 21.0041 17.0021 21.0041Z" stroke="black" stroke-width="1.5" stroke-linecap="round" stroke-linejoin="round"/>
</svg>
