<svg width="24" height="24" viewBox="0 0 24 24" fill="none" xmlns="http://www.w3.org/2000/svg">
<path d="M12.041 15.0786L14.1879 16.2061C14.6021 16.4242 15.0863 16.072 15.0073 15.6098L14.5971 13.2189L16.3288 11.5321C16.6659 11.204 16.4799 10.6318 16.0147 10.5637L13.6207 10.2166L12.5482 8.04169C12.3411 7.62152 11.7419 7.62152 11.5348 8.04169L10.4624 10.2166L7.92331 10.5848C7.51614 10.6438 7.35407 11.144 7.64819 11.4301L9.48496 13.2189L9.07379 15.6098C8.99475 16.071 9.47896 16.4232 9.89313 16.2061L12.04 15.0786" stroke="black" stroke-width="1.5" stroke-linecap="round" stroke-linejoin="round"/>
<path fill-rule="evenodd" clip-rule="evenodd" d="M17.0021 21.0041H6.99792C4.788 21.0041 2.99625 19.2123 2.99625 17.0024V6.99825C2.99625 4.78833 4.788 2.99658 6.99792 2.99658H17.0021C19.212 2.99658 21.0038 4.78833 21.0038 6.99825V17.0024C21.0038 19.2123 19.212 21.0041 17.0021 21.0041Z" stroke="black" stroke-width="1.5" stroke-linecap="round" stroke-linejoin="round"/>
</svg>
