<svg width="24" height="24" viewBox="0 0 24 24" fill="none" xmlns="http://www.w3.org/2000/svg">
<path fill-rule="evenodd" clip-rule="evenodd" d="M10.459 16.133L11.526 15.572C11.823 15.416 12.178 15.416 12.475 15.572L13.542 16.133C13.886 16.314 14.302 16.284 14.616 16.055L15.014 15.766C15.328 15.538 15.485 15.151 15.42 14.769L15.216 13.581C15.159 13.25 15.269 12.913 15.509 12.678L16.372 11.837C16.65 11.566 16.75 11.161 16.63 10.792L16.478 10.324C16.358 9.955 16.039 9.686 15.655 9.63L14.462 9.457C14.13 9.409 13.843 9.2 13.694 8.899L13.16 7.818C12.989 7.47 12.634 7.25 12.246 7.25H11.754C11.366 7.25 11.011 7.47 10.84 7.818L10.307 8.899C10.158 9.2 9.87101 9.409 9.53901 9.457L8.34601 9.63C7.96201 9.686 7.64301 9.955 7.52301 10.324L7.37101 10.792C7.25101 11.161 7.35101 11.566 7.62901 11.837L8.49201 12.678C8.73201 12.912 8.84201 13.25 8.78501 13.581L8.58101 14.769C8.51501 15.152 8.67301 15.538 8.98701 15.766L9.38501 16.055C9.69901 16.283 10.115 16.313 10.459 16.133V16.133Z" stroke="black" stroke-width="1.5" stroke-linecap="round" stroke-linejoin="round"/>
<path d="M5.63601 5.63576C9.15101 2.12076 14.849 2.12076 18.364 5.63576C21.879 9.15076 21.879 14.8488 18.364 18.3638C14.849 21.8788 9.15101 21.8788 5.63601 18.3638C2.12101 14.8488 2.12101 9.15076 5.63601 5.63576" stroke="black" stroke-width="1.5" stroke-linecap="round" stroke-linejoin="round"/>
</svg>
