<svg width="24" height="24" viewBox="0 0 24 24" fill="none" xmlns="http://www.w3.org/2000/svg">
<path d="M11.3767 17.9547L7.68021 19.8715C7.29687 20.0743 6.83178 20.0428 6.47929 19.7901C6.1268 19.5375 5.94758 19.1072 6.01652 18.679L6.84186 13.933L3.3454 10.5726C3.03292 10.2723 2.92021 9.81951 3.05546 9.40778C3.19072 8.99605 3.54999 8.69828 3.97967 8.6418L8.81168 7.94951L10.9696 3.62771C11.1662 3.24051 11.5637 2.99658 11.998 2.99658C12.4323 2.99658 12.8298 3.24051 13.0264 3.62771L15.1893 7.94951L20.0213 8.6398C20.4508 8.69626 20.8099 8.99371 20.9453 9.40511C21.0807 9.8165 20.9685 10.2691 20.6566 10.5696L18.6838 12.4654" stroke="black" stroke-width="1.5" stroke-linecap="round" stroke-linejoin="round"/>
<path d="M18.5947 15.4096C19.3656 16.1787 19.597 17.3367 19.1808 18.343C18.7646 19.3494 17.7829 20.0057 16.6939 20.0057C15.6049 20.0057 14.6233 19.3494 14.2071 18.343C13.7909 17.3367 14.0223 16.1787 14.7932 15.4096C15.8434 14.3609 17.5445 14.3609 18.5947 15.4096" stroke="black" stroke-width="1.5" stroke-linecap="round" stroke-linejoin="round"/>
<path d="M20.3835 21.0041L18.5947 19.2153" stroke="black" stroke-width="1.5" stroke-linecap="round" stroke-linejoin="round"/>
</svg>
