<svg width="24" height="24" viewBox="0 0 24 24" fill="none" xmlns="http://www.w3.org/2000/svg">
<path fill-rule="evenodd" clip-rule="evenodd" d="M10.7175 8.89919C10.8649 8.60202 11.168 8.41406 11.4998 8.41406C11.8315 8.41406 12.1346 8.60202 12.2821 8.89919L12.9174 10.1927C13.0452 10.4515 13.2928 10.6302 13.5787 10.6699L15.0062 10.877C15.3345 10.9253 15.6069 11.1555 15.7092 11.4711C15.8115 11.7867 15.726 12.133 15.4885 12.3646L14.456 13.372C14.2511 13.5725 14.1576 13.8608 14.2059 14.1434L14.45 15.561C14.5056 15.8881 14.371 16.2185 14.1027 16.4136C13.8343 16.6088 13.4786 16.635 13.1845 16.4813L11.907 15.8091C11.6532 15.676 11.3503 15.676 11.0966 15.8091L9.81909 16.4823C9.52501 16.636 9.16924 16.6098 8.90089 16.4146C8.63254 16.2195 8.49796 15.8891 8.55356 15.562L8.79866 14.1444C8.84641 13.8618 8.75301 13.5738 8.54856 13.373L7.51213 12.3656C7.27445 12.1334 7.1893 11.7864 7.29253 11.4706C7.39575 11.1548 7.66941 10.925 7.99833 10.878L9.42593 10.6709C9.71164 10.6308 9.95913 10.4523 10.0872 10.1937L10.7175 8.89919Z" stroke="black" stroke-width="1.5" stroke-linecap="round" stroke-linejoin="round"/>
<path d="M21.1208 2.87902C21.9833 3.74133 22.2414 5.03829 21.7747 6.16509C21.308 7.29189 20.2085 8.02661 18.9889 8.02661C17.7693 8.02661 16.6698 7.29189 16.2031 6.16509C15.7364 5.03829 15.9945 3.74133 16.857 2.87902C18.0345 1.70178 19.9433 1.70178 21.1208 2.87902" stroke="black" stroke-width="1.5" stroke-linecap="round" stroke-linejoin="round"/>
<path d="M20.0033 11V16.2802C20.0033 18.8892 17.8883 21.0042 15.2794 21.0042H7.72022C5.11124 21.0042 2.99625 18.8892 2.99625 16.2802V8.72104C2.99625 6.11206 5.11124 3.99707 7.72022 3.99707H13.0004" stroke="black" stroke-width="1.5" stroke-linecap="round" stroke-linejoin="round"/>
</svg>
