<svg width="24" height="24" viewBox="0 0 24 24" fill="none" xmlns="http://www.w3.org/2000/svg">
<path fill-rule="evenodd" clip-rule="evenodd" d="M12 16.0019C12 13.7918 13.7916 12.0002 16.0017 12.0002C13.7916 12.0002 12 10.2086 12 7.99854C12 10.2086 10.2084 12.0002 7.99834 12.0002C10.2084 12.0002 12 13.7918 12 16.0019Z" stroke="black" stroke-width="1.5" stroke-linecap="round" stroke-linejoin="round"/>
<path d="M21.0038 12.0003C21.0038 16.973 16.9726 21.0041 12 21.0041C7.02737 21.0041 2.99625 16.973 2.99625 12.0003C2.99625 7.0277 7.02737 2.99658 12 2.99658" stroke="black" stroke-width="1.5" stroke-linecap="round" stroke-linejoin="round"/>
<path fill-rule="evenodd" clip-rule="evenodd" d="M19.0029 7.99859C19.0029 6.34105 20.3466 4.99734 22.0042 4.99734C20.3466 4.99734 19.0029 3.65364 19.0029 1.99609C19.0029 3.65364 17.6592 4.99734 16.0017 4.99734C17.6592 4.99734 19.0029 6.34105 19.0029 7.99859Z" stroke="black" stroke-width="1.5" stroke-linecap="round" stroke-linejoin="round"/>
</svg>
