<svg width="24" height="24" viewBox="0 0 24 24" fill="none" xmlns="http://www.w3.org/2000/svg">
<path d="M11.998 14.8412L14.0819 15.9356C14.488 16.1497 14.9612 15.8036 14.8842 15.3524L14.486 13.0324L16.1717 11.3907C16.5009 11.0716 16.3188 10.5134 15.8656 10.4483L13.5356 10.1102L12.4942 7.99832C12.2911 7.58715 11.7049 7.58715 11.5028 7.99832L10.4614 10.1102L8.1314 10.4483C7.67821 10.5144 7.49613 11.0716 7.82527 11.3907L9.51097 13.0324L9.1118 15.3534C9.03477 15.8046 9.50797 16.1487 9.91414 15.9366L11.998 14.8422" stroke="black" stroke-width="1.5" stroke-linecap="round" stroke-linejoin="round"/>
<path d="M18.3667 5.65151C21.9431 9.228 21.8821 15.0634 18.1836 18.5629C14.7692 21.7932 9.23085 21.7932 5.81643 18.5629C2.11789 15.0634 2.05686 9.228 5.63335 5.65151C9.14982 2.13504 14.8502 2.13504 18.3667 5.65151" stroke="black" stroke-width="1.5" stroke-linecap="round" stroke-linejoin="round"/>
</svg>
