<svg width="24" height="24" viewBox="0 0 24 24" fill="none" xmlns="http://www.w3.org/2000/svg">
<path fill-rule="evenodd" clip-rule="evenodd" d="M10.4584 16.1352L11.5258 15.574C11.8229 15.4179 12.1781 15.4179 12.4752 15.574L13.5426 16.1352C13.8868 16.3163 14.303 16.2863 14.6171 16.0572L15.0153 15.7681C15.3294 15.54 15.4865 15.1528 15.4214 14.7707L15.2173 13.5822C15.1603 13.251 15.2704 12.9139 15.5105 12.6788L16.3738 11.8374C16.6519 11.5663 16.752 11.1612 16.6319 10.792L16.4799 10.3238C16.3598 9.95466 16.0407 9.68555 15.6565 9.62953L14.463 9.45645C14.1309 9.40843 13.8438 9.19935 13.6947 8.89822L13.1605 7.81677C12.9894 7.46863 12.6343 7.24854 12.2461 7.24854H11.7539C11.3657 7.24854 11.0106 7.46863 10.8395 7.81677L10.3063 8.89822C10.1572 9.19935 9.87011 9.40843 9.53797 9.45645L8.34448 9.62953C7.96032 9.68555 7.64118 9.95466 7.52113 10.3238L7.36907 10.792C7.24902 11.1612 7.34906 11.5663 7.62718 11.8374L8.49054 12.6788C8.73064 12.9129 8.84068 13.251 8.78366 13.5822L8.57958 14.7707C8.51355 15.1538 8.67161 15.54 8.98574 15.7681L9.38391 16.0572C9.69804 16.2853 10.1142 16.3153 10.4584 16.1352Z" stroke="black" stroke-width="1.5" stroke-linecap="round" stroke-linejoin="round"/>
<path fill-rule="evenodd" clip-rule="evenodd" d="M17.0021 21.0041H6.99792C4.788 21.0041 2.99625 19.2123 2.99625 17.0024V6.99825C2.99625 4.78833 4.788 2.99658 6.99792 2.99658H17.0021C19.212 2.99658 21.0037 4.78833 21.0037 6.99825V17.0024C21.0037 19.2123 19.212 21.0041 17.0021 21.0041Z" stroke="black" stroke-width="1.5" stroke-linecap="round" stroke-linejoin="round"/>
</svg>
