<svg width="24" height="24" viewBox="0 0 24 24" fill="none" xmlns="http://www.w3.org/2000/svg">
<path d="M20.582 9.353C20.8551 10.209 20.996 11.1016 21 12C21 16.9706 16.9706 21 12 21C7.02944 21 3 16.9706 3 12C3 7.02944 7.02944 3 12 3C12.8984 3.00399 13.791 3.14495 14.647 3.418" stroke="black" stroke-width="1.5" stroke-linecap="round" stroke-linejoin="round"/>
<path d="M17.799 5.06172L19 6.26172L20.9989 4.26172" stroke="black" stroke-width="1.5" stroke-linecap="round" stroke-linejoin="round"/>
<path fill-rule="evenodd" clip-rule="evenodd" d="M10.9911 7.82747C11.1806 7.44338 11.5717 7.2002 12 7.2002C12.4283 7.2002 12.8194 7.44338 13.0089 7.82747L13.5813 8.98781C13.7451 9.31991 14.0619 9.55011 14.4283 9.60338L15.7087 9.78948C16.1324 9.85106 16.4844 10.1478 16.6168 10.555C16.7491 10.9621 16.6389 11.4091 16.3324 11.708L15.4055 12.6121C15.1406 12.8706 15.0197 13.2428 15.0822 13.6076L15.301 14.8826C15.3734 15.3046 15.1999 15.7311 14.8535 15.9828C14.5071 16.2345 14.0479 16.2678 13.6688 16.0686L12.5234 15.4666C12.1957 15.2943 11.8043 15.2943 11.4766 15.4666L10.3312 16.0686C9.95213 16.2678 9.49288 16.2345 9.14649 15.9828C8.8001 15.7311 8.62664 15.3046 8.69904 14.8826L8.91775 13.6076C8.98032 13.2428 8.85944 12.8706 8.59448 12.6121L7.66759 11.708C7.36111 11.4091 7.25088 10.9621 7.38324 10.555C7.51559 10.1478 7.86759 9.85106 8.29127 9.78948L9.57167 9.60338C9.93813 9.55011 10.2549 9.31991 10.4187 8.98781L10.9911 7.82747Z" stroke="black" stroke-width="1.5" stroke-linecap="round" stroke-linejoin="round"/>
</svg>
