<svg width="24" height="24" viewBox="0 0 24 24" fill="none" xmlns="http://www.w3.org/2000/svg">
<path d="M3 13.7269V13.7269C3.815 13.7269 4.597 13.4029 5.173 12.8269L6.826 11.1739C7.402 10.5979 8.184 10.2739 8.999 10.2739V10.2739C9.814 10.2739 10.596 10.5979 11.172 11.1739L12.825 12.8269C13.401 13.4029 14.183 13.7269 14.998 13.7269V13.7269C15.813 13.7269 16.595 13.4029 17.171 12.8269L18.824 11.1739C19.4 10.5979 20.182 10.2739 20.997 10.2739V10.2739" stroke="black" stroke-width="1.5" stroke-linecap="round" stroke-linejoin="round"/>
<path fill-rule="evenodd" clip-rule="evenodd" d="M17.8 21H6.2C4.433 21 3 19.567 3 17.8V6.2C3 4.433 4.433 3 6.2 3H17.8C19.567 3 21 4.433 21 6.2V17.8C21 19.567 19.567 21 17.8 21Z" stroke="black" stroke-width="1.5" stroke-linecap="round" stroke-linejoin="round"/>
</svg>
