<svg width="24" height="24" viewBox="0 0 24 24" fill="none" xmlns="http://www.w3.org/2000/svg">
<path d="M15.9916 8.00836C18.1961 10.2129 18.1961 13.7871 15.9916 15.9916C13.7871 18.1961 10.2129 18.1961 8.00836 15.9916C5.80385 13.7871 5.80385 10.2129 8.00836 8.00836C10.2129 5.80385 13.7871 5.80385 15.9916 8.00836" stroke="black" stroke-width="1.5" stroke-linecap="round" stroke-linejoin="round"/>
<path d="M8.613 20.3701C6.808 19.6441 5.224 18.3351 4.175 16.5191C3.148 14.7411 2.804 12.7611 3.047 10.8711" stroke="black" stroke-width="1.5" stroke-linecap="round" stroke-linejoin="round"/>
<path d="M6.448 4.87991C7.979 3.67991 9.905 2.96191 12.002 2.96191C14.055 2.96191 15.942 3.65391 17.457 4.80891" stroke="black" stroke-width="1.5" stroke-linecap="round" stroke-linejoin="round"/>
<path d="M15.391 20.3701C17.196 19.6441 18.78 18.3351 19.829 16.5191C20.856 14.7411 21.2 12.7611 20.957 10.8711" stroke="black" stroke-width="1.5" stroke-linecap="round" stroke-linejoin="round"/>
</svg>
