<svg width="24" height="24" viewBox="0 0 24 24" fill="none" xmlns="http://www.w3.org/2000/svg">
<rect x="3.00002" y="3" width="18" height="18" rx="5" stroke="black" stroke-width="1.5" stroke-linecap="round" stroke-linejoin="round"/>
<path d="M21 13V14C21 14.5523 20.5523 15 20 15H19C16.7909 15 15 16.7909 15 19V20C15 20.5523 14.5523 21 14 21H13" stroke="black" stroke-width="1.5" stroke-linecap="round" stroke-linejoin="round"/>
<path d="M15.55 12.0001C15.55 12.0277 15.5276 12.05 15.5 12.05C15.4724 12.05 15.45 12.0276 15.45 12C15.45 11.9724 15.4723 11.95 15.4999 11.95C15.5132 11.95 15.526 11.9553 15.5354 11.9646C15.5447 11.974 15.55 11.9868 15.55 12.0001" stroke="black" stroke-width="1.5" stroke-linecap="round" stroke-linejoin="round"/>
<path d="M12.05 12.0001C12.05 12.0277 12.0276 12.05 12 12.05C11.9724 12.05 11.95 12.0276 11.95 12C11.95 11.9724 11.9723 11.95 11.9999 11.95C12.0132 11.95 12.026 11.9553 12.0354 11.9646C12.0447 11.974 12.05 11.9868 12.05 12.0001" stroke="black" stroke-width="1.5" stroke-linecap="round" stroke-linejoin="round"/>
<path d="M8.55006 12.0001C8.55003 12.0277 8.52764 12.05 8.50004 12.05C8.47244 12.05 8.45007 12.0276 8.45006 12C8.45005 11.9724 8.4724 11.95 8.5 11.95C8.51328 11.95 8.52602 11.9553 8.53542 11.9646C8.54481 11.974 8.55008 11.9868 8.55006 12.0001" stroke="black" stroke-width="1.5" stroke-linecap="round" stroke-linejoin="round"/>
</svg>
