<svg width="24" height="24" viewBox="0 0 24 24" fill="none" xmlns="http://www.w3.org/2000/svg">
<path fill-rule="evenodd" clip-rule="evenodd" d="M18.1746 19.8311L20.1254 17.8803C20.6877 17.3177 21.0038 16.5548 21.0038 15.7594V7.99818C21.0038 5.2356 18.7642 2.99609 16.0017 2.99609H7.99834C5.23576 2.99609 2.99625 5.2356 2.99625 7.99818V16.0015C2.99625 18.7641 5.23576 21.0036 7.99834 21.0036H15.3444C16.406 21.0036 17.424 20.5819 18.1746 19.8311V19.8311Z" stroke="black" stroke-width="1.5" stroke-linecap="round" stroke-linejoin="round"/>
<path d="M15.0013 21.0035V17.0018C15.0013 15.8968 15.8971 15.001 17.0021 15.001H21.0038" stroke="black" stroke-width="1.5" stroke-linecap="round" stroke-linejoin="round"/>
<path d="M12 11.9312C11.9818 11.9312 11.9643 11.9385 11.9515 11.9515C11.9388 11.9644 11.9317 11.982 11.932 12.0002C11.932 12.0282 11.9489 12.0535 11.9748 12.0641C12.0007 12.0747 12.0305 12.0686 12.0502 12.0487C12.0698 12.0287 12.0755 11.9989 12.0645 11.9731C12.0535 11.9473 12.028 11.9308 12 11.9312" stroke="black" stroke-width="1.5" stroke-linecap="round" stroke-linejoin="round"/>
<path d="M15.3694 11.9312C15.3313 11.9312 15.3004 11.9621 15.3004 12.0002C15.3004 12.0383 15.3313 12.0692 15.3694 12.0692C15.4075 12.0692 15.4384 12.0383 15.4384 12.0002C15.4384 11.9621 15.4075 11.9312 15.3694 11.9312" stroke="black" stroke-width="1.5" stroke-linecap="round" stroke-linejoin="round"/>
<path d="M8.6296 11.9312C8.61138 11.9312 8.59392 11.9385 8.58114 11.9515C8.56835 11.9644 8.5613 11.982 8.56157 12.0002C8.56157 12.0282 8.5785 12.0535 8.60442 12.0641C8.63033 12.0747 8.6601 12.0686 8.67976 12.0487C8.69942 12.0287 8.70508 11.9989 8.69408 11.9731C8.68308 11.9473 8.6576 11.9308 8.6296 11.9312" stroke="black" stroke-width="1.5" stroke-linecap="round" stroke-linejoin="round"/>
</svg>
