<svg width="24" height="24" viewBox="0 0 24 24" fill="none" xmlns="http://www.w3.org/2000/svg">
<path fill-rule="evenodd" clip-rule="evenodd" d="M14.827 21H9.173C5.859 21 3.173 18.314 3.173 15V9C3.173 5.686 5.859 3 9.173 3H14.826C18.14 3 20.826 5.686 20.826 9V15C20.827 18.314 18.14 21 14.827 21Z" stroke="black" stroke-width="1.5" stroke-linecap="round" stroke-linejoin="round"/>
<path d="M13.033 21.0002V19.0532C13.033 15.7392 15.719 13.0532 19.033 13.0532H20.827" stroke="black" stroke-width="1.5" stroke-linecap="round" stroke-linejoin="round"/>
<path d="M10 10V11" stroke="black" stroke-width="1.5" stroke-linecap="round" stroke-linejoin="round"/>
<path d="M14 10V11" stroke="black" stroke-width="1.5" stroke-linecap="round" stroke-linejoin="round"/>
<path d="M14.185 15.529C13.615 15.784 12.883 16 12 16C9.812 16 8.5 14.688 8.5 14.688" stroke="black" stroke-width="1.5" stroke-linecap="round" stroke-linejoin="round"/>
</svg>
