<svg width="24" height="24" viewBox="0 0 24 24" fill="none" xmlns="http://www.w3.org/2000/svg">
<path fill-rule="evenodd" clip-rule="evenodd" d="M16.774 20.317L21.367 15.724C22.212 14.879 22.212 13.509 21.367 12.663V12.663C20.522 11.818 19.152 11.818 18.306 12.663L13.706 17.263C13.553 17.416 13.454 17.614 13.423 17.829L12.97 21L16.189 20.603C16.41 20.575 16.616 20.475 16.774 20.317V20.317Z" stroke="black" stroke-width="1.5" stroke-linecap="round" stroke-linejoin="round"/>
<path d="M8.895 8.05811V9.07011" stroke="black" stroke-width="1.5175" stroke-linecap="round" stroke-linejoin="round"/>
<path d="M12.942 8.05811V9.07011" stroke="black" stroke-width="1.5175" stroke-linecap="round" stroke-linejoin="round"/>
<path d="M11.93 14.0238C11.617 14.0848 11.284 14.1278 10.918 14.1278C8.704 14.1278 7.377 12.8008 7.377 12.8008" stroke="black" stroke-width="1.5175" stroke-linecap="round" stroke-linejoin="round"/>
<path d="M10 19H9C5.686 19 3 16.314 3 13V9C3 5.686 5.686 3 9 3H13C16.314 3 19 5.686 19 9" stroke="black" stroke-width="1.5" stroke-linecap="round" stroke-linejoin="round"/>
</svg>
