<svg width="24" height="24" viewBox="0 0 24 24" fill="none" xmlns="http://www.w3.org/2000/svg">
<path fill-rule="evenodd" clip-rule="evenodd" d="M13 17H10C8.34315 17 7 15.6569 7 14V10C7 8.34315 8.34315 7 10 7H14C15.6569 7 17 8.34315 17 10V13C17 15.2091 15.2091 17 13 17Z" stroke="black" stroke-width="1.5" stroke-linecap="round" stroke-linejoin="round"/>
<rect x="3" y="3" width="18" height="18" rx="5" stroke="black" stroke-width="1.5" stroke-linecap="round" stroke-linejoin="round"/>
<path d="M17 10.333V11.5552C17 12.1075 16.5523 12.5552 16 12.5552H14.7778C14.1884 12.5552 13.6232 12.7894 13.2064 13.2061C12.7897 13.6229 12.5556 14.1881 12.5556 14.7775V15.9997C12.5556 16.552 12.1078 16.9997 11.5556 16.9997H10.3333" stroke="black" stroke-width="1.5" stroke-linecap="round" stroke-linejoin="round"/>
</svg>
