<svg width="24" height="24" viewBox="0 0 24 24" fill="none" xmlns="http://www.w3.org/2000/svg">
<path d="M18.364 5.63604C21.8787 9.15076 21.8787 14.8492 18.364 18.3639C14.8493 21.8787 9.1508 21.8787 5.6361 18.3639C2.12138 14.8492 2.12138 9.15074 5.6361 5.63604C9.15082 2.12132 14.8493 2.12132 18.364 5.63604" stroke="black" stroke-width="1.5" stroke-linecap="round" stroke-linejoin="round"/>
<path fill-rule="evenodd" clip-rule="evenodd" d="M6.826 11.5388C7.388 11.0778 8.208 11.1188 8.721 11.6328L9.589 12.4998V9.00178C9.589 7.63678 10.926 6.67278 12.221 7.10478L15.024 8.03878C15.841 8.31078 16.392 9.07578 16.392 9.93578V14.0338C16.392 15.9388 14.847 17.4838 12.942 17.4838H11.316C10.229 17.4838 9.206 16.9718 8.554 16.1018L6.59 13.4788C6.137 12.8728 6.241 12.0178 6.826 11.5388V11.5388V11.5388Z" stroke="black" stroke-width="1.5" stroke-linecap="round" stroke-linejoin="round"/>
</svg>
