<svg width="24" height="24" viewBox="0 0 24 24" fill="none" xmlns="http://www.w3.org/2000/svg">
<path d="M7.268 3.732C8.244 4.708 8.244 6.291 7.268 7.268C6.292 8.245 4.709 8.244 3.732 7.268C2.756 6.292 2.756 4.709 3.732 3.732C4.709 2.756 6.291 2.756 7.268 3.732" stroke="black" stroke-width="1.5" stroke-linecap="round" stroke-linejoin="round"/>
<path d="M20.268 16.7319C21.244 17.7079 21.244 19.2909 20.268 20.2679C19.292 21.2449 17.709 21.2439 16.732 20.2679C15.755 19.2919 15.756 17.7089 16.732 16.7319C17.708 15.7549 19.291 15.7559 20.268 16.7319" stroke="black" stroke-width="1.5" stroke-linecap="round" stroke-linejoin="round"/>
<path d="M7.268 16.7319C8.244 17.7079 8.244 19.2909 7.268 20.2679C6.292 21.2449 4.709 21.2439 3.732 20.2679C2.756 19.2919 2.756 17.7089 3.732 16.7319C4.708 15.7549 6.291 15.7559 7.268 16.7319" stroke="black" stroke-width="1.5" stroke-linecap="round" stroke-linejoin="round"/>
<path d="M20.268 3.732C21.244 4.708 21.244 6.291 20.268 7.268C19.292 8.245 17.709 8.244 16.732 7.268C15.755 6.292 15.756 4.709 16.732 3.732C17.709 2.756 19.291 2.756 20.268 3.732" stroke="black" stroke-width="1.5" stroke-linecap="round" stroke-linejoin="round"/>
<path d="M11 18.92C11.327 18.967 11.66 19 12 19C12.34 19 12.673 18.967 13 18.92" stroke="black" stroke-width="1.5" stroke-linecap="round" stroke-linejoin="round"/>
<path d="M11 5.08004C11.327 5.03304 11.66 5.00004 12 5.00004C12.34 5.00004 12.673 5.03304 13 5.08004" stroke="black" stroke-width="1.5" stroke-linecap="round" stroke-linejoin="round"/>
<path d="M18.92 13C18.967 12.673 19 12.34 19 12C19 11.66 18.967 11.327 18.92 11" stroke="black" stroke-width="1.5" stroke-linecap="round" stroke-linejoin="round"/>
<path d="M5.08 13C5.033 12.673 5 12.34 5 12C5 11.66 5.033 11.327 5.08 11" stroke="black" stroke-width="1.5" stroke-linecap="round" stroke-linejoin="round"/>
</svg>
