<svg width="24" height="24" viewBox="0 0 24 24" fill="none" xmlns="http://www.w3.org/2000/svg">
<path d="M11 8V6.333C11 5.597 11.597 5 12.333 5H17.666C18.403 5 19 5.597 19 6.333V11.666C19 12.403 18.403 13 17.667 13H16" stroke="black" stroke-width="1.5" stroke-linecap="round" stroke-linejoin="round"/>
<path fill-rule="evenodd" clip-rule="evenodd" d="M5 17.667V12.334C5 11.597 5.597 11 6.333 11H11.666C12.403 11 13 11.597 13 12.333V17.666C13 18.403 12.403 19 11.667 19H6.333C5.597 19 5 18.403 5 17.667V17.667Z" stroke="black" stroke-width="1.5" stroke-linecap="round" stroke-linejoin="round"/>
<path d="M2.77 9.53802C3.65 6.24002 6.24 3.65002 9.538 2.77002" stroke="black" stroke-width="1.5" stroke-linecap="round" stroke-linejoin="round"/>
<path d="M15.198 21.0002C17.906 20.0392 20.039 17.9062 21 15.1982" stroke="black" stroke-width="1.5" stroke-linecap="round" stroke-linejoin="round"/>
</svg>
