<svg width="24" height="24" viewBox="0 0 24 24" fill="none" xmlns="http://www.w3.org/2000/svg">
<path d="M16.524 7.47705C16.827 8.26005 17 9.10905 17 10.0001C17 13.8661 13.866 17.0001 10 17.0001C9.109 17.0001 8.26 16.8271 7.476 16.5231" stroke="black" stroke-width="1.5" stroke-linecap="round" stroke-linejoin="round"/>
<path d="M13.214 3.786C12.251 3.287 11.16 3 10 3C6.134 3 3 6.134 3 10C3 11.16 3.287 12.251 3.786 13.214" stroke="black" stroke-width="1.5" stroke-linecap="round" stroke-linejoin="round"/>
<path d="M18.9497 9.05025C21.6834 11.7839 21.6834 16.2161 18.9497 18.9497C16.216 21.6834 11.7839 21.6834 9.05021 18.9497C6.31654 16.2161 6.31654 11.7839 9.05021 9.05025C11.7839 6.31658 16.216 6.31658 18.9497 9.05025" stroke="black" stroke-width="1.5" stroke-linecap="round" stroke-linejoin="round"/>
</svg>
