<svg width="24" height="24" viewBox="0 0 24 24" fill="none" xmlns="http://www.w3.org/2000/svg">
<path d="M17 3.76721C13.983 1.74621 10.017 1.74621 7 3.76721" stroke="black" stroke-width="1.5" stroke-linecap="round" stroke-linejoin="round"/>
<path d="M15.98 19.3202C19.238 17.7182 21.221 14.2832 20.98 10.6602" stroke="black" stroke-width="1.5" stroke-linecap="round" stroke-linejoin="round"/>
<path d="M8.02 19.3202C4.762 17.7182 2.779 14.2832 3.02 10.6602" stroke="black" stroke-width="1.5" stroke-linecap="round" stroke-linejoin="round"/>
<path d="M20.8547 5.68836C21.4405 6.27415 21.4405 7.22389 20.8547 7.80968C20.2689 8.39547 19.3192 8.39547 18.7334 7.80968C18.1476 7.2239 18.1476 6.27415 18.7334 5.68836C19.3192 5.10258 20.2689 5.10258 20.8547 5.68836" stroke="black" stroke-width="1.5" stroke-linecap="round" stroke-linejoin="round"/>
<path d="M5.27266 5.68836C5.85845 6.27415 5.85845 7.22389 5.27266 7.80968C4.68688 8.39547 3.73713 8.39547 3.15134 7.80968C2.56556 7.2239 2.56556 6.27415 3.15134 5.68836C3.73713 5.10258 4.68687 5.10258 5.27266 5.68836" stroke="black" stroke-width="1.5" stroke-linecap="round" stroke-linejoin="round"/>
<path d="M13.0637 19.1884C13.6495 19.7741 13.6495 20.7239 13.0637 21.3097C12.4779 21.8955 11.5282 21.8955 10.9424 21.3097C10.3566 20.7239 10.3566 19.7742 10.9424 19.1884C11.5282 18.6026 12.4779 18.6026 13.0637 19.1884" stroke="black" stroke-width="1.5" stroke-linecap="round" stroke-linejoin="round"/>
<path d="M14.475 8.77379C15.842 10.1408 15.842 12.3568 14.475 13.7238C13.108 15.0908 10.892 15.0908 9.525 13.7238C8.158 12.3568 8.158 10.1408 9.525 8.77379C10.892 7.40679 13.108 7.40679 14.475 8.77379" stroke="black" stroke-width="1.5" stroke-linecap="round" stroke-linejoin="round"/>
</svg>
