<svg width="24" height="24" viewBox="0 0 24 24" fill="none" xmlns="http://www.w3.org/2000/svg">
<path fill-rule="evenodd" clip-rule="evenodd" d="M6.5 22V22C4.291 22 2.5 20.209 2.5 18V18C2.5 15.791 4.291 14 6.5 14V14C8.709 14 10.5 15.791 10.5 18V18C10.5 20.209 8.709 22 6.5 22Z" stroke="black" stroke-width="1.5" stroke-linecap="round" stroke-linejoin="round"/>
<path fill-rule="evenodd" clip-rule="evenodd" d="M17.5 11V11C15.291 11 13.5 9.209 13.5 7V7C13.5 4.791 15.291 3 17.5 3V3C19.709 3 21.5 4.791 21.5 7V7C21.5 9.209 19.709 11 17.5 11Z" stroke="black" stroke-width="1.5" stroke-linecap="round" stroke-linejoin="round"/>
<path fill-rule="evenodd" clip-rule="evenodd" d="M21.5 18C21.5 15.792 19.711 14.002 17.503 14C15.339 13.998 13.499 15.837 13.5 18C13.5 20.209 15.291 22 17.5 22C19.71 22 21.5 20.209 21.5 18Z" stroke="black" stroke-width="1.5"/>
<path d="M17.5 19.5979V16.4019" stroke="black" stroke-width="1.5" stroke-linecap="round" stroke-linejoin="round"/>
<path d="M15.902 18H19.098" stroke="black" stroke-width="1.5" stroke-linecap="round" stroke-linejoin="round"/>
<path d="M6.5 11C4.291 11 2.5 9.209 2.5 7C2.5 4.836 4.34 2.998 6.503 3C8.711 3.002 10.5 4.792 10.5 7C10.5 9.209 8.71 11 6.5 11" stroke="black" stroke-width="1.5"/>
</svg>
