<svg width="24" height="24" viewBox="0 0 24 24" fill="none" xmlns="http://www.w3.org/2000/svg">
<path fill-rule="evenodd" clip-rule="evenodd" d="M19 21H11C9.895 21 9 20.105 9 19V11C9 9.895 9.895 9 11 9H19C20.105 9 21 9.895 21 11V19C21 20.105 20.105 21 19 21Z" stroke="black" stroke-width="1.5" stroke-linecap="round" stroke-linejoin="round"/>
<path fill-rule="evenodd" clip-rule="evenodd" d="M13 15H5C3.895 15 3 14.105 3 13V5C3 3.895 3.895 3 5 3H13C14.105 3 15 3.895 15 5V13C15 14.105 14.105 15 13 15Z" stroke="black" stroke-width="1.5" stroke-linecap="round" stroke-linejoin="round"/>
</svg>
