<svg width="24" height="24" viewBox="0 0 24 24" fill="none" xmlns="http://www.w3.org/2000/svg">
<path d="M5.43362 6.86778C5.87618 6.34938 6.38018 5.88762 6.93314 5.4873" stroke="black" stroke-width="1.5" stroke-linecap="round" stroke-linejoin="round"/>
<path d="M16.8 19.6567C15.4272 20.5764 13.777 21.114 12 21.114C11.1245 21.114 10.2806 20.9815 9.4848 20.7396" stroke="black" stroke-width="1.5" stroke-linecap="round" stroke-linejoin="round"/>
<path d="M3.86208 9.59424C3.5424 10.4966 3.36 11.4624 3.36 12.4742" stroke="black" stroke-width="1.5" stroke-linecap="round" stroke-linejoin="round"/>
<path d="M9.4848 4.20838C10.2806 3.96646 11.1245 3.83398 12 3.83398C16.7722 3.83398 20.64 7.70182 20.64 12.474C20.64 14.2548 20.0899 15.9002 19.1645 17.274" stroke="black" stroke-width="1.5" stroke-linecap="round" stroke-linejoin="round"/>
<path d="M15.456 14.7773H8.54401L10.847 17.0823" stroke="black" stroke-width="1.5" stroke-linecap="round" stroke-linejoin="round"/>
<path d="M13.153 7.86523L15.456 10.1712H8.54401" stroke="black" stroke-width="1.5" stroke-linecap="round" stroke-linejoin="round"/>
<path d="M6.93313 19.4618C5.53153 18.4442 4.45441 17.0148 3.86401 15.354" stroke="black" stroke-width="1.5" stroke-linecap="round" stroke-linejoin="round"/>
</svg>
