<svg width="24" height="24" viewBox="0 0 24 24" fill="none" xmlns="http://www.w3.org/2000/svg">
<path d="M19.0029 21.0038C20.1084 21.0038 21.0037 20.1084 21.0037 19.0029" stroke="black" stroke-width="1.5" stroke-linecap="round" stroke-linejoin="round"/>
<path d="M21.0038 19.0031V14.001" stroke="black" stroke-width="1.5" stroke-linecap="round" stroke-linejoin="round"/>
<path d="M19.0029 21.0041H14.0008" stroke="black" stroke-width="1.5" stroke-linecap="round" stroke-linejoin="round"/>
<path d="M2.99625 15.7517H9.99917L8.24844 14.001" stroke="black" stroke-width="1.5" stroke-linecap="round" stroke-linejoin="round"/>
<path d="M9.99917 19.2529H2.99625L4.74698 21.0037" stroke="black" stroke-width="1.5" stroke-linecap="round" stroke-linejoin="round"/>
<path d="M4.99708 2.99609C3.89162 2.99609 2.99625 3.89147 2.99625 4.99693" stroke="black" stroke-width="1.5" stroke-linecap="round" stroke-linejoin="round"/>
<path d="M2.99625 4.99707V9.99915" stroke="black" stroke-width="1.5" stroke-linecap="round" stroke-linejoin="round"/>
<path d="M4.99708 2.9963H9.99917" stroke="black" stroke-width="1.5" stroke-linecap="round" stroke-linejoin="round"/>
<path d="M18.7808 6.1084L16.5579 8.33132L15.2233 6.99777" stroke="black" stroke-width="1.5" stroke-linecap="round" stroke-linejoin="round"/>
<path fill-rule="evenodd" clip-rule="evenodd" d="M19.0029 10.9994H15.0013C13.8958 10.9994 13.0004 10.1041 13.0004 8.99859V4.99693C13.0004 3.89147 13.8958 2.99609 15.0013 2.99609H19.0029C20.1084 2.99609 21.0037 3.89147 21.0037 4.99693V8.99859C21.0037 10.1041 20.1084 10.9994 19.0029 10.9994Z" stroke="black" stroke-width="1.5" stroke-linecap="round" stroke-linejoin="round"/>
</svg>
