<svg width="24" height="24" viewBox="0 0 24 24" fill="none" xmlns="http://www.w3.org/2000/svg">
<path d="M4.99708 2.99609C3.89162 2.99609 2.99625 3.89147 2.99625 4.99693" stroke="black" stroke-width="1.5" stroke-linecap="round" stroke-linejoin="round"/>
<path d="M2.99625 8.32861V10.3294" stroke="black" stroke-width="1.5" stroke-linecap="round" stroke-linejoin="round"/>
<path d="M8.32847 2.9963H10.3293" stroke="black" stroke-width="1.5" stroke-linecap="round" stroke-linejoin="round"/>
<path d="M19.0029 21.0038C20.1084 21.0038 21.0037 20.1084 21.0037 19.0029" stroke="black" stroke-width="1.5" stroke-linecap="round" stroke-linejoin="round"/>
<path d="M21.0037 15.6717V13.6709" stroke="black" stroke-width="1.5" stroke-linecap="round" stroke-linejoin="round"/>
<path d="M15.6715 21.0036H13.6707" stroke="black" stroke-width="1.5" stroke-linecap="round" stroke-linejoin="round"/>
<path d="M8.77666 16.1128L6.55373 18.3357L5.21917 17.0022" stroke="black" stroke-width="1.5" stroke-linecap="round" stroke-linejoin="round"/>
<path fill-rule="evenodd" clip-rule="evenodd" d="M8.99875 21.0038H4.99708C3.89162 21.0038 2.99625 20.1084 2.99625 19.003V15.0013C2.99625 13.8959 3.89162 13.0005 4.99708 13.0005H8.99875C10.1042 13.0005 10.9996 13.8959 10.9996 15.0013V19.003C10.9996 20.1084 10.1042 21.0038 8.99875 21.0038Z" stroke="black" stroke-width="1.5" stroke-linecap="round" stroke-linejoin="round"/>
<path fill-rule="evenodd" clip-rule="evenodd" d="M15.0012 2.99609H19.0029C20.1084 2.99609 21.0037 3.89147 21.0037 4.99693V8.99859C21.0037 10.1041 20.1084 10.9994 19.0029 10.9994H15.0012C13.8958 10.9994 13.0004 10.1041 13.0004 8.99859V4.99693C13.0004 3.89147 13.8958 2.99609 15.0012 2.99609Z" stroke="black" stroke-width="1.5" stroke-linecap="round" stroke-linejoin="round"/>
<path d="M18.1135 5.88672L15.8906 8.10964" stroke="black" stroke-width="1.5" stroke-linecap="round" stroke-linejoin="round"/>
<path d="M18.1135 8.10964L15.8906 5.88672" stroke="black" stroke-width="1.5" stroke-linecap="round" stroke-linejoin="round"/>
</svg>
