<svg width="24" height="24" viewBox="0 0 24 24" fill="none" xmlns="http://www.w3.org/2000/svg">
<path fill-rule="evenodd" clip-rule="evenodd" d="M18.954 21H5.046C3.941 21 3.046 20.105 3.046 19V11C3.046 9.895 3.941 9 5.046 9H18.954C20.059 9 20.954 9.895 20.954 11V19C20.954 20.105 20.058 21 18.954 21Z" stroke="black" stroke-width="1.5" stroke-linecap="round" stroke-linejoin="round"/>
<path d="M4.782 9V8C4.782 6.895 5.677 6 6.782 6H17.217C18.322 6 19.217 6.895 19.217 8V9" stroke="black" stroke-width="1.5" stroke-linecap="round" stroke-linejoin="round"/>
<path d="M6.516 6V5C6.516 3.895 7.411 3 8.516 3H15.485C16.59 3 17.485 3.895 17.485 5V6" stroke="black" stroke-width="1.5" stroke-linecap="round" stroke-linejoin="round"/>
<path d="M12 12V18" stroke="black" stroke-width="1.5" stroke-linecap="round" stroke-linejoin="round"/>
<path d="M14.9 14.8999H9.1" stroke="black" stroke-width="1.5" stroke-linecap="round" stroke-linejoin="round"/>
</svg>
