<svg width="24" height="24" viewBox="0 0 24 24" fill="none" xmlns="http://www.w3.org/2000/svg">
<path fill-rule="evenodd" clip-rule="evenodd" d="M5.5 3.5H18.5C19.605 3.5 20.5 4.395 20.5 5.5V18.5C20.5 19.605 19.605 20.5 18.5 20.5H5.5C4.395 20.5 3.5 19.605 3.5 18.5V5.5C3.5 4.395 4.395 3.5 5.5 3.5Z" stroke="black" stroke-width="1.5" stroke-linecap="round" stroke-linejoin="round"/>
<path d="M12 9.04492C11.931 9.04492 11.875 9.10092 11.876 9.16992C11.876 9.23892 11.932 9.29492 12.001 9.29492C12.07 9.29492 12.126 9.23892 12.126 9.16992C12.126 9.10092 12.069 9.04492 12 9.04492" stroke="black" stroke-width="1.5" stroke-linecap="round" stroke-linejoin="round"/>
<path d="M12 6.20508C11.931 6.20508 11.875 6.26108 11.876 6.33008C11.876 6.39908 11.932 6.45508 12.001 6.45508C12.07 6.45508 12.126 6.39908 12.126 6.33008C12.125 6.26108 12.069 6.20508 12 6.20508" stroke="black" stroke-width="1.5" stroke-linecap="round" stroke-linejoin="round"/>
<path d="M12 11.875C11.931 11.875 11.875 11.931 11.876 12C11.876 12.069 11.932 12.125 12.001 12.125C12.07 12.125 12.126 12.069 12.126 12C12.126 11.931 12.069 11.875 12 11.875" stroke="black" stroke-width="1.5" stroke-linecap="round" stroke-linejoin="round"/>
<path d="M12 14.7051C11.931 14.7051 11.875 14.7611 11.876 14.8301C11.876 14.8991 11.932 14.9551 12.001 14.9551C12.07 14.9551 12.126 14.8991 12.126 14.8301C12.126 14.7611 12.069 14.7051 12 14.7051" stroke="black" stroke-width="1.5" stroke-linecap="round" stroke-linejoin="round"/>
<path d="M12 17.5449C11.931 17.5449 11.875 17.6009 11.876 17.6699C11.876 17.7389 11.932 17.7949 12.001 17.7949C12.07 17.7949 12.126 17.7389 12.126 17.6699C12.126 17.6009 12.069 17.5449 12 17.5449" stroke="black" stroke-width="1.5" stroke-linecap="round" stroke-linejoin="round"/>
<path d="M14.955 12C14.955 11.931 14.899 11.875 14.83 11.876C14.761 11.876 14.705 11.932 14.705 12.001C14.705 12.07 14.761 12.126 14.83 12.126C14.899 12.126 14.955 12.069 14.955 12" stroke="black" stroke-width="1.5" stroke-linecap="round" stroke-linejoin="round"/>
<path d="M17.795 12C17.795 11.931 17.739 11.875 17.67 11.876C17.601 11.876 17.545 11.932 17.545 12.001C17.545 12.07 17.601 12.126 17.67 12.126C17.739 12.126 17.795 12.069 17.795 12" stroke="black" stroke-width="1.5" stroke-linecap="round" stroke-linejoin="round"/>
<path d="M9.29501 12C9.29501 11.931 9.23901 11.875 9.17001 11.876C9.10101 11.876 9.04501 11.932 9.04501 12.001C9.04501 12.07 9.10101 12.126 9.17001 12.126C9.23901 12.126 9.29501 12.069 9.29501 12" stroke="black" stroke-width="1.5" stroke-linecap="round" stroke-linejoin="round"/>
<path d="M6.45499 12C6.45499 11.931 6.39899 11.875 6.32999 11.876C6.26099 11.876 6.20499 11.932 6.20499 12.001C6.20499 12.07 6.26099 12.126 6.32999 12.126C6.39899 12.125 6.45499 12.069 6.45499 12" stroke="black" stroke-width="1.5" stroke-linecap="round" stroke-linejoin="round"/>
</svg>
