<svg width="24" height="24" viewBox="0 0 24 24" fill="none" xmlns="http://www.w3.org/2000/svg">
<path fill-rule="evenodd" clip-rule="evenodd" d="M14 19V21C14 21.552 13.552 22 13 22H11C10.448 22 10 21.552 10 21V19C10 18.448 10.448 18 11 18H13C13.552 18 14 18.448 14 19Z" stroke="black" stroke-width="1.5" stroke-linecap="round" stroke-linejoin="round"/>
<path fill-rule="evenodd" clip-rule="evenodd" d="M14 3V5C14 5.552 13.552 6 13 6H11C10.448 6 10 5.552 10 5V3C10 2.448 10.448 2 11 2H13C13.552 2 14 2.448 14 3Z" stroke="black" stroke-width="1.5" stroke-linecap="round" stroke-linejoin="round"/>
<path fill-rule="evenodd" clip-rule="evenodd" d="M5 14H3C2.448 14 2 13.552 2 13V11C2 10.448 2.448 10 3 10H5C5.552 10 6 10.448 6 11V13C6 13.552 5.552 14 5 14Z" stroke="black" stroke-width="1.5" stroke-linecap="round" stroke-linejoin="round"/>
<path fill-rule="evenodd" clip-rule="evenodd" d="M21 14H19C18.448 14 18 13.552 18 13V11C18 10.448 18.448 10 19 10H21C21.552 10 22 10.448 22 11V13C22 13.552 21.552 14 21 14Z" stroke="black" stroke-width="1.5" stroke-linecap="round" stroke-linejoin="round"/>
<path d="M12 9.04492C11.931 9.04492 11.875 9.10092 11.876 9.16992C11.876 9.23892 11.932 9.29492 12.001 9.29492C12.07 9.29492 12.126 9.23892 12.126 9.16992C12.126 9.10092 12.069 9.04492 12 9.04492" stroke="black" stroke-width="1.5" stroke-linecap="round" stroke-linejoin="round"/>
<path d="M12 11.875C11.931 11.875 11.875 11.931 11.876 12C11.876 12.069 11.932 12.125 12.001 12.125C12.07 12.125 12.126 12.069 12.126 12C12.126 11.931 12.069 11.875 12 11.875" stroke="black" stroke-width="1.5" stroke-linecap="round" stroke-linejoin="round"/>
<path d="M12 14.7051C11.931 14.7051 11.875 14.7611 11.876 14.8301C11.876 14.8991 11.932 14.9551 12.001 14.9551C12.07 14.9551 12.126 14.8991 12.126 14.8301C12.126 14.7611 12.069 14.7051 12 14.7051" stroke="black" stroke-width="1.5" stroke-linecap="round" stroke-linejoin="round"/>
<path d="M14.955 12C14.955 11.931 14.899 11.875 14.83 11.876C14.761 11.876 14.705 11.932 14.705 12.001C14.705 12.07 14.761 12.126 14.83 12.126C14.899 12.126 14.955 12.069 14.955 12" stroke="black" stroke-width="1.5" stroke-linecap="round" stroke-linejoin="round"/>
<path d="M9.295 12C9.295 11.931 9.239 11.875 9.17 11.876C9.101 11.876 9.045 11.932 9.045 12.001C9.045 12.07 9.101 12.126 9.17 12.126C9.239 12.126 9.295 12.069 9.295 12" stroke="black" stroke-width="1.5" stroke-linecap="round" stroke-linejoin="round"/>
<path d="M4 10V6C4 4.895 4.895 4 6 4H10" stroke="black" stroke-width="1.5" stroke-linecap="round" stroke-linejoin="round"/>
<path d="M20 10V6C20 4.895 19.105 4 18 4H14" stroke="black" stroke-width="1.5" stroke-linecap="round" stroke-linejoin="round"/>
<path d="M20 14V18C20 19.105 19.105 20 18 20H14" stroke="black" stroke-width="1.5" stroke-linecap="round" stroke-linejoin="round"/>
<path d="M4 18C4 19.105 4.895 20 6 20H10" stroke="black" stroke-width="1.5" stroke-linecap="round" stroke-linejoin="round"/>
<path d="M4 14V18" stroke="black" stroke-width="1.5" stroke-linecap="round" stroke-linejoin="round"/>
</svg>
