<svg width="24" height="24" viewBox="0 0 24 24" fill="none" xmlns="http://www.w3.org/2000/svg">
<path d="M8 5H6C4.89543 5 4 5.89543 4 7V19C4 20.1046 4.89543 21 6 21H11" stroke="black" stroke-width="1.5" stroke-linecap="round" stroke-linejoin="round"/>
<rect x="8" y="3" width="8" height="4" rx="1" stroke="black" stroke-width="1.5" stroke-linecap="round" stroke-linejoin="round"/>
<path d="M16 5H18C19.1046 5 20 5.89543 20 7V9" stroke="black" stroke-width="1.5" stroke-linecap="round" stroke-linejoin="round"/>
<path d="M8 12H12" stroke="black" stroke-width="1.5" stroke-linecap="round" stroke-linejoin="round"/>
<path d="M8 16H11" stroke="black" stroke-width="1.5" stroke-linecap="round" stroke-linejoin="round"/>
<path d="M17.5 21V18.5" stroke="black" stroke-width="1.5" stroke-linecap="round" stroke-linejoin="round"/>
<path fill-rule="evenodd" clip-rule="evenodd" d="M15.389 15.0423L15.0198 13.1961C14.9611 12.9023 15.0371 12.5977 15.227 12.366C15.417 12.1343 15.7008 12 16.0003 12H18.9997C19.2993 12 19.583 12.1343 19.773 12.366C19.9629 12.5976 20.0389 12.9022 19.9802 13.196L19.611 15.0423C19.5622 15.2862 19.6061 15.5396 19.7341 15.7529L20.928 17.7427C21.0207 17.8972 21.0232 18.0896 20.9344 18.2464C20.8456 18.4031 20.6794 18.5 20.4992 18.5H14.5008C14.3207 18.5 14.1544 18.4031 14.0657 18.2463C13.9769 18.0896 13.9793 17.8972 14.072 17.7427L15.2659 15.7529C15.3939 15.5396 15.4378 15.2862 15.389 15.0423V15.0423Z" stroke="black" stroke-width="1.5" stroke-linecap="round" stroke-linejoin="round"/>
</svg>
