<svg width="24" height="24" viewBox="0 0 24 24" fill="none" xmlns="http://www.w3.org/2000/svg">
<path d="M17.5023 13.001C19.9886 13.001 22.0042 15.0165 22.0042 17.5029C22.0042 19.9892 19.9886 22.0047 17.5023 22.0047C15.016 22.0047 13.0004 19.9892 13.0004 17.5029C13.0004 15.0165 15.016 13.001 17.5023 13.001" stroke="black" stroke-width="1.5" stroke-linecap="round" stroke-linejoin="round"/>
<path d="M10.9996 21.0036H7.99833C5.23576 21.0036 2.99625 18.7641 2.99625 16.0015V7.99818C2.99625 5.2356 5.23576 2.99609 7.99833 2.99609H16.0017C18.7642 2.99609 21.0037 5.2356 21.0037 7.99818V10.9994" stroke="black" stroke-width="1.5" stroke-linecap="round" stroke-linejoin="round"/>
<path d="M15.0012 9.99923H10.2493" stroke="black" stroke-width="1.5" stroke-linecap="round" stroke-linejoin="round"/>
<path d="M10.9996 14.0012H10.2493" stroke="black" stroke-width="1.5" stroke-linecap="round" stroke-linejoin="round"/>
<path d="M7.12297 9.87418C7.0539 9.87418 6.99791 9.93017 6.99791 9.99923C6.99791 10.0683 7.0539 10.1243 7.12297 10.1243C7.19203 10.1243 7.24802 10.0683 7.24802 9.99923C7.24802 9.93017 7.19203 9.87418 7.12297 9.87418" stroke="black" stroke-width="1.5" stroke-linecap="round" stroke-linejoin="round"/>
<path d="M7.12297 13.8761C7.0539 13.8761 6.99791 13.9321 6.99791 14.0012C6.99791 14.0702 7.0539 14.1262 7.12297 14.1262C7.19203 14.1262 7.24802 14.0702 7.24802 14.0012C7.24802 13.9321 7.19203 13.8761 7.12297 13.8761" stroke="black" stroke-width="1.5" stroke-linecap="round" stroke-linejoin="round"/>
<path d="M18.7245 17.4526C18.7069 17.4526 18.6905 17.462 18.6816 17.4773C18.6727 17.4926 18.6727 17.5115 18.6815 17.5268C18.6903 17.5422 18.7067 17.5516 18.7243 17.5517H18.7245C18.7519 17.5517 18.7741 17.5296 18.7742 17.5023C18.7742 17.4749 18.7521 17.4527 18.7247 17.4526H18.7246" stroke="black" stroke-width="1.5" stroke-linecap="round" stroke-linejoin="round"/>
<path d="M16.2789 17.4525C16.2516 17.4525 16.2294 17.4747 16.2294 17.502V17.502C16.2289 17.5225 16.2409 17.5412 16.2596 17.5495C16.2784 17.5577 16.3002 17.5539 16.315 17.5397C16.3298 17.5256 16.3347 17.5039 16.3272 17.4848C16.3198 17.4657 16.3016 17.453 16.2811 17.4525H16.28" stroke="black" stroke-width="1.5" stroke-linecap="round" stroke-linejoin="round"/>
</svg>
