<svg width="24" height="24" viewBox="0 0 24 24" fill="none" xmlns="http://www.w3.org/2000/svg">
<path fill-rule="evenodd" clip-rule="evenodd" d="M16.5019 17.0311V17.0311C15.9752 17.0311 15.4701 16.8218 15.0977 16.4494C14.7253 16.077 14.5161 15.5719 14.5161 15.0452V11.7349C14.5161 10.6381 15.4051 9.74902 16.5019 9.74902V9.74902C17.5986 9.74902 18.4877 10.6381 18.4877 11.7349V15.0452C18.4877 15.5719 18.2785 16.077 17.9061 16.4494C17.5337 16.8218 17.0286 17.0311 16.5019 17.0311V17.0311Z" stroke="black" stroke-width="1.5" stroke-linecap="round" stroke-linejoin="round"/>
<path d="M21.0037 15.1514C21.0037 17.6377 18.9882 19.6532 16.5019 19.6532V19.6532C14.0156 19.6532 12 17.6377 12 15.1514" stroke="black" stroke-width="1.5" stroke-linecap="round" stroke-linejoin="round"/>
<path d="M16.5019 21.0039V19.6533" stroke="black" stroke-width="1.5" stroke-linecap="round" stroke-linejoin="round"/>
<path d="M10.9996 8.99923H6.99792" stroke="black" stroke-width="1.5" stroke-linecap="round" stroke-linejoin="round"/>
<path d="M8.99876 12.8752H6.99792" stroke="black" stroke-width="1.5" stroke-linecap="round" stroke-linejoin="round"/>
<path d="M12 21.0036H7.99833C5.23576 21.0036 2.99625 18.7641 2.99625 16.0015V7.99818C2.99625 5.2356 5.23576 2.99609 7.99833 2.99609H16.0017C18.7642 2.99609 21.0037 5.2356 21.0037 7.99818V10.9994" stroke="black" stroke-width="1.5" stroke-linecap="round" stroke-linejoin="round"/>
</svg>
