<svg width="24" height="24" viewBox="0 0 24 24" fill="none" xmlns="http://www.w3.org/2000/svg">
<path fill-rule="evenodd" clip-rule="evenodd" d="M7.99835 3.99693L9.29889 2.37125C9.48897 2.13415 9.77609 1.99609 10.0802 1.99609H13.9208C14.2249 1.99609 14.5121 2.13415 14.7021 2.37125L16.0017 3.99693V3.99693V4.99734C16.0017 5.54957 15.5535 5.99776 15.0013 5.99776H8.99877C8.44654 5.99776 7.99835 5.54957 7.99835 4.99734V3.99693V3.99693Z" stroke="black" stroke-width="1.5" stroke-linecap="round" stroke-linejoin="round"/>
<path d="M20.0033 12.0004V5.9979C20.0033 4.89244 19.108 3.99707 18.0025 3.99707H16.0017" stroke="black" stroke-width="1.5" stroke-linecap="round" stroke-linejoin="round"/>
<path d="M7.99834 3.99707H5.99751C4.89205 3.99707 3.99667 4.89244 3.99667 5.9979V19.0033C3.99667 20.1088 4.89205 21.0042 5.99751 21.0042H12" stroke="black" stroke-width="1.5" stroke-linecap="round" stroke-linejoin="round"/>
<path fill-rule="evenodd" clip-rule="evenodd" d="M14.7681 18.694C14.494 18.2778 14.494 17.7296 14.7681 17.3134C15.6165 16.0299 16.9491 15.0015 18.2826 15.0015C19.6162 15.0015 20.9477 16.0299 21.7971 17.3124C22.0722 17.7286 22.0722 18.2778 21.7971 18.693C20.9467 19.9755 19.6152 21.004 18.2826 21.004C16.9491 21.005 15.6165 19.9765 14.7681 18.694Z" stroke="black" stroke-width="1.5" stroke-linecap="round" stroke-linejoin="round"/>
<path d="M18.3817 17.9036C18.4377 17.9596 18.4377 18.0486 18.3817 18.1047C18.3256 18.1607 18.2366 18.1607 18.1806 18.1047C18.1246 18.0486 18.1246 17.9596 18.1806 17.9036C18.2376 17.8475 18.3276 17.8475 18.3817 17.9036" stroke="black" stroke-width="1.5" stroke-linecap="round" stroke-linejoin="round"/>
<path d="M7.99835 10.9997H16.0017" stroke="black" stroke-width="1.5" stroke-linecap="round" stroke-linejoin="round"/>
<path d="M7.99835 16.0022H9.99919" stroke="black" stroke-width="1.5" stroke-linecap="round" stroke-linejoin="round"/>
</svg>
