<svg width="24" height="24" viewBox="0 0 24 24" fill="none" xmlns="http://www.w3.org/2000/svg">
<path fill-rule="evenodd" clip-rule="evenodd" d="M13.5006 17.502H18.5027V20.5032C18.5027 21.0557 18.0548 21.5036 17.5023 21.5036H14.501C13.9485 21.5036 13.5006 21.0557 13.5006 20.5032V17.502Z" stroke="black" stroke-width="1.5" stroke-linecap="round" stroke-linejoin="round"/>
<path fill-rule="evenodd" clip-rule="evenodd" d="M14.0008 11.5H18.0025C18.555 11.5 19.0029 11.9479 19.0029 12.5004V14.5013H13.0004V12.5004C13.0004 11.9479 13.4483 11.5 14.0008 11.5Z" stroke="black" stroke-width="1.5" stroke-linecap="round" stroke-linejoin="round"/>
<path d="M13.4326 19.5031H12C11.4475 19.5031 10.9996 19.0552 10.9996 18.5026V15.5014C10.9996 14.9489 11.4475 14.501 12 14.501H20.0033C20.5558 14.501 21.0037 14.9489 21.0037 15.5014V18.5026C21.0037 19.0552 20.5558 19.5031 20.0033 19.5031H18.5707" stroke="black" stroke-width="1.5" stroke-linecap="round" stroke-linejoin="round"/>
<path d="M6.99791 3.99707H4.99708C3.89205 3.99707 2.99625 4.89287 2.99625 5.9979V18.0029C2.99625 19.1079 3.89205 20.0037 4.99708 20.0037H7.99833" stroke="black" stroke-width="1.5" stroke-linecap="round" stroke-linejoin="round"/>
<rect x="6.99792" y="1.99609" width="8.00333" height="4.00167" rx="1" stroke="black" stroke-width="1.5" stroke-linecap="round" stroke-linejoin="round"/>
<path d="M15.0013 3.99707H17.0021C18.1071 3.99707 19.0029 4.89287 19.0029 5.9979V7.99874" stroke="black" stroke-width="1.5" stroke-linecap="round" stroke-linejoin="round"/>
</svg>
