<svg width="24" height="24" viewBox="0 0 24 24" fill="none" xmlns="http://www.w3.org/2000/svg">
<path d="M16.5019 18.5052V16.8379" stroke="black" stroke-width="1.5" stroke-linecap="round" stroke-linejoin="round"/>
<path d="M16.5019 14.4993C16.4712 14.4993 16.4463 14.5242 16.4463 14.5549V14.5549C16.4463 14.5774 16.4598 14.5976 16.4806 14.6062C16.5014 14.6149 16.5253 14.6101 16.5412 14.5942C16.5571 14.5783 16.5618 14.5544 16.5532 14.5336C16.5446 14.5129 16.5244 14.4993 16.5019 14.4993" stroke="black" stroke-width="1.5" stroke-linecap="round" stroke-linejoin="round"/>
<path d="M14.501 12H13.0004C12.4479 12 12 12.4479 12 13.0004V20.0033C12 20.5558 12.4479 21.0037 13.0004 21.0037H14.501" stroke="black" stroke-width="1.5" stroke-linecap="round" stroke-linejoin="round"/>
<path d="M18.5027 12H20.0033C20.5558 12 21.0037 12.4479 21.0037 13.0004V20.0033C21.0037 20.5558 20.5558 21.0037 20.0033 21.0037H18.5027" stroke="black" stroke-width="1.5" stroke-linecap="round" stroke-linejoin="round"/>
<path d="M7.99832 4.99707H5.99749C4.89246 4.99707 3.99666 5.89287 3.99666 6.9979V19.0029C3.99666 20.1079 4.89246 21.0037 5.99749 21.0037H8.99874" stroke="black" stroke-width="1.5" stroke-linecap="round" stroke-linejoin="round"/>
<rect x="7.99832" y="2.99609" width="8.00333" height="4.00167" rx="1" stroke="black" stroke-width="1.5" stroke-linecap="round" stroke-linejoin="round"/>
<path d="M16.0017 4.99707H18.0025C19.1075 4.99707 20.0033 5.89287 20.0033 6.9979V8.99874" stroke="black" stroke-width="1.5" stroke-linecap="round" stroke-linejoin="round"/>
</svg>
