<svg width="24" height="24" viewBox="0 0 24 24" fill="none" xmlns="http://www.w3.org/2000/svg">
<path d="M7.49812 2.99609H4.99708C4.46638 2.99595 3.95738 3.2067 3.58212 3.58196C3.20686 3.95722 2.9961 4.46623 2.99625 4.99693V7.49797" stroke="black" stroke-width="1.5" stroke-linecap="round" stroke-linejoin="round"/>
<path d="M2.99625 16.502V19.003C2.9961 19.5337 3.20686 20.0427 3.58212 20.418C3.95738 20.7932 4.46638 21.004 4.99708 21.0038H7.49812" stroke="black" stroke-width="1.5" stroke-linecap="round" stroke-linejoin="round"/>
<path d="M16.5019 21.0038H19.0029C19.5336 21.004 20.0426 20.7932 20.4179 20.418C20.7931 20.0427 21.0039 19.5337 21.0037 19.003V16.502" stroke="black" stroke-width="1.5" stroke-linecap="round" stroke-linejoin="round"/>
<path d="M21.0037 7.49797V4.99693C21.0039 4.46623 20.7931 3.95722 20.4179 3.58196C20.0426 3.2067 19.5336 2.99595 19.0029 2.99609H16.5019" stroke="black" stroke-width="1.5" stroke-linecap="round" stroke-linejoin="round"/>
<path d="M6.99791 7.99826H17.0021" stroke="black" stroke-width="1.5" stroke-linecap="round" stroke-linejoin="round"/>
<path d="M6.99791 12.0002H17.0021" stroke="black" stroke-width="1.5" stroke-linecap="round" stroke-linejoin="round"/>
<path d="M6.99791 16.0022H12" stroke="black" stroke-width="1.5" stroke-linecap="round" stroke-linejoin="round"/>
</svg>
