<svg width="24" height="24" viewBox="0 0 24 24" fill="none" xmlns="http://www.w3.org/2000/svg">
<path d="M17 15.4999L7.00003 15.5001" stroke="black" stroke-width="1.5" stroke-linecap="round" stroke-linejoin="round"/>
<path fill-rule="evenodd" clip-rule="evenodd" d="M11 11.7C11 12.1418 10.6418 12.5 10.2 12.5L7.8 12.5C7.35817 12.5 7 12.1418 7 11.7L7 9.3C7 8.85817 7.35817 8.5 7.8 8.5L10.2 8.5C10.6418 8.5 11 8.85817 11 9.3L11 11.7Z" stroke="black" stroke-width="1.5" stroke-linecap="round" stroke-linejoin="round"/>
<path d="M17 12H14" stroke="black" stroke-width="1.5" stroke-linecap="round" stroke-linejoin="round"/>
<path d="M17 8.5H14" stroke="black" stroke-width="1.5" stroke-linecap="round" stroke-linejoin="round"/>
<path fill-rule="evenodd" clip-rule="evenodd" d="M16.0683 3.21875C18.8298 3.21875 21.0683 5.45733 21.0683 8.21875L21.0683 16.2187C21.0683 18.9802 18.8298 21.2188 16.0683 21.2188L8.06834 21.2188C5.30692 21.2188 3.06834 18.9802 3.06834 16.2188L3.06833 8.21876C3.06833 5.45734 5.30691 3.21876 8.06833 3.21876L16.0683 3.21875Z" stroke="black" stroke-width="1.5" stroke-linecap="round" stroke-linejoin="round"/>
</svg>
