<svg width="24" height="24" viewBox="0 0 24 24" fill="none" xmlns="http://www.w3.org/2000/svg">
<path d="M16.0016 21.0036C17.1067 21.0036 18.0025 20.1078 18.0025 19.0028V17.002" stroke="black" stroke-width="1.5" stroke-linecap="round" stroke-linejoin="round"/>
<path d="M2.99625 19.0029C2.99625 20.108 3.89205 21.0038 4.99708 21.0038" stroke="black" stroke-width="1.5" stroke-linecap="round" stroke-linejoin="round"/>
<path d="M6.99791 5.99805H4.99708C3.89205 5.99805 2.99625 6.89385 2.99625 7.99888" stroke="black" stroke-width="1.5" stroke-linecap="round" stroke-linejoin="round"/>
<path d="M2.99624 12V15.0013" stroke="black" stroke-width="1.5" stroke-linecap="round" stroke-linejoin="round"/>
<path d="M8.99875 21.0041H12" stroke="black" stroke-width="1.5" stroke-linecap="round" stroke-linejoin="round"/>
<path fill-rule="evenodd" clip-rule="evenodd" d="M17.8917 2.99609H10.11C8.39126 2.99609 6.99792 4.38943 6.99792 6.10819V6.10819V13.8898C6.99792 15.6086 8.39126 17.0019 10.11 17.0019H17.8917C19.6104 17.0019 21.0038 15.6086 21.0038 13.8898V13.8898V6.10679C21.003 4.38857 19.6099 2.99609 17.8917 2.99609Z" stroke="black" stroke-width="1.5" stroke-linecap="round" stroke-linejoin="round"/>
<path d="M11.6655 7.85958H16.3341" stroke="black" stroke-width="1.5" stroke-linecap="round" stroke-linejoin="round"/>
<path d="M13.9998 7.85938V12.1389" stroke="black" stroke-width="1.5" stroke-linecap="round" stroke-linejoin="round"/>
</svg>
