<svg width="24" height="24" viewBox="0 0 24 24" fill="none" xmlns="http://www.w3.org/2000/svg">
<path fill-rule="evenodd" clip-rule="evenodd" d="M10.0802 4.31738H5.2772C4.21637 4.31738 3.3564 5.17735 3.3564 6.23818V11.0402C3.3564 12.101 4.21637 12.961 5.2772 12.961H10.0792C11.14 12.961 12 12.101 12 11.0402V6.23722C12 5.17692 11.1405 4.31738 10.0802 4.31738V4.31738Z" stroke="black" stroke-width="1.5" stroke-linecap="round" stroke-linejoin="round"/>
<path d="M6.2376 7.31809H9.1188" stroke="black" stroke-width="1.5" stroke-linecap="round" stroke-linejoin="round"/>
<path d="M7.6782 7.31836V9.95946" stroke="black" stroke-width="1.5" stroke-linecap="round" stroke-linejoin="round"/>
<path d="M14.8812 4.79688H17.7624C19.3536 4.79688 20.6436 6.08683 20.6436 7.67808V18.2425C20.6436 19.8337 19.3536 21.1237 17.7624 21.1237H6.2376C4.64636 21.1237 3.3564 19.8337 3.3564 18.2425V15.3613" stroke="black" stroke-width="1.5" stroke-linecap="round" stroke-linejoin="round"/>
<path d="M13.9208 14.4014L16.802 17.2826" stroke="black" stroke-width="1.5" stroke-linecap="round" stroke-linejoin="round"/>
<path d="M13.9208 17.2826H16.802V14.4014" stroke="black" stroke-width="1.5" stroke-linecap="round" stroke-linejoin="round"/>
</svg>
