<svg width="24" height="24" viewBox="0 0 24 24" fill="none" xmlns="http://www.w3.org/2000/svg">
<path fill-rule="evenodd" clip-rule="evenodd" d="M10.0002 2.99609H4.99708C3.89205 2.99609 2.99625 3.8919 2.99625 4.99693V9.99901C2.99625 11.104 3.89205 11.9998 4.99708 11.9998H9.99916C11.1042 11.9998 12 11.104 12 9.99901V4.99593C12 3.89145 11.1046 2.99609 10.0002 2.99609V2.99609Z" stroke="black" stroke-width="1.5" stroke-linecap="round" stroke-linejoin="round"/>
<path d="M5.9975 6.12228H8.99875" stroke="black" stroke-width="1.5" stroke-linecap="round" stroke-linejoin="round"/>
<path d="M7.49813 6.12305V8.87419" stroke="black" stroke-width="1.5" stroke-linecap="round" stroke-linejoin="round"/>
<path d="M15.0012 2.99609H18.0025C19.66 2.99609 21.0037 4.3398 21.0037 5.99734V18.0023C21.0037 19.6599 19.66 21.0036 18.0025 21.0036H5.9975C4.33995 21.0036 2.99625 19.6599 2.99625 18.0023V15.0011" stroke="black" stroke-width="1.5" stroke-linecap="round" stroke-linejoin="round"/>
<path d="M17.0021 17.0022L14.0008 14.001" stroke="black" stroke-width="1.5" stroke-linecap="round" stroke-linejoin="round"/>
<path d="M14.0008 17.0022V14.001" stroke="black" stroke-width="1.5" stroke-linecap="round" stroke-linejoin="round"/>
<path d="M17.0021 14.0012H14.0008" stroke="black" stroke-width="1.5" stroke-linecap="round" stroke-linejoin="round"/>
</svg>
