<svg width="24" height="24" viewBox="0 0 24 24" fill="none" xmlns="http://www.w3.org/2000/svg">
<path d="M7.24802 11.75V15.7517" stroke="black" stroke-width="1.5" stroke-linecap="round" stroke-linejoin="round"/>
<path fill-rule="evenodd" clip-rule="evenodd" d="M15.7516 10.7462H13.7007V9.04548C13.6991 8.46729 13.2305 7.99915 12.6523 7.99805H12.2521C11.9004 7.99805 11.5745 8.18257 11.3937 8.48425L9.78408 11.1604C9.59783 11.4715 9.4993 11.8272 9.49896 12.1898V15.001C9.49896 15.5535 9.94686 16.0014 10.4994 16.0014H14.6801C15.0149 16.0018 15.3277 15.8347 15.5135 15.5562L16.5839 13.9495C16.6935 13.7851 16.752 13.5919 16.752 13.3943V11.7466C16.752 11.1941 16.3041 10.7462 15.7516 10.7462Z" stroke="black" stroke-width="1.5" stroke-linecap="round" stroke-linejoin="round"/>
<rect x="2.99625" y="2.99609" width="18.0075" height="18.0075" rx="5" stroke="black" stroke-width="1.5" stroke-linecap="round" stroke-linejoin="round"/>
</svg>
