<svg width="24" height="24" viewBox="0 0 24 24" fill="none" xmlns="http://www.w3.org/2000/svg">
<path fill-rule="evenodd" clip-rule="evenodd" d="M7.99833 10.333H9.85625V16.0017H7.99833C7.44582 16.0017 6.99792 15.5538 6.99792 15.0013V11.3334C6.99792 10.7809 7.44582 10.333 7.99833 10.333Z" stroke="black" stroke-width="1.5" stroke-linecap="round" stroke-linejoin="round"/>
<path d="M9.85625 10.3331L11.3287 7.51035C11.5691 7.04946 12.1346 6.86635 12.5996 7.09883L12.6141 7.10608C13.2596 7.42887 13.6674 8.08869 13.6674 8.81046V10.2851H15.5723C16.0053 10.2851 16.4149 10.4814 16.6862 10.8189C16.9575 11.1564 17.0611 11.5987 16.9681 12.0215L16.3389 14.8799C16.1946 15.5351 15.6141 16.0018 14.9431 16.0018H9.85625" stroke="black" stroke-width="1.5" stroke-linecap="round" stroke-linejoin="round"/>
<rect x="2.99625" y="2.99609" width="18.0075" height="18.0075" rx="5" stroke="black" stroke-width="1.5" stroke-linecap="round" stroke-linejoin="round"/>
</svg>
