<svg width="24" height="24" viewBox="0 0 24 24" fill="none" xmlns="http://www.w3.org/2000/svg">
<path d="M7.49813 11.9209V15.2903" stroke="black" stroke-width="1.5" stroke-linecap="round" stroke-linejoin="round"/>
<path fill-rule="evenodd" clip-rule="evenodd" d="M15.1593 11.0767C15.6245 11.0767 16.0017 11.4539 16.0017 11.9191V13.3057C16.0017 13.4722 15.9527 13.6351 15.8606 13.7739L14.9602 15.1264C14.8044 15.3609 14.5415 15.5017 14.2599 15.5016H10.7365C10.2713 15.5016 9.89412 15.1244 9.89412 14.6592V12.2922C9.8942 11.987 9.97719 11.6876 10.1342 11.4259L11.4878 9.16894C11.64 8.91469 11.9148 8.75926 12.2111 8.75977H12.6113C12.846 8.75977 13.0711 8.85308 13.237 9.01915C13.4028 9.18521 13.4959 9.41041 13.4956 9.64514V11.0767H15.1593Z" stroke="black" stroke-width="1.5" stroke-linecap="round" stroke-linejoin="round"/>
<rect x="2.99625" y="2.99609" width="18.0075" height="18.0075" rx="5" stroke="black" stroke-width="1.5" stroke-linecap="round" stroke-linejoin="round"/>
</svg>
