<svg width="24" height="24" viewBox="0 0 24 24" fill="none" xmlns="http://www.w3.org/2000/svg">
<path fill-rule="evenodd" clip-rule="evenodd" d="M13.6675 10.3331V8.81046C13.6675 8.08869 13.2597 7.42887 12.6141 7.10608L12.5996 7.09883C12.1347 6.86635 11.5692 7.04946 11.3288 7.51035L9.85625 10.3331H7.99833C7.44582 10.3331 6.99792 10.781 6.99792 11.3335V15.0493C6.99792 15.6019 7.44582 16.0498 7.99833 16.0498H14.9031C15.6076 16.0498 16.2172 15.5597 16.3687 14.8717L16.9664 12.1563C17.0641 11.7123 16.9553 11.2479 16.6705 10.8936C16.3856 10.5392 15.9555 10.3331 15.5008 10.3331H13.6675Z" stroke="black" stroke-width="1.5" stroke-linecap="round" stroke-linejoin="round"/>
<path d="M9.8491 10.333V16.0497" stroke="black" stroke-width="1.5" stroke-linecap="round" stroke-linejoin="round"/>
<circle cx="12" cy="11.9998" r="9.00375" stroke="black" stroke-width="1.5" stroke-linecap="round" stroke-linejoin="round"/>
</svg>
