<svg width="24" height="24" viewBox="0 0 24 24" fill="none" xmlns="http://www.w3.org/2000/svg">
<path d="M10 10.7344V16" stroke="black" stroke-width="1.5" stroke-linecap="round" stroke-linejoin="round"/>
<path d="M14 10.5H15.5557C15.9931 10.5 16.4069 10.6983 16.681 11.0392C16.955 11.3802 17.0597 11.8269 16.9657 12.2541L16.3906 14.8666C16.2449 15.5285 15.6583 16 14.9806 16" stroke="black" stroke-width="1.5" stroke-linecap="round" stroke-linejoin="round"/>
<path d="M14.9806 16H7.72188C7.53042 16 7.34681 15.9239 7.21143 15.7886C7.07605 15.6532 7 15.4696 7 15.2781V11.2219C7 11.0304 7.07605 10.8468 7.21143 10.7114C7.34681 10.5761 7.53042 10.5 7.72188 10.5H10" stroke="black" stroke-width="1.5" stroke-linecap="round" stroke-linejoin="round"/>
<rect x="3" y="3" width="18" height="18" rx="5" stroke="black" stroke-width="1.5" stroke-linecap="round" stroke-linejoin="round"/>
<path d="M14 10.4995V8.67929C14 8.30041 13.7859 7.95407 13.4469 7.78473L13.1017 7.61224C12.4822 7.30271 11.7288 7.52775 11.3806 8.12635L10 10.4995" stroke="black" stroke-width="1.5" stroke-linecap="round" stroke-linejoin="round"/>
</svg>
