<svg width="24" height="24" viewBox="0 0 24 24" fill="none" xmlns="http://www.w3.org/2000/svg">
<path d="M7.24801 11.4336V15.4353" stroke="black" stroke-width="1.5" stroke-linecap="round" stroke-linejoin="round"/>
<path fill-rule="evenodd" clip-rule="evenodd" d="M15.7516 10.4318H13.7007V8.73113C13.7007 8.15082 13.2306 7.68024 12.6503 7.67969H12.2501C11.8984 7.67969 11.5725 7.86421 11.3918 8.16589L9.78408 10.846C9.59751 11.157 9.49896 11.5128 9.49896 11.8754V14.6856C9.49896 15.2381 9.94686 15.686 10.4994 15.686H14.6801C15.0149 15.6864 15.3277 15.5193 15.5135 15.2408L16.5839 13.6342C16.6935 13.4698 16.752 13.2766 16.752 13.0789V11.4323C16.752 10.8797 16.3041 10.4318 15.7516 10.4318Z" stroke="black" stroke-width="1.5" stroke-linecap="round" stroke-linejoin="round"/>
<circle cx="12" cy="11.9998" r="9.00375" stroke="black" stroke-width="1.5" stroke-linecap="round" stroke-linejoin="round"/>
</svg>
