<svg width="24" height="24" viewBox="0 0 24 24" fill="none" xmlns="http://www.w3.org/2000/svg">
<path d="M12.6162 8.31173H12.2161" stroke="black" stroke-width="1.5" stroke-linecap="round" stroke-linejoin="round"/>
<path d="M7.49813 11.4727V14.8431" stroke="black" stroke-width="1.5" stroke-linecap="round" stroke-linejoin="round"/>
<path d="M12.6162 8.31152C12.8513 8.31152 13.0767 8.40511 13.2427 8.57161C13.4086 8.73811 13.5014 8.96383 13.5006 9.1989V10.6305H15.1593C15.3829 10.6305 15.5973 10.7194 15.7553 10.8776C15.9133 11.0358 16.0019 11.2503 16.0017 11.4738V12.8604C16.0017 13.0267 15.9526 13.1892 15.8606 13.3276L14.9602 14.6802C14.8046 14.9149 14.5416 15.0558 14.2599 15.0553H10.7365C10.2724 15.0526 9.898 14.675 9.89911 14.211V11.845C9.89911 11.5395 9.98205 11.2397 10.1392 10.9776L11.4928 8.7207C11.645 8.46645 11.9197 8.31102 12.2161 8.31152" stroke="black" stroke-width="1.5" stroke-linecap="round" stroke-linejoin="round"/>
<path d="M12 21.0036C7.02736 21.0036 2.99625 16.9725 2.99625 11.9998C2.99625 7.02721 7.02736 2.99609 12 2.99609C16.9726 2.99609 21.0037 7.02721 21.0037 11.9998C21.0037 16.9725 16.9726 21.0036 12 21.0036" stroke="black" stroke-width="1.5" stroke-linecap="round" stroke-linejoin="round"/>
</svg>
