<svg width="24" height="24" viewBox="0 0 24 24" fill="none" xmlns="http://www.w3.org/2000/svg">
<path d="M8.29973 10.499V20.003" stroke="black" stroke-width="1.5" stroke-linecap="round" stroke-linejoin="round"/>
<path fill-rule="evenodd" clip-rule="evenodd" d="M8.29973 10.4999L10.6364 4.62784C10.8381 4.12111 11.4084 3.86926 11.9188 4.0616L12.5583 4.30261C13.7272 4.74318 14.501 5.86178 14.501 7.11101V10.4998H17.5011C18.2712 10.4998 18.9984 10.8546 19.4724 11.4616C19.9464 12.0687 20.1142 12.8602 19.9274 13.6074L18.802 18.1093C18.5236 19.2226 17.5232 20.0037 16.3756 20.0037H5.49729C4.66852 20.0037 3.99667 19.3319 3.99667 18.5031V12.0004C3.99667 11.1716 4.66852 10.4998 5.49729 10.4998L8.29973 10.4999Z" stroke="black" stroke-width="1.5" stroke-linecap="round" stroke-linejoin="round"/>
</svg>
