<svg width="24" height="24" viewBox="0 0 24 24" fill="none" xmlns="http://www.w3.org/2000/svg">
<path d="M17.9275 5.23438C19.4215 6.54009 20.4416 8.3034 20.8287 10.2495" stroke="black" stroke-width="1.5" stroke-linecap="round" stroke-linejoin="round"/>
<path d="M6.07253 18.7661C4.57851 17.4604 3.55844 15.697 3.17133 13.751" stroke="black" stroke-width="1.5" stroke-linecap="round" stroke-linejoin="round"/>
<path d="M14.9012 20.5188C13.0239 21.1658 10.9841 21.1658 9.10678 20.5188" stroke="black" stroke-width="1.5" stroke-linecap="round" stroke-linejoin="round"/>
<path d="M14.9012 3.48157C13.0239 2.83466 10.9841 2.83466 9.10678 3.48157" stroke="black" stroke-width="1.5" stroke-linecap="round" stroke-linejoin="round"/>
<path d="M17.9275 18.7661C19.4215 17.4604 20.4416 15.697 20.8287 13.751" stroke="black" stroke-width="1.5" stroke-linecap="round" stroke-linejoin="round"/>
<path d="M3.16931 10.2495C3.55585 8.30319 4.57602 6.5397 6.07052 5.23438" stroke="black" stroke-width="1.5" stroke-linecap="round" stroke-linejoin="round"/>
<path fill-rule="evenodd" clip-rule="evenodd" d="M11.2747 7.29823L8.08637 12.7155C7.97239 12.9058 7.96852 13.1424 8.0762 13.3363C8.18389 13.5302 8.3868 13.652 8.60858 13.6559H11.5938V16.381C11.588 16.6576 11.7698 16.9032 12.0361 16.9783C12.3024 17.0534 12.5858 16.939 12.7253 16.7001L15.9136 11.2849C16.0276 11.0946 16.0315 10.858 15.9238 10.664C15.8161 10.4701 15.6132 10.3483 15.3914 10.3445H12.4062V7.62036C12.4135 7.34318 12.2321 7.09626 11.9654 7.02034C11.6987 6.94441 11.4145 7.05877 11.2747 7.29823Z" stroke="black" stroke-width="1.5" stroke-linecap="round" stroke-linejoin="round"/>
</svg>
