<svg width="24" height="24" viewBox="0 0 24 24" fill="none" xmlns="http://www.w3.org/2000/svg">
<path fill-rule="evenodd" clip-rule="evenodd" d="M11.6879 7.21527C11.8148 7.04564 12.0347 6.97433 12.237 7.03726C12.4393 7.10019 12.58 7.28371 12.5882 7.49539V10.7477H15.5015C15.6841 10.7505 15.8506 10.8526 15.9361 11.014C16.0215 11.1754 16.0121 11.3706 15.9116 11.5231L12.3101 16.7853C12.1832 16.9549 11.9633 17.0262 11.761 16.9633C11.5587 16.9003 11.418 16.7168 11.4097 16.5051V13.2528H8.49854C8.31577 13.2499 8.14914 13.1476 8.06391 12.9859C7.97869 12.8242 7.98845 12.6289 8.08936 12.4765L11.6879 7.21527Z" stroke="black" stroke-width="1.5" stroke-linecap="round" stroke-linejoin="round"/>
<path fill-rule="evenodd" clip-rule="evenodd" d="M2.99625 6.99776C2.99625 4.7877 4.78785 2.99609 6.99791 2.99609H17.0021C19.2121 2.99609 21.0037 4.7877 21.0037 6.99776V17.0019C21.0037 19.212 19.2121 21.0036 17.0021 21.0036H6.99791C4.78785 21.0036 2.99625 19.212 2.99625 17.0019V6.99776Z" stroke="black" stroke-width="1.5" stroke-linecap="round" stroke-linejoin="round"/>
</svg>
