<svg width="24" height="24" viewBox="0 0 24 24" fill="none" xmlns="http://www.w3.org/2000/svg">
<rect x="2.99625" y="2.99658" width="18.0075" height="18.0075" rx="5" stroke="black" stroke-width="1.5" stroke-linecap="round" stroke-linejoin="round"/>
<path fill-rule="evenodd" clip-rule="evenodd" d="M11.2747 7.29823L8.08637 12.7155C7.97239 12.9058 7.96852 13.1424 8.07621 13.3363C8.1839 13.5302 8.38681 13.652 8.60859 13.6559H11.5938V16.38C11.5875 16.6568 11.7692 16.9028 12.0356 16.9782C12.302 17.0536 12.5857 16.9392 12.7253 16.7001L15.9136 11.2849C16.0276 11.0946 16.0315 10.858 15.9238 10.664C15.8161 10.4701 15.6132 10.3483 15.3914 10.3445H12.4062V7.62036C12.4135 7.34318 12.2321 7.09626 11.9654 7.02034C11.6987 6.94441 11.4145 7.05877 11.2747 7.29823Z" stroke="black" stroke-width="1.5" stroke-linecap="round" stroke-linejoin="round"/>
</svg>
