<svg width="24" height="24" viewBox="0 0 24 24" fill="none" xmlns="http://www.w3.org/2000/svg">
<path fill-rule="evenodd" clip-rule="evenodd" d="M11.6879 7.21527C11.8148 7.04564 12.0347 6.97433 12.237 7.03726C12.4393 7.10019 12.58 7.28371 12.5882 7.49539V10.7477H15.5015C15.6841 10.7505 15.8507 10.8526 15.9361 11.014C16.0215 11.1754 16.0121 11.3706 15.9116 11.5231L12.3101 16.7853C12.1832 16.9549 11.9633 17.0262 11.761 16.9633C11.5587 16.9003 11.418 16.7168 11.4098 16.5051V13.2528H8.49854C8.31593 13.25 8.14934 13.148 8.06394 12.9865C7.97854 12.8251 7.9879 12.63 8.08837 12.4775L11.6879 7.21527Z" stroke="black" stroke-width="1.5" stroke-linecap="round" stroke-linejoin="round"/>
<circle cx="12" cy="11.9998" r="9.00375" stroke="black" stroke-width="1.5" stroke-linecap="round" stroke-linejoin="round"/>
</svg>
