<svg width="24" height="24" viewBox="0 0 24 24" fill="none" xmlns="http://www.w3.org/2000/svg">
<path d="M13.6553 10.3448C14.5695 11.2591 14.5695 12.7413 13.6553 13.6555C12.7411 14.5697 11.2588 14.5697 10.3446 13.6555C9.43041 12.7413 9.43041 11.2591 10.3446 10.3448C11.2588 9.43063 12.7411 9.43063 13.6553 10.3448" stroke="black" stroke-width="1.5" stroke-linecap="round" stroke-linejoin="round"/>
<path d="M21.4489 10.5102C22.2717 11.333 22.2717 12.6671 21.4489 13.4899C20.6261 14.3128 19.292 14.3128 18.4692 13.4899C17.6463 12.6671 17.6463 11.333 18.4692 10.5102C19.292 9.68736 20.6261 9.68736 21.4489 10.5102" stroke="black" stroke-width="1.5" stroke-linecap="round" stroke-linejoin="round"/>
<path d="M5.53087 10.5102C6.35371 11.333 6.35371 12.6671 5.53087 13.4899C4.70804 14.3128 3.37396 14.3128 2.55112 13.4899C1.72829 12.6671 1.72829 11.333 2.55112 10.5102C3.37396 9.68736 4.70803 9.68736 5.53087 10.5102" stroke="black" stroke-width="1.5" stroke-linecap="round" stroke-linejoin="round"/>
<path d="M17.4689 3.61713C18.2917 4.43996 18.2917 5.77404 17.4689 6.59688C16.6461 7.41971 15.312 7.41971 14.4892 6.59688C13.6663 5.77404 13.6663 4.43997 14.4892 3.61713C15.312 2.79429 16.6461 2.79429 17.4689 3.61713" stroke="black" stroke-width="1.5" stroke-linecap="round" stroke-linejoin="round"/>
<path d="M9.51087 17.4033C10.3337 18.2261 10.3337 19.5602 9.51087 20.383C8.68804 21.2058 7.35396 21.2058 6.53112 20.383C5.70829 19.5602 5.70829 18.2261 6.53112 17.4033C7.35396 16.5804 8.68803 16.5804 9.51087 17.4033" stroke="black" stroke-width="1.5" stroke-linecap="round" stroke-linejoin="round"/>
<path d="M9.51087 3.61713C10.3337 4.43996 10.3337 5.77404 9.51087 6.59688C8.68804 7.41971 7.35396 7.41971 6.53112 6.59688C5.70829 5.77404 5.70829 4.43997 6.53112 3.61713C7.35396 2.79429 8.68803 2.79429 9.51087 3.61713" stroke="black" stroke-width="1.5" stroke-linecap="round" stroke-linejoin="round"/>
<path d="M17.4689 17.4033C18.2917 18.2261 18.2917 19.5602 17.4689 20.383C16.6461 21.2058 15.312 21.2058 14.4892 20.383C13.6663 19.5602 13.6663 18.2261 14.4892 17.4033C15.312 16.5804 16.6461 16.5804 17.4689 17.4033" stroke="black" stroke-width="1.5" stroke-linecap="round" stroke-linejoin="round"/>
<path d="M9.07 17.07L10.83 14.02" stroke="black" stroke-width="1.5" stroke-linecap="round" stroke-linejoin="round"/>
<path d="M9.07 6.93018L10.83 9.98018" stroke="black" stroke-width="1.5" stroke-linecap="round" stroke-linejoin="round"/>
<path d="M17.85 12H14.34" stroke="black" stroke-width="1.5" stroke-linecap="round" stroke-linejoin="round"/>
</svg>
