<svg width="24" height="24" viewBox="0 0 24 24" fill="none" xmlns="http://www.w3.org/2000/svg">
<path d="M11.0308 20.0039C6.19138 19.9908 2.228 16.1544 2.0572 11.318C1.8864 6.48153 5.5693 2.37517 10.3958 2.02065C15.2222 1.66613 19.4656 5.19027 20.0033 9.99976" stroke="black" stroke-width="1.5" stroke-linecap="round" stroke-linejoin="round"/>
<path fill-rule="evenodd" clip-rule="evenodd" d="M20.0033 21.0043H16.0017C14.8966 21.0043 14.0008 20.1085 14.0008 19.0035V15.0018C14.0008 13.8968 14.8966 13.001 16.0017 13.001H20.0033C21.1084 13.001 22.0042 13.8968 22.0042 15.0018V19.0035C22.0042 20.1085 21.1084 21.0043 20.0033 21.0043Z" stroke="black" stroke-width="1.5" stroke-linecap="round" stroke-linejoin="round"/>
<path d="M19.3361 16.335L17.6704 18.0027L16.67 17.0022" stroke="black" stroke-width="1.5" stroke-linecap="round" stroke-linejoin="round"/>
<path d="M7.62818 13.8672L11.2857 11.6373V6.98438" stroke="black" stroke-width="1.5" stroke-linecap="round" stroke-linejoin="round"/>
</svg>
