<svg width="24" height="24" viewBox="0 0 24 24" fill="none" xmlns="http://www.w3.org/2000/svg">
<path d="M11.4998 7.99805V11.4995L13.2685 13.2682" stroke="black" stroke-width="1.5" stroke-linecap="round" stroke-linejoin="round"/>
<path d="M14.311 19.5229C10.5629 20.8383 6.40334 19.386 4.28845 16.0237C2.17356 12.6613 2.66583 8.28311 5.47459 5.47435C8.28336 2.66559 12.6615 2.17331 16.0239 4.2882C19.3863 6.40309 20.8385 10.5626 19.5231 14.3107" stroke="black" stroke-width="1.5" stroke-linecap="round" stroke-linejoin="round"/>
<path d="M14.0008 18.0026C14.0008 20.2127 15.7924 22.0043 18.0025 22.0043C20.2125 22.0043 22.0042 20.2127 22.0042 18.0026C22.0042 15.7926 20.2125 14.001 18.0025 14.001C15.7924 14.001 14.0008 15.7926 14.0008 18.0026" stroke="black" stroke-width="1.5" stroke-linecap="round" stroke-linejoin="round"/>
<path d="M19.3921 18.0022C19.3921 18.0298 19.3697 18.0522 19.3421 18.0522C19.3144 18.0522 19.292 18.0298 19.292 18.0022C19.292 17.9745 19.3144 17.9521 19.3421 17.9521" stroke="black" stroke-width="1.5" stroke-linecap="round" stroke-linejoin="round"/>
<path d="M19.342 17.9527C19.3697 17.9527 19.3921 17.9751 19.3921 18.0028" stroke="black" stroke-width="1.5" stroke-linecap="round" stroke-linejoin="round"/>
<path d="M16.719 18.0022C16.719 18.0298 16.6966 18.0522 16.6689 18.0522C16.6413 18.0522 16.6189 18.0298 16.6189 18.0022C16.6189 17.9745 16.6413 17.9521 16.6689 17.9521" stroke="black" stroke-width="1.5" stroke-linecap="round" stroke-linejoin="round"/>
<path d="M16.6689 17.9527C16.6965 17.9527 16.7189 17.9751 16.7189 18.0028" stroke="black" stroke-width="1.5" stroke-linecap="round" stroke-linejoin="round"/>
</svg>
