<svg width="24" height="24" viewBox="0 0 24 24" fill="none" xmlns="http://www.w3.org/2000/svg">
<path d="M7.62818 14.8672L11.2857 12.6373V7.98438" stroke="black" stroke-width="1.5" stroke-linecap="round" stroke-linejoin="round"/>
<path d="M10.9996 21.004C6.15653 21.0057 2.17972 17.1762 1.99885 12.3365C1.81797 7.49681 5.49784 3.38108 10.3275 3.02134C15.1572 2.6616 19.4062 6.18673 19.9443 10.9998" stroke="black" stroke-width="1.5" stroke-linecap="round" stroke-linejoin="round"/>
<path d="M18.0025 14.001C20.2126 14.001 22.0042 15.7926 22.0042 18.0026C22.0042 20.2127 20.2126 22.0043 18.0025 22.0043C15.7924 22.0043 14.0008 20.2127 14.0008 18.0026C14.0008 15.7926 15.7924 14.001 18.0025 14.001" stroke="black" stroke-width="1.5" stroke-linecap="round" stroke-linejoin="round"/>
<path d="M19.3361 17.9581C19.3243 17.9579 19.3129 17.9624 19.3046 17.9707C19.2963 17.9791 19.2918 17.9904 19.292 18.0022C19.292 18.0265 19.3117 18.0462 19.3361 18.0462C19.3604 18.0462 19.3801 18.0265 19.3801 18.0022C19.3801 17.9779 19.3604 17.9581 19.3361 17.9581" stroke="black" stroke-width="1.5" stroke-linecap="round" stroke-linejoin="round"/>
<path d="M16.6689 17.9581C16.6572 17.9579 16.6458 17.9624 16.6375 17.9707C16.6292 17.9791 16.6247 17.9904 16.6249 18.0022C16.6249 18.0265 16.6446 18.0462 16.6689 18.0462C16.6933 18.0462 16.713 18.0265 16.713 18.0022C16.713 17.9779 16.6933 17.9581 16.6689 17.9581" stroke="black" stroke-width="1.5" stroke-linecap="round" stroke-linejoin="round"/>
</svg>
