<svg width="24" height="24" viewBox="0 0 24 24" fill="none" xmlns="http://www.w3.org/2000/svg">
<path d="M12 21.0036C6.99791 21.0036 2.99625 16.9019 2.99625 11.9998C2.99625 7.0978 7.09795 2.99609 12 2.99609C16.6019 2.99609 20.4035 6.49755 20.9037 10.9994" stroke="black" stroke-width="1.5" stroke-linecap="round" stroke-linejoin="round"/>
<path fill-rule="evenodd" clip-rule="evenodd" d="M15.3014 17.3016L18.8028 13.8001C19.203 13.4 19.8033 13.4 20.2034 13.8001V13.8001L21.704 15.3008C22.1042 15.7009 22.1042 16.3012 21.704 16.7013V16.7013L18.2026 20.2028C18.0025 20.4029 17.8024 20.5029 17.5023 20.5029H15.0013V18.0019C15.0013 17.8018 15.1013 17.5017 15.3014 17.3016Z" stroke="black" stroke-width="1.5" stroke-linecap="round" stroke-linejoin="round"/>
<path d="M8.59857 14.9009L12.3001 12.6V7.99805" stroke="black" stroke-width="1.5" stroke-linecap="round" stroke-linejoin="round"/>
</svg>
