<svg width="24" height="24" viewBox="0 0 24 24" fill="none" xmlns="http://www.w3.org/2000/svg">
<path d="M11.993 10.3125C11.0637 10.3169 10.3124 11.0709 10.3113 12.0002V12.0082C10.3152 12.9409 11.0744 13.6938 12.007 13.6899C12.9396 13.686 13.6925 12.9269 13.6887 11.9942C13.6848 11.0616 12.9256 10.3087 11.993 10.3125" stroke="black" stroke-width="1.5" stroke-linecap="round" stroke-linejoin="round"/>
<path d="M13.1934 13.1934L14.444 14.4439" stroke="black" stroke-width="1.5" stroke-linecap="round" stroke-linejoin="round"/>
<path d="M7.79819 7.79883L10.7994 10.8001" stroke="black" stroke-width="1.5" stroke-linecap="round" stroke-linejoin="round"/>
<path d="M5.63328 5.63324C2.59594 8.67059 2.12713 13.4305 4.51355 17.002C6.89997 20.5736 11.477 21.962 15.4454 20.3182C19.4139 18.6745 21.6686 14.4563 20.8307 10.2434C19.9927 6.03045 16.2954 2.99609 12 2.99609V5.99734" stroke="black" stroke-width="1.5" stroke-linecap="round" stroke-linejoin="round"/>
</svg>
