<svg width="24" height="24" viewBox="0 0 24 24" fill="none" xmlns="http://www.w3.org/2000/svg">
<path d="M7.62817 13.8672L11.2857 11.6373V6.98438" stroke="black" stroke-width="1.5" stroke-linecap="round" stroke-linejoin="round"/>
<path d="M10.9996 20.003C6.15653 20.0048 2.17971 16.1752 1.99884 11.3355C1.81796 6.49583 5.49783 2.38011 10.3275 2.02037C15.1572 1.66062 19.4062 5.18576 19.9443 9.99882" stroke="black" stroke-width="1.5" stroke-linecap="round" stroke-linejoin="round"/>
<path fill-rule="evenodd" clip-rule="evenodd" d="M20.0033 21.0043H16.0017C14.8966 21.0043 14.0008 20.1085 14.0008 19.0035V15.0018C14.0008 13.8968 14.8966 13.001 16.0017 13.001H20.0033C21.1084 13.001 22.0042 13.8968 22.0042 15.0018V19.0035C22.0042 20.1085 21.1084 21.0043 20.0033 21.0043Z" stroke="black" stroke-width="1.5" stroke-linecap="round" stroke-linejoin="round"/>
<path d="M19.0029 16.002L17.0021 18.0028" stroke="black" stroke-width="1.5" stroke-linecap="round" stroke-linejoin="round"/>
<path d="M17.0021 16.002L19.0029 18.0028" stroke="black" stroke-width="1.5" stroke-linecap="round" stroke-linejoin="round"/>
</svg>
