<svg width="24" height="24" viewBox="0 0 24 24" fill="none" xmlns="http://www.w3.org/2000/svg">
<path d="M12 13.3531C11.9619 13.3531 11.931 13.384 11.931 13.4221C11.931 13.4602 11.9619 13.4911 12 13.4911C12.0381 13.4911 12.069 13.4602 12.069 13.4221C12.069 13.4038 12.0618 13.3862 12.0488 13.3733C12.0359 13.3603 12.0183 13.3531 12 13.3531" stroke="black" stroke-width="1.5" stroke-linecap="round" stroke-linejoin="round"/>
<path d="M12 5.83928V2.99609" stroke="black" stroke-width="1.5" stroke-linecap="round" stroke-linejoin="round"/>
<path d="M12 5.83984C16.1875 5.83984 19.5822 9.23449 19.5822 13.422C19.5822 17.6095 16.1875 21.0042 12 21.0042C7.81249 21.0042 4.41785 17.6095 4.41785 13.422C4.41785 9.23449 7.81249 5.83984 12 5.83984" stroke="black" stroke-width="1.5" stroke-linecap="round" stroke-linejoin="round"/>
<path d="M10.1042 2.9963H13.9008" stroke="black" stroke-width="1.5" stroke-linecap="round" stroke-linejoin="round"/>
<path d="M20.3325 6.58949L18.8318 5.08887L19.5822 5.83918" stroke="black" stroke-width="1.5" stroke-linecap="round" stroke-linejoin="round"/>
<path d="M3.66751 6.58949L5.16814 5.08887L4.41782 5.83918" stroke="black" stroke-width="1.5" stroke-linecap="round" stroke-linejoin="round"/>
<path d="M15.3704 13.3531C15.3323 13.3531 15.3014 13.384 15.3014 13.4221C15.3014 13.4602 15.3323 13.4911 15.3704 13.4911C15.4085 13.4911 15.4394 13.4602 15.4394 13.4221C15.4394 13.384 15.4085 13.3531 15.3704 13.3531" stroke="black" stroke-width="1.5" stroke-linecap="round" stroke-linejoin="round"/>
<path d="M8.63058 13.3531C8.59246 13.3531 8.56155 13.384 8.56155 13.4221C8.56155 13.4602 8.59246 13.4911 8.63058 13.4911C8.6687 13.4911 8.69961 13.4602 8.69961 13.4221C8.69961 13.4038 8.69234 13.3862 8.67939 13.3733C8.66644 13.3603 8.64889 13.3531 8.63058 13.3531" stroke="black" stroke-width="1.5" stroke-linecap="round" stroke-linejoin="round"/>
</svg>
