<svg width="24" height="24" viewBox="0 0 24 24" fill="none" xmlns="http://www.w3.org/2000/svg">
<path d="M11.835 15L16.835 20C17.663 20.828 19.007 20.828 19.835 20V20C20.663 19.172 20.663 17.828 19.835 17L14.835 12" stroke="black" stroke-width="1.5" stroke-linecap="round" stroke-linejoin="round"/>
<path fill-rule="evenodd" clip-rule="evenodd" d="M20.916 5.84718C20.94 5.87018 20.958 5.90018 20.967 5.93218C21.437 7.49918 21.073 9.26218 19.835 10.5002C18.584 11.7512 16.797 12.1092 15.218 11.6172L6.87099 19.9642C6.05799 20.7772 4.73199 20.8382 3.89099 20.0542C3.00699 19.2312 2.98899 17.8472 3.83499 17.0002L12.218 8.61718C11.726 7.03818 12.084 5.25118 13.335 4.00018C14.573 2.76218 16.336 2.39818 17.903 2.86818C17.935 2.87818 17.965 2.89518 17.988 2.91918L18.15 3.08118C18.228 3.15918 18.228 3.28618 18.15 3.36418L15.515 6.00018L17.835 8.32018L20.471 5.68418C20.549 5.60618 20.676 5.60618 20.754 5.68418L20.916 5.84718V5.84718Z" stroke="black" stroke-width="1.5" stroke-linecap="round" stroke-linejoin="round"/>
<path fill-rule="evenodd" clip-rule="evenodd" d="M2.933 4.29296L3.607 6.31596C3.743 6.72496 4.125 6.99996 4.556 6.99996H6.835V4.72096C6.835 4.29096 6.56 3.90796 6.151 3.77196L4.128 3.09796C3.948 3.03796 3.75 3.08496 3.616 3.21896L3.054 3.78096C2.92 3.91496 2.873 4.11296 2.933 4.29296V4.29296Z" stroke="black" stroke-width="1.5" stroke-linecap="round" stroke-linejoin="round"/>
<path d="M6.84 7L10.34 10.5" stroke="black" stroke-width="1.5" stroke-linecap="round" stroke-linejoin="round"/>
</svg>
