<svg width="24" height="24" viewBox="0 0 24 24" fill="none" xmlns="http://www.w3.org/2000/svg">
<path d="M19.0029 8.99845C16.7929 8.99845 15.0013 7.20684 15.0013 4.99678C15.0013 2.78672 16.7929 0.995117 19.0029 0.995117C21.213 0.995117 23.0046 2.78672 23.0046 4.99678C23.0046 6.05809 22.583 7.07593 21.8325 7.82639C21.0821 8.57685 20.0642 8.99845 19.0029 8.99845" stroke="black" stroke-width="1.5" stroke-linecap="round" stroke-linejoin="round"/>
<path d="M19.243 8.98918C19.7463 10.0913 20.0056 11.2891 20.0033 12.5006C20.0033 17.197 16.1962 21.0042 11.4998 21.0042C6.80341 21.0042 2.99625 17.197 2.99625 12.5006C2.99625 7.80427 6.80341 3.99709 11.4998 3.99709C12.7114 3.99478 13.9092 4.25413 15.0113 4.75742" stroke="black" stroke-width="1.5" stroke-linecap="round" stroke-linejoin="round"/>
<path d="M20.1814 4.99728H17.8244" stroke="black" stroke-width="1.5" stroke-linecap="round" stroke-linejoin="round"/>
<path d="M19.0029 3.81836V6.17534" stroke="black" stroke-width="1.5" stroke-linecap="round" stroke-linejoin="round"/>
<path d="M11.4998 9.37598V11.3218" stroke="black" stroke-width="1.5" stroke-linecap="round" stroke-linejoin="round"/>
<path d="M13.7607 15.491C12.3518 14.5721 11.5015 13.0044 11.4998 11.3223" stroke="black" stroke-width="1.5" stroke-linecap="round" stroke-linejoin="round"/>
<path d="M11.4998 11.3223C11.498 13.0044 10.6478 14.5721 9.23883 15.491" stroke="black" stroke-width="1.5" stroke-linecap="round" stroke-linejoin="round"/>
<path d="M8.99875 11.3215H14.0008" stroke="black" stroke-width="1.5" stroke-linecap="round" stroke-linejoin="round"/>
</svg>
