<svg width="24" height="24" viewBox="0 0 24 24" fill="none" xmlns="http://www.w3.org/2000/svg">
<path d="M15.9375 6.5V4.5C15.9375 3.67157 15.2659 3 14.4375 3H9.5625C8.73407 3 8.0625 3.67157 8.0625 4.5V6.5" stroke="black" stroke-width="1.5" stroke-linecap="round" stroke-linejoin="round"/>
<path d="M13.1714 21H8.45856C7.28286 21 6.30538 20.0948 6.21521 18.9226L5.25964 6.5" stroke="black" stroke-width="1.5" stroke-linecap="round" stroke-linejoin="round"/>
<path d="M20 6.5H4" stroke="black" stroke-width="1.5" stroke-linecap="round" stroke-linejoin="round"/>
<path d="M16 22C13.5147 22 11.5 19.9853 11.5 17.5C11.5 15.0147 13.5147 13 16 13C18.4853 13 20.5 15.0147 20.5 17.5C20.5 18.6935 20.0259 19.8381 19.182 20.682C18.3381 21.5259 17.1935 22 16 22" stroke="black" stroke-width="1.5" stroke-linecap="round" stroke-linejoin="round"/>
<path d="M17.25 17.5001C17.25 17.5277 17.2276 17.55 17.2 17.55C17.1724 17.55 17.15 17.5276 17.15 17.5C17.15 17.4724 17.1724 17.45 17.2 17.45C17.2276 17.45 17.25 17.4723 17.25 17.4999V17.5001" stroke="black" stroke-width="1.5" stroke-linecap="round" stroke-linejoin="round"/>
<path d="M14.85 17.5001C14.85 17.5277 14.8276 17.55 14.8 17.55C14.7724 17.55 14.75 17.5276 14.75 17.5C14.75 17.4724 14.7724 17.45 14.8 17.45C14.8276 17.45 14.85 17.4723 14.85 17.4999V17.5001" stroke="black" stroke-width="1.5" stroke-linecap="round" stroke-linejoin="round"/>
<path d="M18.1965 13.571L18.7404 6.5" stroke="black" stroke-width="1.5" stroke-linecap="round" stroke-linejoin="round"/>
</svg>
