<svg width="24" height="24" viewBox="0 0 24 24" fill="none" xmlns="http://www.w3.org/2000/svg">
<path d="M17 5.50098H20" stroke="black" stroke-width="1.5" stroke-linecap="round" stroke-linejoin="round"/>
<path d="M18.4991 7V4" stroke="black" stroke-width="1.5" stroke-linecap="round" stroke-linejoin="round"/>
<path d="M14 3.23049C10.0757 2.32581 6.02681 4.12964 4.07494 7.65221C2.12308 11.1748 2.74031 15.5642 5.58797 18.4118C8.43562 21.2595 12.825 21.8767 16.3476 19.9248C19.8701 17.973 21.674 13.924 20.7693 9.99978" stroke="black" stroke-width="1.5" stroke-linecap="round" stroke-linejoin="round"/>
<path d="M8 10H16" stroke="black" stroke-width="1.5" stroke-linecap="round" stroke-linejoin="round"/>
<path fill-rule="evenodd" clip-rule="evenodd" d="M8.875 10H15.125V15.5C15.125 16.0523 14.6773 16.5 14.125 16.5H9.875C9.32272 16.5 8.875 16.0523 8.875 15.5V10Z" stroke="black" stroke-width="1.5" stroke-linecap="round" stroke-linejoin="round"/>
<path d="M13.7518 10V8.5C13.7518 7.94772 13.3041 7.5 12.7518 7.5H11.25C10.6977 7.5 10.25 7.94772 10.25 8.5V10" stroke="black" stroke-width="1.5" stroke-linecap="round" stroke-linejoin="round"/>
</svg>
