<svg width="24" height="24" viewBox="0 0 24 24" fill="none" xmlns="http://www.w3.org/2000/svg">
<path fill-rule="evenodd" clip-rule="evenodd" d="M18.532 9H5.468C4.9 9 4.44 8.54 4.44 7.973V7.027C4.44 6.46 4.9 6 5.468 6H18.533C19.1 6 19.56 6.46 19.56 7.027V7.972C19.56 8.54 19.1 9 18.532 9V9Z" stroke="black" stroke-width="1.5" stroke-linecap="round" stroke-linejoin="round"/>
<path d="M18 9L17.153 19.166C17.066 20.203 16.2 21 15.16 21H8.84C7.8 21 6.933 20.203 6.847 19.166L6 9" stroke="black" stroke-width="1.5" stroke-linecap="round" stroke-linejoin="round"/>
<path d="M8 6L9.224 3.553C9.393 3.214 9.739 3 10.118 3H13.882C14.261 3 14.607 3.214 14.776 3.553L16 6" stroke="black" stroke-width="1.5" stroke-linecap="round" stroke-linejoin="round"/>
<path d="M12 12V18" stroke="black" stroke-width="1.5" stroke-linecap="round" stroke-linejoin="round"/>
<path d="M15 12L14.59 18" stroke="black" stroke-width="1.5" stroke-linecap="round" stroke-linejoin="round"/>
<path d="M9.00002 12L9.41002 18" stroke="black" stroke-width="1.5" stroke-linecap="round" stroke-linejoin="round"/>
</svg>
