<svg width="24" height="24" viewBox="0 0 24 24" fill="none" xmlns="http://www.w3.org/2000/svg">
<path d="M20.5856 9.35174C20.8587 10.2081 20.9997 11.101 21.0037 11.9998C21.0037 16.9725 16.9726 21.0036 12 21.0036C7.02736 21.0036 2.99625 16.9725 2.99625 11.9998C2.99625 7.02721 7.02736 2.99609 12 2.99609C12.8988 3.00015 13.7918 3.14116 14.6481 3.41427" stroke="black" stroke-width="1.5" stroke-linecap="round" stroke-linejoin="round"/>
<path d="M19.0149 6.25991L17.7394 4.98438" stroke="black" stroke-width="1.5" stroke-linecap="round" stroke-linejoin="round"/>
<path d="M21.0037 4.27051L19.0149 6.25937" stroke="black" stroke-width="1.5" stroke-linecap="round" stroke-linejoin="round"/>
<path d="M7.99832 9.93283H16.0017" stroke="black" stroke-width="1.5" stroke-linecap="round" stroke-linejoin="round"/>
<path d="M10.2493 9.93366V8.43303C10.2172 7.91589 10.6078 7.4695 11.1246 7.43262H12.8754C13.3922 7.4695 13.7828 7.91589 13.7507 8.43303V9.93366" stroke="black" stroke-width="1.5" stroke-linecap="round" stroke-linejoin="round"/>
<path d="M8.87369 9.93359V15.686C8.87369 16.2385 9.32159 16.6864 9.8741 16.6864H14.1259C14.6784 16.6864 15.1263 16.2385 15.1263 15.686V9.93359" stroke="black" stroke-width="1.5" stroke-linecap="round" stroke-linejoin="round"/>
</svg>
