<svg width="24" height="24" viewBox="0 0 24 24" fill="none" xmlns="http://www.w3.org/2000/svg">
<path d="M12 2.9961C7.45996 2.99024 3.62578 6.36543 3.05585 10.8696C2.48591 15.3737 5.35853 19.5975 9.75694 20.7227C14.1553 21.8479 18.7034 19.5223 20.3664 15.2978C22.0293 11.0733 20.2869 6.27156 16.3018 4.09657" stroke="black" stroke-width="1.5" stroke-linecap="round" stroke-linejoin="round"/>
<path d="M7.99833 9.93283H16.0017" stroke="black" stroke-width="1.5" stroke-linecap="round" stroke-linejoin="round"/>
<path d="M10.2493 9.93366V8.43303C10.2172 7.91589 10.6078 7.4695 11.1246 7.43262H12.8754C13.3922 7.4695 13.7828 7.91589 13.7507 8.43303V9.93366" stroke="black" stroke-width="1.5" stroke-linecap="round" stroke-linejoin="round"/>
<path d="M8.8737 9.93359V15.686C8.8737 16.2385 9.3216 16.6864 9.87411 16.6864H14.1259C14.6784 16.6864 15.1263 16.2385 15.1263 15.686V9.93359" stroke="black" stroke-width="1.5" stroke-linecap="round" stroke-linejoin="round"/>
<path d="M19.2 3.57227H16.3058V6.46647" stroke="black" stroke-width="1.5" stroke-linecap="round" stroke-linejoin="round"/>
</svg>
