<svg width="24" height="24" viewBox="0 0 24 24" fill="none" xmlns="http://www.w3.org/2000/svg">
<path d="M15.019 12.7241L15.893 14.2381C16.242 14.8421 15.806 15.5981 15.108 15.5981H13.36" stroke="black" stroke-width="1.5" stroke-linecap="round" stroke-linejoin="round"/>
<path d="M8.981 12.7241L8.107 14.2381C7.758 14.8421 8.194 15.5981 8.892 15.5981H10.64" stroke="black" stroke-width="1.5" stroke-linecap="round" stroke-linejoin="round"/>
<path d="M10.341 10.3689L11.215 8.85486C11.564 8.25086 12.436 8.25086 12.785 8.85486L13.659 10.3689" stroke="black" stroke-width="1.5" stroke-linecap="round" stroke-linejoin="round"/>
<path fill-rule="evenodd" clip-rule="evenodd" d="M17.21 21H6.79C5.771 21 4.68 20.234 4.568 19.221L3.012 5.221C2.881 4.036 3.808 3 5 3H19C20.192 3 21.119 4.036 20.988 5.221L19.432 19.221C19.319 20.234 18.229 21 17.21 21V21Z" stroke="black" stroke-width="1.5" stroke-linecap="round" stroke-linejoin="round"/>
</svg>
