<svg width="24" height="24" viewBox="0 0 24 24" fill="none" xmlns="http://www.w3.org/2000/svg">
<path d="M14.1884 9.49909V7.62331C14.1884 7.27799 13.9085 6.99805 13.5632 6.99805H10.4368C10.0915 6.99805 9.81159 7.27799 9.81159 7.62331V9.49909" stroke="black" stroke-width="1.5" stroke-linecap="round" stroke-linejoin="round"/>
<path d="M16.4463 9.49923H7.55371" stroke="black" stroke-width="1.5" stroke-linecap="round" stroke-linejoin="round"/>
<path d="M15.7034 9.49902L15.2151 15.8475C15.165 16.499 14.6218 17.0021 13.9683 17.0021H10.0317C9.37824 17.0021 8.83495 16.499 8.78485 15.8475L8.29655 9.49902" stroke="black" stroke-width="1.5" stroke-linecap="round" stroke-linejoin="round"/>
<path fill-rule="evenodd" clip-rule="evenodd" d="M2.99625 16.0015V7.99818C2.99655 5.23573 5.23588 2.99639 7.99833 2.99609H16.0017C18.7641 2.99639 21.0035 5.23573 21.0037 7.99818V16.0015C21.0035 18.764 18.7641 21.0033 16.0017 21.0036H7.99833C5.23588 21.0033 2.99655 18.764 2.99625 16.0015Z" stroke="black" stroke-width="1.5" stroke-linecap="round" stroke-linejoin="round"/>
</svg>
