<svg width="24" height="24" viewBox="0 0 24 24" fill="none" xmlns="http://www.w3.org/2000/svg">
<path fill-rule="evenodd" clip-rule="evenodd" d="M13.3325 9.17776L15.6625 13.3195C15.9295 13.7934 15.9249 14.3734 15.6505 14.8431C15.376 15.3127 14.8729 15.6014 14.329 15.6014H9.67002C9.12614 15.6012 8.62318 15.3125 8.3486 14.843C8.07403 14.3735 8.06903 13.7936 8.33547 13.3195L10.6654 9.17776C10.9367 8.6963 11.4464 8.39844 11.999 8.39844C12.5516 8.39844 13.0613 8.6963 13.3325 9.17776V9.17776Z" stroke="black" stroke-width="1.5" stroke-linecap="round" stroke-linejoin="round"/>
<path fill-rule="evenodd" clip-rule="evenodd" d="M16.0017 21.0036H7.99833C5.23576 21.0036 2.99625 18.7641 2.99625 16.0015V7.99818C2.99625 5.2356 5.23576 2.99609 7.99833 2.99609H16.0017C18.7642 2.99609 21.0037 5.2356 21.0037 7.99818V16.0015C21.0037 18.7641 18.7642 21.0036 16.0017 21.0036Z" stroke="black" stroke-width="1.5" stroke-linecap="round" stroke-linejoin="round"/>
</svg>
