<svg width="24" height="24" viewBox="0 0 24 24" fill="none" xmlns="http://www.w3.org/2000/svg">
<path d="M18.4527 13.3467L20.7596 17.3133C21.0808 17.87 21.0796 18.556 20.7565 19.1116C20.4334 19.6671 19.8377 20.0074 19.195 20.0035H13.5486L15.6135 17.9536" stroke="black" stroke-width="1.5" stroke-linecap="round" stroke-linejoin="round"/>
<path d="M8.12839 8.90893L10.4353 4.94228C10.7609 4.38702 11.3563 4.0459 12 4.0459C12.6437 4.0459 13.2391 4.38702 13.5647 4.94228L16.3878 9.7993L13.5667 9.04899" stroke="black" stroke-width="1.5" stroke-linecap="round" stroke-linejoin="round"/>
<path d="M6.81984 15.2592L6.06353 12.458L3.24035 17.313C2.91917 17.8697 2.92037 18.5557 3.2435 19.1113C3.56664 19.6668 4.16231 20.0071 4.805 20.0032H9.41893" stroke="black" stroke-width="1.5" stroke-linecap="round" stroke-linejoin="round"/>
</svg>
