<svg width="24" height="24" viewBox="0 0 24 24" fill="none" xmlns="http://www.w3.org/2000/svg">
<path fill-rule="evenodd" clip-rule="evenodd" d="M15.331 20.9858H8.669C5.538 20.9858 3 18.4478 3 15.3168V8.65484C3 5.52384 5.538 2.98584 8.669 2.98584H15.33C18.462 2.98584 21 5.52384 21 8.65484V15.3158C21 18.4478 18.462 20.9858 15.331 20.9858Z" stroke="black" stroke-width="1.5" stroke-linecap="round" stroke-linejoin="round"/>
<path d="M15.607 12.6641L16.651 14.4731C17.068 15.1951 16.547 16.0981 15.713 16.0981H13.624" stroke="black" stroke-width="1.5" stroke-linecap="round" stroke-linejoin="round"/>
<path d="M8.393 12.6641L7.349 14.4731C6.932 15.1951 7.453 16.0981 8.287 16.0981H10.376" stroke="black" stroke-width="1.5" stroke-linecap="round" stroke-linejoin="round"/>
<path d="M10.018 9.85099L11.062 8.04199C11.479 7.31999 12.521 7.31999 12.938 8.04199L13.982 9.85099" stroke="black" stroke-width="1.5" stroke-linecap="round" stroke-linejoin="round"/>
</svg>
