<svg width="24" height="24" viewBox="0 0 24 24" fill="none" xmlns="http://www.w3.org/2000/svg">
<path fill-rule="evenodd" clip-rule="evenodd" d="M13.743 7.66209L16.789 13.0761C17.539 14.4091 16.576 16.0571 15.046 16.0571H8.955C7.425 16.0571 6.462 14.4101 7.212 13.0761L10.258 7.66209C11.021 6.30209 12.978 6.30209 13.743 7.66209Z" stroke="black" stroke-width="1.5" stroke-linecap="round" stroke-linejoin="round"/>
<path fill-rule="evenodd" clip-rule="evenodd" d="M13.743 7.66209L16.789 13.0761C17.539 14.4091 16.576 16.0571 15.046 16.0571H8.955C7.425 16.0571 6.462 14.4101 7.212 13.0761L10.258 7.66209C11.021 6.30209 12.978 6.30209 13.743 7.66209Z" stroke="black" stroke-width="1.5" stroke-linecap="round" stroke-linejoin="round"/>
<path fill-rule="evenodd" clip-rule="evenodd" d="M12 21V21C7.029 21 3 16.971 3 12V12C3 7.029 7.029 3 12 3V3C16.971 3 21 7.029 21 12V12C21 16.971 16.971 21 12 21Z" stroke="black" stroke-width="1.5" stroke-linecap="round" stroke-linejoin="round"/>
</svg>
