<svg width="24" height="24" viewBox="0 0 24 24" fill="none" xmlns="http://www.w3.org/2000/svg">
<path d="M18.364 5.63604C21.8787 9.15076 21.8787 14.8492 18.364 18.3639C14.8493 21.8787 9.1508 21.8787 5.6361 18.3639C2.12138 14.8492 2.12138 9.15074 5.6361 5.63604C9.15082 2.12132 14.8493 2.12132 18.364 5.63604" stroke="black" stroke-width="1.5" stroke-linecap="round" stroke-linejoin="round"/>
<path fill-rule="evenodd" clip-rule="evenodd" d="M16 14.4308H8C7.448 14.4308 7 13.9828 7 13.4308V9.56885C7 9.01685 7.448 8.56885 8 8.56885H16C16.552 8.56885 17 9.01685 17 9.56885V13.4298C17 13.9828 16.552 14.4308 16 14.4308Z" stroke="black" stroke-width="1.5275" stroke-linecap="round" stroke-linejoin="round"/>
<path d="M9.5 17H14.5" stroke="black" stroke-width="1.3944" stroke-linecap="round" stroke-linejoin="round"/>
</svg>
