<svg width="24" height="24" viewBox="0 0 24 24" fill="none" xmlns="http://www.w3.org/2000/svg">
<path d="M10 18C10 15.7909 8.20914 14 6 14C3.79086 14 2 15.7909 2 18C2 20.2091 3.79086 22 6 22C7.06087 22 8.07828 21.5786 8.82843 20.8284C9.57857 20.0783 10 19.0609 10 18" stroke="black" stroke-width="1.5" stroke-linecap="round" stroke-linejoin="round"/>
<path d="M10.5 7.5L8 10L10.5 12.5" stroke="black" stroke-width="1.5" stroke-linecap="round" stroke-linejoin="round"/>
<path d="M8 10H13C14.6569 10 16 11.3431 16 13V13C16 14.6569 14.6569 16 13 16" stroke="black" stroke-width="1.5" stroke-linecap="round" stroke-linejoin="round"/>
<path d="M4.93933 16.9395L7.06065 19.0608" stroke="black" stroke-width="1.5" stroke-linecap="round" stroke-linejoin="round"/>
<path d="M7.06065 16.9395L4.93933 19.0608" stroke="black" stroke-width="1.5" stroke-linecap="round" stroke-linejoin="round"/>
<path d="M3.47932 14.8986C2.13213 10.9378 3.69238 6.57091 7.24452 4.36056C10.7967 2.15022 15.4036 2.6795 18.3619 5.63782C21.3202 8.59613 21.8495 13.2031 19.6391 16.7552C17.4288 20.3073 13.0619 21.8676 9.10109 20.5204" stroke="black" stroke-width="1.5" stroke-linecap="round" stroke-linejoin="round"/>
</svg>
