<svg width="24" height="24" viewBox="0 0 24 24" fill="none" xmlns="http://www.w3.org/2000/svg">
<path fill-rule="evenodd" clip-rule="evenodd" d="M10 10.6968H14C14.55 10.6968 15 11.1468 15 11.6968V14.7498C15 15.3018 14.552 15.7498 14 15.7498H10C9.448 15.7498 9 15.3018 9 14.7498V11.6968C9 11.1448 9.448 10.6968 10 10.6968Z" stroke="black" stroke-width="1.5" stroke-linecap="round" stroke-linejoin="round"/>
<path fill-rule="evenodd" clip-rule="evenodd" d="M10.476 20.8749C16.635 21.8849 21.885 16.6359 20.875 10.4759C20.263 6.7459 17.255 3.7369 13.525 3.1249C7.365 2.1139 2.115 7.3649 3.126 13.5239C3.737 17.2549 6.746 20.2629 10.476 20.8749Z" stroke="black" stroke-width="1.5" stroke-linecap="round" stroke-linejoin="round"/>
<path d="M13.68 10.6902V9.43018" stroke="black" stroke-width="1.5" stroke-linecap="round" stroke-linejoin="round"/>
<path d="M13.684 9.434C13.684 8.504 12.93 7.75 12 7.75C11.387 7.75 10.868 8.087 10.576 8.577" stroke="black" stroke-width="1.5" stroke-linecap="round" stroke-linejoin="round"/>
</svg>
