<svg width="24" height="24" viewBox="0 0 24 24" fill="none" xmlns="http://www.w3.org/2000/svg">
<path fill-rule="evenodd" clip-rule="evenodd" d="M16.0017 11.5654H7.99833V6.99846C7.99833 6.44623 8.44652 5.99805 8.99875 5.99805H15.0012C15.5535 5.99805 16.0017 6.44623 16.0017 6.99846V11.5654Z" stroke="black" stroke-width="1.5" stroke-linecap="round" stroke-linejoin="round"/>
<path fill-rule="evenodd" clip-rule="evenodd" d="M6.99792 18.0026H17.0021C17.5543 18.0026 18.0025 17.5544 18.0025 17.0022V13.5658C18.0025 12.4603 17.1071 11.5649 16.0017 11.5649H7.99833C6.89287 11.5649 5.9975 12.4603 5.9975 13.5658V17.0022C5.9975 17.5544 6.44569 18.0026 6.99792 18.0026Z" stroke="black" stroke-width="1.5" stroke-linecap="round" stroke-linejoin="round"/>
<path d="M13.2505 8.49864V8.99885" stroke="black" stroke-width="1.5" stroke-linecap="round" stroke-linejoin="round"/>
<path d="M10.7495 8.49864V8.99885" stroke="black" stroke-width="1.5" stroke-linecap="round" stroke-linejoin="round"/>
<path fill-rule="evenodd" clip-rule="evenodd" d="M17.0021 21.0041H6.99792C4.788 21.0041 2.99625 19.2123 2.99625 17.0024V6.99825C2.99625 4.78833 4.788 2.99658 6.99792 2.99658H17.0021C19.212 2.99658 21.0037 4.78833 21.0037 6.99825V17.0024C21.0037 19.2123 19.212 21.0041 17.0021 21.0041Z" stroke="black" stroke-width="1.5" stroke-linecap="round" stroke-linejoin="round"/>
</svg>
