<svg width="24" height="24" viewBox="0 0 24 24" fill="none" xmlns="http://www.w3.org/2000/svg">
<path d="M12 7C13.381 7 14.5 8.119 14.5 9.5C14.5 10.881 13.381 12 12 12C10.619 12 9.5 10.881 9.5 9.5C9.5 8.119 10.619 7 12 7" stroke="black" stroke-width="1.5" stroke-linecap="round" stroke-linejoin="round"/>
<path d="M16.5 16C16.369 15.671 16.166 15.375 15.906 15.134V15.134C15.467 14.726 14.892 14.5 14.292 14.5C13.292 14.5 10.708 14.5 9.708 14.5C9.108 14.5 8.534 14.727 8.094 15.134V15.134C7.834 15.375 7.631 15.671 7.5 16" stroke="black" stroke-width="1.5" stroke-linecap="round" stroke-linejoin="round"/>
<path d="M10.5 20.8649C7.789 20.4089 5.491 18.7469 4.179 16.4429" stroke="black" stroke-width="1.5" stroke-linecap="round" stroke-linejoin="round"/>
<path d="M5.15 6.16992C3.812 7.74092 3 9.77392 3 11.9999C3 12.5549 3.058 13.0959 3.154 13.6239" stroke="black" stroke-width="1.5" stroke-linecap="round" stroke-linejoin="round"/>
<path d="M13.5 20.8649C16.211 20.4089 18.509 18.7469 19.821 16.4429" stroke="black" stroke-width="1.5" stroke-linecap="round" stroke-linejoin="round"/>
<path d="M16.55 4.244C15.214 3.458 13.662 3 12 3C10.338 3 8.786 3.458 7.45 4.244" stroke="black" stroke-width="1.5" stroke-linecap="round" stroke-linejoin="round"/>
<path d="M18.85 6.16992C20.188 7.74092 21 9.77392 21 11.9999C21 12.5549 20.942 13.0959 20.846 13.6239" stroke="black" stroke-width="1.5" stroke-linecap="round" stroke-linejoin="round"/>
</svg>
