<svg width="24" height="24" viewBox="0 0 24 24" fill="none" xmlns="http://www.w3.org/2000/svg">
<path fill-rule="evenodd" clip-rule="evenodd" d="M12.829 16.6821H11.172C10.642 16.6821 10.133 16.8931 9.758 17.2681L8.051 18.9751C7.421 19.6051 7.867 20.6821 8.758 20.6821H15.243C16.134 20.6821 16.58 19.6051 15.95 18.9751L14.243 17.2681C13.868 16.8931 13.359 16.6821 12.829 16.6821V16.6821Z" stroke="black" stroke-width="1.5" stroke-linecap="round" stroke-linejoin="round"/>
<path d="M5.161 17.8388C2.137 14.3018 2.291 8.98176 5.636 5.63576C9.151 2.12076 14.849 2.12076 18.364 5.63576C21.71 8.98176 21.863 14.3028 18.839 17.8388" stroke="black" stroke-width="1.5" stroke-linecap="round" stroke-linejoin="round"/>
<path d="M7.661 15.339C6 13.182 6.135 10.087 8.111 8.111C10.259 5.963 13.741 5.963 15.889 8.111C17.866 10.088 18 13.182 16.338 15.339" stroke="black" stroke-width="1.5" stroke-linecap="round" stroke-linejoin="round"/>
<path d="M13.579 10.4211C14.451 11.2932 14.451 12.707 13.579 13.5791C12.707 14.4511 11.2931 14.4511 10.4211 13.5791C9.54902 12.707 9.54902 11.2932 10.4211 10.4211C11.2931 9.54908 12.707 9.54908 13.579 10.4211" stroke="black" stroke-width="1.5" stroke-linecap="round" stroke-linejoin="round"/>
</svg>
