<svg width="24" height="24" viewBox="0 0 24 24" fill="none" xmlns="http://www.w3.org/2000/svg">
<path fill-rule="evenodd" clip-rule="evenodd" d="M12 6.74805V6.74805C13.6575 6.74805 15.0012 8.09175 15.0012 9.7493V10.2495C15.0012 11.907 13.6575 13.2508 12 13.2508V13.2508C10.3425 13.2508 8.99875 11.907 8.99875 10.2495V9.7493C8.99875 8.09175 10.3425 6.74805 12 6.74805Z" stroke="black" stroke-width="1.5" stroke-linecap="round" stroke-linejoin="round"/>
<circle cx="18.5027" cy="18.5024" r="3.50146" stroke="black" stroke-width="1.5" stroke-linecap="round" stroke-linejoin="round"/>
<path d="M15.5015 20.2933C14.3943 20.7643 13.2032 21.0059 12 21.0036C7.02737 21.0036 2.99625 16.9725 2.99625 11.9998C2.99625 7.02721 7.02737 2.99609 12 2.99609C16.9726 2.99609 21.0038 7.02721 21.0038 11.9998C21.0061 13.203 20.7644 14.3941 20.2935 15.5013" stroke="black" stroke-width="1.5" stroke-linecap="round" stroke-linejoin="round"/>
<path d="M15.5661 16.6064C14.6109 16.2138 13.589 16.0086 12.5562 16.002H11.3427C9.20128 16.002 7.14756 16.8527 5.63335 18.3669" stroke="black" stroke-width="1.5" stroke-linecap="round" stroke-linejoin="round"/>
</svg>
