<svg width="24" height="24" viewBox="0 0 24 24" fill="none" xmlns="http://www.w3.org/2000/svg">
<path d="M15.2156 10.4277C17.0019 10.3627 18.4198 8.90177 18.4313 7.11433C18.4037 5.36565 16.9643 3.97009 15.2156 3.99646" stroke="black" stroke-width="1.5" stroke-linecap="round" stroke-linejoin="round"/>
<path fill-rule="evenodd" clip-rule="evenodd" d="M9.4275 10.4277C11.2138 10.3627 12.6317 8.90177 12.6431 7.11433C12.6155 5.36565 11.1762 3.97009 9.4275 3.99646C7.6788 3.97009 6.23949 5.36565 6.21188 7.11433C6.22289 8.90195 7.64101 10.3632 9.4275 10.4277V10.4277Z" stroke="black" stroke-width="1.5" stroke-linecap="round" stroke-linejoin="round"/>
<path d="M16.0017 20.0035V18.0026C16.0017 15.7926 14.2101 14.001 12 14.001H6.99791C4.78785 14.001 2.99625 15.7926 2.99625 18.0026V20.0035" stroke="black" stroke-width="1.5" stroke-linecap="round" stroke-linejoin="round"/>
<path d="M21.0038 20.0035V17.0022C21.0038 15.3447 19.66 14.001 18.0025 14.001" stroke="black" stroke-width="1.5" stroke-linecap="round" stroke-linejoin="round"/>
</svg>
