<svg width="24" height="24" viewBox="0 0 24 24" fill="none" xmlns="http://www.w3.org/2000/svg">
<path d="M16.674 17.0001L16.39 16.2871C16.246 15.9261 16.023 15.6011 15.738 15.3371V15.3371C15.255 14.8891 14.62 14.6411 13.962 14.6411H10.038C9.379 14.6411 8.745 14.8901 8.262 15.3371V15.3371C7.977 15.6011 7.754 15.9261 7.61 16.2871L7.326 17.0001" stroke="black" stroke-width="1.5" stroke-linecap="round" stroke-linejoin="round"/>
<path d="M13.9445 7.80546C15.0184 8.8794 15.0184 10.6206 13.9445 11.6945C12.8706 12.7685 11.1293 12.7685 10.0554 11.6945C8.98147 10.6206 8.98147 8.8794 10.0554 7.80546C11.1293 6.73151 12.8706 6.73151 13.9445 7.80546" stroke="black" stroke-width="1.5" stroke-linecap="round" stroke-linejoin="round"/>
<path d="M7.588 3H5C3.895 3 3 3.895 3 5V7.588" stroke="black" stroke-width="1.5" stroke-linecap="round" stroke-linejoin="round"/>
<path d="M16.412 21.0001H19C20.105 21.0001 21 20.1051 21 19.0001V16.4121" stroke="black" stroke-width="1.5" stroke-linecap="round" stroke-linejoin="round"/>
<path d="M3 16.4121V19.0001C3 20.1051 3.895 21.0001 5 21.0001H7.588" stroke="black" stroke-width="1.5" stroke-linecap="round" stroke-linejoin="round"/>
<path d="M21 7.588V5C21 3.895 20.105 3 19 3H16.412" stroke="black" stroke-width="1.5" stroke-linecap="round" stroke-linejoin="round"/>
</svg>
