<svg width="24" height="24" viewBox="0 0 24 24" fill="none" xmlns="http://www.w3.org/2000/svg">
<path d="M10.421 13.5788C9.412 12.5698 9.57 10.8358 10.896 10.0548C11.565 9.66078 12.435 9.66078 13.104 10.0548C14.429 10.8358 14.588 12.5698 13.579 13.5788" stroke="black" stroke-width="1.5" stroke-linecap="round" stroke-linejoin="round"/>
<path d="M13.579 13.5788C12.707 14.4508 11.293 14.4508 10.421 13.5788" stroke="black" stroke-width="1.5" stroke-linecap="round" stroke-linejoin="round"/>
<path d="M5.161 17.8388C2.137 14.3018 2.291 8.98176 5.636 5.63576C9.151 2.12076 14.849 2.12076 18.364 5.63576C21.71 8.98176 21.863 14.3028 18.839 17.8388" stroke="black" stroke-width="1.5" stroke-linecap="round" stroke-linejoin="round"/>
<path d="M7.66101 15.339C6.00001 13.182 6.13501 10.087 8.11101 8.111C10.259 5.963 13.741 5.963 15.889 8.111C17.866 10.088 18 13.182 16.338 15.339" stroke="black" stroke-width="1.5" stroke-linecap="round" stroke-linejoin="round"/>
<path fill-rule="evenodd" clip-rule="evenodd" d="M7.98999 20.013C8.50499 18.276 10.095 17 12 17C13.905 17 15.495 18.276 16.01 20.013C13.485 21.277 10.515 21.276 7.98999 20.013Z" stroke="black" stroke-width="1.5" stroke-linecap="round" stroke-linejoin="round"/>
</svg>
