<svg width="24" height="24" viewBox="0 0 24 24" fill="none" xmlns="http://www.w3.org/2000/svg">
<path d="M13.091 9.68415C13.97 10.5632 13.97 11.9872 13.091 12.8662C12.212 13.7452 10.788 13.7452 9.909 12.8662C9.03 11.9872 9.03 10.5632 9.909 9.68415C10.788 8.80515 12.212 8.80515 13.091 9.68415" stroke="black" stroke-width="1.5" stroke-linecap="round" stroke-linejoin="round"/>
<path d="M15.666 17.9998C15.252 16.8998 14.201 16.1128 12.956 16.1128H10.044C8.799 16.1128 7.748 16.8998 7.334 17.9998" stroke="black" stroke-width="1.5" stroke-linecap="round" stroke-linejoin="round"/>
<path d="M15 4H7C4.791 4 3 5.791 3 8V17C3 19.209 4.791 21 7 21H16C18.209 21 20 19.209 20 17V9" stroke="black" stroke-width="1.5" stroke-linecap="round" stroke-linejoin="round"/>
<path d="M18 5H20" stroke="black" stroke-width="1.5" stroke-linecap="round" stroke-linejoin="round"/>
<path d="M19 9C16.791 9 15 7.209 15 5C15 2.791 16.791 1 19 1C21.209 1 23 2.791 23 5C23 7.209 21.209 9 19 9" stroke="black" stroke-width="1.5" stroke-linecap="round" stroke-linejoin="round"/>
</svg>
