<svg width="24" height="24" viewBox="0 0 24 24" fill="none" xmlns="http://www.w3.org/2000/svg">
<path d="M12 6.49805V12.0003" stroke="black" stroke-width="1.5" stroke-linecap="round" stroke-linejoin="round"/>
<path d="M15.0012 9.49913V9.99934" stroke="black" stroke-width="1.5" stroke-linecap="round" stroke-linejoin="round"/>
<path d="M8.99874 14.5011V9.49902" stroke="black" stroke-width="1.5" stroke-linecap="round" stroke-linejoin="round"/>
<path d="M2.99625 16.002V18.0028C2.99625 19.6603 4.33995 21.004 5.9975 21.004H7.99833" stroke="black" stroke-width="1.5" stroke-linecap="round" stroke-linejoin="round"/>
<path d="M2.99625 7.99818V5.99734C2.99625 4.3398 4.33995 2.99609 5.9975 2.99609H7.99833" stroke="black" stroke-width="1.5" stroke-linecap="round" stroke-linejoin="round"/>
<path d="M16.0016 2.99609H18.0025C19.66 2.99609 21.0037 4.3398 21.0037 5.99734V7.99818" stroke="black" stroke-width="1.5" stroke-linecap="round" stroke-linejoin="round"/>
<path d="M5.99749 13.0008V11" stroke="black" stroke-width="1.5" stroke-linecap="round" stroke-linejoin="round"/>
<path d="M17.5023 22.0039C15.6814 22.0039 14.0399 20.907 13.3431 19.2248C12.6463 17.5426 13.0314 15.6062 14.319 14.3187C15.6065 13.0312 17.5428 12.646 19.2251 13.3428C20.9073 14.0396 22.0042 15.6812 22.0042 17.502C22.0042 19.9883 19.9886 22.0039 17.5023 22.0039" stroke="black" stroke-width="1.5" stroke-linecap="round" stroke-linejoin="round"/>
<path d="M19.0026 16.752L17.1286 18.6281L16.0032 17.5026" stroke="black" stroke-width="1.5" stroke-linecap="round" stroke-linejoin="round"/>
</svg>
