<svg width="24" height="24" viewBox="0 0 24 24" fill="none" xmlns="http://www.w3.org/2000/svg">
<path d="M12 6.49805V12.0003" stroke="black" stroke-width="1.5" stroke-linecap="round" stroke-linejoin="round"/>
<path d="M15.0013 9.49913V9.99934" stroke="black" stroke-width="1.5" stroke-linecap="round" stroke-linejoin="round"/>
<path d="M8.99875 14.5011V9.49902" stroke="black" stroke-width="1.5" stroke-linecap="round" stroke-linejoin="round"/>
<path d="M2.99625 16.002V18.0028C2.99625 19.6603 4.33996 21.004 5.9975 21.004H7.99834" stroke="black" stroke-width="1.5" stroke-linecap="round" stroke-linejoin="round"/>
<path d="M2.99625 7.99818V5.99734C2.99625 4.3398 4.33996 2.99609 5.9975 2.99609H7.99834" stroke="black" stroke-width="1.5" stroke-linecap="round" stroke-linejoin="round"/>
<path d="M16.0017 2.99609H18.0025C19.66 2.99609 21.0038 4.3398 21.0038 5.99734V7.99818" stroke="black" stroke-width="1.5" stroke-linecap="round" stroke-linejoin="round"/>
<path d="M5.9975 13.0008V11" stroke="black" stroke-width="1.5" stroke-linecap="round" stroke-linejoin="round"/>
<path d="M17.5023 22.0039C15.6815 22.0039 14.0399 20.907 13.3431 19.2248C12.6463 17.5426 13.0315 15.6062 14.319 14.3187C15.6065 13.0312 17.5429 12.646 19.2251 13.3428C20.9073 14.0396 22.0042 15.6812 22.0042 17.502C22.0042 19.9883 19.9886 22.0039 17.5023 22.0039" stroke="black" stroke-width="1.5" stroke-linecap="round" stroke-linejoin="round"/>
<path d="M18.7248 17.4521C18.6972 17.4521 18.6748 17.4745 18.6748 17.5022C18.6748 17.5298 18.6972 17.5522 18.7248 17.5522C18.7524 17.5522 18.7748 17.5298 18.7748 17.5022C18.7748 17.4745 18.7524 17.4521 18.7248 17.4521" stroke="black" stroke-width="1.5" stroke-linecap="round" stroke-linejoin="round"/>
<path d="M16.2788 17.4521C16.2517 17.4521 16.2298 17.4741 16.2298 17.5012V17.5022C16.2298 17.5298 16.2522 17.5522 16.2798 17.5522C16.3074 17.5522 16.3298 17.5298 16.3298 17.5022C16.3298 17.4745 16.3074 17.4521 16.2798 17.4521" stroke="black" stroke-width="1.5" stroke-linecap="round" stroke-linejoin="round"/>
</svg>
