<svg width="24" height="24" viewBox="0 0 24 24" fill="none" xmlns="http://www.w3.org/2000/svg">
<path d="M12 12.33V9" stroke="black" stroke-width="1.5" stroke-linecap="round" stroke-linejoin="round"/>
<path d="M11.999 14.833C11.907 14.833 11.832 14.908 11.833 15C11.833 15.092 11.908 15.167 12 15.167C12.092 15.167 12.167 15.092 12.167 15C12.167 14.908 12.092 14.833 11.999 14.833" stroke="black" stroke-width="1.5" stroke-linecap="round" stroke-linejoin="round"/>
<path d="M17.654 17.6539C16.206 19.1009 14.209 19.9999 12 19.9999C7.582 19.9999 4 16.4179 4 11.9999C4 11.3919 4.074 10.8019 4.202 10.2329" stroke="black" stroke-width="1.5" stroke-linecap="round" stroke-linejoin="round"/>
<path d="M2 12L4 10L6 12" stroke="black" stroke-width="1.5" stroke-linecap="round" stroke-linejoin="round"/>
<path d="M22 12L20 14L18 12" stroke="black" stroke-width="1.5" stroke-linecap="round" stroke-linejoin="round"/>
<path d="M6.343 6.343C7.791 4.896 9.791 4 12 4C16.418 4 20 7.582 20 12C20 12.608 19.926 13.198 19.798 13.767" stroke="black" stroke-width="1.5" stroke-linecap="round" stroke-linejoin="round"/>
</svg>
