<svg width="24" height="24" viewBox="0 0 24 24" fill="none" xmlns="http://www.w3.org/2000/svg">
<path d="M12 12.3762V8.61523" stroke="black" stroke-width="1.5" stroke-linecap="round" stroke-linejoin="round"/>
<path d="M11.999 15.0468C11.916 15.0468 11.849 15.1138 11.85 15.1968C11.85 15.2798 11.917 15.3468 12 15.3468C12.083 15.3468 12.15 15.2798 12.15 15.1968C12.15 15.1148 12.083 15.0468 11.999 15.0468" stroke="black" stroke-width="1.5" stroke-linecap="round" stroke-linejoin="round"/>
<path d="M6 14L4 12L2 14" stroke="black" stroke-width="1.5" stroke-linecap="round" stroke-linejoin="round"/>
<path d="M20 16V18C20 19.105 19.105 20 18 20H6C4.895 20 4 19.105 4 18V12" stroke="black" stroke-width="1.5" stroke-linecap="round" stroke-linejoin="round"/>
<path d="M18 10L20 12L22 10" stroke="black" stroke-width="1.5" stroke-linecap="round" stroke-linejoin="round"/>
<path d="M4 8V6C4 4.895 4.895 4 6 4H18C19.105 4 20 4.895 20 6V12" stroke="black" stroke-width="1.5" stroke-linecap="round" stroke-linejoin="round"/>
</svg>
