<svg width="24" height="24" viewBox="0 0 24 24" fill="none" xmlns="http://www.w3.org/2000/svg">
<path d="M12 11.6688V8.39844" stroke="black" stroke-width="1.5" stroke-linecap="round" stroke-linejoin="round"/>
<path d="M17.7844 5.10421C14.6643 2.48282 10.1724 2.28395 6.83283 4.61932C3.49323 6.95469 2.13857 11.242 3.53003 15.0722C4.92149 18.9025 8.7121 21.3206 12.772 20.9679C16.8318 20.6152 20.1486 17.5796 20.8587 13.5667" stroke="black" stroke-width="1.5" stroke-linecap="round" stroke-linejoin="round"/>
<path d="M21.0037 9.33716L17.6393 9.33416" stroke="black" stroke-width="1.5" stroke-linecap="round" stroke-linejoin="round"/>
<path d="M19.3231 7.65332L19.3201 11.0177" stroke="black" stroke-width="1.5" stroke-linecap="round" stroke-linejoin="round"/>
<path d="M12 15.2796C11.9572 15.2796 11.9162 15.2967 11.8861 15.3272C11.856 15.3576 11.8394 15.3989 11.8399 15.4417C11.8415 15.5294 11.9123 15.6001 12 15.6017C12.0895 15.6017 12.1621 15.5292 12.1621 15.4397C12.1621 15.3502 12.0895 15.2776 12 15.2776" stroke="black" stroke-width="1.5" stroke-linecap="round" stroke-linejoin="round"/>
</svg>
