<svg width="24" height="24" viewBox="0 0 24 24" fill="none" xmlns="http://www.w3.org/2000/svg">
<path fill-rule="evenodd" clip-rule="evenodd" d="M13.743 8.31199L16.789 13.726C17.539 15.059 16.576 16.707 15.046 16.707H8.955C7.425 16.707 6.462 15.06 7.212 13.726L10.258 8.31199C11.021 6.95199 12.978 6.95199 13.743 8.31199Z" stroke="black" stroke-width="1.5" stroke-linecap="round" stroke-linejoin="round"/>
<path d="M12 12.128V10.293" stroke="black" stroke-width="1.5" stroke-linecap="round" stroke-linejoin="round"/>
<path d="M11.999 14.1522C11.949 14.1522 11.908 14.1932 11.909 14.2432C11.909 14.2932 11.95 14.3342 12 14.3342C12.05 14.3342 12.09 14.2932 12.09 14.2432C12.09 14.1932 12.05 14.1522 11.999 14.1522" stroke="black" stroke-width="1.5" stroke-linecap="round" stroke-linejoin="round"/>
<path fill-rule="evenodd" clip-rule="evenodd" d="M18 21H6C4.343 21 3 19.657 3 18V6C3 4.343 4.343 3 6 3H18C19.657 3 21 4.343 21 6V18C21 19.657 19.657 21 18 21Z" stroke="black" stroke-width="1.5" stroke-linecap="round" stroke-linejoin="round"/>
</svg>
