<svg width="24" height="24" viewBox="0 0 24 24" fill="none" xmlns="http://www.w3.org/2000/svg">
<path fill-rule="evenodd" clip-rule="evenodd" d="M13.7437 7.60343L16.791 13.0197C17.1396 13.6392 17.1333 14.3972 16.7745 15.0109C16.4156 15.6246 15.7582 16.0019 15.0473 16.0019H8.95374C8.2428 16.0019 7.58523 15.6248 7.22638 15.011C6.86753 14.3973 6.8613 13.6392 7.21001 13.0197L10.2573 7.60343C10.6112 6.97317 11.2777 6.58301 12.0005 6.58301C12.7233 6.58301 13.3899 6.97317 13.7437 7.60343V7.60343Z" stroke="black" stroke-width="1.5" stroke-linecap="round" stroke-linejoin="round"/>
<path d="M12 11.4207V9.58496" stroke="black" stroke-width="1.5" stroke-linecap="round" stroke-linejoin="round"/>
<path d="M11.999 13.4458C11.9749 13.4458 11.9518 13.4554 11.9349 13.4725C11.918 13.4896 11.9086 13.5128 11.9089 13.5368C11.9092 13.5868 11.95 13.6272 12 13.6269C12.05 13.6266 12.0903 13.5858 12.09 13.5358C12.0897 13.4858 12.049 13.4455 11.999 13.4458" stroke="black" stroke-width="1.5" stroke-linecap="round" stroke-linejoin="round"/>
<path fill-rule="evenodd" clip-rule="evenodd" d="M12 21.0036C16.9726 21.0036 21.0037 16.9725 21.0037 11.9998C21.0037 7.02721 16.9726 2.99609 12 2.99609C7.02736 2.99609 2.99625 7.02721 2.99625 11.9998C2.99625 16.9725 7.02736 21.0036 12 21.0036V21.0036Z" stroke="black" stroke-width="1.5" stroke-linecap="round" stroke-linejoin="round"/>
</svg>
