<svg width="24" height="24" viewBox="0 0 24 24" fill="none" xmlns="http://www.w3.org/2000/svg">
<path d="M20.2174 13.2148C20.7166 12.2514 21.0038 11.16 21.0038 9.9995C21.0038 6.13189 17.8684 2.99658 14.0008 2.99658C12.8404 2.99658 11.7489 3.2837 10.7855 3.78291" stroke="black" stroke-width="1.5" stroke-linecap="round" stroke-linejoin="round"/>
<path d="M9.99917 21.0039C6.13056 21.0039 2.99625 17.8676 2.99625 14.001C2.99625 10.1344 6.13056 6.99805 9.99917 6.99805C13.8658 6.99805 17.0021 10.1344 17.0021 14.001C17.0021 17.8676 13.8658 21.0039 9.99917 21.0039" stroke="black" stroke-width="1.5" stroke-linecap="round" stroke-linejoin="round"/>
<path d="M10.0002 13.7443V11.1992" stroke="black" stroke-width="1.5" stroke-linecap="round" stroke-linejoin="round"/>
<path d="M9.99817 16.5524C9.92914 16.5524 9.87211 16.6094 9.87411 16.6784C9.87411 16.7475 9.93114 16.8045 10.0002 16.8045C10.0692 16.8045 10.1242 16.7475 10.1242 16.6784C10.1252 16.6084 10.0692 16.5524 9.99817 16.5524" stroke="black" stroke-width="1.5" stroke-linecap="round" stroke-linejoin="round"/>
</svg>
