<svg width="24" height="24" viewBox="0 0 24 24" fill="none" xmlns="http://www.w3.org/2000/svg">
<path fill-rule="evenodd" clip-rule="evenodd" d="M12 5.229V5.229C15.74 5.229 18.771 8.26 18.771 12V12C18.771 15.74 15.74 18.771 12 18.771V18.771C8.26 18.771 5.229 15.74 5.229 12V12C5.229 8.26 8.26 5.229 12 5.229Z" stroke="black" stroke-width="1.5" stroke-linecap="round" stroke-linejoin="round"/>
<path d="M12 12.3762V8.61523" stroke="black" stroke-width="1.5" stroke-linecap="round" stroke-linejoin="round"/>
<path d="M11.999 15.0468C11.916 15.0468 11.849 15.1138 11.85 15.1968C11.85 15.2798 11.917 15.3468 12 15.3468C12.083 15.3468 12.15 15.2798 12.15 15.1968C12.15 15.1148 12.083 15.0468 11.999 15.0468" stroke="black" stroke-width="1.5" stroke-linecap="round" stroke-linejoin="round"/>
<path d="M20.326 5.75684C23.104 9.44884 23.104 14.5498 20.326 18.2418" stroke="black" stroke-width="1.5" stroke-linecap="round" stroke-linejoin="round"/>
<path d="M3.667 18.2428C0.889 14.5508 0.889 9.44981 3.667 5.75781" stroke="black" stroke-width="1.5" stroke-linecap="round" stroke-linejoin="round"/>
</svg>
