<svg width="24" height="24" viewBox="0 0 24 24" fill="none" xmlns="http://www.w3.org/2000/svg">
<path d="M20.7726 14.0008C19.8796 17.9186 16.4986 20.7704 12.4863 20.9901C8.474 21.2098 4.8018 18.7442 3.48638 14.9473C2.17096 11.1504 3.53079 6.94142 6.81907 4.63187C10.1074 2.32231 14.528 2.4713 17.6533 4.99702" stroke="black" stroke-width="1.5" stroke-linecap="round" stroke-linejoin="round"/>
<path d="M21.0038 8.00049L18.0025 10.9977" stroke="black" stroke-width="1.5" stroke-linecap="round" stroke-linejoin="round"/>
<path d="M18.0045 7.99854L21.0017 10.9998" stroke="black" stroke-width="1.5" stroke-linecap="round" stroke-linejoin="round"/>
<path d="M12 11.6688V8.39844" stroke="black" stroke-width="1.5" stroke-linecap="round" stroke-linejoin="round"/>
<path d="M12 15.2796C11.9572 15.2796 11.9162 15.2967 11.8861 15.3272C11.856 15.3576 11.8394 15.3989 11.8399 15.4417C11.8415 15.5294 11.9123 15.6001 12 15.6017C12.0895 15.6017 12.1621 15.5292 12.1621 15.4397C12.1621 15.3502 12.0895 15.2776 12 15.2776" stroke="black" stroke-width="1.5" stroke-linecap="round" stroke-linejoin="round"/>
</svg>
