<svg width="24" height="24" viewBox="0 0 24 24" fill="none" xmlns="http://www.w3.org/2000/svg">
<path d="M12 15.0042V12.0029" stroke="black" stroke-width="1.5" stroke-linecap="round" stroke-linejoin="round"/>
<path d="M15.3755 20.3449C19.3695 18.7292 21.6586 14.51 20.8356 10.281C20.0126 6.05193 16.3084 2.99902 12 2.99902C7.69162 2.99902 3.98735 6.05193 3.16437 10.281C2.3414 14.51 4.63051 18.7292 8.62448 20.3449" stroke="black" stroke-width="1.5" stroke-linecap="round" stroke-linejoin="round"/>
<path d="M15.3764 14.9542C16.9726 13.1443 16.8578 10.3978 15.1161 8.72738C13.3745 7.05702 10.6255 7.05702 8.88388 8.72738C7.14223 10.3978 7.02743 13.1443 8.6236 14.9542" stroke="black" stroke-width="1.5" stroke-linecap="round" stroke-linejoin="round"/>
<path d="M11.998 17.8205C11.8986 17.8205 11.818 17.9011 11.8179 18.0006V18.0026C11.82 18.101 11.9002 18.1797 11.9987 18.1799C12.0971 18.18 12.1776 18.1015 12.18 18.0031V18.0026C12.1805 17.9026 12.1 17.8211 12 17.8205H11.998" stroke="black" stroke-width="1.5" stroke-linecap="round" stroke-linejoin="round"/>
</svg>
