<svg width="24" height="24" viewBox="0 0 24 24" fill="none" xmlns="http://www.w3.org/2000/svg">
<path d="M12 8.62393V2.99658" stroke="black" stroke-width="1.5" stroke-linecap="round" stroke-linejoin="round"/>
<path d="M8.62359 3.65674C4.62856 5.27281 2.33884 9.49315 3.16204 13.7233C3.98523 17.9535 7.69048 21.0072 12 21.0072C16.3095 21.0072 20.0148 17.9535 20.838 13.7233C21.6612 9.49315 19.3714 5.27281 15.3764 3.65674" stroke="black" stroke-width="1.5" stroke-linecap="round" stroke-linejoin="round"/>
<path d="M8.6236 9.05078C7.02743 10.8607 7.14223 13.6072 8.88388 15.2776C10.6255 16.948 13.3745 16.948 15.1161 15.2776C16.8578 13.6072 16.9726 10.8607 15.3764 9.05078" stroke="black" stroke-width="1.5" stroke-linecap="round" stroke-linejoin="round"/>
<path d="M12 11.8221C11.9519 11.822 11.9058 11.8413 11.872 11.8755C11.8381 11.9097 11.8194 11.956 11.8199 12.0041C11.8199 12.1041 11.901 12.1852 12.001 12.1852C12.101 12.1852 12.1821 12.1041 12.1821 12.0041C12.1823 11.9558 12.1633 11.9093 12.129 11.8751C12.0948 11.8409 12.0484 11.8218 12 11.8221" stroke="black" stroke-width="1.5" stroke-linecap="round" stroke-linejoin="round"/>
<path d="M12.1811 12.0041H11.8189" stroke="black" stroke-width="1.5" stroke-linecap="round" stroke-linejoin="round"/>
<path d="M11.999 11.822V12.1872" stroke="black" stroke-width="1.5" stroke-linecap="round" stroke-linejoin="round"/>
</svg>
