<svg width="24" height="24" viewBox="0 0 24 24" fill="none" xmlns="http://www.w3.org/2000/svg">
<path d="M20.3 7.7002C20.4 7.8002 20.4 8.1002 20.3 8.2002C20.2 8.3002 19.9 8.3002 19.8 8.2002C19.7 8.1002 19.7 7.8002 19.8 7.7002C19.9 7.6002 20.1 7.6002 20.3 7.7002" stroke="black" stroke-width="1.5" stroke-linecap="round" stroke-linejoin="round"/>
<path d="M17 4.5C15.5 3.5 13.7 3 12 3V3C7 3 3 7 3 12" stroke="black" stroke-width="1.5" stroke-linecap="round" stroke-linejoin="round"/>
<path d="M4.3 15.7002C4.4 15.8002 4.4 16.1002 4.3 16.2002C4.2 16.3002 3.9 16.3002 3.8 16.2002C3.7 16.1002 3.7 15.8002 3.8 15.7002C3.9 15.6002 4.1 15.6002 4.3 15.7002" stroke="black" stroke-width="1.5" stroke-linecap="round" stroke-linejoin="round"/>
<path d="M7 19.5C8.5 20.5 10.3 21 12 21V21C17 21 21 17 21 12" stroke="black" stroke-width="1.5" stroke-linecap="round" stroke-linejoin="round"/>
<path fill-rule="evenodd" clip-rule="evenodd" d="M10.4 12L9.2 13.7C9 13.9 9 14.1 9 14.3V15.5C9 15.8 9.2 16 9.5 16H14.6C14.9 16 15.1 15.8 15.1 15.5V14.3C15.1 14.1 15 13.9 14.9 13.7L13.5 12L14.8 10.3C15 10.1 15 9.9 15 9.7V8.5C15 8.2 14.8 8 14.5 8H9.5C9.2 8 9 8.2 9 8.5V9.7C9 9.9 9.1 10.1 9.2 10.3L10.4 12Z" stroke="black" stroke-width="1.5" stroke-linecap="round" stroke-linejoin="round"/>
</svg>
