<svg width="24" height="24" viewBox="0 0 24 24" fill="none" xmlns="http://www.w3.org/2000/svg">
<path d="M5.3 14L3.8 15.5C2.3 12.2 3 8.29999 5.6 5.59999C8.9 2.39999 14 2.09999 17.5 4.89999" stroke="black" stroke-width="1.5" stroke-linecap="round" stroke-linejoin="round"/>
<path d="M6.5 19.1C10 21.8 15.1 21.6 18.4 18.4C21.1 15.7 21.7 11.8 20.3 8.5L18.7 10" stroke="black" stroke-width="1.5" stroke-linecap="round" stroke-linejoin="round"/>
<path fill-rule="evenodd" clip-rule="evenodd" d="M10.4 12L9.2 13.7C9 13.9 9 14.1 9 14.3V15.5C9 15.8 9.2 16 9.5 16H14.6C14.9 16 15.1 15.8 15.1 15.5V14.3C15.1 14.1 15 13.9 14.9 13.7L13.5 12L14.8 10.3C15 10.1 15 9.9 15 9.7V8.5C15 8.2 14.8 8 14.5 8H9.5C9.2 8 9 8.2 9 8.5V9.7C9 9.9 9.1 10.1 9.2 10.3L10.4 12Z" stroke="black" stroke-width="1.5" stroke-linecap="round" stroke-linejoin="round"/>
</svg>
