<svg width="24" height="24" viewBox="0 0 24 24" fill="none" xmlns="http://www.w3.org/2000/svg">
<path d="M5.16 6.16017C5.621 5.62017 6.146 5.13917 6.722 4.72217" stroke="black" stroke-width="1.5" stroke-linecap="round" stroke-linejoin="round"/>
<path d="M17 19.4819C15.57 20.4399 13.851 20.9999 12 20.9999C11.088 20.9999 10.209 20.8619 9.38 20.6099" stroke="black" stroke-width="1.5" stroke-linecap="round" stroke-linejoin="round"/>
<path d="M3.52301 9C3.19001 9.94 3.00001 10.946 3.00001 12" stroke="black" stroke-width="1.5" stroke-linecap="round" stroke-linejoin="round"/>
<path fill-rule="evenodd" clip-rule="evenodd" d="M13.521 12L14.827 13.684C14.963 13.859 15.037 14.075 15.037 14.297V15.5C15.037 15.776 14.813 16 14.537 16H9.46301C9.18701 16 8.96301 15.776 8.96301 15.5V14.279C8.96301 14.069 9.02901 13.863 9.15301 13.693L10.378 12L9.15301 10.308C9.03001 10.137 8.96301 9.932 8.96301 9.722V8.5C8.96301 8.224 9.18701 8 9.46301 8H14.537C14.813 8 15.037 8.224 15.037 8.5V9.703C15.037 9.925 14.963 10.141 14.827 10.316L13.521 12Z" stroke="black" stroke-width="1.5" stroke-linecap="round" stroke-linejoin="round"/>
<path d="M9.38 3.39C10.209 3.138 11.088 3 12 3C16.971 3 21 7.029 21 12C21 13.855 20.427 15.569 19.463 17" stroke="black" stroke-width="1.5" stroke-linecap="round" stroke-linejoin="round"/>
<path d="M6.72199 19.279C5.26199 18.219 4.13999 16.73 3.52499 15" stroke="black" stroke-width="1.5" stroke-linecap="round" stroke-linejoin="round"/>
</svg>
