<svg width="24" height="24" viewBox="0 0 24 24" fill="none" xmlns="http://www.w3.org/2000/svg">
<path fill-rule="evenodd" clip-rule="evenodd" d="M19.5 21H4.5C3.395 21 2.5 20.105 2.5 19V5C2.5 3.895 3.395 3 4.5 3H19.5C20.605 3 21.5 3.895 21.5 5V19C21.5 20.105 20.605 21 19.5 21Z" stroke="black" stroke-width="1.5" stroke-linecap="round" stroke-linejoin="round"/>
<path d="M8 8V21" stroke="black" stroke-width="1.5" stroke-linecap="square"/>
<path d="M2.5 8H21.5" stroke="black" stroke-width="1.5" stroke-linecap="round" stroke-linejoin="round"/>
<path d="M5.505 5.49012C5.502 5.49012 5.5 5.49212 5.5 5.49512C5.5 5.49812 5.502 5.50012 5.505 5.50012C5.508 5.50012 5.51 5.49812 5.51 5.49512C5.51 5.49212 5.508 5.49012 5.505 5.49012" stroke="black" stroke-width="1.5" stroke-linecap="round" stroke-linejoin="round"/>
<path d="M8.048 5.49012C8.045 5.49012 8.043 5.49212 8.043 5.49512C8.043 5.49812 8.045 5.50012 8.048 5.50012C8.051 5.50012 8.053 5.49812 8.053 5.49512C8.053 5.49212 8.051 5.49012 8.048 5.49012" stroke="black" stroke-width="1.5" stroke-linecap="round" stroke-linejoin="round"/>
<path d="M10.588 5.49012C10.585 5.49012 10.583 5.49212 10.583 5.49512C10.583 5.49812 10.585 5.50012 10.588 5.50012C10.591 5.50012 10.593 5.49812 10.593 5.49512C10.593 5.49212 10.59 5.49012 10.588 5.49012" stroke="black" stroke-width="1.5" stroke-linecap="round" stroke-linejoin="round"/>
</svg>
