<svg width="24" height="24" viewBox="0 0 24 24" fill="none" xmlns="http://www.w3.org/2000/svg">
<path d="M11.999 19.25C11.792 19.25 11.624 19.418 11.626 19.625C11.625 19.832 11.793 20 12 20C12.207 20 12.375 19.832 12.375 19.625C12.375 19.418 12.207 19.25 11.999 19.25" stroke="black" stroke-width="1.5" stroke-linecap="round" stroke-linejoin="round"/>
<path d="M6 20L19 3" stroke="black" stroke-width="1.5" stroke-linecap="round" stroke-linejoin="round"/>
<path d="M14.116 9.38709C10.781 8.75909 7.179 9.62709 4.591 12.0001" stroke="black" stroke-width="1.5" stroke-linecap="round" stroke-linejoin="round"/>
<path d="M17.514 4.94395C12.204 3.05295 5.89799 4.00595 1.59399 7.80395" stroke="black" stroke-width="1.5" stroke-linecap="round" stroke-linejoin="round"/>
<path d="M17.267 10.4971C18.032 10.9021 18.754 11.3991 19.408 12.0001" stroke="black" stroke-width="1.5" stroke-linecap="round" stroke-linejoin="round"/>
<path d="M20.421 6.37207C21.114 6.79707 21.787 7.25907 22.406 7.80407" stroke="black" stroke-width="1.5" stroke-linecap="round" stroke-linejoin="round"/>
<path d="M14.262 14.4268C15.048 14.7278 15.786 15.1908 16.42 15.8208" stroke="black" stroke-width="1.5" stroke-linecap="round" stroke-linejoin="round"/>
</svg>
