<svg width="24" height="24" viewBox="0 0 24 24" fill="none" xmlns="http://www.w3.org/2000/svg">
<path d="M6.99792 10.3477C8.37596 9.12809 10.16 8.4673 12 8.49498C13.8401 8.4673 15.6241 9.12809 17.0021 10.3477" stroke="black" stroke-width="1.5" stroke-linecap="round" stroke-linejoin="round"/>
<path d="M8.66562 12.3859C9.61629 11.6432 10.7938 11.2507 12 11.2745C13.2062 11.2507 14.3837 11.6432 15.3344 12.3859" stroke="black" stroke-width="1.5" stroke-linecap="round" stroke-linejoin="round"/>
<path d="M10.3323 14.4971C11.3204 13.7554 12.6796 13.7554 13.6677 14.4971" stroke="black" stroke-width="1.5" stroke-linecap="round" stroke-linejoin="round"/>
<path d="M16.0017 21.5036L14.0008 19.5028L16.0017 17.502" stroke="black" stroke-width="1.5" stroke-linecap="round" stroke-linejoin="round"/>
<path d="M20.0033 19.5031H14.0008" stroke="black" stroke-width="1.5" stroke-linecap="round" stroke-linejoin="round"/>
<path d="M20.0614 15.5016C21.7673 12.0649 21.1081 7.92467 18.419 5.18785C15.73 2.45104 11.602 1.71896 8.13583 3.36417C4.66965 5.00938 2.62685 8.67041 3.047 12.4841C3.46716 16.2979 6.25797 19.4264 9.99917 20.2776" stroke="black" stroke-width="1.5" stroke-linecap="round" stroke-linejoin="round"/>
</svg>
