<svg width="24" height="24" viewBox="0 0 24 24" fill="none" xmlns="http://www.w3.org/2000/svg">
<path d="M12 19.253C11.7929 19.2535 11.6255 19.4218 11.6258 19.6288C11.6262 19.8359 11.7943 20.0035 12.0013 20.0033C12.2084 20.0031 12.3762 19.8352 12.3762 19.6281C12.377 19.5282 12.3376 19.4322 12.2668 19.3616C12.1961 19.2911 12.0999 19.2519 12 19.253" stroke="black" stroke-width="1.5" stroke-linecap="round" stroke-linejoin="round"/>
<path d="M1.58966 7.79876C7.60244 2.72463 16.3976 2.72463 22.4103 7.79876" stroke="black" stroke-width="1.5" stroke-linecap="round" stroke-linejoin="round"/>
<path d="M7.57715 15.8227C10.0251 13.3937 13.9739 13.3937 16.4218 15.8227" stroke="black" stroke-width="1.5" stroke-linecap="round" stroke-linejoin="round"/>
<path d="M13.5006 10.9993L10.4994 7.99805" stroke="black" stroke-width="1.5" stroke-linecap="round" stroke-linejoin="round"/>
<path d="M13.5006 7.99805L10.4994 10.9993" stroke="black" stroke-width="1.5" stroke-linecap="round" stroke-linejoin="round"/>
<path d="M19.4111 12C18.6896 11.3423 17.8786 10.7903 17.0021 10.3604" stroke="black" stroke-width="1.5" stroke-linecap="round" stroke-linejoin="round"/>
<path d="M6.99792 10.3604C6.12112 10.7902 5.3097 11.3423 4.58792 12" stroke="black" stroke-width="1.5" stroke-linecap="round" stroke-linejoin="round"/>
</svg>
