<svg width="24" height="24" viewBox="0 0 24 24" fill="none" xmlns="http://www.w3.org/2000/svg">
<path d="M7.81626 12.5484C8.81533 11.2466 10.363 10.4834 12.004 10.4834C13.6451 10.4834 15.1927 11.2466 16.1918 12.5484" stroke="black" stroke-width="1.5" stroke-linecap="round" stroke-linejoin="round"/>
<path d="M9.54669 14.3918C10.0909 13.5651 11.0143 13.0674 12.004 13.0674C12.9937 13.0674 13.9171 13.5651 14.4613 14.3918" stroke="black" stroke-width="1.5" stroke-linecap="round" stroke-linejoin="round"/>
<path fill-rule="evenodd" clip-rule="evenodd" d="M12.8134 16.1467L17.2086 11.4659C17.4112 11.2489 17.5181 10.9596 17.5051 10.663C17.4922 10.3664 17.3606 10.0875 17.1398 9.88895C14.243 7.20238 9.76505 7.20238 6.86817 9.88895C6.64744 10.0875 6.5158 10.3664 6.50286 10.663C6.48993 10.9596 6.59679 11.2489 6.79939 11.4659L11.1947 16.1472C11.403 16.3735 11.6966 16.5022 12.0041 16.502C12.3117 16.5019 12.6052 16.3731 12.8134 16.1467Z" stroke="black" stroke-width="1.5" stroke-linecap="round" stroke-linejoin="round"/>
<rect x="2.99625" y="2.99609" width="18.0075" height="18.0075" rx="5" stroke="black" stroke-width="1.5" stroke-linecap="round" stroke-linejoin="round"/>
</svg>
