<svg width="24" height="24" viewBox="0 0 24 24" fill="none" xmlns="http://www.w3.org/2000/svg">
<path d="M7.99832 17.502L9.99915 19.5028L7.99832 21.5036" stroke="black" stroke-width="1.5" stroke-linecap="round" stroke-linejoin="round"/>
<path d="M9.99917 19.5031H3.99667" stroke="black" stroke-width="1.5" stroke-linecap="round" stroke-linejoin="round"/>
<path d="M13.9983 20.2772C17.7387 19.4256 20.5285 16.2972 20.9478 12.4841C21.3671 8.67096 19.3239 5.01103 15.858 3.36696C12.392 1.72288 8.26498 2.45591 5.57721 5.19298C2.88945 7.93005 2.23155 12.0697 3.93834 15.5052" stroke="black" stroke-width="1.5" stroke-linecap="round" stroke-linejoin="round"/>
<path d="M12 15.2012C12.1616 15.2045 12.2903 15.3376 12.2881 15.4993C12.2859 15.6609 12.1537 15.7905 11.992 15.7894C11.8304 15.7883 11.6999 15.657 11.6999 15.4954C11.7031 15.332 11.8365 15.2012 12 15.2012" stroke="black" stroke-width="1.5" stroke-linecap="round" stroke-linejoin="round"/>
<path d="M16.877 9.87397C14.0046 7.65399 9.99537 7.65399 7.12296 9.87397" stroke="black" stroke-width="1.5" stroke-linecap="round" stroke-linejoin="round"/>
<path d="M9.15582 12.7147C10.8317 11.4213 13.1693 11.4213 14.8452 12.7147" stroke="black" stroke-width="1.5" stroke-linecap="round" stroke-linejoin="round"/>
</svg>
