<svg width="24" height="24" viewBox="0 0 24 24" fill="none" xmlns="http://www.w3.org/2000/svg">
<path d="M11.999 19.253C11.7919 19.2535 11.6245 19.4218 11.6248 19.6288C11.6252 19.8359 11.7933 20.0035 12.0003 20.0033C12.2074 20.0031 12.3751 19.8352 12.3751 19.6281C12.3759 19.5282 12.3365 19.4322 12.2658 19.3617C12.195 19.2911 12.0989 19.252 11.999 19.253" stroke="black" stroke-width="1.5" stroke-linecap="round" stroke-linejoin="round"/>
<path d="M7.57715 15.8227C10.0251 13.3937 13.9739 13.3937 16.4218 15.8227" stroke="black" stroke-width="1.5" stroke-linecap="round" stroke-linejoin="round"/>
<path d="M21.0038 6.99832L18.0025 3.99707" stroke="black" stroke-width="1.5" stroke-linecap="round" stroke-linejoin="round"/>
<path d="M21.0038 3.99707L18.0025 6.99832" stroke="black" stroke-width="1.5" stroke-linecap="round" stroke-linejoin="round"/>
<path d="M19.4121 11.9998C17.3799 10.1683 14.7357 9.1637 12 9.18389C9.26429 9.1637 6.62011 10.1683 4.58791 11.9998" stroke="black" stroke-width="1.5" stroke-linecap="round" stroke-linejoin="round"/>
<path d="M15.0012 4.27543C14.0113 4.09221 13.0068 3.99896 12 3.99681C8.1831 3.96032 4.48314 5.31287 1.58966 7.8024" stroke="black" stroke-width="1.5" stroke-linecap="round" stroke-linejoin="round"/>
</svg>
