<svg width="24" height="24" viewBox="0 0 24 24" fill="none" xmlns="http://www.w3.org/2000/svg">
<path d="M1.59399 7.804C7.34099 2.732 16.659 2.732 22.406 7.804" stroke="black" stroke-width="1.5" stroke-linecap="round" stroke-linejoin="round"/>
<path d="M14.4 11.9C14.4 10.575 13.325 9.5 12 9.5C10.675 9.5 9.59999 10.575 9.59999 11.9" stroke="black" stroke-width="1.5" stroke-linecap="round" stroke-linejoin="round"/>
<path d="M14.4 11.8999C14.4 12.8599 13.806 13.3799 13.213 13.7799" stroke="black" stroke-width="1.5" stroke-linecap="round" stroke-linejoin="round"/>
<path d="M12 15.6998C12 14.7198 12.606 14.1888 13.213 13.7798" stroke="black" stroke-width="1.5" stroke-linecap="round" stroke-linejoin="round"/>
<path d="M12 15.7001V16.0001" stroke="black" stroke-width="1.5" stroke-linecap="round" stroke-linejoin="round"/>
<path d="M19.409 11.9999C18.68 11.3319 17.863 10.8029 17 10.3789" stroke="black" stroke-width="1.5" stroke-linecap="round" stroke-linejoin="round"/>
<path d="M6.99999 10.3789C6.13699 10.8029 5.31999 11.3319 4.59099 11.9999" stroke="black" stroke-width="1.5" stroke-linecap="round" stroke-linejoin="round"/>
<path d="M16 15.4631C16.142 15.5791 16.288 15.6881 16.42 15.8211" stroke="black" stroke-width="1.5" stroke-linecap="round" stroke-linejoin="round"/>
<path d="M7.99999 15.4631C7.85799 15.5791 7.71199 15.6881 7.57899 15.8211" stroke="black" stroke-width="1.5" stroke-linecap="round" stroke-linejoin="round"/>
<path d="M11.999 19.25C11.861 19.25 11.749 19.362 11.75 19.5C11.75 19.638 11.862 19.75 12 19.75C12.138 19.75 12.25 19.638 12.25 19.5C12.25 19.362 12.138 19.25 11.999 19.25" stroke="black" stroke-width="1.5" stroke-linecap="round" stroke-linejoin="round"/>
</svg>
