<svg width="24" height="24" viewBox="0 0 24 24" fill="none" xmlns="http://www.w3.org/2000/svg">
<path d="M19.4895 17.002L16.9885 19.503L15.4878 18.0024" stroke="black" stroke-width="1.5" stroke-linecap="round" stroke-linejoin="round"/>
<path d="M12.4866 20.9416C12.1547 20.9827 11.8206 21.0036 11.4862 21.0036C6.51354 21.0036 2.48243 16.9725 2.48243 11.9998C2.48243 7.02721 6.51354 2.99609 11.4862 2.99609C16.4588 2.99609 20.4899 7.02721 20.4899 11.9998V11.9998C20.4899 12.3343 20.469 12.6684 20.4279 13.0003" stroke="black" stroke-width="1.5" stroke-linecap="round" stroke-linejoin="round"/>
<path d="M11.4862 15.7012C11.6478 15.7045 11.7765 15.8376 11.7743 15.9993C11.7721 16.1609 11.6399 16.2905 11.4782 16.2894C11.3166 16.2883 11.1861 16.157 11.1861 15.9954C11.1893 15.832 11.3227 15.7012 11.4862 15.7012" stroke="black" stroke-width="1.5" stroke-linecap="round" stroke-linejoin="round"/>
<path d="M16.3632 10.372C13.4908 8.15204 9.48155 8.15204 6.60914 10.372" stroke="black" stroke-width="1.5" stroke-linecap="round" stroke-linejoin="round"/>
<path d="M8.64199 13.2128C10.3179 11.9193 12.6554 11.9193 14.3314 13.2128" stroke="black" stroke-width="1.5" stroke-linecap="round" stroke-linejoin="round"/>
</svg>
