<svg width="24" height="24" viewBox="0 0 24 24" fill="none" xmlns="http://www.w3.org/2000/svg">
<path d="M6.99791 10.8518C8.22842 9.71732 10.0102 8.99902 12 8.99902C13.9898 8.99902 15.7716 9.71732 17.0021 10.8518" stroke="black" stroke-width="1.5" stroke-linecap="round" stroke-linejoin="round"/>
<path d="M8.6656 12.8898C9.48595 12.2095 10.6734 11.7783 12 11.7783C13.3265 11.7783 14.514 12.2095 15.3344 12.8898" stroke="black" stroke-width="1.5" stroke-linecap="round" stroke-linejoin="round"/>
<path d="M10.3323 15.0015C10.7425 14.6613 11.3367 14.4452 12 14.4452C12.6633 14.4452 13.2575 14.6603 13.6677 15.0015" stroke="black" stroke-width="1.5" stroke-linecap="round" stroke-linejoin="round"/>
<path fill-rule="evenodd" clip-rule="evenodd" d="M18.0025 21.0041H5.9975C4.33981 21.0041 2.99625 19.6605 2.99625 18.0028V5.99783C2.99625 4.34014 4.33981 2.99658 5.9975 2.99658H18.0025C19.6602 2.99658 21.0037 4.34014 21.0037 5.99783V18.0028C21.0037 19.6605 19.6602 21.0041 18.0025 21.0041Z" stroke="black" stroke-width="1.5" stroke-linecap="round" stroke-linejoin="round"/>
</svg>
