<svg width="24" height="24" viewBox="0 0 24 24" fill="none" xmlns="http://www.w3.org/2000/svg">
<path d="M20.7787 20.5539C20.6546 20.5539 20.5536 20.656 20.5536 20.779C20.5536 20.9021 20.6546 21.0041 20.7787 21.0041C20.9017 21.0041 21.0038 20.9031 21.0028 20.779C21.0038 20.655 20.9037 20.5539 20.7787 20.5539" stroke="black" stroke-width="1.5" stroke-linecap="round" stroke-linejoin="round"/>
<path d="M21.0038 18.0029C19.247 18.0419 18.0415 19.2474 18.0025 21.0042" stroke="black" stroke-width="1.5" stroke-linecap="round" stroke-linejoin="round"/>
<path d="M15.0013 21.004C15.0103 20.2446 15.1383 19.5334 15.3684 18.8821C15.9566 17.2164 17.2162 15.9569 18.8829 15.3676C19.5331 15.1385 20.2444 15.0105 21.0038 15.0015" stroke="black" stroke-width="1.5" stroke-linecap="round" stroke-linejoin="round"/>
<path d="M13.4146 13.4146L10.5854 10.5854" stroke="black" stroke-width="1.5" stroke-linecap="round" stroke-linejoin="round"/>
<path d="M13.4146 10.5854L10.5854 13.4146" stroke="black" stroke-width="1.5" stroke-linecap="round" stroke-linejoin="round"/>
<path d="M10.4113 21.0041H5.9975C4.33981 21.0041 2.99625 19.6605 2.99625 18.0028V5.99783C2.99625 4.34014 4.33981 2.99658 5.9975 2.99658H18.0025C19.6602 2.99658 21.0037 4.34014 21.0037 5.99783V10.4117" stroke="black" stroke-width="1.5" stroke-linecap="round" stroke-linejoin="round"/>
</svg>
