<svg width="24" height="24" viewBox="0 0 24 24" fill="none" xmlns="http://www.w3.org/2000/svg">
<path d="M4.39301 12.4962C6.22701 10.2032 8.95401 8.74316 12.004 8.74316C15.054 8.74316 17.781 10.2022 19.615 12.4962" stroke="black" stroke-width="1.5" stroke-linecap="round" stroke-linejoin="round"/>
<path d="M7.538 15.845C8.557 14.392 10.17 13.438 12.004 13.438C13.838 13.438 15.451 14.392 16.47 15.845" stroke="black" stroke-width="1.5" stroke-linecap="round" stroke-linejoin="round"/>
<path fill-rule="evenodd" clip-rule="evenodd" d="M13.475 19.035L21.463 10.528C22.233 9.708 22.172 8.417 21.338 7.662C18.821 5.382 15.567 4 12.004 4C8.441 4 5.187 5.382 2.67 7.662C1.836 8.417 1.775 9.708 2.545 10.528L10.533 19.036C11.342 19.896 12.666 19.896 13.475 19.035Z" stroke="black" stroke-width="1.5" stroke-linecap="round" stroke-linejoin="round"/>
</svg>
