<svg width="24" height="24" viewBox="0 0 24 24" fill="none" xmlns="http://www.w3.org/2000/svg">
<path d="M18.0025 17.002L20.0033 19.0028L18.0025 21.0036" stroke="black" stroke-width="1.5" stroke-linecap="round" stroke-linejoin="round"/>
<path d="M15.0013 19.0031H20.0033" stroke="black" stroke-width="1.5" stroke-linecap="round" stroke-linejoin="round"/>
<path d="M20.7712 14.0007C20.9245 13.3447 21.0025 12.6735 21.0037 11.9998C21.0037 7.02721 16.9726 2.99609 12 2.99609C7.02736 2.99609 2.99625 7.02721 2.99625 11.9998C2.99625 16.9725 7.02736 21.0036 12 21.0036" stroke="black" stroke-width="1.5" stroke-linecap="round" stroke-linejoin="round"/>
<path d="M12.0051 15.7521C12.1425 15.7549 12.2519 15.8681 12.2501 16.0055C12.2482 16.143 12.1358 16.2531 11.9983 16.2522C11.8609 16.2513 11.7499 16.1396 11.7499 16.0022C11.7527 15.8632 11.8661 15.7521 12.0051 15.7521" stroke="black" stroke-width="1.5" stroke-linecap="round" stroke-linejoin="round"/>
<path d="M16.877 10.372C14.0046 8.15204 9.99537 8.15204 7.12296 10.372" stroke="black" stroke-width="1.5" stroke-linecap="round" stroke-linejoin="round"/>
<path d="M9.15582 13.2128C10.8317 11.9193 13.1693 11.9193 14.8452 13.2128" stroke="black" stroke-width="1.5" stroke-linecap="round" stroke-linejoin="round"/>
</svg>
