<svg width="24" height="24" viewBox="0 0 24 24" fill="none" xmlns="http://www.w3.org/2000/svg">
<path d="M5.398 5.89795C3.914 7.50295 3 9.64195 3 11.9999C3 14.3579 3.914 16.4969 5.398 18.1019" stroke="black" stroke-width="1.5" stroke-linecap="round" stroke-linejoin="round"/>
<path d="M7.519 8.01904C6.577 9.07904 6 10.47 6 12C6 13.53 6.577 14.921 7.519 15.981" stroke="black" stroke-width="1.5" stroke-linecap="round" stroke-linejoin="round"/>
<path d="M12.406 9.04102C13.735 9.22302 14.778 10.265 14.959 11.594" stroke="black" stroke-width="1.5" stroke-linecap="round" stroke-linejoin="round"/>
<path d="M7.549 4.184C8.863 3.434 10.379 3 12 3C16.971 3 21 7.029 21 12C21 13.621 20.566 15.137 19.816 16.451" stroke="black" stroke-width="1.5" stroke-linecap="round" stroke-linejoin="round"/>
<path d="M17.575 14.21C17.846 13.525 18 12.781 18 12C18 8.686 15.314 6 12 6C11.219 6 10.475 6.154 9.79 6.425" stroke="black" stroke-width="1.5" stroke-linecap="round" stroke-linejoin="round"/>
<path d="M9.654 10.1538C8.727 11.3308 8.793 13.0358 9.879 14.1208C10.965 15.2058 12.669 15.2728 13.846 14.3458" stroke="black" stroke-width="1.5" stroke-linecap="round" stroke-linejoin="round"/>
<path d="M20 20.5L3 3.5" stroke="black" stroke-width="1.5" stroke-linecap="round" stroke-linejoin="round"/>
</svg>
