<svg width="24" height="24" viewBox="0 0 24 24" fill="none" xmlns="http://www.w3.org/2000/svg">
<path d="M12 21.0041C7.02693 21.0041 2.99625 16.9734 2.99625 12.0003C2.99625 7.02726 7.02693 2.99658 12 2.99658C16.9731 2.99658 21.0037 7.02726 21.0037 12.0003" stroke="black" stroke-width="1.5" stroke-linecap="round" stroke-linejoin="round"/>
<path d="M20.7787 20.5539C20.6546 20.5539 20.5536 20.656 20.5536 20.779C20.5536 20.9021 20.6546 21.0041 20.7787 21.0041C20.9017 21.0041 21.0038 20.9031 21.0028 20.779C21.0038 20.655 20.9037 20.5539 20.7787 20.5539" stroke="black" stroke-width="1.5" stroke-linecap="round" stroke-linejoin="round"/>
<path d="M21.0038 18.0029C19.247 18.0419 18.0415 19.2474 18.0025 21.0042" stroke="black" stroke-width="1.5" stroke-linecap="round" stroke-linejoin="round"/>
<path d="M15.0013 21.004C15.0103 20.2446 15.1383 19.5334 15.3684 18.8821C15.9566 17.2164 17.2162 15.9569 18.8829 15.3676C19.5331 15.1385 20.2444 15.0105 21.0038 15.0015" stroke="black" stroke-width="1.5" stroke-linecap="round" stroke-linejoin="round"/>
<path d="M14.0008 12.0002H9.99916" stroke="black" stroke-width="1.5" stroke-linecap="round" stroke-linejoin="round"/>
<path d="M12 9.99951V14.0012" stroke="black" stroke-width="1.5" stroke-linecap="round" stroke-linejoin="round"/>
</svg>
