<svg width="24" height="24" viewBox="0 0 24 24" fill="none" xmlns="http://www.w3.org/2000/svg">
<path d="M12 15.704C12.168 15.704 12.305 15.836 12.305 15.998C12.305 16.16 12.168 16.292 12 16.292C11.832 16.292 11.695 16.16 11.695 15.998C11.695 15.836 11.832 15.704 12 15.704" stroke="black" stroke-width="1.5" stroke-linecap="round" stroke-linejoin="round"/>
<path d="M16.875 10.3732C14.032 8.15423 9.968 8.15423 7.125 10.3732" stroke="black" stroke-width="1.5" stroke-linecap="round" stroke-linejoin="round"/>
<path d="M9.15701 13.2119C10.815 11.9189 13.185 11.9189 14.844 13.2119" stroke="black" stroke-width="1.5" stroke-linecap="round" stroke-linejoin="round"/>
<path d="M18.364 5.63604C21.8787 9.15076 21.8787 14.8492 18.364 18.3639C14.8493 21.8787 9.1508 21.8787 5.6361 18.3639C2.12138 14.8492 2.12138 9.15074 5.6361 5.63604C9.15082 2.12132 14.8493 2.12132 18.364 5.63604" stroke="black" stroke-width="1.5" stroke-linecap="round" stroke-linejoin="round"/>
</svg>
