<svg width="24" height="24" viewBox="0 0 24 24" fill="none" xmlns="http://www.w3.org/2000/svg">
<path d="M4.42401 19.594V17.207H6.81301" stroke="black" stroke-width="1.5" stroke-linecap="round" stroke-linejoin="round"/>
<path d="M12 15.4121C12.168 15.4121 12.305 15.5441 12.305 15.7061C12.305 15.8681 12.168 16.0001 12 16.0001C11.832 16.0001 11.695 15.8681 11.695 15.7061C11.695 15.5441 11.832 15.4121 12 15.4121" stroke="black" stroke-width="1.5" stroke-linecap="round" stroke-linejoin="round"/>
<path d="M16.875 10.0812C14.032 7.86224 9.968 7.86224 7.125 10.0812" stroke="black" stroke-width="1.5" stroke-linecap="round" stroke-linejoin="round"/>
<path d="M9.15701 12.9199C10.815 11.6269 13.185 11.6269 14.844 12.9199" stroke="black" stroke-width="1.5" stroke-linecap="round" stroke-linejoin="round"/>
<path d="M4.668 17.207C6.299 19.5 8.972 21 12 21C16.971 21 21 16.971 21 12C21 7.029 16.971 3 12 3C7.029 3 3 7.029 3 12C3 12.539 3.056 13.064 3.147 13.576" stroke="black" stroke-width="1.5" stroke-linecap="round" stroke-linejoin="round"/>
</svg>
