<svg width="24" height="24" viewBox="0 0 24 24" fill="none" xmlns="http://www.w3.org/2000/svg">
<path d="M6.48409 10.3477C7.86213 9.12809 9.64613 8.4673 11.4862 8.49498C13.3262 8.4673 15.1102 9.12809 16.4883 10.3477" stroke="black" stroke-width="1.5" stroke-linecap="round" stroke-linejoin="round"/>
<path d="M8.15179 12.3859C9.10246 11.6432 10.28 11.2507 11.4862 11.2745C12.6924 11.2507 13.8699 11.6432 14.8206 12.3859" stroke="black" stroke-width="1.5" stroke-linecap="round" stroke-linejoin="round"/>
<path d="M9.81848 14.4971C10.8066 13.7554 12.1658 13.7554 13.1539 14.4971" stroke="black" stroke-width="1.5" stroke-linecap="round" stroke-linejoin="round"/>
<path d="M19.4895 17.002L16.9885 19.503L15.4878 18.0024" stroke="black" stroke-width="1.5" stroke-linecap="round" stroke-linejoin="round"/>
<path d="M12.4866 20.9416C12.1547 20.9827 11.8206 21.0036 11.4862 21.0036C6.51354 21.0036 2.48243 16.9725 2.48243 11.9998C2.48243 7.02721 6.51354 2.99609 11.4862 2.99609C16.4588 2.99609 20.4899 7.02721 20.4899 11.9998V11.9998C20.4899 12.3343 20.469 12.6684 20.4279 13.0003" stroke="black" stroke-width="1.5" stroke-linecap="round" stroke-linejoin="round"/>
</svg>
