<svg width="24" height="24" viewBox="0 0 24 24" fill="none" xmlns="http://www.w3.org/2000/svg">
<path fill-rule="evenodd" clip-rule="evenodd" d="M17.4923 2.99609C18.3376 2.99625 19.0916 3.52763 19.3761 4.32365L20.9257 8.66245C21.035 8.96884 20.9885 9.30923 20.8011 9.57508C20.6136 9.84094 20.3086 9.99901 19.9833 9.99901H4.01667C3.69138 9.99901 3.38637 9.84094 3.19892 9.57508C3.01147 9.30923 2.96498 8.96884 3.07428 8.66245L4.62393 4.32365C4.90838 3.52763 5.66239 2.99625 6.50771 2.99609H17.4923Z" stroke="black" stroke-width="1.5" stroke-linecap="round" stroke-linejoin="round"/>
<path fill-rule="evenodd" clip-rule="evenodd" d="M20.0483 14.001C20.3591 14.0008 20.6505 14.1518 20.8296 14.4057C21.0088 14.6596 21.0532 14.9848 20.9487 15.2775L19.3561 19.7364C19.0845 20.4969 18.3639 21.0044 17.5563 21.0039H6.44368C5.63574 21.0048 4.91464 20.4972 4.64293 19.7364L3.05227 15.2775C2.94787 14.985 2.99218 14.66 3.17106 14.4061C3.34994 14.1522 3.64106 14.0011 3.95164 14.001H20.0483Z" stroke="black" stroke-width="1.5" stroke-linecap="round" stroke-linejoin="round"/>
</svg>
