<svg width="24" height="24" viewBox="0 0 24 24" fill="none" xmlns="http://www.w3.org/2000/svg">
<path d="M15.1723 21.0036H5.9975C4.33996 21.0036 2.99625 19.6599 2.99625 18.0023V5.99734C2.99625 4.3398 4.33996 2.99609 5.9975 2.99609H18.0025C19.66 2.99609 21.0037 4.3398 21.0037 5.99734V14.1477" stroke="black" stroke-width="1.5" stroke-linecap="round" stroke-linejoin="round"/>
<path d="M21.0037 7.99826H2.99625" stroke="black" stroke-width="1.5" stroke-linecap="round" stroke-linejoin="round"/>
<path d="M6.74781 17.5022H8.99875" stroke="black" stroke-width="1.5" stroke-linecap="round" stroke-linejoin="round"/>
<path d="M19.5031 16.752L17.6283 18.6277L16.5019 17.5023" stroke="black" stroke-width="1.5" stroke-linecap="round" stroke-linejoin="round"/>
<path d="M21.1858 14.3196C22.9439 16.0777 22.9439 18.9281 21.1858 20.6862C19.4277 22.4442 16.5773 22.4442 14.8192 20.6862C13.0611 18.9281 13.0611 16.0777 14.8192 14.3196C15.6634 13.4753 16.8085 13.001 18.0025 13.001C19.1965 13.001 20.3416 13.4753 21.1858 14.3196" stroke="black" stroke-width="1.5" stroke-linecap="round" stroke-linejoin="round"/>
<path d="M6.74781 14.5012H9.99916" stroke="black" stroke-width="1.5" stroke-linecap="round" stroke-linejoin="round"/>
<path d="M6.74781 11.5002H12" stroke="black" stroke-width="1.5" stroke-linecap="round" stroke-linejoin="round"/>
</svg>
