<svg width="24" height="24" viewBox="0 0 24 24" fill="none" xmlns="http://www.w3.org/2000/svg">
<rect x="3" y="6" width="18" height="15" rx="3" stroke="black" stroke-width="1.5" stroke-linecap="round" stroke-linejoin="round"/>
<path fill-rule="evenodd" clip-rule="evenodd" d="M11.7739 11.1575L12 11.3871L12.2261 11.1574C12.6376 10.737 13.201 10.5 13.7893 10.5C14.3776 10.5 14.9411 10.737 15.3525 11.1574V11.1574C16.2158 12.0395 16.2158 13.4499 15.3525 14.3319L13.2374 16.4796C12.9117 16.8124 12.4657 17 12 17C11.5343 17 11.0882 16.8124 10.7625 16.4796L8.6475 14.332C7.78417 13.4499 7.78417 12.0396 8.6475 11.1575V11.1575C9.05893 10.737 9.62241 10.5 10.2107 10.5C10.799 10.5 11.3624 10.737 11.7739 11.1575Z" stroke="black" stroke-width="1.5" stroke-linecap="round" stroke-linejoin="round"/>
<path d="M5.5 3H18.5" stroke="black" stroke-width="1.5" stroke-linecap="round" stroke-linejoin="round"/>
</svg>
