<svg width="24" height="24" viewBox="0 0 24 24" fill="none" xmlns="http://www.w3.org/2000/svg">
<rect x="3" y="6" width="18" height="15" rx="3" stroke="black" stroke-width="1.5" stroke-linecap="round" stroke-linejoin="round"/>
<path d="M5 3H19" stroke="black" stroke-width="1.5" stroke-linecap="round" stroke-linejoin="round"/>
<path d="M12.0501 13.5001C12.05 13.5277 12.0276 13.55 12 13.55C11.9724 13.55 11.9501 13.5276 11.9501 13.5C11.95 13.4724 11.9724 13.45 12 13.45C12.0133 13.45 12.026 13.4552 12.0354 13.4646C12.0448 13.474 12.0501 13.4868 12.0501 13.5001" stroke="black" stroke-width="1.5" stroke-linecap="round" stroke-linejoin="round"/>
<path d="M15.5501 13.5001C15.55 13.5277 15.5276 13.55 15.5 13.55C15.4724 13.55 15.4501 13.5276 15.4501 13.5C15.45 13.4724 15.4724 13.45 15.5 13.45C15.5133 13.45 15.526 13.4552 15.5354 13.4646C15.5448 13.474 15.5501 13.4868 15.5501 13.5001" stroke="black" stroke-width="1.5" stroke-linecap="round" stroke-linejoin="round"/>
<path d="M8.55006 13.5001C8.55003 13.5277 8.52764 13.55 8.50004 13.55C8.47244 13.55 8.45007 13.5276 8.45006 13.5C8.45005 13.4724 8.4724 13.45 8.5 13.45C8.51328 13.45 8.52602 13.4553 8.53542 13.4646C8.54481 13.474 8.55008 13.4868 8.55006 13.5001" stroke="black" stroke-width="1.5" stroke-linecap="round" stroke-linejoin="round"/>
</svg>
