<svg width="24" height="24" viewBox="0 0 24 24" fill="none" xmlns="http://www.w3.org/2000/svg">
<path d="M14.6741 21.0036H5.9975C4.33996 21.0036 2.99625 19.6599 2.99625 18.0023V5.99734C2.99625 4.3398 4.33996 2.99609 5.9975 2.99609H18.0025C19.66 2.99609 21.0037 4.3398 21.0037 5.99734V14.674" stroke="black" stroke-width="1.5" stroke-linecap="round" stroke-linejoin="round"/>
<path d="M21.0037 7.99826H2.99625" stroke="black" stroke-width="1.5" stroke-linecap="round" stroke-linejoin="round"/>
<path d="M17.5023 13.001C19.9886 13.001 22.0042 15.0165 22.0042 17.5029C22.0042 19.9892 19.9886 22.0047 17.5023 22.0047C15.016 22.0047 13.0004 19.9892 13.0004 17.5029C13.0004 15.0165 15.016 13.001 17.5023 13.001" stroke="black" stroke-width="1.5" stroke-linecap="round" stroke-linejoin="round"/>
<path d="M18.7248 17.4521C18.6972 17.4521 18.6748 17.4745 18.6748 17.5022C18.6748 17.5298 18.6972 17.5522 18.7248 17.5522C18.7524 17.5522 18.7748 17.5298 18.7748 17.5022C18.7748 17.4745 18.7524 17.4521 18.7248 17.4521" stroke="black" stroke-width="1.5" stroke-linecap="round" stroke-linejoin="round"/>
<path d="M16.2788 17.4521C16.2656 17.4521 16.253 17.4574 16.2438 17.4669C16.2345 17.4763 16.2295 17.489 16.2298 17.5022C16.2298 17.5298 16.2522 17.5522 16.2798 17.5522C16.3074 17.5522 16.3298 17.5298 16.3298 17.5022C16.3298 17.4745 16.3074 17.4521 16.2798 17.4521" stroke="black" stroke-width="1.5" stroke-linecap="round" stroke-linejoin="round"/>
</svg>
