<svg width="24" height="24" viewBox="0 0 24 24" fill="none" xmlns="http://www.w3.org/2000/svg">
<path fill-rule="evenodd" clip-rule="evenodd" d="M17.0021 15.0014V8.99891C17.0021 8.43344 16.7628 7.89437 16.3435 7.51504C15.9241 7.13571 15.3638 6.95154 14.8012 7.00808L8.79867 7.60833C7.77626 7.71109 6.99792 8.57161 6.99792 9.59916V14.4012C6.99792 15.4287 7.77626 16.2892 8.79867 16.392L14.8012 16.9922C15.3638 17.0488 15.9241 16.8646 16.3435 16.4853C16.7628 16.106 17.0021 15.5669 17.0021 15.0014Z" stroke="black" stroke-width="1.5" stroke-linecap="round" stroke-linejoin="round"/>
<path fill-rule="evenodd" clip-rule="evenodd" d="M2.99625 6.99776C2.99625 4.7877 4.78786 2.99609 6.99792 2.99609H17.0021C19.2121 2.99609 21.0038 4.7877 21.0038 6.99776V17.0019C21.0038 19.212 19.2121 21.0036 17.0021 21.0036H6.99792C4.78786 21.0036 2.99625 19.212 2.99625 17.0019V6.99776Z" stroke="black" stroke-width="1.5" stroke-linecap="round" stroke-linejoin="round"/>
</svg>
