<svg width="24" height="24" viewBox="0 0 24 24" fill="none" xmlns="http://www.w3.org/2000/svg">
<path d="M16.0016 11.5L18.0025 13.5008L16.0016 15.5017" stroke="black" stroke-width="1.5" stroke-linecap="round" stroke-linejoin="round"/>
<path d="M7.99833 12.0002L5.9975 9.99937L7.99833 7.99854" stroke="black" stroke-width="1.5" stroke-linecap="round" stroke-linejoin="round"/>
<path d="M12 13.5012H18.0025" stroke="black" stroke-width="1.5" stroke-linecap="round" stroke-linejoin="round"/>
<path d="M5.9975 9.99972H12" stroke="black" stroke-width="1.5" stroke-linecap="round" stroke-linejoin="round"/>
<path d="M12 5.99783H19.0029C20.1084 5.99783 21.0037 6.8932 21.0037 7.99867V19.0032C21.0037 20.1087 20.1084 21.0041 19.0029 21.0041H14.0008C12.8954 21.0041 12 20.1087 12 19.0032V4.99742C12 3.89195 11.1046 2.99658 9.99916 2.99658H4.99708C3.89162 2.99658 2.99625 3.89195 2.99625 4.99742V15.0016C2.99625 16.107 3.89162 17.0024 4.99708 17.0024H12" stroke="black" stroke-width="1.5" stroke-linecap="round" stroke-linejoin="round"/>
</svg>
