<svg width="24" height="24" viewBox="0 0 24 24" fill="none" xmlns="http://www.w3.org/2000/svg">
<path d="M15.1703 21.0036H5.9975C4.33995 21.0036 2.99625 19.6599 2.99625 18.0023V5.99734C2.99625 4.3398 4.33995 2.99609 5.9975 2.99609H18.0025C19.66 2.99609 21.0037 4.3398 21.0037 5.99734V14.1537" stroke="black" stroke-width="1.5" stroke-linecap="round" stroke-linejoin="round"/>
<path d="M21.0037 7.99826H2.99625" stroke="black" stroke-width="1.5" stroke-linecap="round" stroke-linejoin="round"/>
<path d="M6.7478 17.5022H9.99916" stroke="black" stroke-width="1.5" stroke-linecap="round" stroke-linejoin="round"/>
<path d="M6.7478 14.5012H10.9996" stroke="black" stroke-width="1.5" stroke-linecap="round" stroke-linejoin="round"/>
<path d="M6.7478 11.5002H13.0004" stroke="black" stroke-width="1.5" stroke-linecap="round" stroke-linejoin="round"/>
<path d="M18.0025 13.001C20.4888 13.001 22.5044 15.0165 22.5044 17.5029C22.5044 19.9892 20.4888 22.0047 18.0025 22.0047C15.5162 22.0047 13.5006 19.9892 13.5006 17.5029C13.5006 15.0165 15.5162 13.001 18.0025 13.001" stroke="black" stroke-width="1.5" stroke-linecap="round" stroke-linejoin="round"/>
<path d="M19.225 17.4521C19.1974 17.4521 19.175 17.4745 19.175 17.5022C19.175 17.5298 19.1974 17.5522 19.225 17.5522C19.2526 17.5522 19.275 17.5298 19.275 17.5022C19.275 17.4745 19.2526 17.4521 19.225 17.4521" stroke="black" stroke-width="1.5" stroke-linecap="round" stroke-linejoin="round"/>
<path d="M16.779 17.4521C16.7658 17.4521 16.7532 17.4574 16.744 17.4669C16.7348 17.4763 16.7297 17.489 16.73 17.5022C16.73 17.5298 16.7524 17.5522 16.78 17.5522C16.8076 17.5522 16.83 17.5298 16.83 17.5022C16.83 17.4745 16.8076 17.4521 16.78 17.4521" stroke="black" stroke-width="1.5" stroke-linecap="round" stroke-linejoin="round"/>
</svg>
