<svg width="24" height="24" viewBox="0 0 24 24" fill="none" xmlns="http://www.w3.org/2000/svg">
<path d="M9.5 15.5L7 18L5.5 16.5" stroke="black" stroke-width="1.5" stroke-linecap="round" stroke-linejoin="round"/>
<path fill-rule="evenodd" clip-rule="evenodd" d="M9.75 21H5.25C4.007 21 3 19.993 3 18.75V14.25C3 13.007 4.007 12 5.25 12H9.75C10.993 12 12 13.007 12 14.25V18.75C12 19.993 10.993 21 9.75 21Z" stroke="black" stroke-width="1.5" stroke-linecap="round" stroke-linejoin="round"/>
<path d="M14 10L17 7" stroke="black" stroke-width="1.5" stroke-linecap="round" stroke-linejoin="round"/>
<path d="M17 10V7H14" stroke="black" stroke-width="1.5" stroke-linecap="round" stroke-linejoin="round"/>
<path d="M15 21H17C19.209 21 21 19.209 21 17V7C21 4.791 19.209 3 17 3H7C4.791 3 3 4.791 3 7V9" stroke="black" stroke-width="1.5" stroke-linecap="round" stroke-linejoin="round"/>
</svg>
