<svg width="24" height="24" viewBox="0 0 24 24" fill="none" xmlns="http://www.w3.org/2000/svg">
<path d="M12.2498 2.99609C12.2498 2.58188 11.914 2.24609 11.4998 2.24609C11.0856 2.24609 10.7498 2.58188 10.7498 2.99609H12.2498ZM10.7498 4.05553C10.7498 4.46975 11.0856 4.80553 11.4998 4.80553C11.914 4.80553 12.2498 4.46975 12.2498 4.05553H10.7498ZM13.2502 5.11498C13.2502 4.70076 12.9144 4.36498 12.5002 4.36498C12.086 4.36498 11.7502 4.70076 11.7502 5.11498H13.2502ZM11.7502 6.17442C11.7502 6.58863 12.086 6.92442 12.5002 6.92442C12.9144 6.92442 13.2502 6.58863 13.2502 6.17442H11.7502ZM12.2498 7.23386C12.2498 6.81964 11.914 6.48386 11.4998 6.48386C11.0856 6.48386 10.7498 6.81964 10.7498 7.23386H12.2498ZM10.7498 8.2923C10.7498 8.70651 11.0856 9.0423 11.4998 9.0423C11.914 9.0423 12.2498 8.70651 12.2498 8.2923H10.7498ZM13.2502 9.35174C13.2502 8.93753 12.9144 8.60174 12.5002 8.60174C12.086 8.60174 11.7502 8.93753 11.7502 9.35174H13.2502ZM11.7502 10.4112C11.7502 10.8254 12.086 11.1612 12.5002 11.1612C12.9144 11.1612 13.2502 10.8254 13.2502 10.4112H11.7502ZM12.2498 11.4706C12.2498 11.0564 11.914 10.7206 11.4998 10.7206C11.0856 10.7206 10.7498 11.0564 10.7498 11.4706H12.2498ZM10.7498 12.5301C10.7498 12.9443 11.0856 13.2801 11.4998 13.2801C11.914 13.2801 12.2498 12.9443 12.2498 12.5301H10.7498ZM13.2502 13.5885C13.2502 13.1743 12.9144 12.8385 12.5002 12.8385C12.086 12.8385 11.7502 13.1743 11.7502 13.5885H13.2502ZM11.7502 14.6479C11.7502 15.0622 12.086 15.3979 12.5002 15.3979C12.9144 15.3979 13.2502 15.0622 13.2502 14.6479H11.7502ZM12.2498 15.7074C12.2498 15.2932 11.914 14.9574 11.4998 14.9574C11.0856 14.9574 10.7498 15.2932 10.7498 15.7074H12.2498ZM10.7498 16.7668C10.7498 17.181 11.0856 17.5168 11.4998 17.5168C11.914 17.5168 12.2498 17.181 12.2498 16.7668H10.7498ZM13.2502 17.8263C13.2502 17.4121 12.9144 17.0763 12.5002 17.0763C12.086 17.0763 11.7502 17.4121 11.7502 17.8263H13.2502ZM11.7502 18.8857C11.7502 19.2999 12.086 19.6357 12.5002 19.6357C12.9144 19.6357 13.2502 19.2999 13.2502 18.8857H11.7502ZM12.2498 19.9442C12.2498 19.5299 11.914 19.1942 11.4998 19.1942C11.0856 19.1942 10.7498 19.5299 10.7498 19.9442H12.2498ZM10.7498 21.0036C10.7498 21.4178 11.0856 21.7536 11.4998 21.7536C11.914 21.7536 12.2498 21.4178 12.2498 21.0036H10.7498ZM10.7498 2.99609V4.05553H12.2498V2.99609H10.7498ZM11.7502 5.11498V6.17442H13.2502V5.11498H11.7502ZM20.2537 11.9998C20.2537 16.5583 16.5584 20.2536 12 20.2536V21.7536C17.3868 21.7536 21.7537 17.3867 21.7537 11.9998H20.2537ZM12 20.2536C7.44158 20.2536 3.74625 16.5583 3.74625 11.9998H2.24625C2.24625 17.3867 6.61315 21.7536 12 21.7536V20.2536ZM3.74625 11.9998C3.74625 7.44142 7.44158 3.74609 12 3.74609V2.24609C6.61315 2.24609 2.24625 6.613 2.24625 11.9998H3.74625ZM12 3.74609C14.189 3.74609 16.2884 4.61568 17.8363 6.16356L18.8969 5.1029C17.0678 3.27372 14.5869 2.24609 12 2.24609V3.74609ZM17.8363 6.16356C19.3842 7.71144 20.2537 9.81081 20.2537 11.9998H21.7537C21.7537 9.41299 20.7261 6.93208 18.8969 5.1029L17.8363 6.16356ZM10.7498 7.23386V8.2923H12.2498V7.23386H10.7498ZM11.7502 9.35174V10.4112H13.2502V9.35174H11.7502ZM10.7498 11.4706V12.5301H12.2498V11.4706H10.7498ZM11.7502 13.5885V14.6479H13.2502V13.5885H11.7502ZM10.7498 15.7074V16.7668H12.2498V15.7074H10.7498ZM11.7502 17.8263V18.8857H13.2502V17.8263H11.7502ZM10.7498 19.9442V21.0036H12.2498V19.9442H10.7498Z" fill="black"/>
</svg>
