<svg width="24" height="24" viewBox="0 0 24 24" fill="none" xmlns="http://www.w3.org/2000/svg">
<circle cx="12" cy="11.9998" r="9.00375" stroke="black" stroke-width="1.5" stroke-linecap="round" stroke-linejoin="round"/>
<circle cx="12" cy="16.5016" r="1.50063" stroke="black" stroke-width="1.5" stroke-linecap="round" stroke-linejoin="round"/>
<path d="M12.125 12.0002C12.125 12.0693 12.0691 12.1253 12 12.1253C11.9309 12.1253 11.8749 12.0693 11.8749 12.0002C11.8749 11.9311 11.9309 11.8752 12 11.8752" stroke="black" stroke-width="1.5" stroke-linecap="round" stroke-linejoin="round"/>
<path d="M12 11.8752C12.0691 11.8752 12.1251 11.9312 12.1251 12.0002" stroke="black" stroke-width="1.5" stroke-linecap="round" stroke-linejoin="round"/>
<path d="M12.125 9.00411C12.125 9.07318 12.0691 9.12917 12 9.12917C11.9309 9.12917 11.8749 9.07318 11.8749 9.00411C11.8749 8.93505 11.9309 8.87906 12 8.87906" stroke="black" stroke-width="1.5" stroke-linecap="round" stroke-linejoin="round"/>
<path d="M12 8.87909C12.0691 8.87909 12.1251 8.93508 12.1251 9.00414" stroke="black" stroke-width="1.5" stroke-linecap="round" stroke-linejoin="round"/>
<path d="M12.125 5.9924C12.125 6.06146 12.0691 6.11745 12 6.11745C11.9309 6.11745 11.8749 6.06146 11.8749 5.9924C11.8749 5.92333 11.9309 5.86734 12 5.86734" stroke="black" stroke-width="1.5" stroke-linecap="round" stroke-linejoin="round"/>
<path d="M12 5.86737C12.0691 5.86737 12.1251 5.92336 12.1251 5.99242" stroke="black" stroke-width="1.5" stroke-linecap="round" stroke-linejoin="round"/>
</svg>
