<svg width="24" height="24" viewBox="0 0 24 24" fill="none" xmlns="http://www.w3.org/2000/svg">
<path d="M7.99833 2.99609C6.8933 2.99609 5.9975 3.8919 5.9975 4.99693V6.99776" stroke="black" stroke-width="1.5" stroke-linecap="round" stroke-linejoin="round"/>
<path d="M21.0037 4.99693C21.0037 3.8919 20.1079 2.99609 19.0029 2.99609" stroke="black" stroke-width="1.5" stroke-linecap="round" stroke-linejoin="round"/>
<path d="M17.0021 18.0028H19.0029C20.1079 18.0028 21.0037 17.107 21.0037 16.002" stroke="black" stroke-width="1.5" stroke-linecap="round" stroke-linejoin="round"/>
<path d="M10.9999 9.99923H8.99905" stroke="black" stroke-width="1.5" stroke-linecap="round" stroke-linejoin="round"/>
<path fill-rule="evenodd" clip-rule="evenodd" d="M10.9994 18.0031H8.99896C8.70773 18.0031 8.43095 17.8762 8.2409 17.6555C8.05086 17.4348 7.96641 17.1423 8.00961 16.8542L8.52369 13.427C8.56042 13.1821 8.77077 13.001 9.01837 13.001H10.98C11.2276 13.001 11.4379 13.1821 11.4746 13.427L11.9887 16.8542C12.0319 17.1423 11.9475 17.4348 11.7574 17.6555C11.5674 17.8762 11.2906 18.0031 10.9994 18.0031V18.0031Z" stroke="black" stroke-width="1.5" stroke-linecap="round" stroke-linejoin="round"/>
<path fill-rule="evenodd" clip-rule="evenodd" d="M13.89 6.99805H6.10834C4.38958 6.99805 2.99625 8.39138 2.99625 10.1101V10.1101V17.8918C2.99625 19.6105 4.38958 21.0039 6.10834 21.0039H13.89C15.6087 21.0039 17.0021 19.6105 17.0021 17.8918V17.8918V10.1087C17.0013 8.39053 15.6082 6.99805 13.89 6.99805Z" stroke="black" stroke-width="1.5" stroke-linecap="round" stroke-linejoin="round"/>
<path d="M21.0037 12.0003V8.99902" stroke="black" stroke-width="1.5" stroke-linecap="round" stroke-linejoin="round"/>
<path d="M15.0013 2.9963H12" stroke="black" stroke-width="1.5" stroke-linecap="round" stroke-linejoin="round"/>
</svg>
