<svg width="24" height="24" viewBox="0 0 24 24" fill="none" xmlns="http://www.w3.org/2000/svg">
<path d="M12.2498 2.99609C12.2498 2.58188 11.914 2.24609 11.4998 2.24609C11.0856 2.24609 10.7498 2.58188 10.7498 2.99609H12.2498ZM10.7498 4.1512C10.7498 4.56542 11.0856 4.9012 11.4998 4.9012C11.914 4.9012 12.2498 4.56542 12.2498 4.1512H10.7498ZM13.2502 5.01922C13.2502 4.605 12.9144 4.26922 12.5002 4.26922C12.086 4.26922 11.7502 4.605 11.7502 5.01922H13.2502ZM11.7502 6.26974C11.7502 6.68395 12.086 7.01974 12.5002 7.01974C12.9144 7.01974 13.2502 6.68395 13.2502 6.26974H11.7502ZM12.2498 7.13774C12.2498 6.72353 11.914 6.38774 11.4998 6.38774C11.0856 6.38774 10.7498 6.72353 10.7498 7.13774H12.2498ZM10.7498 8.38826C10.7498 8.80247 11.0856 9.13826 11.4998 9.13826C11.914 9.13826 12.2498 8.80247 12.2498 8.38826H10.7498ZM13.2502 9.25627C13.2502 8.84206 12.9144 8.50627 12.5002 8.50627C12.086 8.50627 11.7502 8.84206 11.7502 9.25627H13.2502ZM11.7502 10.5068C11.7502 10.921 12.086 11.2568 12.5002 11.2568C12.9144 11.2568 13.2502 10.921 13.2502 10.5068H11.7502ZM12.2498 11.3748C12.2498 10.9606 11.914 10.6248 11.4998 10.6248C11.0856 10.6248 10.7498 10.9606 10.7498 11.3748H12.2498ZM10.7498 12.6253C10.7498 13.0395 11.0856 13.3753 11.4998 13.3753C11.914 13.3753 12.2498 13.0395 12.2498 12.6253H10.7498ZM13.2502 13.4933C13.2502 13.0791 12.9144 12.7433 12.5002 12.7433C12.086 12.7433 11.7502 13.0791 11.7502 13.4933H13.2502ZM11.7502 14.7438C11.7502 15.1581 12.086 15.4938 12.5002 15.4938C12.9144 15.4938 13.2502 15.1581 13.2502 14.7438H11.7502ZM12.2498 19.849C12.2498 19.4348 11.914 19.099 11.4998 19.099C11.0856 19.099 10.7498 19.4348 10.7498 19.849H12.2498ZM10.7498 21.0036C10.7498 21.4178 11.0856 21.7536 11.4998 21.7536C11.914 21.7536 12.2498 21.4178 12.2498 21.0036H10.7498ZM13.2502 17.7304C13.2502 17.3162 12.9144 16.9804 12.5002 16.9804C12.086 16.9804 11.7502 17.3162 11.7502 17.7304H13.2502ZM11.7502 18.9809C11.7502 19.3951 12.086 19.7309 12.5002 19.7309C12.9144 19.7309 13.2502 19.3951 13.2502 18.9809H11.7502ZM12.2498 15.6119C12.2498 15.1976 11.914 14.8619 11.4998 14.8619C11.0856 14.8619 10.7498 15.1976 10.7498 15.6119H12.2498ZM10.7498 16.8624C10.7498 17.2766 11.0856 17.6124 11.4998 17.6124C11.914 17.6124 12.2498 17.2766 12.2498 16.8624H10.7498ZM10.7498 2.99609V4.1512H12.2498V2.99609H10.7498ZM11.7502 5.01922V6.26974H13.2502V5.01922H11.7502ZM10.7498 7.13774V8.38826H12.2498V7.13774H10.7498ZM11.7502 9.25627V10.5068H13.2502V9.25627H11.7502ZM10.7498 11.3748V12.6253H12.2498V11.3748H10.7498ZM11.7502 13.4933V14.7438H13.2502V13.4933H11.7502ZM10.7498 19.849V21.0036H12.2498V19.849H10.7498ZM11.7502 17.7304V18.9809H13.2502V17.7304H11.7502ZM7.99833 3.74609H16.0017V2.24609H7.99833V3.74609ZM16.0017 3.74609C18.35 3.74609 20.2537 5.64982 20.2537 7.99818H21.7537C21.7537 4.82139 19.1785 2.24609 16.0017 2.24609V3.74609ZM20.2537 7.99818V16.0015H21.7537V7.99818H20.2537ZM20.2537 16.0015C20.2537 18.3499 18.35 20.2536 16.0017 20.2536V21.7536C19.1785 21.7536 21.7537 19.1783 21.7537 16.0015H20.2537ZM16.0017 20.2536H7.99833V21.7536H16.0017V20.2536ZM7.99833 20.2536C5.64997 20.2536 3.74625 18.3499 3.74625 16.0015H2.24625C2.24625 19.1783 4.82154 21.7536 7.99833 21.7536V20.2536ZM3.74625 16.0015V7.99818H2.24625V16.0015H3.74625ZM3.74625 7.99818C3.74625 5.64982 5.64997 3.74609 7.99833 3.74609V2.24609C4.82154 2.24609 2.24625 4.82139 2.24625 7.99818H3.74625ZM10.7498 15.6119V16.8624H12.2498V15.6119H10.7498Z" fill="black"/>
</svg>
