<svg width="24" height="24" viewBox="0 0 24 24" fill="none" xmlns="http://www.w3.org/2000/svg">
<circle cx="12" cy="16.5016" r="1.50063" stroke="black" stroke-width="1.5" stroke-linecap="round" stroke-linejoin="round"/>
<rect x="2.99625" y="2.99609" width="18.0075" height="18.0075" rx="4" stroke="black" stroke-width="1.5" stroke-linecap="round" stroke-linejoin="round"/>
<path d="M12.12 9.00411C12.12 9.07318 12.0641 9.12917 11.995 9.12917C11.9259 9.12917 11.8699 9.07318 11.8699 9.00411C11.8699 8.93505 11.9259 8.87906 11.995 8.87906" stroke="black" stroke-width="1.5" stroke-linecap="round" stroke-linejoin="round"/>
<path d="M11.995 8.87909C12.0641 8.87909 12.1201 8.93508 12.1201 9.00414" stroke="black" stroke-width="1.5" stroke-linecap="round" stroke-linejoin="round"/>
<path d="M12.1301 5.9924C12.1301 6.06146 12.0741 6.11745 12.005 6.11745C11.9359 6.11745 11.8799 6.06146 11.8799 5.9924C11.8799 5.92333 11.9359 5.86734 12.005 5.86734" stroke="black" stroke-width="1.5" stroke-linecap="round" stroke-linejoin="round"/>
<path d="M12.005 5.86737C12.0741 5.86737 12.1301 5.92336 12.1301 5.99242" stroke="black" stroke-width="1.5" stroke-linecap="round" stroke-linejoin="round"/>
<path d="M12.1251 12.0002C12.1251 12.0693 12.0691 12.1253 12 12.1253C11.9309 12.1253 11.8749 12.0693 11.8749 12.0002C11.8749 11.9311 11.9309 11.8752 12 11.8752" stroke="black" stroke-width="1.5" stroke-linecap="round" stroke-linejoin="round"/>
<path d="M12 11.8752C12.0691 11.8752 12.1251 11.9312 12.1251 12.0002" stroke="black" stroke-width="1.5" stroke-linecap="round" stroke-linejoin="round"/>
</svg>
