<svg width="24" height="24" viewBox="0 0 24 24" fill="none" xmlns="http://www.w3.org/2000/svg">
<path fill-rule="evenodd" clip-rule="evenodd" d="M9.24288 9.87019C8.05824 10.0315 7.1424 11.0366 7.1424 12.2654C7.1424 13.6065 8.23008 14.6942 9.5712 14.6942H14.9136C15.9869 14.6942 16.8566 13.8244 16.8566 12.7512C16.8566 11.6779 15.9869 10.8081 14.9136 10.8081C14.9136 9.19819 13.609 7.89355 11.999 7.89355C10.7194 7.89355 9.6336 8.72107 9.24288 9.87019Z" stroke="black" stroke-width="1.5" stroke-linecap="round" stroke-linejoin="round"/>
<path d="M18.1095 5.42415C21.4836 8.79828 21.4836 14.2688 18.1095 17.6429C14.7353 21.0171 9.26479 21.0171 5.89068 17.6429C2.51654 14.2688 2.51654 8.79827 5.89068 5.42415C9.26481 2.05002 14.7353 2.05002 18.1095 5.42415" stroke="black" stroke-width="1.5" stroke-linecap="round" stroke-linejoin="round"/>
</svg>
